<?xml version="1.0" encoding="UTF-8" standalone="no"?>
<svg
   width="1019.00mm"
   height="359.39mm"
   viewBox="0.0 0.0 1019.00 359.39"
   version="1.1"
   id="svg1168"
   sodipodi:docname="hectagonum_sides.svg"
   inkscape:version="1.2.2 (b0a84865, 2022-12-01)"
   xml:space="preserve"
   xmlns:inkscape="http://www.inkscape.org/namespaces/inkscape"
   xmlns:sodipodi="http://sodipodi.sourceforge.net/DTD/sodipodi-0.dtd"
   xmlns="http://www.w3.org/2000/svg"
   xmlns:svg="http://www.w3.org/2000/svg"
   xmlns:rdf="http://www.w3.org/1999/02/22-rdf-syntax-ns#"
   xmlns:cc="http://creativecommons.org/ns#"
   xmlns:dc="http://purl.org/dc/elements/1.1/"><defs
     id="defs1172" /><sodipodi:namedview
     id="namedview1170"
     pagecolor="#ffffff"
     bordercolor="#666666"
     borderopacity="1.0"
     inkscape:showpageshadow="2"
     inkscape:pageopacity="0.0"
     inkscape:pagecheckerboard="0"
     inkscape:deskcolor="#d1d1d1"
     inkscape:document-units="mm"
     showgrid="false"
     inkscape:zoom="0.44140498"
     inkscape:cx="1027.4012"
     inkscape:cy="346.62047"
     inkscape:window-width="1680"
     inkscape:window-height="928"
     inkscape:window-x="0"
     inkscape:window-y="25"
     inkscape:window-maximized="1"
     inkscape:current-layer="svg1168" /><!--
RegularBox - Box with regular polygon as base


For short side walls that don't fit a connecting finger reduce *surroundingspaces* and *finger* in the Finger Joint Settings.

The lids needs to be glued. For the bayonet lid all outside rings attach to the bottom, all inside rings to the top.



Created with Boxes.py (https://festi.info/boxes.py)
Creation date: 2022-12-16 15:41:29
Command line (remove spaces between dashes): boxes RegularBox - -FingerJoint_angle=90.0 - -FingerJoint_style=rectangular - -FingerJoint_surroundingspaces=1.0 - -FingerJoint_edge_width=1.0 - -FingerJoint_extra_length=0.0 - -FingerJoint_finger=2.0 - -FingerJoint_play=0.1 - -FingerJoint_space=2.0 - -FingerJoint_width=1.0 - -h=40 - -outside=0 - -outside=1 - -radius=165 - -n=6 '- -top=angled hole' - -alignment_pins=1.0 - -thickness=3.0 - -format=svg - -tabs=0.0 - -debug=0 - -labels=0 - -labels=1 - -reference=100 - -inner_corners=loop - -burn=0.1
Url: http://localhost:8000/RegularBox?FingerJoint_angle=90.0&FingerJoint_style=rectangular&FingerJoint_surroundingspaces=1.0&FingerJoint_edge_width=1.0&FingerJoint_extra_length=0.0&FingerJoint_finger=2.0&FingerJoint_play=0.1&FingerJoint_space=2.0&FingerJoint_width=1.0&h=40&outside=0&outside=1&radius=165&n=6&top=angled+hole&alignment_pins=1.0&thickness=3.0&format=svg&tabs=0.0&debug=0&labels=0&labels=1&reference=100&inner_corners=loop&burn=0.1&render=1
SettingsUrl: http://localhost:8000/RegularBox?FingerJoint_angle=90.0&FingerJoint_style=rectangular&FingerJoint_surroundingspaces=1.0&FingerJoint_edge_width=1.0&FingerJoint_extra_length=0.0&FingerJoint_finger=2.0&FingerJoint_play=0.1&FingerJoint_space=2.0&FingerJoint_width=1.0&h=40&outside=0&outside=1&radius=165&n=6&top=angled+hole&alignment_pins=1.0&thickness=3.0&format=svg&tabs=0.0&debug=0&labels=0&labels=1&reference=100&inner_corners=loop&burn=0.1
--><title
     id="title1135">RegularBox</title><metadata
     id="metadata1137"><rdf:RDF><cc:Work><dc:title>RegularBox</dc:title><dc:date>2022-12-16 15:41:29</dc:date><dc:source>http://localhost:8000/RegularBox?FingerJoint_angle=90.0&amp;FingerJoint_style=rectangular&amp;FingerJoint_surroundingspaces=1.0&amp;FingerJoint_edge_width=1.0&amp;FingerJoint_extra_length=0.0&amp;FingerJoint_finger=2.0&amp;FingerJoint_play=0.1&amp;FingerJoint_space=2.0&amp;FingerJoint_width=1.0&amp;h=40&amp;outside=0&amp;outside=1&amp;radius=165&amp;n=6&amp;top=angled+hole&amp;alignment_pins=1.0&amp;thickness=3.0&amp;format=svg&amp;tabs=0.0&amp;debug=0&amp;labels=0&amp;labels=1&amp;reference=100&amp;inner_corners=loop&amp;burn=0.1&amp;render=1</dc:source><dc:description>Box with regular polygon as base

For short side walls that don't fit a connecting finger reduce *surroundingspaces* and *finger* in the Finger Joint Settings.

The lids needs to be glued. For the bayonet lid all outside rings attach to the bottom, all inside rings to the top.


Created with Boxes.py (https://festi.info/boxes.py)
Command line: boxes RegularBox --FingerJoint_angle=90.0 --FingerJoint_style=rectangular --FingerJoint_surroundingspaces=1.0 --FingerJoint_edge_width=1.0 --FingerJoint_extra_length=0.0 --FingerJoint_finger=2.0 --FingerJoint_play=0.1 --FingerJoint_space=2.0 --FingerJoint_width=1.0 --h=40 --outside=0 --outside=1 --radius=165 --n=6 '--top=angled hole' --alignment_pins=1.0 --thickness=3.0 --format=svg --tabs=0.0 --debug=0 --labels=0 --labels=1 --reference=100 --inner_corners=loop --burn=0.1
Url: http://localhost:8000/RegularBox?FingerJoint_angle=90.0&amp;FingerJoint_style=rectangular&amp;FingerJoint_surroundingspaces=1.0&amp;FingerJoint_edge_width=1.0&amp;FingerJoint_extra_length=0.0&amp;FingerJoint_finger=2.0&amp;FingerJoint_play=0.1&amp;FingerJoint_space=2.0&amp;FingerJoint_width=1.0&amp;h=40&amp;outside=0&amp;outside=1&amp;radius=165&amp;n=6&amp;top=angled+hole&amp;alignment_pins=1.0&amp;thickness=3.0&amp;format=svg&amp;tabs=0.0&amp;debug=0&amp;labels=0&amp;labels=1&amp;reference=100&amp;inner_corners=loop&amp;burn=0.1&amp;render=1
SettingsUrl: http://localhost:8000/RegularBox?FingerJoint_angle=90.0&amp;FingerJoint_style=rectangular&amp;FingerJoint_surroundingspaces=1.0&amp;FingerJoint_edge_width=1.0&amp;FingerJoint_extra_length=0.0&amp;FingerJoint_finger=2.0&amp;FingerJoint_play=0.1&amp;FingerJoint_space=2.0&amp;FingerJoint_width=1.0&amp;h=40&amp;outside=0&amp;outside=1&amp;radius=165&amp;n=6&amp;top=angled+hole&amp;alignment_pins=1.0&amp;thickness=3.0&amp;format=svg&amp;tabs=0.0&amp;debug=0&amp;labels=0&amp;labels=1&amp;reference=100&amp;inner_corners=loop&amp;burn=0.1
</dc:description></cc:Work></rdf:RDF></metadata><g
     id="p-3"
     style="fill:none;stroke-linecap:round;stroke-linejoin:round;stroke:#ff0505;stroke-opacity:1"><path
       d="M 12.132 47.200 H 17.800 C 17.900 47.200 17.800 47.100 17.800 47.200 V 50.100 C 17.800 50.155 17.845 50.200 17.900 50.200 H 23.900 C 23.955 50.200 24.000 50.155 24.000 50.100 V 47.200 C 24.000 47.100 23.900 47.200 24.000 47.200 H 29.800 C 29.900 47.200 29.800 47.100 29.800 47.200 V 50.100 C 29.800 50.155 29.845 50.200 29.900 50.200 H 35.900 C 35.955 50.200 36.000 50.155 36.000 50.100 V 47.200 C 36.000 47.100 35.900 47.200 36.000 47.200 H 41.800 C 41.900 47.200 41.800 47.100 41.800 47.200 V 50.100 C 41.800 50.155 41.845 50.200 41.900 50.200 H 47.900 C 47.955 50.200 48.000 50.155 48.000 50.100 V 47.200 C 48.000 47.100 47.900 47.200 48.000 47.200 H 53.800 C 53.900 47.200 53.800 47.100 53.800 47.200 V 50.100 C 53.800 50.155 53.845 50.200 53.900 50.200 H 59.900 C 59.955 50.200 60.000 50.155 60.000 50.100 V 47.200 C 60.000 47.100 59.900 47.200 60.000 47.200 H 65.800 C 65.900 47.200 65.800 47.100 65.800 47.200 V 50.100 C 65.800 50.155 65.845 50.200 65.900 50.200 H 71.900 C 71.955 50.200 72.000 50.155 72.000 50.100 V 47.200 C 72.000 47.100 71.900 47.200 72.000 47.200 H 77.800 C 77.900 47.200 77.800 47.100 77.800 47.200 V 50.100 C 77.800 50.155 77.845 50.200 77.900 50.200 H 83.900 C 83.955 50.200 84.000 50.155 84.000 50.100 V 47.200 C 84.000 47.100 83.900 47.200 84.000 47.200 H 89.800 C 89.900 47.200 89.800 47.100 89.800 47.200 V 50.100 C 89.800 50.155 89.845 50.200 89.900 50.200 H 95.900 C 95.955 50.200 96.000 50.155 96.000 50.100 V 47.200 C 96.000 47.100 95.900 47.200 96.000 47.200 H 101.800 C 101.900 47.200 101.800 47.100 101.800 47.200 V 50.100 C 101.800 50.155 101.845 50.200 101.900 50.200 H 107.900 C 107.955 50.200 108.000 50.155 108.000 50.100 V 47.200 C 108.000 47.100 107.900 47.200 108.000 47.200 H 113.800 C 113.900 47.200 113.800 47.100 113.800 47.200 V 50.100 C 113.800 50.155 113.845 50.200 113.900 50.200 H 119.900 C 119.955 50.200 120.000 50.155 120.000 50.100 V 47.200 C 120.000 47.100 119.900 47.200 120.000 47.200 H 125.800 C 125.900 47.200 125.800 47.100 125.800 47.200 V 50.100 C 125.800 50.155 125.845 50.200 125.900 50.200 H 131.900 C 131.955 50.200 132.000 50.155 132.000 50.100 V 47.200 C 132.000 47.100 131.900 47.200 132.000 47.200 H 137.800 C 137.900 47.200 137.800 47.100 137.800 47.200 V 50.100 C 137.800 50.155 137.845 50.200 137.900 50.200 H 143.900 C 143.955 50.200 144.000 50.155 144.000 50.100 V 47.200 C 144.000 47.100 143.900 47.200 144.000 47.200 H 149.800 C 149.900 47.200 149.800 47.100 149.800 47.200 V 50.100 C 149.800 50.155 149.845 50.200 149.900 50.200 H 155.900 C 155.955 50.200 156.000 50.155 156.000 50.100 V 47.200 C 156.000 47.100 155.900 47.200 156.000 47.200 H 161.800 C 161.900 47.200 161.800 47.100 161.800 47.200 V 50.100 C 161.800 50.155 161.845 50.200 161.900 50.200 H 167.900 C 167.955 50.200 168.000 50.155 168.000 50.100 V 47.200 C 168.000 47.100 167.900 47.200 168.000 47.200 H 173.668 H 175.400 C 175.455 47.200 175.500 47.155 175.500 47.100 V 39.250 C 175.500 39.195 175.455 39.150 175.400 39.150 H 172.902 C 172.802 39.150 172.902 39.250 172.902 39.150 V 33.050 C 172.902 32.950 172.802 33.050 172.902 33.050 H 175.400 C 175.455 33.050 175.500 33.005 175.500 32.950 V 27.250 C 175.500 27.195 175.455 27.150 175.400 27.150 H 172.902 C 172.802 27.150 172.902 27.250 172.902 27.150 V 21.050 C 172.902 20.950 172.802 21.050 172.902 21.050 H 175.400 C 175.455 21.050 175.500 21.005 175.500 20.950 V 13.100 C 175.500 13.045 175.455 13.000 175.400 13.000 H 173.668 H 168.000 C 167.900 13.000 168.000 13.100 168.000 13.000 V 10.100 C 168.000 10.045 167.955 10.000 167.900 10.000 H 161.900 C 161.845 10.000 161.800 10.045 161.800 10.100 V 13.000 C 161.800 13.100 161.900 13.000 161.800 13.000 H 156.000 C 155.900 13.000 156.000 13.100 156.000 13.000 V 10.100 C 156.000 10.045 155.955 10.000 155.900 10.000 H 149.900 C 149.845 10.000 149.800 10.045 149.800 10.100 V 13.000 C 149.800 13.100 149.900 13.000 149.800 13.000 H 144.000 C 143.900 13.000 144.000 13.100 144.000 13.000 V 10.100 C 144.000 10.045 143.955 10.000 143.900 10.000 H 137.900 C 137.845 10.000 137.800 10.045 137.800 10.100 V 13.000 C 137.800 13.100 137.900 13.000 137.800 13.000 H 132.000 C 131.900 13.000 132.000 13.100 132.000 13.000 V 10.100 C 132.000 10.045 131.955 10.000 131.900 10.000 H 125.900 C 125.845 10.000 125.800 10.045 125.800 10.100 V 13.000 C 125.800 13.100 125.900 13.000 125.800 13.000 H 120.000 C 119.900 13.000 120.000 13.100 120.000 13.000 V 10.100 C 120.000 10.045 119.955 10.000 119.900 10.000 H 113.900 C 113.845 10.000 113.800 10.045 113.800 10.100 V 13.000 C 113.800 13.100 113.900 13.000 113.800 13.000 H 108.000 C 107.900 13.000 108.000 13.100 108.000 13.000 V 10.100 C 108.000 10.045 107.955 10.000 107.900 10.000 H 101.900 C 101.845 10.000 101.800 10.045 101.800 10.100 V 13.000 C 101.800 13.100 101.900 13.000 101.800 13.000 H 96.000 C 95.900 13.000 96.000 13.100 96.000 13.000 V 10.100 C 96.000 10.045 95.955 10.000 95.900 10.000 H 89.900 C 89.845 10.000 89.800 10.045 89.800 10.100 V 13.000 C 89.800 13.100 89.900 13.000 89.800 13.000 H 84.000 C 83.900 13.000 84.000 13.100 84.000 13.000 V 10.100 C 84.000 10.045 83.955 10.000 83.900 10.000 H 77.900 C 77.845 10.000 77.800 10.045 77.800 10.100 V 13.000 C 77.800 13.100 77.900 13.000 77.800 13.000 H 72.000 C 71.900 13.000 72.000 13.100 72.000 13.000 V 10.100 C 72.000 10.045 71.955 10.000 71.900 10.000 H 65.900 C 65.845 10.000 65.800 10.045 65.800 10.100 V 13.000 C 65.800 13.100 65.900 13.000 65.800 13.000 H 60.000 C 59.900 13.000 60.000 13.100 60.000 13.000 V 10.100 C 60.000 10.045 59.955 10.000 59.900 10.000 H 53.900 C 53.845 10.000 53.800 10.045 53.800 10.100 V 13.000 C 53.800 13.100 53.900 13.000 53.800 13.000 H 48.000 C 47.900 13.000 48.000 13.100 48.000 13.000 V 10.100 C 48.000 10.045 47.955 10.000 47.900 10.000 H 41.900 C 41.845 10.000 41.800 10.045 41.800 10.100 V 13.000 C 41.800 13.100 41.900 13.000 41.800 13.000 H 36.000 C 35.900 13.000 36.000 13.100 36.000 13.000 V 10.100 C 36.000 10.045 35.955 10.000 35.900 10.000 H 29.900 C 29.845 10.000 29.800 10.045 29.800 10.100 V 13.000 C 29.800 13.100 29.900 13.000 29.800 13.000 H 24.000 C 23.900 13.000 24.000 13.100 24.000 13.000 V 10.100 C 24.000 10.045 23.955 10.000 23.900 10.000 H 17.900 C 17.845 10.000 17.800 10.045 17.800 10.100 V 13.000 C 17.800 13.100 17.900 13.000 17.800 13.000 H 12.132 H 10.400 C 10.345 13.000 10.300 13.045 10.300 13.100 V 20.950 C 10.300 21.005 10.345 21.050 10.400 21.050 H 12.898 C 12.998 21.050 12.898 20.950 12.898 21.050 V 27.150 C 12.898 27.250 12.998 27.150 12.898 27.150 H 10.400 C 10.345 27.150 10.300 27.195 10.300 27.250 V 32.950 C 10.300 33.005 10.345 33.050 10.400 33.050 H 12.898 C 12.998 33.050 12.898 32.950 12.898 33.050 V 39.150 C 12.898 39.250 12.998 39.150 12.898 39.150 H 10.400 C 10.345 39.150 10.300 39.195 10.300 39.250 V 47.100 C 10.300 47.155 10.345 47.200 10.400 47.200 H 12.132 Z"
       stroke="rgb(0,0,0)"
       stroke-width="0.20"
       id="path1150"
       style="stroke:#ff0505;stroke-opacity:1" /></g><g
     id="p-4"
     style="fill:none;stroke-linecap:round;stroke-linejoin:round;stroke:#ff0505;stroke-opacity:1"><path
       d="M 178.832 47.200 H 184.500 C 184.600 47.200 184.500 47.100 184.500 47.200 V 50.100 C 184.500 50.155 184.545 50.200 184.600 50.200 H 190.600 C 190.655 50.200 190.700 50.155 190.700 50.100 V 47.200 C 190.700 47.100 190.600 47.200 190.700 47.200 H 196.500 C 196.600 47.200 196.500 47.100 196.500 47.200 V 50.100 C 196.500 50.155 196.545 50.200 196.600 50.200 H 202.600 C 202.655 50.200 202.700 50.155 202.700 50.100 V 47.200 C 202.700 47.100 202.600 47.200 202.700 47.200 H 208.500 C 208.600 47.200 208.500 47.100 208.500 47.200 V 50.100 C 208.500 50.155 208.545 50.200 208.600 50.200 H 214.600 C 214.655 50.200 214.700 50.155 214.700 50.100 V 47.200 C 214.700 47.100 214.600 47.200 214.700 47.200 H 220.500 C 220.600 47.200 220.500 47.100 220.500 47.200 V 50.100 C 220.500 50.155 220.545 50.200 220.600 50.200 H 226.600 C 226.655 50.200 226.700 50.155 226.700 50.100 V 47.200 C 226.700 47.100 226.600 47.200 226.700 47.200 H 232.500 C 232.600 47.200 232.500 47.100 232.500 47.200 V 50.100 C 232.500 50.155 232.545 50.200 232.600 50.200 H 238.600 C 238.655 50.200 238.700 50.155 238.700 50.100 V 47.200 C 238.700 47.100 238.600 47.200 238.700 47.200 H 244.500 C 244.600 47.200 244.500 47.100 244.500 47.200 V 50.100 C 244.500 50.155 244.545 50.200 244.600 50.200 H 250.600 C 250.655 50.200 250.700 50.155 250.700 50.100 V 47.200 C 250.700 47.100 250.600 47.200 250.700 47.200 H 256.500 C 256.600 47.200 256.500 47.100 256.500 47.200 V 50.100 C 256.500 50.155 256.545 50.200 256.600 50.200 H 262.600 C 262.655 50.200 262.700 50.155 262.700 50.100 V 47.200 C 262.700 47.100 262.600 47.200 262.700 47.200 H 268.500 C 268.600 47.200 268.500 47.100 268.500 47.200 V 50.100 C 268.500 50.155 268.545 50.200 268.600 50.200 H 274.600 C 274.655 50.200 274.700 50.155 274.700 50.100 V 47.200 C 274.700 47.100 274.600 47.200 274.700 47.200 H 280.500 C 280.600 47.200 280.500 47.100 280.500 47.200 V 50.100 C 280.500 50.155 280.545 50.200 280.600 50.200 H 286.600 C 286.655 50.200 286.700 50.155 286.700 50.100 V 47.200 C 286.700 47.100 286.600 47.200 286.700 47.200 H 292.500 C 292.600 47.200 292.500 47.100 292.500 47.200 V 50.100 C 292.500 50.155 292.545 50.200 292.600 50.200 H 298.600 C 298.655 50.200 298.700 50.155 298.700 50.100 V 47.200 C 298.700 47.100 298.600 47.200 298.700 47.200 H 304.500 C 304.600 47.200 304.500 47.100 304.500 47.200 V 50.100 C 304.500 50.155 304.545 50.200 304.600 50.200 H 310.600 C 310.655 50.200 310.700 50.155 310.700 50.100 V 47.200 C 310.700 47.100 310.600 47.200 310.700 47.200 H 316.500 C 316.600 47.200 316.500 47.100 316.500 47.200 V 50.100 C 316.500 50.155 316.545 50.200 316.600 50.200 H 322.600 C 322.655 50.200 322.700 50.155 322.700 50.100 V 47.200 C 322.700 47.100 322.600 47.200 322.700 47.200 H 328.500 C 328.600 47.200 328.500 47.100 328.500 47.200 V 50.100 C 328.500 50.155 328.545 50.200 328.600 50.200 H 334.600 C 334.655 50.200 334.700 50.155 334.700 50.100 V 47.200 C 334.700 47.100 334.600 47.200 334.700 47.200 H 340.368 H 339.502 C 339.557 47.200 339.602 47.155 339.602 47.100 V 39.200 C 339.602 39.100 339.502 39.200 339.602 39.200 H 342.100 C 342.155 39.200 342.200 39.155 342.200 39.100 V 33.100 C 342.200 33.045 342.155 33.000 342.100 33.000 H 339.602 C 339.502 33.000 339.602 33.100 339.602 33.000 V 27.200 C 339.602 27.100 339.502 27.200 339.602 27.200 H 342.100 C 342.155 27.200 342.200 27.155 342.200 27.100 V 21.100 C 342.200 21.045 342.155 21.000 342.100 21.000 H 339.602 C 339.502 21.000 339.602 21.100 339.602 21.000 V 13.100 C 339.602 13.045 339.557 13.000 339.502 13.000 H 340.368 H 334.700 C 334.600 13.000 334.700 13.100 334.700 13.000 V 10.100 C 334.700 10.045 334.655 10.000 334.600 10.000 H 328.600 C 328.545 10.000 328.500 10.045 328.500 10.100 V 13.000 C 328.500 13.100 328.600 13.000 328.500 13.000 H 322.700 C 322.600 13.000 322.700 13.100 322.700 13.000 V 10.100 C 322.700 10.045 322.655 10.000 322.600 10.000 H 316.600 C 316.545 10.000 316.500 10.045 316.500 10.100 V 13.000 C 316.500 13.100 316.600 13.000 316.500 13.000 H 310.700 C 310.600 13.000 310.700 13.100 310.700 13.000 V 10.100 C 310.700 10.045 310.655 10.000 310.600 10.000 H 304.600 C 304.545 10.000 304.500 10.045 304.500 10.100 V 13.000 C 304.500 13.100 304.600 13.000 304.500 13.000 H 298.700 C 298.600 13.000 298.700 13.100 298.700 13.000 V 10.100 C 298.700 10.045 298.655 10.000 298.600 10.000 H 292.600 C 292.545 10.000 292.500 10.045 292.500 10.100 V 13.000 C 292.500 13.100 292.600 13.000 292.500 13.000 H 286.700 C 286.600 13.000 286.700 13.100 286.700 13.000 V 10.100 C 286.700 10.045 286.655 10.000 286.600 10.000 H 280.600 C 280.545 10.000 280.500 10.045 280.500 10.100 V 13.000 C 280.500 13.100 280.600 13.000 280.500 13.000 H 274.700 C 274.600 13.000 274.700 13.100 274.700 13.000 V 10.100 C 274.700 10.045 274.655 10.000 274.600 10.000 H 268.600 C 268.545 10.000 268.500 10.045 268.500 10.100 V 13.000 C 268.500 13.100 268.600 13.000 268.500 13.000 H 262.700 C 262.600 13.000 262.700 13.100 262.700 13.000 V 10.100 C 262.700 10.045 262.655 10.000 262.600 10.000 H 256.600 C 256.545 10.000 256.500 10.045 256.500 10.100 V 13.000 C 256.500 13.100 256.600 13.000 256.500 13.000 H 250.700 C 250.600 13.000 250.700 13.100 250.700 13.000 V 10.100 C 250.700 10.045 250.655 10.000 250.600 10.000 H 244.600 C 244.545 10.000 244.500 10.045 244.500 10.100 V 13.000 C 244.500 13.100 244.600 13.000 244.500 13.000 H 238.700 C 238.600 13.000 238.700 13.100 238.700 13.000 V 10.100 C 238.700 10.045 238.655 10.000 238.600 10.000 H 232.600 C 232.545 10.000 232.500 10.045 232.500 10.100 V 13.000 C 232.500 13.100 232.600 13.000 232.500 13.000 H 226.700 C 226.600 13.000 226.700 13.100 226.700 13.000 V 10.100 C 226.700 10.045 226.655 10.000 226.600 10.000 H 220.600 C 220.545 10.000 220.500 10.045 220.500 10.100 V 13.000 C 220.500 13.100 220.600 13.000 220.500 13.000 H 214.700 C 214.600 13.000 214.700 13.100 214.700 13.000 V 10.100 C 214.700 10.045 214.655 10.000 214.600 10.000 H 208.600 C 208.545 10.000 208.500 10.045 208.500 10.100 V 13.000 C 208.500 13.100 208.600 13.000 208.500 13.000 H 202.700 C 202.600 13.000 202.700 13.100 202.700 13.000 V 10.100 C 202.700 10.045 202.655 10.000 202.600 10.000 H 196.600 C 196.545 10.000 196.500 10.045 196.500 10.100 V 13.000 C 196.500 13.100 196.600 13.000 196.500 13.000 H 190.700 C 190.600 13.000 190.700 13.100 190.700 13.000 V 10.100 C 190.700 10.045 190.655 10.000 190.600 10.000 H 184.600 C 184.545 10.000 184.500 10.045 184.500 10.100 V 13.000 C 184.500 13.100 184.600 13.000 184.500 13.000 H 178.832 H 179.698 C 179.643 13.000 179.598 13.045 179.598 13.100 V 21.000 C 179.598 21.100 179.698 21.000 179.598 21.000 H 177.100 C 177.045 21.000 177.000 21.045 177.000 21.100 V 27.100 C 177.000 27.155 177.045 27.200 177.100 27.200 H 179.598 C 179.698 27.200 179.598 27.100 179.598 27.200 V 33.000 C 179.598 33.100 179.698 33.000 179.598 33.000 H 177.100 C 177.045 33.000 177.000 33.045 177.000 33.100 V 39.100 C 177.000 39.155 177.045 39.200 177.100 39.200 H 179.598 C 179.698 39.200 179.598 39.100 179.598 39.200 V 47.100 C 179.598 47.155 179.643 47.200 179.698 47.200 H 178.832 Z"
       stroke="rgb(0,0,0)"
       stroke-width="0.20"
       id="path1153"
       style="stroke:#ff0505;stroke-opacity:1" /></g><g
     id="p-5"
     style="fill:none;stroke-linecap:round;stroke-linejoin:round;stroke:#ff0505;stroke-opacity:1"><path
       d="M 345.532 47.200 H 351.200 C 351.300 47.200 351.200 47.100 351.200 47.200 V 50.100 C 351.200 50.155 351.245 50.200 351.300 50.200 H 357.300 C 357.355 50.200 357.400 50.155 357.400 50.100 V 47.200 C 357.400 47.100 357.300 47.200 357.400 47.200 H 363.200 C 363.300 47.200 363.200 47.100 363.200 47.200 V 50.100 C 363.200 50.155 363.245 50.200 363.300 50.200 H 369.300 C 369.355 50.200 369.400 50.155 369.400 50.100 V 47.200 C 369.400 47.100 369.300 47.200 369.400 47.200 H 375.200 C 375.300 47.200 375.200 47.100 375.200 47.200 V 50.100 C 375.200 50.155 375.245 50.200 375.300 50.200 H 381.300 C 381.355 50.200 381.400 50.155 381.400 50.100 V 47.200 C 381.400 47.100 381.300 47.200 381.400 47.200 H 387.200 C 387.300 47.200 387.200 47.100 387.200 47.200 V 50.100 C 387.200 50.155 387.245 50.200 387.300 50.200 H 393.300 C 393.355 50.200 393.400 50.155 393.400 50.100 V 47.200 C 393.400 47.100 393.300 47.200 393.400 47.200 H 399.200 C 399.300 47.200 399.200 47.100 399.200 47.200 V 50.100 C 399.200 50.155 399.245 50.200 399.300 50.200 H 405.300 C 405.355 50.200 405.400 50.155 405.400 50.100 V 47.200 C 405.400 47.100 405.300 47.200 405.400 47.200 H 411.200 C 411.300 47.200 411.200 47.100 411.200 47.200 V 50.100 C 411.200 50.155 411.245 50.200 411.300 50.200 H 417.300 C 417.355 50.200 417.400 50.155 417.400 50.100 V 47.200 C 417.400 47.100 417.300 47.200 417.400 47.200 H 423.200 C 423.300 47.200 423.200 47.100 423.200 47.200 V 50.100 C 423.200 50.155 423.245 50.200 423.300 50.200 H 429.300 C 429.355 50.200 429.400 50.155 429.400 50.100 V 47.200 C 429.400 47.100 429.300 47.200 429.400 47.200 H 435.200 C 435.300 47.200 435.200 47.100 435.200 47.200 V 50.100 C 435.200 50.155 435.245 50.200 435.300 50.200 H 441.300 C 441.355 50.200 441.400 50.155 441.400 50.100 V 47.200 C 441.400 47.100 441.300 47.200 441.400 47.200 H 447.200 C 447.300 47.200 447.200 47.100 447.200 47.200 V 50.100 C 447.200 50.155 447.245 50.200 447.300 50.200 H 453.300 C 453.355 50.200 453.400 50.155 453.400 50.100 V 47.200 C 453.400 47.100 453.300 47.200 453.400 47.200 H 459.200 C 459.300 47.200 459.200 47.100 459.200 47.200 V 50.100 C 459.200 50.155 459.245 50.200 459.300 50.200 H 465.300 C 465.355 50.200 465.400 50.155 465.400 50.100 V 47.200 C 465.400 47.100 465.300 47.200 465.400 47.200 H 471.200 C 471.300 47.200 471.200 47.100 471.200 47.200 V 50.100 C 471.200 50.155 471.245 50.200 471.300 50.200 H 477.300 C 477.355 50.200 477.400 50.155 477.400 50.100 V 47.200 C 477.400 47.100 477.300 47.200 477.400 47.200 H 483.200 C 483.300 47.200 483.200 47.100 483.200 47.200 V 50.100 C 483.200 50.155 483.245 50.200 483.300 50.200 H 489.300 C 489.355 50.200 489.400 50.155 489.400 50.100 V 47.200 C 489.400 47.100 489.300 47.200 489.400 47.200 H 495.200 C 495.300 47.200 495.200 47.100 495.200 47.200 V 50.100 C 495.200 50.155 495.245 50.200 495.300 50.200 H 501.300 C 501.355 50.200 501.400 50.155 501.400 50.100 V 47.200 C 501.400 47.100 501.300 47.200 501.400 47.200 H 507.068 H 508.800 C 508.855 47.200 508.900 47.155 508.900 47.100 V 39.250 C 508.900 39.195 508.855 39.150 508.800 39.150 H 506.302 C 506.202 39.150 506.302 39.250 506.302 39.150 V 33.050 C 506.302 32.950 506.202 33.050 506.302 33.050 H 508.800 C 508.855 33.050 508.900 33.005 508.900 32.950 V 27.250 C 508.900 27.195 508.855 27.150 508.800 27.150 H 506.302 C 506.202 27.150 506.302 27.250 506.302 27.150 V 21.050 C 506.302 20.950 506.202 21.050 506.302 21.050 H 508.800 C 508.855 21.050 508.900 21.005 508.900 20.950 V 13.100 C 508.900 13.045 508.855 13.000 508.800 13.000 H 507.068 H 501.400 C 501.300 13.000 501.400 13.100 501.400 13.000 V 10.100 C 501.400 10.045 501.355 10.000 501.300 10.000 H 495.300 C 495.245 10.000 495.200 10.045 495.200 10.100 V 13.000 C 495.200 13.100 495.300 13.000 495.200 13.000 H 489.400 C 489.300 13.000 489.400 13.100 489.400 13.000 V 10.100 C 489.400 10.045 489.355 10.000 489.300 10.000 H 483.300 C 483.245 10.000 483.200 10.045 483.200 10.100 V 13.000 C 483.200 13.100 483.300 13.000 483.200 13.000 H 477.400 C 477.300 13.000 477.400 13.100 477.400 13.000 V 10.100 C 477.400 10.045 477.355 10.000 477.300 10.000 H 471.300 C 471.245 10.000 471.200 10.045 471.200 10.100 V 13.000 C 471.200 13.100 471.300 13.000 471.200 13.000 H 465.400 C 465.300 13.000 465.400 13.100 465.400 13.000 V 10.100 C 465.400 10.045 465.355 10.000 465.300 10.000 H 459.300 C 459.245 10.000 459.200 10.045 459.200 10.100 V 13.000 C 459.200 13.100 459.300 13.000 459.200 13.000 H 453.400 C 453.300 13.000 453.400 13.100 453.400 13.000 V 10.100 C 453.400 10.045 453.355 10.000 453.300 10.000 H 447.300 C 447.245 10.000 447.200 10.045 447.200 10.100 V 13.000 C 447.200 13.100 447.300 13.000 447.200 13.000 H 441.400 C 441.300 13.000 441.400 13.100 441.400 13.000 V 10.100 C 441.400 10.045 441.355 10.000 441.300 10.000 H 435.300 C 435.245 10.000 435.200 10.045 435.200 10.100 V 13.000 C 435.200 13.100 435.300 13.000 435.200 13.000 H 429.400 C 429.300 13.000 429.400 13.100 429.400 13.000 V 10.100 C 429.400 10.045 429.355 10.000 429.300 10.000 H 423.300 C 423.245 10.000 423.200 10.045 423.200 10.100 V 13.000 C 423.200 13.100 423.300 13.000 423.200 13.000 H 417.400 C 417.300 13.000 417.400 13.100 417.400 13.000 V 10.100 C 417.400 10.045 417.355 10.000 417.300 10.000 H 411.300 C 411.245 10.000 411.200 10.045 411.200 10.100 V 13.000 C 411.200 13.100 411.300 13.000 411.200 13.000 H 405.400 C 405.300 13.000 405.400 13.100 405.400 13.000 V 10.100 C 405.400 10.045 405.355 10.000 405.300 10.000 H 399.300 C 399.245 10.000 399.200 10.045 399.200 10.100 V 13.000 C 399.200 13.100 399.300 13.000 399.200 13.000 H 393.400 C 393.300 13.000 393.400 13.100 393.400 13.000 V 10.100 C 393.400 10.045 393.355 10.000 393.300 10.000 H 387.300 C 387.245 10.000 387.200 10.045 387.200 10.100 V 13.000 C 387.200 13.100 387.300 13.000 387.200 13.000 H 381.400 C 381.300 13.000 381.400 13.100 381.400 13.000 V 10.100 C 381.400 10.045 381.355 10.000 381.300 10.000 H 375.300 C 375.245 10.000 375.200 10.045 375.200 10.100 V 13.000 C 375.200 13.100 375.300 13.000 375.200 13.000 H 369.400 C 369.300 13.000 369.400 13.100 369.400 13.000 V 10.100 C 369.400 10.045 369.355 10.000 369.300 10.000 H 363.300 C 363.245 10.000 363.200 10.045 363.200 10.100 V 13.000 C 363.200 13.100 363.300 13.000 363.200 13.000 H 357.400 C 357.300 13.000 357.400 13.100 357.400 13.000 V 10.100 C 357.400 10.045 357.355 10.000 357.300 10.000 H 351.300 C 351.245 10.000 351.200 10.045 351.200 10.100 V 13.000 C 351.200 13.100 351.300 13.000 351.200 13.000 H 345.532 H 343.800 C 343.745 13.000 343.700 13.045 343.700 13.100 V 20.950 C 343.700 21.005 343.745 21.050 343.800 21.050 H 346.298 C 346.398 21.050 346.298 20.950 346.298 21.050 V 27.150 C 346.298 27.250 346.398 27.150 346.298 27.150 H 343.800 C 343.745 27.150 343.700 27.195 343.700 27.250 V 32.950 C 343.700 33.005 343.745 33.050 343.800 33.050 H 346.298 C 346.398 33.050 346.298 32.950 346.298 33.050 V 39.150 C 346.298 39.250 346.398 39.150 346.298 39.150 H 343.800 C 343.745 39.150 343.700 39.195 343.700 39.250 V 47.100 C 343.700 47.155 343.745 47.200 343.800 47.200 H 345.532 Z"
       stroke="rgb(0,0,0)"
       stroke-width="0.20"
       id="path1156"
       style="stroke:#ff0505;stroke-opacity:1" /></g><g
     id="p-6"
     style="fill:none;stroke-linecap:round;stroke-linejoin:round;stroke:#ff0505;stroke-opacity:1"
     transform="translate(-499.9094,43.757058)"><path
       d="m 512.232,47.2 h 5.668 c 0.1,0 0,-0.1 0,0 v 2.9 c 0,0.055 0.045,0.1 0.1,0.1 h 6 c 0.055,0 0.1,-0.045 0.1,-0.1 v -2.9 c 0,-0.1 -0.1,0 0,0 h 5.8 c 0.1,0 0,-0.1 0,0 v 2.9 c 0,0.055 0.045,0.1 0.1,0.1 h 6 c 0.055,0 0.1,-0.045 0.1,-0.1 v -2.9 c 0,-0.1 -0.1,0 0,0 h 5.8 c 0.1,0 0,-0.1 0,0 v 2.9 c 0,0.055 0.045,0.1 0.1,0.1 h 6 c 0.055,0 0.1,-0.045 0.1,-0.1 v -2.9 c 0,-0.1 -0.1,0 0,0 h 5.8 c 0.1,0 0,-0.1 0,0 v 2.9 c 0,0.055 0.045,0.1 0.1,0.1 h 6 c 0.055,0 0.1,-0.045 0.1,-0.1 v -2.9 c 0,-0.1 -0.1,0 0,0 h 5.8 c 0.1,0 0,-0.1 0,0 v 2.9 c 0,0.055 0.045,0.1 0.1,0.1 h 6 c 0.055,0 0.1,-0.045 0.1,-0.1 v -2.9 c 0,-0.1 -0.1,0 0,0 h 5.8 c 0.1,0 0,-0.1 0,0 v 2.9 c 0,0.055 0.045,0.1 0.1,0.1 h 6 c 0.055,0 0.1,-0.045 0.1,-0.1 v -2.9 c 0,-0.1 -0.1,0 0,0 h 5.8 c 0.1,0 0,-0.1 0,0 v 2.9 c 0,0.055 0.045,0.1 0.1,0.1 h 6 c 0.055,0 0.1,-0.045 0.1,-0.1 v -2.9 c 0,-0.1 -0.1,0 0,0 h 5.8 c 0.1,0 0,-0.1 0,0 v 2.9 c 0,0.055 0.045,0.1 0.1,0.1 h 6 c 0.055,0 0.1,-0.045 0.1,-0.1 v -2.9 c 0,-0.1 -0.1,0 0,0 h 5.8 c 0.1,0 0,-0.1 0,0 v 2.9 c 0,0.055 0.045,0.1 0.1,0.1 h 6 c 0.055,0 0.1,-0.045 0.1,-0.1 v -2.9 c 0,-0.1 -0.1,0 0,0 h 5.8 c 0.1,0 0,-0.1 0,0 v 2.9 c 0,0.055 0.045,0.1 0.1,0.1 h 6 c 0.055,0 0.1,-0.045 0.1,-0.1 v -2.9 c 0,-0.1 -0.1,0 0,0 h 5.8 c 0.1,0 0,-0.1 0,0 v 2.9 c 0,0.055 0.045,0.1 0.1,0.1 h 6 c 0.055,0 0.1,-0.045 0.1,-0.1 v -2.9 c 0,-0.1 -0.1,0 0,0 h 5.8 c 0.1,0 0,-0.1 0,0 v 2.9 c 0,0.055 0.045,0.1 0.1,0.1 h 6 c 0.055,0 0.1,-0.045 0.1,-0.1 v -2.9 c 0,-0.1 -0.1,0 0,0 h 5.8 c 0.1,0 0,-0.1 0,0 v 2.9 c 0,0.055 0.045,0.1 0.1,0.1 h 6 c 0.055,0 0.1,-0.045 0.1,-0.1 v -2.9 c 0,-0.1 -0.1,0 0,0 h 5.668 -0.866 c 0.055,0 0.1,-0.045 0.1,-0.1 v -7.9 c 0,-0.1 -0.1,0 0,0 h 2.498 c 0.055,0 0.1,-0.045 0.1,-0.1 v -6 c 0,-0.055 -0.045,-0.1 -0.1,-0.1 h -2.498 c -0.1,0 0,0.1 0,0 v -5.8 c 0,-0.1 -0.1,0 0,0 h 2.498 c 0.055,0 0.1,-0.045 0.1,-0.1 v -6 c 0,-0.055 -0.045,-0.1 -0.1,-0.1 h -2.498 c -0.1,0 0,0.1 0,0 v -7.9 c 0,-0.055 -0.045,-0.1 -0.1,-0.1 h 0.866 -5.668 c -0.1,0 0,0.1 0,0 v -2.9 c 0,-0.055 -0.045,-0.1 -0.1,-0.1 h -6 c -0.055,0 -0.1,0.045 -0.1,0.1 V 13 c 0,0.1 0.1,0 0,0 h -5.8 c -0.1,0 0,0.1 0,0 v -2.9 c 0,-0.055 -0.045,-0.1 -0.1,-0.1 h -6 c -0.055,0 -0.1,0.045 -0.1,0.1 V 13 c 0,0.1 0.1,0 0,0 h -5.8 c -0.1,0 0,0.1 0,0 v -2.9 c 0,-0.055 -0.045,-0.1 -0.1,-0.1 h -6 c -0.055,0 -0.1,0.045 -0.1,0.1 V 13 c 0,0.1 0.1,0 0,0 h -5.8 c -0.1,0 0,0.1 0,0 v -2.9 c 0,-0.055 -0.045,-0.1 -0.1,-0.1 h -6 c -0.055,0 -0.1,0.045 -0.1,0.1 V 13 c 0,0.1 0.1,0 0,0 h -5.8 c -0.1,0 0,0.1 0,0 v -2.9 c 0,-0.055 -0.045,-0.1 -0.1,-0.1 h -6 c -0.055,0 -0.1,0.045 -0.1,0.1 V 13 c 0,0.1 0.1,0 0,0 h -5.8 c -0.1,0 0,0.1 0,0 v -2.9 c 0,-0.055 -0.045,-0.1 -0.1,-0.1 h -6 c -0.055,0 -0.1,0.045 -0.1,0.1 V 13 c 0,0.1 0.1,0 0,0 h -5.8 c -0.1,0 0,0.1 0,0 v -2.9 c 0,-0.055 -0.045,-0.1 -0.1,-0.1 h -6 c -0.055,0 -0.1,0.045 -0.1,0.1 V 13 c 0,0.1 0.1,0 0,0 h -5.8 c -0.1,0 0,0.1 0,0 v -2.9 c 0,-0.055 -0.045,-0.1 -0.1,-0.1 h -6 c -0.055,0 -0.1,0.045 -0.1,0.1 V 13 c 0,0.1 0.1,0 0,0 h -5.8 c -0.1,0 0,0.1 0,0 v -2.9 c 0,-0.055 -0.045,-0.1 -0.1,-0.1 h -6 c -0.055,0 -0.1,0.045 -0.1,0.1 V 13 c 0,0.1 0.1,0 0,0 h -5.8 c -0.1,0 0,0.1 0,0 v -2.9 c 0,-0.055 -0.045,-0.1 -0.1,-0.1 h -6 c -0.055,0 -0.1,0.045 -0.1,0.1 V 13 c 0,0.1 0.1,0 0,0 h -5.8 c -0.1,0 0,0.1 0,0 v -2.9 c 0,-0.055 -0.045,-0.1 -0.1,-0.1 h -6 c -0.055,0 -0.1,0.045 -0.1,0.1 V 13 c 0,0.1 0.1,0 0,0 h -5.8 c -0.1,0 0,0.1 0,0 v -2.9 c 0,-0.055 -0.045,-0.1 -0.1,-0.1 h -6 c -0.055,0 -0.1,0.045 -0.1,0.1 V 13 c 0,0.1 0.1,0 0,0 h -5.8 c -0.1,0 0,0.1 0,0 v -2.9 c 0,-0.055 -0.045,-0.1 -0.1,-0.1 h -6 c -0.055,0 -0.1,0.045 -0.1,0.1 V 13 c 0,0.1 0.1,0 0,0 h -5.668 0.866 c -0.055,0 -0.1,0.045 -0.1,0.1 V 21 c 0,0.1 0.1,0 0,0 H 510.5 c -0.055,0 -0.1,0.045 -0.1,0.1 v 6 c 0,0.055 0.045,0.1 0.1,0.1 h 2.498 c 0.1,0 0,-0.1 0,0 V 33 c 0,0.1 0.1,0 0,0 H 510.5 c -0.055,0 -0.1,0.045 -0.1,0.1 v 6 c 0,0.055 0.045,0.1 0.1,0.1 h 2.498 c 0.1,0 0,-0.1 0,0 v 7.9 c 0,0.055 0.045,0.1 0.1,0.1 z"
       stroke="#000000"
       stroke-width="0.2"
       id="path1159"
       style="stroke:#ff0505;stroke-opacity:1" /></g><g
     id="p-7"
     style="fill:none;stroke-linecap:round;stroke-linejoin:round;stroke:#ff0505;stroke-opacity:1"
     transform="translate(-499.9094,43.757058)"><path
       d="m 678.932,47.2 h 5.668 c 0.1,0 0,-0.1 0,0 v 2.9 c 0,0.055 0.045,0.1 0.1,0.1 h 6 c 0.055,0 0.1,-0.045 0.1,-0.1 v -2.9 c 0,-0.1 -0.1,0 0,0 h 5.8 c 0.1,0 0,-0.1 0,0 v 2.9 c 0,0.055 0.045,0.1 0.1,0.1 h 6 c 0.055,0 0.1,-0.045 0.1,-0.1 v -2.9 c 0,-0.1 -0.1,0 0,0 h 5.8 c 0.1,0 0,-0.1 0,0 v 2.9 c 0,0.055 0.045,0.1 0.1,0.1 h 6 c 0.055,0 0.1,-0.045 0.1,-0.1 v -2.9 c 0,-0.1 -0.1,0 0,0 h 5.8 c 0.1,0 0,-0.1 0,0 v 2.9 c 0,0.055 0.045,0.1 0.1,0.1 h 6 c 0.055,0 0.1,-0.045 0.1,-0.1 v -2.9 c 0,-0.1 -0.1,0 0,0 h 5.8 c 0.1,0 0,-0.1 0,0 v 2.9 c 0,0.055 0.045,0.1 0.1,0.1 h 6 c 0.055,0 0.1,-0.045 0.1,-0.1 v -2.9 c 0,-0.1 -0.1,0 0,0 h 5.8 c 0.1,0 0,-0.1 0,0 v 2.9 c 0,0.055 0.045,0.1 0.1,0.1 h 6 c 0.055,0 0.1,-0.045 0.1,-0.1 v -2.9 c 0,-0.1 -0.1,0 0,0 h 5.8 c 0.1,0 0,-0.1 0,0 v 2.9 c 0,0.055 0.045,0.1 0.1,0.1 h 6 c 0.055,0 0.1,-0.045 0.1,-0.1 v -2.9 c 0,-0.1 -0.1,0 0,0 h 5.8 c 0.1,0 0,-0.1 0,0 v 2.9 c 0,0.055 0.045,0.1 0.1,0.1 h 6 c 0.055,0 0.1,-0.045 0.1,-0.1 v -2.9 c 0,-0.1 -0.1,0 0,0 h 5.8 c 0.1,0 0,-0.1 0,0 v 2.9 c 0,0.055 0.045,0.1 0.1,0.1 h 6 c 0.055,0 0.1,-0.045 0.1,-0.1 v -2.9 c 0,-0.1 -0.1,0 0,0 h 5.8 c 0.1,0 0,-0.1 0,0 v 2.9 c 0,0.055 0.045,0.1 0.1,0.1 h 6 c 0.055,0 0.1,-0.045 0.1,-0.1 v -2.9 c 0,-0.1 -0.1,0 0,0 h 5.8 c 0.1,0 0,-0.1 0,0 v 2.9 c 0,0.055 0.045,0.1 0.1,0.1 h 6 c 0.055,0 0.1,-0.045 0.1,-0.1 v -2.9 c 0,-0.1 -0.1,0 0,0 h 5.8 c 0.1,0 0,-0.1 0,0 v 2.9 c 0,0.055 0.045,0.1 0.1,0.1 h 6 c 0.055,0 0.1,-0.045 0.1,-0.1 v -2.9 c 0,-0.1 -0.1,0 0,0 h 5.8 c 0.1,0 0,-0.1 0,0 v 2.9 c 0,0.055 0.045,0.1 0.1,0.1 h 6 c 0.055,0 0.1,-0.045 0.1,-0.1 v -2.9 c 0,-0.1 -0.1,0 0,0 h 5.668 1.732 c 0.055,0 0.1,-0.045 0.1,-0.1 v -7.85 c 0,-0.055 -0.045,-0.1 -0.1,-0.1 h -2.498 c -0.1,0 0,0.1 0,0 v -6.1 c 0,-0.1 -0.1,0 0,0 h 2.498 c 0.055,0 0.1,-0.045 0.1,-0.1 v -5.7 c 0,-0.055 -0.045,-0.1 -0.1,-0.1 h -2.498 c -0.1,0 0,0.1 0,0 v -6.1 c 0,-0.1 -0.1,0 0,0 h 2.498 c 0.055,0 0.1,-0.045 0.1,-0.1 V 13.1 c 0,-0.055 -0.045,-0.1 -0.1,-0.1 h -1.732 -5.668 c -0.1,0 0,0.1 0,0 v -2.9 c 0,-0.055 -0.045,-0.1 -0.1,-0.1 h -6 c -0.055,0 -0.1,0.045 -0.1,0.1 V 13 c 0,0.1 0.1,0 0,0 h -5.8 c -0.1,0 0,0.1 0,0 v -2.9 c 0,-0.055 -0.045,-0.1 -0.1,-0.1 h -6 c -0.055,0 -0.1,0.045 -0.1,0.1 V 13 c 0,0.1 0.1,0 0,0 h -5.8 c -0.1,0 0,0.1 0,0 v -2.9 c 0,-0.055 -0.045,-0.1 -0.1,-0.1 h -6 c -0.055,0 -0.1,0.045 -0.1,0.1 V 13 c 0,0.1 0.1,0 0,0 h -5.8 c -0.1,0 0,0.1 0,0 v -2.9 c 0,-0.055 -0.045,-0.1 -0.1,-0.1 h -6 c -0.055,0 -0.1,0.045 -0.1,0.1 V 13 c 0,0.1 0.1,0 0,0 h -5.8 c -0.1,0 0,0.1 0,0 v -2.9 c 0,-0.055 -0.045,-0.1 -0.1,-0.1 h -6 c -0.055,0 -0.1,0.045 -0.1,0.1 V 13 c 0,0.1 0.1,0 0,0 h -5.8 c -0.1,0 0,0.1 0,0 v -2.9 c 0,-0.055 -0.045,-0.1 -0.1,-0.1 h -6 c -0.055,0 -0.1,0.045 -0.1,0.1 V 13 c 0,0.1 0.1,0 0,0 h -5.8 c -0.1,0 0,0.1 0,0 v -2.9 c 0,-0.055 -0.045,-0.1 -0.1,-0.1 h -6 c -0.055,0 -0.1,0.045 -0.1,0.1 V 13 c 0,0.1 0.1,0 0,0 h -5.8 c -0.1,0 0,0.1 0,0 v -2.9 c 0,-0.055 -0.045,-0.1 -0.1,-0.1 h -6 c -0.055,0 -0.1,0.045 -0.1,0.1 V 13 c 0,0.1 0.1,0 0,0 h -5.8 c -0.1,0 0,0.1 0,0 v -2.9 c 0,-0.055 -0.045,-0.1 -0.1,-0.1 h -6 c -0.055,0 -0.1,0.045 -0.1,0.1 V 13 c 0,0.1 0.1,0 0,0 h -5.8 c -0.1,0 0,0.1 0,0 v -2.9 c 0,-0.055 -0.045,-0.1 -0.1,-0.1 h -6 c -0.055,0 -0.1,0.045 -0.1,0.1 V 13 c 0,0.1 0.1,0 0,0 h -5.8 c -0.1,0 0,0.1 0,0 v -2.9 c 0,-0.055 -0.045,-0.1 -0.1,-0.1 h -6 c -0.055,0 -0.1,0.045 -0.1,0.1 V 13 c 0,0.1 0.1,0 0,0 h -5.8 c -0.1,0 0,0.1 0,0 v -2.9 c 0,-0.055 -0.045,-0.1 -0.1,-0.1 h -6 c -0.055,0 -0.1,0.045 -0.1,0.1 V 13 c 0,0.1 0.1,0 0,0 h -5.8 c -0.1,0 0,0.1 0,0 v -2.9 c 0,-0.055 -0.045,-0.1 -0.1,-0.1 h -6 c -0.055,0 -0.1,0.045 -0.1,0.1 V 13 c 0,0.1 0.1,0 0,0 h -5.668 -1.732 c -0.055,0 -0.1,0.045 -0.1,0.1 v 7.85 c 0,0.055 0.045,0.1 0.1,0.1 h 2.498 c 0.1,0 0,-0.1 0,0 v 6.1 c 0,0.1 0.1,0 0,0 H 677.2 c -0.055,0 -0.1,0.045 -0.1,0.1 v 5.7 c 0,0.055 0.045,0.1 0.1,0.1 h 2.498 c 0.1,0 0,-0.1 0,0 v 6.1 c 0,0.1 0.1,0 0,0 H 677.2 c -0.055,0 -0.1,0.045 -0.1,0.1 v 7.85 c 0,0.055 0.045,0.1 0.1,0.1 z"
       stroke="#000000"
       stroke-width="0.2"
       id="path1162"
       style="stroke:#ff0505;stroke-opacity:1" /></g><g
     id="p-8"
     style="fill:none;stroke-linecap:round;stroke-linejoin:round;stroke:#ff0505;stroke-opacity:1"
     transform="translate(-499.9094,43.757058)"><path
       d="m 845.632,47.2 h 5.668 c 0.1,0 0,-0.1 0,0 v 2.9 c 0,0.055 0.045,0.1 0.1,0.1 h 6 c 0.055,0 0.1,-0.045 0.1,-0.1 v -2.9 c 0,-0.1 -0.1,0 0,0 h 5.8 c 0.1,0 0,-0.1 0,0 v 2.9 c 0,0.055 0.045,0.1 0.1,0.1 h 6 c 0.055,0 0.1,-0.045 0.1,-0.1 v -2.9 c 0,-0.1 -0.1,0 0,0 h 5.8 c 0.1,0 0,-0.1 0,0 v 2.9 c 0,0.055 0.045,0.1 0.1,0.1 h 6 c 0.055,0 0.1,-0.045 0.1,-0.1 v -2.9 c 0,-0.1 -0.1,0 0,0 h 5.8 c 0.1,0 0,-0.1 0,0 v 2.9 c 0,0.055 0.045,0.1 0.1,0.1 h 6 c 0.055,0 0.1,-0.045 0.1,-0.1 v -2.9 c 0,-0.1 -0.1,0 0,0 h 5.8 c 0.1,0 0,-0.1 0,0 v 2.9 c 0,0.055 0.045,0.1 0.1,0.1 h 6 c 0.055,0 0.1,-0.045 0.1,-0.1 v -2.9 c 0,-0.1 -0.1,0 0,0 h 5.8 c 0.1,0 0,-0.1 0,0 v 2.9 c 0,0.055 0.045,0.1 0.1,0.1 h 6 c 0.055,0 0.1,-0.045 0.1,-0.1 v -2.9 c 0,-0.1 -0.1,0 0,0 h 5.8 c 0.1,0 0,-0.1 0,0 v 2.9 c 0,0.055 0.045,0.1 0.1,0.1 h 6 c 0.055,0 0.1,-0.045 0.1,-0.1 v -2.9 c 0,-0.1 -0.1,0 0,0 h 5.8 c 0.1,0 0,-0.1 0,0 v 2.9 c 0,0.055 0.045,0.1 0.1,0.1 h 6 c 0.055,0 0.1,-0.045 0.1,-0.1 v -2.9 c 0,-0.1 -0.1,0 0,0 h 5.8 c 0.1,0 0,-0.1 0,0 v 2.9 c 0,0.055 0.045,0.1 0.1,0.1 h 6 c 0.055,0 0.1,-0.045 0.1,-0.1 v -2.9 c 0,-0.1 -0.1,0 0,0 h 5.8 c 0.1,0 0,-0.1 0,0 v 2.9 c 0,0.055 0.045,0.1 0.1,0.1 h 6 c 0.055,0 0.1,-0.045 0.1,-0.1 v -2.9 c 0,-0.1 -0.1,0 0,0 h 5.8 c 0.1,0 0,-0.1 0,0 v 2.9 c 0,0.055 0.045,0.1 0.1,0.1 h 6 c 0.055,0 0.1,-0.045 0.1,-0.1 v -2.9 c 0,-0.1 -0.1,0 0,0 h 5.8 c 0.1,0 0,-0.1 0,0 v 2.9 c 0,0.055 0.045,0.1 0.1,0.1 h 6 c 0.055,0 0.1,-0.045 0.1,-0.1 v -2.9 c 0,-0.1 -0.1,0 0,0 h 5.8 c 0.1,0 0,-0.1 0,0 v 2.9 c 0,0.055 0.045,0.1 0.1,0.1 h 6 c 0.055,0 0.1,-0.045 0.1,-0.1 v -2.9 c 0,-0.1 -0.1,0 0,0 h 5.668 -0.866 c 0.055,0 0.1,-0.045 0.1,-0.1 v -7.9 c 0,-0.1 -0.1,0 0,0 h 2.498 c 0.055,0 0.1,-0.045 0.1,-0.1 v -6 c 0,-0.055 -0.045,-0.1 -0.1,-0.1 h -2.498 c -0.1,0 0,0.1 0,0 v -5.8 c 0,-0.1 -0.1,0 0,0 h 2.498 c 0.055,0 0.1,-0.045 0.1,-0.1 v -6 c 0,-0.055 -0.045,-0.1 -0.1,-0.1 h -2.498 c -0.1,0 0,0.1 0,0 v -7.9 c 0,-0.055 -0.045,-0.1 -0.1,-0.1 h 0.866 -5.668 c -0.1,0 0,0.1 0,0 v -2.9 c 0,-0.055 -0.045,-0.1 -0.1,-0.1 h -6 c -0.055,0 -0.1,0.045 -0.1,0.1 V 13 c 0,0.1 0.1,0 0,0 h -5.8 c -0.1,0 0,0.1 0,0 v -2.9 c 0,-0.055 -0.045,-0.1 -0.1,-0.1 h -6 c -0.055,0 -0.1,0.045 -0.1,0.1 V 13 c 0,0.1 0.1,0 0,0 h -5.8 c -0.1,0 0,0.1 0,0 v -2.9 c 0,-0.055 -0.045,-0.1 -0.1,-0.1 h -6 c -0.055,0 -0.1,0.045 -0.1,0.1 V 13 c 0,0.1 0.1,0 0,0 h -5.8 c -0.1,0 0,0.1 0,0 v -2.9 c 0,-0.055 -0.045,-0.1 -0.1,-0.1 h -6 c -0.055,0 -0.1,0.045 -0.1,0.1 V 13 c 0,0.1 0.1,0 0,0 h -5.8 c -0.1,0 0,0.1 0,0 v -2.9 c 0,-0.055 -0.045,-0.1 -0.1,-0.1 h -6 c -0.055,0 -0.1,0.045 -0.1,0.1 V 13 c 0,0.1 0.1,0 0,0 h -5.8 c -0.1,0 0,0.1 0,0 v -2.9 c 0,-0.055 -0.045,-0.1 -0.1,-0.1 h -6 c -0.055,0 -0.1,0.045 -0.1,0.1 V 13 c 0,0.1 0.1,0 0,0 h -5.8 c -0.1,0 0,0.1 0,0 v -2.9 c 0,-0.055 -0.045,-0.1 -0.1,-0.1 h -6 c -0.055,0 -0.1,0.045 -0.1,0.1 V 13 c 0,0.1 0.1,0 0,0 h -5.8 c -0.1,0 0,0.1 0,0 v -2.9 c 0,-0.055 -0.045,-0.1 -0.1,-0.1 h -6 c -0.055,0 -0.1,0.045 -0.1,0.1 V 13 c 0,0.1 0.1,0 0,0 h -5.8 c -0.1,0 0,0.1 0,0 v -2.9 c 0,-0.055 -0.045,-0.1 -0.1,-0.1 h -6 c -0.055,0 -0.1,0.045 -0.1,0.1 V 13 c 0,0.1 0.1,0 0,0 h -5.8 c -0.1,0 0,0.1 0,0 v -2.9 c 0,-0.055 -0.045,-0.1 -0.1,-0.1 h -6 c -0.055,0 -0.1,0.045 -0.1,0.1 V 13 c 0,0.1 0.1,0 0,0 h -5.8 c -0.1,0 0,0.1 0,0 v -2.9 c 0,-0.055 -0.045,-0.1 -0.1,-0.1 h -6 c -0.055,0 -0.1,0.045 -0.1,0.1 V 13 c 0,0.1 0.1,0 0,0 h -5.8 c -0.1,0 0,0.1 0,0 v -2.9 c 0,-0.055 -0.045,-0.1 -0.1,-0.1 h -6 c -0.055,0 -0.1,0.045 -0.1,0.1 V 13 c 0,0.1 0.1,0 0,0 h -5.8 c -0.1,0 0,0.1 0,0 v -2.9 c 0,-0.055 -0.045,-0.1 -0.1,-0.1 h -6 c -0.055,0 -0.1,0.045 -0.1,0.1 V 13 c 0,0.1 0.1,0 0,0 h -5.668 0.866 c -0.055,0 -0.1,0.045 -0.1,0.1 V 21 c 0,0.1 0.1,0 0,0 H 843.9 c -0.055,0 -0.1,0.045 -0.1,0.1 v 6 c 0,0.055 0.045,0.1 0.1,0.1 h 2.498 c 0.1,0 0,-0.1 0,0 V 33 c 0,0.1 0.1,0 0,0 H 843.9 c -0.055,0 -0.1,0.045 -0.1,0.1 v 6 c 0,0.055 0.045,0.1 0.1,0.1 h 2.498 c 0.1,0 0,-0.1 0,0 v 7.9 c 0,0.055 0.045,0.1 0.1,0.1 z"
       stroke="#000000"
       stroke-width="0.2"
       id="path1165"
       style="stroke:#ff0505;stroke-opacity:1" /></g><g
     inkscape:label="0"
     id="g29275"
     transform="matrix(0.09578281,0,0,0.09578724,117.55851,-45.632411)"
     style="stroke:#ff0505;stroke-opacity:1"><path
       d="m 253.44258,895.94075 a 18.141732,18.141732 0 0 0 -36.28346,0 18.141732,18.141732 0 0 0 36.28346,0 z"
       style="fill:none;stroke:#ff0505;stroke-linecap:round;stroke-opacity:1"
       id="path28337" /><path
       d="m 472.27723,783.68878 a 124.72441,124.72441 0 0 0 -249.44882,0 124.72441,124.72441 0 0 0 249.44882,0 z"
       style="fill:none;stroke:#ff0505;stroke-linecap:round;stroke-opacity:1"
       id="path28339" /><path
       d="m 477.94652,671.43682 a 18.141735,18.141735 0 0 0 -36.28347,0 18.141735,18.141735 0 0 0 36.28347,0 z"
       style="fill:none;stroke:#ff0505;stroke-linecap:round;stroke-opacity:1"
       id="path28341" /></g></svg>
