<?xml version="1.0" encoding="UTF-8" standalone="no"?>
<svg
   width="1019.00mm"
   height="369.39mm"
   viewBox="0.0 0.0 1019.00 369.39"
   version="1.1"
   id="svg42"
   sodipodi:docname="hectagonum_side_single_h50.svg"
   xml:space="preserve"
   inkscape:version="1.2.2 (b0a84865, 2022-12-01)"
   xmlns:inkscape="http://www.inkscape.org/namespaces/inkscape"
   xmlns:sodipodi="http://sodipodi.sourceforge.net/DTD/sodipodi-0.dtd"
   xmlns="http://www.w3.org/2000/svg"
   xmlns:svg="http://www.w3.org/2000/svg"
   xmlns:rdf="http://www.w3.org/1999/02/22-rdf-syntax-ns#"
   xmlns:cc="http://creativecommons.org/ns#"
   xmlns:dc="http://purl.org/dc/elements/1.1/"><defs
     id="defs46" /><sodipodi:namedview
     id="namedview44"
     pagecolor="#ffffff"
     bordercolor="#666666"
     borderopacity="1.0"
     inkscape:showpageshadow="2"
     inkscape:pageopacity="0.0"
     inkscape:pagecheckerboard="0"
     inkscape:deskcolor="#d1d1d1"
     inkscape:document-units="mm"
     showgrid="false"
     inkscape:zoom="1.4853272"
     inkscape:cx="401.59502"
     inkscape:cy="191.87691"
     inkscape:window-width="1920"
     inkscape:window-height="958"
     inkscape:window-x="1920"
     inkscape:window-y="25"
     inkscape:window-maximized="0"
     inkscape:current-layer="svg42" /><!--
RegularBox - Box with regular polygon as base


For short side walls that don't fit a connecting finger reduce *surroundingspaces* and *finger* in the Finger Joint Settings.

The lids needs to be glued. For the bayonet lid all outside rings attach to the bottom, all inside rings to the top.



Created with Boxes.py (https://festi.info/boxes.py)
Creation date: 2022-12-20 14:10:19
Command line (remove spaces between dashes): boxes RegularBox - -FingerJoint_angle=90.0 - -FingerJoint_style=rectangular - -FingerJoint_surroundingspaces=1.0 - -FingerJoint_edge_width=1.0 - -FingerJoint_extra_length=0.0 - -FingerJoint_finger=2.0 - -FingerJoint_play=0.1 - -FingerJoint_space=2.0 - -FingerJoint_width=1.0 - -h=50 - -outside=0 - -outside=1 - -radius=165 - -n=6 '- -top=angled hole' - -alignment_pins=1.0 - -thickness=3.0 - -format=svg - -tabs=0.0 - -debug=0 - -labels=0 - -labels=1 - -reference=100 - -inner_corners=loop - -burn=0.1
Url: http://localhost:8000/RegularBox?FingerJoint_angle=90.0&FingerJoint_style=rectangular&FingerJoint_surroundingspaces=1.0&FingerJoint_edge_width=1.0&FingerJoint_extra_length=0.0&FingerJoint_finger=2.0&FingerJoint_play=0.1&FingerJoint_space=2.0&FingerJoint_width=1.0&h=50&outside=0&outside=1&radius=165&n=6&top=angled+hole&alignment_pins=1.0&thickness=3.0&format=svg&tabs=0.0&debug=0&labels=0&labels=1&reference=100&inner_corners=loop&burn=0.1&render=1
SettingsUrl: http://localhost:8000/RegularBox?FingerJoint_angle=90.0&FingerJoint_style=rectangular&FingerJoint_surroundingspaces=1.0&FingerJoint_edge_width=1.0&FingerJoint_extra_length=0.0&FingerJoint_finger=2.0&FingerJoint_play=0.1&FingerJoint_space=2.0&FingerJoint_width=1.0&h=50&outside=0&outside=1&radius=165&n=6&top=angled+hole&alignment_pins=1.0&thickness=3.0&format=svg&tabs=0.0&debug=0&labels=0&labels=1&reference=100&inner_corners=loop&burn=0.1
--><title
     id="title9">RegularBox</title><metadata
     id="metadata11"><rdf:RDF><cc:Work><dc:title>RegularBox</dc:title><dc:date>2022-12-20 14:10:19</dc:date><dc:source>http://localhost:8000/RegularBox?FingerJoint_angle=90.0&amp;FingerJoint_style=rectangular&amp;FingerJoint_surroundingspaces=1.0&amp;FingerJoint_edge_width=1.0&amp;FingerJoint_extra_length=0.0&amp;FingerJoint_finger=2.0&amp;FingerJoint_play=0.1&amp;FingerJoint_space=2.0&amp;FingerJoint_width=1.0&amp;h=50&amp;outside=0&amp;outside=1&amp;radius=165&amp;n=6&amp;top=angled+hole&amp;alignment_pins=1.0&amp;thickness=3.0&amp;format=svg&amp;tabs=0.0&amp;debug=0&amp;labels=0&amp;labels=1&amp;reference=100&amp;inner_corners=loop&amp;burn=0.1&amp;render=1</dc:source><dc:description>Box with regular polygon as base

For short side walls that don't fit a connecting finger reduce *surroundingspaces* and *finger* in the Finger Joint Settings.

The lids needs to be glued. For the bayonet lid all outside rings attach to the bottom, all inside rings to the top.


Created with Boxes.py (https://festi.info/boxes.py)
Command line: boxes RegularBox --FingerJoint_angle=90.0 --FingerJoint_style=rectangular --FingerJoint_surroundingspaces=1.0 --FingerJoint_edge_width=1.0 --FingerJoint_extra_length=0.0 --FingerJoint_finger=2.0 --FingerJoint_play=0.1 --FingerJoint_space=2.0 --FingerJoint_width=1.0 --h=50 --outside=0 --outside=1 --radius=165 --n=6 '--top=angled hole' --alignment_pins=1.0 --thickness=3.0 --format=svg --tabs=0.0 --debug=0 --labels=0 --labels=1 --reference=100 --inner_corners=loop --burn=0.1
Url: http://localhost:8000/RegularBox?FingerJoint_angle=90.0&amp;FingerJoint_style=rectangular&amp;FingerJoint_surroundingspaces=1.0&amp;FingerJoint_edge_width=1.0&amp;FingerJoint_extra_length=0.0&amp;FingerJoint_finger=2.0&amp;FingerJoint_play=0.1&amp;FingerJoint_space=2.0&amp;FingerJoint_width=1.0&amp;h=50&amp;outside=0&amp;outside=1&amp;radius=165&amp;n=6&amp;top=angled+hole&amp;alignment_pins=1.0&amp;thickness=3.0&amp;format=svg&amp;tabs=0.0&amp;debug=0&amp;labels=0&amp;labels=1&amp;reference=100&amp;inner_corners=loop&amp;burn=0.1&amp;render=1
SettingsUrl: http://localhost:8000/RegularBox?FingerJoint_angle=90.0&amp;FingerJoint_style=rectangular&amp;FingerJoint_surroundingspaces=1.0&amp;FingerJoint_edge_width=1.0&amp;FingerJoint_extra_length=0.0&amp;FingerJoint_finger=2.0&amp;FingerJoint_play=0.1&amp;FingerJoint_space=2.0&amp;FingerJoint_width=1.0&amp;h=50&amp;outside=0&amp;outside=1&amp;radius=165&amp;n=6&amp;top=angled+hole&amp;alignment_pins=1.0&amp;thickness=3.0&amp;format=svg&amp;tabs=0.0&amp;debug=0&amp;labels=0&amp;labels=1&amp;reference=100&amp;inner_corners=loop&amp;burn=0.1
</dc:description></cc:Work></rdf:RDF></metadata><g
     id="p-3"
     style="fill:none;stroke-linecap:round;stroke-linejoin:round;"><path
       d="M 12.132 57.200 H 17.800 C 17.900 57.200 17.800 57.100 17.800 57.200 V 60.100 C 17.800 60.155 17.845 60.200 17.900 60.200 H 23.900 C 23.955 60.200 24.000 60.155 24.000 60.100 V 57.200 C 24.000 57.100 23.900 57.200 24.000 57.200 H 29.800 C 29.900 57.200 29.800 57.100 29.800 57.200 V 60.100 C 29.800 60.155 29.845 60.200 29.900 60.200 H 35.900 C 35.955 60.200 36.000 60.155 36.000 60.100 V 57.200 C 36.000 57.100 35.900 57.200 36.000 57.200 H 41.800 C 41.900 57.200 41.800 57.100 41.800 57.200 V 60.100 C 41.800 60.155 41.845 60.200 41.900 60.200 H 47.900 C 47.955 60.200 48.000 60.155 48.000 60.100 V 57.200 C 48.000 57.100 47.900 57.200 48.000 57.200 H 53.800 C 53.900 57.200 53.800 57.100 53.800 57.200 V 60.100 C 53.800 60.155 53.845 60.200 53.900 60.200 H 59.900 C 59.955 60.200 60.000 60.155 60.000 60.100 V 57.200 C 60.000 57.100 59.900 57.200 60.000 57.200 H 65.800 C 65.900 57.200 65.800 57.100 65.800 57.200 V 60.100 C 65.800 60.155 65.845 60.200 65.900 60.200 H 71.900 C 71.955 60.200 72.000 60.155 72.000 60.100 V 57.200 C 72.000 57.100 71.900 57.200 72.000 57.200 H 77.800 C 77.900 57.200 77.800 57.100 77.800 57.200 V 60.100 C 77.800 60.155 77.845 60.200 77.900 60.200 H 83.900 C 83.955 60.200 84.000 60.155 84.000 60.100 V 57.200 C 84.000 57.100 83.900 57.200 84.000 57.200 H 89.800 C 89.900 57.200 89.800 57.100 89.800 57.200 V 60.100 C 89.800 60.155 89.845 60.200 89.900 60.200 H 95.900 C 95.955 60.200 96.000 60.155 96.000 60.100 V 57.200 C 96.000 57.100 95.900 57.200 96.000 57.200 H 101.800 C 101.900 57.200 101.800 57.100 101.800 57.200 V 60.100 C 101.800 60.155 101.845 60.200 101.900 60.200 H 107.900 C 107.955 60.200 108.000 60.155 108.000 60.100 V 57.200 C 108.000 57.100 107.900 57.200 108.000 57.200 H 113.800 C 113.900 57.200 113.800 57.100 113.800 57.200 V 60.100 C 113.800 60.155 113.845 60.200 113.900 60.200 H 119.900 C 119.955 60.200 120.000 60.155 120.000 60.100 V 57.200 C 120.000 57.100 119.900 57.200 120.000 57.200 H 125.800 C 125.900 57.200 125.800 57.100 125.800 57.200 V 60.100 C 125.800 60.155 125.845 60.200 125.900 60.200 H 131.900 C 131.955 60.200 132.000 60.155 132.000 60.100 V 57.200 C 132.000 57.100 131.900 57.200 132.000 57.200 H 137.800 C 137.900 57.200 137.800 57.100 137.800 57.200 V 60.100 C 137.800 60.155 137.845 60.200 137.900 60.200 H 143.900 C 143.955 60.200 144.000 60.155 144.000 60.100 V 57.200 C 144.000 57.100 143.900 57.200 144.000 57.200 H 149.800 C 149.900 57.200 149.800 57.100 149.800 57.200 V 60.100 C 149.800 60.155 149.845 60.200 149.900 60.200 H 155.900 C 155.955 60.200 156.000 60.155 156.000 60.100 V 57.200 C 156.000 57.100 155.900 57.200 156.000 57.200 H 161.800 C 161.900 57.200 161.800 57.100 161.800 57.200 V 60.100 C 161.800 60.155 161.845 60.200 161.900 60.200 H 167.900 C 167.955 60.200 168.000 60.155 168.000 60.100 V 57.200 C 168.000 57.100 167.900 57.200 168.000 57.200 H 173.668 H 175.400 C 175.455 57.200 175.500 57.155 175.500 57.100 V 50.250 C 175.500 50.195 175.455 50.150 175.400 50.150 H 172.902 C 172.802 50.150 172.902 50.250 172.902 50.150 V 44.050 C 172.902 43.950 172.802 44.050 172.902 44.050 H 175.400 C 175.455 44.050 175.500 44.005 175.500 43.950 V 38.250 C 175.500 38.195 175.455 38.150 175.400 38.150 H 172.902 C 172.802 38.150 172.902 38.250 172.902 38.150 V 32.050 C 172.902 31.950 172.802 32.050 172.902 32.050 H 175.400 C 175.455 32.050 175.500 32.005 175.500 31.950 V 26.250 C 175.500 26.195 175.455 26.150 175.400 26.150 H 172.902 C 172.802 26.150 172.902 26.250 172.902 26.150 V 20.050 C 172.902 19.950 172.802 20.050 172.902 20.050 H 175.400 C 175.455 20.050 175.500 20.005 175.500 19.950 V 13.100 C 175.500 13.045 175.455 13.000 175.400 13.000 H 173.668 H 168.000 C 167.900 13.000 168.000 13.100 168.000 13.000 V 10.100 C 168.000 10.045 167.955 10.000 167.900 10.000 H 161.900 C 161.845 10.000 161.800 10.045 161.800 10.100 V 13.000 C 161.800 13.100 161.900 13.000 161.800 13.000 H 156.000 C 155.900 13.000 156.000 13.100 156.000 13.000 V 10.100 C 156.000 10.045 155.955 10.000 155.900 10.000 H 149.900 C 149.845 10.000 149.800 10.045 149.800 10.100 V 13.000 C 149.800 13.100 149.900 13.000 149.800 13.000 H 144.000 C 143.900 13.000 144.000 13.100 144.000 13.000 V 10.100 C 144.000 10.045 143.955 10.000 143.900 10.000 H 137.900 C 137.845 10.000 137.800 10.045 137.800 10.100 V 13.000 C 137.800 13.100 137.900 13.000 137.800 13.000 H 132.000 C 131.900 13.000 132.000 13.100 132.000 13.000 V 10.100 C 132.000 10.045 131.955 10.000 131.900 10.000 H 125.900 C 125.845 10.000 125.800 10.045 125.800 10.100 V 13.000 C 125.800 13.100 125.900 13.000 125.800 13.000 H 120.000 C 119.900 13.000 120.000 13.100 120.000 13.000 V 10.100 C 120.000 10.045 119.955 10.000 119.900 10.000 H 113.900 C 113.845 10.000 113.800 10.045 113.800 10.100 V 13.000 C 113.800 13.100 113.900 13.000 113.800 13.000 H 108.000 C 107.900 13.000 108.000 13.100 108.000 13.000 V 10.100 C 108.000 10.045 107.955 10.000 107.900 10.000 H 101.900 C 101.845 10.000 101.800 10.045 101.800 10.100 V 13.000 C 101.800 13.100 101.900 13.000 101.800 13.000 H 96.000 C 95.900 13.000 96.000 13.100 96.000 13.000 V 10.100 C 96.000 10.045 95.955 10.000 95.900 10.000 H 89.900 C 89.845 10.000 89.800 10.045 89.800 10.100 V 13.000 C 89.800 13.100 89.900 13.000 89.800 13.000 H 84.000 C 83.900 13.000 84.000 13.100 84.000 13.000 V 10.100 C 84.000 10.045 83.955 10.000 83.900 10.000 H 77.900 C 77.845 10.000 77.800 10.045 77.800 10.100 V 13.000 C 77.800 13.100 77.900 13.000 77.800 13.000 H 72.000 C 71.900 13.000 72.000 13.100 72.000 13.000 V 10.100 C 72.000 10.045 71.955 10.000 71.900 10.000 H 65.900 C 65.845 10.000 65.800 10.045 65.800 10.100 V 13.000 C 65.800 13.100 65.900 13.000 65.800 13.000 H 60.000 C 59.900 13.000 60.000 13.100 60.000 13.000 V 10.100 C 60.000 10.045 59.955 10.000 59.900 10.000 H 53.900 C 53.845 10.000 53.800 10.045 53.800 10.100 V 13.000 C 53.800 13.100 53.900 13.000 53.800 13.000 H 48.000 C 47.900 13.000 48.000 13.100 48.000 13.000 V 10.100 C 48.000 10.045 47.955 10.000 47.900 10.000 H 41.900 C 41.845 10.000 41.800 10.045 41.800 10.100 V 13.000 C 41.800 13.100 41.900 13.000 41.800 13.000 H 36.000 C 35.900 13.000 36.000 13.100 36.000 13.000 V 10.100 C 36.000 10.045 35.955 10.000 35.900 10.000 H 29.900 C 29.845 10.000 29.800 10.045 29.800 10.100 V 13.000 C 29.800 13.100 29.900 13.000 29.800 13.000 H 24.000 C 23.900 13.000 24.000 13.100 24.000 13.000 V 10.100 C 24.000 10.045 23.955 10.000 23.900 10.000 H 17.900 C 17.845 10.000 17.800 10.045 17.800 10.100 V 13.000 C 17.800 13.100 17.900 13.000 17.800 13.000 H 12.132 H 10.400 C 10.345 13.000 10.300 13.045 10.300 13.100 V 19.950 C 10.300 20.005 10.345 20.050 10.400 20.050 H 12.898 C 12.998 20.050 12.898 19.950 12.898 20.050 V 26.150 C 12.898 26.250 12.998 26.150 12.898 26.150 H 10.400 C 10.345 26.150 10.300 26.195 10.300 26.250 V 31.950 C 10.300 32.005 10.345 32.050 10.400 32.050 H 12.898 C 12.998 32.050 12.898 31.950 12.898 32.050 V 38.150 C 12.898 38.250 12.998 38.150 12.898 38.150 H 10.400 C 10.345 38.150 10.300 38.195 10.300 38.250 V 43.950 C 10.300 44.005 10.345 44.050 10.400 44.050 H 12.898 C 12.998 44.050 12.898 43.950 12.898 44.050 V 50.150 C 12.898 50.250 12.998 50.150 12.898 50.150 H 10.400 C 10.345 50.150 10.300 50.195 10.300 50.250 V 57.100 C 10.300 57.155 10.345 57.200 10.400 57.200 H 12.132 Z"
       stroke="rgb(0,0,0)"
       stroke-width="0.20"
       id="path24" /></g><path
     style="fill:none;stroke:#000000;stroke-width:0.264583px;stroke-linecap:butt;stroke-linejoin:miter;stroke-opacity:1"
     d="m 20.835165,32.151842 19.22873,0.02296 c 0,0 2.80275,0.25271 2.8487,3.009515 0.0459,2.756807 -2.89465,2.940595 -2.89465,2.940595 l -19.06791,-0.04595 c 0,0 -2.89503,-0.115169 -2.91762,-2.871674 -0.0218,-2.665219 2.80275,-3.055462 2.80275,-3.055462 z"
     id="path9341"
     sodipodi:nodetypes="ccsccscc" /><path
     style="fill:none;stroke:#000000;stroke-width:0.264583px;stroke-linecap:butt;stroke-linejoin:miter;stroke-opacity:1"
     d="m 145.69016,32.151842 19.22873,0.02296 c 0,0 2.80275,0.25271 2.8487,3.009515 0.0459,2.756807 -2.89465,2.940595 -2.89465,2.940595 l -19.06791,-0.04595 c 0,0 -2.89503,-0.115169 -2.91762,-2.871674 -0.0218,-2.665219 2.80275,-3.055462 2.80275,-3.055462 z"
     id="path9341-3"
     sodipodi:nodetypes="ccsccscc" /></svg>
