<?xml version="1.0" encoding="UTF-8" standalone="no"?>
<svg
   width="1019.00mm"
   height="359.39mm"
   viewBox="0.0 0.0 1019.00 359.39"
   version="1.1"
   id="svg1168"
   sodipodi:docname="hectagonum_top_withhole.svg"
   inkscape:version="1.2.2 (b0a84865, 2022-12-01)"
   xmlns:inkscape="http://www.inkscape.org/namespaces/inkscape"
   xmlns:sodipodi="http://sodipodi.sourceforge.net/DTD/sodipodi-0.dtd"
   xmlns="http://www.w3.org/2000/svg"
   xmlns:svg="http://www.w3.org/2000/svg"
   xmlns:rdf="http://www.w3.org/1999/02/22-rdf-syntax-ns#"
   xmlns:cc="http://creativecommons.org/ns#"
   xmlns:dc="http://purl.org/dc/elements/1.1/">
  <defs
     id="defs1172" />
  <sodipodi:namedview
     id="namedview1170"
     pagecolor="#ffffff"
     bordercolor="#666666"
     borderopacity="1.0"
     inkscape:showpageshadow="2"
     inkscape:pageopacity="0.0"
     inkscape:pagecheckerboard="0"
     inkscape:deskcolor="#d1d1d1"
     inkscape:document-units="mm"
     showgrid="false"
     inkscape:zoom="0.62424091"
     inkscape:cx="640.77825"
     inkscape:cy="743.30277"
     inkscape:window-width="1387"
     inkscape:window-height="928"
     inkscape:window-x="0"
     inkscape:window-y="25"
     inkscape:window-maximized="0"
     inkscape:current-layer="p-2"
     showguides="true" />
  <!--
RegularBox - Box with regular polygon as base


For short side walls that don't fit a connecting finger reduce *surroundingspaces* and *finger* in the Finger Joint Settings.

The lids needs to be glued. For the bayonet lid all outside rings attach to the bottom, all inside rings to the top.



Created with Boxes.py (https://festi.info/boxes.py)
Creation date: 2022-12-16 15:41:29
Command line (remove spaces between dashes): boxes RegularBox - -FingerJoint_angle=90.0 - -FingerJoint_style=rectangular - -FingerJoint_surroundingspaces=1.0 - -FingerJoint_edge_width=1.0 - -FingerJoint_extra_length=0.0 - -FingerJoint_finger=2.0 - -FingerJoint_play=0.1 - -FingerJoint_space=2.0 - -FingerJoint_width=1.0 - -h=40 - -outside=0 - -outside=1 - -radius=165 - -n=6 '- -top=angled hole' - -alignment_pins=1.0 - -thickness=3.0 - -format=svg - -tabs=0.0 - -debug=0 - -labels=0 - -labels=1 - -reference=100 - -inner_corners=loop - -burn=0.1
Url: http://localhost:8000/RegularBox?FingerJoint_angle=90.0&FingerJoint_style=rectangular&FingerJoint_surroundingspaces=1.0&FingerJoint_edge_width=1.0&FingerJoint_extra_length=0.0&FingerJoint_finger=2.0&FingerJoint_play=0.1&FingerJoint_space=2.0&FingerJoint_width=1.0&h=40&outside=0&outside=1&radius=165&n=6&top=angled+hole&alignment_pins=1.0&thickness=3.0&format=svg&tabs=0.0&debug=0&labels=0&labels=1&reference=100&inner_corners=loop&burn=0.1&render=1
SettingsUrl: http://localhost:8000/RegularBox?FingerJoint_angle=90.0&FingerJoint_style=rectangular&FingerJoint_surroundingspaces=1.0&FingerJoint_edge_width=1.0&FingerJoint_extra_length=0.0&FingerJoint_finger=2.0&FingerJoint_play=0.1&FingerJoint_space=2.0&FingerJoint_width=1.0&h=40&outside=0&outside=1&radius=165&n=6&top=angled+hole&alignment_pins=1.0&thickness=3.0&format=svg&tabs=0.0&debug=0&labels=0&labels=1&reference=100&inner_corners=loop&burn=0.1
-->
  <title
     id="title1135">RegularBox</title>
  <metadata
     id="metadata1137">
    <rdf:RDF>
      <cc:Work>
        <dc:title>RegularBox</dc:title>
        <dc:date>2022-12-16 15:41:29</dc:date>
        <dc:source>http://localhost:8000/RegularBox?FingerJoint_angle=90.0&amp;FingerJoint_style=rectangular&amp;FingerJoint_surroundingspaces=1.0&amp;FingerJoint_edge_width=1.0&amp;FingerJoint_extra_length=0.0&amp;FingerJoint_finger=2.0&amp;FingerJoint_play=0.1&amp;FingerJoint_space=2.0&amp;FingerJoint_width=1.0&amp;h=40&amp;outside=0&amp;outside=1&amp;radius=165&amp;n=6&amp;top=angled+hole&amp;alignment_pins=1.0&amp;thickness=3.0&amp;format=svg&amp;tabs=0.0&amp;debug=0&amp;labels=0&amp;labels=1&amp;reference=100&amp;inner_corners=loop&amp;burn=0.1&amp;render=1</dc:source>
        <dc:description>Box with regular polygon as base

For short side walls that don't fit a connecting finger reduce *surroundingspaces* and *finger* in the Finger Joint Settings.

The lids needs to be glued. For the bayonet lid all outside rings attach to the bottom, all inside rings to the top.


Created with Boxes.py (https://festi.info/boxes.py)
Command line: boxes RegularBox --FingerJoint_angle=90.0 --FingerJoint_style=rectangular --FingerJoint_surroundingspaces=1.0 --FingerJoint_edge_width=1.0 --FingerJoint_extra_length=0.0 --FingerJoint_finger=2.0 --FingerJoint_play=0.1 --FingerJoint_space=2.0 --FingerJoint_width=1.0 --h=40 --outside=0 --outside=1 --radius=165 --n=6 '--top=angled hole' --alignment_pins=1.0 --thickness=3.0 --format=svg --tabs=0.0 --debug=0 --labels=0 --labels=1 --reference=100 --inner_corners=loop --burn=0.1
Url: http://localhost:8000/RegularBox?FingerJoint_angle=90.0&amp;FingerJoint_style=rectangular&amp;FingerJoint_surroundingspaces=1.0&amp;FingerJoint_edge_width=1.0&amp;FingerJoint_extra_length=0.0&amp;FingerJoint_finger=2.0&amp;FingerJoint_play=0.1&amp;FingerJoint_space=2.0&amp;FingerJoint_width=1.0&amp;h=40&amp;outside=0&amp;outside=1&amp;radius=165&amp;n=6&amp;top=angled+hole&amp;alignment_pins=1.0&amp;thickness=3.0&amp;format=svg&amp;tabs=0.0&amp;debug=0&amp;labels=0&amp;labels=1&amp;reference=100&amp;inner_corners=loop&amp;burn=0.1&amp;render=1
SettingsUrl: http://localhost:8000/RegularBox?FingerJoint_angle=90.0&amp;FingerJoint_style=rectangular&amp;FingerJoint_surroundingspaces=1.0&amp;FingerJoint_edge_width=1.0&amp;FingerJoint_extra_length=0.0&amp;FingerJoint_finger=2.0&amp;FingerJoint_play=0.1&amp;FingerJoint_space=2.0&amp;FingerJoint_width=1.0&amp;h=40&amp;outside=0&amp;outside=1&amp;radius=165&amp;n=6&amp;top=angled+hole&amp;alignment_pins=1.0&amp;thickness=3.0&amp;format=svg&amp;tabs=0.0&amp;debug=0&amp;labels=0&amp;labels=1&amp;reference=100&amp;inner_corners=loop&amp;burn=0.1
</dc:description>
      </cc:Work>
    </rdf:RDF>
  </metadata>
  <g
     id="p-2"
     style="fill:none;stroke-linecap:round;stroke-linejoin:round"
     transform="translate(-320.08588,-16.783529)">
    <path
       d="m 426.332,337.688 h 5.618 c 0.055,0 0.1,-0.044 0.1,-0.1 v -2.9 c 0,-0.1 -0.1,0 0,0 h 6.1 c 0.1,0 0,-0.1 0,0 v 2.9 c 0,0.056 0.045,0.1 0.1,0.1 h 5.7 c 0.055,0 0.1,-0.044 0.1,-0.1 v -2.9 c 0,-0.1 -0.1,0 0,0 h 6.1 c 0.1,0 0,-0.1 0,0 v 2.9 c 0,0.056 0.045,0.1 0.1,0.1 h 5.7 c 0.055,0 0.1,-0.044 0.1,-0.1 v -2.9 c 0,-0.1 -0.1,0 0,0 h 6.1 c 0.1,0 0,-0.1 0,0 v 2.9 c 0,0.056 0.045,0.1 0.1,0.1 h 5.7 c 0.055,0 0.1,-0.044 0.1,-0.1 v -2.9 c 0,-0.1 -0.1,0 0,0 h 6.1 c 0.1,0 0,-0.1 0,0 v 2.9 c 0,0.056 0.045,0.1 0.1,0.1 h 5.7 c 0.055,0 0.1,-0.044 0.1,-0.1 v -2.9 c 0,-0.1 -0.1,0 0,0 h 6.1 c 0.1,0 0,-0.1 0,0 v 2.9 c 0,0.056 0.045,0.1 0.1,0.1 h 5.7 c 0.055,0 0.1,-0.044 0.1,-0.1 v -2.9 c 0,-0.1 -0.1,0 0,0 h 6.1 c 0.1,0 0,-0.1 0,0 v 2.9 c 0,0.056 0.045,0.1 0.1,0.1 h 5.7 c 0.055,0 0.1,-0.044 0.1,-0.1 v -2.9 c 0,-0.1 -0.1,0 0,0 h 6.1 c 0.1,0 0,-0.1 0,0 v 2.9 c 0,0.056 0.045,0.1 0.1,0.1 h 5.7 c 0.055,0 0.1,-0.044 0.1,-0.1 v -2.9 c 0,-0.1 -0.1,0 0,0 h 6.1 c 0.1,0 0,-0.1 0,0 v 2.9 c 0,0.056 0.045,0.1 0.1,0.1 h 5.7 c 0.055,0 0.1,-0.044 0.1,-0.1 v -2.9 c 0,-0.1 -0.1,0 0,0 h 6.1 c 0.1,0 0,-0.1 0,0 v 2.9 c 0,0.056 0.045,0.1 0.1,0.1 h 5.7 c 0.055,0 0.1,-0.044 0.1,-0.1 v -2.9 c 0,-0.1 -0.1,0 0,0 h 6.1 c 0.1,0 0,-0.1 0,0 v 2.9 c 0,0.056 0.045,0.1 0.1,0.1 h 5.7 c 0.055,0 0.1,-0.044 0.1,-0.1 v -2.9 c 0,-0.1 -0.1,0 0,0 h 6.1 c 0.1,0 0,-0.1 0,0 v 2.9 c 0,0.056 0.045,0.1 0.1,0.1 h 5.7 c 0.055,0 0.1,-0.044 0.1,-0.1 v -2.9 c 0,-0.1 -0.1,0 0,0 h 6.1 c 0.1,0 0,-0.1 0,0 v 2.9 c 0,0.056 0.045,0.1 0.1,0.1 h 5.7 c 0.055,0 0.1,-0.044 0.1,-0.1 v -2.9 c 0,-0.1 -0.1,0 0,0 h 6.1 c 0.1,0 0,-0.1 0,0 v 2.9 c 0,0.056 0.045,0.1 0.1,0.1 h 5.618 1.732 c 0.036,0 0.069,-0.019 0.087,-0.05 l 0.866,-1.5 2.809,-4.865 c 0.027,-0.048 0.011,-0.109 -0.037,-0.137 l -2.511,-1.45 c -0.087,-0.05 -0.05,0.087 0,0 l 3.05,-5.282 c 0.05,-0.087 -0.087,-0.05 0,0 l 2.511,1.45 c 0.048,0.027 0.109,0.011 0.137,-0.037 l 2.85,-4.936 c 0.027,-0.048 0.011,-0.109 -0.037,-0.137 l -2.511,-1.45 c -0.087,-0.05 -0.05,0.087 0,0 l 3.05,-5.283 c 0.05,-0.086 -0.087,-0.05 0,0 l 2.511,1.45 c 0.048,0.028 0.109,0.012 0.137,-0.036 l 2.85,-4.937 c 0.027,-0.047 0.011,-0.109 -0.037,-0.136 l -2.511,-1.45 c -0.087,-0.05 -0.05,0.086 0,0 l 3.05,-5.283 c 0.05,-0.086 -0.087,-0.05 0,0 l 2.511,1.45 c 0.048,0.028 0.109,0.011 0.137,-0.036 l 2.85,-4.937 c 0.027,-0.048 0.011,-0.109 -0.037,-0.136 l -2.511,-1.45 c -0.087,-0.05 -0.05,0.086 0,0 l 3.05,-5.283 c 0.05,-0.087 -0.087,-0.05 0,0 l 2.511,1.45 c 0.048,0.027 0.109,0.011 0.137,-0.037 l 2.85,-4.936 c 0.027,-0.048 0.011,-0.109 -0.037,-0.137 l -2.511,-1.45 c -0.087,-0.05 -0.05,0.087 0,0 l 3.05,-5.282 c 0.05,-0.087 -0.087,-0.05 0,0 l 2.511,1.45 c 0.048,0.027 0.109,0.011 0.137,-0.037 l 2.85,-4.936 c 0.027,-0.048 0.011,-0.109 -0.037,-0.137 l -2.511,-1.45 c -0.087,-0.05 -0.05,0.087 0,0 l 3.05,-5.283 c 0.05,-0.086 -0.087,-0.05 0,0 l 2.511,1.45 c 0.048,0.028 0.109,0.011 0.137,-0.036 l 2.85,-4.937 c 0.027,-0.048 0.011,-0.109 -0.037,-0.136 l -2.511,-1.45 c -0.087,-0.05 -0.05,0.086 0,0 l 3.05,-5.283 c 0.05,-0.087 -0.087,-0.05 0,0 l 2.511,1.45 c 0.048,0.028 0.109,0.011 0.137,-0.037 l 2.85,-4.936 c 0.027,-0.048 0.011,-0.109 -0.037,-0.137 l -2.511,-1.45 c -0.087,-0.05 -0.05,0.087 0,0 l 3.05,-5.282 c 0.05,-0.087 -0.087,-0.05 0,0 l 2.511,1.45 c 0.048,0.027 0.109,0.011 0.137,-0.037 l 2.85,-4.936 c 0.027,-0.048 0.011,-0.109 -0.037,-0.137 l -2.511,-1.45 c -0.087,-0.05 -0.05,0.087 0,0 l 3.05,-5.283 c 0.05,-0.086 -0.087,-0.05 0,0 l 2.511,1.45 c 0.048,0.028 0.109,0.012 0.137,-0.036 l 2.85,-4.937 c 0.027,-0.047 0.011,-0.109 -0.037,-0.136 l -2.511,-1.45 c -0.087,-0.05 -0.05,0.086 0,0 l 3.05,-5.283 c 0.05,-0.087 -0.087,-0.05 0,0 l 2.511,1.45 c 0.048,0.028 0.109,0.011 0.137,-0.037 l 2.85,-4.936 c 0.027,-0.048 0.011,-0.109 -0.037,-0.137 l -2.511,-1.45 c -0.087,-0.05 -0.05,0.087 0,0 l 3.05,-5.282 c 0.05,-0.087 -0.087,-0.05 0,0 l 2.511,1.45 c 0.048,0.027 0.109,0.011 0.137,-0.037 l 2.85,-4.936 c 0.027,-0.048 0.011,-0.109 -0.037,-0.137 l -2.511,-1.45 c -0.087,-0.05 -0.05,0.087 0,0 l 3.05,-5.283 c 0.05,-0.086 -0.087,-0.05 0,0 l 2.511,1.45 c 0.048,0.028 0.109,0.012 0.137,-0.036 l 2.85,-4.937 c 0.027,-0.047 0.011,-0.109 -0.037,-0.136 l -2.511,-1.45 c -0.087,-0.05 -0.05,0.086 0,0 l 3.05,-5.283 c 0.05,-0.087 -0.087,-0.05 0,0 l 2.511,1.45 c 0.048,0.028 0.109,0.011 0.137,-0.037 l 2.809,-4.865 0.866,-1.5 c 0.017,-0.031 0.017,-0.069 0,-0.1 l -0.866,-1.5 -2.809,-4.865 c -0.028,-0.048 -0.089,-0.064 -0.137,-0.037 l -2.511,1.45 c -0.087,0.05 0.05,0.087 0,0 l -3.05,-5.282 c -0.05,-0.087 -0.087,0.05 0,0 l 2.511,-1.45 c 0.048,-0.028 0.064,-0.089 0.037,-0.137 l -2.85,-4.936 c -0.028,-0.048 -0.089,-0.065 -0.137,-0.037 l -2.511,1.45 c -0.087,0.05 0.05,0.087 0,0 l -3.05,-5.283 c -0.05,-0.086 -0.087,0.05 0,0 l 2.511,-1.45 c 0.048,-0.027 0.064,-0.089 0.037,-0.136 l -2.85,-4.937 c -0.028,-0.048 -0.089,-0.064 -0.137,-0.036 l -2.511,1.45 c -0.087,0.05 0.05,0.086 0,0 l -3.05,-5.283 c -0.05,-0.087 -0.087,0.05 0,0 l 2.511,-1.45 c 0.048,-0.028 0.064,-0.089 0.037,-0.137 l -2.85,-4.936 c -0.028,-0.048 -0.089,-0.064 -0.137,-0.037 l -2.511,1.45 c -0.087,0.05 0.05,0.087 0,0 l -3.05,-5.282 c -0.05,-0.087 -0.087,0.05 0,0 l 2.511,-1.45 c 0.048,-0.028 0.064,-0.089 0.037,-0.137 l -2.85,-4.936 c -0.028,-0.048 -0.089,-0.065 -0.137,-0.037 l -2.511,1.45 c -0.087,0.05 0.05,0.087 0,0 l -3.05,-5.283 c -0.05,-0.086 -0.087,0.05 0,0 l 2.511,-1.45 c 0.048,-0.027 0.064,-0.088 0.037,-0.136 l -2.85,-4.937 c -0.028,-0.047 -0.089,-0.064 -0.137,-0.036 l -2.511,1.45 c -0.087,0.05 0.05,0.086 0,0 l -3.05,-5.283 c -0.05,-0.087 -0.087,0.05 0,0 l 2.511,-1.45 c 0.048,-0.028 0.064,-0.089 0.037,-0.137 l -2.85,-4.936 c -0.028,-0.048 -0.089,-0.064 -0.137,-0.037 l -2.511,1.45 c -0.087,0.05 0.05,0.087 0,0 l -3.05,-5.282 c -0.05,-0.087 -0.087,0.05 0,0 l 2.511,-1.45 c 0.048,-0.028 0.064,-0.089 0.037,-0.137 l -2.85,-4.936 c -0.028,-0.048 -0.089,-0.064 -0.137,-0.037 l -2.511,1.45 c -0.087,0.05 0.05,0.087 0,0 l -3.05,-5.283 c -0.05,-0.086 -0.087,0.05 0,0 l 2.511,-1.45 c 0.048,-0.027 0.064,-0.088 0.037,-0.136 l -2.85,-4.937 c -0.028,-0.047 -0.089,-0.064 -0.137,-0.036 l -2.511,1.45 c -0.087,0.05 0.05,0.086 0,0 l -3.05,-5.283 c -0.05,-0.086 -0.087,0.05 0,0 l 2.511,-1.45 c 0.048,-0.028 0.064,-0.089 0.037,-0.136 l -2.85,-4.937 c -0.028,-0.048 -0.089,-0.064 -0.137,-0.036 l -2.511,1.45 c -0.087,0.05 0.05,0.086 0,0 l -3.05,-5.283 c -0.05,-0.087 -0.087,0.05 0,0 l 2.511,-1.45 c 0.048,-0.028 0.064,-0.089 0.037,-0.137 l -2.85,-4.936 c -0.028,-0.048 -0.089,-0.064 -0.137,-0.037 l -2.511,1.45 c -0.087,0.05 0.05,0.087 0,0 l -3.05,-5.283 c -0.05,-0.086 -0.087,0.05 0,0 l 2.511,-1.45 c 0.048,-0.027 0.064,-0.088 0.037,-0.136 l -2.85,-4.936 c -0.028,-0.048 -0.089,-0.065 -0.137,-0.037 l -2.511,1.45 c -0.087,0.05 0.05,0.087 0,0 l -3.05,-5.283 c -0.05,-0.086 -0.087,0.05 0,0 l 2.511,-1.45 c 0.048,-0.027 0.064,-0.089 0.037,-0.136 l -2.85,-4.937 c -0.028,-0.048 -0.089,-0.064 -0.137,-0.036 l -2.511,1.45 c -0.087,0.05 0.05,0.086 0,0 l -3.05,-5.283 c -0.05,-0.087 -0.087,0.05 0,0 l 2.511,-1.45 c 0.048,-0.028 0.064,-0.089 0.037,-0.137 l -2.809,-4.865 -0.866,-1.5 C 589.669,51.719 589.636,51.7 589.6,51.7 h -1.732 -5.618 c -0.055,0 -0.1,0.045 -0.1,0.1 v 2.9 c 0,0.1 0.1,0 0,0 h -6.1 c -0.1,0 0,0.1 0,0 v -2.9 c 0,-0.055 -0.045,-0.1 -0.1,-0.1 h -5.7 c -0.055,0 -0.1,0.045 -0.1,0.1 v 2.9 c 0,0.1 0.1,0 0,0 h -6.1 c -0.1,0 0,0.1 0,0 v -2.9 c 0,-0.055 -0.045,-0.1 -0.1,-0.1 h -5.7 c -0.055,0 -0.1,0.045 -0.1,0.1 v 2.9 c 0,0.1 0.1,0 0,0 h -6.1 c -0.1,0 0,0.1 0,0 v -2.9 c 0,-0.055 -0.045,-0.1 -0.1,-0.1 h -5.7 c -0.055,0 -0.1,0.045 -0.1,0.1 v 2.9 c 0,0.1 0.1,0 0,0 h -6.1 c -0.1,0 0,0.1 0,0 v -2.9 c 0,-0.055 -0.045,-0.1 -0.1,-0.1 h -5.7 c -0.055,0 -0.1,0.045 -0.1,0.1 v 2.9 c 0,0.1 0.1,0 0,0 h -6.1 c -0.1,0 0,0.1 0,0 v -2.9 c 0,-0.055 -0.045,-0.1 -0.1,-0.1 h -5.7 c -0.055,0 -0.1,0.045 -0.1,0.1 v 2.9 c 0,0.1 0.1,0 0,0 h -6.1 c -0.1,0 0,0.1 0,0 v -2.9 c 0,-0.055 -0.045,-0.1 -0.1,-0.1 h -5.7 c -0.055,0 -0.1,0.045 -0.1,0.1 v 2.9 c 0,0.1 0.1,0 0,0 h -6.1 c -0.1,0 0,0.1 0,0 v -2.9 c 0,-0.055 -0.045,-0.1 -0.1,-0.1 h -5.7 c -0.055,0 -0.1,0.045 -0.1,0.1 v 2.9 c 0,0.1 0.1,0 0,0 h -6.1 c -0.1,0 0,0.1 0,0 v -2.9 c 0,-0.055 -0.045,-0.1 -0.1,-0.1 h -5.7 c -0.055,0 -0.1,0.045 -0.1,0.1 v 2.9 c 0,0.1 0.1,0 0,0 h -6.1 c -0.1,0 0,0.1 0,0 v -2.9 c 0,-0.055 -0.045,-0.1 -0.1,-0.1 h -5.7 c -0.055,0 -0.1,0.045 -0.1,0.1 v 2.9 c 0,0.1 0.1,0 0,0 h -6.1 c -0.1,0 0,0.1 0,0 v -2.9 c 0,-0.055 -0.045,-0.1 -0.1,-0.1 h -5.7 c -0.055,0 -0.1,0.045 -0.1,0.1 v 2.9 c 0,0.1 0.1,0 0,0 h -6.1 c -0.1,0 0,0.1 0,0 v -2.9 c 0,-0.055 -0.045,-0.1 -0.1,-0.1 h -5.7 c -0.055,0 -0.1,0.045 -0.1,0.1 v 2.9 c 0,0.1 0.1,0 0,0 h -6.1 c -0.1,0 0,0.1 0,0 v -2.9 c 0,-0.055 -0.045,-0.1 -0.1,-0.1 h -5.7 c -0.055,0 -0.1,0.045 -0.1,0.1 v 2.9 c 0,0.1 0.1,0 0,0 h -6.1 c -0.1,0 0,0.1 0,0 v -2.9 c 0,-0.055 -0.045,-0.1 -0.1,-0.1 h -5.618 -1.732 c -0.036,0 -0.069,0.019 -0.087,0.05 l -0.866,1.5 -2.809,4.865 c -0.027,0.048 -0.011,0.109 0.037,0.137 l 2.511,1.45 c 0.087,0.05 0.05,-0.087 0,0 l -3.05,5.283 c -0.05,0.086 0.087,0.05 0,0 l -2.511,-1.45 c -0.048,-0.028 -0.109,-0.012 -0.137,0.036 l -2.85,4.937 c -0.027,0.047 -0.011,0.109 0.037,0.136 l 2.511,1.45 c 0.087,0.05 0.05,-0.086 0,0 l -3.05,5.283 c -0.05,0.087 0.087,0.05 0,0 l -2.511,-1.45 c -0.048,-0.028 -0.109,-0.011 -0.137,0.037 l -2.85,4.936 c -0.027,0.048 -0.011,0.109 0.037,0.136 l 2.511,1.45 c 0.087,0.05 0.05,-0.086 0,0 l -3.05,5.283 c -0.05,0.087 0.087,0.05 0,0 l -2.511,-1.45 c -0.048,-0.027 -0.109,-0.011 -0.137,0.037 l -2.85,4.936 c -0.027,0.048 -0.011,0.109 0.037,0.137 l 2.511,1.45 c 0.087,0.05 0.05,-0.087 0,0 l -3.05,5.283 c -0.05,0.086 0.087,0.05 0,0 l -2.511,-1.45 c -0.048,-0.028 -0.109,-0.012 -0.137,0.036 l -2.85,4.937 c -0.027,0.047 -0.011,0.108 0.037,0.136 l 2.511,1.45 c 0.087,0.05 0.05,-0.086 0,0 l -3.05,5.283 c -0.05,0.086 0.087,0.05 0,0 l -2.511,-1.45 c -0.048,-0.028 -0.109,-0.011 -0.137,0.036 l -2.85,4.937 c -0.027,0.048 -0.011,0.109 0.037,0.136 l 2.511,1.45 c 0.087,0.05 0.05,-0.086 0,0 l -3.05,5.283 c -0.05,0.087 0.087,0.05 0,0 l -2.511,-1.45 c -0.048,-0.027 -0.109,-0.011 -0.137,0.037 l -2.85,4.936 c -0.027,0.048 -0.011,0.109 0.037,0.137 l 2.511,1.45 c 0.087,0.05 0.05,-0.087 0,0 l -3.05,5.282 c -0.05,0.087 0.087,0.05 0,0 l -2.511,-1.45 c -0.048,-0.027 -0.109,-0.011 -0.137,0.037 l -2.85,4.936 c -0.027,0.048 -0.011,0.109 0.037,0.137 l 2.511,1.45 c 0.087,0.05 0.05,-0.087 0,0 l -3.05,5.283 c -0.05,0.086 0.087,0.05 0,0 l -2.511,-1.45 c -0.048,-0.028 -0.109,-0.011 -0.137,0.036 l -2.85,4.937 c -0.027,0.048 -0.011,0.109 0.037,0.136 l 2.511,1.45 c 0.087,0.05 0.05,-0.086 0,0 l -3.05,5.283 c -0.05,0.087 0.087,0.05 0,0 l -2.511,-1.45 c -0.048,-0.028 -0.109,-0.011 -0.137,0.037 l -2.85,4.936 c -0.027,0.048 -0.011,0.109 0.037,0.137 l 2.511,1.45 c 0.087,0.05 0.05,-0.087 0,0 l -3.05,5.282 c -0.05,0.087 0.087,0.05 0,0 l -2.511,-1.45 c -0.048,-0.027 -0.109,-0.011 -0.137,0.037 l -2.85,4.936 c -0.027,0.048 -0.011,0.109 0.037,0.137 l 2.511,1.45 c 0.087,0.05 0.05,-0.087 0,0 l -3.05,5.283 c -0.05,0.086 0.087,0.05 0,0 l -2.511,-1.45 c -0.048,-0.028 -0.109,-0.012 -0.137,0.036 l -2.85,4.937 c -0.027,0.047 -0.011,0.109 0.037,0.136 l 2.511,1.45 c 0.087,0.05 0.05,-0.086 0,0 l -3.05,5.283 c -0.05,0.087 0.087,0.05 0,0 l -2.511,-1.45 c -0.048,-0.028 -0.109,-0.011 -0.137,0.037 l -2.85,4.936 c -0.027,0.048 -0.011,0.109 0.037,0.137 l 2.511,1.45 c 0.087,0.05 0.05,-0.087 0,0 l -3.05,5.282 c -0.05,0.087 0.087,0.05 0,0 l -2.511,-1.45 c -0.048,-0.027 -0.109,-0.011 -0.137,0.037 l -2.809,4.865 -0.866,1.5 c -0.017,0.031 -0.017,0.069 0,0.1 l 0.866,1.5 2.809,4.865 c 0.028,0.048 0.089,0.065 0.137,0.037 l 2.511,-1.45 c 0.087,-0.05 -0.05,-0.087 0,0 l 3.05,5.283 c 0.05,0.086 0.087,-0.05 0,0 l -2.511,1.45 c -0.048,0.027 -0.064,0.089 -0.037,0.136 l 2.85,4.937 c 0.028,0.048 0.089,0.064 0.137,0.036 l 2.511,-1.45 c 0.087,-0.05 -0.05,-0.086 0,0 l 3.05,5.283 c 0.05,0.087 0.087,-0.05 0,0 l -2.511,1.45 c -0.048,0.028 -0.064,0.089 -0.037,0.137 l 2.85,4.936 c 0.028,0.048 0.089,0.064 0.137,0.037 l 2.511,-1.45 c 0.087,-0.05 -0.05,-0.087 0,0 l 3.05,5.282 c 0.05,0.087 0.087,-0.05 0,0 l -2.511,1.45 c -0.048,0.028 -0.064,0.089 -0.037,0.137 l 2.85,4.936 c 0.028,0.048 0.089,0.065 0.137,0.037 l 2.511,-1.45 c 0.087,-0.05 -0.05,-0.087 0,0 l 3.05,5.283 c 0.05,0.086 0.087,-0.05 0,0 l -2.511,1.45 c -0.048,0.027 -0.064,0.089 -0.037,0.136 l 2.85,4.937 c 0.028,0.048 0.089,0.064 0.137,0.036 l 2.511,-1.45 c 0.087,-0.05 -0.05,-0.086 0,0 l 3.05,5.283 c 0.05,0.087 0.087,-0.05 0,0 l -2.511,1.45 c -0.048,0.028 -0.064,0.089 -0.037,0.137 l 2.85,4.936 c 0.028,0.048 0.089,0.064 0.137,0.037 l 2.511,-1.45 c 0.087,-0.05 -0.05,-0.087 0,0 l 3.05,5.282 c 0.05,0.087 0.087,-0.05 0,0 l -2.511,1.45 c -0.048,0.028 -0.064,0.089 -0.037,0.137 l 2.85,4.936 c 0.028,0.048 0.089,0.065 0.137,0.037 l 2.511,-1.45 c 0.087,-0.05 -0.05,-0.087 0,0 l 3.05,5.283 c 0.05,0.086 0.087,-0.05 0,0 l -2.511,1.45 c -0.048,0.027 -0.064,0.088 -0.037,0.136 l 2.85,4.937 c 0.028,0.047 0.089,0.064 0.137,0.036 l 2.511,-1.45 c 0.087,-0.05 -0.05,-0.086 0,0 l 3.05,5.283 c 0.05,0.087 0.087,-0.05 0,0 l -2.511,1.45 c -0.048,0.028 -0.064,0.089 -0.037,0.137 l 2.85,4.936 c 0.028,0.048 0.089,0.064 0.137,0.037 l 2.511,-1.45 c 0.087,-0.05 -0.05,-0.087 0,0 l 3.05,5.282 c 0.05,0.087 0.087,-0.05 0,0 l -2.511,1.45 c -0.048,0.028 -0.064,0.089 -0.037,0.137 l 2.85,4.936 c 0.028,0.048 0.089,0.064 0.137,0.037 l 2.511,-1.45 c 0.087,-0.05 -0.05,-0.087 0,0 l 3.05,5.283 c 0.05,0.086 0.087,-0.05 0,0 l -2.511,1.45 c -0.048,0.027 -0.064,0.088 -0.037,0.136 l 2.85,4.937 c 0.028,0.047 0.089,0.064 0.137,0.036 l 2.511,-1.45 c 0.087,-0.05 -0.05,-0.086 0,0 l 3.05,5.283 c 0.05,0.086 0.087,-0.05 0,0 l -2.511,1.45 c -0.048,0.027 -0.064,0.089 -0.037,0.136 l 2.85,4.937 c 0.028,0.048 0.089,0.064 0.137,0.036 l 2.511,-1.45 c 0.087,-0.05 -0.05,-0.086 0,0 l 3.05,5.283 c 0.05,0.087 0.087,-0.05 0,0 l -2.511,1.45 c -0.048,0.028 -0.064,0.089 -0.037,0.137 l 2.85,4.936 c 0.028,0.048 0.089,0.064 0.137,0.037 l 2.511,-1.45 c 0.087,-0.05 -0.05,-0.087 0,0 l 3.05,5.282 c 0.05,0.087 0.087,-0.05 0,0 l -2.511,1.45 c -0.048,0.028 -0.064,0.089 -0.037,0.137 l 2.809,4.865 0.866,1.5 c 0.018,0.031 0.051,0.05 0.087,0.05 z"
       stroke="#000000"
       stroke-width="0.2"
       id="path1147"
       sodipodi:nodetypes="csssssssssssssssssssssssssssssssssssssssssssssssssssssssssssssssssssssssssssssssssssssssssssssssssssssssscsccccccccccccccccccccccccccccccccccccccccccccccccccccccccccccccccccccccccccccccccccccccccccccccccccccccccccccccccccccccccccccccccccccccccccccccccccccccccccccccccccccccccccccccccccccccccccccccccccccccccccccccccccccccccscsssssssssssssssssssssssssssssssssssssssssssssssssssssssssssssssssssssssssssssssssssssssssssssssssssssssscsccccccccccccccccccccccccccccccccccccccccccccccccccccccccccccccccccccccccccccccccccccccccccccccccccccccccccccccccccccccccccccccccccccccccccccccccccccccccccccccccccccccccccccccccccccccccccccccccccccccccccccccccccccccccsc"
       style="fill:#ffffff;fill-opacity:1;stroke:#ff0707;stroke-opacity:1" />
    <path
       sodipodi:type="star"
       style="fill:#ffffff;stroke:#ff0505;stroke-width:0.269999;stroke-opacity:1"
       id="path24888"
       inkscape:flatsided="true"
       sodipodi:sides="6"
       sodipodi:cx="719.27356"
       sodipodi:cy="677.62299"
       sodipodi:r1="564.10553"
       sodipodi:r2="488.52972"
       sodipodi:arg1="1.0474234"
       sodipodi:arg2="1.5710222"
       inkscape:rounded="0"
       inkscape:randomized="0"
       d="m 1001.216,1166.2164 -564.10553,-0.1274 -281.94243,-488.59342 282.1631,-488.466 564.10556,0.1274 281.9424,488.59341 z"
       transform="matrix(0.26458333,0,0,0.26458333,317.11894,15.088137)"
       inkscape:transform-center-x="2.3975786e-06"
       inkscape:transform-center-y="-2.2587433e-06" />
  </g>
</svg>
