<?xml version="1.0" encoding="UTF-8" standalone="no"?>
<svg
   width="202.20mm"
   height="303.90mm"
   viewBox="0.0 0.0 202.20 303.90"
   version="1.1"
   id="svg1279"
   sodipodi:docname="ElectronicsBox_11x7x5_orig.svg"
   inkscape:version="1.2.2 (b0a84865, 2022-12-01)"
   xmlns:inkscape="http://www.inkscape.org/namespaces/inkscape"
   xmlns:sodipodi="http://sodipodi.sourceforge.net/DTD/sodipodi-0.dtd"
   xmlns="http://www.w3.org/2000/svg"
   xmlns:svg="http://www.w3.org/2000/svg"
   xmlns:rdf="http://www.w3.org/1999/02/22-rdf-syntax-ns#"
   xmlns:cc="http://creativecommons.org/ns#"
   xmlns:dc="http://purl.org/dc/elements/1.1/">
  <defs
     id="defs1283" />
  <sodipodi:namedview
     id="namedview1281"
     pagecolor="#ffffff"
     bordercolor="#666666"
     borderopacity="1.0"
     inkscape:showpageshadow="2"
     inkscape:pageopacity="0.0"
     inkscape:pagecheckerboard="0"
     inkscape:deskcolor="#d1d1d1"
     inkscape:document-units="mm"
     showgrid="false"
     inkscape:zoom="0.46171933"
     inkscape:cx="865.24426"
     inkscape:cy="344.36505"
     inkscape:window-width="1680"
     inkscape:window-height="928"
     inkscape:window-x="0"
     inkscape:window-y="25"
     inkscape:window-maximized="1"
     inkscape:current-layer="svg1279" />
  <!--
ElectronicsBox - Closed box with screw on top and mounting holes

Created with Boxes.py (https://festi.info/boxes.py)
Creation date: 2022-12-16 17:25:56
Command line (remove spaces between dashes): boxes ElectronicsBox - -FingerJoint_angle=90.0 - -FingerJoint_style=rectangular - -FingerJoint_surroundingspaces=2.0 - -FingerJoint_edge_width=1.0 - -FingerJoint_extra_length=0.0 - -FingerJoint_finger=2.0 - -FingerJoint_play=0.1 - -FingerJoint_space=2.0 - -FingerJoint_width=1.0 - -x=110 - -y=70 - -h=50 - -outside=0 - -outside=1 - -triangle=25.0 - -d1=2.0 - -d2=3.0 - -d3=3.0 - -outsidemounts=0 - -outsidemounts=1 - -holedist=7.0 - -thickness=3.0 - -format=svg - -tabs=0.0 - -debug=0 - -labels=0 - -labels=1 - -reference=100 - -inner_corners=loop - -burn=0.1
Url: http://localhost:8000/ElectronicsBox?FingerJoint_angle=90.0&FingerJoint_style=rectangular&FingerJoint_surroundingspaces=2.0&FingerJoint_edge_width=1.0&FingerJoint_extra_length=0.0&FingerJoint_finger=2.0&FingerJoint_play=0.1&FingerJoint_space=2.0&FingerJoint_width=1.0&x=110&y=70&h=50&outside=0&outside=1&triangle=25.0&d1=2.0&d2=3.0&d3=3.0&outsidemounts=0&outsidemounts=1&holedist=7.0&thickness=3.0&format=svg&tabs=0.0&debug=0&labels=0&labels=1&reference=100&inner_corners=loop&burn=0.1&render=1
SettingsUrl: http://localhost:8000/ElectronicsBox?FingerJoint_angle=90.0&FingerJoint_style=rectangular&FingerJoint_surroundingspaces=2.0&FingerJoint_edge_width=1.0&FingerJoint_extra_length=0.0&FingerJoint_finger=2.0&FingerJoint_play=0.1&FingerJoint_space=2.0&FingerJoint_width=1.0&x=110&y=70&h=50&outside=0&outside=1&triangle=25.0&d1=2.0&d2=3.0&d3=3.0&outsidemounts=0&outsidemounts=1&holedist=7.0&thickness=3.0&format=svg&tabs=0.0&debug=0&labels=0&labels=1&reference=100&inner_corners=loop&burn=0.1
-->
  <title
     id="title1175">ElectronicsBox</title>
  <metadata
     id="metadata1177">
    <rdf:RDF>
      <cc:Work>
        <dc:title>Box - ElectronicsBox</dc:title>
        <dc:date>2022-12-16 17:25:56</dc:date>
        <dc:source>http://localhost:8000/ElectronicsBox?FingerJoint_angle=90.0&amp;FingerJoint_style=rectangular&amp;FingerJoint_surroundingspaces=2.0&amp;FingerJoint_edge_width=1.0&amp;FingerJoint_extra_length=0.0&amp;FingerJoint_finger=2.0&amp;FingerJoint_play=0.1&amp;FingerJoint_space=2.0&amp;FingerJoint_width=1.0&amp;x=110&amp;y=70&amp;h=50&amp;outside=0&amp;outside=1&amp;triangle=25.0&amp;d1=2.0&amp;d2=3.0&amp;d3=3.0&amp;outsidemounts=0&amp;outsidemounts=1&amp;holedist=7.0&amp;thickness=3.0&amp;format=svg&amp;tabs=0.0&amp;debug=0&amp;labels=0&amp;labels=1&amp;reference=100&amp;inner_corners=loop&amp;burn=0.1&amp;render=1</dc:source>
        <dc:description>Closed box with screw on top and mounting holes

Created with Boxes.py (https://festi.info/boxes.py)
Command line: boxes ElectronicsBox --FingerJoint_angle=90.0 --FingerJoint_style=rectangular --FingerJoint_surroundingspaces=2.0 --FingerJoint_edge_width=1.0 --FingerJoint_extra_length=0.0 --FingerJoint_finger=2.0 --FingerJoint_play=0.1 --FingerJoint_space=2.0 --FingerJoint_width=1.0 --x=110 --y=70 --h=50 --outside=0 --outside=1 --triangle=25.0 --d1=2.0 --d2=3.0 --d3=3.0 --outsidemounts=0 --outsidemounts=1 --holedist=7.0 --thickness=3.0 --format=svg --tabs=0.0 --debug=0 --labels=0 --labels=1 --reference=100 --inner_corners=loop --burn=0.1
Url: http://localhost:8000/ElectronicsBox?FingerJoint_angle=90.0&amp;FingerJoint_style=rectangular&amp;FingerJoint_surroundingspaces=2.0&amp;FingerJoint_edge_width=1.0&amp;FingerJoint_extra_length=0.0&amp;FingerJoint_finger=2.0&amp;FingerJoint_play=0.1&amp;FingerJoint_space=2.0&amp;FingerJoint_width=1.0&amp;x=110&amp;y=70&amp;h=50&amp;outside=0&amp;outside=1&amp;triangle=25.0&amp;d1=2.0&amp;d2=3.0&amp;d3=3.0&amp;outsidemounts=0&amp;outsidemounts=1&amp;holedist=7.0&amp;thickness=3.0&amp;format=svg&amp;tabs=0.0&amp;debug=0&amp;labels=0&amp;labels=1&amp;reference=100&amp;inner_corners=loop&amp;burn=0.1&amp;render=1
SettingsUrl: http://localhost:8000/ElectronicsBox?FingerJoint_angle=90.0&amp;FingerJoint_style=rectangular&amp;FingerJoint_surroundingspaces=2.0&amp;FingerJoint_edge_width=1.0&amp;FingerJoint_extra_length=0.0&amp;FingerJoint_finger=2.0&amp;FingerJoint_play=0.1&amp;FingerJoint_space=2.0&amp;FingerJoint_width=1.0&amp;x=110&amp;y=70&amp;h=50&amp;outside=0&amp;outside=1&amp;triangle=25.0&amp;d1=2.0&amp;d2=3.0&amp;d3=3.0&amp;outsidemounts=0&amp;outsidemounts=1&amp;holedist=7.0&amp;thickness=3.0&amp;format=svg&amp;tabs=0.0&amp;debug=0&amp;labels=0&amp;labels=1&amp;reference=100&amp;inner_corners=loop&amp;burn=0.1
</dc:description>
      </cc:Work>
    </rdf:RDF>
  </metadata>
  <g
     id="p-1"
     style="fill:none;stroke-linecap:round;stroke-linejoin:round;">
    <path
       d="M 25.900 238.150 H 22.850 C 22.750 238.150 22.850 238.250 22.850 238.150 V 235.050 C 22.850 234.950 22.750 235.050 22.850 235.050 H 28.950 C 29.050 235.050 28.950 234.950 28.950 235.050 V 238.150 C 28.950 238.250 29.050 238.150 28.950 238.150 H 25.900 Z"
       stroke="rgb(0,0,255)"
       stroke-width="0.20"
       id="path1184" />
    <path
       d="M 104.900 235.050 H 107.950 C 108.050 235.050 107.950 234.950 107.950 235.050 V 238.150 C 107.950 238.250 108.050 238.150 107.950 238.150 H 101.850 C 101.750 238.150 101.850 238.250 101.850 238.150 V 235.050 C 101.850 234.950 101.750 235.050 101.850 235.050 H 104.900 Z"
       stroke="rgb(0,0,255)"
       stroke-width="0.20"
       id="path1186" />
    <path
       d="M 13.400 279.200 H 20.300 C 20.400 279.200 20.300 279.100 20.300 279.200 V 282.100 C 20.300 282.155 20.345 282.200 20.400 282.200 H 26.400 C 26.455 282.200 26.500 282.155 26.500 282.100 V 279.200 C 26.500 279.100 26.400 279.200 26.500 279.200 H 32.300 C 32.400 279.200 32.300 279.100 32.300 279.200 V 282.100 C 32.300 282.155 32.345 282.200 32.400 282.200 H 38.400 C 38.455 282.200 38.500 282.155 38.500 282.100 V 279.200 C 38.500 279.100 38.400 279.200 38.500 279.200 H 44.300 C 44.400 279.200 44.300 279.100 44.300 279.200 V 282.100 C 44.300 282.155 44.345 282.200 44.400 282.200 H 50.400 C 50.455 282.200 50.500 282.155 50.500 282.100 V 279.200 C 50.500 279.100 50.400 279.200 50.500 279.200 H 56.300 C 56.400 279.200 56.300 279.100 56.300 279.200 V 282.100 C 56.300 282.155 56.345 282.200 56.400 282.200 H 62.400 C 62.455 282.200 62.500 282.155 62.500 282.100 V 279.200 C 62.500 279.100 62.400 279.200 62.500 279.200 H 68.300 C 68.400 279.200 68.300 279.100 68.300 279.200 V 282.100 C 68.300 282.155 68.345 282.200 68.400 282.200 H 74.400 C 74.455 282.200 74.500 282.155 74.500 282.100 V 279.200 C 74.500 279.100 74.400 279.200 74.500 279.200 H 80.300 C 80.400 279.200 80.300 279.100 80.300 279.200 V 282.100 C 80.300 282.155 80.345 282.200 80.400 282.200 H 86.400 C 86.455 282.200 86.500 282.155 86.500 282.100 V 279.200 C 86.500 279.100 86.400 279.200 86.500 279.200 H 92.300 C 92.400 279.200 92.300 279.100 92.300 279.200 V 282.100 C 92.300 282.155 92.345 282.200 92.400 282.200 H 98.400 C 98.455 282.200 98.500 282.155 98.500 282.100 V 279.200 C 98.500 279.100 98.400 279.200 98.500 279.200 H 104.300 C 104.400 279.200 104.300 279.100 104.300 279.200 V 282.100 C 104.300 282.155 104.345 282.200 104.400 282.200 H 110.400 C 110.455 282.200 110.500 282.155 110.500 282.100 V 279.200 C 110.500 279.100 110.400 279.200 110.500 279.200 H 117.400 H 120.400 C 120.455 279.200 120.500 279.155 120.500 279.100 V 270.750 C 120.500 270.695 120.455 270.650 120.400 270.650 H 117.500 C 117.400 270.650 117.500 270.750 117.500 270.650 V 264.550 C 117.500 264.450 117.400 264.550 117.500 264.550 H 120.400 C 120.455 264.550 120.500 264.505 120.500 264.450 V 258.750 C 120.500 258.695 120.455 258.650 120.400 258.650 H 117.500 C 117.400 258.650 117.500 258.750 117.500 258.650 V 252.550 C 117.500 252.450 117.400 252.550 117.500 252.550 H 120.400 C 120.455 252.550 120.500 252.505 120.500 252.450 V 246.750 C 120.500 246.695 120.455 246.650 120.400 246.650 H 117.500 C 117.400 246.650 117.500 246.750 117.500 246.650 V 240.550 C 117.500 240.450 117.400 240.550 117.500 240.550 H 120.400 C 120.455 240.550 120.500 240.505 120.500 240.450 V 232.100 C 120.500 232.045 120.455 232.000 120.400 232.000 H 117.400 H 13.400 H 10.400 C 10.345 232.000 10.300 232.045 10.300 232.100 V 240.450 C 10.300 240.505 10.345 240.550 10.400 240.550 H 13.300 C 13.400 240.550 13.300 240.450 13.300 240.550 V 246.650 C 13.300 246.750 13.400 246.650 13.300 246.650 H 10.400 C 10.345 246.650 10.300 246.695 10.300 246.750 V 252.450 C 10.300 252.505 10.345 252.550 10.400 252.550 H 13.300 C 13.400 252.550 13.300 252.450 13.300 252.550 V 258.650 C 13.300 258.750 13.400 258.650 13.300 258.650 H 10.400 C 10.345 258.650 10.300 258.695 10.300 258.750 V 264.450 C 10.300 264.505 10.345 264.550 10.400 264.550 H 13.300 C 13.400 264.550 13.300 264.450 13.300 264.550 V 270.650 C 13.300 270.750 13.400 270.650 13.300 270.650 H 10.400 C 10.345 270.650 10.300 270.695 10.300 270.750 V 279.100 C 10.300 279.155 10.345 279.200 10.400 279.200 H 13.400"
       stroke="rgb(0,0,0)"
       stroke-width="0.20"
       id="path1190" />
  </g>
  <g
     id="p-2"
     style="fill:none;stroke-linecap:round;stroke-linejoin:round;">
    <path
       d="M 137.600 238.150 H 134.550 C 134.450 238.150 134.550 238.250 134.550 238.150 V 235.050 C 134.550 234.950 134.450 235.050 134.550 235.050 H 140.650 C 140.750 235.050 140.650 234.950 140.650 235.050 V 238.150 C 140.650 238.250 140.750 238.150 140.650 238.150 H 137.600 Z"
       stroke="rgb(0,0,255)"
       stroke-width="0.20"
       id="path1193" />
    <path
       d="M 176.600 235.050 H 179.650 C 179.750 235.050 179.650 234.950 179.650 235.050 V 238.150 C 179.650 238.250 179.750 238.150 179.650 238.150 H 173.550 C 173.450 238.150 173.550 238.250 173.550 238.150 V 235.050 C 173.550 234.950 173.450 235.050 173.550 235.050 H 176.600 Z"
       stroke="rgb(0,0,255)"
       stroke-width="0.20"
       id="path1195" />
    <path
       d="M 125.100 279.200 H 136.000 C 136.100 279.200 136.000 279.100 136.000 279.200 V 282.100 C 136.000 282.155 136.045 282.200 136.100 282.200 H 142.100 C 142.155 282.200 142.200 282.155 142.200 282.100 V 279.200 C 142.200 279.100 142.100 279.200 142.200 279.200 H 148.000 C 148.100 279.200 148.000 279.100 148.000 279.200 V 282.100 C 148.000 282.155 148.045 282.200 148.100 282.200 H 154.100 C 154.155 282.200 154.200 282.155 154.200 282.100 V 279.200 C 154.200 279.100 154.100 279.200 154.200 279.200 H 160.000 C 160.100 279.200 160.000 279.100 160.000 279.200 V 282.100 C 160.000 282.155 160.045 282.200 160.100 282.200 H 166.100 C 166.155 282.200 166.200 282.155 166.200 282.100 V 279.200 C 166.200 279.100 166.100 279.200 166.200 279.200 H 172.000 C 172.100 279.200 172.000 279.100 172.000 279.200 V 282.100 C 172.000 282.155 172.045 282.200 172.100 282.200 H 178.100 C 178.155 282.200 178.200 282.155 178.200 282.100 V 279.200 C 178.200 279.100 178.100 279.200 178.200 279.200 H 189.100 C 189.155 279.200 189.200 279.155 189.200 279.100 V 270.700 C 189.200 270.600 189.100 270.700 189.200 270.700 H 192.100 C 192.155 270.700 192.200 270.655 192.200 270.600 V 264.600 C 192.200 264.545 192.155 264.500 192.100 264.500 H 189.200 C 189.100 264.500 189.200 264.600 189.200 264.500 V 258.700 C 189.200 258.600 189.100 258.700 189.200 258.700 H 192.100 C 192.155 258.700 192.200 258.655 192.200 258.600 V 252.600 C 192.200 252.545 192.155 252.500 192.100 252.500 H 189.200 C 189.100 252.500 189.200 252.600 189.200 252.500 V 246.700 C 189.200 246.600 189.100 246.700 189.200 246.700 H 192.100 C 192.155 246.700 192.200 246.655 192.200 246.600 V 240.600 C 192.200 240.545 192.155 240.500 192.100 240.500 H 189.200 C 189.100 240.500 189.200 240.600 189.200 240.500 V 232.100 C 189.200 232.045 189.155 232.000 189.100 232.000 H 125.100 C 125.045 232.000 125.000 232.045 125.000 232.100 V 240.500 C 125.000 240.600 125.100 240.500 125.000 240.500 H 122.100 C 122.045 240.500 122.000 240.545 122.000 240.600 V 246.600 C 122.000 246.655 122.045 246.700 122.100 246.700 H 125.000 C 125.100 246.700 125.000 246.600 125.000 246.700 V 252.500 C 125.000 252.600 125.100 252.500 125.000 252.500 H 122.100 C 122.045 252.500 122.000 252.545 122.000 252.600 V 258.600 C 122.000 258.655 122.045 258.700 122.100 258.700 H 125.000 C 125.100 258.700 125.000 258.600 125.000 258.700 V 264.500 C 125.000 264.600 125.100 264.500 125.000 264.500 H 122.100 C 122.045 264.500 122.000 264.545 122.000 264.600 V 270.600 C 122.000 270.655 122.045 270.700 122.100 270.700 H 125.000 C 125.100 270.700 125.000 270.600 125.000 270.700 V 279.100 C 125.000 279.155 125.045 279.200 125.100 279.200"
       stroke="rgb(0,0,0)"
       stroke-width="0.20"
       id="path1199" />
  </g>
  <g
     id="p-3"
     style="fill:none;stroke-linecap:round;stroke-linejoin:round;">
    <path
       d="M 137.600 186.450 H 134.550 C 134.450 186.450 134.550 186.550 134.550 186.450 V 183.350 C 134.550 183.250 134.450 183.350 134.550 183.350 H 140.650 C 140.750 183.350 140.650 183.250 140.650 183.350 V 186.450 C 140.650 186.550 140.750 186.450 140.650 186.450 H 137.600 Z"
       stroke="rgb(0,0,255)"
       stroke-width="0.20"
       id="path1202" />
    <path
       d="M 176.600 183.350 H 179.650 C 179.750 183.350 179.650 183.250 179.650 183.350 V 186.450 C 179.650 186.550 179.750 186.450 179.650 186.450 H 173.550 C 173.450 186.450 173.550 186.550 173.550 186.450 V 183.350 C 173.550 183.250 173.450 183.350 173.550 183.350 H 176.600 Z"
       stroke="rgb(0,0,255)"
       stroke-width="0.20"
       id="path1204" />
    <path
       d="M 125.100 227.500 H 136.000 C 136.100 227.500 136.000 227.400 136.000 227.500 V 230.400 C 136.000 230.455 136.045 230.500 136.100 230.500 H 142.100 C 142.155 230.500 142.200 230.455 142.200 230.400 V 227.500 C 142.200 227.400 142.100 227.500 142.200 227.500 H 148.000 C 148.100 227.500 148.000 227.400 148.000 227.500 V 230.400 C 148.000 230.455 148.045 230.500 148.100 230.500 H 154.100 C 154.155 230.500 154.200 230.455 154.200 230.400 V 227.500 C 154.200 227.400 154.100 227.500 154.200 227.500 H 160.000 C 160.100 227.500 160.000 227.400 160.000 227.500 V 230.400 C 160.000 230.455 160.045 230.500 160.100 230.500 H 166.100 C 166.155 230.500 166.200 230.455 166.200 230.400 V 227.500 C 166.200 227.400 166.100 227.500 166.200 227.500 H 172.000 C 172.100 227.500 172.000 227.400 172.000 227.500 V 230.400 C 172.000 230.455 172.045 230.500 172.100 230.500 H 178.100 C 178.155 230.500 178.200 230.455 178.200 230.400 V 227.500 C 178.200 227.400 178.100 227.500 178.200 227.500 H 189.100 C 189.155 227.500 189.200 227.455 189.200 227.400 V 219.000 C 189.200 218.900 189.100 219.000 189.200 219.000 H 192.100 C 192.155 219.000 192.200 218.955 192.200 218.900 V 212.900 C 192.200 212.845 192.155 212.800 192.100 212.800 H 189.200 C 189.100 212.800 189.200 212.900 189.200 212.800 V 207.000 C 189.200 206.900 189.100 207.000 189.200 207.000 H 192.100 C 192.155 207.000 192.200 206.955 192.200 206.900 V 200.900 C 192.200 200.845 192.155 200.800 192.100 200.800 H 189.200 C 189.100 200.800 189.200 200.900 189.200 200.800 V 195.000 C 189.200 194.900 189.100 195.000 189.200 195.000 H 192.100 C 192.155 195.000 192.200 194.955 192.200 194.900 V 188.900 C 192.200 188.845 192.155 188.800 192.100 188.800 H 189.200 C 189.100 188.800 189.200 188.900 189.200 188.800 V 180.400 C 189.200 180.345 189.155 180.300 189.100 180.300 H 125.100 C 125.045 180.300 125.000 180.345 125.000 180.400 V 188.800 C 125.000 188.900 125.100 188.800 125.000 188.800 H 122.100 C 122.045 188.800 122.000 188.845 122.000 188.900 V 194.900 C 122.000 194.955 122.045 195.000 122.100 195.000 H 125.000 C 125.100 195.000 125.000 194.900 125.000 195.000 V 200.800 C 125.000 200.900 125.100 200.800 125.000 200.800 H 122.100 C 122.045 200.800 122.000 200.845 122.000 200.900 V 206.900 C 122.000 206.955 122.045 207.000 122.100 207.000 H 125.000 C 125.100 207.000 125.000 206.900 125.000 207.000 V 212.800 C 125.000 212.900 125.100 212.800 125.000 212.800 H 122.100 C 122.045 212.800 122.000 212.845 122.000 212.900 V 218.900 C 122.000 218.955 122.045 219.000 122.100 219.000 H 125.000 C 125.100 219.000 125.000 218.900 125.000 219.000 V 227.400 C 125.000 227.455 125.045 227.500 125.100 227.500"
       stroke="rgb(0,0,0)"
       stroke-width="0.20"
       id="path1208" />
  </g>
  <g
     id="p-4"
     style="fill:none;stroke-linecap:round;stroke-linejoin:round;">
    <path
       d="M 25.900 186.450 H 22.850 C 22.750 186.450 22.850 186.550 22.850 186.450 V 183.350 C 22.850 183.250 22.750 183.350 22.850 183.350 H 28.950 C 29.050 183.350 28.950 183.250 28.950 183.350 V 186.450 C 28.950 186.550 29.050 186.450 28.950 186.450 H 25.900 Z"
       stroke="rgb(0,0,255)"
       stroke-width="0.20"
       id="path1211" />
    <path
       d="M 104.900 183.350 H 107.950 C 108.050 183.350 107.950 183.250 107.950 183.350 V 186.450 C 107.950 186.550 108.050 186.450 107.950 186.450 H 101.850 C 101.750 186.450 101.850 186.550 101.850 186.450 V 183.350 C 101.850 183.250 101.750 183.350 101.850 183.350 H 104.900 Z"
       stroke="rgb(0,0,255)"
       stroke-width="0.20"
       id="path1213" />
    <path
       d="M 13.400 227.500 H 20.300 C 20.400 227.500 20.300 227.400 20.300 227.500 V 230.400 C 20.300 230.455 20.345 230.500 20.400 230.500 H 26.400 C 26.455 230.500 26.500 230.455 26.500 230.400 V 227.500 C 26.500 227.400 26.400 227.500 26.500 227.500 H 32.300 C 32.400 227.500 32.300 227.400 32.300 227.500 V 230.400 C 32.300 230.455 32.345 230.500 32.400 230.500 H 38.400 C 38.455 230.500 38.500 230.455 38.500 230.400 V 227.500 C 38.500 227.400 38.400 227.500 38.500 227.500 H 44.300 C 44.400 227.500 44.300 227.400 44.300 227.500 V 230.400 C 44.300 230.455 44.345 230.500 44.400 230.500 H 50.400 C 50.455 230.500 50.500 230.455 50.500 230.400 V 227.500 C 50.500 227.400 50.400 227.500 50.500 227.500 H 56.300 C 56.400 227.500 56.300 227.400 56.300 227.500 V 230.400 C 56.300 230.455 56.345 230.500 56.400 230.500 H 62.400 C 62.455 230.500 62.500 230.455 62.500 230.400 V 227.500 C 62.500 227.400 62.400 227.500 62.500 227.500 H 68.300 C 68.400 227.500 68.300 227.400 68.300 227.500 V 230.400 C 68.300 230.455 68.345 230.500 68.400 230.500 H 74.400 C 74.455 230.500 74.500 230.455 74.500 230.400 V 227.500 C 74.500 227.400 74.400 227.500 74.500 227.500 H 80.300 C 80.400 227.500 80.300 227.400 80.300 227.500 V 230.400 C 80.300 230.455 80.345 230.500 80.400 230.500 H 86.400 C 86.455 230.500 86.500 230.455 86.500 230.400 V 227.500 C 86.500 227.400 86.400 227.500 86.500 227.500 H 92.300 C 92.400 227.500 92.300 227.400 92.300 227.500 V 230.400 C 92.300 230.455 92.345 230.500 92.400 230.500 H 98.400 C 98.455 230.500 98.500 230.455 98.500 230.400 V 227.500 C 98.500 227.400 98.400 227.500 98.500 227.500 H 104.300 C 104.400 227.500 104.300 227.400 104.300 227.500 V 230.400 C 104.300 230.455 104.345 230.500 104.400 230.500 H 110.400 C 110.455 230.500 110.500 230.455 110.500 230.400 V 227.500 C 110.500 227.400 110.400 227.500 110.500 227.500 H 117.400 H 120.400 C 120.455 227.500 120.500 227.455 120.500 227.400 V 219.050 C 120.500 218.995 120.455 218.950 120.400 218.950 H 117.500 C 117.400 218.950 117.500 219.050 117.500 218.950 V 212.850 C 117.500 212.750 117.400 212.850 117.500 212.850 H 120.400 C 120.455 212.850 120.500 212.805 120.500 212.750 V 207.050 C 120.500 206.995 120.455 206.950 120.400 206.950 H 117.500 C 117.400 206.950 117.500 207.050 117.500 206.950 V 200.850 C 117.500 200.750 117.400 200.850 117.500 200.850 H 120.400 C 120.455 200.850 120.500 200.805 120.500 200.750 V 195.050 C 120.500 194.995 120.455 194.950 120.400 194.950 H 117.500 C 117.400 194.950 117.500 195.050 117.500 194.950 V 188.850 C 117.500 188.750 117.400 188.850 117.500 188.850 H 120.400 C 120.455 188.850 120.500 188.805 120.500 188.750 V 180.400 C 120.500 180.345 120.455 180.300 120.400 180.300 H 117.400 H 13.400 H 10.400 C 10.345 180.300 10.300 180.345 10.300 180.400 V 188.750 C 10.300 188.805 10.345 188.850 10.400 188.850 H 13.300 C 13.400 188.850 13.300 188.750 13.300 188.850 V 194.950 C 13.300 195.050 13.400 194.950 13.300 194.950 H 10.400 C 10.345 194.950 10.300 194.995 10.300 195.050 V 200.750 C 10.300 200.805 10.345 200.850 10.400 200.850 H 13.300 C 13.400 200.850 13.300 200.750 13.300 200.850 V 206.950 C 13.300 207.050 13.400 206.950 13.300 206.950 H 10.400 C 10.345 206.950 10.300 206.995 10.300 207.050 V 212.750 C 10.300 212.805 10.345 212.850 10.400 212.850 H 13.300 C 13.400 212.850 13.300 212.750 13.300 212.850 V 218.950 C 13.300 219.050 13.400 218.950 13.300 218.950 H 10.400 C 10.345 218.950 10.300 218.995 10.300 219.050 V 227.400 C 10.300 227.455 10.345 227.500 10.400 227.500 H 13.400"
       stroke="rgb(0,0,0)"
       stroke-width="0.20"
       id="path1217" />
  </g>
  <g
     id="p-5"
     style="fill:none;stroke-linecap:round;stroke-linejoin:round;">
    <path
       d="M 18.800 171.700 C 18.800 171.968 18.723 172.231 18.578 172.457 C 18.433 172.683 18.226 172.862 17.982 172.973 C 17.737 173.085 17.466 173.124 17.201 173.086 C 16.935 173.048 16.686 172.934 16.483 172.758 C 16.280 172.582 16.132 172.352 16.057 172.094 C 15.981 171.837 15.981 171.563 16.057 171.306 C 16.132 171.048 16.280 170.818 16.483 170.642 C 16.686 170.466 16.935 170.352 17.201 170.314 C 17.466 170.276 17.737 170.315 17.982 170.427 C 18.226 170.538 18.433 170.717 18.578 170.943 C 18.723 171.169 18.800 171.432 18.800 171.700 Z"
       stroke="rgb(0,0,255)"
       stroke-width="0.20"
       id="path1220" />
    <path
       d="M 17.400 178.800 H 27.400 H 34.250 C 34.305 178.800 34.350 178.755 34.350 178.700 V 175.800 C 34.350 175.700 34.250 175.800 34.350 175.800 H 40.450 C 40.550 175.800 40.450 175.700 40.450 175.800 V 178.700 C 40.450 178.755 40.495 178.800 40.550 178.800 H 46.250 C 46.305 178.800 46.350 178.755 46.350 178.700 V 175.800 C 46.350 175.700 46.250 175.800 46.350 175.800 H 52.450 C 52.550 175.800 52.450 175.700 52.450 175.800 V 178.700 C 52.450 178.755 52.495 178.800 52.550 178.800 H 58.250 C 58.305 178.800 58.350 178.755 58.350 178.700 V 175.800 C 58.350 175.700 58.250 175.800 58.350 175.800 H 64.450 C 64.550 175.800 64.450 175.700 64.450 175.800 V 178.700 C 64.450 178.755 64.495 178.800 64.550 178.800 H 70.250 C 70.305 178.800 70.350 178.755 70.350 178.700 V 175.800 C 70.350 175.700 70.250 175.800 70.350 175.800 H 76.450 C 76.550 175.800 76.450 175.700 76.450 175.800 V 178.700 C 76.450 178.755 76.495 178.800 76.550 178.800 H 82.250 C 82.305 178.800 82.350 178.755 82.350 178.700 V 175.800 C 82.350 175.700 82.250 175.800 82.350 175.800 H 88.450 C 88.550 175.800 88.450 175.700 88.450 175.800 V 178.700 C 88.450 178.755 88.495 178.800 88.550 178.800 H 94.250 C 94.305 178.800 94.350 178.755 94.350 178.700 V 175.800 C 94.350 175.700 94.250 175.800 94.350 175.800 H 100.450 C 100.550 175.800 100.450 175.700 100.450 175.800 V 178.700 C 100.450 178.755 100.495 178.800 100.550 178.800 H 106.250 C 106.305 178.800 106.350 178.755 106.350 178.700 V 175.800 C 106.350 175.700 106.250 175.800 106.350 175.800 H 112.450 C 112.550 175.800 112.450 175.700 112.450 175.800 V 178.700 C 112.450 178.755 112.495 178.800 112.550 178.800 H 118.250 C 118.305 178.800 118.350 178.755 118.350 178.700 V 175.800 C 118.350 175.700 118.250 175.800 118.350 175.800 H 124.450 C 124.550 175.800 124.450 175.700 124.450 175.800 V 178.700 C 124.450 178.755 124.495 178.800 124.550 178.800 H 131.400 H 141.400 C 142.646 178.800 143.871 178.472 144.950 177.849 C 146.029 177.226 146.926 176.329 147.549 175.250 C 148.172 174.171 148.500 172.946 148.500 171.700 V 115.700 C 148.500 114.454 148.172 113.229 147.549 112.150 C 146.926 111.071 146.029 110.174 144.950 109.551 C 143.871 108.928 142.646 108.600 141.400 108.600 H 131.400 H 124.550 C 124.495 108.600 124.450 108.645 124.450 108.700 V 111.600 C 124.450 111.700 124.550 111.600 124.450 111.600 H 118.350 C 118.250 111.600 118.350 111.700 118.350 111.600 V 108.700 C 118.350 108.645 118.305 108.600 118.250 108.600 H 112.550 C 112.495 108.600 112.450 108.645 112.450 108.700 V 111.600 C 112.450 111.700 112.550 111.600 112.450 111.600 H 106.350 C 106.250 111.600 106.350 111.700 106.350 111.600 V 108.700 C 106.350 108.645 106.305 108.600 106.250 108.600 H 100.550 C 100.495 108.600 100.450 108.645 100.450 108.700 V 111.600 C 100.450 111.700 100.550 111.600 100.450 111.600 H 94.350 C 94.250 111.600 94.350 111.700 94.350 111.600 V 108.700 C 94.350 108.645 94.305 108.600 94.250 108.600 H 88.550 C 88.495 108.600 88.450 108.645 88.450 108.700 V 111.600 C 88.450 111.700 88.550 111.600 88.450 111.600 H 82.350 C 82.250 111.600 82.350 111.700 82.350 111.600 V 108.700 C 82.350 108.645 82.305 108.600 82.250 108.600 H 76.550 C 76.495 108.600 76.450 108.645 76.450 108.700 V 111.600 C 76.450 111.700 76.550 111.600 76.450 111.600 H 70.350 C 70.250 111.600 70.350 111.700 70.350 111.600 V 108.700 C 70.350 108.645 70.305 108.600 70.250 108.600 H 64.550 C 64.495 108.600 64.450 108.645 64.450 108.700 V 111.600 C 64.450 111.700 64.550 111.600 64.450 111.600 H 58.350 C 58.250 111.600 58.350 111.700 58.350 111.600 V 108.700 C 58.350 108.645 58.305 108.600 58.250 108.600 H 52.550 C 52.495 108.600 52.450 108.645 52.450 108.700 V 111.600 C 52.450 111.700 52.550 111.600 52.450 111.600 H 46.350 C 46.250 111.600 46.350 111.700 46.350 111.600 V 108.700 C 46.350 108.645 46.305 108.600 46.250 108.600 H 40.550 C 40.495 108.600 40.450 108.645 40.450 108.700 V 111.600 C 40.450 111.700 40.550 111.600 40.450 111.600 H 34.350 C 34.250 111.600 34.350 111.700 34.350 111.600 V 108.700 C 34.350 108.645 34.305 108.600 34.250 108.600 H 27.400 H 17.400 C 16.154 108.600 14.929 108.928 13.850 109.551 C 12.771 110.174 11.874 111.071 11.251 112.150 C 10.628 113.229 10.300 114.454 10.300 115.700 V 171.700 C 10.300 172.946 10.628 174.171 11.251 175.250 C 11.874 176.329 12.771 177.226 13.850 177.849 C 14.929 178.472 16.154 178.800 17.400 178.800"
       stroke="rgb(0,0,0)"
       stroke-width="0.20"
       id="path1224" />
    <path
       d="M 141.400 170.300 C 141.668 170.300 141.931 170.377 142.157 170.522 C 142.383 170.667 142.562 170.874 142.673 171.118 C 142.785 171.363 142.824 171.634 142.786 171.899 C 142.748 172.165 142.634 172.414 142.458 172.617 C 142.282 172.820 142.052 172.968 141.794 173.043 C 141.537 173.119 141.263 173.119 141.006 173.043 C 140.748 172.968 140.518 172.820 140.342 172.617 C 140.166 172.414 140.052 172.165 140.014 171.899 C 139.976 171.634 140.015 171.363 140.127 171.118 C 140.238 170.874 140.417 170.667 140.643 170.522 C 140.869 170.377 141.132 170.300 141.400 170.300 Z"
       stroke="rgb(0,0,255)"
       stroke-width="0.20"
       id="path1226" />
    <path
       d="M 134.550 161.700 V 164.750 C 134.550 164.850 134.650 164.750 134.550 164.750 H 131.450 C 131.350 164.750 131.450 164.850 131.450 164.750 V 158.650 C 131.450 158.550 131.350 158.650 131.450 158.650 H 134.550 C 134.650 158.650 134.550 158.550 134.550 158.650 V 161.700 Z"
       stroke="rgb(0,0,255)"
       stroke-width="0.20"
       id="path1228" />
    <path
       d="M 134.550 149.700 V 152.750 C 134.550 152.850 134.650 152.750 134.550 152.750 H 131.450 C 131.350 152.750 131.450 152.850 131.450 152.750 V 146.650 C 131.450 146.550 131.350 146.650 131.450 146.650 H 134.550 C 134.650 146.650 134.550 146.550 134.550 146.650 V 149.700 Z"
       stroke="rgb(0,0,255)"
       stroke-width="0.20"
       id="path1230" />
    <path
       d="M 134.550 137.700 V 140.750 C 134.550 140.850 134.650 140.750 134.550 140.750 H 131.450 C 131.350 140.750 131.450 140.850 131.450 140.750 V 134.650 C 131.450 134.550 131.350 134.650 131.450 134.650 H 134.550 C 134.650 134.650 134.550 134.550 134.550 134.650 V 137.700 Z"
       stroke="rgb(0,0,255)"
       stroke-width="0.20"
       id="path1232" />
    <path
       d="M 134.550 125.700 V 128.750 C 134.550 128.850 134.650 128.750 134.550 128.750 H 131.450 C 131.350 128.750 131.450 128.850 131.450 128.750 V 122.650 C 131.450 122.550 131.350 122.650 131.450 122.650 H 134.550 C 134.650 122.650 134.550 122.550 134.550 122.650 V 125.700 Z"
       stroke="rgb(0,0,255)"
       stroke-width="0.20"
       id="path1234" />
    <path
       d="M 140.000 115.700 C 140.000 115.432 140.077 115.169 140.222 114.943 C 140.367 114.717 140.574 114.538 140.818 114.427 C 141.063 114.315 141.334 114.276 141.599 114.314 C 141.865 114.352 142.114 114.466 142.317 114.642 C 142.520 114.818 142.668 115.048 142.743 115.306 C 142.819 115.563 142.819 115.837 142.743 116.094 C 142.668 116.352 142.520 116.582 142.317 116.758 C 142.114 116.934 141.865 117.048 141.599 117.086 C 141.334 117.124 141.063 117.085 140.818 116.973 C 140.574 116.862 140.367 116.683 140.222 116.457 C 140.077 116.231 140.000 115.968 140.000 115.700 Z"
       stroke="rgb(0,0,255)"
       stroke-width="0.20"
       id="path1236" />
    <path
       d="M 17.400 117.100 C 17.132 117.100 16.869 117.023 16.643 116.878 C 16.417 116.733 16.238 116.526 16.127 116.282 C 16.015 116.037 15.976 115.766 16.014 115.501 C 16.052 115.235 16.166 114.986 16.342 114.783 C 16.518 114.580 16.748 114.432 17.006 114.357 C 17.263 114.281 17.537 114.281 17.794 114.357 C 18.052 114.432 18.282 114.580 18.458 114.783 C 18.634 114.986 18.748 115.235 18.786 115.501 C 18.824 115.766 18.785 116.037 18.673 116.282 C 18.562 116.526 18.383 116.733 18.157 116.878 C 17.931 117.023 17.668 117.100 17.400 117.100 Z"
       stroke="rgb(0,0,255)"
       stroke-width="0.20"
       id="path1238" />
    <path
       d="M 24.250 125.700 V 122.650 C 24.250 122.550 24.150 122.650 24.250 122.650 H 27.350 C 27.450 122.650 27.350 122.550 27.350 122.650 V 128.750 C 27.350 128.850 27.450 128.750 27.350 128.750 H 24.250 C 24.150 128.750 24.250 128.850 24.250 128.750 V 125.700 Z"
       stroke="rgb(0,0,255)"
       stroke-width="0.20"
       id="path1240" />
    <path
       d="M 24.250 137.700 V 134.650 C 24.250 134.550 24.150 134.650 24.250 134.650 H 27.350 C 27.450 134.650 27.350 134.550 27.350 134.650 V 140.750 C 27.350 140.850 27.450 140.750 27.350 140.750 H 24.250 C 24.150 140.750 24.250 140.850 24.250 140.750 V 137.700 Z"
       stroke="rgb(0,0,255)"
       stroke-width="0.20"
       id="path1242" />
    <path
       d="M 24.250 149.700 V 146.650 C 24.250 146.550 24.150 146.650 24.250 146.650 H 27.350 C 27.450 146.650 27.350 146.550 27.350 146.650 V 152.750 C 27.350 152.850 27.450 152.750 27.350 152.750 H 24.250 C 24.150 152.750 24.250 152.850 24.250 152.750 V 149.700 Z"
       stroke="rgb(0,0,255)"
       stroke-width="0.20"
       id="path1244" />
    <path
       d="M 24.250 161.700 V 158.650 C 24.250 158.550 24.150 158.650 24.250 158.650 H 27.350 C 27.450 158.650 27.350 158.550 27.350 158.650 V 164.750 C 27.350 164.850 27.450 164.750 27.350 164.750 H 24.250 C 24.150 164.750 24.250 164.850 24.250 164.750 V 161.700 Z"
       stroke="rgb(0,0,255)"
       stroke-width="0.20"
       id="path1246" />
  </g>
  <g
     id="p-6"
     style="fill:none;stroke-linecap:round;stroke-linejoin:round;">
    <path
       d="M 20.133 98.667 C 20.133 98.935 20.056 99.198 19.911 99.424 C 19.766 99.649 19.559 99.829 19.315 99.940 C 19.071 100.052 18.800 100.091 18.534 100.052 C 18.268 100.014 18.019 99.900 17.817 99.725 C 17.614 99.549 17.466 99.319 17.390 99.061 C 17.314 98.804 17.314 98.530 17.390 98.272 C 17.466 98.015 17.614 97.784 17.817 97.609 C 18.019 97.433 18.268 97.319 18.534 97.281 C 18.800 97.243 19.071 97.282 19.315 97.393 C 19.559 97.505 19.766 97.684 19.911 97.910 C 20.056 98.136 20.133 98.398 20.133 98.667 Z"
       stroke="rgb(0,0,255)"
       stroke-width="0.20"
       id="path1249" />
    <path
       d="M 10.400 107.100 H 114.400 C 114.455 107.100 114.500 107.055 114.500 107.000 V 43.000 C 114.500 42.945 114.455 42.900 114.400 42.900 H 10.400 C 10.345 42.900 10.300 42.945 10.300 43.000 V 107.000 C 10.300 107.055 10.345 107.100 10.400 107.100"
       stroke="rgb(0,0,0)"
       stroke-width="0.20"
       id="path1253" />
    <path
       d="M 106.067 97.267 C 106.335 97.267 106.598 97.344 106.824 97.489 C 107.049 97.634 107.229 97.841 107.340 98.085 C 107.452 98.329 107.491 98.600 107.452 98.866 C 107.414 99.132 107.300 99.381 107.125 99.583 C 106.949 99.786 106.719 99.934 106.461 100.010 C 106.204 100.086 105.930 100.086 105.672 100.010 C 105.415 99.934 105.184 99.786 105.009 99.583 C 104.833 99.381 104.719 99.132 104.681 98.866 C 104.643 98.600 104.682 98.329 104.793 98.085 C 104.905 97.841 105.084 97.634 105.310 97.489 C 105.536 97.344 105.798 97.267 106.067 97.267 Z"
       stroke="rgb(0,0,255)"
       stroke-width="0.20"
       id="path1255" />
    <path
       d="M 104.667 51.333 C 104.667 51.065 104.744 50.802 104.889 50.576 C 105.034 50.351 105.241 50.171 105.485 50.060 C 105.729 49.948 106.000 49.909 106.266 49.948 C 106.532 49.986 106.781 50.100 106.983 50.275 C 107.186 50.451 107.334 50.681 107.410 50.939 C 107.486 51.196 107.486 51.470 107.410 51.728 C 107.334 51.985 107.186 52.216 106.983 52.391 C 106.781 52.567 106.532 52.681 106.266 52.719 C 106.000 52.757 105.729 52.718 105.485 52.607 C 105.241 52.495 105.034 52.316 104.889 52.090 C 104.744 51.864 104.667 51.602 104.667 51.333 Z"
       stroke="rgb(0,0,255)"
       stroke-width="0.20"
       id="path1257" />
    <path
       d="M 18.733 52.733 C 18.465 52.733 18.202 52.656 17.976 52.511 C 17.751 52.366 17.571 52.159 17.460 51.915 C 17.348 51.671 17.309 51.400 17.348 51.134 C 17.386 50.868 17.500 50.619 17.675 50.417 C 17.851 50.214 18.081 50.066 18.339 49.990 C 18.596 49.914 18.870 49.914 19.128 49.990 C 19.385 50.066 19.616 50.214 19.791 50.417 C 19.967 50.619 20.081 50.868 20.119 51.134 C 20.157 51.400 20.118 51.671 20.007 51.915 C 19.895 52.159 19.716 52.366 19.490 52.511 C 19.264 52.656 19.002 52.733 18.733 52.733 Z"
       stroke="rgb(0,0,255)"
       stroke-width="0.20"
       id="path1259" />
  </g>
  <g
     id="p-7"
     style="fill:none;stroke-linecap:round;stroke-linejoin:round;">
    <path
       d="M 18.208 38.400 H 27.608 C 27.708 38.400 27.608 38.300 27.608 38.400 V 41.300 C 27.608 41.355 27.653 41.400 27.708 41.400 H 33.708 C 33.764 41.400 33.808 41.355 33.808 41.300 V 38.400 C 33.808 38.300 33.708 38.400 33.808 38.400 H 43.208 C 43.264 38.400 43.308 38.355 43.308 38.300 V 28.900 C 43.308 28.800 43.208 28.900 43.308 28.900 H 46.208 C 46.264 28.900 46.308 28.855 46.308 28.800 V 22.800 C 46.308 22.745 46.264 22.700 46.208 22.700 H 43.308 C 43.208 22.700 43.308 22.800 43.308 22.700 V 13.300 C 43.308 13.245 43.264 13.200 43.208 13.200 C 43.182 13.200 43.156 13.211 43.138 13.229 L 18.138 38.229 C 18.119 38.248 18.108 38.273 18.108 38.300 C 18.108 38.355 18.153 38.400 18.208 38.400 Z"
       stroke="rgb(0,0,0)"
       stroke-width="0.20"
       id="path1262" />
    <path
       d="M 34.875 29.067 C 35.048 29.067 35.216 29.116 35.362 29.210 C 35.507 29.303 35.622 29.436 35.694 29.593 C 35.765 29.750 35.790 29.924 35.766 30.095 C 35.741 30.266 35.668 30.426 35.555 30.556 C 35.442 30.686 35.294 30.782 35.129 30.830 C 34.963 30.879 34.787 30.879 34.621 30.830 C 34.456 30.782 34.308 30.686 34.195 30.556 C 34.082 30.426 34.009 30.266 33.984 30.095 C 33.960 29.924 33.985 29.750 34.056 29.593 C 34.128 29.436 34.243 29.303 34.388 29.210 C 34.534 29.116 34.702 29.067 34.875 29.067 Z"
       stroke="rgb(0,0,255)"
       stroke-width="0.20"
       id="path1264" />
    <path
       d="M 38.400 13.000 H 29.000 C 28.900 13.000 29.000 13.100 29.000 13.000 V 10.100 C 29.000 10.045 28.955 10.000 28.900 10.000 H 22.900 C 22.845 10.000 22.800 10.045 22.800 10.100 V 13.000 C 22.800 13.100 22.900 13.000 22.800 13.000 H 13.400 C 13.345 13.000 13.300 13.045 13.300 13.100 V 22.500 C 13.300 22.600 13.400 22.500 13.300 22.500 H 10.400 C 10.345 22.500 10.300 22.545 10.300 22.600 V 28.600 C 10.300 28.655 10.345 28.700 10.400 28.700 H 13.300 C 13.400 28.700 13.300 28.600 13.300 28.700 V 38.100 C 13.300 38.155 13.345 38.200 13.400 38.200 C 13.427 38.200 13.452 38.189 13.471 38.171 L 38.471 13.171 C 38.489 13.152 38.500 13.127 38.500 13.100 C 38.500 13.045 38.455 13.000 38.400 13.000 Z"
       stroke="rgb(0,0,0)"
       stroke-width="0.20"
       id="path1266" />
    <path
       d="M 21.733 22.333 C 21.561 22.333 21.392 22.284 21.247 22.190 C 21.102 22.097 20.986 21.964 20.915 21.807 C 20.843 21.650 20.818 21.476 20.842 21.305 C 20.867 21.134 20.940 20.974 21.053 20.844 C 21.166 20.714 21.314 20.618 21.480 20.570 C 21.645 20.521 21.821 20.521 21.987 20.570 C 22.152 20.618 22.301 20.714 22.414 20.844 C 22.526 20.974 22.600 21.134 22.624 21.305 C 22.649 21.476 22.624 21.650 22.552 21.807 C 22.480 21.964 22.365 22.097 22.220 22.190 C 22.075 22.284 21.906 22.333 21.733 22.333 Z"
       stroke="rgb(0,0,255)"
       stroke-width="0.20"
       id="path1268" />
    <path
       d="M 55.717 38.400 H 65.117 C 65.217 38.400 65.117 38.300 65.117 38.400 V 41.300 C 65.117 41.355 65.161 41.400 65.217 41.400 H 71.217 C 71.272 41.400 71.317 41.355 71.317 41.300 V 38.400 C 71.317 38.300 71.217 38.400 71.317 38.400 H 80.717 C 80.772 38.400 80.817 38.355 80.817 38.300 V 28.900 C 80.817 28.800 80.717 28.900 80.817 28.900 H 83.717 C 83.772 28.900 83.817 28.855 83.817 28.800 V 22.800 C 83.817 22.745 83.772 22.700 83.717 22.700 H 80.817 C 80.717 22.700 80.817 22.800 80.817 22.700 V 13.300 C 80.817 13.245 80.772 13.200 80.717 13.200 C 80.690 13.200 80.665 13.211 80.646 13.229 L 55.646 38.229 C 55.627 38.248 55.617 38.273 55.617 38.300 C 55.617 38.355 55.661 38.400 55.717 38.400 Z"
       stroke="rgb(0,0,0)"
       stroke-width="0.20"
       id="path1270" />
    <path
       d="M 72.383 29.067 C 72.556 29.067 72.725 29.116 72.870 29.210 C 73.015 29.303 73.130 29.436 73.202 29.593 C 73.274 29.750 73.299 29.924 73.274 30.095 C 73.250 30.266 73.176 30.426 73.063 30.556 C 72.951 30.686 72.802 30.782 72.637 30.830 C 72.471 30.879 72.295 30.879 72.130 30.830 C 71.964 30.782 71.816 30.686 71.703 30.556 C 71.590 30.426 71.517 30.266 71.492 30.095 C 71.468 29.924 71.493 29.750 71.565 29.593 C 71.636 29.436 71.752 29.303 71.897 29.210 C 72.042 29.116 72.211 29.067 72.383 29.067 Z"
       stroke="rgb(0,0,255)"
       stroke-width="0.20"
       id="path1272" />
    <path
       d="M 75.908 13.000 H 66.508 C 66.408 13.000 66.508 13.100 66.508 13.000 V 10.100 C 66.508 10.045 66.464 10.000 66.408 10.000 H 60.408 C 60.353 10.000 60.308 10.045 60.308 10.100 V 13.000 C 60.308 13.100 60.408 13.000 60.308 13.000 H 50.908 C 50.853 13.000 50.808 13.045 50.808 13.100 V 22.500 C 50.808 22.600 50.908 22.500 50.808 22.500 H 47.908 C 47.853 22.500 47.808 22.545 47.808 22.600 V 28.600 C 47.808 28.655 47.853 28.700 47.908 28.700 H 50.808 C 50.908 28.700 50.808 28.600 50.808 28.700 V 38.100 C 50.808 38.155 50.853 38.200 50.908 38.200 C 50.935 38.200 50.960 38.189 50.979 38.171 L 75.979 13.171 C 75.998 13.152 76.008 13.127 76.008 13.100 C 76.008 13.045 75.964 13.000 75.908 13.000 Z"
       stroke="rgb(0,0,0)"
       stroke-width="0.20"
       id="path1274" />
    <path
       d="M 59.242 22.333 C 59.069 22.333 58.900 22.284 58.755 22.190 C 58.610 22.097 58.495 21.964 58.423 21.807 C 58.351 21.650 58.326 21.476 58.351 21.305 C 58.375 21.134 58.448 20.974 58.561 20.844 C 58.674 20.714 58.823 20.618 58.988 20.570 C 59.154 20.521 59.330 20.521 59.495 20.570 C 59.661 20.618 59.809 20.714 59.922 20.844 C 60.035 20.974 60.108 21.134 60.132 21.305 C 60.157 21.476 60.132 21.650 60.060 21.807 C 59.989 21.964 59.873 22.097 59.728 22.190 C 59.583 22.284 59.414 22.333 59.242 22.333 Z"
       stroke="rgb(0,0,255)"
       stroke-width="0.20"
       id="path1276" />
  </g>
</svg>
