<?xml version="1.0" encoding="UTF-8" standalone="no"?>
<svg
   width="1019.00mm"
   height="359.39mm"
   viewBox="0.0 0.0 1019.00 359.39"
   version="1.1"
   id="svg1168"
   sodipodi:docname="hectagonum_side_single.svg"
   inkscape:version="1.2.2 (b0a84865, 2022-12-01)"
   xml:space="preserve"
   xmlns:inkscape="http://www.inkscape.org/namespaces/inkscape"
   xmlns:sodipodi="http://sodipodi.sourceforge.net/DTD/sodipodi-0.dtd"
   xmlns="http://www.w3.org/2000/svg"
   xmlns:svg="http://www.w3.org/2000/svg"
   xmlns:rdf="http://www.w3.org/1999/02/22-rdf-syntax-ns#"
   xmlns:cc="http://creativecommons.org/ns#"
   xmlns:dc="http://purl.org/dc/elements/1.1/"><defs
     id="defs1172" /><sodipodi:namedview
     id="namedview1170"
     pagecolor="#ffffff"
     bordercolor="#666666"
     borderopacity="1.0"
     inkscape:showpageshadow="2"
     inkscape:pageopacity="0.0"
     inkscape:pagecheckerboard="0"
     inkscape:deskcolor="#d1d1d1"
     inkscape:document-units="mm"
     showgrid="false"
     inkscape:zoom="0.44140498"
     inkscape:cx="1027.4012"
     inkscape:cy="346.62047"
     inkscape:window-width="1680"
     inkscape:window-height="928"
     inkscape:window-x="0"
     inkscape:window-y="25"
     inkscape:window-maximized="1"
     inkscape:current-layer="svg1168" /><!--
RegularBox - Box with regular polygon as base


For short side walls that don't fit a connecting finger reduce *surroundingspaces* and *finger* in the Finger Joint Settings.

The lids needs to be glued. For the bayonet lid all outside rings attach to the bottom, all inside rings to the top.



Created with Boxes.py (https://festi.info/boxes.py)
Creation date: 2022-12-16 15:41:29
Command line (remove spaces between dashes): boxes RegularBox - -FingerJoint_angle=90.0 - -FingerJoint_style=rectangular - -FingerJoint_surroundingspaces=1.0 - -FingerJoint_edge_width=1.0 - -FingerJoint_extra_length=0.0 - -FingerJoint_finger=2.0 - -FingerJoint_play=0.1 - -FingerJoint_space=2.0 - -FingerJoint_width=1.0 - -h=40 - -outside=0 - -outside=1 - -radius=165 - -n=6 '- -top=angled hole' - -alignment_pins=1.0 - -thickness=3.0 - -format=svg - -tabs=0.0 - -debug=0 - -labels=0 - -labels=1 - -reference=100 - -inner_corners=loop - -burn=0.1
Url: http://localhost:8000/RegularBox?FingerJoint_angle=90.0&FingerJoint_style=rectangular&FingerJoint_surroundingspaces=1.0&FingerJoint_edge_width=1.0&FingerJoint_extra_length=0.0&FingerJoint_finger=2.0&FingerJoint_play=0.1&FingerJoint_space=2.0&FingerJoint_width=1.0&h=40&outside=0&outside=1&radius=165&n=6&top=angled+hole&alignment_pins=1.0&thickness=3.0&format=svg&tabs=0.0&debug=0&labels=0&labels=1&reference=100&inner_corners=loop&burn=0.1&render=1
SettingsUrl: http://localhost:8000/RegularBox?FingerJoint_angle=90.0&FingerJoint_style=rectangular&FingerJoint_surroundingspaces=1.0&FingerJoint_edge_width=1.0&FingerJoint_extra_length=0.0&FingerJoint_finger=2.0&FingerJoint_play=0.1&FingerJoint_space=2.0&FingerJoint_width=1.0&h=40&outside=0&outside=1&radius=165&n=6&top=angled+hole&alignment_pins=1.0&thickness=3.0&format=svg&tabs=0.0&debug=0&labels=0&labels=1&reference=100&inner_corners=loop&burn=0.1
--><title
     id="title1135">RegularBox</title><metadata
     id="metadata1137"><rdf:RDF><cc:Work><dc:title>RegularBox</dc:title><dc:date>2022-12-16 15:41:29</dc:date><dc:source>http://localhost:8000/RegularBox?FingerJoint_angle=90.0&amp;FingerJoint_style=rectangular&amp;FingerJoint_surroundingspaces=1.0&amp;FingerJoint_edge_width=1.0&amp;FingerJoint_extra_length=0.0&amp;FingerJoint_finger=2.0&amp;FingerJoint_play=0.1&amp;FingerJoint_space=2.0&amp;FingerJoint_width=1.0&amp;h=40&amp;outside=0&amp;outside=1&amp;radius=165&amp;n=6&amp;top=angled+hole&amp;alignment_pins=1.0&amp;thickness=3.0&amp;format=svg&amp;tabs=0.0&amp;debug=0&amp;labels=0&amp;labels=1&amp;reference=100&amp;inner_corners=loop&amp;burn=0.1&amp;render=1</dc:source><dc:description>Box with regular polygon as base

For short side walls that don't fit a connecting finger reduce *surroundingspaces* and *finger* in the Finger Joint Settings.

The lids needs to be glued. For the bayonet lid all outside rings attach to the bottom, all inside rings to the top.


Created with Boxes.py (https://festi.info/boxes.py)
Command line: boxes RegularBox --FingerJoint_angle=90.0 --FingerJoint_style=rectangular --FingerJoint_surroundingspaces=1.0 --FingerJoint_edge_width=1.0 --FingerJoint_extra_length=0.0 --FingerJoint_finger=2.0 --FingerJoint_play=0.1 --FingerJoint_space=2.0 --FingerJoint_width=1.0 --h=40 --outside=0 --outside=1 --radius=165 --n=6 '--top=angled hole' --alignment_pins=1.0 --thickness=3.0 --format=svg --tabs=0.0 --debug=0 --labels=0 --labels=1 --reference=100 --inner_corners=loop --burn=0.1
Url: http://localhost:8000/RegularBox?FingerJoint_angle=90.0&amp;FingerJoint_style=rectangular&amp;FingerJoint_surroundingspaces=1.0&amp;FingerJoint_edge_width=1.0&amp;FingerJoint_extra_length=0.0&amp;FingerJoint_finger=2.0&amp;FingerJoint_play=0.1&amp;FingerJoint_space=2.0&amp;FingerJoint_width=1.0&amp;h=40&amp;outside=0&amp;outside=1&amp;radius=165&amp;n=6&amp;top=angled+hole&amp;alignment_pins=1.0&amp;thickness=3.0&amp;format=svg&amp;tabs=0.0&amp;debug=0&amp;labels=0&amp;labels=1&amp;reference=100&amp;inner_corners=loop&amp;burn=0.1&amp;render=1
SettingsUrl: http://localhost:8000/RegularBox?FingerJoint_angle=90.0&amp;FingerJoint_style=rectangular&amp;FingerJoint_surroundingspaces=1.0&amp;FingerJoint_edge_width=1.0&amp;FingerJoint_extra_length=0.0&amp;FingerJoint_finger=2.0&amp;FingerJoint_play=0.1&amp;FingerJoint_space=2.0&amp;FingerJoint_width=1.0&amp;h=40&amp;outside=0&amp;outside=1&amp;radius=165&amp;n=6&amp;top=angled+hole&amp;alignment_pins=1.0&amp;thickness=3.0&amp;format=svg&amp;tabs=0.0&amp;debug=0&amp;labels=0&amp;labels=1&amp;reference=100&amp;inner_corners=loop&amp;burn=0.1
</dc:description></cc:Work></rdf:RDF></metadata><g
     id="p-4"
     style="fill:none;stroke-linecap:round;stroke-linejoin:round;stroke:#ff0505;stroke-opacity:1"><path
       d="M 178.832 47.200 H 184.500 C 184.600 47.200 184.500 47.100 184.500 47.200 V 50.100 C 184.500 50.155 184.545 50.200 184.600 50.200 H 190.600 C 190.655 50.200 190.700 50.155 190.700 50.100 V 47.200 C 190.700 47.100 190.600 47.200 190.700 47.200 H 196.500 C 196.600 47.200 196.500 47.100 196.500 47.200 V 50.100 C 196.500 50.155 196.545 50.200 196.600 50.200 H 202.600 C 202.655 50.200 202.700 50.155 202.700 50.100 V 47.200 C 202.700 47.100 202.600 47.200 202.700 47.200 H 208.500 C 208.600 47.200 208.500 47.100 208.500 47.200 V 50.100 C 208.500 50.155 208.545 50.200 208.600 50.200 H 214.600 C 214.655 50.200 214.700 50.155 214.700 50.100 V 47.200 C 214.700 47.100 214.600 47.200 214.700 47.200 H 220.500 C 220.600 47.200 220.500 47.100 220.500 47.200 V 50.100 C 220.500 50.155 220.545 50.200 220.600 50.200 H 226.600 C 226.655 50.200 226.700 50.155 226.700 50.100 V 47.200 C 226.700 47.100 226.600 47.200 226.700 47.200 H 232.500 C 232.600 47.200 232.500 47.100 232.500 47.200 V 50.100 C 232.500 50.155 232.545 50.200 232.600 50.200 H 238.600 C 238.655 50.200 238.700 50.155 238.700 50.100 V 47.200 C 238.700 47.100 238.600 47.200 238.700 47.200 H 244.500 C 244.600 47.200 244.500 47.100 244.500 47.200 V 50.100 C 244.500 50.155 244.545 50.200 244.600 50.200 H 250.600 C 250.655 50.200 250.700 50.155 250.700 50.100 V 47.200 C 250.700 47.100 250.600 47.200 250.700 47.200 H 256.500 C 256.600 47.200 256.500 47.100 256.500 47.200 V 50.100 C 256.500 50.155 256.545 50.200 256.600 50.200 H 262.600 C 262.655 50.200 262.700 50.155 262.700 50.100 V 47.200 C 262.700 47.100 262.600 47.200 262.700 47.200 H 268.500 C 268.600 47.200 268.500 47.100 268.500 47.200 V 50.100 C 268.500 50.155 268.545 50.200 268.600 50.200 H 274.600 C 274.655 50.200 274.700 50.155 274.700 50.100 V 47.200 C 274.700 47.100 274.600 47.200 274.700 47.200 H 280.500 C 280.600 47.200 280.500 47.100 280.500 47.200 V 50.100 C 280.500 50.155 280.545 50.200 280.600 50.200 H 286.600 C 286.655 50.200 286.700 50.155 286.700 50.100 V 47.200 C 286.700 47.100 286.600 47.200 286.700 47.200 H 292.500 C 292.600 47.200 292.500 47.100 292.500 47.200 V 50.100 C 292.500 50.155 292.545 50.200 292.600 50.200 H 298.600 C 298.655 50.200 298.700 50.155 298.700 50.100 V 47.200 C 298.700 47.100 298.600 47.200 298.700 47.200 H 304.500 C 304.600 47.200 304.500 47.100 304.500 47.200 V 50.100 C 304.500 50.155 304.545 50.200 304.600 50.200 H 310.600 C 310.655 50.200 310.700 50.155 310.700 50.100 V 47.200 C 310.700 47.100 310.600 47.200 310.700 47.200 H 316.500 C 316.600 47.200 316.500 47.100 316.500 47.200 V 50.100 C 316.500 50.155 316.545 50.200 316.600 50.200 H 322.600 C 322.655 50.200 322.700 50.155 322.700 50.100 V 47.200 C 322.700 47.100 322.600 47.200 322.700 47.200 H 328.500 C 328.600 47.200 328.500 47.100 328.500 47.200 V 50.100 C 328.500 50.155 328.545 50.200 328.600 50.200 H 334.600 C 334.655 50.200 334.700 50.155 334.700 50.100 V 47.200 C 334.700 47.100 334.600 47.200 334.700 47.200 H 340.368 H 339.502 C 339.557 47.200 339.602 47.155 339.602 47.100 V 39.200 C 339.602 39.100 339.502 39.200 339.602 39.200 H 342.100 C 342.155 39.200 342.200 39.155 342.200 39.100 V 33.100 C 342.200 33.045 342.155 33.000 342.100 33.000 H 339.602 C 339.502 33.000 339.602 33.100 339.602 33.000 V 27.200 C 339.602 27.100 339.502 27.200 339.602 27.200 H 342.100 C 342.155 27.200 342.200 27.155 342.200 27.100 V 21.100 C 342.200 21.045 342.155 21.000 342.100 21.000 H 339.602 C 339.502 21.000 339.602 21.100 339.602 21.000 V 13.100 C 339.602 13.045 339.557 13.000 339.502 13.000 H 340.368 H 334.700 C 334.600 13.000 334.700 13.100 334.700 13.000 V 10.100 C 334.700 10.045 334.655 10.000 334.600 10.000 H 328.600 C 328.545 10.000 328.500 10.045 328.500 10.100 V 13.000 C 328.500 13.100 328.600 13.000 328.500 13.000 H 322.700 C 322.600 13.000 322.700 13.100 322.700 13.000 V 10.100 C 322.700 10.045 322.655 10.000 322.600 10.000 H 316.600 C 316.545 10.000 316.500 10.045 316.500 10.100 V 13.000 C 316.500 13.100 316.600 13.000 316.500 13.000 H 310.700 C 310.600 13.000 310.700 13.100 310.700 13.000 V 10.100 C 310.700 10.045 310.655 10.000 310.600 10.000 H 304.600 C 304.545 10.000 304.500 10.045 304.500 10.100 V 13.000 C 304.500 13.100 304.600 13.000 304.500 13.000 H 298.700 C 298.600 13.000 298.700 13.100 298.700 13.000 V 10.100 C 298.700 10.045 298.655 10.000 298.600 10.000 H 292.600 C 292.545 10.000 292.500 10.045 292.500 10.100 V 13.000 C 292.500 13.100 292.600 13.000 292.500 13.000 H 286.700 C 286.600 13.000 286.700 13.100 286.700 13.000 V 10.100 C 286.700 10.045 286.655 10.000 286.600 10.000 H 280.600 C 280.545 10.000 280.500 10.045 280.500 10.100 V 13.000 C 280.500 13.100 280.600 13.000 280.500 13.000 H 274.700 C 274.600 13.000 274.700 13.100 274.700 13.000 V 10.100 C 274.700 10.045 274.655 10.000 274.600 10.000 H 268.600 C 268.545 10.000 268.500 10.045 268.500 10.100 V 13.000 C 268.500 13.100 268.600 13.000 268.500 13.000 H 262.700 C 262.600 13.000 262.700 13.100 262.700 13.000 V 10.100 C 262.700 10.045 262.655 10.000 262.600 10.000 H 256.600 C 256.545 10.000 256.500 10.045 256.500 10.100 V 13.000 C 256.500 13.100 256.600 13.000 256.500 13.000 H 250.700 C 250.600 13.000 250.700 13.100 250.700 13.000 V 10.100 C 250.700 10.045 250.655 10.000 250.600 10.000 H 244.600 C 244.545 10.000 244.500 10.045 244.500 10.100 V 13.000 C 244.500 13.100 244.600 13.000 244.500 13.000 H 238.700 C 238.600 13.000 238.700 13.100 238.700 13.000 V 10.100 C 238.700 10.045 238.655 10.000 238.600 10.000 H 232.600 C 232.545 10.000 232.500 10.045 232.500 10.100 V 13.000 C 232.500 13.100 232.600 13.000 232.500 13.000 H 226.700 C 226.600 13.000 226.700 13.100 226.700 13.000 V 10.100 C 226.700 10.045 226.655 10.000 226.600 10.000 H 220.600 C 220.545 10.000 220.500 10.045 220.500 10.100 V 13.000 C 220.500 13.100 220.600 13.000 220.500 13.000 H 214.700 C 214.600 13.000 214.700 13.100 214.700 13.000 V 10.100 C 214.700 10.045 214.655 10.000 214.600 10.000 H 208.600 C 208.545 10.000 208.500 10.045 208.500 10.100 V 13.000 C 208.500 13.100 208.600 13.000 208.500 13.000 H 202.700 C 202.600 13.000 202.700 13.100 202.700 13.000 V 10.100 C 202.700 10.045 202.655 10.000 202.600 10.000 H 196.600 C 196.545 10.000 196.500 10.045 196.500 10.100 V 13.000 C 196.500 13.100 196.600 13.000 196.500 13.000 H 190.700 C 190.600 13.000 190.700 13.100 190.700 13.000 V 10.100 C 190.700 10.045 190.655 10.000 190.600 10.000 H 184.600 C 184.545 10.000 184.500 10.045 184.500 10.100 V 13.000 C 184.500 13.100 184.600 13.000 184.500 13.000 H 178.832 H 179.698 C 179.643 13.000 179.598 13.045 179.598 13.100 V 21.000 C 179.598 21.100 179.698 21.000 179.598 21.000 H 177.100 C 177.045 21.000 177.000 21.045 177.000 21.100 V 27.100 C 177.000 27.155 177.045 27.200 177.100 27.200 H 179.598 C 179.698 27.200 179.598 27.100 179.598 27.200 V 33.000 C 179.598 33.100 179.698 33.000 179.598 33.000 H 177.100 C 177.045 33.000 177.000 33.045 177.000 33.100 V 39.100 C 177.000 39.155 177.045 39.200 177.100 39.200 H 179.598 C 179.698 39.200 179.598 39.100 179.598 39.200 V 47.100 C 179.598 47.155 179.643 47.200 179.698 47.200 H 178.832 Z"
       stroke="rgb(0,0,0)"
       stroke-width="0.20"
       id="path1153"
       style="stroke:#ff0505;stroke-opacity:1" /></g></svg>
