<?xml version="1.0" encoding="UTF-8"?>
<svg width="1019.00mm" height="369.39mm" viewBox="0.0 0.0 1019.00 369.39" xmlns="http://www.w3.org/2000/svg" xmlns:dc="http://purl.org/dc/elements/1.1/" xmlns:cc="http://creativecommons.org/ns#" xmlns:rdf="http://www.w3.org/1999/02/22-rdf-syntax-ns#" xmlns:svg="http://www.w3.org/2000/svg" xmlns:xlink="http://www.w3.org/1999/xlink" xmlns:inkscape="http://www.inkscape.org/namespaces/inkscape">
<!--
RegularBox - Box with regular polygon as base


For short side walls that don't fit a connecting finger reduce *surroundingspaces* and *finger* in the Finger Joint Settings.

The lids needs to be glued. For the bayonet lid all outside rings attach to the bottom, all inside rings to the top.



Created with Boxes.py (https://festi.info/boxes.py)
Creation date: 2022-12-20 14:10:19
Command line (remove spaces between dashes): boxes RegularBox - -FingerJoint_angle=90.0 - -FingerJoint_style=rectangular - -FingerJoint_surroundingspaces=1.0 - -FingerJoint_edge_width=1.0 - -FingerJoint_extra_length=0.0 - -FingerJoint_finger=2.0 - -FingerJoint_play=0.1 - -FingerJoint_space=2.0 - -FingerJoint_width=1.0 - -h=50 - -outside=0 - -outside=1 - -radius=165 - -n=6 '- -top=angled hole' - -alignment_pins=1.0 - -thickness=3.0 - -format=svg - -tabs=0.0 - -debug=0 - -labels=0 - -labels=1 - -reference=100 - -inner_corners=loop - -burn=0.1
Url: http://localhost:8000/RegularBox?FingerJoint_angle=90.0&FingerJoint_style=rectangular&FingerJoint_surroundingspaces=1.0&FingerJoint_edge_width=1.0&FingerJoint_extra_length=0.0&FingerJoint_finger=2.0&FingerJoint_play=0.1&FingerJoint_space=2.0&FingerJoint_width=1.0&h=50&outside=0&outside=1&radius=165&n=6&top=angled+hole&alignment_pins=1.0&thickness=3.0&format=svg&tabs=0.0&debug=0&labels=0&labels=1&reference=100&inner_corners=loop&burn=0.1&render=1
SettingsUrl: http://localhost:8000/RegularBox?FingerJoint_angle=90.0&FingerJoint_style=rectangular&FingerJoint_surroundingspaces=1.0&FingerJoint_edge_width=1.0&FingerJoint_extra_length=0.0&FingerJoint_finger=2.0&FingerJoint_play=0.1&FingerJoint_space=2.0&FingerJoint_width=1.0&h=50&outside=0&outside=1&radius=165&n=6&top=angled+hole&alignment_pins=1.0&thickness=3.0&format=svg&tabs=0.0&debug=0&labels=0&labels=1&reference=100&inner_corners=loop&burn=0.1
-->
<title>RegularBox</title>
<metadata>
<rdf:RDF><cc:Work>
<dc:title>Box - RegularBox</dc:title>
<dc:date>2022-12-20 14:10:19</dc:date>
<dc:source>http://localhost:8000/RegularBox?FingerJoint_angle=90.0&amp;FingerJoint_style=rectangular&amp;FingerJoint_surroundingspaces=1.0&amp;FingerJoint_edge_width=1.0&amp;FingerJoint_extra_length=0.0&amp;FingerJoint_finger=2.0&amp;FingerJoint_play=0.1&amp;FingerJoint_space=2.0&amp;FingerJoint_width=1.0&amp;h=50&amp;outside=0&amp;outside=1&amp;radius=165&amp;n=6&amp;top=angled+hole&amp;alignment_pins=1.0&amp;thickness=3.0&amp;format=svg&amp;tabs=0.0&amp;debug=0&amp;labels=0&amp;labels=1&amp;reference=100&amp;inner_corners=loop&amp;burn=0.1&amp;render=1</dc:source>
<dc:description>Box with regular polygon as base

For short side walls that don't fit a connecting finger reduce *surroundingspaces* and *finger* in the Finger Joint Settings.

The lids needs to be glued. For the bayonet lid all outside rings attach to the bottom, all inside rings to the top.


Created with Boxes.py (https://festi.info/boxes.py)
Command line: boxes RegularBox --FingerJoint_angle=90.0 --FingerJoint_style=rectangular --FingerJoint_surroundingspaces=1.0 --FingerJoint_edge_width=1.0 --FingerJoint_extra_length=0.0 --FingerJoint_finger=2.0 --FingerJoint_play=0.1 --FingerJoint_space=2.0 --FingerJoint_width=1.0 --h=50 --outside=0 --outside=1 --radius=165 --n=6 '--top=angled hole' --alignment_pins=1.0 --thickness=3.0 --format=svg --tabs=0.0 --debug=0 --labels=0 --labels=1 --reference=100 --inner_corners=loop --burn=0.1
Url: http://localhost:8000/RegularBox?FingerJoint_angle=90.0&amp;FingerJoint_style=rectangular&amp;FingerJoint_surroundingspaces=1.0&amp;FingerJoint_edge_width=1.0&amp;FingerJoint_extra_length=0.0&amp;FingerJoint_finger=2.0&amp;FingerJoint_play=0.1&amp;FingerJoint_space=2.0&amp;FingerJoint_width=1.0&amp;h=50&amp;outside=0&amp;outside=1&amp;radius=165&amp;n=6&amp;top=angled+hole&amp;alignment_pins=1.0&amp;thickness=3.0&amp;format=svg&amp;tabs=0.0&amp;debug=0&amp;labels=0&amp;labels=1&amp;reference=100&amp;inner_corners=loop&amp;burn=0.1&amp;render=1
SettingsUrl: http://localhost:8000/RegularBox?FingerJoint_angle=90.0&amp;FingerJoint_style=rectangular&amp;FingerJoint_surroundingspaces=1.0&amp;FingerJoint_edge_width=1.0&amp;FingerJoint_extra_length=0.0&amp;FingerJoint_finger=2.0&amp;FingerJoint_play=0.1&amp;FingerJoint_space=2.0&amp;FingerJoint_width=1.0&amp;h=50&amp;outside=0&amp;outside=1&amp;radius=165&amp;n=6&amp;top=angled+hole&amp;alignment_pins=1.0&amp;thickness=3.0&amp;format=svg&amp;tabs=0.0&amp;debug=0&amp;labels=0&amp;labels=1&amp;reference=100&amp;inner_corners=loop&amp;burn=0.1
</dc:description>
</cc:Work></rdf:RDF></metadata>
<g id="p-0" style="fill:none;stroke-linecap:round;stroke-linejoin:round;">
  <path d="M 10.400 359.388 H 110.400 V 349.388 H 10.400 V 359.388 Z" stroke="rgb(0,0,0)" stroke-width="0.20"/>
  <text transform="matrix( 1.000 0.000 0.000 1.000 60.400 350.388 )" style="font-family: sans-serif ; font-weight: normal; font-style: normal; fill: rgb(255,0,0)" font-size="8px" text-anchor="middle" dominant-baseline="hanging">100mm, burn:0.10mm</text>
</g>
<g id="p-1" style="fill:none;stroke-linecap:round;stroke-linejoin:round;">
  <path d="M 94.632 347.688 H 100.250 C 100.305 347.688 100.350 347.644 100.350 347.588 V 344.688 C 100.350 344.588 100.250 344.688 100.350 344.688 H 106.450 C 106.550 344.688 106.450 344.588 106.450 344.688 V 347.588 C 106.450 347.644 106.495 347.688 106.550 347.688 H 112.250 C 112.305 347.688 112.350 347.644 112.350 347.588 V 344.688 C 112.350 344.588 112.250 344.688 112.350 344.688 H 118.450 C 118.550 344.688 118.450 344.588 118.450 344.688 V 347.588 C 118.450 347.644 118.495 347.688 118.550 347.688 H 124.250 C 124.305 347.688 124.350 347.644 124.350 347.588 V 344.688 C 124.350 344.588 124.250 344.688 124.350 344.688 H 130.450 C 130.550 344.688 130.450 344.588 130.450 344.688 V 347.588 C 130.450 347.644 130.495 347.688 130.550 347.688 H 136.250 C 136.305 347.688 136.350 347.644 136.350 347.588 V 344.688 C 136.350 344.588 136.250 344.688 136.350 344.688 H 142.450 C 142.550 344.688 142.450 344.588 142.450 344.688 V 347.588 C 142.450 347.644 142.495 347.688 142.550 347.688 H 148.250 C 148.305 347.688 148.350 347.644 148.350 347.588 V 344.688 C 148.350 344.588 148.250 344.688 148.350 344.688 H 154.450 C 154.550 344.688 154.450 344.588 154.450 344.688 V 347.588 C 154.450 347.644 154.495 347.688 154.550 347.688 H 160.250 C 160.305 347.688 160.350 347.644 160.350 347.588 V 344.688 C 160.350 344.588 160.250 344.688 160.350 344.688 H 166.450 C 166.550 344.688 166.450 344.588 166.450 344.688 V 347.588 C 166.450 347.644 166.495 347.688 166.550 347.688 H 172.250 C 172.305 347.688 172.350 347.644 172.350 347.588 V 344.688 C 172.350 344.588 172.250 344.688 172.350 344.688 H 178.450 C 178.550 344.688 178.450 344.588 178.450 344.688 V 347.588 C 178.450 347.644 178.495 347.688 178.550 347.688 H 184.250 C 184.305 347.688 184.350 347.644 184.350 347.588 V 344.688 C 184.350 344.588 184.250 344.688 184.350 344.688 H 190.450 C 190.550 344.688 190.450 344.588 190.450 344.688 V 347.588 C 190.450 347.644 190.495 347.688 190.550 347.688 H 196.250 C 196.305 347.688 196.350 347.644 196.350 347.588 V 344.688 C 196.350 344.588 196.250 344.688 196.350 344.688 H 202.450 C 202.550 344.688 202.450 344.588 202.450 344.688 V 347.588 C 202.450 347.644 202.495 347.688 202.550 347.688 H 208.250 C 208.305 347.688 208.350 347.644 208.350 347.588 V 344.688 C 208.350 344.588 208.250 344.688 208.350 344.688 H 214.450 C 214.550 344.688 214.450 344.588 214.450 344.688 V 347.588 C 214.450 347.644 214.495 347.688 214.550 347.688 H 220.250 C 220.305 347.688 220.350 347.644 220.350 347.588 V 344.688 C 220.350 344.588 220.250 344.688 220.350 344.688 H 226.450 C 226.550 344.688 226.450 344.588 226.450 344.688 V 347.588 C 226.450 347.644 226.495 347.688 226.550 347.688 H 232.250 C 232.305 347.688 232.350 347.644 232.350 347.588 V 344.688 C 232.350 344.588 232.250 344.688 232.350 344.688 H 238.450 C 238.550 344.688 238.450 344.588 238.450 344.688 V 347.588 C 238.450 347.644 238.495 347.688 238.550 347.688 H 244.250 C 244.305 347.688 244.350 347.644 244.350 347.588 V 344.688 C 244.350 344.588 244.250 344.688 244.350 344.688 H 250.450 C 250.550 344.688 250.450 344.588 250.450 344.688 V 347.588 C 250.450 347.644 250.495 347.688 250.550 347.688 H 256.168 H 257.900 C 257.936 347.688 257.969 347.669 257.987 347.638 L 258.853 346.138 L 261.662 341.273 C 261.689 341.225 261.673 341.164 261.625 341.136 L 259.114 339.686 C 259.027 339.636 259.064 339.773 259.114 339.686 L 262.164 334.404 C 262.214 334.317 262.077 334.354 262.164 334.404 L 264.675 335.854 C 264.723 335.881 264.784 335.865 264.812 335.817 L 267.662 330.881 C 267.689 330.833 267.673 330.772 267.625 330.744 L 265.114 329.294 C 265.027 329.244 265.064 329.381 265.114 329.294 L 268.164 324.011 C 268.214 323.925 268.077 323.961 268.164 324.011 L 270.675 325.461 C 270.723 325.489 270.784 325.473 270.812 325.425 L 273.662 320.488 C 273.689 320.441 273.673 320.379 273.625 320.352 L 271.114 318.902 C 271.027 318.852 271.064 318.988 271.114 318.902 L 274.164 313.619 C 274.214 313.533 274.077 313.569 274.164 313.619 L 276.675 315.069 C 276.723 315.097 276.784 315.080 276.812 315.033 L 279.662 310.096 C 279.689 310.048 279.673 309.987 279.625 309.960 L 277.114 308.510 C 277.027 308.460 277.064 308.596 277.114 308.510 L 280.164 303.227 C 280.214 303.140 280.077 303.177 280.164 303.227 L 282.675 304.677 C 282.723 304.704 282.784 304.688 282.812 304.640 L 285.662 299.704 C 285.689 299.656 285.673 299.595 285.625 299.567 L 283.114 298.117 C 283.027 298.067 283.064 298.204 283.114 298.117 L 286.164 292.835 C 286.214 292.748 286.077 292.785 286.164 292.835 L 288.675 294.285 C 288.723 294.312 288.784 294.296 288.812 294.248 L 291.662 289.312 C 291.689 289.264 291.673 289.203 291.625 289.175 L 289.114 287.725 C 289.027 287.675 289.064 287.812 289.114 287.725 L 292.164 282.442 C 292.214 282.356 292.077 282.392 292.164 282.442 L 294.675 283.892 C 294.723 283.920 294.784 283.903 294.812 283.856 L 297.662 278.919 C 297.689 278.871 297.673 278.810 297.625 278.783 L 295.114 277.333 C 295.027 277.283 295.064 277.419 295.114 277.333 L 298.164 272.050 C 298.214 271.963 298.077 272.000 298.164 272.050 L 300.675 273.500 C 300.723 273.528 300.784 273.511 300.812 273.463 L 303.662 268.527 C 303.689 268.479 303.673 268.418 303.625 268.390 L 301.114 266.940 C 301.027 266.890 301.064 267.027 301.114 266.940 L 304.164 261.658 C 304.214 261.571 304.077 261.608 304.164 261.658 L 306.675 263.108 C 306.723 263.135 306.784 263.119 306.812 263.071 L 309.662 258.135 C 309.689 258.087 309.673 258.026 309.625 257.998 L 307.114 256.548 C 307.027 256.498 307.064 256.635 307.114 256.548 L 310.164 251.265 C 310.214 251.179 310.077 251.215 310.164 251.265 L 312.675 252.715 C 312.723 252.743 312.784 252.727 312.812 252.679 L 315.662 247.742 C 315.689 247.695 315.673 247.633 315.625 247.606 L 313.114 246.156 C 313.027 246.106 313.064 246.242 313.114 246.156 L 316.164 240.873 C 316.214 240.786 316.077 240.823 316.164 240.873 L 318.675 242.323 C 318.723 242.351 318.784 242.334 318.812 242.286 L 321.662 237.350 C 321.689 237.302 321.673 237.241 321.625 237.213 L 319.114 235.763 C 319.027 235.713 319.064 235.850 319.114 235.763 L 322.164 230.481 C 322.214 230.394 322.077 230.431 322.164 230.481 L 324.675 231.931 C 324.723 231.958 324.784 231.942 324.812 231.894 L 327.662 226.958 C 327.689 226.910 327.673 226.849 327.625 226.821 L 325.114 225.371 C 325.027 225.321 325.064 225.458 325.114 225.371 L 328.164 220.088 C 328.214 220.002 328.077 220.038 328.164 220.088 L 330.675 221.538 C 330.723 221.566 330.784 221.550 330.812 221.502 L 333.662 216.565 C 333.689 216.518 333.673 216.456 333.625 216.429 L 331.114 214.979 C 331.027 214.929 331.064 215.065 331.114 214.979 L 334.164 209.696 C 334.214 209.609 334.077 209.646 334.164 209.696 L 336.675 211.146 C 336.723 211.174 336.784 211.157 336.812 211.109 L 339.621 206.244 L 340.487 204.744 C 340.504 204.713 340.504 204.675 340.487 204.644 L 339.621 203.144 L 336.812 198.279 C 336.784 198.231 336.723 198.215 336.675 198.242 L 334.164 199.692 C 334.077 199.742 334.214 199.779 334.164 199.692 L 331.114 194.410 C 331.064 194.323 331.027 194.460 331.114 194.410 L 333.625 192.960 C 333.673 192.932 333.689 192.871 333.662 192.823 L 330.812 187.887 C 330.784 187.839 330.723 187.822 330.675 187.850 L 328.164 189.300 C 328.077 189.350 328.214 189.387 328.164 189.300 L 325.114 184.017 C 325.064 183.931 325.027 184.067 325.114 184.017 L 327.625 182.567 C 327.673 182.540 327.689 182.478 327.662 182.431 L 324.812 177.494 C 324.784 177.446 324.723 177.430 324.675 177.458 L 322.164 178.908 C 322.077 178.958 322.214 178.994 322.164 178.908 L 319.114 173.625 C 319.064 173.538 319.027 173.675 319.114 173.625 L 321.625 172.175 C 321.673 172.147 321.689 172.086 321.662 172.038 L 318.812 167.102 C 318.784 167.054 318.723 167.038 318.675 167.065 L 316.164 168.515 C 316.077 168.565 316.214 168.602 316.164 168.515 L 313.114 163.233 C 313.064 163.146 313.027 163.283 313.114 163.233 L 315.625 161.783 C 315.673 161.755 315.689 161.694 315.662 161.646 L 312.812 156.710 C 312.784 156.662 312.723 156.645 312.675 156.673 L 310.164 158.123 C 310.077 158.173 310.214 158.210 310.164 158.123 L 307.114 152.840 C 307.064 152.754 307.027 152.890 307.114 152.840 L 309.625 151.390 C 309.673 151.363 309.689 151.302 309.662 151.254 L 306.812 146.317 C 306.784 146.270 306.723 146.253 306.675 146.281 L 304.164 147.731 C 304.077 147.781 304.214 147.817 304.164 147.731 L 301.114 142.448 C 301.064 142.361 301.027 142.498 301.114 142.448 L 303.625 140.998 C 303.673 140.970 303.689 140.909 303.662 140.861 L 300.812 135.925 C 300.784 135.877 300.723 135.861 300.675 135.888 L 298.164 137.338 C 298.077 137.388 298.214 137.425 298.164 137.338 L 295.114 132.056 C 295.064 131.969 295.027 132.106 295.114 132.056 L 297.625 130.606 C 297.673 130.578 297.689 130.517 297.662 130.469 L 294.812 125.533 C 294.784 125.485 294.723 125.469 294.675 125.496 L 292.164 126.946 C 292.077 126.996 292.214 127.033 292.164 126.946 L 289.114 121.663 C 289.064 121.577 289.027 121.713 289.114 121.663 L 291.625 120.213 C 291.673 120.186 291.689 120.125 291.662 120.077 L 288.812 115.140 C 288.784 115.093 288.723 115.076 288.675 115.104 L 286.164 116.554 C 286.077 116.604 286.214 116.640 286.164 116.554 L 283.114 111.271 C 283.064 111.185 283.027 111.321 283.114 111.271 L 285.625 109.821 C 285.673 109.793 285.689 109.732 285.662 109.685 L 282.812 104.748 C 282.784 104.700 282.723 104.684 282.675 104.712 L 280.164 106.162 C 280.077 106.212 280.214 106.248 280.164 106.162 L 277.114 100.879 C 277.064 100.792 277.027 100.929 277.114 100.879 L 279.625 99.429 C 279.673 99.401 279.689 99.340 279.662 99.292 L 276.812 94.356 C 276.784 94.308 276.723 94.292 276.675 94.319 L 274.164 95.769 C 274.077 95.819 274.214 95.856 274.164 95.769 L 271.114 90.486 C 271.064 90.400 271.027 90.536 271.114 90.486 L 273.625 89.036 C 273.673 89.009 273.689 88.948 273.662 88.900 L 270.812 83.964 C 270.784 83.916 270.723 83.899 270.675 83.927 L 268.164 85.377 C 268.077 85.427 268.214 85.464 268.164 85.377 L 265.114 80.094 C 265.064 80.008 265.027 80.144 265.114 80.094 L 267.625 78.644 C 267.673 78.617 267.689 78.555 267.662 78.508 L 264.812 73.571 C 264.784 73.523 264.723 73.507 264.675 73.535 L 262.164 74.985 C 262.077 75.035 262.214 75.071 262.164 74.985 L 259.114 69.702 C 259.064 69.615 259.027 69.752 259.114 69.702 L 261.625 68.252 C 261.673 68.224 261.689 68.163 261.662 68.115 L 258.853 63.250 L 257.987 61.750 C 257.969 61.719 257.936 61.700 257.900 61.700 H 256.168 H 250.550 C 250.495 61.700 250.450 61.745 250.450 61.800 V 64.700 C 250.450 64.800 250.550 64.700 250.450 64.700 H 244.350 C 244.250 64.700 244.350 64.800 244.350 64.700 V 61.800 C 244.350 61.745 244.305 61.700 244.250 61.700 H 238.550 C 238.495 61.700 238.450 61.745 238.450 61.800 V 64.700 C 238.450 64.800 238.550 64.700 238.450 64.700 H 232.350 C 232.250 64.700 232.350 64.800 232.350 64.700 V 61.800 C 232.350 61.745 232.305 61.700 232.250 61.700 H 226.550 C 226.495 61.700 226.450 61.745 226.450 61.800 V 64.700 C 226.450 64.800 226.550 64.700 226.450 64.700 H 220.350 C 220.250 64.700 220.350 64.800 220.350 64.700 V 61.800 C 220.350 61.745 220.305 61.700 220.250 61.700 H 214.550 C 214.495 61.700 214.450 61.745 214.450 61.800 V 64.700 C 214.450 64.800 214.550 64.700 214.450 64.700 H 208.350 C 208.250 64.700 208.350 64.800 208.350 64.700 V 61.800 C 208.350 61.745 208.305 61.700 208.250 61.700 H 202.550 C 202.495 61.700 202.450 61.745 202.450 61.800 V 64.700 C 202.450 64.800 202.550 64.700 202.450 64.700 H 196.350 C 196.250 64.700 196.350 64.800 196.350 64.700 V 61.800 C 196.350 61.745 196.305 61.700 196.250 61.700 H 190.550 C 190.495 61.700 190.450 61.745 190.450 61.800 V 64.700 C 190.450 64.800 190.550 64.700 190.450 64.700 H 184.350 C 184.250 64.700 184.350 64.800 184.350 64.700 V 61.800 C 184.350 61.745 184.305 61.700 184.250 61.700 H 178.550 C 178.495 61.700 178.450 61.745 178.450 61.800 V 64.700 C 178.450 64.800 178.550 64.700 178.450 64.700 H 172.350 C 172.250 64.700 172.350 64.800 172.350 64.700 V 61.800 C 172.350 61.745 172.305 61.700 172.250 61.700 H 166.550 C 166.495 61.700 166.450 61.745 166.450 61.800 V 64.700 C 166.450 64.800 166.550 64.700 166.450 64.700 H 160.350 C 160.250 64.700 160.350 64.800 160.350 64.700 V 61.800 C 160.350 61.745 160.305 61.700 160.250 61.700 H 154.550 C 154.495 61.700 154.450 61.745 154.450 61.800 V 64.700 C 154.450 64.800 154.550 64.700 154.450 64.700 H 148.350 C 148.250 64.700 148.350 64.800 148.350 64.700 V 61.800 C 148.350 61.745 148.305 61.700 148.250 61.700 H 142.550 C 142.495 61.700 142.450 61.745 142.450 61.800 V 64.700 C 142.450 64.800 142.550 64.700 142.450 64.700 H 136.350 C 136.250 64.700 136.350 64.800 136.350 64.700 V 61.800 C 136.350 61.745 136.305 61.700 136.250 61.700 H 130.550 C 130.495 61.700 130.450 61.745 130.450 61.800 V 64.700 C 130.450 64.800 130.550 64.700 130.450 64.700 H 124.350 C 124.250 64.700 124.350 64.800 124.350 64.700 V 61.800 C 124.350 61.745 124.305 61.700 124.250 61.700 H 118.550 C 118.495 61.700 118.450 61.745 118.450 61.800 V 64.700 C 118.450 64.800 118.550 64.700 118.450 64.700 H 112.350 C 112.250 64.700 112.350 64.800 112.350 64.700 V 61.800 C 112.350 61.745 112.305 61.700 112.250 61.700 H 106.550 C 106.495 61.700 106.450 61.745 106.450 61.800 V 64.700 C 106.450 64.800 106.550 64.700 106.450 64.700 H 100.350 C 100.250 64.700 100.350 64.800 100.350 64.700 V 61.800 C 100.350 61.745 100.305 61.700 100.250 61.700 H 94.632 H 92.900 C 92.864 61.700 92.831 61.719 92.813 61.750 L 91.947 63.250 L 89.138 68.115 C 89.111 68.163 89.127 68.224 89.175 68.252 L 91.686 69.702 C 91.773 69.752 91.736 69.615 91.686 69.702 L 88.636 74.985 C 88.586 75.071 88.723 75.035 88.636 74.985 L 86.125 73.535 C 86.077 73.507 86.016 73.523 85.988 73.571 L 83.138 78.508 C 83.111 78.555 83.127 78.617 83.175 78.644 L 85.686 80.094 C 85.773 80.144 85.736 80.008 85.686 80.094 L 82.636 85.377 C 82.586 85.464 82.723 85.427 82.636 85.377 L 80.125 83.927 C 80.077 83.899 80.016 83.916 79.988 83.964 L 77.138 88.900 C 77.111 88.948 77.127 89.009 77.175 89.036 L 79.686 90.486 C 79.773 90.536 79.736 90.400 79.686 90.486 L 76.636 95.769 C 76.586 95.856 76.723 95.819 76.636 95.769 L 74.125 94.319 C 74.077 94.292 74.016 94.308 73.988 94.356 L 71.138 99.292 C 71.111 99.340 71.127 99.401 71.175 99.429 L 73.686 100.879 C 73.773 100.929 73.736 100.792 73.686 100.879 L 70.636 106.162 C 70.586 106.248 70.723 106.212 70.636 106.162 L 68.125 104.712 C 68.077 104.684 68.016 104.700 67.988 104.748 L 65.138 109.685 C 65.111 109.732 65.127 109.793 65.175 109.821 L 67.686 111.271 C 67.773 111.321 67.736 111.185 67.686 111.271 L 64.636 116.554 C 64.586 116.640 64.723 116.604 64.636 116.554 L 62.125 115.104 C 62.077 115.076 62.016 115.093 61.988 115.140 L 59.138 120.077 C 59.111 120.125 59.127 120.186 59.175 120.213 L 61.686 121.663 C 61.773 121.713 61.736 121.577 61.686 121.663 L 58.636 126.946 C 58.586 127.033 58.723 126.996 58.636 126.946 L 56.125 125.496 C 56.077 125.469 56.016 125.485 55.988 125.533 L 53.138 130.469 C 53.111 130.517 53.127 130.578 53.175 130.606 L 55.686 132.056 C 55.773 132.106 55.736 131.969 55.686 132.056 L 52.636 137.338 C 52.586 137.425 52.723 137.388 52.636 137.338 L 50.125 135.888 C 50.077 135.861 50.016 135.877 49.988 135.925 L 47.138 140.861 C 47.111 140.909 47.127 140.970 47.175 140.998 L 49.686 142.448 C 49.773 142.498 49.736 142.361 49.686 142.448 L 46.636 147.731 C 46.586 147.817 46.723 147.781 46.636 147.731 L 44.125 146.281 C 44.077 146.253 44.016 146.270 43.988 146.317 L 41.138 151.254 C 41.111 151.302 41.127 151.363 41.175 151.390 L 43.686 152.840 C 43.773 152.890 43.736 152.754 43.686 152.840 L 40.636 158.123 C 40.586 158.210 40.723 158.173 40.636 158.123 L 38.125 156.673 C 38.077 156.645 38.016 156.662 37.988 156.710 L 35.138 161.646 C 35.111 161.694 35.127 161.755 35.175 161.783 L 37.686 163.233 C 37.773 163.283 37.736 163.146 37.686 163.233 L 34.636 168.515 C 34.586 168.602 34.723 168.565 34.636 168.515 L 32.125 167.065 C 32.077 167.038 32.016 167.054 31.988 167.102 L 29.138 172.038 C 29.111 172.086 29.127 172.147 29.175 172.175 L 31.686 173.625 C 31.773 173.675 31.736 173.538 31.686 173.625 L 28.636 178.908 C 28.586 178.994 28.723 178.958 28.636 178.908 L 26.125 177.458 C 26.077 177.430 26.016 177.446 25.988 177.494 L 23.138 182.431 C 23.111 182.478 23.127 182.540 23.175 182.567 L 25.686 184.017 C 25.773 184.067 25.736 183.931 25.686 184.017 L 22.636 189.300 C 22.586 189.387 22.723 189.350 22.636 189.300 L 20.125 187.850 C 20.077 187.822 20.016 187.839 19.988 187.887 L 17.138 192.823 C 17.111 192.871 17.127 192.932 17.175 192.960 L 19.686 194.410 C 19.773 194.460 19.736 194.323 19.686 194.410 L 16.636 199.692 C 16.586 199.779 16.723 199.742 16.636 199.692 L 14.125 198.242 C 14.077 198.215 14.016 198.231 13.988 198.279 L 11.179 203.144 L 10.313 204.644 C 10.296 204.675 10.296 204.713 10.313 204.744 L 11.179 206.244 L 13.988 211.109 C 14.016 211.157 14.077 211.174 14.125 211.146 L 16.636 209.696 C 16.723 209.646 16.586 209.609 16.636 209.696 L 19.686 214.979 C 19.736 215.065 19.773 214.929 19.686 214.979 L 17.175 216.429 C 17.127 216.456 17.111 216.518 17.138 216.565 L 19.988 221.502 C 20.016 221.550 20.077 221.566 20.125 221.538 L 22.636 220.088 C 22.723 220.038 22.586 220.002 22.636 220.088 L 25.686 225.371 C 25.736 225.458 25.773 225.321 25.686 225.371 L 23.175 226.821 C 23.127 226.849 23.111 226.910 23.138 226.958 L 25.988 231.894 C 26.016 231.942 26.077 231.958 26.125 231.931 L 28.636 230.481 C 28.723 230.431 28.586 230.394 28.636 230.481 L 31.686 235.763 C 31.736 235.850 31.773 235.713 31.686 235.763 L 29.175 237.213 C 29.127 237.241 29.111 237.302 29.138 237.350 L 31.988 242.286 C 32.016 242.334 32.077 242.351 32.125 242.323 L 34.636 240.873 C 34.723 240.823 34.586 240.786 34.636 240.873 L 37.686 246.156 C 37.736 246.242 37.773 246.106 37.686 246.156 L 35.175 247.606 C 35.127 247.633 35.111 247.695 35.138 247.742 L 37.988 252.679 C 38.016 252.727 38.077 252.743 38.125 252.715 L 40.636 251.265 C 40.723 251.215 40.586 251.179 40.636 251.265 L 43.686 256.548 C 43.736 256.635 43.773 256.498 43.686 256.548 L 41.175 257.998 C 41.127 258.026 41.111 258.087 41.138 258.135 L 43.988 263.071 C 44.016 263.119 44.077 263.135 44.125 263.108 L 46.636 261.658 C 46.723 261.608 46.586 261.571 46.636 261.658 L 49.686 266.940 C 49.736 267.027 49.773 266.890 49.686 266.940 L 47.175 268.390 C 47.127 268.418 47.111 268.479 47.138 268.527 L 49.988 273.463 C 50.016 273.511 50.077 273.528 50.125 273.500 L 52.636 272.050 C 52.723 272.000 52.586 271.963 52.636 272.050 L 55.686 277.333 C 55.736 277.419 55.773 277.283 55.686 277.333 L 53.175 278.783 C 53.127 278.810 53.111 278.871 53.138 278.919 L 55.988 283.856 C 56.016 283.903 56.077 283.920 56.125 283.892 L 58.636 282.442 C 58.723 282.392 58.586 282.356 58.636 282.442 L 61.686 287.725 C 61.736 287.812 61.773 287.675 61.686 287.725 L 59.175 289.175 C 59.127 289.203 59.111 289.264 59.138 289.312 L 61.988 294.248 C 62.016 294.296 62.077 294.312 62.125 294.285 L 64.636 292.835 C 64.723 292.785 64.586 292.748 64.636 292.835 L 67.686 298.117 C 67.736 298.204 67.773 298.067 67.686 298.117 L 65.175 299.567 C 65.127 299.595 65.111 299.656 65.138 299.704 L 67.988 304.640 C 68.016 304.688 68.077 304.704 68.125 304.677 L 70.636 303.227 C 70.723 303.177 70.586 303.140 70.636 303.227 L 73.686 308.510 C 73.736 308.596 73.773 308.460 73.686 308.510 L 71.175 309.960 C 71.127 309.987 71.111 310.048 71.138 310.096 L 73.988 315.033 C 74.016 315.080 74.077 315.097 74.125 315.069 L 76.636 313.619 C 76.723 313.569 76.586 313.533 76.636 313.619 L 79.686 318.902 C 79.736 318.988 79.773 318.852 79.686 318.902 L 77.175 320.352 C 77.127 320.379 77.111 320.441 77.138 320.488 L 79.988 325.425 C 80.016 325.473 80.077 325.489 80.125 325.461 L 82.636 324.011 C 82.723 323.961 82.586 323.925 82.636 324.011 L 85.686 329.294 C 85.736 329.381 85.773 329.244 85.686 329.294 L 83.175 330.744 C 83.127 330.772 83.111 330.833 83.138 330.881 L 85.988 335.817 C 86.016 335.865 86.077 335.881 86.125 335.854 L 88.636 334.404 C 88.723 334.354 88.586 334.317 88.636 334.404 L 91.686 339.686 C 91.736 339.773 91.773 339.636 91.686 339.686 L 89.175 341.136 C 89.127 341.164 89.111 341.225 89.138 341.273 L 91.947 346.138 L 92.813 347.638 C 92.831 347.669 92.864 347.688 92.900 347.688 H 94.632 Z" stroke="rgb(0,0,0)" stroke-width="0.20"/>
</g>
<g id="p-2" style="fill:none;stroke-linecap:round;stroke-linejoin:round;">
  <path d="M 428.064 341.688 H 586.136 C 586.172 341.688 586.205 341.669 586.223 341.638 L 665.258 204.744 C 665.276 204.713 665.276 204.675 665.258 204.644 L 586.223 67.750 C 586.205 67.719 586.172 67.700 586.136 67.700 H 428.064 C 428.028 67.700 427.995 67.719 427.977 67.750 L 348.942 204.644 C 348.924 204.675 348.924 204.713 348.942 204.744 L 427.977 341.638 C 427.995 341.669 428.028 341.688 428.064 341.688 Z M 426.332 347.688 H 431.950 C 432.005 347.688 432.050 347.644 432.050 347.588 V 344.688 C 432.050 344.588 431.950 344.688 432.050 344.688 H 438.150 C 438.250 344.688 438.150 344.588 438.150 344.688 V 347.588 C 438.150 347.644 438.195 347.688 438.250 347.688 H 443.950 C 444.005 347.688 444.050 347.644 444.050 347.588 V 344.688 C 444.050 344.588 443.950 344.688 444.050 344.688 H 450.150 C 450.250 344.688 450.150 344.588 450.150 344.688 V 347.588 C 450.150 347.644 450.195 347.688 450.250 347.688 H 455.950 C 456.005 347.688 456.050 347.644 456.050 347.588 V 344.688 C 456.050 344.588 455.950 344.688 456.050 344.688 H 462.150 C 462.250 344.688 462.150 344.588 462.150 344.688 V 347.588 C 462.150 347.644 462.195 347.688 462.250 347.688 H 467.950 C 468.005 347.688 468.050 347.644 468.050 347.588 V 344.688 C 468.050 344.588 467.950 344.688 468.050 344.688 H 474.150 C 474.250 344.688 474.150 344.588 474.150 344.688 V 347.588 C 474.150 347.644 474.195 347.688 474.250 347.688 H 479.950 C 480.005 347.688 480.050 347.644 480.050 347.588 V 344.688 C 480.050 344.588 479.950 344.688 480.050 344.688 H 486.150 C 486.250 344.688 486.150 344.588 486.150 344.688 V 347.588 C 486.150 347.644 486.195 347.688 486.250 347.688 H 491.950 C 492.005 347.688 492.050 347.644 492.050 347.588 V 344.688 C 492.050 344.588 491.950 344.688 492.050 344.688 H 498.150 C 498.250 344.688 498.150 344.588 498.150 344.688 V 347.588 C 498.150 347.644 498.195 347.688 498.250 347.688 H 503.950 C 504.005 347.688 504.050 347.644 504.050 347.588 V 344.688 C 504.050 344.588 503.950 344.688 504.050 344.688 H 510.150 C 510.250 344.688 510.150 344.588 510.150 344.688 V 347.588 C 510.150 347.644 510.195 347.688 510.250 347.688 H 515.950 C 516.005 347.688 516.050 347.644 516.050 347.588 V 344.688 C 516.050 344.588 515.950 344.688 516.050 344.688 H 522.150 C 522.250 344.688 522.150 344.588 522.150 344.688 V 347.588 C 522.150 347.644 522.195 347.688 522.250 347.688 H 527.950 C 528.005 347.688 528.050 347.644 528.050 347.588 V 344.688 C 528.050 344.588 527.950 344.688 528.050 344.688 H 534.150 C 534.250 344.688 534.150 344.588 534.150 344.688 V 347.588 C 534.150 347.644 534.195 347.688 534.250 347.688 H 539.950 C 540.005 347.688 540.050 347.644 540.050 347.588 V 344.688 C 540.050 344.588 539.950 344.688 540.050 344.688 H 546.150 C 546.250 344.688 546.150 344.588 546.150 344.688 V 347.588 C 546.150 347.644 546.195 347.688 546.250 347.688 H 551.950 C 552.005 347.688 552.050 347.644 552.050 347.588 V 344.688 C 552.050 344.588 551.950 344.688 552.050 344.688 H 558.150 C 558.250 344.688 558.150 344.588 558.150 344.688 V 347.588 C 558.150 347.644 558.195 347.688 558.250 347.688 H 563.950 C 564.005 347.688 564.050 347.644 564.050 347.588 V 344.688 C 564.050 344.588 563.950 344.688 564.050 344.688 H 570.150 C 570.250 344.688 570.150 344.588 570.150 344.688 V 347.588 C 570.150 347.644 570.195 347.688 570.250 347.688 H 575.950 C 576.005 347.688 576.050 347.644 576.050 347.588 V 344.688 C 576.050 344.588 575.950 344.688 576.050 344.688 H 582.150 C 582.250 344.688 582.150 344.588 582.150 344.688 V 347.588 C 582.150 347.644 582.195 347.688 582.250 347.688 H 587.868 H 589.600 C 589.636 347.688 589.669 347.669 589.687 347.638 L 590.553 346.138 L 593.362 341.273 C 593.389 341.225 593.373 341.164 593.325 341.136 L 590.814 339.686 C 590.727 339.636 590.764 339.773 590.814 339.686 L 593.864 334.404 C 593.914 334.317 593.777 334.354 593.864 334.404 L 596.375 335.854 C 596.423 335.881 596.484 335.865 596.512 335.817 L 599.362 330.881 C 599.389 330.833 599.373 330.772 599.325 330.744 L 596.814 329.294 C 596.727 329.244 596.764 329.381 596.814 329.294 L 599.864 324.011 C 599.914 323.925 599.777 323.961 599.864 324.011 L 602.375 325.461 C 602.423 325.489 602.484 325.473 602.512 325.425 L 605.362 320.488 C 605.389 320.441 605.373 320.379 605.325 320.352 L 602.814 318.902 C 602.727 318.852 602.764 318.988 602.814 318.902 L 605.864 313.619 C 605.914 313.533 605.777 313.569 605.864 313.619 L 608.375 315.069 C 608.423 315.097 608.484 315.080 608.512 315.033 L 611.362 310.096 C 611.389 310.048 611.373 309.987 611.325 309.960 L 608.814 308.510 C 608.727 308.460 608.764 308.596 608.814 308.510 L 611.864 303.227 C 611.914 303.140 611.777 303.177 611.864 303.227 L 614.375 304.677 C 614.423 304.704 614.484 304.688 614.512 304.640 L 617.362 299.704 C 617.389 299.656 617.373 299.595 617.325 299.567 L 614.814 298.117 C 614.727 298.067 614.764 298.204 614.814 298.117 L 617.864 292.835 C 617.914 292.748 617.777 292.785 617.864 292.835 L 620.375 294.285 C 620.423 294.312 620.484 294.296 620.512 294.248 L 623.362 289.312 C 623.389 289.264 623.373 289.203 623.325 289.175 L 620.814 287.725 C 620.727 287.675 620.764 287.812 620.814 287.725 L 623.864 282.442 C 623.914 282.356 623.777 282.392 623.864 282.442 L 626.375 283.892 C 626.423 283.920 626.484 283.903 626.512 283.856 L 629.362 278.919 C 629.389 278.871 629.373 278.810 629.325 278.783 L 626.814 277.333 C 626.727 277.283 626.764 277.419 626.814 277.333 L 629.864 272.050 C 629.914 271.963 629.777 272.000 629.864 272.050 L 632.375 273.500 C 632.423 273.528 632.484 273.511 632.512 273.463 L 635.362 268.527 C 635.389 268.479 635.373 268.418 635.325 268.390 L 632.814 266.940 C 632.727 266.890 632.764 267.027 632.814 266.940 L 635.864 261.658 C 635.914 261.571 635.777 261.608 635.864 261.658 L 638.375 263.108 C 638.423 263.135 638.484 263.119 638.512 263.071 L 641.362 258.135 C 641.389 258.087 641.373 258.026 641.325 257.998 L 638.814 256.548 C 638.727 256.498 638.764 256.635 638.814 256.548 L 641.864 251.265 C 641.914 251.179 641.777 251.215 641.864 251.265 L 644.375 252.715 C 644.423 252.743 644.484 252.727 644.512 252.679 L 647.362 247.742 C 647.389 247.695 647.373 247.633 647.325 247.606 L 644.814 246.156 C 644.727 246.106 644.764 246.242 644.814 246.156 L 647.864 240.873 C 647.914 240.786 647.777 240.823 647.864 240.873 L 650.375 242.323 C 650.423 242.351 650.484 242.334 650.512 242.286 L 653.362 237.350 C 653.389 237.302 653.373 237.241 653.325 237.213 L 650.814 235.763 C 650.727 235.713 650.764 235.850 650.814 235.763 L 653.864 230.481 C 653.914 230.394 653.777 230.431 653.864 230.481 L 656.375 231.931 C 656.423 231.958 656.484 231.942 656.512 231.894 L 659.362 226.958 C 659.389 226.910 659.373 226.849 659.325 226.821 L 656.814 225.371 C 656.727 225.321 656.764 225.458 656.814 225.371 L 659.864 220.088 C 659.914 220.002 659.777 220.038 659.864 220.088 L 662.375 221.538 C 662.423 221.566 662.484 221.550 662.512 221.502 L 665.362 216.565 C 665.389 216.518 665.373 216.456 665.325 216.429 L 662.814 214.979 C 662.727 214.929 662.764 215.065 662.814 214.979 L 665.864 209.696 C 665.914 209.609 665.777 209.646 665.864 209.696 L 668.375 211.146 C 668.423 211.174 668.484 211.157 668.512 211.109 L 671.321 206.244 L 672.187 204.744 C 672.204 204.713 672.204 204.675 672.187 204.644 L 671.321 203.144 L 668.512 198.279 C 668.484 198.231 668.423 198.215 668.375 198.242 L 665.864 199.692 C 665.777 199.742 665.914 199.779 665.864 199.692 L 662.814 194.410 C 662.764 194.323 662.727 194.460 662.814 194.410 L 665.325 192.960 C 665.373 192.932 665.389 192.871 665.362 192.823 L 662.512 187.887 C 662.484 187.839 662.423 187.822 662.375 187.850 L 659.864 189.300 C 659.777 189.350 659.914 189.387 659.864 189.300 L 656.814 184.017 C 656.764 183.931 656.727 184.067 656.814 184.017 L 659.325 182.567 C 659.373 182.540 659.389 182.478 659.362 182.431 L 656.512 177.494 C 656.484 177.446 656.423 177.430 656.375 177.458 L 653.864 178.908 C 653.777 178.958 653.914 178.994 653.864 178.908 L 650.814 173.625 C 650.764 173.538 650.727 173.675 650.814 173.625 L 653.325 172.175 C 653.373 172.147 653.389 172.086 653.362 172.038 L 650.512 167.102 C 650.484 167.054 650.423 167.038 650.375 167.065 L 647.864 168.515 C 647.777 168.565 647.914 168.602 647.864 168.515 L 644.814 163.233 C 644.764 163.146 644.727 163.283 644.814 163.233 L 647.325 161.783 C 647.373 161.755 647.389 161.694 647.362 161.646 L 644.512 156.710 C 644.484 156.662 644.423 156.645 644.375 156.673 L 641.864 158.123 C 641.777 158.173 641.914 158.210 641.864 158.123 L 638.814 152.840 C 638.764 152.754 638.727 152.890 638.814 152.840 L 641.325 151.390 C 641.373 151.363 641.389 151.302 641.362 151.254 L 638.512 146.317 C 638.484 146.270 638.423 146.253 638.375 146.281 L 635.864 147.731 C 635.777 147.781 635.914 147.817 635.864 147.731 L 632.814 142.448 C 632.764 142.361 632.727 142.498 632.814 142.448 L 635.325 140.998 C 635.373 140.970 635.389 140.909 635.362 140.861 L 632.512 135.925 C 632.484 135.877 632.423 135.861 632.375 135.888 L 629.864 137.338 C 629.777 137.388 629.914 137.425 629.864 137.338 L 626.814 132.056 C 626.764 131.969 626.727 132.106 626.814 132.056 L 629.325 130.606 C 629.373 130.578 629.389 130.517 629.362 130.469 L 626.512 125.533 C 626.484 125.485 626.423 125.469 626.375 125.496 L 623.864 126.946 C 623.777 126.996 623.914 127.033 623.864 126.946 L 620.814 121.663 C 620.764 121.577 620.727 121.713 620.814 121.663 L 623.325 120.213 C 623.373 120.186 623.389 120.125 623.362 120.077 L 620.512 115.140 C 620.484 115.093 620.423 115.076 620.375 115.104 L 617.864 116.554 C 617.777 116.604 617.914 116.640 617.864 116.554 L 614.814 111.271 C 614.764 111.185 614.727 111.321 614.814 111.271 L 617.325 109.821 C 617.373 109.793 617.389 109.732 617.362 109.685 L 614.512 104.748 C 614.484 104.700 614.423 104.684 614.375 104.712 L 611.864 106.162 C 611.777 106.212 611.914 106.248 611.864 106.162 L 608.814 100.879 C 608.764 100.792 608.727 100.929 608.814 100.879 L 611.325 99.429 C 611.373 99.401 611.389 99.340 611.362 99.292 L 608.512 94.356 C 608.484 94.308 608.423 94.292 608.375 94.319 L 605.864 95.769 C 605.777 95.819 605.914 95.856 605.864 95.769 L 602.814 90.486 C 602.764 90.400 602.727 90.536 602.814 90.486 L 605.325 89.036 C 605.373 89.009 605.389 88.948 605.362 88.900 L 602.512 83.964 C 602.484 83.916 602.423 83.899 602.375 83.927 L 599.864 85.377 C 599.777 85.427 599.914 85.464 599.864 85.377 L 596.814 80.094 C 596.764 80.008 596.727 80.144 596.814 80.094 L 599.325 78.644 C 599.373 78.617 599.389 78.555 599.362 78.508 L 596.512 73.571 C 596.484 73.523 596.423 73.507 596.375 73.535 L 593.864 74.985 C 593.777 75.035 593.914 75.071 593.864 74.985 L 590.814 69.702 C 590.764 69.615 590.727 69.752 590.814 69.702 L 593.325 68.252 C 593.373 68.224 593.389 68.163 593.362 68.115 L 590.553 63.250 L 589.687 61.750 C 589.669 61.719 589.636 61.700 589.600 61.700 H 587.868 H 582.250 C 582.195 61.700 582.150 61.745 582.150 61.800 V 64.700 C 582.150 64.800 582.250 64.700 582.150 64.700 H 576.050 C 575.950 64.700 576.050 64.800 576.050 64.700 V 61.800 C 576.050 61.745 576.005 61.700 575.950 61.700 H 570.250 C 570.195 61.700 570.150 61.745 570.150 61.800 V 64.700 C 570.150 64.800 570.250 64.700 570.150 64.700 H 564.050 C 563.950 64.700 564.050 64.800 564.050 64.700 V 61.800 C 564.050 61.745 564.005 61.700 563.950 61.700 H 558.250 C 558.195 61.700 558.150 61.745 558.150 61.800 V 64.700 C 558.150 64.800 558.250 64.700 558.150 64.700 H 552.050 C 551.950 64.700 552.050 64.800 552.050 64.700 V 61.800 C 552.050 61.745 552.005 61.700 551.950 61.700 H 546.250 C 546.195 61.700 546.150 61.745 546.150 61.800 V 64.700 C 546.150 64.800 546.250 64.700 546.150 64.700 H 540.050 C 539.950 64.700 540.050 64.800 540.050 64.700 V 61.800 C 540.050 61.745 540.005 61.700 539.950 61.700 H 534.250 C 534.195 61.700 534.150 61.745 534.150 61.800 V 64.700 C 534.150 64.800 534.250 64.700 534.150 64.700 H 528.050 C 527.950 64.700 528.050 64.800 528.050 64.700 V 61.800 C 528.050 61.745 528.005 61.700 527.950 61.700 H 522.250 C 522.195 61.700 522.150 61.745 522.150 61.800 V 64.700 C 522.150 64.800 522.250 64.700 522.150 64.700 H 516.050 C 515.950 64.700 516.050 64.800 516.050 64.700 V 61.800 C 516.050 61.745 516.005 61.700 515.950 61.700 H 510.250 C 510.195 61.700 510.150 61.745 510.150 61.800 V 64.700 C 510.150 64.800 510.250 64.700 510.150 64.700 H 504.050 C 503.950 64.700 504.050 64.800 504.050 64.700 V 61.800 C 504.050 61.745 504.005 61.700 503.950 61.700 H 498.250 C 498.195 61.700 498.150 61.745 498.150 61.800 V 64.700 C 498.150 64.800 498.250 64.700 498.150 64.700 H 492.050 C 491.950 64.700 492.050 64.800 492.050 64.700 V 61.800 C 492.050 61.745 492.005 61.700 491.950 61.700 H 486.250 C 486.195 61.700 486.150 61.745 486.150 61.800 V 64.700 C 486.150 64.800 486.250 64.700 486.150 64.700 H 480.050 C 479.950 64.700 480.050 64.800 480.050 64.700 V 61.800 C 480.050 61.745 480.005 61.700 479.950 61.700 H 474.250 C 474.195 61.700 474.150 61.745 474.150 61.800 V 64.700 C 474.150 64.800 474.250 64.700 474.150 64.700 H 468.050 C 467.950 64.700 468.050 64.800 468.050 64.700 V 61.800 C 468.050 61.745 468.005 61.700 467.950 61.700 H 462.250 C 462.195 61.700 462.150 61.745 462.150 61.800 V 64.700 C 462.150 64.800 462.250 64.700 462.150 64.700 H 456.050 C 455.950 64.700 456.050 64.800 456.050 64.700 V 61.800 C 456.050 61.745 456.005 61.700 455.950 61.700 H 450.250 C 450.195 61.700 450.150 61.745 450.150 61.800 V 64.700 C 450.150 64.800 450.250 64.700 450.150 64.700 H 444.050 C 443.950 64.700 444.050 64.800 444.050 64.700 V 61.800 C 444.050 61.745 444.005 61.700 443.950 61.700 H 438.250 C 438.195 61.700 438.150 61.745 438.150 61.800 V 64.700 C 438.150 64.800 438.250 64.700 438.150 64.700 H 432.050 C 431.950 64.700 432.050 64.800 432.050 64.700 V 61.800 C 432.050 61.745 432.005 61.700 431.950 61.700 H 426.332 H 424.600 C 424.564 61.700 424.531 61.719 424.513 61.750 L 423.647 63.250 L 420.838 68.115 C 420.811 68.163 420.827 68.224 420.875 68.252 L 423.386 69.702 C 423.473 69.752 423.436 69.615 423.386 69.702 L 420.336 74.985 C 420.286 75.071 420.423 75.035 420.336 74.985 L 417.825 73.535 C 417.777 73.507 417.716 73.523 417.688 73.571 L 414.838 78.508 C 414.811 78.555 414.827 78.617 414.875 78.644 L 417.386 80.094 C 417.473 80.144 417.436 80.008 417.386 80.094 L 414.336 85.377 C 414.286 85.464 414.423 85.427 414.336 85.377 L 411.825 83.927 C 411.777 83.899 411.716 83.916 411.688 83.964 L 408.838 88.900 C 408.811 88.948 408.827 89.009 408.875 89.036 L 411.386 90.486 C 411.473 90.536 411.436 90.400 411.386 90.486 L 408.336 95.769 C 408.286 95.856 408.423 95.819 408.336 95.769 L 405.825 94.319 C 405.777 94.292 405.716 94.308 405.688 94.356 L 402.838 99.292 C 402.811 99.340 402.827 99.401 402.875 99.429 L 405.386 100.879 C 405.473 100.929 405.436 100.792 405.386 100.879 L 402.336 106.162 C 402.286 106.248 402.423 106.212 402.336 106.162 L 399.825 104.712 C 399.777 104.684 399.716 104.700 399.688 104.748 L 396.838 109.685 C 396.811 109.732 396.827 109.793 396.875 109.821 L 399.386 111.271 C 399.473 111.321 399.436 111.185 399.386 111.271 L 396.336 116.554 C 396.286 116.640 396.423 116.604 396.336 116.554 L 393.825 115.104 C 393.777 115.076 393.716 115.093 393.688 115.140 L 390.838 120.077 C 390.811 120.125 390.827 120.186 390.875 120.213 L 393.386 121.663 C 393.473 121.713 393.436 121.577 393.386 121.663 L 390.336 126.946 C 390.286 127.033 390.423 126.996 390.336 126.946 L 387.825 125.496 C 387.777 125.469 387.716 125.485 387.688 125.533 L 384.838 130.469 C 384.811 130.517 384.827 130.578 384.875 130.606 L 387.386 132.056 C 387.473 132.106 387.436 131.969 387.386 132.056 L 384.336 137.338 C 384.286 137.425 384.423 137.388 384.336 137.338 L 381.825 135.888 C 381.777 135.861 381.716 135.877 381.688 135.925 L 378.838 140.861 C 378.811 140.909 378.827 140.970 378.875 140.998 L 381.386 142.448 C 381.473 142.498 381.436 142.361 381.386 142.448 L 378.336 147.731 C 378.286 147.817 378.423 147.781 378.336 147.731 L 375.825 146.281 C 375.777 146.253 375.716 146.270 375.688 146.317 L 372.838 151.254 C 372.811 151.302 372.827 151.363 372.875 151.390 L 375.386 152.840 C 375.473 152.890 375.436 152.754 375.386 152.840 L 372.336 158.123 C 372.286 158.210 372.423 158.173 372.336 158.123 L 369.825 156.673 C 369.777 156.645 369.716 156.662 369.688 156.710 L 366.838 161.646 C 366.811 161.694 366.827 161.755 366.875 161.783 L 369.386 163.233 C 369.473 163.283 369.436 163.146 369.386 163.233 L 366.336 168.515 C 366.286 168.602 366.423 168.565 366.336 168.515 L 363.825 167.065 C 363.777 167.038 363.716 167.054 363.688 167.102 L 360.838 172.038 C 360.811 172.086 360.827 172.147 360.875 172.175 L 363.386 173.625 C 363.473 173.675 363.436 173.538 363.386 173.625 L 360.336 178.908 C 360.286 178.994 360.423 178.958 360.336 178.908 L 357.825 177.458 C 357.777 177.430 357.716 177.446 357.688 177.494 L 354.838 182.431 C 354.811 182.478 354.827 182.540 354.875 182.567 L 357.386 184.017 C 357.473 184.067 357.436 183.931 357.386 184.017 L 354.336 189.300 C 354.286 189.387 354.423 189.350 354.336 189.300 L 351.825 187.850 C 351.777 187.822 351.716 187.839 351.688 187.887 L 348.838 192.823 C 348.811 192.871 348.827 192.932 348.875 192.960 L 351.386 194.410 C 351.473 194.460 351.436 194.323 351.386 194.410 L 348.336 199.692 C 348.286 199.779 348.423 199.742 348.336 199.692 L 345.825 198.242 C 345.777 198.215 345.716 198.231 345.688 198.279 L 342.879 203.144 L 342.013 204.644 C 341.996 204.675 341.996 204.713 342.013 204.744 L 342.879 206.244 L 345.688 211.109 C 345.716 211.157 345.777 211.174 345.825 211.146 L 348.336 209.696 C 348.423 209.646 348.286 209.609 348.336 209.696 L 351.386 214.979 C 351.436 215.065 351.473 214.929 351.386 214.979 L 348.875 216.429 C 348.827 216.456 348.811 216.518 348.838 216.565 L 351.688 221.502 C 351.716 221.550 351.777 221.566 351.825 221.538 L 354.336 220.088 C 354.423 220.038 354.286 220.002 354.336 220.088 L 357.386 225.371 C 357.436 225.458 357.473 225.321 357.386 225.371 L 354.875 226.821 C 354.827 226.849 354.811 226.910 354.838 226.958 L 357.688 231.894 C 357.716 231.942 357.777 231.958 357.825 231.931 L 360.336 230.481 C 360.423 230.431 360.286 230.394 360.336 230.481 L 363.386 235.763 C 363.436 235.850 363.473 235.713 363.386 235.763 L 360.875 237.213 C 360.827 237.241 360.811 237.302 360.838 237.350 L 363.688 242.286 C 363.716 242.334 363.777 242.351 363.825 242.323 L 366.336 240.873 C 366.423 240.823 366.286 240.786 366.336 240.873 L 369.386 246.156 C 369.436 246.242 369.473 246.106 369.386 246.156 L 366.875 247.606 C 366.827 247.633 366.811 247.695 366.838 247.742 L 369.688 252.679 C 369.716 252.727 369.777 252.743 369.825 252.715 L 372.336 251.265 C 372.423 251.215 372.286 251.179 372.336 251.265 L 375.386 256.548 C 375.436 256.635 375.473 256.498 375.386 256.548 L 372.875 257.998 C 372.827 258.026 372.811 258.087 372.838 258.135 L 375.688 263.071 C 375.716 263.119 375.777 263.135 375.825 263.108 L 378.336 261.658 C 378.423 261.608 378.286 261.571 378.336 261.658 L 381.386 266.940 C 381.436 267.027 381.473 266.890 381.386 266.940 L 378.875 268.390 C 378.827 268.418 378.811 268.479 378.838 268.527 L 381.688 273.463 C 381.716 273.511 381.777 273.528 381.825 273.500 L 384.336 272.050 C 384.423 272.000 384.286 271.963 384.336 272.050 L 387.386 277.333 C 387.436 277.419 387.473 277.283 387.386 277.333 L 384.875 278.783 C 384.827 278.810 384.811 278.871 384.838 278.919 L 387.688 283.856 C 387.716 283.903 387.777 283.920 387.825 283.892 L 390.336 282.442 C 390.423 282.392 390.286 282.356 390.336 282.442 L 393.386 287.725 C 393.436 287.812 393.473 287.675 393.386 287.725 L 390.875 289.175 C 390.827 289.203 390.811 289.264 390.838 289.312 L 393.688 294.248 C 393.716 294.296 393.777 294.312 393.825 294.285 L 396.336 292.835 C 396.423 292.785 396.286 292.748 396.336 292.835 L 399.386 298.117 C 399.436 298.204 399.473 298.067 399.386 298.117 L 396.875 299.567 C 396.827 299.595 396.811 299.656 396.838 299.704 L 399.688 304.640 C 399.716 304.688 399.777 304.704 399.825 304.677 L 402.336 303.227 C 402.423 303.177 402.286 303.140 402.336 303.227 L 405.386 308.510 C 405.436 308.596 405.473 308.460 405.386 308.510 L 402.875 309.960 C 402.827 309.987 402.811 310.048 402.838 310.096 L 405.688 315.033 C 405.716 315.080 405.777 315.097 405.825 315.069 L 408.336 313.619 C 408.423 313.569 408.286 313.533 408.336 313.619 L 411.386 318.902 C 411.436 318.988 411.473 318.852 411.386 318.902 L 408.875 320.352 C 408.827 320.379 408.811 320.441 408.838 320.488 L 411.688 325.425 C 411.716 325.473 411.777 325.489 411.825 325.461 L 414.336 324.011 C 414.423 323.961 414.286 323.925 414.336 324.011 L 417.386 329.294 C 417.436 329.381 417.473 329.244 417.386 329.294 L 414.875 330.744 C 414.827 330.772 414.811 330.833 414.838 330.881 L 417.688 335.817 C 417.716 335.865 417.777 335.881 417.825 335.854 L 420.336 334.404 C 420.423 334.354 420.286 334.317 420.336 334.404 L 423.386 339.686 C 423.436 339.773 423.473 339.636 423.386 339.686 L 420.875 341.136 C 420.827 341.164 420.811 341.225 420.838 341.273 L 423.647 346.138 L 424.513 347.638 C 424.531 347.669 424.564 347.688 424.600 347.688 H 426.332 Z" stroke="rgb(0,0,0)" stroke-width="0.20"/>
</g>
<g id="p-3" style="fill:none;stroke-linecap:round;stroke-linejoin:round;">
  <path d="M 12.132 57.200 H 17.800 C 17.900 57.200 17.800 57.100 17.800 57.200 V 60.100 C 17.800 60.155 17.845 60.200 17.900 60.200 H 23.900 C 23.955 60.200 24.000 60.155 24.000 60.100 V 57.200 C 24.000 57.100 23.900 57.200 24.000 57.200 H 29.800 C 29.900 57.200 29.800 57.100 29.800 57.200 V 60.100 C 29.800 60.155 29.845 60.200 29.900 60.200 H 35.900 C 35.955 60.200 36.000 60.155 36.000 60.100 V 57.200 C 36.000 57.100 35.900 57.200 36.000 57.200 H 41.800 C 41.900 57.200 41.800 57.100 41.800 57.200 V 60.100 C 41.800 60.155 41.845 60.200 41.900 60.200 H 47.900 C 47.955 60.200 48.000 60.155 48.000 60.100 V 57.200 C 48.000 57.100 47.900 57.200 48.000 57.200 H 53.800 C 53.900 57.200 53.800 57.100 53.800 57.200 V 60.100 C 53.800 60.155 53.845 60.200 53.900 60.200 H 59.900 C 59.955 60.200 60.000 60.155 60.000 60.100 V 57.200 C 60.000 57.100 59.900 57.200 60.000 57.200 H 65.800 C 65.900 57.200 65.800 57.100 65.800 57.200 V 60.100 C 65.800 60.155 65.845 60.200 65.900 60.200 H 71.900 C 71.955 60.200 72.000 60.155 72.000 60.100 V 57.200 C 72.000 57.100 71.900 57.200 72.000 57.200 H 77.800 C 77.900 57.200 77.800 57.100 77.800 57.200 V 60.100 C 77.800 60.155 77.845 60.200 77.900 60.200 H 83.900 C 83.955 60.200 84.000 60.155 84.000 60.100 V 57.200 C 84.000 57.100 83.900 57.200 84.000 57.200 H 89.800 C 89.900 57.200 89.800 57.100 89.800 57.200 V 60.100 C 89.800 60.155 89.845 60.200 89.900 60.200 H 95.900 C 95.955 60.200 96.000 60.155 96.000 60.100 V 57.200 C 96.000 57.100 95.900 57.200 96.000 57.200 H 101.800 C 101.900 57.200 101.800 57.100 101.800 57.200 V 60.100 C 101.800 60.155 101.845 60.200 101.900 60.200 H 107.900 C 107.955 60.200 108.000 60.155 108.000 60.100 V 57.200 C 108.000 57.100 107.900 57.200 108.000 57.200 H 113.800 C 113.900 57.200 113.800 57.100 113.800 57.200 V 60.100 C 113.800 60.155 113.845 60.200 113.900 60.200 H 119.900 C 119.955 60.200 120.000 60.155 120.000 60.100 V 57.200 C 120.000 57.100 119.900 57.200 120.000 57.200 H 125.800 C 125.900 57.200 125.800 57.100 125.800 57.200 V 60.100 C 125.800 60.155 125.845 60.200 125.900 60.200 H 131.900 C 131.955 60.200 132.000 60.155 132.000 60.100 V 57.200 C 132.000 57.100 131.900 57.200 132.000 57.200 H 137.800 C 137.900 57.200 137.800 57.100 137.800 57.200 V 60.100 C 137.800 60.155 137.845 60.200 137.900 60.200 H 143.900 C 143.955 60.200 144.000 60.155 144.000 60.100 V 57.200 C 144.000 57.100 143.900 57.200 144.000 57.200 H 149.800 C 149.900 57.200 149.800 57.100 149.800 57.200 V 60.100 C 149.800 60.155 149.845 60.200 149.900 60.200 H 155.900 C 155.955 60.200 156.000 60.155 156.000 60.100 V 57.200 C 156.000 57.100 155.900 57.200 156.000 57.200 H 161.800 C 161.900 57.200 161.800 57.100 161.800 57.200 V 60.100 C 161.800 60.155 161.845 60.200 161.900 60.200 H 167.900 C 167.955 60.200 168.000 60.155 168.000 60.100 V 57.200 C 168.000 57.100 167.900 57.200 168.000 57.200 H 173.668 H 175.400 C 175.455 57.200 175.500 57.155 175.500 57.100 V 50.250 C 175.500 50.195 175.455 50.150 175.400 50.150 H 172.902 C 172.802 50.150 172.902 50.250 172.902 50.150 V 44.050 C 172.902 43.950 172.802 44.050 172.902 44.050 H 175.400 C 175.455 44.050 175.500 44.005 175.500 43.950 V 38.250 C 175.500 38.195 175.455 38.150 175.400 38.150 H 172.902 C 172.802 38.150 172.902 38.250 172.902 38.150 V 32.050 C 172.902 31.950 172.802 32.050 172.902 32.050 H 175.400 C 175.455 32.050 175.500 32.005 175.500 31.950 V 26.250 C 175.500 26.195 175.455 26.150 175.400 26.150 H 172.902 C 172.802 26.150 172.902 26.250 172.902 26.150 V 20.050 C 172.902 19.950 172.802 20.050 172.902 20.050 H 175.400 C 175.455 20.050 175.500 20.005 175.500 19.950 V 13.100 C 175.500 13.045 175.455 13.000 175.400 13.000 H 173.668 H 168.000 C 167.900 13.000 168.000 13.100 168.000 13.000 V 10.100 C 168.000 10.045 167.955 10.000 167.900 10.000 H 161.900 C 161.845 10.000 161.800 10.045 161.800 10.100 V 13.000 C 161.800 13.100 161.900 13.000 161.800 13.000 H 156.000 C 155.900 13.000 156.000 13.100 156.000 13.000 V 10.100 C 156.000 10.045 155.955 10.000 155.900 10.000 H 149.900 C 149.845 10.000 149.800 10.045 149.800 10.100 V 13.000 C 149.800 13.100 149.900 13.000 149.800 13.000 H 144.000 C 143.900 13.000 144.000 13.100 144.000 13.000 V 10.100 C 144.000 10.045 143.955 10.000 143.900 10.000 H 137.900 C 137.845 10.000 137.800 10.045 137.800 10.100 V 13.000 C 137.800 13.100 137.900 13.000 137.800 13.000 H 132.000 C 131.900 13.000 132.000 13.100 132.000 13.000 V 10.100 C 132.000 10.045 131.955 10.000 131.900 10.000 H 125.900 C 125.845 10.000 125.800 10.045 125.800 10.100 V 13.000 C 125.800 13.100 125.900 13.000 125.800 13.000 H 120.000 C 119.900 13.000 120.000 13.100 120.000 13.000 V 10.100 C 120.000 10.045 119.955 10.000 119.900 10.000 H 113.900 C 113.845 10.000 113.800 10.045 113.800 10.100 V 13.000 C 113.800 13.100 113.900 13.000 113.800 13.000 H 108.000 C 107.900 13.000 108.000 13.100 108.000 13.000 V 10.100 C 108.000 10.045 107.955 10.000 107.900 10.000 H 101.900 C 101.845 10.000 101.800 10.045 101.800 10.100 V 13.000 C 101.800 13.100 101.900 13.000 101.800 13.000 H 96.000 C 95.900 13.000 96.000 13.100 96.000 13.000 V 10.100 C 96.000 10.045 95.955 10.000 95.900 10.000 H 89.900 C 89.845 10.000 89.800 10.045 89.800 10.100 V 13.000 C 89.800 13.100 89.900 13.000 89.800 13.000 H 84.000 C 83.900 13.000 84.000 13.100 84.000 13.000 V 10.100 C 84.000 10.045 83.955 10.000 83.900 10.000 H 77.900 C 77.845 10.000 77.800 10.045 77.800 10.100 V 13.000 C 77.800 13.100 77.900 13.000 77.800 13.000 H 72.000 C 71.900 13.000 72.000 13.100 72.000 13.000 V 10.100 C 72.000 10.045 71.955 10.000 71.900 10.000 H 65.900 C 65.845 10.000 65.800 10.045 65.800 10.100 V 13.000 C 65.800 13.100 65.900 13.000 65.800 13.000 H 60.000 C 59.900 13.000 60.000 13.100 60.000 13.000 V 10.100 C 60.000 10.045 59.955 10.000 59.900 10.000 H 53.900 C 53.845 10.000 53.800 10.045 53.800 10.100 V 13.000 C 53.800 13.100 53.900 13.000 53.800 13.000 H 48.000 C 47.900 13.000 48.000 13.100 48.000 13.000 V 10.100 C 48.000 10.045 47.955 10.000 47.900 10.000 H 41.900 C 41.845 10.000 41.800 10.045 41.800 10.100 V 13.000 C 41.800 13.100 41.900 13.000 41.800 13.000 H 36.000 C 35.900 13.000 36.000 13.100 36.000 13.000 V 10.100 C 36.000 10.045 35.955 10.000 35.900 10.000 H 29.900 C 29.845 10.000 29.800 10.045 29.800 10.100 V 13.000 C 29.800 13.100 29.900 13.000 29.800 13.000 H 24.000 C 23.900 13.000 24.000 13.100 24.000 13.000 V 10.100 C 24.000 10.045 23.955 10.000 23.900 10.000 H 17.900 C 17.845 10.000 17.800 10.045 17.800 10.100 V 13.000 C 17.800 13.100 17.900 13.000 17.800 13.000 H 12.132 H 10.400 C 10.345 13.000 10.300 13.045 10.300 13.100 V 19.950 C 10.300 20.005 10.345 20.050 10.400 20.050 H 12.898 C 12.998 20.050 12.898 19.950 12.898 20.050 V 26.150 C 12.898 26.250 12.998 26.150 12.898 26.150 H 10.400 C 10.345 26.150 10.300 26.195 10.300 26.250 V 31.950 C 10.300 32.005 10.345 32.050 10.400 32.050 H 12.898 C 12.998 32.050 12.898 31.950 12.898 32.050 V 38.150 C 12.898 38.250 12.998 38.150 12.898 38.150 H 10.400 C 10.345 38.150 10.300 38.195 10.300 38.250 V 43.950 C 10.300 44.005 10.345 44.050 10.400 44.050 H 12.898 C 12.998 44.050 12.898 43.950 12.898 44.050 V 50.150 C 12.898 50.250 12.998 50.150 12.898 50.150 H 10.400 C 10.345 50.150 10.300 50.195 10.300 50.250 V 57.100 C 10.300 57.155 10.345 57.200 10.400 57.200 H 12.132 Z" stroke="rgb(0,0,0)" stroke-width="0.20"/>
</g>
<g id="p-4" style="fill:none;stroke-linecap:round;stroke-linejoin:round;">
  <path d="M 178.832 57.200 H 184.500 C 184.600 57.200 184.500 57.100 184.500 57.200 V 60.100 C 184.500 60.155 184.545 60.200 184.600 60.200 H 190.600 C 190.655 60.200 190.700 60.155 190.700 60.100 V 57.200 C 190.700 57.100 190.600 57.200 190.700 57.200 H 196.500 C 196.600 57.200 196.500 57.100 196.500 57.200 V 60.100 C 196.500 60.155 196.545 60.200 196.600 60.200 H 202.600 C 202.655 60.200 202.700 60.155 202.700 60.100 V 57.200 C 202.700 57.100 202.600 57.200 202.700 57.200 H 208.500 C 208.600 57.200 208.500 57.100 208.500 57.200 V 60.100 C 208.500 60.155 208.545 60.200 208.600 60.200 H 214.600 C 214.655 60.200 214.700 60.155 214.700 60.100 V 57.200 C 214.700 57.100 214.600 57.200 214.700 57.200 H 220.500 C 220.600 57.200 220.500 57.100 220.500 57.200 V 60.100 C 220.500 60.155 220.545 60.200 220.600 60.200 H 226.600 C 226.655 60.200 226.700 60.155 226.700 60.100 V 57.200 C 226.700 57.100 226.600 57.200 226.700 57.200 H 232.500 C 232.600 57.200 232.500 57.100 232.500 57.200 V 60.100 C 232.500 60.155 232.545 60.200 232.600 60.200 H 238.600 C 238.655 60.200 238.700 60.155 238.700 60.100 V 57.200 C 238.700 57.100 238.600 57.200 238.700 57.200 H 244.500 C 244.600 57.200 244.500 57.100 244.500 57.200 V 60.100 C 244.500 60.155 244.545 60.200 244.600 60.200 H 250.600 C 250.655 60.200 250.700 60.155 250.700 60.100 V 57.200 C 250.700 57.100 250.600 57.200 250.700 57.200 H 256.500 C 256.600 57.200 256.500 57.100 256.500 57.200 V 60.100 C 256.500 60.155 256.545 60.200 256.600 60.200 H 262.600 C 262.655 60.200 262.700 60.155 262.700 60.100 V 57.200 C 262.700 57.100 262.600 57.200 262.700 57.200 H 268.500 C 268.600 57.200 268.500 57.100 268.500 57.200 V 60.100 C 268.500 60.155 268.545 60.200 268.600 60.200 H 274.600 C 274.655 60.200 274.700 60.155 274.700 60.100 V 57.200 C 274.700 57.100 274.600 57.200 274.700 57.200 H 280.500 C 280.600 57.200 280.500 57.100 280.500 57.200 V 60.100 C 280.500 60.155 280.545 60.200 280.600 60.200 H 286.600 C 286.655 60.200 286.700 60.155 286.700 60.100 V 57.200 C 286.700 57.100 286.600 57.200 286.700 57.200 H 292.500 C 292.600 57.200 292.500 57.100 292.500 57.200 V 60.100 C 292.500 60.155 292.545 60.200 292.600 60.200 H 298.600 C 298.655 60.200 298.700 60.155 298.700 60.100 V 57.200 C 298.700 57.100 298.600 57.200 298.700 57.200 H 304.500 C 304.600 57.200 304.500 57.100 304.500 57.200 V 60.100 C 304.500 60.155 304.545 60.200 304.600 60.200 H 310.600 C 310.655 60.200 310.700 60.155 310.700 60.100 V 57.200 C 310.700 57.100 310.600 57.200 310.700 57.200 H 316.500 C 316.600 57.200 316.500 57.100 316.500 57.200 V 60.100 C 316.500 60.155 316.545 60.200 316.600 60.200 H 322.600 C 322.655 60.200 322.700 60.155 322.700 60.100 V 57.200 C 322.700 57.100 322.600 57.200 322.700 57.200 H 328.500 C 328.600 57.200 328.500 57.100 328.500 57.200 V 60.100 C 328.500 60.155 328.545 60.200 328.600 60.200 H 334.600 C 334.655 60.200 334.700 60.155 334.700 60.100 V 57.200 C 334.700 57.100 334.600 57.200 334.700 57.200 H 340.368 H 339.502 C 339.557 57.200 339.602 57.155 339.602 57.100 V 50.200 C 339.602 50.100 339.502 50.200 339.602 50.200 H 342.100 C 342.155 50.200 342.200 50.155 342.200 50.100 V 44.100 C 342.200 44.045 342.155 44.000 342.100 44.000 H 339.602 C 339.502 44.000 339.602 44.100 339.602 44.000 V 38.200 C 339.602 38.100 339.502 38.200 339.602 38.200 H 342.100 C 342.155 38.200 342.200 38.155 342.200 38.100 V 32.100 C 342.200 32.045 342.155 32.000 342.100 32.000 H 339.602 C 339.502 32.000 339.602 32.100 339.602 32.000 V 26.200 C 339.602 26.100 339.502 26.200 339.602 26.200 H 342.100 C 342.155 26.200 342.200 26.155 342.200 26.100 V 20.100 C 342.200 20.045 342.155 20.000 342.100 20.000 H 339.602 C 339.502 20.000 339.602 20.100 339.602 20.000 V 13.100 C 339.602 13.045 339.557 13.000 339.502 13.000 H 340.368 H 334.700 C 334.600 13.000 334.700 13.100 334.700 13.000 V 10.100 C 334.700 10.045 334.655 10.000 334.600 10.000 H 328.600 C 328.545 10.000 328.500 10.045 328.500 10.100 V 13.000 C 328.500 13.100 328.600 13.000 328.500 13.000 H 322.700 C 322.600 13.000 322.700 13.100 322.700 13.000 V 10.100 C 322.700 10.045 322.655 10.000 322.600 10.000 H 316.600 C 316.545 10.000 316.500 10.045 316.500 10.100 V 13.000 C 316.500 13.100 316.600 13.000 316.500 13.000 H 310.700 C 310.600 13.000 310.700 13.100 310.700 13.000 V 10.100 C 310.700 10.045 310.655 10.000 310.600 10.000 H 304.600 C 304.545 10.000 304.500 10.045 304.500 10.100 V 13.000 C 304.500 13.100 304.600 13.000 304.500 13.000 H 298.700 C 298.600 13.000 298.700 13.100 298.700 13.000 V 10.100 C 298.700 10.045 298.655 10.000 298.600 10.000 H 292.600 C 292.545 10.000 292.500 10.045 292.500 10.100 V 13.000 C 292.500 13.100 292.600 13.000 292.500 13.000 H 286.700 C 286.600 13.000 286.700 13.100 286.700 13.000 V 10.100 C 286.700 10.045 286.655 10.000 286.600 10.000 H 280.600 C 280.545 10.000 280.500 10.045 280.500 10.100 V 13.000 C 280.500 13.100 280.600 13.000 280.500 13.000 H 274.700 C 274.600 13.000 274.700 13.100 274.700 13.000 V 10.100 C 274.700 10.045 274.655 10.000 274.600 10.000 H 268.600 C 268.545 10.000 268.500 10.045 268.500 10.100 V 13.000 C 268.500 13.100 268.600 13.000 268.500 13.000 H 262.700 C 262.600 13.000 262.700 13.100 262.700 13.000 V 10.100 C 262.700 10.045 262.655 10.000 262.600 10.000 H 256.600 C 256.545 10.000 256.500 10.045 256.500 10.100 V 13.000 C 256.500 13.100 256.600 13.000 256.500 13.000 H 250.700 C 250.600 13.000 250.700 13.100 250.700 13.000 V 10.100 C 250.700 10.045 250.655 10.000 250.600 10.000 H 244.600 C 244.545 10.000 244.500 10.045 244.500 10.100 V 13.000 C 244.500 13.100 244.600 13.000 244.500 13.000 H 238.700 C 238.600 13.000 238.700 13.100 238.700 13.000 V 10.100 C 238.700 10.045 238.655 10.000 238.600 10.000 H 232.600 C 232.545 10.000 232.500 10.045 232.500 10.100 V 13.000 C 232.500 13.100 232.600 13.000 232.500 13.000 H 226.700 C 226.600 13.000 226.700 13.100 226.700 13.000 V 10.100 C 226.700 10.045 226.655 10.000 226.600 10.000 H 220.600 C 220.545 10.000 220.500 10.045 220.500 10.100 V 13.000 C 220.500 13.100 220.600 13.000 220.500 13.000 H 214.700 C 214.600 13.000 214.700 13.100 214.700 13.000 V 10.100 C 214.700 10.045 214.655 10.000 214.600 10.000 H 208.600 C 208.545 10.000 208.500 10.045 208.500 10.100 V 13.000 C 208.500 13.100 208.600 13.000 208.500 13.000 H 202.700 C 202.600 13.000 202.700 13.100 202.700 13.000 V 10.100 C 202.700 10.045 202.655 10.000 202.600 10.000 H 196.600 C 196.545 10.000 196.500 10.045 196.500 10.100 V 13.000 C 196.500 13.100 196.600 13.000 196.500 13.000 H 190.700 C 190.600 13.000 190.700 13.100 190.700 13.000 V 10.100 C 190.700 10.045 190.655 10.000 190.600 10.000 H 184.600 C 184.545 10.000 184.500 10.045 184.500 10.100 V 13.000 C 184.500 13.100 184.600 13.000 184.500 13.000 H 178.832 H 179.698 C 179.643 13.000 179.598 13.045 179.598 13.100 V 20.000 C 179.598 20.100 179.698 20.000 179.598 20.000 H 177.100 C 177.045 20.000 177.000 20.045 177.000 20.100 V 26.100 C 177.000 26.155 177.045 26.200 177.100 26.200 H 179.598 C 179.698 26.200 179.598 26.100 179.598 26.200 V 32.000 C 179.598 32.100 179.698 32.000 179.598 32.000 H 177.100 C 177.045 32.000 177.000 32.045 177.000 32.100 V 38.100 C 177.000 38.155 177.045 38.200 177.100 38.200 H 179.598 C 179.698 38.200 179.598 38.100 179.598 38.200 V 44.000 C 179.598 44.100 179.698 44.000 179.598 44.000 H 177.100 C 177.045 44.000 177.000 44.045 177.000 44.100 V 50.100 C 177.000 50.155 177.045 50.200 177.100 50.200 H 179.598 C 179.698 50.200 179.598 50.100 179.598 50.200 V 57.100 C 179.598 57.155 179.643 57.200 179.698 57.200 H 178.832 Z" stroke="rgb(0,0,0)" stroke-width="0.20"/>
</g>
<g id="p-5" style="fill:none;stroke-linecap:round;stroke-linejoin:round;">
  <path d="M 345.532 57.200 H 351.200 C 351.300 57.200 351.200 57.100 351.200 57.200 V 60.100 C 351.200 60.155 351.245 60.200 351.300 60.200 H 357.300 C 357.355 60.200 357.400 60.155 357.400 60.100 V 57.200 C 357.400 57.100 357.300 57.200 357.400 57.200 H 363.200 C 363.300 57.200 363.200 57.100 363.200 57.200 V 60.100 C 363.200 60.155 363.245 60.200 363.300 60.200 H 369.300 C 369.355 60.200 369.400 60.155 369.400 60.100 V 57.200 C 369.400 57.100 369.300 57.200 369.400 57.200 H 375.200 C 375.300 57.200 375.200 57.100 375.200 57.200 V 60.100 C 375.200 60.155 375.245 60.200 375.300 60.200 H 381.300 C 381.355 60.200 381.400 60.155 381.400 60.100 V 57.200 C 381.400 57.100 381.300 57.200 381.400 57.200 H 387.200 C 387.300 57.200 387.200 57.100 387.200 57.200 V 60.100 C 387.200 60.155 387.245 60.200 387.300 60.200 H 393.300 C 393.355 60.200 393.400 60.155 393.400 60.100 V 57.200 C 393.400 57.100 393.300 57.200 393.400 57.200 H 399.200 C 399.300 57.200 399.200 57.100 399.200 57.200 V 60.100 C 399.200 60.155 399.245 60.200 399.300 60.200 H 405.300 C 405.355 60.200 405.400 60.155 405.400 60.100 V 57.200 C 405.400 57.100 405.300 57.200 405.400 57.200 H 411.200 C 411.300 57.200 411.200 57.100 411.200 57.200 V 60.100 C 411.200 60.155 411.245 60.200 411.300 60.200 H 417.300 C 417.355 60.200 417.400 60.155 417.400 60.100 V 57.200 C 417.400 57.100 417.300 57.200 417.400 57.200 H 423.200 C 423.300 57.200 423.200 57.100 423.200 57.200 V 60.100 C 423.200 60.155 423.245 60.200 423.300 60.200 H 429.300 C 429.355 60.200 429.400 60.155 429.400 60.100 V 57.200 C 429.400 57.100 429.300 57.200 429.400 57.200 H 435.200 C 435.300 57.200 435.200 57.100 435.200 57.200 V 60.100 C 435.200 60.155 435.245 60.200 435.300 60.200 H 441.300 C 441.355 60.200 441.400 60.155 441.400 60.100 V 57.200 C 441.400 57.100 441.300 57.200 441.400 57.200 H 447.200 C 447.300 57.200 447.200 57.100 447.200 57.200 V 60.100 C 447.200 60.155 447.245 60.200 447.300 60.200 H 453.300 C 453.355 60.200 453.400 60.155 453.400 60.100 V 57.200 C 453.400 57.100 453.300 57.200 453.400 57.200 H 459.200 C 459.300 57.200 459.200 57.100 459.200 57.200 V 60.100 C 459.200 60.155 459.245 60.200 459.300 60.200 H 465.300 C 465.355 60.200 465.400 60.155 465.400 60.100 V 57.200 C 465.400 57.100 465.300 57.200 465.400 57.200 H 471.200 C 471.300 57.200 471.200 57.100 471.200 57.200 V 60.100 C 471.200 60.155 471.245 60.200 471.300 60.200 H 477.300 C 477.355 60.200 477.400 60.155 477.400 60.100 V 57.200 C 477.400 57.100 477.300 57.200 477.400 57.200 H 483.200 C 483.300 57.200 483.200 57.100 483.200 57.200 V 60.100 C 483.200 60.155 483.245 60.200 483.300 60.200 H 489.300 C 489.355 60.200 489.400 60.155 489.400 60.100 V 57.200 C 489.400 57.100 489.300 57.200 489.400 57.200 H 495.200 C 495.300 57.200 495.200 57.100 495.200 57.200 V 60.100 C 495.200 60.155 495.245 60.200 495.300 60.200 H 501.300 C 501.355 60.200 501.400 60.155 501.400 60.100 V 57.200 C 501.400 57.100 501.300 57.200 501.400 57.200 H 507.068 H 508.800 C 508.855 57.200 508.900 57.155 508.900 57.100 V 50.250 C 508.900 50.195 508.855 50.150 508.800 50.150 H 506.302 C 506.202 50.150 506.302 50.250 506.302 50.150 V 44.050 C 506.302 43.950 506.202 44.050 506.302 44.050 H 508.800 C 508.855 44.050 508.900 44.005 508.900 43.950 V 38.250 C 508.900 38.195 508.855 38.150 508.800 38.150 H 506.302 C 506.202 38.150 506.302 38.250 506.302 38.150 V 32.050 C 506.302 31.950 506.202 32.050 506.302 32.050 H 508.800 C 508.855 32.050 508.900 32.005 508.900 31.950 V 26.250 C 508.900 26.195 508.855 26.150 508.800 26.150 H 506.302 C 506.202 26.150 506.302 26.250 506.302 26.150 V 20.050 C 506.302 19.950 506.202 20.050 506.302 20.050 H 508.800 C 508.855 20.050 508.900 20.005 508.900 19.950 V 13.100 C 508.900 13.045 508.855 13.000 508.800 13.000 H 507.068 H 501.400 C 501.300 13.000 501.400 13.100 501.400 13.000 V 10.100 C 501.400 10.045 501.355 10.000 501.300 10.000 H 495.300 C 495.245 10.000 495.200 10.045 495.200 10.100 V 13.000 C 495.200 13.100 495.300 13.000 495.200 13.000 H 489.400 C 489.300 13.000 489.400 13.100 489.400 13.000 V 10.100 C 489.400 10.045 489.355 10.000 489.300 10.000 H 483.300 C 483.245 10.000 483.200 10.045 483.200 10.100 V 13.000 C 483.200 13.100 483.300 13.000 483.200 13.000 H 477.400 C 477.300 13.000 477.400 13.100 477.400 13.000 V 10.100 C 477.400 10.045 477.355 10.000 477.300 10.000 H 471.300 C 471.245 10.000 471.200 10.045 471.200 10.100 V 13.000 C 471.200 13.100 471.300 13.000 471.200 13.000 H 465.400 C 465.300 13.000 465.400 13.100 465.400 13.000 V 10.100 C 465.400 10.045 465.355 10.000 465.300 10.000 H 459.300 C 459.245 10.000 459.200 10.045 459.200 10.100 V 13.000 C 459.200 13.100 459.300 13.000 459.200 13.000 H 453.400 C 453.300 13.000 453.400 13.100 453.400 13.000 V 10.100 C 453.400 10.045 453.355 10.000 453.300 10.000 H 447.300 C 447.245 10.000 447.200 10.045 447.200 10.100 V 13.000 C 447.200 13.100 447.300 13.000 447.200 13.000 H 441.400 C 441.300 13.000 441.400 13.100 441.400 13.000 V 10.100 C 441.400 10.045 441.355 10.000 441.300 10.000 H 435.300 C 435.245 10.000 435.200 10.045 435.200 10.100 V 13.000 C 435.200 13.100 435.300 13.000 435.200 13.000 H 429.400 C 429.300 13.000 429.400 13.100 429.400 13.000 V 10.100 C 429.400 10.045 429.355 10.000 429.300 10.000 H 423.300 C 423.245 10.000 423.200 10.045 423.200 10.100 V 13.000 C 423.200 13.100 423.300 13.000 423.200 13.000 H 417.400 C 417.300 13.000 417.400 13.100 417.400 13.000 V 10.100 C 417.400 10.045 417.355 10.000 417.300 10.000 H 411.300 C 411.245 10.000 411.200 10.045 411.200 10.100 V 13.000 C 411.200 13.100 411.300 13.000 411.200 13.000 H 405.400 C 405.300 13.000 405.400 13.100 405.400 13.000 V 10.100 C 405.400 10.045 405.355 10.000 405.300 10.000 H 399.300 C 399.245 10.000 399.200 10.045 399.200 10.100 V 13.000 C 399.200 13.100 399.300 13.000 399.200 13.000 H 393.400 C 393.300 13.000 393.400 13.100 393.400 13.000 V 10.100 C 393.400 10.045 393.355 10.000 393.300 10.000 H 387.300 C 387.245 10.000 387.200 10.045 387.200 10.100 V 13.000 C 387.200 13.100 387.300 13.000 387.200 13.000 H 381.400 C 381.300 13.000 381.400 13.100 381.400 13.000 V 10.100 C 381.400 10.045 381.355 10.000 381.300 10.000 H 375.300 C 375.245 10.000 375.200 10.045 375.200 10.100 V 13.000 C 375.200 13.100 375.300 13.000 375.200 13.000 H 369.400 C 369.300 13.000 369.400 13.100 369.400 13.000 V 10.100 C 369.400 10.045 369.355 10.000 369.300 10.000 H 363.300 C 363.245 10.000 363.200 10.045 363.200 10.100 V 13.000 C 363.200 13.100 363.300 13.000 363.200 13.000 H 357.400 C 357.300 13.000 357.400 13.100 357.400 13.000 V 10.100 C 357.400 10.045 357.355 10.000 357.300 10.000 H 351.300 C 351.245 10.000 351.200 10.045 351.200 10.100 V 13.000 C 351.200 13.100 351.300 13.000 351.200 13.000 H 345.532 H 343.800 C 343.745 13.000 343.700 13.045 343.700 13.100 V 19.950 C 343.700 20.005 343.745 20.050 343.800 20.050 H 346.298 C 346.398 20.050 346.298 19.950 346.298 20.050 V 26.150 C 346.298 26.250 346.398 26.150 346.298 26.150 H 343.800 C 343.745 26.150 343.700 26.195 343.700 26.250 V 31.950 C 343.700 32.005 343.745 32.050 343.800 32.050 H 346.298 C 346.398 32.050 346.298 31.950 346.298 32.050 V 38.150 C 346.298 38.250 346.398 38.150 346.298 38.150 H 343.800 C 343.745 38.150 343.700 38.195 343.700 38.250 V 43.950 C 343.700 44.005 343.745 44.050 343.800 44.050 H 346.298 C 346.398 44.050 346.298 43.950 346.298 44.050 V 50.150 C 346.298 50.250 346.398 50.150 346.298 50.150 H 343.800 C 343.745 50.150 343.700 50.195 343.700 50.250 V 57.100 C 343.700 57.155 343.745 57.200 343.800 57.200 H 345.532 Z" stroke="rgb(0,0,0)" stroke-width="0.20"/>
</g>
<g id="p-6" style="fill:none;stroke-linecap:round;stroke-linejoin:round;">
  <path d="M 512.232 57.200 H 517.900 C 518.000 57.200 517.900 57.100 517.900 57.200 V 60.100 C 517.900 60.155 517.945 60.200 518.000 60.200 H 524.000 C 524.055 60.200 524.100 60.155 524.100 60.100 V 57.200 C 524.100 57.100 524.000 57.200 524.100 57.200 H 529.900 C 530.000 57.200 529.900 57.100 529.900 57.200 V 60.100 C 529.900 60.155 529.945 60.200 530.000 60.200 H 536.000 C 536.055 60.200 536.100 60.155 536.100 60.100 V 57.200 C 536.100 57.100 536.000 57.200 536.100 57.200 H 541.900 C 542.000 57.200 541.900 57.100 541.900 57.200 V 60.100 C 541.900 60.155 541.945 60.200 542.000 60.200 H 548.000 C 548.055 60.200 548.100 60.155 548.100 60.100 V 57.200 C 548.100 57.100 548.000 57.200 548.100 57.200 H 553.900 C 554.000 57.200 553.900 57.100 553.900 57.200 V 60.100 C 553.900 60.155 553.945 60.200 554.000 60.200 H 560.000 C 560.055 60.200 560.100 60.155 560.100 60.100 V 57.200 C 560.100 57.100 560.000 57.200 560.100 57.200 H 565.900 C 566.000 57.200 565.900 57.100 565.900 57.200 V 60.100 C 565.900 60.155 565.945 60.200 566.000 60.200 H 572.000 C 572.055 60.200 572.100 60.155 572.100 60.100 V 57.200 C 572.100 57.100 572.000 57.200 572.100 57.200 H 577.900 C 578.000 57.200 577.900 57.100 577.900 57.200 V 60.100 C 577.900 60.155 577.945 60.200 578.000 60.200 H 584.000 C 584.055 60.200 584.100 60.155 584.100 60.100 V 57.200 C 584.100 57.100 584.000 57.200 584.100 57.200 H 589.900 C 590.000 57.200 589.900 57.100 589.900 57.200 V 60.100 C 589.900 60.155 589.945 60.200 590.000 60.200 H 596.000 C 596.055 60.200 596.100 60.155 596.100 60.100 V 57.200 C 596.100 57.100 596.000 57.200 596.100 57.200 H 601.900 C 602.000 57.200 601.900 57.100 601.900 57.200 V 60.100 C 601.900 60.155 601.945 60.200 602.000 60.200 H 608.000 C 608.055 60.200 608.100 60.155 608.100 60.100 V 57.200 C 608.100 57.100 608.000 57.200 608.100 57.200 H 613.900 C 614.000 57.200 613.900 57.100 613.900 57.200 V 60.100 C 613.900 60.155 613.945 60.200 614.000 60.200 H 620.000 C 620.055 60.200 620.100 60.155 620.100 60.100 V 57.200 C 620.100 57.100 620.000 57.200 620.100 57.200 H 625.900 C 626.000 57.200 625.900 57.100 625.900 57.200 V 60.100 C 625.900 60.155 625.945 60.200 626.000 60.200 H 632.000 C 632.055 60.200 632.100 60.155 632.100 60.100 V 57.200 C 632.100 57.100 632.000 57.200 632.100 57.200 H 637.900 C 638.000 57.200 637.900 57.100 637.900 57.200 V 60.100 C 637.900 60.155 637.945 60.200 638.000 60.200 H 644.000 C 644.055 60.200 644.100 60.155 644.100 60.100 V 57.200 C 644.100 57.100 644.000 57.200 644.100 57.200 H 649.900 C 650.000 57.200 649.900 57.100 649.900 57.200 V 60.100 C 649.900 60.155 649.945 60.200 650.000 60.200 H 656.000 C 656.055 60.200 656.100 60.155 656.100 60.100 V 57.200 C 656.100 57.100 656.000 57.200 656.100 57.200 H 661.900 C 662.000 57.200 661.900 57.100 661.900 57.200 V 60.100 C 661.900 60.155 661.945 60.200 662.000 60.200 H 668.000 C 668.055 60.200 668.100 60.155 668.100 60.100 V 57.200 C 668.100 57.100 668.000 57.200 668.100 57.200 H 673.768 H 672.902 C 672.957 57.200 673.002 57.155 673.002 57.100 V 50.200 C 673.002 50.100 672.902 50.200 673.002 50.200 H 675.500 C 675.555 50.200 675.600 50.155 675.600 50.100 V 44.100 C 675.600 44.045 675.555 44.000 675.500 44.000 H 673.002 C 672.902 44.000 673.002 44.100 673.002 44.000 V 38.200 C 673.002 38.100 672.902 38.200 673.002 38.200 H 675.500 C 675.555 38.200 675.600 38.155 675.600 38.100 V 32.100 C 675.600 32.045 675.555 32.000 675.500 32.000 H 673.002 C 672.902 32.000 673.002 32.100 673.002 32.000 V 26.200 C 673.002 26.100 672.902 26.200 673.002 26.200 H 675.500 C 675.555 26.200 675.600 26.155 675.600 26.100 V 20.100 C 675.600 20.045 675.555 20.000 675.500 20.000 H 673.002 C 672.902 20.000 673.002 20.100 673.002 20.000 V 13.100 C 673.002 13.045 672.957 13.000 672.902 13.000 H 673.768 H 668.100 C 668.000 13.000 668.100 13.100 668.100 13.000 V 10.100 C 668.100 10.045 668.055 10.000 668.000 10.000 H 662.000 C 661.945 10.000 661.900 10.045 661.900 10.100 V 13.000 C 661.900 13.100 662.000 13.000 661.900 13.000 H 656.100 C 656.000 13.000 656.100 13.100 656.100 13.000 V 10.100 C 656.100 10.045 656.055 10.000 656.000 10.000 H 650.000 C 649.945 10.000 649.900 10.045 649.900 10.100 V 13.000 C 649.900 13.100 650.000 13.000 649.900 13.000 H 644.100 C 644.000 13.000 644.100 13.100 644.100 13.000 V 10.100 C 644.100 10.045 644.055 10.000 644.000 10.000 H 638.000 C 637.945 10.000 637.900 10.045 637.900 10.100 V 13.000 C 637.900 13.100 638.000 13.000 637.900 13.000 H 632.100 C 632.000 13.000 632.100 13.100 632.100 13.000 V 10.100 C 632.100 10.045 632.055 10.000 632.000 10.000 H 626.000 C 625.945 10.000 625.900 10.045 625.900 10.100 V 13.000 C 625.900 13.100 626.000 13.000 625.900 13.000 H 620.100 C 620.000 13.000 620.100 13.100 620.100 13.000 V 10.100 C 620.100 10.045 620.055 10.000 620.000 10.000 H 614.000 C 613.945 10.000 613.900 10.045 613.900 10.100 V 13.000 C 613.900 13.100 614.000 13.000 613.900 13.000 H 608.100 C 608.000 13.000 608.100 13.100 608.100 13.000 V 10.100 C 608.100 10.045 608.055 10.000 608.000 10.000 H 602.000 C 601.945 10.000 601.900 10.045 601.900 10.100 V 13.000 C 601.900 13.100 602.000 13.000 601.900 13.000 H 596.100 C 596.000 13.000 596.100 13.100 596.100 13.000 V 10.100 C 596.100 10.045 596.055 10.000 596.000 10.000 H 590.000 C 589.945 10.000 589.900 10.045 589.900 10.100 V 13.000 C 589.900 13.100 590.000 13.000 589.900 13.000 H 584.100 C 584.000 13.000 584.100 13.100 584.100 13.000 V 10.100 C 584.100 10.045 584.055 10.000 584.000 10.000 H 578.000 C 577.945 10.000 577.900 10.045 577.900 10.100 V 13.000 C 577.900 13.100 578.000 13.000 577.900 13.000 H 572.100 C 572.000 13.000 572.100 13.100 572.100 13.000 V 10.100 C 572.100 10.045 572.055 10.000 572.000 10.000 H 566.000 C 565.945 10.000 565.900 10.045 565.900 10.100 V 13.000 C 565.900 13.100 566.000 13.000 565.900 13.000 H 560.100 C 560.000 13.000 560.100 13.100 560.100 13.000 V 10.100 C 560.100 10.045 560.055 10.000 560.000 10.000 H 554.000 C 553.945 10.000 553.900 10.045 553.900 10.100 V 13.000 C 553.900 13.100 554.000 13.000 553.900 13.000 H 548.100 C 548.000 13.000 548.100 13.100 548.100 13.000 V 10.100 C 548.100 10.045 548.055 10.000 548.000 10.000 H 542.000 C 541.945 10.000 541.900 10.045 541.900 10.100 V 13.000 C 541.900 13.100 542.000 13.000 541.900 13.000 H 536.100 C 536.000 13.000 536.100 13.100 536.100 13.000 V 10.100 C 536.100 10.045 536.055 10.000 536.000 10.000 H 530.000 C 529.945 10.000 529.900 10.045 529.900 10.100 V 13.000 C 529.900 13.100 530.000 13.000 529.900 13.000 H 524.100 C 524.000 13.000 524.100 13.100 524.100 13.000 V 10.100 C 524.100 10.045 524.055 10.000 524.000 10.000 H 518.000 C 517.945 10.000 517.900 10.045 517.900 10.100 V 13.000 C 517.900 13.100 518.000 13.000 517.900 13.000 H 512.232 H 513.098 C 513.043 13.000 512.998 13.045 512.998 13.100 V 20.000 C 512.998 20.100 513.098 20.000 512.998 20.000 H 510.500 C 510.445 20.000 510.400 20.045 510.400 20.100 V 26.100 C 510.400 26.155 510.445 26.200 510.500 26.200 H 512.998 C 513.098 26.200 512.998 26.100 512.998 26.200 V 32.000 C 512.998 32.100 513.098 32.000 512.998 32.000 H 510.500 C 510.445 32.000 510.400 32.045 510.400 32.100 V 38.100 C 510.400 38.155 510.445 38.200 510.500 38.200 H 512.998 C 513.098 38.200 512.998 38.100 512.998 38.200 V 44.000 C 512.998 44.100 513.098 44.000 512.998 44.000 H 510.500 C 510.445 44.000 510.400 44.045 510.400 44.100 V 50.100 C 510.400 50.155 510.445 50.200 510.500 50.200 H 512.998 C 513.098 50.200 512.998 50.100 512.998 50.200 V 57.100 C 512.998 57.155 513.043 57.200 513.098 57.200 H 512.232 Z" stroke="rgb(0,0,0)" stroke-width="0.20"/>
</g>
<g id="p-7" style="fill:none;stroke-linecap:round;stroke-linejoin:round;">
  <path d="M 678.932 57.200 H 684.600 C 684.700 57.200 684.600 57.100 684.600 57.200 V 60.100 C 684.600 60.155 684.645 60.200 684.700 60.200 H 690.700 C 690.755 60.200 690.800 60.155 690.800 60.100 V 57.200 C 690.800 57.100 690.700 57.200 690.800 57.200 H 696.600 C 696.700 57.200 696.600 57.100 696.600 57.200 V 60.100 C 696.600 60.155 696.645 60.200 696.700 60.200 H 702.700 C 702.755 60.200 702.800 60.155 702.800 60.100 V 57.200 C 702.800 57.100 702.700 57.200 702.800 57.200 H 708.600 C 708.700 57.200 708.600 57.100 708.600 57.200 V 60.100 C 708.600 60.155 708.645 60.200 708.700 60.200 H 714.700 C 714.755 60.200 714.800 60.155 714.800 60.100 V 57.200 C 714.800 57.100 714.700 57.200 714.800 57.200 H 720.600 C 720.700 57.200 720.600 57.100 720.600 57.200 V 60.100 C 720.600 60.155 720.645 60.200 720.700 60.200 H 726.700 C 726.755 60.200 726.800 60.155 726.800 60.100 V 57.200 C 726.800 57.100 726.700 57.200 726.800 57.200 H 732.600 C 732.700 57.200 732.600 57.100 732.600 57.200 V 60.100 C 732.600 60.155 732.645 60.200 732.700 60.200 H 738.700 C 738.755 60.200 738.800 60.155 738.800 60.100 V 57.200 C 738.800 57.100 738.700 57.200 738.800 57.200 H 744.600 C 744.700 57.200 744.600 57.100 744.600 57.200 V 60.100 C 744.600 60.155 744.645 60.200 744.700 60.200 H 750.700 C 750.755 60.200 750.800 60.155 750.800 60.100 V 57.200 C 750.800 57.100 750.700 57.200 750.800 57.200 H 756.600 C 756.700 57.200 756.600 57.100 756.600 57.200 V 60.100 C 756.600 60.155 756.645 60.200 756.700 60.200 H 762.700 C 762.755 60.200 762.800 60.155 762.800 60.100 V 57.200 C 762.800 57.100 762.700 57.200 762.800 57.200 H 768.600 C 768.700 57.200 768.600 57.100 768.600 57.200 V 60.100 C 768.600 60.155 768.645 60.200 768.700 60.200 H 774.700 C 774.755 60.200 774.800 60.155 774.800 60.100 V 57.200 C 774.800 57.100 774.700 57.200 774.800 57.200 H 780.600 C 780.700 57.200 780.600 57.100 780.600 57.200 V 60.100 C 780.600 60.155 780.645 60.200 780.700 60.200 H 786.700 C 786.755 60.200 786.800 60.155 786.800 60.100 V 57.200 C 786.800 57.100 786.700 57.200 786.800 57.200 H 792.600 C 792.700 57.200 792.600 57.100 792.600 57.200 V 60.100 C 792.600 60.155 792.645 60.200 792.700 60.200 H 798.700 C 798.755 60.200 798.800 60.155 798.800 60.100 V 57.200 C 798.800 57.100 798.700 57.200 798.800 57.200 H 804.600 C 804.700 57.200 804.600 57.100 804.600 57.200 V 60.100 C 804.600 60.155 804.645 60.200 804.700 60.200 H 810.700 C 810.755 60.200 810.800 60.155 810.800 60.100 V 57.200 C 810.800 57.100 810.700 57.200 810.800 57.200 H 816.600 C 816.700 57.200 816.600 57.100 816.600 57.200 V 60.100 C 816.600 60.155 816.645 60.200 816.700 60.200 H 822.700 C 822.755 60.200 822.800 60.155 822.800 60.100 V 57.200 C 822.800 57.100 822.700 57.200 822.800 57.200 H 828.600 C 828.700 57.200 828.600 57.100 828.600 57.200 V 60.100 C 828.600 60.155 828.645 60.200 828.700 60.200 H 834.700 C 834.755 60.200 834.800 60.155 834.800 60.100 V 57.200 C 834.800 57.100 834.700 57.200 834.800 57.200 H 840.468 H 842.200 C 842.255 57.200 842.300 57.155 842.300 57.100 V 50.250 C 842.300 50.195 842.255 50.150 842.200 50.150 H 839.702 C 839.602 50.150 839.702 50.250 839.702 50.150 V 44.050 C 839.702 43.950 839.602 44.050 839.702 44.050 H 842.200 C 842.255 44.050 842.300 44.005 842.300 43.950 V 38.250 C 842.300 38.195 842.255 38.150 842.200 38.150 H 839.702 C 839.602 38.150 839.702 38.250 839.702 38.150 V 32.050 C 839.702 31.950 839.602 32.050 839.702 32.050 H 842.200 C 842.255 32.050 842.300 32.005 842.300 31.950 V 26.250 C 842.300 26.195 842.255 26.150 842.200 26.150 H 839.702 C 839.602 26.150 839.702 26.250 839.702 26.150 V 20.050 C 839.702 19.950 839.602 20.050 839.702 20.050 H 842.200 C 842.255 20.050 842.300 20.005 842.300 19.950 V 13.100 C 842.300 13.045 842.255 13.000 842.200 13.000 H 840.468 H 834.800 C 834.700 13.000 834.800 13.100 834.800 13.000 V 10.100 C 834.800 10.045 834.755 10.000 834.700 10.000 H 828.700 C 828.645 10.000 828.600 10.045 828.600 10.100 V 13.000 C 828.600 13.100 828.700 13.000 828.600 13.000 H 822.800 C 822.700 13.000 822.800 13.100 822.800 13.000 V 10.100 C 822.800 10.045 822.755 10.000 822.700 10.000 H 816.700 C 816.645 10.000 816.600 10.045 816.600 10.100 V 13.000 C 816.600 13.100 816.700 13.000 816.600 13.000 H 810.800 C 810.700 13.000 810.800 13.100 810.800 13.000 V 10.100 C 810.800 10.045 810.755 10.000 810.700 10.000 H 804.700 C 804.645 10.000 804.600 10.045 804.600 10.100 V 13.000 C 804.600 13.100 804.700 13.000 804.600 13.000 H 798.800 C 798.700 13.000 798.800 13.100 798.800 13.000 V 10.100 C 798.800 10.045 798.755 10.000 798.700 10.000 H 792.700 C 792.645 10.000 792.600 10.045 792.600 10.100 V 13.000 C 792.600 13.100 792.700 13.000 792.600 13.000 H 786.800 C 786.700 13.000 786.800 13.100 786.800 13.000 V 10.100 C 786.800 10.045 786.755 10.000 786.700 10.000 H 780.700 C 780.645 10.000 780.600 10.045 780.600 10.100 V 13.000 C 780.600 13.100 780.700 13.000 780.600 13.000 H 774.800 C 774.700 13.000 774.800 13.100 774.800 13.000 V 10.100 C 774.800 10.045 774.755 10.000 774.700 10.000 H 768.700 C 768.645 10.000 768.600 10.045 768.600 10.100 V 13.000 C 768.600 13.100 768.700 13.000 768.600 13.000 H 762.800 C 762.700 13.000 762.800 13.100 762.800 13.000 V 10.100 C 762.800 10.045 762.755 10.000 762.700 10.000 H 756.700 C 756.645 10.000 756.600 10.045 756.600 10.100 V 13.000 C 756.600 13.100 756.700 13.000 756.600 13.000 H 750.800 C 750.700 13.000 750.800 13.100 750.800 13.000 V 10.100 C 750.800 10.045 750.755 10.000 750.700 10.000 H 744.700 C 744.645 10.000 744.600 10.045 744.600 10.100 V 13.000 C 744.600 13.100 744.700 13.000 744.600 13.000 H 738.800 C 738.700 13.000 738.800 13.100 738.800 13.000 V 10.100 C 738.800 10.045 738.755 10.000 738.700 10.000 H 732.700 C 732.645 10.000 732.600 10.045 732.600 10.100 V 13.000 C 732.600 13.100 732.700 13.000 732.600 13.000 H 726.800 C 726.700 13.000 726.800 13.100 726.800 13.000 V 10.100 C 726.800 10.045 726.755 10.000 726.700 10.000 H 720.700 C 720.645 10.000 720.600 10.045 720.600 10.100 V 13.000 C 720.600 13.100 720.700 13.000 720.600 13.000 H 714.800 C 714.700 13.000 714.800 13.100 714.800 13.000 V 10.100 C 714.800 10.045 714.755 10.000 714.700 10.000 H 708.700 C 708.645 10.000 708.600 10.045 708.600 10.100 V 13.000 C 708.600 13.100 708.700 13.000 708.600 13.000 H 702.800 C 702.700 13.000 702.800 13.100 702.800 13.000 V 10.100 C 702.800 10.045 702.755 10.000 702.700 10.000 H 696.700 C 696.645 10.000 696.600 10.045 696.600 10.100 V 13.000 C 696.600 13.100 696.700 13.000 696.600 13.000 H 690.800 C 690.700 13.000 690.800 13.100 690.800 13.000 V 10.100 C 690.800 10.045 690.755 10.000 690.700 10.000 H 684.700 C 684.645 10.000 684.600 10.045 684.600 10.100 V 13.000 C 684.600 13.100 684.700 13.000 684.600 13.000 H 678.932 H 677.200 C 677.145 13.000 677.100 13.045 677.100 13.100 V 19.950 C 677.100 20.005 677.145 20.050 677.200 20.050 H 679.698 C 679.798 20.050 679.698 19.950 679.698 20.050 V 26.150 C 679.698 26.250 679.798 26.150 679.698 26.150 H 677.200 C 677.145 26.150 677.100 26.195 677.100 26.250 V 31.950 C 677.100 32.005 677.145 32.050 677.200 32.050 H 679.698 C 679.798 32.050 679.698 31.950 679.698 32.050 V 38.150 C 679.698 38.250 679.798 38.150 679.698 38.150 H 677.200 C 677.145 38.150 677.100 38.195 677.100 38.250 V 43.950 C 677.100 44.005 677.145 44.050 677.200 44.050 H 679.698 C 679.798 44.050 679.698 43.950 679.698 44.050 V 50.150 C 679.698 50.250 679.798 50.150 679.698 50.150 H 677.200 C 677.145 50.150 677.100 50.195 677.100 50.250 V 57.100 C 677.100 57.155 677.145 57.200 677.200 57.200 H 678.932 Z" stroke="rgb(0,0,0)" stroke-width="0.20"/>
</g>
<g id="p-8" style="fill:none;stroke-linecap:round;stroke-linejoin:round;">
  <path d="M 845.632 57.200 H 851.300 C 851.400 57.200 851.300 57.100 851.300 57.200 V 60.100 C 851.300 60.155 851.345 60.200 851.400 60.200 H 857.400 C 857.455 60.200 857.500 60.155 857.500 60.100 V 57.200 C 857.500 57.100 857.400 57.200 857.500 57.200 H 863.300 C 863.400 57.200 863.300 57.100 863.300 57.200 V 60.100 C 863.300 60.155 863.345 60.200 863.400 60.200 H 869.400 C 869.455 60.200 869.500 60.155 869.500 60.100 V 57.200 C 869.500 57.100 869.400 57.200 869.500 57.200 H 875.300 C 875.400 57.200 875.300 57.100 875.300 57.200 V 60.100 C 875.300 60.155 875.345 60.200 875.400 60.200 H 881.400 C 881.455 60.200 881.500 60.155 881.500 60.100 V 57.200 C 881.500 57.100 881.400 57.200 881.500 57.200 H 887.300 C 887.400 57.200 887.300 57.100 887.300 57.200 V 60.100 C 887.300 60.155 887.345 60.200 887.400 60.200 H 893.400 C 893.455 60.200 893.500 60.155 893.500 60.100 V 57.200 C 893.500 57.100 893.400 57.200 893.500 57.200 H 899.300 C 899.400 57.200 899.300 57.100 899.300 57.200 V 60.100 C 899.300 60.155 899.345 60.200 899.400 60.200 H 905.400 C 905.455 60.200 905.500 60.155 905.500 60.100 V 57.200 C 905.500 57.100 905.400 57.200 905.500 57.200 H 911.300 C 911.400 57.200 911.300 57.100 911.300 57.200 V 60.100 C 911.300 60.155 911.345 60.200 911.400 60.200 H 917.400 C 917.455 60.200 917.500 60.155 917.500 60.100 V 57.200 C 917.500 57.100 917.400 57.200 917.500 57.200 H 923.300 C 923.400 57.200 923.300 57.100 923.300 57.200 V 60.100 C 923.300 60.155 923.345 60.200 923.400 60.200 H 929.400 C 929.455 60.200 929.500 60.155 929.500 60.100 V 57.200 C 929.500 57.100 929.400 57.200 929.500 57.200 H 935.300 C 935.400 57.200 935.300 57.100 935.300 57.200 V 60.100 C 935.300 60.155 935.345 60.200 935.400 60.200 H 941.400 C 941.455 60.200 941.500 60.155 941.500 60.100 V 57.200 C 941.500 57.100 941.400 57.200 941.500 57.200 H 947.300 C 947.400 57.200 947.300 57.100 947.300 57.200 V 60.100 C 947.300 60.155 947.345 60.200 947.400 60.200 H 953.400 C 953.455 60.200 953.500 60.155 953.500 60.100 V 57.200 C 953.500 57.100 953.400 57.200 953.500 57.200 H 959.300 C 959.400 57.200 959.300 57.100 959.300 57.200 V 60.100 C 959.300 60.155 959.345 60.200 959.400 60.200 H 965.400 C 965.455 60.200 965.500 60.155 965.500 60.100 V 57.200 C 965.500 57.100 965.400 57.200 965.500 57.200 H 971.300 C 971.400 57.200 971.300 57.100 971.300 57.200 V 60.100 C 971.300 60.155 971.345 60.200 971.400 60.200 H 977.400 C 977.455 60.200 977.500 60.155 977.500 60.100 V 57.200 C 977.500 57.100 977.400 57.200 977.500 57.200 H 983.300 C 983.400 57.200 983.300 57.100 983.300 57.200 V 60.100 C 983.300 60.155 983.345 60.200 983.400 60.200 H 989.400 C 989.455 60.200 989.500 60.155 989.500 60.100 V 57.200 C 989.500 57.100 989.400 57.200 989.500 57.200 H 995.300 C 995.400 57.200 995.300 57.100 995.300 57.200 V 60.100 C 995.300 60.155 995.345 60.200 995.400 60.200 H 1001.400 C 1001.455 60.200 1001.500 60.155 1001.500 60.100 V 57.200 C 1001.500 57.100 1001.400 57.200 1001.500 57.200 H 1007.168 H 1006.302 C 1006.357 57.200 1006.402 57.155 1006.402 57.100 V 50.200 C 1006.402 50.100 1006.302 50.200 1006.402 50.200 H 1008.900 C 1008.955 50.200 1009.000 50.155 1009.000 50.100 V 44.100 C 1009.000 44.045 1008.955 44.000 1008.900 44.000 H 1006.402 C 1006.302 44.000 1006.402 44.100 1006.402 44.000 V 38.200 C 1006.402 38.100 1006.302 38.200 1006.402 38.200 H 1008.900 C 1008.955 38.200 1009.000 38.155 1009.000 38.100 V 32.100 C 1009.000 32.045 1008.955 32.000 1008.900 32.000 H 1006.402 C 1006.302 32.000 1006.402 32.100 1006.402 32.000 V 26.200 C 1006.402 26.100 1006.302 26.200 1006.402 26.200 H 1008.900 C 1008.955 26.200 1009.000 26.155 1009.000 26.100 V 20.100 C 1009.000 20.045 1008.955 20.000 1008.900 20.000 H 1006.402 C 1006.302 20.000 1006.402 20.100 1006.402 20.000 V 13.100 C 1006.402 13.045 1006.357 13.000 1006.302 13.000 H 1007.168 H 1001.500 C 1001.400 13.000 1001.500 13.100 1001.500 13.000 V 10.100 C 1001.500 10.045 1001.455 10.000 1001.400 10.000 H 995.400 C 995.345 10.000 995.300 10.045 995.300 10.100 V 13.000 C 995.300 13.100 995.400 13.000 995.300 13.000 H 989.500 C 989.400 13.000 989.500 13.100 989.500 13.000 V 10.100 C 989.500 10.045 989.455 10.000 989.400 10.000 H 983.400 C 983.345 10.000 983.300 10.045 983.300 10.100 V 13.000 C 983.300 13.100 983.400 13.000 983.300 13.000 H 977.500 C 977.400 13.000 977.500 13.100 977.500 13.000 V 10.100 C 977.500 10.045 977.455 10.000 977.400 10.000 H 971.400 C 971.345 10.000 971.300 10.045 971.300 10.100 V 13.000 C 971.300 13.100 971.400 13.000 971.300 13.000 H 965.500 C 965.400 13.000 965.500 13.100 965.500 13.000 V 10.100 C 965.500 10.045 965.455 10.000 965.400 10.000 H 959.400 C 959.345 10.000 959.300 10.045 959.300 10.100 V 13.000 C 959.300 13.100 959.400 13.000 959.300 13.000 H 953.500 C 953.400 13.000 953.500 13.100 953.500 13.000 V 10.100 C 953.500 10.045 953.455 10.000 953.400 10.000 H 947.400 C 947.345 10.000 947.300 10.045 947.300 10.100 V 13.000 C 947.300 13.100 947.400 13.000 947.300 13.000 H 941.500 C 941.400 13.000 941.500 13.100 941.500 13.000 V 10.100 C 941.500 10.045 941.455 10.000 941.400 10.000 H 935.400 C 935.345 10.000 935.300 10.045 935.300 10.100 V 13.000 C 935.300 13.100 935.400 13.000 935.300 13.000 H 929.500 C 929.400 13.000 929.500 13.100 929.500 13.000 V 10.100 C 929.500 10.045 929.455 10.000 929.400 10.000 H 923.400 C 923.345 10.000 923.300 10.045 923.300 10.100 V 13.000 C 923.300 13.100 923.400 13.000 923.300 13.000 H 917.500 C 917.400 13.000 917.500 13.100 917.500 13.000 V 10.100 C 917.500 10.045 917.455 10.000 917.400 10.000 H 911.400 C 911.345 10.000 911.300 10.045 911.300 10.100 V 13.000 C 911.300 13.100 911.400 13.000 911.300 13.000 H 905.500 C 905.400 13.000 905.500 13.100 905.500 13.000 V 10.100 C 905.500 10.045 905.455 10.000 905.400 10.000 H 899.400 C 899.345 10.000 899.300 10.045 899.300 10.100 V 13.000 C 899.300 13.100 899.400 13.000 899.300 13.000 H 893.500 C 893.400 13.000 893.500 13.100 893.500 13.000 V 10.100 C 893.500 10.045 893.455 10.000 893.400 10.000 H 887.400 C 887.345 10.000 887.300 10.045 887.300 10.100 V 13.000 C 887.300 13.100 887.400 13.000 887.300 13.000 H 881.500 C 881.400 13.000 881.500 13.100 881.500 13.000 V 10.100 C 881.500 10.045 881.455 10.000 881.400 10.000 H 875.400 C 875.345 10.000 875.300 10.045 875.300 10.100 V 13.000 C 875.300 13.100 875.400 13.000 875.300 13.000 H 869.500 C 869.400 13.000 869.500 13.100 869.500 13.000 V 10.100 C 869.500 10.045 869.455 10.000 869.400 10.000 H 863.400 C 863.345 10.000 863.300 10.045 863.300 10.100 V 13.000 C 863.300 13.100 863.400 13.000 863.300 13.000 H 857.500 C 857.400 13.000 857.500 13.100 857.500 13.000 V 10.100 C 857.500 10.045 857.455 10.000 857.400 10.000 H 851.400 C 851.345 10.000 851.300 10.045 851.300 10.100 V 13.000 C 851.300 13.100 851.400 13.000 851.300 13.000 H 845.632 H 846.498 C 846.443 13.000 846.398 13.045 846.398 13.100 V 20.000 C 846.398 20.100 846.498 20.000 846.398 20.000 H 843.900 C 843.845 20.000 843.800 20.045 843.800 20.100 V 26.100 C 843.800 26.155 843.845 26.200 843.900 26.200 H 846.398 C 846.498 26.200 846.398 26.100 846.398 26.200 V 32.000 C 846.398 32.100 846.498 32.000 846.398 32.000 H 843.900 C 843.845 32.000 843.800 32.045 843.800 32.100 V 38.100 C 843.800 38.155 843.845 38.200 843.900 38.200 H 846.398 C 846.498 38.200 846.398 38.100 846.398 38.200 V 44.000 C 846.398 44.100 846.498 44.000 846.398 44.000 H 843.900 C 843.845 44.000 843.800 44.045 843.800 44.100 V 50.100 C 843.800 50.155 843.845 50.200 843.900 50.200 H 846.398 C 846.498 50.200 846.398 50.100 846.398 50.200 V 57.100 C 846.398 57.155 846.443 57.200 846.498 57.200 H 845.632 Z" stroke="rgb(0,0,0)" stroke-width="0.20"/>
</g>
</svg>