<?xml version="1.0" encoding="UTF-8" standalone="no"?>
<svg
   width="1019.00mm"
   height="359.39mm"
   viewBox="0.0 0.0 1019.00 359.39"
   version="1.1"
   id="svg1168"
   sodipodi:docname="hectagonum_bottom.svg"
   inkscape:version="1.2.2 (b0a84865, 2022-12-01)"
   xmlns:inkscape="http://www.inkscape.org/namespaces/inkscape"
   xmlns:sodipodi="http://sodipodi.sourceforge.net/DTD/sodipodi-0.dtd"
   xmlns="http://www.w3.org/2000/svg"
   xmlns:svg="http://www.w3.org/2000/svg"
   xmlns:rdf="http://www.w3.org/1999/02/22-rdf-syntax-ns#"
   xmlns:cc="http://creativecommons.org/ns#"
   xmlns:dc="http://purl.org/dc/elements/1.1/">
  <defs
     id="defs1172" />
  <sodipodi:namedview
     id="namedview1170"
     pagecolor="#ffffff"
     bordercolor="#666666"
     borderopacity="1.0"
     inkscape:showpageshadow="2"
     inkscape:pageopacity="0.0"
     inkscape:pagecheckerboard="0"
     inkscape:deskcolor="#d1d1d1"
     inkscape:document-units="mm"
     showgrid="false"
     inkscape:zoom="0.22070249"
     inkscape:cx="1934.7312"
     inkscape:cy="679.64797"
     inkscape:window-width="1387"
     inkscape:window-height="928"
     inkscape:window-x="0"
     inkscape:window-y="25"
     inkscape:window-maximized="0"
     inkscape:current-layer="svg1168" />
  <!--
RegularBox - Box with regular polygon as base


For short side walls that don't fit a connecting finger reduce *surroundingspaces* and *finger* in the Finger Joint Settings.

The lids needs to be glued. For the bayonet lid all outside rings attach to the bottom, all inside rings to the top.



Created with Boxes.py (https://festi.info/boxes.py)
Creation date: 2022-12-16 15:41:29
Command line (remove spaces between dashes): boxes RegularBox - -FingerJoint_angle=90.0 - -FingerJoint_style=rectangular - -FingerJoint_surroundingspaces=1.0 - -FingerJoint_edge_width=1.0 - -FingerJoint_extra_length=0.0 - -FingerJoint_finger=2.0 - -FingerJoint_play=0.1 - -FingerJoint_space=2.0 - -FingerJoint_width=1.0 - -h=40 - -outside=0 - -outside=1 - -radius=165 - -n=6 '- -top=angled hole' - -alignment_pins=1.0 - -thickness=3.0 - -format=svg - -tabs=0.0 - -debug=0 - -labels=0 - -labels=1 - -reference=100 - -inner_corners=loop - -burn=0.1
Url: http://localhost:8000/RegularBox?FingerJoint_angle=90.0&FingerJoint_style=rectangular&FingerJoint_surroundingspaces=1.0&FingerJoint_edge_width=1.0&FingerJoint_extra_length=0.0&FingerJoint_finger=2.0&FingerJoint_play=0.1&FingerJoint_space=2.0&FingerJoint_width=1.0&h=40&outside=0&outside=1&radius=165&n=6&top=angled+hole&alignment_pins=1.0&thickness=3.0&format=svg&tabs=0.0&debug=0&labels=0&labels=1&reference=100&inner_corners=loop&burn=0.1&render=1
SettingsUrl: http://localhost:8000/RegularBox?FingerJoint_angle=90.0&FingerJoint_style=rectangular&FingerJoint_surroundingspaces=1.0&FingerJoint_edge_width=1.0&FingerJoint_extra_length=0.0&FingerJoint_finger=2.0&FingerJoint_play=0.1&FingerJoint_space=2.0&FingerJoint_width=1.0&h=40&outside=0&outside=1&radius=165&n=6&top=angled+hole&alignment_pins=1.0&thickness=3.0&format=svg&tabs=0.0&debug=0&labels=0&labels=1&reference=100&inner_corners=loop&burn=0.1
-->
  <title
     id="title1135">RegularBox</title>
  <metadata
     id="metadata1137">
    <rdf:RDF>
      <cc:Work>
        <dc:title>RegularBox</dc:title>
        <dc:date>2022-12-16 15:41:29</dc:date>
        <dc:source>http://localhost:8000/RegularBox?FingerJoint_angle=90.0&amp;FingerJoint_style=rectangular&amp;FingerJoint_surroundingspaces=1.0&amp;FingerJoint_edge_width=1.0&amp;FingerJoint_extra_length=0.0&amp;FingerJoint_finger=2.0&amp;FingerJoint_play=0.1&amp;FingerJoint_space=2.0&amp;FingerJoint_width=1.0&amp;h=40&amp;outside=0&amp;outside=1&amp;radius=165&amp;n=6&amp;top=angled+hole&amp;alignment_pins=1.0&amp;thickness=3.0&amp;format=svg&amp;tabs=0.0&amp;debug=0&amp;labels=0&amp;labels=1&amp;reference=100&amp;inner_corners=loop&amp;burn=0.1&amp;render=1</dc:source>
        <dc:description>Box with regular polygon as base

For short side walls that don't fit a connecting finger reduce *surroundingspaces* and *finger* in the Finger Joint Settings.

The lids needs to be glued. For the bayonet lid all outside rings attach to the bottom, all inside rings to the top.


Created with Boxes.py (https://festi.info/boxes.py)
Command line: boxes RegularBox --FingerJoint_angle=90.0 --FingerJoint_style=rectangular --FingerJoint_surroundingspaces=1.0 --FingerJoint_edge_width=1.0 --FingerJoint_extra_length=0.0 --FingerJoint_finger=2.0 --FingerJoint_play=0.1 --FingerJoint_space=2.0 --FingerJoint_width=1.0 --h=40 --outside=0 --outside=1 --radius=165 --n=6 '--top=angled hole' --alignment_pins=1.0 --thickness=3.0 --format=svg --tabs=0.0 --debug=0 --labels=0 --labels=1 --reference=100 --inner_corners=loop --burn=0.1
Url: http://localhost:8000/RegularBox?FingerJoint_angle=90.0&amp;FingerJoint_style=rectangular&amp;FingerJoint_surroundingspaces=1.0&amp;FingerJoint_edge_width=1.0&amp;FingerJoint_extra_length=0.0&amp;FingerJoint_finger=2.0&amp;FingerJoint_play=0.1&amp;FingerJoint_space=2.0&amp;FingerJoint_width=1.0&amp;h=40&amp;outside=0&amp;outside=1&amp;radius=165&amp;n=6&amp;top=angled+hole&amp;alignment_pins=1.0&amp;thickness=3.0&amp;format=svg&amp;tabs=0.0&amp;debug=0&amp;labels=0&amp;labels=1&amp;reference=100&amp;inner_corners=loop&amp;burn=0.1&amp;render=1
SettingsUrl: http://localhost:8000/RegularBox?FingerJoint_angle=90.0&amp;FingerJoint_style=rectangular&amp;FingerJoint_surroundingspaces=1.0&amp;FingerJoint_edge_width=1.0&amp;FingerJoint_extra_length=0.0&amp;FingerJoint_finger=2.0&amp;FingerJoint_play=0.1&amp;FingerJoint_space=2.0&amp;FingerJoint_width=1.0&amp;h=40&amp;outside=0&amp;outside=1&amp;radius=165&amp;n=6&amp;top=angled+hole&amp;alignment_pins=1.0&amp;thickness=3.0&amp;format=svg&amp;tabs=0.0&amp;debug=0&amp;labels=0&amp;labels=1&amp;reference=100&amp;inner_corners=loop&amp;burn=0.1
</dc:description>
      </cc:Work>
    </rdf:RDF>
  </metadata>
  <g
     id="p-1"
     style="fill:none;stroke-linecap:round;stroke-linejoin:round;stroke:#fe0000;stroke-opacity:1">
    <path
       d="M 94.632 337.688 H 100.250 C 100.305 337.688 100.350 337.644 100.350 337.588 V 334.688 C 100.350 334.588 100.250 334.688 100.350 334.688 H 106.450 C 106.550 334.688 106.450 334.588 106.450 334.688 V 337.588 C 106.450 337.644 106.495 337.688 106.550 337.688 H 112.250 C 112.305 337.688 112.350 337.644 112.350 337.588 V 334.688 C 112.350 334.588 112.250 334.688 112.350 334.688 H 118.450 C 118.550 334.688 118.450 334.588 118.450 334.688 V 337.588 C 118.450 337.644 118.495 337.688 118.550 337.688 H 124.250 C 124.305 337.688 124.350 337.644 124.350 337.588 V 334.688 C 124.350 334.588 124.250 334.688 124.350 334.688 H 130.450 C 130.550 334.688 130.450 334.588 130.450 334.688 V 337.588 C 130.450 337.644 130.495 337.688 130.550 337.688 H 136.250 C 136.305 337.688 136.350 337.644 136.350 337.588 V 334.688 C 136.350 334.588 136.250 334.688 136.350 334.688 H 142.450 C 142.550 334.688 142.450 334.588 142.450 334.688 V 337.588 C 142.450 337.644 142.495 337.688 142.550 337.688 H 148.250 C 148.305 337.688 148.350 337.644 148.350 337.588 V 334.688 C 148.350 334.588 148.250 334.688 148.350 334.688 H 154.450 C 154.550 334.688 154.450 334.588 154.450 334.688 V 337.588 C 154.450 337.644 154.495 337.688 154.550 337.688 H 160.250 C 160.305 337.688 160.350 337.644 160.350 337.588 V 334.688 C 160.350 334.588 160.250 334.688 160.350 334.688 H 166.450 C 166.550 334.688 166.450 334.588 166.450 334.688 V 337.588 C 166.450 337.644 166.495 337.688 166.550 337.688 H 172.250 C 172.305 337.688 172.350 337.644 172.350 337.588 V 334.688 C 172.350 334.588 172.250 334.688 172.350 334.688 H 178.450 C 178.550 334.688 178.450 334.588 178.450 334.688 V 337.588 C 178.450 337.644 178.495 337.688 178.550 337.688 H 184.250 C 184.305 337.688 184.350 337.644 184.350 337.588 V 334.688 C 184.350 334.588 184.250 334.688 184.350 334.688 H 190.450 C 190.550 334.688 190.450 334.588 190.450 334.688 V 337.588 C 190.450 337.644 190.495 337.688 190.550 337.688 H 196.250 C 196.305 337.688 196.350 337.644 196.350 337.588 V 334.688 C 196.350 334.588 196.250 334.688 196.350 334.688 H 202.450 C 202.550 334.688 202.450 334.588 202.450 334.688 V 337.588 C 202.450 337.644 202.495 337.688 202.550 337.688 H 208.250 C 208.305 337.688 208.350 337.644 208.350 337.588 V 334.688 C 208.350 334.588 208.250 334.688 208.350 334.688 H 214.450 C 214.550 334.688 214.450 334.588 214.450 334.688 V 337.588 C 214.450 337.644 214.495 337.688 214.550 337.688 H 220.250 C 220.305 337.688 220.350 337.644 220.350 337.588 V 334.688 C 220.350 334.588 220.250 334.688 220.350 334.688 H 226.450 C 226.550 334.688 226.450 334.588 226.450 334.688 V 337.588 C 226.450 337.644 226.495 337.688 226.550 337.688 H 232.250 C 232.305 337.688 232.350 337.644 232.350 337.588 V 334.688 C 232.350 334.588 232.250 334.688 232.350 334.688 H 238.450 C 238.550 334.688 238.450 334.588 238.450 334.688 V 337.588 C 238.450 337.644 238.495 337.688 238.550 337.688 H 244.250 C 244.305 337.688 244.350 337.644 244.350 337.588 V 334.688 C 244.350 334.588 244.250 334.688 244.350 334.688 H 250.450 C 250.550 334.688 250.450 334.588 250.450 334.688 V 337.588 C 250.450 337.644 250.495 337.688 250.550 337.688 H 256.168 H 257.900 C 257.936 337.688 257.969 337.669 257.987 337.638 L 258.853 336.138 L 261.662 331.273 C 261.689 331.225 261.673 331.164 261.625 331.136 L 259.114 329.686 C 259.027 329.636 259.064 329.773 259.114 329.686 L 262.164 324.404 C 262.214 324.317 262.077 324.354 262.164 324.404 L 264.675 325.854 C 264.723 325.881 264.784 325.865 264.812 325.817 L 267.662 320.881 C 267.689 320.833 267.673 320.772 267.625 320.744 L 265.114 319.294 C 265.027 319.244 265.064 319.381 265.114 319.294 L 268.164 314.011 C 268.214 313.925 268.077 313.961 268.164 314.011 L 270.675 315.461 C 270.723 315.489 270.784 315.473 270.812 315.425 L 273.662 310.488 C 273.689 310.441 273.673 310.379 273.625 310.352 L 271.114 308.902 C 271.027 308.852 271.064 308.988 271.114 308.902 L 274.164 303.619 C 274.214 303.533 274.077 303.569 274.164 303.619 L 276.675 305.069 C 276.723 305.097 276.784 305.080 276.812 305.033 L 279.662 300.096 C 279.689 300.048 279.673 299.987 279.625 299.960 L 277.114 298.510 C 277.027 298.460 277.064 298.596 277.114 298.510 L 280.164 293.227 C 280.214 293.140 280.077 293.177 280.164 293.227 L 282.675 294.677 C 282.723 294.704 282.784 294.688 282.812 294.640 L 285.662 289.704 C 285.689 289.656 285.673 289.595 285.625 289.567 L 283.114 288.117 C 283.027 288.067 283.064 288.204 283.114 288.117 L 286.164 282.835 C 286.214 282.748 286.077 282.785 286.164 282.835 L 288.675 284.285 C 288.723 284.312 288.784 284.296 288.812 284.248 L 291.662 279.312 C 291.689 279.264 291.673 279.203 291.625 279.175 L 289.114 277.725 C 289.027 277.675 289.064 277.812 289.114 277.725 L 292.164 272.442 C 292.214 272.356 292.077 272.392 292.164 272.442 L 294.675 273.892 C 294.723 273.920 294.784 273.903 294.812 273.856 L 297.662 268.919 C 297.689 268.871 297.673 268.810 297.625 268.783 L 295.114 267.333 C 295.027 267.283 295.064 267.419 295.114 267.333 L 298.164 262.050 C 298.214 261.963 298.077 262.000 298.164 262.050 L 300.675 263.500 C 300.723 263.528 300.784 263.511 300.812 263.463 L 303.662 258.527 C 303.689 258.479 303.673 258.418 303.625 258.390 L 301.114 256.940 C 301.027 256.890 301.064 257.027 301.114 256.940 L 304.164 251.658 C 304.214 251.571 304.077 251.608 304.164 251.658 L 306.675 253.108 C 306.723 253.135 306.784 253.119 306.812 253.071 L 309.662 248.135 C 309.689 248.087 309.673 248.026 309.625 247.998 L 307.114 246.548 C 307.027 246.498 307.064 246.635 307.114 246.548 L 310.164 241.265 C 310.214 241.179 310.077 241.215 310.164 241.265 L 312.675 242.715 C 312.723 242.743 312.784 242.727 312.812 242.679 L 315.662 237.742 C 315.689 237.695 315.673 237.633 315.625 237.606 L 313.114 236.156 C 313.027 236.106 313.064 236.242 313.114 236.156 L 316.164 230.873 C 316.214 230.786 316.077 230.823 316.164 230.873 L 318.675 232.323 C 318.723 232.351 318.784 232.334 318.812 232.286 L 321.662 227.350 C 321.689 227.302 321.673 227.241 321.625 227.213 L 319.114 225.763 C 319.027 225.713 319.064 225.850 319.114 225.763 L 322.164 220.481 C 322.214 220.394 322.077 220.431 322.164 220.481 L 324.675 221.931 C 324.723 221.958 324.784 221.942 324.812 221.894 L 327.662 216.958 C 327.689 216.910 327.673 216.849 327.625 216.821 L 325.114 215.371 C 325.027 215.321 325.064 215.458 325.114 215.371 L 328.164 210.088 C 328.214 210.002 328.077 210.038 328.164 210.088 L 330.675 211.538 C 330.723 211.566 330.784 211.550 330.812 211.502 L 333.662 206.565 C 333.689 206.518 333.673 206.456 333.625 206.429 L 331.114 204.979 C 331.027 204.929 331.064 205.065 331.114 204.979 L 334.164 199.696 C 334.214 199.609 334.077 199.646 334.164 199.696 L 336.675 201.146 C 336.723 201.174 336.784 201.157 336.812 201.109 L 339.621 196.244 L 340.487 194.744 C 340.504 194.713 340.504 194.675 340.487 194.644 L 339.621 193.144 L 336.812 188.279 C 336.784 188.231 336.723 188.215 336.675 188.242 L 334.164 189.692 C 334.077 189.742 334.214 189.779 334.164 189.692 L 331.114 184.410 C 331.064 184.323 331.027 184.460 331.114 184.410 L 333.625 182.960 C 333.673 182.932 333.689 182.871 333.662 182.823 L 330.812 177.887 C 330.784 177.839 330.723 177.822 330.675 177.850 L 328.164 179.300 C 328.077 179.350 328.214 179.387 328.164 179.300 L 325.114 174.017 C 325.064 173.931 325.027 174.067 325.114 174.017 L 327.625 172.567 C 327.673 172.540 327.689 172.478 327.662 172.431 L 324.812 167.494 C 324.784 167.446 324.723 167.430 324.675 167.458 L 322.164 168.908 C 322.077 168.958 322.214 168.994 322.164 168.908 L 319.114 163.625 C 319.064 163.538 319.027 163.675 319.114 163.625 L 321.625 162.175 C 321.673 162.147 321.689 162.086 321.662 162.038 L 318.812 157.102 C 318.784 157.054 318.723 157.038 318.675 157.065 L 316.164 158.515 C 316.077 158.565 316.214 158.602 316.164 158.515 L 313.114 153.233 C 313.064 153.146 313.027 153.283 313.114 153.233 L 315.625 151.783 C 315.673 151.755 315.689 151.694 315.662 151.646 L 312.812 146.710 C 312.784 146.662 312.723 146.645 312.675 146.673 L 310.164 148.123 C 310.077 148.173 310.214 148.210 310.164 148.123 L 307.114 142.840 C 307.064 142.754 307.027 142.890 307.114 142.840 L 309.625 141.390 C 309.673 141.363 309.689 141.302 309.662 141.254 L 306.812 136.317 C 306.784 136.270 306.723 136.253 306.675 136.281 L 304.164 137.731 C 304.077 137.781 304.214 137.817 304.164 137.731 L 301.114 132.448 C 301.064 132.361 301.027 132.498 301.114 132.448 L 303.625 130.998 C 303.673 130.970 303.689 130.909 303.662 130.861 L 300.812 125.925 C 300.784 125.877 300.723 125.861 300.675 125.888 L 298.164 127.338 C 298.077 127.388 298.214 127.425 298.164 127.338 L 295.114 122.056 C 295.064 121.969 295.027 122.106 295.114 122.056 L 297.625 120.606 C 297.673 120.578 297.689 120.517 297.662 120.469 L 294.812 115.533 C 294.784 115.485 294.723 115.469 294.675 115.496 L 292.164 116.946 C 292.077 116.996 292.214 117.033 292.164 116.946 L 289.114 111.663 C 289.064 111.577 289.027 111.713 289.114 111.663 L 291.625 110.213 C 291.673 110.186 291.689 110.125 291.662 110.077 L 288.812 105.140 C 288.784 105.093 288.723 105.076 288.675 105.104 L 286.164 106.554 C 286.077 106.604 286.214 106.640 286.164 106.554 L 283.114 101.271 C 283.064 101.185 283.027 101.321 283.114 101.271 L 285.625 99.821 C 285.673 99.793 285.689 99.732 285.662 99.685 L 282.812 94.748 C 282.784 94.700 282.723 94.684 282.675 94.712 L 280.164 96.162 C 280.077 96.212 280.214 96.248 280.164 96.162 L 277.114 90.879 C 277.064 90.792 277.027 90.929 277.114 90.879 L 279.625 89.429 C 279.673 89.401 279.689 89.340 279.662 89.292 L 276.812 84.356 C 276.784 84.308 276.723 84.292 276.675 84.319 L 274.164 85.769 C 274.077 85.819 274.214 85.856 274.164 85.769 L 271.114 80.486 C 271.064 80.400 271.027 80.536 271.114 80.486 L 273.625 79.036 C 273.673 79.009 273.689 78.948 273.662 78.900 L 270.812 73.964 C 270.784 73.916 270.723 73.899 270.675 73.927 L 268.164 75.377 C 268.077 75.427 268.214 75.464 268.164 75.377 L 265.114 70.094 C 265.064 70.008 265.027 70.144 265.114 70.094 L 267.625 68.644 C 267.673 68.617 267.689 68.555 267.662 68.508 L 264.812 63.571 C 264.784 63.523 264.723 63.507 264.675 63.535 L 262.164 64.985 C 262.077 65.035 262.214 65.071 262.164 64.985 L 259.114 59.702 C 259.064 59.615 259.027 59.752 259.114 59.702 L 261.625 58.252 C 261.673 58.224 261.689 58.163 261.662 58.115 L 258.853 53.250 L 257.987 51.750 C 257.969 51.719 257.936 51.700 257.900 51.700 H 256.168 H 250.550 C 250.495 51.700 250.450 51.745 250.450 51.800 V 54.700 C 250.450 54.800 250.550 54.700 250.450 54.700 H 244.350 C 244.250 54.700 244.350 54.800 244.350 54.700 V 51.800 C 244.350 51.745 244.305 51.700 244.250 51.700 H 238.550 C 238.495 51.700 238.450 51.745 238.450 51.800 V 54.700 C 238.450 54.800 238.550 54.700 238.450 54.700 H 232.350 C 232.250 54.700 232.350 54.800 232.350 54.700 V 51.800 C 232.350 51.745 232.305 51.700 232.250 51.700 H 226.550 C 226.495 51.700 226.450 51.745 226.450 51.800 V 54.700 C 226.450 54.800 226.550 54.700 226.450 54.700 H 220.350 C 220.250 54.700 220.350 54.800 220.350 54.700 V 51.800 C 220.350 51.745 220.305 51.700 220.250 51.700 H 214.550 C 214.495 51.700 214.450 51.745 214.450 51.800 V 54.700 C 214.450 54.800 214.550 54.700 214.450 54.700 H 208.350 C 208.250 54.700 208.350 54.800 208.350 54.700 V 51.800 C 208.350 51.745 208.305 51.700 208.250 51.700 H 202.550 C 202.495 51.700 202.450 51.745 202.450 51.800 V 54.700 C 202.450 54.800 202.550 54.700 202.450 54.700 H 196.350 C 196.250 54.700 196.350 54.800 196.350 54.700 V 51.800 C 196.350 51.745 196.305 51.700 196.250 51.700 H 190.550 C 190.495 51.700 190.450 51.745 190.450 51.800 V 54.700 C 190.450 54.800 190.550 54.700 190.450 54.700 H 184.350 C 184.250 54.700 184.350 54.800 184.350 54.700 V 51.800 C 184.350 51.745 184.305 51.700 184.250 51.700 H 178.550 C 178.495 51.700 178.450 51.745 178.450 51.800 V 54.700 C 178.450 54.800 178.550 54.700 178.450 54.700 H 172.350 C 172.250 54.700 172.350 54.800 172.350 54.700 V 51.800 C 172.350 51.745 172.305 51.700 172.250 51.700 H 166.550 C 166.495 51.700 166.450 51.745 166.450 51.800 V 54.700 C 166.450 54.800 166.550 54.700 166.450 54.700 H 160.350 C 160.250 54.700 160.350 54.800 160.350 54.700 V 51.800 C 160.350 51.745 160.305 51.700 160.250 51.700 H 154.550 C 154.495 51.700 154.450 51.745 154.450 51.800 V 54.700 C 154.450 54.800 154.550 54.700 154.450 54.700 H 148.350 C 148.250 54.700 148.350 54.800 148.350 54.700 V 51.800 C 148.350 51.745 148.305 51.700 148.250 51.700 H 142.550 C 142.495 51.700 142.450 51.745 142.450 51.800 V 54.700 C 142.450 54.800 142.550 54.700 142.450 54.700 H 136.350 C 136.250 54.700 136.350 54.800 136.350 54.700 V 51.800 C 136.350 51.745 136.305 51.700 136.250 51.700 H 130.550 C 130.495 51.700 130.450 51.745 130.450 51.800 V 54.700 C 130.450 54.800 130.550 54.700 130.450 54.700 H 124.350 C 124.250 54.700 124.350 54.800 124.350 54.700 V 51.800 C 124.350 51.745 124.305 51.700 124.250 51.700 H 118.550 C 118.495 51.700 118.450 51.745 118.450 51.800 V 54.700 C 118.450 54.800 118.550 54.700 118.450 54.700 H 112.350 C 112.250 54.700 112.350 54.800 112.350 54.700 V 51.800 C 112.350 51.745 112.305 51.700 112.250 51.700 H 106.550 C 106.495 51.700 106.450 51.745 106.450 51.800 V 54.700 C 106.450 54.800 106.550 54.700 106.450 54.700 H 100.350 C 100.250 54.700 100.350 54.800 100.350 54.700 V 51.800 C 100.350 51.745 100.305 51.700 100.250 51.700 H 94.632 H 92.900 C 92.864 51.700 92.831 51.719 92.813 51.750 L 91.947 53.250 L 89.138 58.115 C 89.111 58.163 89.127 58.224 89.175 58.252 L 91.686 59.702 C 91.773 59.752 91.736 59.615 91.686 59.702 L 88.636 64.985 C 88.586 65.071 88.723 65.035 88.636 64.985 L 86.125 63.535 C 86.077 63.507 86.016 63.523 85.988 63.571 L 83.138 68.508 C 83.111 68.555 83.127 68.617 83.175 68.644 L 85.686 70.094 C 85.773 70.144 85.736 70.008 85.686 70.094 L 82.636 75.377 C 82.586 75.464 82.723 75.427 82.636 75.377 L 80.125 73.927 C 80.077 73.899 80.016 73.916 79.988 73.964 L 77.138 78.900 C 77.111 78.948 77.127 79.009 77.175 79.036 L 79.686 80.486 C 79.773 80.536 79.736 80.400 79.686 80.486 L 76.636 85.769 C 76.586 85.856 76.723 85.819 76.636 85.769 L 74.125 84.319 C 74.077 84.292 74.016 84.308 73.988 84.356 L 71.138 89.292 C 71.111 89.340 71.127 89.401 71.175 89.429 L 73.686 90.879 C 73.773 90.929 73.736 90.792 73.686 90.879 L 70.636 96.162 C 70.586 96.248 70.723 96.212 70.636 96.162 L 68.125 94.712 C 68.077 94.684 68.016 94.700 67.988 94.748 L 65.138 99.685 C 65.111 99.732 65.127 99.793 65.175 99.821 L 67.686 101.271 C 67.773 101.321 67.736 101.185 67.686 101.271 L 64.636 106.554 C 64.586 106.640 64.723 106.604 64.636 106.554 L 62.125 105.104 C 62.077 105.076 62.016 105.093 61.988 105.140 L 59.138 110.077 C 59.111 110.125 59.127 110.186 59.175 110.213 L 61.686 111.663 C 61.773 111.713 61.736 111.577 61.686 111.663 L 58.636 116.946 C 58.586 117.033 58.723 116.996 58.636 116.946 L 56.125 115.496 C 56.077 115.469 56.016 115.485 55.988 115.533 L 53.138 120.469 C 53.111 120.517 53.127 120.578 53.175 120.606 L 55.686 122.056 C 55.773 122.106 55.736 121.969 55.686 122.056 L 52.636 127.338 C 52.586 127.425 52.723 127.388 52.636 127.338 L 50.125 125.888 C 50.077 125.861 50.016 125.877 49.988 125.925 L 47.138 130.861 C 47.111 130.909 47.127 130.970 47.175 130.998 L 49.686 132.448 C 49.773 132.498 49.736 132.361 49.686 132.448 L 46.636 137.731 C 46.586 137.817 46.723 137.781 46.636 137.731 L 44.125 136.281 C 44.077 136.253 44.016 136.270 43.988 136.317 L 41.138 141.254 C 41.111 141.302 41.127 141.363 41.175 141.390 L 43.686 142.840 C 43.773 142.890 43.736 142.754 43.686 142.840 L 40.636 148.123 C 40.586 148.210 40.723 148.173 40.636 148.123 L 38.125 146.673 C 38.077 146.645 38.016 146.662 37.988 146.710 L 35.138 151.646 C 35.111 151.694 35.127 151.755 35.175 151.783 L 37.686 153.233 C 37.773 153.283 37.736 153.146 37.686 153.233 L 34.636 158.515 C 34.586 158.602 34.723 158.565 34.636 158.515 L 32.125 157.065 C 32.077 157.038 32.016 157.054 31.988 157.102 L 29.138 162.038 C 29.111 162.086 29.127 162.147 29.175 162.175 L 31.686 163.625 C 31.773 163.675 31.736 163.538 31.686 163.625 L 28.636 168.908 C 28.586 168.994 28.723 168.958 28.636 168.908 L 26.125 167.458 C 26.077 167.430 26.016 167.446 25.988 167.494 L 23.138 172.431 C 23.111 172.478 23.127 172.540 23.175 172.567 L 25.686 174.017 C 25.773 174.067 25.736 173.931 25.686 174.017 L 22.636 179.300 C 22.586 179.387 22.723 179.350 22.636 179.300 L 20.125 177.850 C 20.077 177.822 20.016 177.839 19.988 177.887 L 17.138 182.823 C 17.111 182.871 17.127 182.932 17.175 182.960 L 19.686 184.410 C 19.773 184.460 19.736 184.323 19.686 184.410 L 16.636 189.692 C 16.586 189.779 16.723 189.742 16.636 189.692 L 14.125 188.242 C 14.077 188.215 14.016 188.231 13.988 188.279 L 11.179 193.144 L 10.313 194.644 C 10.296 194.675 10.296 194.713 10.313 194.744 L 11.179 196.244 L 13.988 201.109 C 14.016 201.157 14.077 201.174 14.125 201.146 L 16.636 199.696 C 16.723 199.646 16.586 199.609 16.636 199.696 L 19.686 204.979 C 19.736 205.065 19.773 204.929 19.686 204.979 L 17.175 206.429 C 17.127 206.456 17.111 206.518 17.138 206.565 L 19.988 211.502 C 20.016 211.550 20.077 211.566 20.125 211.538 L 22.636 210.088 C 22.723 210.038 22.586 210.002 22.636 210.088 L 25.686 215.371 C 25.736 215.458 25.773 215.321 25.686 215.371 L 23.175 216.821 C 23.127 216.849 23.111 216.910 23.138 216.958 L 25.988 221.894 C 26.016 221.942 26.077 221.958 26.125 221.931 L 28.636 220.481 C 28.723 220.431 28.586 220.394 28.636 220.481 L 31.686 225.763 C 31.736 225.850 31.773 225.713 31.686 225.763 L 29.175 227.213 C 29.127 227.241 29.111 227.302 29.138 227.350 L 31.988 232.286 C 32.016 232.334 32.077 232.351 32.125 232.323 L 34.636 230.873 C 34.723 230.823 34.586 230.786 34.636 230.873 L 37.686 236.156 C 37.736 236.242 37.773 236.106 37.686 236.156 L 35.175 237.606 C 35.127 237.633 35.111 237.695 35.138 237.742 L 37.988 242.679 C 38.016 242.727 38.077 242.743 38.125 242.715 L 40.636 241.265 C 40.723 241.215 40.586 241.179 40.636 241.265 L 43.686 246.548 C 43.736 246.635 43.773 246.498 43.686 246.548 L 41.175 247.998 C 41.127 248.026 41.111 248.087 41.138 248.135 L 43.988 253.071 C 44.016 253.119 44.077 253.135 44.125 253.108 L 46.636 251.658 C 46.723 251.608 46.586 251.571 46.636 251.658 L 49.686 256.940 C 49.736 257.027 49.773 256.890 49.686 256.940 L 47.175 258.390 C 47.127 258.418 47.111 258.479 47.138 258.527 L 49.988 263.463 C 50.016 263.511 50.077 263.528 50.125 263.500 L 52.636 262.050 C 52.723 262.000 52.586 261.963 52.636 262.050 L 55.686 267.333 C 55.736 267.419 55.773 267.283 55.686 267.333 L 53.175 268.783 C 53.127 268.810 53.111 268.871 53.138 268.919 L 55.988 273.856 C 56.016 273.903 56.077 273.920 56.125 273.892 L 58.636 272.442 C 58.723 272.392 58.586 272.356 58.636 272.442 L 61.686 277.725 C 61.736 277.812 61.773 277.675 61.686 277.725 L 59.175 279.175 C 59.127 279.203 59.111 279.264 59.138 279.312 L 61.988 284.248 C 62.016 284.296 62.077 284.312 62.125 284.285 L 64.636 282.835 C 64.723 282.785 64.586 282.748 64.636 282.835 L 67.686 288.117 C 67.736 288.204 67.773 288.067 67.686 288.117 L 65.175 289.567 C 65.127 289.595 65.111 289.656 65.138 289.704 L 67.988 294.640 C 68.016 294.688 68.077 294.704 68.125 294.677 L 70.636 293.227 C 70.723 293.177 70.586 293.140 70.636 293.227 L 73.686 298.510 C 73.736 298.596 73.773 298.460 73.686 298.510 L 71.175 299.960 C 71.127 299.987 71.111 300.048 71.138 300.096 L 73.988 305.033 C 74.016 305.080 74.077 305.097 74.125 305.069 L 76.636 303.619 C 76.723 303.569 76.586 303.533 76.636 303.619 L 79.686 308.902 C 79.736 308.988 79.773 308.852 79.686 308.902 L 77.175 310.352 C 77.127 310.379 77.111 310.441 77.138 310.488 L 79.988 315.425 C 80.016 315.473 80.077 315.489 80.125 315.461 L 82.636 314.011 C 82.723 313.961 82.586 313.925 82.636 314.011 L 85.686 319.294 C 85.736 319.381 85.773 319.244 85.686 319.294 L 83.175 320.744 C 83.127 320.772 83.111 320.833 83.138 320.881 L 85.988 325.817 C 86.016 325.865 86.077 325.881 86.125 325.854 L 88.636 324.404 C 88.723 324.354 88.586 324.317 88.636 324.404 L 91.686 329.686 C 91.736 329.773 91.773 329.636 91.686 329.686 L 89.175 331.136 C 89.127 331.164 89.111 331.225 89.138 331.273 L 91.947 336.138 L 92.813 337.638 C 92.831 337.669 92.864 337.688 92.900 337.688 H 94.632 Z"
       stroke="rgb(0,0,0)"
       stroke-width="0.20"
       id="path1144"
       style="stroke:#fe0000;stroke-opacity:1" />
  </g>
</svg>
