<?xml version="1.0" encoding="UTF-8" standalone="no"?>
<svg
   width="354.20mm"
   height="433.90mm"
   viewBox="0.0 0.0 354.20 433.90"
   version="1.1"
   id="svg24805"
   sodipodi:docname="ElectronicsBox_197x135x50_with_holes_part_2of7.svg"
   inkscape:version="1.2.2 (b0a84865, 2022-12-01)"
   xmlns:inkscape="http://www.inkscape.org/namespaces/inkscape"
   xmlns:sodipodi="http://sodipodi.sourceforge.net/DTD/sodipodi-0.dtd"
   xmlns="http://www.w3.org/2000/svg"
   xmlns:svg="http://www.w3.org/2000/svg"
   xmlns:rdf="http://www.w3.org/1999/02/22-rdf-syntax-ns#"
   xmlns:cc="http://creativecommons.org/ns#"
   xmlns:dc="http://purl.org/dc/elements/1.1/">
  <defs
     id="defs24809">
    <rect
       x="228.70485"
       y="1294.8893"
       width="191.1398"
       height="47.508737"
       id="rect59777" />
    <rect
       x="228.70485"
       y="1294.8893"
       width="191.1398"
       height="47.508736"
       id="rect59777-6" />
    <rect
       x="228.70485"
       y="1294.8893"
       width="191.1398"
       height="47.508736"
       id="rect59777-6-0" />
    <rect
       x="228.70485"
       y="1294.8893"
       width="191.1398"
       height="47.508736"
       id="rect59777-6-0-8" />
    <rect
       x="228.70485"
       y="1294.8893"
       width="191.1398"
       height="47.508736"
       id="rect59777-6-0-3" />
    <rect
       x="228.70485"
       y="1294.8893"
       width="191.1398"
       height="47.508736"
       id="rect59777-6-0-6" />
    <rect
       x="228.70485"
       y="1294.8893"
       width="191.1398"
       height="47.508736"
       id="rect59777-6-0-9" />
  </defs>
  <sodipodi:namedview
     id="namedview24807"
     pagecolor="#ffffff"
     bordercolor="#666666"
     borderopacity="1.0"
     inkscape:showpageshadow="2"
     inkscape:pageopacity="0.0"
     inkscape:pagecheckerboard="0"
     inkscape:deskcolor="#d1d1d1"
     inkscape:document-units="mm"
     showgrid="false"
     inkscape:zoom="0.45254834"
     inkscape:cx="-217.65631"
     inkscape:cy="628.66212"
     inkscape:window-width="2560"
     inkscape:window-height="1387"
     inkscape:window-x="0"
     inkscape:window-y="25"
     inkscape:window-maximized="1"
     inkscape:current-layer="svg24805" />
  <!--
ElectronicsBox - Closed box with screw on top and mounting holes

Created with Boxes.py (https://festi.info/boxes.py)
Creation date: 2023-04-13 15:31:11
Command line (remove spaces between dashes): boxes ElectronicsBox - -FingerJoint_play=0.1 - -x=197 - -y=135 - -h=50
Url: http://localhost:8000/ElectronicsBox?FingerJoint_angle=90.0&FingerJoint_style=rectangular&FingerJoint_surroundingspaces=2.0&FingerJoint_bottom_lip=0.0&FingerJoint_edge_width=1.0&FingerJoint_extra_length=0.0&FingerJoint_finger=2.0&FingerJoint_play=0.1&FingerJoint_space=2.0&FingerJoint_width=1.0&x=197&y=135&h=50&outside=0&outside=1&triangle=25.0&d1=2.0&d2=3.0&d3=3.0&outsidemounts=0&outsidemounts=1&holedist=7.0&thickness=3.0&format=svg&tabs=0.0&qr_code=0&debug=0&labels=0&labels=1&reference=100&inner_corners=loop&burn=0.1&language=de&render=1
Url short: http://localhost:8000/ElectronicsBox?FingerJoint_play=0.1&x=197&y=135&h=50
SettingsUrl: http://localhost:8000/ElectronicsBox?FingerJoint_angle=90.0&FingerJoint_style=rectangular&FingerJoint_surroundingspaces=2.0&FingerJoint_bottom_lip=0.0&FingerJoint_edge_width=1.0&FingerJoint_extra_length=0.0&FingerJoint_finger=2.0&FingerJoint_play=0.1&FingerJoint_space=2.0&FingerJoint_width=1.0&x=197&y=135&h=50&outside=0&outside=1&triangle=25.0&d1=2.0&d2=3.0&d3=3.0&outsidemounts=0&outsidemounts=1&holedist=7.0&thickness=3.0&format=svg&tabs=0.0&qr_code=0&debug=0&labels=0&labels=1&reference=100&inner_corners=loop&burn=0.1&language=de
SettingsUrl short: http://localhost:8000/ElectronicsBox?FingerJoint_play=0.1&x=197&y=135&h=50
-->
  <title
     id="title24677">ElectronicsBox</title>
  <metadata
     id="metadata24679">
    <rdf:RDF>
      <cc:Work>
        <dc:title>ElectronicsBox</dc:title>
        <dc:date>2023-04-13 15:31:11</dc:date>
        <dc:source>http://localhost:8000/ElectronicsBox?FingerJoint_angle=90.0&amp;FingerJoint_style=rectangular&amp;FingerJoint_surroundingspaces=2.0&amp;FingerJoint_bottom_lip=0.0&amp;FingerJoint_edge_width=1.0&amp;FingerJoint_extra_length=0.0&amp;FingerJoint_finger=2.0&amp;FingerJoint_play=0.1&amp;FingerJoint_space=2.0&amp;FingerJoint_width=1.0&amp;x=197&amp;y=135&amp;h=50&amp;outside=0&amp;outside=1&amp;triangle=25.0&amp;d1=2.0&amp;d2=3.0&amp;d3=3.0&amp;outsidemounts=0&amp;outsidemounts=1&amp;holedist=7.0&amp;thickness=3.0&amp;format=svg&amp;tabs=0.0&amp;qr_code=0&amp;debug=0&amp;labels=0&amp;labels=1&amp;reference=100&amp;inner_corners=loop&amp;burn=0.1&amp;language=de&amp;render=1</dc:source>
        <dc:source>http://localhost:8000/ElectronicsBox?FingerJoint_play=0.1&amp;x=197&amp;y=135&amp;h=50</dc:source>
        <dc:description>Closed box with screw on top and mounting holes

Created with Boxes.py (https://festi.info/boxes.py)
Command line: boxes ElectronicsBox --FingerJoint_angle=90.0 --FingerJoint_style=rectangular --FingerJoint_surroundingspaces=2.0 --FingerJoint_bottom_lip=0.0 --FingerJoint_edge_width=1.0 --FingerJoint_extra_length=0.0 --FingerJoint_finger=2.0 --FingerJoint_play=0.1 --FingerJoint_space=2.0 --FingerJoint_width=1.0 --x=197 --y=135 --h=50 --outside=0 --outside=1 --triangle=25.0 --d1=2.0 --d2=3.0 --d3=3.0 --outsidemounts=0 --outsidemounts=1 --holedist=7.0 --thickness=3.0 --format=svg --tabs=0.0 --qr_code=0 --debug=0 --labels=0 --labels=1 --reference=100 --inner_corners=loop --burn=0.1
Command line short: boxes ElectronicsBox --FingerJoint_play=0.1 --x=197 --y=135 --h=50
Url: http://localhost:8000/ElectronicsBox?FingerJoint_angle=90.0&amp;FingerJoint_style=rectangular&amp;FingerJoint_surroundingspaces=2.0&amp;FingerJoint_bottom_lip=0.0&amp;FingerJoint_edge_width=1.0&amp;FingerJoint_extra_length=0.0&amp;FingerJoint_finger=2.0&amp;FingerJoint_play=0.1&amp;FingerJoint_space=2.0&amp;FingerJoint_width=1.0&amp;x=197&amp;y=135&amp;h=50&amp;outside=0&amp;outside=1&amp;triangle=25.0&amp;d1=2.0&amp;d2=3.0&amp;d3=3.0&amp;outsidemounts=0&amp;outsidemounts=1&amp;holedist=7.0&amp;thickness=3.0&amp;format=svg&amp;tabs=0.0&amp;qr_code=0&amp;debug=0&amp;labels=0&amp;labels=1&amp;reference=100&amp;inner_corners=loop&amp;burn=0.1&amp;language=de&amp;render=1
Url short: http://localhost:8000/ElectronicsBox?FingerJoint_play=0.1&amp;x=197&amp;y=135&amp;h=50
SettingsUrl: http://localhost:8000/ElectronicsBox?FingerJoint_angle=90.0&amp;FingerJoint_style=rectangular&amp;FingerJoint_surroundingspaces=2.0&amp;FingerJoint_bottom_lip=0.0&amp;FingerJoint_edge_width=1.0&amp;FingerJoint_extra_length=0.0&amp;FingerJoint_finger=2.0&amp;FingerJoint_play=0.1&amp;FingerJoint_space=2.0&amp;FingerJoint_width=1.0&amp;x=197&amp;y=135&amp;h=50&amp;outside=0&amp;outside=1&amp;triangle=25.0&amp;d1=2.0&amp;d2=3.0&amp;d3=3.0&amp;outsidemounts=0&amp;outsidemounts=1&amp;holedist=7.0&amp;thickness=3.0&amp;format=svg&amp;tabs=0.0&amp;qr_code=0&amp;debug=0&amp;labels=0&amp;labels=1&amp;reference=100&amp;inner_corners=loop&amp;burn=0.1&amp;language=de
SettingsUrl short: http://localhost:8000/ElectronicsBox?FingerJoint_play=0.1&amp;x=197&amp;y=135&amp;h=50
</dc:description>
      </cc:Work>
    </rdf:RDF>
  </metadata>
  <g
     id="p-6"
     style="fill:none;stroke-linecap:round;stroke-linejoin:round;">
    <path
       d="M 20.133 163.667 C 20.133 163.935 20.056 164.198 19.911 164.424 C 19.766 164.649 19.559 164.829 19.315 164.940 C 19.071 165.052 18.800 165.091 18.534 165.052 C 18.268 165.014 18.019 164.900 17.817 164.725 C 17.614 164.549 17.466 164.319 17.390 164.061 C 17.314 163.804 17.314 163.530 17.390 163.272 C 17.466 163.015 17.614 162.784 17.817 162.609 C 18.019 162.433 18.268 162.319 18.534 162.281 C 18.800 162.243 19.071 162.282 19.315 162.393 C 19.559 162.505 19.766 162.684 19.911 162.910 C 20.056 163.136 20.133 163.398 20.133 163.667 Z"
       stroke="rgb(0,0,255)"
       stroke-width="0.20"
       id="path24775" />
    <path
       d="M 10.400 172.100 H 201.400 C 201.455 172.100 201.500 172.055 201.500 172.000 V 43.000 C 201.500 42.945 201.455 42.900 201.400 42.900 H 10.400 C 10.345 42.900 10.300 42.945 10.300 43.000 V 172.000 C 10.300 172.055 10.345 172.100 10.400 172.100"
       stroke="rgb(0,0,0)"
       stroke-width="0.20"
       id="path24779" />
    <path
       d="M 193.067 162.267 C 193.335 162.267 193.598 162.344 193.824 162.489 C 194.049 162.634 194.229 162.841 194.340 163.085 C 194.452 163.329 194.491 163.600 194.452 163.866 C 194.414 164.132 194.300 164.381 194.125 164.583 C 193.949 164.786 193.719 164.934 193.461 165.010 C 193.204 165.086 192.930 165.086 192.672 165.010 C 192.415 164.934 192.184 164.786 192.009 164.583 C 191.833 164.381 191.719 164.132 191.681 163.866 C 191.643 163.600 191.682 163.329 191.793 163.085 C 191.905 162.841 192.084 162.634 192.310 162.489 C 192.536 162.344 192.798 162.267 193.067 162.267 Z"
       stroke="rgb(0,0,255)"
       stroke-width="0.20"
       id="path24781" />
    <path
       d="M 191.667 51.333 C 191.667 51.065 191.744 50.802 191.889 50.576 C 192.034 50.351 192.241 50.171 192.485 50.060 C 192.729 49.948 193.000 49.909 193.266 49.948 C 193.532 49.986 193.781 50.100 193.983 50.275 C 194.186 50.451 194.334 50.681 194.410 50.939 C 194.486 51.196 194.486 51.470 194.410 51.728 C 194.334 51.985 194.186 52.216 193.983 52.391 C 193.781 52.567 193.532 52.681 193.266 52.719 C 193.000 52.757 192.729 52.718 192.485 52.607 C 192.241 52.495 192.034 52.316 191.889 52.090 C 191.744 51.864 191.667 51.602 191.667 51.333 Z"
       stroke="rgb(0,0,255)"
       stroke-width="0.20"
       id="path24783" />
    <path
       d="M 18.733 52.733 C 18.465 52.733 18.202 52.656 17.976 52.511 C 17.751 52.366 17.571 52.159 17.460 51.915 C 17.348 51.671 17.309 51.400 17.348 51.134 C 17.386 50.868 17.500 50.619 17.675 50.417 C 17.851 50.214 18.081 50.066 18.339 49.990 C 18.596 49.914 18.870 49.914 19.128 49.990 C 19.385 50.066 19.616 50.214 19.791 50.417 C 19.967 50.619 20.081 50.868 20.119 51.134 C 20.157 51.400 20.118 51.671 20.007 51.915 C 19.895 52.159 19.716 52.366 19.490 52.511 C 19.264 52.656 19.002 52.733 18.733 52.733 Z"
       stroke="rgb(0,0,255)"
       stroke-width="0.20"
       id="path24785" />
  </g>
</svg>
