<?xml version="1.0" encoding="UTF-8" standalone="no"?>
<svg
   width="354.20mm"
   height="433.90mm"
   viewBox="0.0 0.0 354.20 433.90"
   version="1.1"
   id="svg24805"
   sodipodi:docname="ElectronicsBox_197x135x50_with_holes_part_6of7.svg"
   inkscape:version="1.2.2 (b0a84865, 2022-12-01)"
   xmlns:inkscape="http://www.inkscape.org/namespaces/inkscape"
   xmlns:sodipodi="http://sodipodi.sourceforge.net/DTD/sodipodi-0.dtd"
   xmlns="http://www.w3.org/2000/svg"
   xmlns:svg="http://www.w3.org/2000/svg"
   xmlns:rdf="http://www.w3.org/1999/02/22-rdf-syntax-ns#"
   xmlns:cc="http://creativecommons.org/ns#"
   xmlns:dc="http://purl.org/dc/elements/1.1/">
  <defs
     id="defs24809">
    <rect
       x="228.70485"
       y="1294.8893"
       width="191.1398"
       height="47.508737"
       id="rect59777" />
    <rect
       x="228.70485"
       y="1294.8893"
       width="191.1398"
       height="47.508736"
       id="rect59777-6" />
    <rect
       x="228.70485"
       y="1294.8893"
       width="191.1398"
       height="47.508736"
       id="rect59777-6-0" />
    <rect
       x="228.70485"
       y="1294.8893"
       width="191.1398"
       height="47.508736"
       id="rect59777-6-0-8" />
    <rect
       x="228.70485"
       y="1294.8893"
       width="191.1398"
       height="47.508736"
       id="rect59777-6-0-3" />
    <rect
       x="228.70485"
       y="1294.8893"
       width="191.1398"
       height="47.508736"
       id="rect59777-6-0-6" />
    <rect
       x="228.70485"
       y="1294.8893"
       width="191.1398"
       height="47.508736"
       id="rect59777-6-0-9" />
  </defs>
  <sodipodi:namedview
     id="namedview24807"
     pagecolor="#ffffff"
     bordercolor="#666666"
     borderopacity="1.0"
     inkscape:showpageshadow="2"
     inkscape:pageopacity="0.0"
     inkscape:pagecheckerboard="0"
     inkscape:deskcolor="#d1d1d1"
     inkscape:document-units="mm"
     showgrid="false"
     inkscape:zoom="0.45254834"
     inkscape:cx="-40.879611"
     inkscape:cy="628.66212"
     inkscape:window-width="2560"
     inkscape:window-height="1387"
     inkscape:window-x="0"
     inkscape:window-y="25"
     inkscape:window-maximized="1"
     inkscape:current-layer="svg24805" />
  <!--
ElectronicsBox - Closed box with screw on top and mounting holes

Created with Boxes.py (https://festi.info/boxes.py)
Creation date: 2023-04-13 15:31:11
Command line (remove spaces between dashes): boxes ElectronicsBox - -FingerJoint_play=0.1 - -x=197 - -y=135 - -h=50
Url: http://localhost:8000/ElectronicsBox?FingerJoint_angle=90.0&FingerJoint_style=rectangular&FingerJoint_surroundingspaces=2.0&FingerJoint_bottom_lip=0.0&FingerJoint_edge_width=1.0&FingerJoint_extra_length=0.0&FingerJoint_finger=2.0&FingerJoint_play=0.1&FingerJoint_space=2.0&FingerJoint_width=1.0&x=197&y=135&h=50&outside=0&outside=1&triangle=25.0&d1=2.0&d2=3.0&d3=3.0&outsidemounts=0&outsidemounts=1&holedist=7.0&thickness=3.0&format=svg&tabs=0.0&qr_code=0&debug=0&labels=0&labels=1&reference=100&inner_corners=loop&burn=0.1&language=de&render=1
Url short: http://localhost:8000/ElectronicsBox?FingerJoint_play=0.1&x=197&y=135&h=50
SettingsUrl: http://localhost:8000/ElectronicsBox?FingerJoint_angle=90.0&FingerJoint_style=rectangular&FingerJoint_surroundingspaces=2.0&FingerJoint_bottom_lip=0.0&FingerJoint_edge_width=1.0&FingerJoint_extra_length=0.0&FingerJoint_finger=2.0&FingerJoint_play=0.1&FingerJoint_space=2.0&FingerJoint_width=1.0&x=197&y=135&h=50&outside=0&outside=1&triangle=25.0&d1=2.0&d2=3.0&d3=3.0&outsidemounts=0&outsidemounts=1&holedist=7.0&thickness=3.0&format=svg&tabs=0.0&qr_code=0&debug=0&labels=0&labels=1&reference=100&inner_corners=loop&burn=0.1&language=de
SettingsUrl short: http://localhost:8000/ElectronicsBox?FingerJoint_play=0.1&x=197&y=135&h=50
-->
  <title
     id="title24677">ElectronicsBox</title>
  <metadata
     id="metadata24679">
    <rdf:RDF>
      <cc:Work>
        <dc:title>ElectronicsBox</dc:title>
        <dc:date>2023-04-13 15:31:11</dc:date>
        <dc:source>http://localhost:8000/ElectronicsBox?FingerJoint_angle=90.0&amp;FingerJoint_style=rectangular&amp;FingerJoint_surroundingspaces=2.0&amp;FingerJoint_bottom_lip=0.0&amp;FingerJoint_edge_width=1.0&amp;FingerJoint_extra_length=0.0&amp;FingerJoint_finger=2.0&amp;FingerJoint_play=0.1&amp;FingerJoint_space=2.0&amp;FingerJoint_width=1.0&amp;x=197&amp;y=135&amp;h=50&amp;outside=0&amp;outside=1&amp;triangle=25.0&amp;d1=2.0&amp;d2=3.0&amp;d3=3.0&amp;outsidemounts=0&amp;outsidemounts=1&amp;holedist=7.0&amp;thickness=3.0&amp;format=svg&amp;tabs=0.0&amp;qr_code=0&amp;debug=0&amp;labels=0&amp;labels=1&amp;reference=100&amp;inner_corners=loop&amp;burn=0.1&amp;language=de&amp;render=1</dc:source>
        <dc:source>http://localhost:8000/ElectronicsBox?FingerJoint_play=0.1&amp;x=197&amp;y=135&amp;h=50</dc:source>
        <dc:description>Closed box with screw on top and mounting holes

Created with Boxes.py (https://festi.info/boxes.py)
Command line: boxes ElectronicsBox --FingerJoint_angle=90.0 --FingerJoint_style=rectangular --FingerJoint_surroundingspaces=2.0 --FingerJoint_bottom_lip=0.0 --FingerJoint_edge_width=1.0 --FingerJoint_extra_length=0.0 --FingerJoint_finger=2.0 --FingerJoint_play=0.1 --FingerJoint_space=2.0 --FingerJoint_width=1.0 --x=197 --y=135 --h=50 --outside=0 --outside=1 --triangle=25.0 --d1=2.0 --d2=3.0 --d3=3.0 --outsidemounts=0 --outsidemounts=1 --holedist=7.0 --thickness=3.0 --format=svg --tabs=0.0 --qr_code=0 --debug=0 --labels=0 --labels=1 --reference=100 --inner_corners=loop --burn=0.1
Command line short: boxes ElectronicsBox --FingerJoint_play=0.1 --x=197 --y=135 --h=50
Url: http://localhost:8000/ElectronicsBox?FingerJoint_angle=90.0&amp;FingerJoint_style=rectangular&amp;FingerJoint_surroundingspaces=2.0&amp;FingerJoint_bottom_lip=0.0&amp;FingerJoint_edge_width=1.0&amp;FingerJoint_extra_length=0.0&amp;FingerJoint_finger=2.0&amp;FingerJoint_play=0.1&amp;FingerJoint_space=2.0&amp;FingerJoint_width=1.0&amp;x=197&amp;y=135&amp;h=50&amp;outside=0&amp;outside=1&amp;triangle=25.0&amp;d1=2.0&amp;d2=3.0&amp;d3=3.0&amp;outsidemounts=0&amp;outsidemounts=1&amp;holedist=7.0&amp;thickness=3.0&amp;format=svg&amp;tabs=0.0&amp;qr_code=0&amp;debug=0&amp;labels=0&amp;labels=1&amp;reference=100&amp;inner_corners=loop&amp;burn=0.1&amp;language=de&amp;render=1
Url short: http://localhost:8000/ElectronicsBox?FingerJoint_play=0.1&amp;x=197&amp;y=135&amp;h=50
SettingsUrl: http://localhost:8000/ElectronicsBox?FingerJoint_angle=90.0&amp;FingerJoint_style=rectangular&amp;FingerJoint_surroundingspaces=2.0&amp;FingerJoint_bottom_lip=0.0&amp;FingerJoint_edge_width=1.0&amp;FingerJoint_extra_length=0.0&amp;FingerJoint_finger=2.0&amp;FingerJoint_play=0.1&amp;FingerJoint_space=2.0&amp;FingerJoint_width=1.0&amp;x=197&amp;y=135&amp;h=50&amp;outside=0&amp;outside=1&amp;triangle=25.0&amp;d1=2.0&amp;d2=3.0&amp;d3=3.0&amp;outsidemounts=0&amp;outsidemounts=1&amp;holedist=7.0&amp;thickness=3.0&amp;format=svg&amp;tabs=0.0&amp;qr_code=0&amp;debug=0&amp;labels=0&amp;labels=1&amp;reference=100&amp;inner_corners=loop&amp;burn=0.1&amp;language=de
SettingsUrl short: http://localhost:8000/ElectronicsBox?FingerJoint_play=0.1&amp;x=197&amp;y=135&amp;h=50
</dc:description>
      </cc:Work>
    </rdf:RDF>
  </metadata>
  <g
     id="p-3"
     style="fill:none;stroke-linecap:round;stroke-linejoin:round;">
    <path
       d="M 224.600 316.450 H 221.550 C 221.450 316.450 221.550 316.550 221.550 316.450 V 313.350 C 221.550 313.250 221.450 313.350 221.550 313.350 H 227.650 C 227.750 313.350 227.650 313.250 227.650 313.350 V 316.450 C 227.650 316.550 227.750 316.450 227.650 316.450 H 224.600 Z"
       stroke="rgb(0,0,255)"
       stroke-width="0.20"
       id="path24704" />
    <path
       d="M 328.600 313.350 H 331.650 C 331.750 313.350 331.650 313.250 331.650 313.350 V 316.450 C 331.650 316.550 331.750 316.450 331.650 316.450 H 325.550 C 325.450 316.450 325.550 316.550 325.550 316.450 V 313.350 C 325.550 313.250 325.450 313.350 325.550 313.350 H 328.600 Z"
       stroke="rgb(0,0,255)"
       stroke-width="0.20"
       id="path24706" />
    <path
       d="M 212.100 357.500 H 219.500 C 219.600 357.500 219.500 357.400 219.500 357.500 V 360.400 C 219.500 360.455 219.545 360.500 219.600 360.500 H 225.600 C 225.655 360.500 225.700 360.455 225.700 360.400 V 357.500 C 225.700 357.400 225.600 357.500 225.700 357.500 H 231.500 C 231.600 357.500 231.500 357.400 231.500 357.500 V 360.400 C 231.500 360.455 231.545 360.500 231.600 360.500 H 237.600 C 237.655 360.500 237.700 360.455 237.700 360.400 V 357.500 C 237.700 357.400 237.600 357.500 237.700 357.500 H 243.500 C 243.600 357.500 243.500 357.400 243.500 357.500 V 360.400 C 243.500 360.455 243.545 360.500 243.600 360.500 H 249.600 C 249.655 360.500 249.700 360.455 249.700 360.400 V 357.500 C 249.700 357.400 249.600 357.500 249.700 357.500 H 255.500 C 255.600 357.500 255.500 357.400 255.500 357.500 V 360.400 C 255.500 360.455 255.545 360.500 255.600 360.500 H 261.600 C 261.655 360.500 261.700 360.455 261.700 360.400 V 357.500 C 261.700 357.400 261.600 357.500 261.700 357.500 H 267.500 C 267.600 357.500 267.500 357.400 267.500 357.500 V 360.400 C 267.500 360.455 267.545 360.500 267.600 360.500 H 273.600 C 273.655 360.500 273.700 360.455 273.700 360.400 V 357.500 C 273.700 357.400 273.600 357.500 273.700 357.500 H 279.500 C 279.600 357.500 279.500 357.400 279.500 357.500 V 360.400 C 279.500 360.455 279.545 360.500 279.600 360.500 H 285.600 C 285.655 360.500 285.700 360.455 285.700 360.400 V 357.500 C 285.700 357.400 285.600 357.500 285.700 357.500 H 291.500 C 291.600 357.500 291.500 357.400 291.500 357.500 V 360.400 C 291.500 360.455 291.545 360.500 291.600 360.500 H 297.600 C 297.655 360.500 297.700 360.455 297.700 360.400 V 357.500 C 297.700 357.400 297.600 357.500 297.700 357.500 H 303.500 C 303.600 357.500 303.500 357.400 303.500 357.500 V 360.400 C 303.500 360.455 303.545 360.500 303.600 360.500 H 309.600 C 309.655 360.500 309.700 360.455 309.700 360.400 V 357.500 C 309.700 357.400 309.600 357.500 309.700 357.500 H 315.500 C 315.600 357.500 315.500 357.400 315.500 357.500 V 360.400 C 315.500 360.455 315.545 360.500 315.600 360.500 H 321.600 C 321.655 360.500 321.700 360.455 321.700 360.400 V 357.500 C 321.700 357.400 321.600 357.500 321.700 357.500 H 327.500 C 327.600 357.500 327.500 357.400 327.500 357.500 V 360.400 C 327.500 360.455 327.545 360.500 327.600 360.500 H 333.600 C 333.655 360.500 333.700 360.455 333.700 360.400 V 357.500 C 333.700 357.400 333.600 357.500 333.700 357.500 H 341.100 C 341.155 357.500 341.200 357.455 341.200 357.400 V 349.000 C 341.200 348.900 341.100 349.000 341.200 349.000 H 344.100 C 344.155 349.000 344.200 348.955 344.200 348.900 V 342.900 C 344.200 342.845 344.155 342.800 344.100 342.800 H 341.200 C 341.100 342.800 341.200 342.900 341.200 342.800 V 337.000 C 341.200 336.900 341.100 337.000 341.200 337.000 H 344.100 C 344.155 337.000 344.200 336.955 344.200 336.900 V 330.900 C 344.200 330.845 344.155 330.800 344.100 330.800 H 341.200 C 341.100 330.800 341.200 330.900 341.200 330.800 V 325.000 C 341.200 324.900 341.100 325.000 341.200 325.000 H 344.100 C 344.155 325.000 344.200 324.955 344.200 324.900 V 318.900 C 344.200 318.845 344.155 318.800 344.100 318.800 H 341.200 C 341.100 318.800 341.200 318.900 341.200 318.800 V 310.400 C 341.200 310.345 341.155 310.300 341.100 310.300 H 212.100 C 212.045 310.300 212.000 310.345 212.000 310.400 V 318.800 C 212.000 318.900 212.100 318.800 212.000 318.800 H 209.100 C 209.045 318.800 209.000 318.845 209.000 318.900 V 324.900 C 209.000 324.955 209.045 325.000 209.100 325.000 H 212.000 C 212.100 325.000 212.000 324.900 212.000 325.000 V 330.800 C 212.000 330.900 212.100 330.800 212.000 330.800 H 209.100 C 209.045 330.800 209.000 330.845 209.000 330.900 V 336.900 C 209.000 336.955 209.045 337.000 209.100 337.000 H 212.000 C 212.100 337.000 212.000 336.900 212.000 337.000 V 342.800 C 212.000 342.900 212.100 342.800 212.000 342.800 H 209.100 C 209.045 342.800 209.000 342.845 209.000 342.900 V 348.900 C 209.000 348.955 209.045 349.000 209.100 349.000 H 212.000 C 212.100 349.000 212.000 348.900 212.000 349.000 V 357.400 C 212.000 357.455 212.045 357.500 212.100 357.500"
       stroke="rgb(0,0,0)"
       stroke-width="0.20"
       id="path24710" />
  </g>
</svg>
