<?xml version="1.0" encoding="UTF-8" standalone="no"?>
<svg
   width="354.20mm"
   height="433.90mm"
   viewBox="0.0 0.0 354.20 433.90"
   version="1.1"
   id="svg24805"
   sodipodi:docname="ElectronicsBox_197x135x50_with_holes_part_1of7.svg"
   inkscape:version="1.2.2 (b0a84865, 2022-12-01)"
   xmlns:inkscape="http://www.inkscape.org/namespaces/inkscape"
   xmlns:sodipodi="http://sodipodi.sourceforge.net/DTD/sodipodi-0.dtd"
   xmlns="http://www.w3.org/2000/svg"
   xmlns:svg="http://www.w3.org/2000/svg"
   xmlns:rdf="http://www.w3.org/1999/02/22-rdf-syntax-ns#"
   xmlns:cc="http://creativecommons.org/ns#"
   xmlns:dc="http://purl.org/dc/elements/1.1/">
  <defs
     id="defs24809">
    <rect
       x="228.70485"
       y="1294.8893"
       width="191.1398"
       height="47.508737"
       id="rect59777" />
    <rect
       x="228.70485"
       y="1294.8893"
       width="191.1398"
       height="47.508736"
       id="rect59777-6" />
    <rect
       x="228.70485"
       y="1294.8893"
       width="191.1398"
       height="47.508736"
       id="rect59777-6-0" />
    <rect
       x="228.70485"
       y="1294.8893"
       width="191.1398"
       height="47.508736"
       id="rect59777-6-0-8" />
    <rect
       x="228.70485"
       y="1294.8893"
       width="191.1398"
       height="47.508736"
       id="rect59777-6-0-3" />
    <rect
       x="228.70485"
       y="1294.8893"
       width="191.1398"
       height="47.508736"
       id="rect59777-6-0-6" />
    <rect
       x="228.70485"
       y="1294.8893"
       width="191.1398"
       height="47.508736"
       id="rect59777-6-0-9" />
  </defs>
  <sodipodi:namedview
     id="namedview24807"
     pagecolor="#ffffff"
     bordercolor="#666666"
     borderopacity="1.0"
     inkscape:showpageshadow="2"
     inkscape:pageopacity="0.0"
     inkscape:pagecheckerboard="0"
     inkscape:deskcolor="#d1d1d1"
     inkscape:document-units="mm"
     showgrid="false"
     inkscape:zoom="0.45254834"
     inkscape:cx="-847.42328"
     inkscape:cy="626.45241"
     inkscape:window-width="2560"
     inkscape:window-height="1387"
     inkscape:window-x="0"
     inkscape:window-y="25"
     inkscape:window-maximized="1"
     inkscape:current-layer="svg24805" />
  <!--
ElectronicsBox - Closed box with screw on top and mounting holes

Created with Boxes.py (https://festi.info/boxes.py)
Creation date: 2023-04-13 15:31:11
Command line (remove spaces between dashes): boxes ElectronicsBox - -FingerJoint_play=0.1 - -x=197 - -y=135 - -h=50
Url: http://localhost:8000/ElectronicsBox?FingerJoint_angle=90.0&FingerJoint_style=rectangular&FingerJoint_surroundingspaces=2.0&FingerJoint_bottom_lip=0.0&FingerJoint_edge_width=1.0&FingerJoint_extra_length=0.0&FingerJoint_finger=2.0&FingerJoint_play=0.1&FingerJoint_space=2.0&FingerJoint_width=1.0&x=197&y=135&h=50&outside=0&outside=1&triangle=25.0&d1=2.0&d2=3.0&d3=3.0&outsidemounts=0&outsidemounts=1&holedist=7.0&thickness=3.0&format=svg&tabs=0.0&qr_code=0&debug=0&labels=0&labels=1&reference=100&inner_corners=loop&burn=0.1&language=de&render=1
Url short: http://localhost:8000/ElectronicsBox?FingerJoint_play=0.1&x=197&y=135&h=50
SettingsUrl: http://localhost:8000/ElectronicsBox?FingerJoint_angle=90.0&FingerJoint_style=rectangular&FingerJoint_surroundingspaces=2.0&FingerJoint_bottom_lip=0.0&FingerJoint_edge_width=1.0&FingerJoint_extra_length=0.0&FingerJoint_finger=2.0&FingerJoint_play=0.1&FingerJoint_space=2.0&FingerJoint_width=1.0&x=197&y=135&h=50&outside=0&outside=1&triangle=25.0&d1=2.0&d2=3.0&d3=3.0&outsidemounts=0&outsidemounts=1&holedist=7.0&thickness=3.0&format=svg&tabs=0.0&qr_code=0&debug=0&labels=0&labels=1&reference=100&inner_corners=loop&burn=0.1&language=de
SettingsUrl short: http://localhost:8000/ElectronicsBox?FingerJoint_play=0.1&x=197&y=135&h=50
-->
  <title
     id="title24677">ElectronicsBox</title>
  <metadata
     id="metadata24679">
    <rdf:RDF>
      <cc:Work>
        <dc:title>ElectronicsBox</dc:title>
        <dc:date>2023-04-13 15:31:11</dc:date>
        <dc:source>http://localhost:8000/ElectronicsBox?FingerJoint_angle=90.0&amp;FingerJoint_style=rectangular&amp;FingerJoint_surroundingspaces=2.0&amp;FingerJoint_bottom_lip=0.0&amp;FingerJoint_edge_width=1.0&amp;FingerJoint_extra_length=0.0&amp;FingerJoint_finger=2.0&amp;FingerJoint_play=0.1&amp;FingerJoint_space=2.0&amp;FingerJoint_width=1.0&amp;x=197&amp;y=135&amp;h=50&amp;outside=0&amp;outside=1&amp;triangle=25.0&amp;d1=2.0&amp;d2=3.0&amp;d3=3.0&amp;outsidemounts=0&amp;outsidemounts=1&amp;holedist=7.0&amp;thickness=3.0&amp;format=svg&amp;tabs=0.0&amp;qr_code=0&amp;debug=0&amp;labels=0&amp;labels=1&amp;reference=100&amp;inner_corners=loop&amp;burn=0.1&amp;language=de&amp;render=1</dc:source>
        <dc:source>http://localhost:8000/ElectronicsBox?FingerJoint_play=0.1&amp;x=197&amp;y=135&amp;h=50</dc:source>
        <dc:description>Closed box with screw on top and mounting holes

Created with Boxes.py (https://festi.info/boxes.py)
Command line: boxes ElectronicsBox --FingerJoint_angle=90.0 --FingerJoint_style=rectangular --FingerJoint_surroundingspaces=2.0 --FingerJoint_bottom_lip=0.0 --FingerJoint_edge_width=1.0 --FingerJoint_extra_length=0.0 --FingerJoint_finger=2.0 --FingerJoint_play=0.1 --FingerJoint_space=2.0 --FingerJoint_width=1.0 --x=197 --y=135 --h=50 --outside=0 --outside=1 --triangle=25.0 --d1=2.0 --d2=3.0 --d3=3.0 --outsidemounts=0 --outsidemounts=1 --holedist=7.0 --thickness=3.0 --format=svg --tabs=0.0 --qr_code=0 --debug=0 --labels=0 --labels=1 --reference=100 --inner_corners=loop --burn=0.1
Command line short: boxes ElectronicsBox --FingerJoint_play=0.1 --x=197 --y=135 --h=50
Url: http://localhost:8000/ElectronicsBox?FingerJoint_angle=90.0&amp;FingerJoint_style=rectangular&amp;FingerJoint_surroundingspaces=2.0&amp;FingerJoint_bottom_lip=0.0&amp;FingerJoint_edge_width=1.0&amp;FingerJoint_extra_length=0.0&amp;FingerJoint_finger=2.0&amp;FingerJoint_play=0.1&amp;FingerJoint_space=2.0&amp;FingerJoint_width=1.0&amp;x=197&amp;y=135&amp;h=50&amp;outside=0&amp;outside=1&amp;triangle=25.0&amp;d1=2.0&amp;d2=3.0&amp;d3=3.0&amp;outsidemounts=0&amp;outsidemounts=1&amp;holedist=7.0&amp;thickness=3.0&amp;format=svg&amp;tabs=0.0&amp;qr_code=0&amp;debug=0&amp;labels=0&amp;labels=1&amp;reference=100&amp;inner_corners=loop&amp;burn=0.1&amp;language=de&amp;render=1
Url short: http://localhost:8000/ElectronicsBox?FingerJoint_play=0.1&amp;x=197&amp;y=135&amp;h=50
SettingsUrl: http://localhost:8000/ElectronicsBox?FingerJoint_angle=90.0&amp;FingerJoint_style=rectangular&amp;FingerJoint_surroundingspaces=2.0&amp;FingerJoint_bottom_lip=0.0&amp;FingerJoint_edge_width=1.0&amp;FingerJoint_extra_length=0.0&amp;FingerJoint_finger=2.0&amp;FingerJoint_play=0.1&amp;FingerJoint_space=2.0&amp;FingerJoint_width=1.0&amp;x=197&amp;y=135&amp;h=50&amp;outside=0&amp;outside=1&amp;triangle=25.0&amp;d1=2.0&amp;d2=3.0&amp;d3=3.0&amp;outsidemounts=0&amp;outsidemounts=1&amp;holedist=7.0&amp;thickness=3.0&amp;format=svg&amp;tabs=0.0&amp;qr_code=0&amp;debug=0&amp;labels=0&amp;labels=1&amp;reference=100&amp;inner_corners=loop&amp;burn=0.1&amp;language=de
SettingsUrl short: http://localhost:8000/ElectronicsBox?FingerJoint_play=0.1&amp;x=197&amp;y=135&amp;h=50
</dc:description>
      </cc:Work>
    </rdf:RDF>
  </metadata>
  <g
     id="p-7"
     style="fill:none;stroke-linecap:round;stroke-linejoin:round;">
    <path
       d="M 18.208 38.400 H 27.608 C 27.708 38.400 27.608 38.300 27.608 38.400 V 41.300 C 27.608 41.355 27.653 41.400 27.708 41.400 H 33.708 C 33.764 41.400 33.808 41.355 33.808 41.300 V 38.400 C 33.808 38.300 33.708 38.400 33.808 38.400 H 43.208 C 43.264 38.400 43.308 38.355 43.308 38.300 V 28.900 C 43.308 28.800 43.208 28.900 43.308 28.900 H 46.208 C 46.264 28.900 46.308 28.855 46.308 28.800 V 22.800 C 46.308 22.745 46.264 22.700 46.208 22.700 H 43.308 C 43.208 22.700 43.308 22.800 43.308 22.700 V 13.300 C 43.308 13.245 43.264 13.200 43.208 13.200 C 43.182 13.200 43.156 13.211 43.138 13.229 L 18.138 38.229 C 18.119 38.248 18.108 38.273 18.108 38.300 C 18.108 38.355 18.153 38.400 18.208 38.400 Z"
       stroke="rgb(0,0,0)"
       stroke-width="0.20"
       id="path24788" />
    <path
       d="M 34.875 29.067 C 35.048 29.067 35.216 29.116 35.362 29.210 C 35.507 29.303 35.622 29.436 35.694 29.593 C 35.765 29.750 35.790 29.924 35.766 30.095 C 35.741 30.266 35.668 30.426 35.555 30.556 C 35.442 30.686 35.294 30.782 35.129 30.830 C 34.963 30.879 34.787 30.879 34.621 30.830 C 34.456 30.782 34.308 30.686 34.195 30.556 C 34.082 30.426 34.009 30.266 33.984 30.095 C 33.960 29.924 33.985 29.750 34.056 29.593 C 34.128 29.436 34.243 29.303 34.388 29.210 C 34.534 29.116 34.702 29.067 34.875 29.067 Z"
       stroke="rgb(0,0,255)"
       stroke-width="0.20"
       id="path24790" />
    <path
       d="M 38.400 13.000 H 29.000 C 28.900 13.000 29.000 13.100 29.000 13.000 V 10.100 C 29.000 10.045 28.955 10.000 28.900 10.000 H 22.900 C 22.845 10.000 22.800 10.045 22.800 10.100 V 13.000 C 22.800 13.100 22.900 13.000 22.800 13.000 H 13.400 C 13.345 13.000 13.300 13.045 13.300 13.100 V 22.500 C 13.300 22.600 13.400 22.500 13.300 22.500 H 10.400 C 10.345 22.500 10.300 22.545 10.300 22.600 V 28.600 C 10.300 28.655 10.345 28.700 10.400 28.700 H 13.300 C 13.400 28.700 13.300 28.600 13.300 28.700 V 38.100 C 13.300 38.155 13.345 38.200 13.400 38.200 C 13.427 38.200 13.452 38.189 13.471 38.171 L 38.471 13.171 C 38.489 13.152 38.500 13.127 38.500 13.100 C 38.500 13.045 38.455 13.000 38.400 13.000 Z"
       stroke="rgb(0,0,0)"
       stroke-width="0.20"
       id="path24792" />
    <path
       d="M 21.733 22.333 C 21.561 22.333 21.392 22.284 21.247 22.190 C 21.102 22.097 20.986 21.964 20.915 21.807 C 20.843 21.650 20.818 21.476 20.842 21.305 C 20.867 21.134 20.940 20.974 21.053 20.844 C 21.166 20.714 21.314 20.618 21.480 20.570 C 21.645 20.521 21.821 20.521 21.987 20.570 C 22.152 20.618 22.301 20.714 22.414 20.844 C 22.526 20.974 22.600 21.134 22.624 21.305 C 22.649 21.476 22.624 21.650 22.552 21.807 C 22.480 21.964 22.365 22.097 22.220 22.190 C 22.075 22.284 21.906 22.333 21.733 22.333 Z"
       stroke="rgb(0,0,255)"
       stroke-width="0.20"
       id="path24794" />
    <path
       d="M 55.717 38.400 H 65.117 C 65.217 38.400 65.117 38.300 65.117 38.400 V 41.300 C 65.117 41.355 65.161 41.400 65.217 41.400 H 71.217 C 71.272 41.400 71.317 41.355 71.317 41.300 V 38.400 C 71.317 38.300 71.217 38.400 71.317 38.400 H 80.717 C 80.772 38.400 80.817 38.355 80.817 38.300 V 28.900 C 80.817 28.800 80.717 28.900 80.817 28.900 H 83.717 C 83.772 28.900 83.817 28.855 83.817 28.800 V 22.800 C 83.817 22.745 83.772 22.700 83.717 22.700 H 80.817 C 80.717 22.700 80.817 22.800 80.817 22.700 V 13.300 C 80.817 13.245 80.772 13.200 80.717 13.200 C 80.690 13.200 80.665 13.211 80.646 13.229 L 55.646 38.229 C 55.627 38.248 55.617 38.273 55.617 38.300 C 55.617 38.355 55.661 38.400 55.717 38.400 Z"
       stroke="rgb(0,0,0)"
       stroke-width="0.20"
       id="path24796" />
    <path
       d="M 72.383 29.067 C 72.556 29.067 72.725 29.116 72.870 29.210 C 73.015 29.303 73.130 29.436 73.202 29.593 C 73.274 29.750 73.299 29.924 73.274 30.095 C 73.250 30.266 73.176 30.426 73.063 30.556 C 72.951 30.686 72.802 30.782 72.637 30.830 C 72.471 30.879 72.295 30.879 72.130 30.830 C 71.964 30.782 71.816 30.686 71.703 30.556 C 71.590 30.426 71.517 30.266 71.492 30.095 C 71.468 29.924 71.493 29.750 71.565 29.593 C 71.636 29.436 71.752 29.303 71.897 29.210 C 72.042 29.116 72.211 29.067 72.383 29.067 Z"
       stroke="rgb(0,0,255)"
       stroke-width="0.20"
       id="path24798" />
    <path
       d="M 75.908 13.000 H 66.508 C 66.408 13.000 66.508 13.100 66.508 13.000 V 10.100 C 66.508 10.045 66.464 10.000 66.408 10.000 H 60.408 C 60.353 10.000 60.308 10.045 60.308 10.100 V 13.000 C 60.308 13.100 60.408 13.000 60.308 13.000 H 50.908 C 50.853 13.000 50.808 13.045 50.808 13.100 V 22.500 C 50.808 22.600 50.908 22.500 50.808 22.500 H 47.908 C 47.853 22.500 47.808 22.545 47.808 22.600 V 28.600 C 47.808 28.655 47.853 28.700 47.908 28.700 H 50.808 C 50.908 28.700 50.808 28.600 50.808 28.700 V 38.100 C 50.808 38.155 50.853 38.200 50.908 38.200 C 50.935 38.200 50.960 38.189 50.979 38.171 L 75.979 13.171 C 75.998 13.152 76.008 13.127 76.008 13.100 C 76.008 13.045 75.964 13.000 75.908 13.000 Z"
       stroke="rgb(0,0,0)"
       stroke-width="0.20"
       id="path24800" />
    <path
       d="M 59.242 22.333 C 59.069 22.333 58.900 22.284 58.755 22.190 C 58.610 22.097 58.495 21.964 58.423 21.807 C 58.351 21.650 58.326 21.476 58.351 21.305 C 58.375 21.134 58.448 20.974 58.561 20.844 C 58.674 20.714 58.823 20.618 58.988 20.570 C 59.154 20.521 59.330 20.521 59.495 20.570 C 59.661 20.618 59.809 20.714 59.922 20.844 C 60.035 20.974 60.108 21.134 60.132 21.305 C 60.157 21.476 60.132 21.650 60.060 21.807 C 59.989 21.964 59.873 22.097 59.728 22.190 C 59.583 22.284 59.414 22.333 59.242 22.333 Z"
       stroke="rgb(0,0,255)"
       stroke-width="0.20"
       id="path24802" />
  </g>
</svg>
