<?xml version="1.0" encoding="UTF-8" standalone="no"?>
<svg
   width="354.20mm"
   height="433.90mm"
   viewBox="0.0 0.0 354.20 433.90"
   version="1.1"
   id="svg24805"
   sodipodi:docname="ElectronicsBox_197x135x50_with_holes_part_3of7.svg"
   inkscape:version="1.2.2 (b0a84865, 2022-12-01)"
   xmlns:inkscape="http://www.inkscape.org/namespaces/inkscape"
   xmlns:sodipodi="http://sodipodi.sourceforge.net/DTD/sodipodi-0.dtd"
   xmlns="http://www.w3.org/2000/svg"
   xmlns:svg="http://www.w3.org/2000/svg"
   xmlns:rdf="http://www.w3.org/1999/02/22-rdf-syntax-ns#"
   xmlns:cc="http://creativecommons.org/ns#"
   xmlns:dc="http://purl.org/dc/elements/1.1/">
  <defs
     id="defs24809">
    <rect
       x="228.70485"
       y="1294.8893"
       width="191.1398"
       height="47.508737"
       id="rect59777" />
    <rect
       x="228.70485"
       y="1294.8893"
       width="191.1398"
       height="47.508736"
       id="rect59777-6" />
    <rect
       x="228.70485"
       y="1294.8893"
       width="191.1398"
       height="47.508736"
       id="rect59777-6-0" />
    <rect
       x="228.70485"
       y="1294.8893"
       width="191.1398"
       height="47.508736"
       id="rect59777-6-0-8" />
    <rect
       x="228.70485"
       y="1294.8893"
       width="191.1398"
       height="47.508736"
       id="rect59777-6-0-3" />
    <rect
       x="228.70485"
       y="1294.8893"
       width="191.1398"
       height="47.508736"
       id="rect59777-6-0-6" />
    <rect
       x="228.70485"
       y="1294.8893"
       width="191.1398"
       height="47.508736"
       id="rect59777-6-0-9" />
  </defs>
  <sodipodi:namedview
     id="namedview24807"
     pagecolor="#ffffff"
     bordercolor="#666666"
     borderopacity="1.0"
     inkscape:showpageshadow="2"
     inkscape:pageopacity="0.0"
     inkscape:pagecheckerboard="0"
     inkscape:deskcolor="#d1d1d1"
     inkscape:document-units="mm"
     showgrid="false"
     inkscape:zoom="0.45254834"
     inkscape:cx="-217.65631"
     inkscape:cy="628.66212"
     inkscape:window-width="2560"
     inkscape:window-height="1387"
     inkscape:window-x="0"
     inkscape:window-y="25"
     inkscape:window-maximized="1"
     inkscape:current-layer="svg24805" />
  <!--
ElectronicsBox - Closed box with screw on top and mounting holes

Created with Boxes.py (https://festi.info/boxes.py)
Creation date: 2023-04-13 15:31:11
Command line (remove spaces between dashes): boxes ElectronicsBox - -FingerJoint_play=0.1 - -x=197 - -y=135 - -h=50
Url: http://localhost:8000/ElectronicsBox?FingerJoint_angle=90.0&FingerJoint_style=rectangular&FingerJoint_surroundingspaces=2.0&FingerJoint_bottom_lip=0.0&FingerJoint_edge_width=1.0&FingerJoint_extra_length=0.0&FingerJoint_finger=2.0&FingerJoint_play=0.1&FingerJoint_space=2.0&FingerJoint_width=1.0&x=197&y=135&h=50&outside=0&outside=1&triangle=25.0&d1=2.0&d2=3.0&d3=3.0&outsidemounts=0&outsidemounts=1&holedist=7.0&thickness=3.0&format=svg&tabs=0.0&qr_code=0&debug=0&labels=0&labels=1&reference=100&inner_corners=loop&burn=0.1&language=de&render=1
Url short: http://localhost:8000/ElectronicsBox?FingerJoint_play=0.1&x=197&y=135&h=50
SettingsUrl: http://localhost:8000/ElectronicsBox?FingerJoint_angle=90.0&FingerJoint_style=rectangular&FingerJoint_surroundingspaces=2.0&FingerJoint_bottom_lip=0.0&FingerJoint_edge_width=1.0&FingerJoint_extra_length=0.0&FingerJoint_finger=2.0&FingerJoint_play=0.1&FingerJoint_space=2.0&FingerJoint_width=1.0&x=197&y=135&h=50&outside=0&outside=1&triangle=25.0&d1=2.0&d2=3.0&d3=3.0&outsidemounts=0&outsidemounts=1&holedist=7.0&thickness=3.0&format=svg&tabs=0.0&qr_code=0&debug=0&labels=0&labels=1&reference=100&inner_corners=loop&burn=0.1&language=de
SettingsUrl short: http://localhost:8000/ElectronicsBox?FingerJoint_play=0.1&x=197&y=135&h=50
-->
  <title
     id="title24677">ElectronicsBox</title>
  <metadata
     id="metadata24679">
    <rdf:RDF>
      <cc:Work>
        <dc:title>ElectronicsBox</dc:title>
        <dc:date>2023-04-13 15:31:11</dc:date>
        <dc:source>http://localhost:8000/ElectronicsBox?FingerJoint_angle=90.0&amp;FingerJoint_style=rectangular&amp;FingerJoint_surroundingspaces=2.0&amp;FingerJoint_bottom_lip=0.0&amp;FingerJoint_edge_width=1.0&amp;FingerJoint_extra_length=0.0&amp;FingerJoint_finger=2.0&amp;FingerJoint_play=0.1&amp;FingerJoint_space=2.0&amp;FingerJoint_width=1.0&amp;x=197&amp;y=135&amp;h=50&amp;outside=0&amp;outside=1&amp;triangle=25.0&amp;d1=2.0&amp;d2=3.0&amp;d3=3.0&amp;outsidemounts=0&amp;outsidemounts=1&amp;holedist=7.0&amp;thickness=3.0&amp;format=svg&amp;tabs=0.0&amp;qr_code=0&amp;debug=0&amp;labels=0&amp;labels=1&amp;reference=100&amp;inner_corners=loop&amp;burn=0.1&amp;language=de&amp;render=1</dc:source>
        <dc:source>http://localhost:8000/ElectronicsBox?FingerJoint_play=0.1&amp;x=197&amp;y=135&amp;h=50</dc:source>
        <dc:description>Closed box with screw on top and mounting holes

Created with Boxes.py (https://festi.info/boxes.py)
Command line: boxes ElectronicsBox --FingerJoint_angle=90.0 --FingerJoint_style=rectangular --FingerJoint_surroundingspaces=2.0 --FingerJoint_bottom_lip=0.0 --FingerJoint_edge_width=1.0 --FingerJoint_extra_length=0.0 --FingerJoint_finger=2.0 --FingerJoint_play=0.1 --FingerJoint_space=2.0 --FingerJoint_width=1.0 --x=197 --y=135 --h=50 --outside=0 --outside=1 --triangle=25.0 --d1=2.0 --d2=3.0 --d3=3.0 --outsidemounts=0 --outsidemounts=1 --holedist=7.0 --thickness=3.0 --format=svg --tabs=0.0 --qr_code=0 --debug=0 --labels=0 --labels=1 --reference=100 --inner_corners=loop --burn=0.1
Command line short: boxes ElectronicsBox --FingerJoint_play=0.1 --x=197 --y=135 --h=50
Url: http://localhost:8000/ElectronicsBox?FingerJoint_angle=90.0&amp;FingerJoint_style=rectangular&amp;FingerJoint_surroundingspaces=2.0&amp;FingerJoint_bottom_lip=0.0&amp;FingerJoint_edge_width=1.0&amp;FingerJoint_extra_length=0.0&amp;FingerJoint_finger=2.0&amp;FingerJoint_play=0.1&amp;FingerJoint_space=2.0&amp;FingerJoint_width=1.0&amp;x=197&amp;y=135&amp;h=50&amp;outside=0&amp;outside=1&amp;triangle=25.0&amp;d1=2.0&amp;d2=3.0&amp;d3=3.0&amp;outsidemounts=0&amp;outsidemounts=1&amp;holedist=7.0&amp;thickness=3.0&amp;format=svg&amp;tabs=0.0&amp;qr_code=0&amp;debug=0&amp;labels=0&amp;labels=1&amp;reference=100&amp;inner_corners=loop&amp;burn=0.1&amp;language=de&amp;render=1
Url short: http://localhost:8000/ElectronicsBox?FingerJoint_play=0.1&amp;x=197&amp;y=135&amp;h=50
SettingsUrl: http://localhost:8000/ElectronicsBox?FingerJoint_angle=90.0&amp;FingerJoint_style=rectangular&amp;FingerJoint_surroundingspaces=2.0&amp;FingerJoint_bottom_lip=0.0&amp;FingerJoint_edge_width=1.0&amp;FingerJoint_extra_length=0.0&amp;FingerJoint_finger=2.0&amp;FingerJoint_play=0.1&amp;FingerJoint_space=2.0&amp;FingerJoint_width=1.0&amp;x=197&amp;y=135&amp;h=50&amp;outside=0&amp;outside=1&amp;triangle=25.0&amp;d1=2.0&amp;d2=3.0&amp;d3=3.0&amp;outsidemounts=0&amp;outsidemounts=1&amp;holedist=7.0&amp;thickness=3.0&amp;format=svg&amp;tabs=0.0&amp;qr_code=0&amp;debug=0&amp;labels=0&amp;labels=1&amp;reference=100&amp;inner_corners=loop&amp;burn=0.1&amp;language=de
SettingsUrl short: http://localhost:8000/ElectronicsBox?FingerJoint_play=0.1&amp;x=197&amp;y=135&amp;h=50
</dc:description>
      </cc:Work>
    </rdf:RDF>
  </metadata>
  <g
     id="p-5"
     style="fill:none;stroke-linecap:round;stroke-linejoin:round;">
    <path
       d="M 18.800 301.700 C 18.800 301.968 18.723 302.231 18.578 302.457 C 18.433 302.683 18.226 302.862 17.982 302.973 C 17.737 303.085 17.466 303.124 17.201 303.086 C 16.935 303.048 16.686 302.934 16.483 302.758 C 16.280 302.582 16.132 302.352 16.057 302.094 C 15.981 301.837 15.981 301.563 16.057 301.306 C 16.132 301.048 16.280 300.818 16.483 300.642 C 16.686 300.466 16.935 300.352 17.201 300.314 C 17.466 300.276 17.737 300.315 17.982 300.427 C 18.226 300.538 18.433 300.717 18.578 300.943 C 18.723 301.169 18.800 301.432 18.800 301.700 Z"
       stroke="rgb(0,0,255)"
       stroke-width="0.20"
       id="path24722" />
    <path
       d="M 17.400 308.800 H 27.400 H 35.750 C 35.805 308.800 35.850 308.755 35.850 308.700 V 305.800 C 35.850 305.700 35.750 305.800 35.850 305.800 H 41.950 C 42.050 305.800 41.950 305.700 41.950 305.800 V 308.700 C 41.950 308.755 41.995 308.800 42.050 308.800 H 47.750 C 47.805 308.800 47.850 308.755 47.850 308.700 V 305.800 C 47.850 305.700 47.750 305.800 47.850 305.800 H 53.950 C 54.050 305.800 53.950 305.700 53.950 305.800 V 308.700 C 53.950 308.755 53.995 308.800 54.050 308.800 H 59.750 C 59.805 308.800 59.850 308.755 59.850 308.700 V 305.800 C 59.850 305.700 59.750 305.800 59.850 305.800 H 65.950 C 66.050 305.800 65.950 305.700 65.950 305.800 V 308.700 C 65.950 308.755 65.995 308.800 66.050 308.800 H 71.750 C 71.805 308.800 71.850 308.755 71.850 308.700 V 305.800 C 71.850 305.700 71.750 305.800 71.850 305.800 H 77.950 C 78.050 305.800 77.950 305.700 77.950 305.800 V 308.700 C 77.950 308.755 77.995 308.800 78.050 308.800 H 83.750 C 83.805 308.800 83.850 308.755 83.850 308.700 V 305.800 C 83.850 305.700 83.750 305.800 83.850 305.800 H 89.950 C 90.050 305.800 89.950 305.700 89.950 305.800 V 308.700 C 89.950 308.755 89.995 308.800 90.050 308.800 H 95.750 C 95.805 308.800 95.850 308.755 95.850 308.700 V 305.800 C 95.850 305.700 95.750 305.800 95.850 305.800 H 101.950 C 102.050 305.800 101.950 305.700 101.950 305.800 V 308.700 C 101.950 308.755 101.995 308.800 102.050 308.800 H 107.750 C 107.805 308.800 107.850 308.755 107.850 308.700 V 305.800 C 107.850 305.700 107.750 305.800 107.850 305.800 H 113.950 C 114.050 305.800 113.950 305.700 113.950 305.800 V 308.700 C 113.950 308.755 113.995 308.800 114.050 308.800 H 119.750 C 119.805 308.800 119.850 308.755 119.850 308.700 V 305.800 C 119.850 305.700 119.750 305.800 119.850 305.800 H 125.950 C 126.050 305.800 125.950 305.700 125.950 305.800 V 308.700 C 125.950 308.755 125.995 308.800 126.050 308.800 H 131.750 C 131.805 308.800 131.850 308.755 131.850 308.700 V 305.800 C 131.850 305.700 131.750 305.800 131.850 305.800 H 137.950 C 138.050 305.800 137.950 305.700 137.950 305.800 V 308.700 C 137.950 308.755 137.995 308.800 138.050 308.800 H 143.750 C 143.805 308.800 143.850 308.755 143.850 308.700 V 305.800 C 143.850 305.700 143.750 305.800 143.850 305.800 H 149.950 C 150.050 305.800 149.950 305.700 149.950 305.800 V 308.700 C 149.950 308.755 149.995 308.800 150.050 308.800 H 155.750 C 155.805 308.800 155.850 308.755 155.850 308.700 V 305.800 C 155.850 305.700 155.750 305.800 155.850 305.800 H 161.950 C 162.050 305.800 161.950 305.700 161.950 305.800 V 308.700 C 161.950 308.755 161.995 308.800 162.050 308.800 H 167.750 C 167.805 308.800 167.850 308.755 167.850 308.700 V 305.800 C 167.850 305.700 167.750 305.800 167.850 305.800 H 173.950 C 174.050 305.800 173.950 305.700 173.950 305.800 V 308.700 C 173.950 308.755 173.995 308.800 174.050 308.800 H 179.750 C 179.805 308.800 179.850 308.755 179.850 308.700 V 305.800 C 179.850 305.700 179.750 305.800 179.850 305.800 H 185.950 C 186.050 305.800 185.950 305.700 185.950 305.800 V 308.700 C 185.950 308.755 185.995 308.800 186.050 308.800 H 191.750 C 191.805 308.800 191.850 308.755 191.850 308.700 V 305.800 C 191.850 305.700 191.750 305.800 191.850 305.800 H 197.950 C 198.050 305.800 197.950 305.700 197.950 305.800 V 308.700 C 197.950 308.755 197.995 308.800 198.050 308.800 H 203.750 C 203.805 308.800 203.850 308.755 203.850 308.700 V 305.800 C 203.850 305.700 203.750 305.800 203.850 305.800 H 209.950 C 210.050 305.800 209.950 305.700 209.950 305.800 V 308.700 C 209.950 308.755 209.995 308.800 210.050 308.800 H 218.400 H 228.400 C 229.646 308.800 230.871 308.472 231.950 307.849 C 233.029 307.226 233.926 306.329 234.549 305.250 C 235.172 304.171 235.500 302.946 235.500 301.700 V 180.700 C 235.500 179.454 235.172 178.229 234.549 177.150 C 233.926 176.071 233.029 175.174 231.950 174.551 C 230.871 173.928 229.646 173.600 228.400 173.600 H 218.400 H 210.050 C 209.995 173.600 209.950 173.645 209.950 173.700 V 176.600 C 209.950 176.700 210.050 176.600 209.950 176.600 H 203.850 C 203.750 176.600 203.850 176.700 203.850 176.600 V 173.700 C 203.850 173.645 203.805 173.600 203.750 173.600 H 198.050 C 197.995 173.600 197.950 173.645 197.950 173.700 V 176.600 C 197.950 176.700 198.050 176.600 197.950 176.600 H 191.850 C 191.750 176.600 191.850 176.700 191.850 176.600 V 173.700 C 191.850 173.645 191.805 173.600 191.750 173.600 H 186.050 C 185.995 173.600 185.950 173.645 185.950 173.700 V 176.600 C 185.950 176.700 186.050 176.600 185.950 176.600 H 179.850 C 179.750 176.600 179.850 176.700 179.850 176.600 V 173.700 C 179.850 173.645 179.805 173.600 179.750 173.600 H 174.050 C 173.995 173.600 173.950 173.645 173.950 173.700 V 176.600 C 173.950 176.700 174.050 176.600 173.950 176.600 H 167.850 C 167.750 176.600 167.850 176.700 167.850 176.600 V 173.700 C 167.850 173.645 167.805 173.600 167.750 173.600 H 162.050 C 161.995 173.600 161.950 173.645 161.950 173.700 V 176.600 C 161.950 176.700 162.050 176.600 161.950 176.600 H 155.850 C 155.750 176.600 155.850 176.700 155.850 176.600 V 173.700 C 155.850 173.645 155.805 173.600 155.750 173.600 H 150.050 C 149.995 173.600 149.950 173.645 149.950 173.700 V 176.600 C 149.950 176.700 150.050 176.600 149.950 176.600 H 143.850 C 143.750 176.600 143.850 176.700 143.850 176.600 V 173.700 C 143.850 173.645 143.805 173.600 143.750 173.600 H 138.050 C 137.995 173.600 137.950 173.645 137.950 173.700 V 176.600 C 137.950 176.700 138.050 176.600 137.950 176.600 H 131.850 C 131.750 176.600 131.850 176.700 131.850 176.600 V 173.700 C 131.850 173.645 131.805 173.600 131.750 173.600 H 126.050 C 125.995 173.600 125.950 173.645 125.950 173.700 V 176.600 C 125.950 176.700 126.050 176.600 125.950 176.600 H 119.850 C 119.750 176.600 119.850 176.700 119.850 176.600 V 173.700 C 119.850 173.645 119.805 173.600 119.750 173.600 H 114.050 C 113.995 173.600 113.950 173.645 113.950 173.700 V 176.600 C 113.950 176.700 114.050 176.600 113.950 176.600 H 107.850 C 107.750 176.600 107.850 176.700 107.850 176.600 V 173.700 C 107.850 173.645 107.805 173.600 107.750 173.600 H 102.050 C 101.995 173.600 101.950 173.645 101.950 173.700 V 176.600 C 101.950 176.700 102.050 176.600 101.950 176.600 H 95.850 C 95.750 176.600 95.850 176.700 95.850 176.600 V 173.700 C 95.850 173.645 95.805 173.600 95.750 173.600 H 90.050 C 89.995 173.600 89.950 173.645 89.950 173.700 V 176.600 C 89.950 176.700 90.050 176.600 89.950 176.600 H 83.850 C 83.750 176.600 83.850 176.700 83.850 176.600 V 173.700 C 83.850 173.645 83.805 173.600 83.750 173.600 H 78.050 C 77.995 173.600 77.950 173.645 77.950 173.700 V 176.600 C 77.950 176.700 78.050 176.600 77.950 176.600 H 71.850 C 71.750 176.600 71.850 176.700 71.850 176.600 V 173.700 C 71.850 173.645 71.805 173.600 71.750 173.600 H 66.050 C 65.995 173.600 65.950 173.645 65.950 173.700 V 176.600 C 65.950 176.700 66.050 176.600 65.950 176.600 H 59.850 C 59.750 176.600 59.850 176.700 59.850 176.600 V 173.700 C 59.850 173.645 59.805 173.600 59.750 173.600 H 54.050 C 53.995 173.600 53.950 173.645 53.950 173.700 V 176.600 C 53.950 176.700 54.050 176.600 53.950 176.600 H 47.850 C 47.750 176.600 47.850 176.700 47.850 176.600 V 173.700 C 47.850 173.645 47.805 173.600 47.750 173.600 H 42.050 C 41.995 173.600 41.950 173.645 41.950 173.700 V 176.600 C 41.950 176.700 42.050 176.600 41.950 176.600 H 35.850 C 35.750 176.600 35.850 176.700 35.850 176.600 V 173.700 C 35.850 173.645 35.805 173.600 35.750 173.600 H 27.400 H 17.400 C 16.154 173.600 14.929 173.928 13.850 174.551 C 12.771 175.174 11.874 176.071 11.251 177.150 C 10.628 178.229 10.300 179.454 10.300 180.700 V 301.700 C 10.300 302.946 10.628 304.171 11.251 305.250 C 11.874 306.329 12.771 307.226 13.850 307.849 C 14.929 308.472 16.154 308.800 17.400 308.800"
       stroke="rgb(0,0,0)"
       stroke-width="0.20"
       id="path24726" />
    <path
       d="M 228.400 300.300 C 228.668 300.300 228.931 300.377 229.157 300.522 C 229.383 300.667 229.562 300.874 229.673 301.118 C 229.785 301.363 229.824 301.634 229.786 301.899 C 229.748 302.165 229.634 302.414 229.458 302.617 C 229.282 302.820 229.052 302.968 228.794 303.043 C 228.537 303.119 228.263 303.119 228.006 303.043 C 227.748 302.968 227.518 302.820 227.342 302.617 C 227.166 302.414 227.052 302.165 227.014 301.899 C 226.976 301.634 227.015 301.363 227.127 301.118 C 227.238 300.874 227.417 300.667 227.643 300.522 C 227.869 300.377 228.132 300.300 228.400 300.300 Z"
       stroke="rgb(0,0,255)"
       stroke-width="0.20"
       id="path24728" />
    <path
       d="M 221.550 295.200 V 298.250 C 221.550 298.350 221.650 298.250 221.550 298.250 H 218.450 C 218.350 298.250 218.450 298.350 218.450 298.250 V 292.150 C 218.450 292.050 218.350 292.150 218.450 292.150 H 221.550 C 221.650 292.150 221.550 292.050 221.550 292.150 V 295.200 Z"
       stroke="rgb(0,0,255)"
       stroke-width="0.20"
       id="path24730" />
    <path
       d="M 221.550 283.200 V 286.250 C 221.550 286.350 221.650 286.250 221.550 286.250 H 218.450 C 218.350 286.250 218.450 286.350 218.450 286.250 V 280.150 C 218.450 280.050 218.350 280.150 218.450 280.150 H 221.550 C 221.650 280.150 221.550 280.050 221.550 280.150 V 283.200 Z"
       stroke="rgb(0,0,255)"
       stroke-width="0.20"
       id="path24732" />
    <path
       d="M 221.550 271.200 V 274.250 C 221.550 274.350 221.650 274.250 221.550 274.250 H 218.450 C 218.350 274.250 218.450 274.350 218.450 274.250 V 268.150 C 218.450 268.050 218.350 268.150 218.450 268.150 H 221.550 C 221.650 268.150 221.550 268.050 221.550 268.150 V 271.200 Z"
       stroke="rgb(0,0,255)"
       stroke-width="0.20"
       id="path24734" />
    <path
       d="M 221.550 259.200 V 262.250 C 221.550 262.350 221.650 262.250 221.550 262.250 H 218.450 C 218.350 262.250 218.450 262.350 218.450 262.250 V 256.150 C 218.450 256.050 218.350 256.150 218.450 256.150 H 221.550 C 221.650 256.150 221.550 256.050 221.550 256.150 V 259.200 Z"
       stroke="rgb(0,0,255)"
       stroke-width="0.20"
       id="path24736" />
    <path
       d="M 221.550 247.200 V 250.250 C 221.550 250.350 221.650 250.250 221.550 250.250 H 218.450 C 218.350 250.250 218.450 250.350 218.450 250.250 V 244.150 C 218.450 244.050 218.350 244.150 218.450 244.150 H 221.550 C 221.650 244.150 221.550 244.050 221.550 244.150 V 247.200 Z"
       stroke="rgb(0,0,255)"
       stroke-width="0.20"
       id="path24738" />
    <path
       d="M 221.550 235.200 V 238.250 C 221.550 238.350 221.650 238.250 221.550 238.250 H 218.450 C 218.350 238.250 218.450 238.350 218.450 238.250 V 232.150 C 218.450 232.050 218.350 232.150 218.450 232.150 H 221.550 C 221.650 232.150 221.550 232.050 221.550 232.150 V 235.200 Z"
       stroke="rgb(0,0,255)"
       stroke-width="0.20"
       id="path24740" />
    <path
       d="M 221.550 223.200 V 226.250 C 221.550 226.350 221.650 226.250 221.550 226.250 H 218.450 C 218.350 226.250 218.450 226.350 218.450 226.250 V 220.150 C 218.450 220.050 218.350 220.150 218.450 220.150 H 221.550 C 221.650 220.150 221.550 220.050 221.550 220.150 V 223.200 Z"
       stroke="rgb(0,0,255)"
       stroke-width="0.20"
       id="path24742" />
    <path
       d="M 221.550 211.200 V 214.250 C 221.550 214.350 221.650 214.250 221.550 214.250 H 218.450 C 218.350 214.250 218.450 214.350 218.450 214.250 V 208.150 C 218.450 208.050 218.350 208.150 218.450 208.150 H 221.550 C 221.650 208.150 221.550 208.050 221.550 208.150 V 211.200 Z"
       stroke="rgb(0,0,255)"
       stroke-width="0.20"
       id="path24744" />
    <path
       d="M 221.550 199.200 V 202.250 C 221.550 202.350 221.650 202.250 221.550 202.250 H 218.450 C 218.350 202.250 218.450 202.350 218.450 202.250 V 196.150 C 218.450 196.050 218.350 196.150 218.450 196.150 H 221.550 C 221.650 196.150 221.550 196.050 221.550 196.150 V 199.200 Z"
       stroke="rgb(0,0,255)"
       stroke-width="0.20"
       id="path24746" />
    <path
       d="M 221.550 187.200 V 190.250 C 221.550 190.350 221.650 190.250 221.550 190.250 H 218.450 C 218.350 190.250 218.450 190.350 218.450 190.250 V 184.150 C 218.450 184.050 218.350 184.150 218.450 184.150 H 221.550 C 221.650 184.150 221.550 184.050 221.550 184.150 V 187.200 Z"
       stroke="rgb(0,0,255)"
       stroke-width="0.20"
       id="path24748" />
    <path
       d="M 227.000 180.700 C 227.000 180.432 227.077 180.169 227.222 179.943 C 227.367 179.717 227.574 179.538 227.818 179.427 C 228.063 179.315 228.334 179.276 228.599 179.314 C 228.865 179.352 229.114 179.466 229.317 179.642 C 229.520 179.818 229.668 180.048 229.743 180.306 C 229.819 180.563 229.819 180.837 229.743 181.094 C 229.668 181.352 229.520 181.582 229.317 181.758 C 229.114 181.934 228.865 182.048 228.599 182.086 C 228.334 182.124 228.063 182.085 227.818 181.973 C 227.574 181.862 227.367 181.683 227.222 181.457 C 227.077 181.231 227.000 180.968 227.000 180.700 Z"
       stroke="rgb(0,0,255)"
       stroke-width="0.20"
       id="path24750" />
    <path
       d="M 17.400 182.100 C 17.132 182.100 16.869 182.023 16.643 181.878 C 16.417 181.733 16.238 181.526 16.127 181.282 C 16.015 181.037 15.976 180.766 16.014 180.501 C 16.052 180.235 16.166 179.986 16.342 179.783 C 16.518 179.580 16.748 179.432 17.006 179.357 C 17.263 179.281 17.537 179.281 17.794 179.357 C 18.052 179.432 18.282 179.580 18.458 179.783 C 18.634 179.986 18.748 180.235 18.786 180.501 C 18.824 180.766 18.785 181.037 18.673 181.282 C 18.562 181.526 18.383 181.733 18.157 181.878 C 17.931 182.023 17.668 182.100 17.400 182.100 Z"
       stroke="rgb(0,0,255)"
       stroke-width="0.20"
       id="path24752" />
    <path
       d="M 24.250 187.200 V 184.150 C 24.250 184.050 24.150 184.150 24.250 184.150 H 27.350 C 27.450 184.150 27.350 184.050 27.350 184.150 V 190.250 C 27.350 190.350 27.450 190.250 27.350 190.250 H 24.250 C 24.150 190.250 24.250 190.350 24.250 190.250 V 187.200 Z"
       stroke="rgb(0,0,255)"
       stroke-width="0.20"
       id="path24754" />
    <path
       d="M 24.250 199.200 V 196.150 C 24.250 196.050 24.150 196.150 24.250 196.150 H 27.350 C 27.450 196.150 27.350 196.050 27.350 196.150 V 202.250 C 27.350 202.350 27.450 202.250 27.350 202.250 H 24.250 C 24.150 202.250 24.250 202.350 24.250 202.250 V 199.200 Z"
       stroke="rgb(0,0,255)"
       stroke-width="0.20"
       id="path24756" />
    <path
       d="M 24.250 211.200 V 208.150 C 24.250 208.050 24.150 208.150 24.250 208.150 H 27.350 C 27.450 208.150 27.350 208.050 27.350 208.150 V 214.250 C 27.350 214.350 27.450 214.250 27.350 214.250 H 24.250 C 24.150 214.250 24.250 214.350 24.250 214.250 V 211.200 Z"
       stroke="rgb(0,0,255)"
       stroke-width="0.20"
       id="path24758" />
    <path
       d="M 24.250 223.200 V 220.150 C 24.250 220.050 24.150 220.150 24.250 220.150 H 27.350 C 27.450 220.150 27.350 220.050 27.350 220.150 V 226.250 C 27.350 226.350 27.450 226.250 27.350 226.250 H 24.250 C 24.150 226.250 24.250 226.350 24.250 226.250 V 223.200 Z"
       stroke="rgb(0,0,255)"
       stroke-width="0.20"
       id="path24760" />
    <path
       d="M 24.250 235.200 V 232.150 C 24.250 232.050 24.150 232.150 24.250 232.150 H 27.350 C 27.450 232.150 27.350 232.050 27.350 232.150 V 238.250 C 27.350 238.350 27.450 238.250 27.350 238.250 H 24.250 C 24.150 238.250 24.250 238.350 24.250 238.250 V 235.200 Z"
       stroke="rgb(0,0,255)"
       stroke-width="0.20"
       id="path24762" />
    <path
       d="M 24.250 247.200 V 244.150 C 24.250 244.050 24.150 244.150 24.250 244.150 H 27.350 C 27.450 244.150 27.350 244.050 27.350 244.150 V 250.250 C 27.350 250.350 27.450 250.250 27.350 250.250 H 24.250 C 24.150 250.250 24.250 250.350 24.250 250.250 V 247.200 Z"
       stroke="rgb(0,0,255)"
       stroke-width="0.20"
       id="path24764" />
    <path
       d="M 24.250 259.200 V 256.150 C 24.250 256.050 24.150 256.150 24.250 256.150 H 27.350 C 27.450 256.150 27.350 256.050 27.350 256.150 V 262.250 C 27.350 262.350 27.450 262.250 27.350 262.250 H 24.250 C 24.150 262.250 24.250 262.350 24.250 262.250 V 259.200 Z"
       stroke="rgb(0,0,255)"
       stroke-width="0.20"
       id="path24766" />
    <path
       d="M 24.250 271.200 V 268.150 C 24.250 268.050 24.150 268.150 24.250 268.150 H 27.350 C 27.450 268.150 27.350 268.050 27.350 268.150 V 274.250 C 27.350 274.350 27.450 274.250 27.350 274.250 H 24.250 C 24.150 274.250 24.250 274.350 24.250 274.250 V 271.200 Z"
       stroke="rgb(0,0,255)"
       stroke-width="0.20"
       id="path24768" />
    <path
       d="M 24.250 283.200 V 280.150 C 24.250 280.050 24.150 280.150 24.250 280.150 H 27.350 C 27.450 280.150 27.350 280.050 27.350 280.150 V 286.250 C 27.350 286.350 27.450 286.250 27.350 286.250 H 24.250 C 24.150 286.250 24.250 286.350 24.250 286.250 V 283.200 Z"
       stroke="rgb(0,0,255)"
       stroke-width="0.20"
       id="path24770" />
    <path
       d="M 24.250 295.200 V 292.150 C 24.250 292.050 24.150 292.150 24.250 292.150 H 27.350 C 27.450 292.150 27.350 292.050 27.350 292.150 V 298.250 C 27.350 298.350 27.450 298.250 27.350 298.250 H 24.250 C 24.150 298.250 24.250 298.350 24.250 298.250 V 295.200 Z"
       stroke="rgb(0,0,255)"
       stroke-width="0.20"
       id="path24772" />
  </g>
</svg>
