<?xml version="1.0" encoding="UTF-8" standalone="no"?>
<!-- Created with Inkscape (http://www.inkscape.org/) -->

<svg
   width="190.26999mm"
   height="280.84732mm"
   viewBox="0 0 190.26999 280.84732"
   version="1.1"
   id="svg5"
   xml:space="preserve"
   inkscape:version="1.2.2 (b0a84865, 2022-12-01)"
   sodipodi:docname="top_with_cooling30mm.svg"
   inkscape:export-filename="top_with_cooling30mm.svg"
   inkscape:export-xdpi="96"
   inkscape:export-ydpi="96"
   xmlns:inkscape="http://www.inkscape.org/namespaces/inkscape"
   xmlns:sodipodi="http://sodipodi.sourceforge.net/DTD/sodipodi-0.dtd"
   xmlns="http://www.w3.org/2000/svg"
   xmlns:svg="http://www.w3.org/2000/svg"><sodipodi:namedview
     id="namedview7"
     pagecolor="#ffffff"
     bordercolor="#666666"
     borderopacity="1.0"
     inkscape:showpageshadow="2"
     inkscape:pageopacity="0.0"
     inkscape:pagecheckerboard="0"
     inkscape:deskcolor="#d1d1d1"
     inkscape:document-units="mm"
     showgrid="false"
     inkscape:zoom="0.51266293"
     inkscape:cx="389.14458"
     inkscape:cy="676.85799"
     inkscape:window-width="1680"
     inkscape:window-height="924"
     inkscape:window-x="0"
     inkscape:window-y="25"
     inkscape:window-maximized="1"
     inkscape:current-layer="p-3" /><defs
     id="defs2" /><g
     inkscape:label="Ebene 1"
     inkscape:groupmode="layer"
     id="layer1"><g
       id="g1810"
       transform="translate(24.358764,47.065329)"
       style="fill:none;stroke:#000000;stroke-opacity:1"><g
         id="p-1"
         style="fill:none;stroke:#000000;stroke-linecap:round;stroke-linejoin:round;stroke-opacity:1"
         transform="translate(15.906995,-6.9658764)"><path
           d="m 12.979,38.147 c 0,0.22 -0.063,0.436 -0.182,0.622 -0.12,0.185 -0.29,0.332 -0.49,0.424 -0.201,0.092 -0.423,0.124 -0.642,0.092 -0.218,-0.031 -0.422,-0.125 -0.589,-0.269 -0.167,-0.144 -0.288,-0.334 -0.35,-0.545 -0.062,-0.212 -0.062,-0.437 0,-0.648 0.062,-0.212 0.183,-0.401 0.35,-0.545 0.167,-0.145 0.371,-0.238 0.589,-0.269 0.219,-0.032 0.441,0 0.642,0.092 0.2,0.091 0.37,0.239 0.49,0.424 0.119,0.186 0.182,0.402 0.182,0.622 z"
           stroke="#0000ff"
           stroke-width="0.2"
           id="path1784"
           style="fill:none;stroke:#000000;stroke-opacity:1" /><path
           d="m 12.979,12.147 c 0,0.22 -0.063,0.436 -0.182,0.622 -0.12,0.185 -0.29,0.332 -0.49,0.424 -0.201,0.092 -0.423,0.124 -0.642,0.092 -0.218,-0.031 -0.422,-0.125 -0.589,-0.269 -0.167,-0.144 -0.288,-0.334 -0.35,-0.545 -0.062,-0.212 -0.062,-0.437 0,-0.648 0.062,-0.212 0.183,-0.401 0.35,-0.545 0.167,-0.145 0.371,-0.238 0.589,-0.269 0.219,-0.032 0.441,0 0.642,0.092 0.2,0.091 0.37,0.239 0.49,0.424 0.119,0.186 0.182,0.402 0.182,0.622 z"
           stroke="#0000ff"
           stroke-width="0.2"
           id="path1786"
           style="fill:none;stroke:#000000;stroke-opacity:1" /><path
           d="m 38.979,38.147 c 0,0.22 -0.063,0.436 -0.182,0.622 -0.12,0.185 -0.29,0.332 -0.49,0.424 -0.201,0.092 -0.423,0.124 -0.642,0.092 -0.218,-0.031 -0.422,-0.125 -0.589,-0.269 -0.167,-0.144 -0.288,-0.334 -0.35,-0.545 -0.062,-0.212 -0.062,-0.437 0,-0.648 0.062,-0.212 0.183,-0.401 0.35,-0.545 0.167,-0.145 0.371,-0.238 0.589,-0.269 0.219,-0.032 0.441,0 0.642,0.092 0.2,0.091 0.37,0.239 0.49,0.424 0.119,0.186 0.182,0.402 0.182,0.622 z"
           stroke="#0000ff"
           stroke-width="0.2"
           id="path1788"
           style="fill:none;stroke:#000000;stroke-opacity:1" /><path
           d="m 38.979,12.147 c 0,0.22 -0.063,0.436 -0.182,0.622 -0.12,0.185 -0.29,0.332 -0.49,0.424 -0.201,0.092 -0.423,0.124 -0.642,0.092 -0.218,-0.031 -0.422,-0.125 -0.589,-0.269 -0.167,-0.144 -0.288,-0.334 -0.35,-0.545 -0.062,-0.212 -0.062,-0.437 0,-0.648 0.062,-0.212 0.183,-0.401 0.35,-0.545 0.167,-0.145 0.371,-0.238 0.589,-0.269 0.219,-0.032 0.441,0 0.642,0.092 0.2,0.091 0.37,0.239 0.49,0.424 0.119,0.186 0.182,0.402 0.182,0.622 z"
           stroke="#0000ff"
           stroke-width="0.2"
           id="path1790"
           style="fill:none;stroke:#000000;stroke-opacity:1" /><path
           d="m 24.829,40.147 c 2.51,0 4.979,-0.634 7.178,-1.843 -0.042,0.023 -0.061,0.073 -0.047,0.118 -0.008,-0.025 -0.006,-0.053 0.006,-0.076 0.766,-1.491 1.125,-3.156 1.043,-4.83 -0.083,-1.673 -0.605,-3.295 -1.513,-4.703 -0.908,-1.408 -2.171,-2.552 -3.661,-3.317 -0.024,-0.012 -0.042,-0.033 -0.05,-0.059 0.006,0.017 0.015,0.032 0.029,0.044 0.013,0.012 0.029,0.02 0.046,0.024 0.017,0.003 0.035,0.002 0.052,-0.003 0.017,-0.006 0.032,-0.016 0.043,-0.029 0.012,-0.013 0.02,-0.029 0.024,-0.047 0.004,-0.024 0,-0.05 -0.013,-0.071 0.967,1.598 1.523,3.411 1.616,5.277 0.093,1.866 -0.279,3.726 -1.083,5.412 -0.803,1.687 -2.013,3.147 -3.521,4.25 0.02,-0.015 0.034,-0.037 0.039,-0.061 0.004,-0.02 0.002,-0.04 -0.005,-0.058 -0.008,-0.018 -0.021,-0.034 -0.037,-0.045 -0.017,-0.011 -0.036,-0.017 -0.056,-0.017 m 8.727,-2.831 c 2.03,-1.475 3.655,-3.439 4.724,-5.71 -0.021,0.043 -0.007,0.095 0.031,0.123 -0.021,-0.015 -0.035,-0.039 -0.04,-0.065 -0.257,-1.656 -0.945,-3.214 -1.995,-4.52 -1.051,-1.305 -2.426,-2.311 -3.988,-2.916 -1.563,-0.605 -3.257,-0.789 -4.912,-0.532 -0.026,0.004 -0.053,-0.002 -0.075,-0.018 0.015,0.011 0.031,0.017 0.049,0.019 0.018,0.002 0.035,-0.001 0.051,-0.008 0.016,-0.007 0.03,-0.019 0.041,-0.033 0.01,-0.014 0.016,-0.031 0.018,-0.049 0.002,-0.017 -0.001,-0.035 -0.009,-0.051 -0.01,-0.023 -0.029,-0.041 -0.052,-0.051 1.722,0.725 3.237,1.865 4.409,3.32 1.172,1.455 1.964,3.178 2.306,5.015 0.341,1.836 0.22,3.729 -0.351,5.507 0.008,-0.023 0.006,-0.049 -0.004,-0.072 -0.009,-0.018 -0.022,-0.033 -0.039,-0.043 -0.017,-0.011 -0.036,-0.016 -0.056,-0.015 -0.02,10e-4 -0.039,0.007 -0.055,0.019 m 5.396,-7.42 c 0.776,-2.387 0.936,-4.931 0.465,-7.396 0.009,0.047 0.05,0.081 0.098,0.081 -0.026,0 -0.052,-0.011 -0.07,-0.029 -1.181,-1.189 -2.655,-2.045 -4.271,-2.484 -1.617,-0.438 -3.321,-0.444 -4.941,-0.015 -1.62,0.429 -3.098,1.276 -4.286,2.457 -0.019,0.019 -0.045,0.029 -0.071,0.029 0.017,0 0.035,-0.004 0.05,-0.013 0.015,-0.009 0.028,-0.022 0.037,-0.037 0.009,-0.015 0.013,-0.033 0.013,-0.05 0,-0.018 -0.005,-0.035 -0.014,-0.051 -0.009,-0.015 -0.022,-0.027 -0.037,-0.036 -0.022,-0.012 -0.047,-0.016 -0.072,-0.01 1.819,-0.426 3.715,-0.394 5.519,0.094 1.803,0.488 3.456,1.416 4.812,2.702 1.356,1.285 2.371,2.887 2.954,4.662 -0.008,-0.024 -0.024,-0.044 -0.046,-0.056 -0.017,-0.01 -0.037,-0.014 -0.057,-0.013 -0.02,0.002 -0.039,0.009 -0.054,0.021 -0.016,0.013 -0.027,0.029 -0.033,0.048 m 0.004,-9.174 c -0.776,-2.387 -2.142,-4.54 -3.971,-6.258 0.035,0.033 0.088,0.037 0.127,0.009 -0.022,0.015 -0.048,0.021 -0.075,0.017 -1.654,-0.267 -3.349,-0.094 -4.915,0.502 -1.566,0.595 -2.947,1.593 -4.006,2.891 -1.058,1.299 -1.756,2.854 -2.023,4.508 -0.004,0.026 -0.019,0.049 -0.04,0.065 0.014,-0.011 0.025,-0.025 0.033,-0.041 0.007,-0.016 0.01,-0.034 0.008,-0.051 -0.002,-0.018 -0.009,-0.034 -0.019,-0.049 -0.011,-0.014 -0.025,-0.025 -0.041,-0.032 -0.016,-0.007 -0.034,-0.01 -0.051,-0.008 -0.025,0.003 -0.048,0.015 -0.064,0.034 1.22,-1.414 2.774,-2.502 4.519,-3.167 1.746,-0.665 3.629,-0.886 5.482,-0.643 1.852,0.243 3.615,0.942 5.13,2.035 -0.021,-0.014 -0.046,-0.021 -0.071,-0.018 -0.019,0.003 -0.038,0.011 -0.053,0.023 -0.015,0.013 -0.026,0.03 -0.031,0.049 -0.005,0.019 -0.005,0.04 10e-4,0.058 m -5.389,-7.424 c -2.031,-1.475 -4.401,-2.414 -6.891,-2.728 0.048,0.006 0.093,-0.023 0.108,-0.068 -0.008,0.025 -0.026,0.046 -0.05,0.058 -1.495,0.756 -2.765,1.892 -3.682,3.294 -0.917,1.403 -1.448,3.021 -1.541,4.694 -0.093,1.673 0.256,3.341 1.012,4.836 0.012,0.024 0.014,0.051 0.006,0.076 0.006,-0.016 0.007,-0.034 0.003,-0.052 -0.004,-0.017 -0.012,-0.033 -0.024,-0.046 -0.012,-0.013 -0.027,-0.023 -0.043,-0.028 -0.017,-0.005 -0.035,-0.006 -0.052,-0.002 -0.018,0.003 -0.034,0.012 -0.047,0.024 -0.018,0.017 -0.029,0.04 -0.031,0.065 0.156,-1.862 0.773,-3.655 1.794,-5.219 1.022,-1.564 2.416,-2.85 4.057,-3.742 1.641,-0.892 3.479,-1.363 5.347,-1.369 -0.025,0 -0.049,0.01 -0.068,0.027 -0.014,0.013 -0.025,0.03 -0.029,0.05 -0.005,0.019 -0.004,0.039 0.003,0.058 0.007,0.018 0.019,0.034 0.035,0.046 m -8.724,-2.839 c -2.51,0 -4.979,0.634 -7.178,1.843 0.042,-0.023 0.062,-0.073 0.047,-0.118 0.008,0.025 0.006,0.052 -0.006,0.076 -0.765,1.49 -1.125,3.156 -1.042,4.83 0.082,1.673 0.604,3.295 1.512,4.703 0.908,1.408 2.171,2.552 3.661,3.317 0.024,0.012 0.042,0.033 0.05,0.059 -0.005,-0.017 -0.015,-0.032 -0.028,-0.044 -0.013,-0.012 -0.029,-0.02 -0.047,-0.024 -0.017,-0.003 -0.035,-0.002 -0.052,0.003 -0.017,0.006 -0.031,0.016 -0.043,0.029 -0.012,0.013 -0.02,0.029 -0.023,0.047 -0.005,0.024 -0.001,0.05 0.012,0.071 -0.967,-1.598 -1.522,-3.412 -1.616,-5.277 -0.093,-1.866 0.279,-3.726 1.083,-5.412 0.803,-1.687 2.013,-3.147 3.521,-4.25 -0.02,0.015 -0.034,0.037 -0.039,0.061 -0.004,0.02 -0.002,0.04 0.006,0.058 0.007,0.018 0.02,0.034 0.036,0.045 0.017,0.011 0.036,0.017 0.056,0.017 m -8.727,2.831 c -2.03,1.475 -3.655,3.439 -4.724,5.71 0.021,-0.043 0.008,-0.095 -0.031,-0.123 0.021,0.015 0.036,0.039 0.04,0.065 0.257,1.656 0.945,3.214 1.995,4.52 1.051,1.305 2.426,2.311 3.988,2.916 1.563,0.605 3.257,0.789 4.912,0.532 0.027,-0.005 0.053,0.002 0.075,0.018 -0.014,-0.011 -0.031,-0.017 -0.049,-0.019 -0.017,-0.002 -0.035,0.001 -0.051,0.008 -0.016,0.007 -0.03,0.019 -0.04,0.033 -0.011,0.014 -0.017,0.031 -0.019,0.049 -0.001,0.017 0.002,0.035 0.009,0.051 0.01,0.023 0.029,0.041 0.052,0.051 -1.722,-0.725 -3.237,-1.865 -4.409,-3.32 -1.172,-1.455 -1.964,-3.178 -2.305,-5.015 -0.342,-1.836 -0.221,-3.729 0.35,-5.508 -0.007,0.024 -0.006,0.05 0.005,0.073 0.008,0.018 0.021,0.033 0.038,0.043 0.017,0.011 0.037,0.016 0.056,0.015 0.02,-0.001 0.039,-0.007 0.055,-0.019 m -5.396,7.42 c -0.775,2.387 -0.935,4.931 -0.465,7.396 -0.009,-0.047 -0.05,-0.081 -0.098,-0.081 0.027,0 0.052,0.01 0.071,0.029 1.181,1.189 2.654,2.045 4.271,2.484 1.617,0.438 3.321,0.444 4.94,0.015 1.62,-0.429 3.098,-1.276 4.287,-2.457 0.018,-0.019 0.044,-0.029 0.07,-0.029 -0.017,0 -0.035,0.004 -0.05,0.013 -0.015,0.009 -0.028,0.022 -0.037,0.037 -0.008,0.015 -0.013,0.033 -0.013,0.05 0,0.018 0.005,0.035 0.014,0.05 0.009,0.016 0.022,0.028 0.037,0.037 0.022,0.012 0.048,0.016 0.072,0.01 -1.819,0.426 -3.715,0.394 -5.518,-0.094 -1.804,-0.488 -3.457,-1.416 -4.813,-2.702 -1.355,-1.285 -2.37,-2.887 -2.954,-4.662 0.008,0.024 0.025,0.044 0.046,0.056 0.018,0.01 0.037,0.014 0.057,0.013 0.02,-0.002 0.039,-0.009 0.054,-0.022 0.016,-0.012 0.027,-0.028 0.034,-0.047 m -0.005,9.174 c 0.776,2.387 2.142,4.539 3.971,6.257 -0.035,-0.032 -0.088,-0.036 -0.127,-0.008 0.022,-0.015 0.049,-0.022 0.075,-0.017 1.654,0.267 3.349,0.094 4.915,-0.502 1.566,-0.595 2.947,-1.593 4.006,-2.891 1.058,-1.299 1.756,-2.854 2.023,-4.508 0.004,-0.026 0.019,-0.049 0.04,-0.065 -0.014,0.011 -0.025,0.024 -0.032,0.041 -0.008,0.016 -0.01,0.033 -0.008,0.051 0.001,0.018 0.008,0.034 0.018,0.049 0.011,0.014 0.025,0.025 0.041,0.032 0.016,0.007 0.034,0.01 0.052,0.008 0.024,-0.003 0.047,-0.015 0.064,-0.034 -1.221,1.414 -2.774,2.502 -4.52,3.167 -1.746,0.665 -3.629,0.886 -5.481,0.643 -1.853,-0.243 -3.615,-0.943 -5.13,-2.036 0.02,0.015 0.045,0.022 0.07,0.019 0.019,-0.003 0.038,-0.011 0.053,-0.024 0.015,-0.012 0.026,-0.029 0.031,-0.048 0.006,-0.019 0.005,-0.04 -0.001,-0.059 m 5.389,7.425 c 2.031,1.475 4.401,2.414 6.891,2.728 -0.048,-0.006 -0.093,0.023 -0.108,0.068 0.009,-0.025 0.027,-0.046 0.05,-0.058 1.495,-0.756 2.765,-1.892 3.682,-3.294 0.917,-1.403 1.448,-3.022 1.541,-4.694 0.093,-1.673 -0.256,-3.341 -1.012,-4.836 -0.012,-0.024 -0.014,-0.051 -0.006,-0.076 -0.006,0.016 -0.006,0.034 -0.003,0.051 0.004,0.018 0.012,0.034 0.024,0.047 0.012,0.013 0.027,0.023 0.044,0.028 0.017,0.005 0.034,0.006 0.052,0.002 0.017,-0.003 0.033,-0.012 0.046,-0.024 0.018,-0.017 0.03,-0.04 0.032,-0.065 -0.157,1.862 -0.774,3.655 -1.795,5.219 -1.021,1.564 -2.415,2.85 -4.057,3.742 -1.641,0.892 -3.478,1.363 -5.346,1.369 0.025,0 0.049,-0.01 0.067,-0.027 0.015,-0.013 0.025,-0.031 0.029,-0.05 0.005,-0.019 0.004,-0.039 -0.003,-0.058 -0.007,-0.018 -0.019,-0.034 -0.035,-0.046"
           stroke="#000000"
           stroke-width="0.2"
           id="path1792"
           style="fill:none;stroke:#000000;stroke-opacity:1" /></g><rect
         style="fill:none;stroke:#44baae;stroke-width:0.269999;stroke-opacity:0.498127"
         id="rect3111"
         width="190"
         height="130"
         x="-24.223764"
         y="-46.930328" /><g
         id="p-3"
         style="fill:none;stroke-linecap:round;stroke-linejoin:round"
         transform="matrix(0.15859147,0,0,0.15859147,-196.56107,-462.80664)"><path
           d="m 1867.9953,2855.0796 c 0,2.411 -0.6938,4.773 -1.9976,6.8018 -1.3044,2.0294 -3.1644,3.6416 -5.358,4.6434 -2.1954,1.0024 -4.6308,1.3534 -7.019,1.0096 -2.3872,-0.3434 -4.6256,-1.366 -6.449,-2.9464 -1.8226,-1.5786 -3.1544,-3.6492 -3.8338,-5.9644 -0.6798,-2.3146 -0.6798,-4.775 0,-7.0892 0.6794,-2.3158 2.0112,-4.386 3.8338,-5.9648 1.8234,-1.5806 4.0618,-2.603 6.449,-2.9466 2.3882,-0.3422 4.8236,0.02 7.019,1.0098 2.1936,1.0016 4.0536,2.614 5.358,4.6432 1.3038,2.0286 1.9976,4.391 1.9976,6.8036 z"
           stroke="#0000ff"
           stroke-width="0.0548255"
           id="path4767-5-0"
           style="fill:none;stroke:#000000;stroke-width:0.687301;stroke-linecap:round;stroke-linejoin:round;stroke-dasharray:none;stroke-opacity:1" /><path
           d="m 1905.8284,2855.0796 c 0,2.411 -0.6938,4.773 -1.9976,6.8018 -1.3044,2.0294 -3.1644,3.6416 -5.358,4.6434 -2.1954,1.0024 -4.6308,1.3534 -7.019,1.0096 -2.3872,-0.3434 -4.6256,-1.366 -6.449,-2.9464 -1.8226,-1.5786 -3.1544,-3.6492 -3.8338,-5.9644 -0.6798,-2.3146 -0.6798,-4.775 0,-7.0892 0.6794,-2.3158 2.0112,-4.386 3.8338,-5.9648 1.8234,-1.5806 4.0618,-2.603 6.449,-2.9466 2.3882,-0.3422 4.8236,0.02 7.019,1.0098 2.1936,1.0016 4.0536,2.614 5.358,4.6432 1.3038,2.0286 1.9976,4.391 1.9976,6.8036 z"
           stroke="#0000ff"
           stroke-width="0.0548255"
           id="path4767-5-0-1"
           style="fill:none;stroke:#000000;stroke-width:0.687301;stroke-linecap:round;stroke-linejoin:round;stroke-dasharray:none;stroke-opacity:1" /><path
           d="m 1943.6614,2855.0796 c 0,2.411 -0.6938,4.773 -1.9976,6.8018 -1.3044,2.0294 -3.1644,3.6416 -5.358,4.6434 -2.1954,1.0024 -4.6308,1.3534 -7.019,1.0096 -2.3872,-0.3434 -4.6256,-1.366 -6.449,-2.9464 -1.8226,-1.5786 -3.1544,-3.6492 -3.8338,-5.9644 -0.6798,-2.3146 -0.6798,-4.775 0,-7.0892 0.6794,-2.3158 2.0112,-4.386 3.8338,-5.9648 1.8234,-1.5806 4.0618,-2.603 6.449,-2.9466 2.3882,-0.3422 4.8236,0.02 7.019,1.0098 2.1936,1.0016 4.0536,2.614 5.358,4.6432 1.3038,2.0286 1.9976,4.391 1.9976,6.8036 z"
           stroke="#0000ff"
           stroke-width="0.0548255"
           id="path4767-5-0-1-5"
           style="fill:none;stroke:#000000;stroke-width:0.687301;stroke-linecap:round;stroke-linejoin:round;stroke-dasharray:none;stroke-opacity:1" /><path
           d="m 1981.4945,2855.0796 c 0,2.411 -0.6938,4.773 -1.9976,6.8018 -1.3044,2.0294 -3.1644,3.6416 -5.358,4.6434 -2.1954,1.0024 -4.6308,1.3534 -7.019,1.0096 -2.3872,-0.3434 -4.6256,-1.366 -6.449,-2.9464 -1.8226,-1.5786 -3.1544,-3.6492 -3.8338,-5.9644 -0.6798,-2.3146 -0.6798,-4.775 0,-7.0892 0.6794,-2.3158 2.0112,-4.386 3.8338,-5.9648 1.8234,-1.5806 4.0618,-2.603 6.449,-2.9466 2.3882,-0.3422 4.8236,0.02 7.019,1.0098 2.1936,1.0016 4.0536,2.614 5.358,4.6432 1.3038,2.0286 1.9976,4.391 1.9976,6.8036 z"
           stroke="#0000ff"
           stroke-width="0.0548255"
           id="path4767-5-0-1-5-1"
           style="fill:none;stroke:#000000;stroke-width:0.687301;stroke-linecap:round;stroke-linejoin:round;stroke-dasharray:none;stroke-opacity:1" /><path
           d="m 2019.3276,2855.0796 c 0,2.411 -0.6938,4.773 -1.9976,6.8018 -1.3044,2.0294 -3.1644,3.6416 -5.358,4.6434 -2.1954,1.0024 -4.6308,1.3534 -7.019,1.0096 -2.3872,-0.3434 -4.6256,-1.366 -6.449,-2.9464 -1.8226,-1.5786 -3.1544,-3.6492 -3.8338,-5.9644 -0.6798,-2.3146 -0.6798,-4.775 0,-7.0892 0.6794,-2.3158 2.0112,-4.386 3.8338,-5.9648 1.8234,-1.5806 4.0618,-2.603 6.449,-2.9466 2.3882,-0.3422 4.8236,0.02 7.019,1.0098 2.1936,1.0016 4.0536,2.614 5.358,4.6432 1.3038,2.0286 1.9976,4.391 1.9976,6.8036 z"
           stroke="#0000ff"
           stroke-width="0.0548255"
           id="path4767-5-0-1-5-1-5"
           style="fill:none;stroke:#000000;stroke-width:0.687301;stroke-linecap:round;stroke-linejoin:round;stroke-dasharray:none;stroke-opacity:1" /><path
           d="m 2057.1606,2855.0796 c 0,2.411 -0.6938,4.773 -1.9976,6.8018 -1.3044,2.0294 -3.1644,3.6416 -5.358,4.6434 -2.1954,1.0024 -4.6308,1.3534 -7.019,1.0096 -2.3872,-0.3434 -4.6256,-1.366 -6.449,-2.9464 -1.8226,-1.5786 -3.1544,-3.6492 -3.8338,-5.9644 -0.6798,-2.3146 -0.6798,-4.775 0,-7.0892 0.6794,-2.3158 2.0112,-4.386 3.8338,-5.9648 1.8234,-1.5806 4.0618,-2.603 6.449,-2.9466 2.3882,-0.3422 4.8236,0.02 7.019,1.0098 2.1936,1.0016 4.0536,2.614 5.358,4.6432 1.3038,2.0286 1.9976,4.391 1.9976,6.8036 z"
           stroke="#0000ff"
           stroke-width="0.0548255"
           id="path4767-5-0-1-5-1-5-1"
           style="fill:none;stroke:#000000;stroke-width:0.687301;stroke-linecap:round;stroke-linejoin:round;stroke-dasharray:none;stroke-opacity:1" /><path
           d="m 2094.9937,2855.0796 c 0,2.411 -0.6938,4.773 -1.9976,6.8018 -1.3044,2.0294 -3.1644,3.6416 -5.358,4.6434 -2.1954,1.0024 -4.6308,1.3534 -7.019,1.0096 -2.3872,-0.3434 -4.6256,-1.366 -6.449,-2.9464 -1.8226,-1.5786 -3.1544,-3.6492 -3.8338,-5.9644 -0.6798,-2.3146 -0.6798,-4.775 0,-7.0892 0.6794,-2.3158 2.0112,-4.386 3.8338,-5.9648 1.8234,-1.5806 4.0618,-2.603 6.449,-2.9466 2.3882,-0.3422 4.8236,0.02 7.019,1.0098 2.1936,1.0016 4.0536,2.614 5.358,4.6432 1.3038,2.0286 1.9976,4.391 1.9976,6.8036 z"
           stroke="#0000ff"
           stroke-width="0.0548255"
           id="path4767-5-0-1-5-1-5-11"
           style="fill:none;stroke:#000000;stroke-width:0.687301;stroke-linecap:round;stroke-linejoin:round;stroke-dasharray:none;stroke-opacity:1" /><path
           d="m 2132.8267,2855.0796 c 0,2.411 -0.6938,4.773 -1.9976,6.8018 -1.3044,2.0294 -3.1644,3.6416 -5.358,4.6434 -2.1954,1.0024 -4.6308,1.3534 -7.019,1.0096 -2.3872,-0.3434 -4.6256,-1.366 -6.449,-2.9464 -1.8226,-1.5786 -3.1544,-3.6492 -3.8338,-5.9644 -0.6798,-2.3146 -0.6798,-4.775 0,-7.0892 0.6794,-2.3158 2.0112,-4.386 3.8338,-5.9648 1.8234,-1.5806 4.0618,-2.603 6.449,-2.9466 2.3882,-0.3422 4.8236,0.02 7.019,1.0098 2.1936,1.0016 4.0536,2.614 5.358,4.6432 1.3038,2.0286 1.9976,4.391 1.9976,6.8036 z"
           stroke="#0000ff"
           stroke-width="0.0548255"
           id="path4767-5-0-1-5-1-5-4"
           style="fill:none;stroke:#000000;stroke-width:0.687301;stroke-linecap:round;stroke-linejoin:round;stroke-dasharray:none;stroke-opacity:1" /><path
           d="m 1886.9125,2892.9126 c 0,2.411 -0.6938,4.773 -1.9976,6.8018 -1.3044,2.0294 -3.1645,3.6416 -5.3583,4.6434 -2.1955,1.0024 -4.6309,1.3534 -7.0191,1.0096 -2.3872,-0.3434 -4.6257,-1.366 -6.4491,-2.9464 -1.8227,-1.5786 -3.1545,-3.6492 -3.8339,-5.9644 -0.6798,-2.3146 -0.6798,-4.775 0,-7.0892 0.6794,-2.3158 2.0112,-4.386 3.8339,-5.9648 1.8234,-1.5806 4.0619,-2.603 6.4491,-2.9466 2.3882,-0.3422 4.8236,0.02 7.0191,1.0098 2.1938,1.0016 4.0539,2.614 5.3583,4.6432 1.3038,2.0286 1.9976,4.391 1.9976,6.8036 z"
           stroke="#0000ff"
           stroke-width="0.0548255"
           id="path4767-5-0-4"
           style="fill:none;stroke:#000000;stroke-width:0.687301;stroke-linecap:round;stroke-linejoin:round;stroke-dasharray:none;stroke-opacity:1" /><path
           d="m 1924.7456,2892.9126 c 0,2.411 -0.6938,4.773 -1.9976,6.8018 -1.3044,2.0294 -3.1644,3.6416 -5.358,4.6434 -2.1954,1.0024 -4.6308,1.3534 -7.019,1.0096 -2.3872,-0.3434 -4.6256,-1.366 -6.449,-2.9464 -1.8226,-1.5786 -3.1544,-3.6492 -3.8338,-5.9644 -0.6798,-2.3146 -0.6798,-4.775 0,-7.0892 0.6794,-2.3158 2.0112,-4.386 3.8338,-5.9648 1.8234,-1.5806 4.0618,-2.603 6.449,-2.9466 2.3882,-0.3422 4.8236,0.02 7.019,1.0098 2.1936,1.0016 4.0536,2.614 5.358,4.6432 1.3038,2.0286 1.9976,4.391 1.9976,6.8036 z"
           stroke="#0000ff"
           stroke-width="0.0548255"
           id="path4767-5-0-1-0"
           style="fill:none;stroke:#000000;stroke-width:0.687301;stroke-linecap:round;stroke-linejoin:round;stroke-dasharray:none;stroke-opacity:1" /><path
           d="m 1962.5786,2892.9126 c 0,2.411 -0.6938,4.773 -1.9976,6.8018 -1.3044,2.0294 -3.1644,3.6416 -5.358,4.6434 -2.1954,1.0024 -4.6308,1.3534 -7.019,1.0096 -2.3872,-0.3434 -4.6256,-1.366 -6.449,-2.9464 -1.8226,-1.5786 -3.1544,-3.6492 -3.8338,-5.9644 -0.6798,-2.3146 -0.6798,-4.775 0,-7.0892 0.6794,-2.3158 2.0112,-4.386 3.8338,-5.9648 1.8234,-1.5806 4.0618,-2.603 6.449,-2.9466 2.3882,-0.3422 4.8236,0.02 7.019,1.0098 2.1936,1.0016 4.0536,2.614 5.358,4.6432 1.3038,2.0286 1.9976,4.391 1.9976,6.8036 z"
           stroke="#0000ff"
           stroke-width="0.0548255"
           id="path4767-5-0-1-5-0"
           style="fill:none;stroke:#000000;stroke-width:0.687301;stroke-linecap:round;stroke-linejoin:round;stroke-dasharray:none;stroke-opacity:1" /><path
           d="m 2000.4117,2892.9126 c 0,2.411 -0.6938,4.773 -1.9976,6.8018 -1.3044,2.0294 -3.1644,3.6416 -5.358,4.6434 -2.1954,1.0024 -4.6308,1.3534 -7.019,1.0096 -2.3872,-0.3434 -4.6256,-1.366 -6.449,-2.9464 -1.8226,-1.5786 -3.1544,-3.6492 -3.8338,-5.9644 -0.6798,-2.3146 -0.6798,-4.775 0,-7.0892 0.6794,-2.3158 2.0112,-4.386 3.8338,-5.9648 1.8234,-1.5806 4.0618,-2.603 6.449,-2.9466 2.3882,-0.3422 4.8236,0.02 7.019,1.0098 2.1936,1.0016 4.0536,2.614 5.358,4.6432 1.3038,2.0286 1.9976,4.391 1.9976,6.8036 z"
           stroke="#0000ff"
           stroke-width="0.0548255"
           id="path4767-5-0-1-5-1-6"
           style="fill:none;stroke:#000000;stroke-width:0.687301;stroke-linecap:round;stroke-linejoin:round;stroke-dasharray:none;stroke-opacity:1" /><path
           d="m 2038.2448,2892.9126 c 0,2.411 -0.6938,4.773 -1.9976,6.8018 -1.3044,2.0294 -3.1644,3.6416 -5.358,4.6434 -2.1954,1.0024 -4.6308,1.3534 -7.019,1.0096 -2.3872,-0.3434 -4.6256,-1.366 -6.449,-2.9464 -1.8226,-1.5786 -3.1544,-3.6492 -3.8338,-5.9644 -0.6798,-2.3146 -0.6798,-4.775 0,-7.0892 0.6794,-2.3158 2.0112,-4.386 3.8338,-5.9648 1.8234,-1.5806 4.0618,-2.603 6.449,-2.9466 2.3882,-0.3422 4.8236,0.02 7.019,1.0098 2.1936,1.0016 4.0536,2.614 5.358,4.6432 1.3038,2.0286 1.9976,4.391 1.9976,6.8036 z"
           stroke="#0000ff"
           stroke-width="0.0548255"
           id="path4767-5-0-1-5-1-5-2"
           style="fill:none;stroke:#000000;stroke-width:0.687301;stroke-linecap:round;stroke-linejoin:round;stroke-dasharray:none;stroke-opacity:1" /><path
           d="m 2076.0778,2892.9126 c 0,2.411 -0.6938,4.773 -1.9976,6.8018 -1.3044,2.0294 -3.1644,3.6416 -5.358,4.6434 -2.1954,1.0024 -4.6308,1.3534 -7.019,1.0096 -2.3872,-0.3434 -4.6256,-1.366 -6.449,-2.9464 -1.8226,-1.5786 -3.1544,-3.6492 -3.8338,-5.9644 -0.6798,-2.3146 -0.6798,-4.775 0,-7.0892 0.6794,-2.3158 2.0112,-4.386 3.8338,-5.9648 1.8234,-1.5806 4.0618,-2.603 6.449,-2.9466 2.3882,-0.3422 4.8236,0.02 7.019,1.0098 2.1936,1.0016 4.0536,2.614 5.358,4.6432 1.3038,2.0286 1.9976,4.391 1.9976,6.8036 z"
           stroke="#0000ff"
           stroke-width="0.0548255"
           id="path4767-5-0-1-5-1-5-1-4"
           style="fill:none;stroke:#000000;stroke-width:0.687301;stroke-linecap:round;stroke-linejoin:round;stroke-dasharray:none;stroke-opacity:1" /><path
           d="m 2113.9109,2892.9126 c 0,2.411 -0.6938,4.773 -1.9976,6.8018 -1.3044,2.0294 -3.1644,3.6416 -5.358,4.6434 -2.1954,1.0024 -4.6308,1.3534 -7.019,1.0096 -2.3872,-0.3434 -4.6256,-1.366 -6.449,-2.9464 -1.8226,-1.5786 -3.1544,-3.6492 -3.8338,-5.9644 -0.6798,-2.3146 -0.6798,-4.775 0,-7.0892 0.6794,-2.3158 2.0112,-4.386 3.8338,-5.9648 1.8234,-1.5806 4.0618,-2.603 6.449,-2.9466 2.3882,-0.3422 4.8236,0.02 7.019,1.0098 2.1936,1.0016 4.0536,2.614 5.358,4.6432 1.3038,2.0286 1.9976,4.391 1.9976,6.8036 z"
           stroke="#0000ff"
           stroke-width="0.0548255"
           id="path4767-5-0-1-5-1-5-11-7"
           style="fill:none;stroke:#000000;stroke-width:0.687301;stroke-linecap:round;stroke-linejoin:round;stroke-dasharray:none;stroke-opacity:1" /><path
           d="m 2151.7439,2892.9126 c 0,2.411 -0.6938,4.773 -1.9976,6.8018 -1.3044,2.0294 -3.1644,3.6416 -5.358,4.6434 -2.1954,1.0024 -4.6308,1.3534 -7.019,1.0096 -2.3872,-0.3434 -4.6256,-1.366 -6.449,-2.9464 -1.8226,-1.5786 -3.1544,-3.6492 -3.8338,-5.9644 -0.6798,-2.3146 -0.6798,-4.775 0,-7.0892 0.6794,-2.3158 2.0112,-4.386 3.8338,-5.9648 1.8234,-1.5806 4.0618,-2.603 6.449,-2.9466 2.3882,-0.3422 4.8236,0.02 7.019,1.0098 2.1936,1.0016 4.0536,2.614 5.358,4.6432 1.3038,2.0286 1.9976,4.391 1.9976,6.8036 z"
           stroke="#0000ff"
           stroke-width="0.0548255"
           id="path4767-5-0-1-5-1-5-4-4"
           style="fill:none;stroke:#000000;stroke-width:0.687301;stroke-linecap:round;stroke-linejoin:round;stroke-dasharray:none;stroke-opacity:1" /><path
           d="m 1867.996,2930.7457 c 0,2.411 -0.6938,4.773 -1.9976,6.8018 -1.3045,2.0294 -3.1646,3.6416 -5.3584,4.6434 -2.1955,1.0024 -4.6309,1.3534 -7.0191,1.0096 -2.3872,-0.3434 -4.6257,-1.366 -6.4491,-2.9464 -1.8227,-1.5786 -3.1545,-3.6492 -3.8339,-5.9644 -0.6798,-2.3146 -0.6798,-4.775 0,-7.0892 0.6794,-2.3158 2.0112,-4.386 3.8339,-5.9648 1.8234,-1.5806 4.0619,-2.603 6.4491,-2.9466 2.3882,-0.3422 4.8236,0.02 7.0191,1.0098 2.1938,1.0016 4.0539,2.614 5.3584,4.6432 1.3038,2.0286 1.9976,4.391 1.9976,6.8036 z"
           stroke="#0000ff"
           stroke-width="0.0548255"
           id="path4767-5-0-4-6"
           style="fill:none;stroke:#000000;stroke-width:0.687301;stroke-linecap:round;stroke-linejoin:round;stroke-dasharray:none;stroke-opacity:1" /><path
           d="m 1905.8297,2930.7457 c 0,2.411 -0.6938,4.773 -1.9976,6.8018 -1.3044,2.0294 -3.1644,3.6416 -5.358,4.6434 -2.1954,1.0024 -4.6308,1.3534 -7.019,1.0096 -2.3872,-0.3434 -4.6257,-1.366 -6.4492,-2.9464 -1.8227,-1.5786 -3.1546,-3.6492 -3.834,-5.9644 -0.6798,-2.3146 -0.6798,-4.775 0,-7.0892 0.6794,-2.3158 2.0113,-4.386 3.834,-5.9648 1.8235,-1.5806 4.062,-2.603 6.4492,-2.9466 2.3882,-0.3422 4.8236,0.02 7.019,1.0098 2.1936,1.0016 4.0536,2.614 5.358,4.6432 1.3038,2.0286 1.9976,4.391 1.9976,6.8036 z"
           stroke="#0000ff"
           stroke-width="0.0548255"
           id="path4767-5-0-1-0-3"
           style="fill:none;stroke:#000000;stroke-width:0.687301;stroke-linecap:round;stroke-linejoin:round;stroke-dasharray:none;stroke-opacity:1" /><path
           d="m 1943.6627,2930.7457 c 0,2.411 -0.6938,4.773 -1.9976,6.8018 -1.3044,2.0294 -3.1644,3.6416 -5.358,4.6434 -2.1954,1.0024 -4.6308,1.3534 -7.019,1.0096 -2.3872,-0.3434 -4.6256,-1.366 -6.449,-2.9464 -1.8226,-1.5786 -3.1544,-3.6492 -3.8338,-5.9644 -0.6798,-2.3146 -0.6798,-4.775 0,-7.0892 0.6794,-2.3158 2.0112,-4.386 3.8338,-5.9648 1.8234,-1.5806 4.0618,-2.603 6.449,-2.9466 2.3882,-0.3422 4.8236,0.02 7.019,1.0098 2.1936,1.0016 4.0536,2.614 5.358,4.6432 1.3038,2.0286 1.9976,4.391 1.9976,6.8036 z"
           stroke="#0000ff"
           stroke-width="0.0548255"
           id="path4767-5-0-1-5-0-4"
           style="fill:none;stroke:#000000;stroke-width:0.687301;stroke-linecap:round;stroke-linejoin:round;stroke-dasharray:none;stroke-opacity:1" /><path
           d="m 1981.4958,2930.7457 c 0,2.411 -0.6938,4.773 -1.9976,6.8018 -1.3044,2.0294 -3.1644,3.6416 -5.358,4.6434 -2.1954,1.0024 -4.6308,1.3534 -7.019,1.0096 -2.3872,-0.3434 -4.6256,-1.366 -6.449,-2.9464 -1.8226,-1.5786 -3.1544,-3.6492 -3.8338,-5.9644 -0.6798,-2.3146 -0.6798,-4.775 0,-7.0892 0.6794,-2.3158 2.0112,-4.386 3.8338,-5.9648 1.8234,-1.5806 4.0618,-2.603 6.449,-2.9466 2.3882,-0.3422 4.8236,0.02 7.019,1.0098 2.1936,1.0016 4.0536,2.614 5.358,4.6432 1.3038,2.0286 1.9976,4.391 1.9976,6.8036 z"
           stroke="#0000ff"
           stroke-width="0.0548255"
           id="path4767-5-0-1-5-1-6-0"
           style="fill:none;stroke:#000000;stroke-width:0.687301;stroke-linecap:round;stroke-linejoin:round;stroke-dasharray:none;stroke-opacity:1" /><path
           d="m 2019.3289,2930.7457 c 0,2.411 -0.6938,4.773 -1.9976,6.8018 -1.3044,2.0294 -3.1644,3.6416 -5.358,4.6434 -2.1954,1.0024 -4.6308,1.3534 -7.019,1.0096 -2.3872,-0.3434 -4.6256,-1.366 -6.449,-2.9464 -1.8226,-1.5786 -3.1544,-3.6492 -3.8338,-5.9644 -0.6798,-2.3146 -0.6798,-4.775 0,-7.0892 0.6794,-2.3158 2.0112,-4.386 3.8338,-5.9648 1.8234,-1.5806 4.0618,-2.603 6.449,-2.9466 2.3882,-0.3422 4.8236,0.02 7.019,1.0098 2.1936,1.0016 4.0536,2.614 5.358,4.6432 1.3038,2.0286 1.9976,4.391 1.9976,6.8036 z"
           stroke="#0000ff"
           stroke-width="0.0548255"
           id="path4767-5-0-1-5-1-5-2-6"
           style="fill:none;stroke:#000000;stroke-width:0.687301;stroke-linecap:round;stroke-linejoin:round;stroke-dasharray:none;stroke-opacity:1" /><path
           d="m 2057.1619,2930.7457 c 0,2.411 -0.6938,4.773 -1.9976,6.8018 -1.3044,2.0294 -3.1644,3.6416 -5.358,4.6434 -2.1954,1.0024 -4.6308,1.3534 -7.019,1.0096 -2.3872,-0.3434 -4.6256,-1.366 -6.449,-2.9464 -1.8226,-1.5786 -3.1544,-3.6492 -3.8338,-5.9644 -0.6798,-2.3146 -0.6798,-4.775 0,-7.0892 0.6794,-2.3158 2.0112,-4.386 3.8338,-5.9648 1.8234,-1.5806 4.0618,-2.603 6.449,-2.9466 2.3882,-0.3422 4.8236,0.02 7.019,1.0098 2.1936,1.0016 4.0536,2.614 5.358,4.6432 1.3038,2.0286 1.9976,4.391 1.9976,6.8036 z"
           stroke="#0000ff"
           stroke-width="0.0548255"
           id="path4767-5-0-1-5-1-5-1-4-0"
           style="fill:none;stroke:#000000;stroke-width:0.687301;stroke-linecap:round;stroke-linejoin:round;stroke-dasharray:none;stroke-opacity:1" /><path
           d="m 2094.995,2930.7457 c 0,2.411 -0.6938,4.773 -1.9976,6.8018 -1.3044,2.0294 -3.1644,3.6416 -5.358,4.6434 -2.1954,1.0024 -4.6308,1.3534 -7.019,1.0096 -2.3872,-0.3434 -4.6256,-1.366 -6.449,-2.9464 -1.8226,-1.5786 -3.1544,-3.6492 -3.8338,-5.9644 -0.6798,-2.3146 -0.6798,-4.775 0,-7.0892 0.6794,-2.3158 2.0112,-4.386 3.8338,-5.9648 1.8234,-1.5806 4.0618,-2.603 6.449,-2.9466 2.3882,-0.3422 4.8236,0.02 7.019,1.0098 2.1936,1.0016 4.0536,2.614 5.358,4.6432 1.3038,2.0286 1.9976,4.391 1.9976,6.8036 z"
           stroke="#0000ff"
           stroke-width="0.0548255"
           id="path4767-5-0-1-5-1-5-11-7-4"
           style="fill:none;stroke:#000000;stroke-width:0.687301;stroke-linecap:round;stroke-linejoin:round;stroke-dasharray:none;stroke-opacity:1" /><path
           d="m 2132.828,2930.7457 c 0,2.411 -0.6938,4.773 -1.9976,6.8018 -1.3044,2.0294 -3.1644,3.6416 -5.358,4.6434 -2.1954,1.0024 -4.6308,1.3534 -7.019,1.0096 -2.3872,-0.3434 -4.6256,-1.366 -6.449,-2.9464 -1.8226,-1.5786 -3.1544,-3.6492 -3.8338,-5.9644 -0.6798,-2.3146 -0.6798,-4.775 0,-7.0892 0.6794,-2.3158 2.0112,-4.386 3.8338,-5.9648 1.8234,-1.5806 4.0618,-2.603 6.449,-2.9466 2.3882,-0.3422 4.8236,0.02 7.019,1.0098 2.1936,1.0016 4.0536,2.614 5.358,4.6432 1.3038,2.0286 1.9976,4.391 1.9976,6.8036 z"
           stroke="#0000ff"
           stroke-width="0.0548255"
           id="path4767-5-0-1-5-1-5-4-4-0"
           style="fill:none;stroke:#000000;stroke-width:0.687301;stroke-linecap:round;stroke-linejoin:round;stroke-dasharray:none;stroke-opacity:1" /><path
           d="m 1886.9132,2968.5787 c 0,2.411 -0.6938,4.773 -1.9976,6.8018 -1.3044,2.0294 -3.1645,3.6416 -5.3583,4.6434 -2.1956,1.0024 -4.631,1.3534 -7.0191,1.0096 -2.3874,-0.3434 -4.6261,-1.366 -6.4495,-2.9464 -1.8227,-1.5786 -3.1545,-3.6492 -3.8339,-5.9644 -0.6798,-2.3146 -0.6798,-4.775 0,-7.0892 0.6794,-2.3158 2.0112,-4.386 3.8339,-5.9648 1.8234,-1.5806 4.0621,-2.603 6.4495,-2.9466 2.3882,-0.3422 4.8235,0.02 7.0191,1.0098 2.1938,1.0016 4.0539,2.614 5.3583,4.6432 1.3038,2.0286 1.9976,4.391 1.9976,6.8036 z"
           stroke="#0000ff"
           stroke-width="0.0548255"
           id="path4767-5-0-4-8"
           style="fill:none;stroke:#000000;stroke-width:0.687301;stroke-linecap:round;stroke-linejoin:round;stroke-dasharray:none;stroke-opacity:1" /><path
           d="m 1924.7463,2968.5787 c 0,2.411 -0.6938,4.773 -1.9976,6.8018 -1.3044,2.0294 -3.1644,3.6416 -5.358,4.6434 -2.1954,1.0024 -4.6308,1.3534 -7.019,1.0096 -2.3872,-0.3434 -4.6256,-1.366 -6.449,-2.9464 -1.8226,-1.5786 -3.1544,-3.6492 -3.8338,-5.9644 -0.6798,-2.3146 -0.6798,-4.775 0,-7.0892 0.6794,-2.3158 2.0111,-4.386 3.8338,-5.9648 1.8234,-1.5806 4.0618,-2.603 6.449,-2.9466 2.3882,-0.3422 4.8236,0.02 7.019,1.0098 2.1936,1.0016 4.0536,2.614 5.358,4.6432 1.3038,2.0286 1.9976,4.391 1.9976,6.8036 z"
           stroke="#0000ff"
           stroke-width="0.0548255"
           id="path4767-5-0-1-0-4"
           style="fill:none;stroke:#000000;stroke-width:0.687301;stroke-linecap:round;stroke-linejoin:round;stroke-dasharray:none;stroke-opacity:1" /><path
           d="m 1962.5792,2968.5787 c 0,2.411 -0.6938,4.773 -1.9975,6.8018 -1.3044,2.0294 -3.1644,3.6416 -5.358,4.6434 -2.1954,1.0024 -4.6308,1.3534 -7.019,1.0096 -2.3872,-0.3434 -4.6256,-1.366 -6.449,-2.9464 -1.8226,-1.5786 -3.1544,-3.6492 -3.8339,-5.9644 -0.6797,-2.3146 -0.6797,-4.775 0,-7.0892 0.6794,-2.3158 2.0112,-4.386 3.8339,-5.9648 1.8234,-1.5806 4.0617,-2.603 6.449,-2.9466 2.3882,-0.3422 4.8236,0.02 7.019,1.0098 2.1936,1.0016 4.0536,2.614 5.358,4.6432 1.3037,2.0286 1.9975,4.391 1.9975,6.8036 z"
           stroke="#0000ff"
           stroke-width="0.0548255"
           id="path4767-5-0-1-5-0-9"
           style="fill:none;stroke:#000000;stroke-width:0.687301;stroke-linecap:round;stroke-linejoin:round;stroke-dasharray:none;stroke-opacity:1" /><path
           d="m 2000.4124,2968.5787 c 0,2.411 -0.6938,4.773 -1.9976,6.8018 -1.3044,2.0294 -3.1644,3.6416 -5.358,4.6434 -2.1954,1.0024 -4.6308,1.3534 -7.019,1.0096 -2.3872,-0.3434 -4.6256,-1.366 -6.449,-2.9464 -1.8226,-1.5786 -3.1544,-3.6492 -3.8339,-5.9644 -0.6797,-2.3146 -0.6797,-4.775 0,-7.0892 0.6794,-2.3158 2.0112,-4.386 3.8339,-5.9648 1.8234,-1.5806 4.0618,-2.603 6.449,-2.9466 2.3882,-0.3422 4.8236,0.02 7.019,1.0098 2.1936,1.0016 4.0536,2.614 5.358,4.6432 1.3038,2.0286 1.9976,4.391 1.9976,6.8036 z"
           stroke="#0000ff"
           stroke-width="0.0548255"
           id="path4767-5-0-1-5-1-6-7"
           style="fill:none;stroke:#000000;stroke-width:0.687301;stroke-linecap:round;stroke-linejoin:round;stroke-dasharray:none;stroke-opacity:1" /><path
           d="m 2038.2455,2968.5787 c 0,2.411 -0.6938,4.773 -1.9976,6.8018 -1.3044,2.0294 -3.1644,3.6416 -5.358,4.6434 -2.1954,1.0024 -4.6308,1.3534 -7.019,1.0096 -2.3872,-0.3434 -4.6256,-1.366 -6.449,-2.9464 -1.8226,-1.5786 -3.1544,-3.6492 -3.8338,-5.9644 -0.6798,-2.3146 -0.6798,-4.775 0,-7.0892 0.6794,-2.3158 2.0111,-4.386 3.8338,-5.9648 1.8234,-1.5806 4.0618,-2.603 6.449,-2.9466 2.3882,-0.3422 4.8236,0.02 7.019,1.0098 2.1936,1.0016 4.0536,2.614 5.358,4.6432 1.3038,2.0286 1.9976,4.391 1.9976,6.8036 z"
           stroke="#0000ff"
           stroke-width="0.0548255"
           id="path4767-5-0-1-5-1-5-2-3"
           style="fill:none;stroke:#000000;stroke-width:0.687301;stroke-linecap:round;stroke-linejoin:round;stroke-dasharray:none;stroke-opacity:1" /><path
           d="m 2076.0784,2968.5787 c 0,2.411 -0.6938,4.773 -1.9975,6.8018 -1.3044,2.0294 -3.1644,3.6416 -5.358,4.6434 -2.1954,1.0024 -4.6308,1.3534 -7.019,1.0096 -2.3872,-0.3434 -4.6257,-1.366 -6.4491,-2.9464 -1.8225,-1.5786 -3.1543,-3.6492 -3.8338,-5.9644 -0.6798,-2.3146 -0.6798,-4.775 0,-7.0892 0.6794,-2.3158 2.0112,-4.386 3.8338,-5.9648 1.8234,-1.5806 4.0618,-2.603 6.4491,-2.9466 2.3882,-0.3422 4.8236,0.02 7.019,1.0098 2.1936,1.0016 4.0536,2.614 5.358,4.6432 1.3037,2.0286 1.9975,4.391 1.9975,6.8036 z"
           stroke="#0000ff"
           stroke-width="0.0548255"
           id="path4767-5-0-1-5-1-5-1-4-1"
           style="fill:none;stroke:#000000;stroke-width:0.687301;stroke-linecap:round;stroke-linejoin:round;stroke-dasharray:none;stroke-opacity:1" /><path
           d="m 2113.9115,2968.5787 c 0,2.411 -0.6938,4.773 -1.9975,6.8018 -1.3044,2.0294 -3.1644,3.6416 -5.358,4.6434 -2.1954,1.0024 -4.6308,1.3534 -7.019,1.0096 -2.3872,-0.3434 -4.6256,-1.366 -6.449,-2.9464 -1.8226,-1.5786 -3.1544,-3.6492 -3.8339,-5.9644 -0.6797,-2.3146 -0.6797,-4.775 0,-7.0892 0.6794,-2.3158 2.0112,-4.386 3.8339,-5.9648 1.8234,-1.5806 4.0617,-2.603 6.449,-2.9466 2.3882,-0.3422 4.8236,0.02 7.019,1.0098 2.1936,1.0016 4.0536,2.614 5.358,4.6432 1.3037,2.0286 1.9975,4.391 1.9975,6.8036 z"
           stroke="#0000ff"
           stroke-width="0.0548255"
           id="path4767-5-0-1-5-1-5-11-7-0"
           style="fill:none;stroke:#000000;stroke-width:0.687301;stroke-linecap:round;stroke-linejoin:round;stroke-dasharray:none;stroke-opacity:1" /><path
           d="m 2151.7446,2968.5787 c 0,2.411 -0.6938,4.773 -1.9976,6.8018 -1.3044,2.0294 -3.1644,3.6416 -5.358,4.6434 -2.1954,1.0024 -4.6308,1.3534 -7.019,1.0096 -2.3872,-0.3434 -4.6256,-1.366 -6.449,-2.9464 -1.8226,-1.5786 -3.1544,-3.6492 -3.8338,-5.9644 -0.6798,-2.3146 -0.6798,-4.775 0,-7.0892 0.6794,-2.3158 2.0111,-4.386 3.8338,-5.9648 1.8234,-1.5806 4.0618,-2.603 6.449,-2.9466 2.3882,-0.3422 4.8236,0.02 7.019,1.0098 2.1936,1.0016 4.0536,2.614 5.358,4.6432 1.3038,2.0286 1.9976,4.391 1.9976,6.8036 z"
           stroke="#0000ff"
           stroke-width="0.0548255"
           id="path4767-5-0-1-5-1-5-4-4-2"
           style="fill:none;stroke:#000000;stroke-width:0.687301;stroke-linecap:round;stroke-linejoin:round;stroke-dasharray:none;stroke-opacity:1" /><path
           d="m 1867.9963,3006.4118 c 0,2.411 -0.6938,4.773 -1.9976,6.8018 -1.3045,2.0294 -3.1646,3.6416 -5.3584,4.6434 -2.1955,1.0024 -4.631,1.3534 -7.0193,1.0096 -2.3872,-0.3434 -4.6258,-1.366 -6.4492,-2.9464 -1.8227,-1.5786 -3.1545,-3.6492 -3.8339,-5.9644 -0.6798,-2.3146 -0.6798,-4.775 0,-7.0892 0.6794,-2.3158 2.0112,-4.386 3.8339,-5.9648 1.8234,-1.5806 4.062,-2.603 6.4492,-2.9466 2.3883,-0.3422 4.8238,0.02 7.0193,1.0098 2.1938,1.0016 4.0539,2.614 5.3584,4.6432 1.3038,2.0286 1.9976,4.391 1.9976,6.8036 z"
           stroke="#0000ff"
           stroke-width="0.0548255"
           id="path4767-5-0-4-6-3"
           style="fill:none;stroke:#000000;stroke-width:0.687301;stroke-linecap:round;stroke-linejoin:round;stroke-dasharray:none;stroke-opacity:1" /><path
           d="m 1905.8303,3006.4118 c 0,2.411 -0.6938,4.773 -1.9976,6.8018 -1.3043,2.0294 -3.1643,3.6416 -5.3579,4.6434 -2.1955,1.0024 -4.6308,1.3534 -7.019,1.0096 -2.3872,-0.3434 -4.6258,-1.366 -6.4492,-2.9464 -1.8227,-1.5786 -3.1547,-3.6492 -3.8341,-5.9644 -0.6797,-2.3146 -0.6797,-4.775 0,-7.0892 0.6794,-2.3158 2.0113,-4.386 3.8341,-5.9648 1.8234,-1.5806 4.0619,-2.603 6.4492,-2.9466 2.3882,-0.3422 4.8235,0.02 7.019,1.0098 2.1936,1.0016 4.0536,2.614 5.3579,4.6432 1.3038,2.0286 1.9976,4.391 1.9976,6.8036 z"
           stroke="#0000ff"
           stroke-width="0.0548255"
           id="path4767-5-0-1-0-3-7"
           style="fill:none;stroke:#000000;stroke-width:0.687301;stroke-linecap:round;stroke-linejoin:round;stroke-dasharray:none;stroke-opacity:1" /><path
           d="m 1943.6633,3006.4118 c 0,2.411 -0.6938,4.773 -1.9975,6.8018 -1.3044,2.0294 -3.1644,3.6416 -5.358,4.6434 -2.1954,1.0024 -4.6308,1.3534 -7.019,1.0096 -2.3872,-0.3434 -4.6256,-1.366 -6.449,-2.9464 -1.8226,-1.5786 -3.1544,-3.6492 -3.8339,-5.9644 -0.6797,-2.3146 -0.6797,-4.775 0,-7.0892 0.6794,-2.3158 2.0112,-4.386 3.8339,-5.9648 1.8234,-1.5806 4.0618,-2.603 6.449,-2.9466 2.3882,-0.3422 4.8236,0.02 7.019,1.0098 2.1936,1.0016 4.0536,2.614 5.358,4.6432 1.3037,2.0286 1.9975,4.391 1.9975,6.8036 z"
           stroke="#0000ff"
           stroke-width="0.0548255"
           id="path4767-5-0-1-5-0-4-1"
           style="fill:none;stroke:#000000;stroke-width:0.687301;stroke-linecap:round;stroke-linejoin:round;stroke-dasharray:none;stroke-opacity:1" /><path
           d="m 1981.4965,3006.4118 c 0,2.411 -0.6938,4.773 -1.9976,6.8018 -1.3044,2.0294 -3.1644,3.6416 -5.358,4.6434 -2.1954,1.0024 -4.6308,1.3534 -7.019,1.0096 -2.3872,-0.3434 -4.6256,-1.366 -6.449,-2.9464 -1.8226,-1.5786 -3.1544,-3.6492 -3.8338,-5.9644 -0.6798,-2.3146 -0.6798,-4.775 0,-7.0892 0.6793,-2.3158 2.0111,-4.386 3.8338,-5.9648 1.8234,-1.5806 4.0618,-2.603 6.449,-2.9466 2.3882,-0.3422 4.8236,0.02 7.019,1.0098 2.1936,1.0016 4.0536,2.614 5.358,4.6432 1.3038,2.0286 1.9976,4.391 1.9976,6.8036 z"
           stroke="#0000ff"
           stroke-width="0.0548255"
           id="path4767-5-0-1-5-1-6-0-8"
           style="fill:none;stroke:#000000;stroke-width:0.687301;stroke-linecap:round;stroke-linejoin:round;stroke-dasharray:none;stroke-opacity:1" /><path
           d="m 2019.3296,3006.4118 c 0,2.411 -0.6938,4.773 -1.9976,6.8018 -1.3044,2.0294 -3.1644,3.6416 -5.358,4.6434 -2.1954,1.0024 -4.6308,1.3534 -7.019,1.0096 -2.3872,-0.3434 -4.6256,-1.366 -6.449,-2.9464 -1.8226,-1.5786 -3.1544,-3.6492 -3.8338,-5.9644 -0.6798,-2.3146 -0.6798,-4.775 0,-7.0892 0.6794,-2.3158 2.0111,-4.386 3.8338,-5.9648 1.8234,-1.5806 4.0618,-2.603 6.449,-2.9466 2.3882,-0.3422 4.8236,0.02 7.019,1.0098 2.1936,1.0016 4.0536,2.614 5.358,4.6432 1.3038,2.0286 1.9976,4.391 1.9976,6.8036 z"
           stroke="#0000ff"
           stroke-width="0.0548255"
           id="path4767-5-0-1-5-1-5-2-6-9"
           style="fill:none;stroke:#000000;stroke-width:0.687301;stroke-linecap:round;stroke-linejoin:round;stroke-dasharray:none;stroke-opacity:1" /><path
           d="m 2057.1625,3006.4118 c 0,2.411 -0.6938,4.773 -1.9975,6.8018 -1.3044,2.0294 -3.1644,3.6416 -5.358,4.6434 -2.1954,1.0024 -4.6308,1.3534 -7.019,1.0096 -2.3872,-0.3434 -4.6256,-1.366 -6.449,-2.9464 -1.8226,-1.5786 -3.1544,-3.6492 -3.8339,-5.9644 -0.6797,-2.3146 -0.6797,-4.775 0,-7.0892 0.6794,-2.3158 2.0112,-4.386 3.8339,-5.9648 1.8234,-1.5806 4.0617,-2.603 6.449,-2.9466 2.3882,-0.3422 4.8236,0.02 7.019,1.0098 2.1936,1.0016 4.0536,2.614 5.358,4.6432 1.3037,2.0286 1.9975,4.391 1.9975,6.8036 z"
           stroke="#0000ff"
           stroke-width="0.0548255"
           id="path4767-5-0-1-5-1-5-1-4-0-3"
           style="fill:none;stroke:#000000;stroke-width:0.687301;stroke-linecap:round;stroke-linejoin:round;stroke-dasharray:none;stroke-opacity:1" /><path
           d="m 2094.9957,3006.4118 c 0,2.411 -0.6938,4.773 -1.9976,6.8018 -1.3044,2.0294 -3.1644,3.6416 -5.358,4.6434 -2.1954,1.0024 -4.6308,1.3534 -7.019,1.0096 -2.3872,-0.3434 -4.6256,-1.366 -6.449,-2.9464 -1.8226,-1.5786 -3.1544,-3.6492 -3.8339,-5.9644 -0.6797,-2.3146 -0.6797,-4.775 0,-7.0892 0.6794,-2.3158 2.0112,-4.386 3.8339,-5.9648 1.8234,-1.5806 4.0618,-2.603 6.449,-2.9466 2.3882,-0.3422 4.8236,0.02 7.019,1.0098 2.1936,1.0016 4.0536,2.614 5.358,4.6432 1.3038,2.0286 1.9976,4.391 1.9976,6.8036 z"
           stroke="#0000ff"
           stroke-width="0.0548255"
           id="path4767-5-0-1-5-1-5-11-7-4-7"
           style="fill:none;stroke:#000000;stroke-width:0.687301;stroke-linecap:round;stroke-linejoin:round;stroke-dasharray:none;stroke-opacity:1" /><path
           d="m 2132.8287,3006.4118 c 0,2.411 -0.6938,4.773 -1.9976,6.8018 -1.3044,2.0294 -3.1644,3.6416 -5.358,4.6434 -2.1954,1.0024 -4.6308,1.3534 -7.019,1.0096 -2.3872,-0.3434 -4.6256,-1.366 -6.449,-2.9464 -1.8226,-1.5786 -3.1544,-3.6492 -3.8338,-5.9644 -0.6798,-2.3146 -0.6798,-4.775 0,-7.0892 0.6794,-2.3158 2.0111,-4.386 3.8338,-5.9648 1.8234,-1.5806 4.0618,-2.603 6.449,-2.9466 2.3882,-0.3422 4.8236,0.02 7.019,1.0098 2.1936,1.0016 4.0536,2.614 5.358,4.6432 1.3038,2.0286 1.9976,4.391 1.9976,6.8036 z"
           stroke="#0000ff"
           stroke-width="0.0548255"
           id="path4767-5-0-1-5-1-5-4-4-0-4"
           style="fill:none;stroke:#000000;stroke-width:0.687301;stroke-linecap:round;stroke-linejoin:round;stroke-dasharray:none;stroke-opacity:1" /><path
           d="m 1886.913,3044.2448 c 0,2.411 -0.6938,4.773 -1.9976,6.8018 -1.3044,2.0294 -3.1645,3.6416 -5.3583,4.6434 -2.1955,1.0024 -4.6309,1.3534 -7.0191,1.0096 -2.3872,-0.3434 -4.6257,-1.366 -6.4491,-2.9464 -1.8229,-1.5786 -3.1548,-3.6492 -3.8342,-5.9644 -0.6799,-2.3146 -0.6799,-4.775 0,-7.0892 0.6794,-2.3158 2.0113,-4.386 3.8342,-5.9648 1.8234,-1.5806 4.0619,-2.603 6.4491,-2.9466 2.3882,-0.3422 4.8236,0.02 7.0191,1.0098 2.1938,1.0016 4.0539,2.614 5.3583,4.6432 1.3038,2.0286 1.9976,4.391 1.9976,6.8036 z"
           stroke="#0000ff"
           stroke-width="0.0548255"
           id="path4767-5-0-4-7"
           style="fill:none;stroke:#000000;stroke-width:0.687301;stroke-linecap:round;stroke-linejoin:round;stroke-dasharray:none;stroke-opacity:1" /><path
           d="m 1924.7461,3044.2448 c 0,2.411 -0.6938,4.773 -1.9976,6.8018 -1.3044,2.0294 -3.1644,3.6416 -5.358,4.6434 -2.1954,1.0024 -4.6308,1.3534 -7.019,1.0096 -2.3872,-0.3434 -4.6256,-1.366 -6.449,-2.9464 -1.8226,-1.5786 -3.1544,-3.6492 -3.8338,-5.9644 -0.6798,-2.3146 -0.6798,-4.775 0,-7.0892 0.6794,-2.3158 2.0112,-4.386 3.8338,-5.9648 1.8234,-1.5806 4.0618,-2.603 6.449,-2.9466 2.3882,-0.3422 4.8236,0.02 7.019,1.0098 2.1936,1.0016 4.0536,2.614 5.358,4.6432 1.3038,2.0286 1.9976,4.391 1.9976,6.8036 z"
           stroke="#0000ff"
           stroke-width="0.0548255"
           id="path4767-5-0-1-0-8"
           style="fill:none;stroke:#000000;stroke-width:0.687301;stroke-linecap:round;stroke-linejoin:round;stroke-dasharray:none;stroke-opacity:1" /><path
           d="m 1962.5791,3044.2448 c 0,2.411 -0.6938,4.773 -1.9976,6.8018 -1.3044,2.0294 -3.1644,3.6416 -5.358,4.6434 -2.1954,1.0024 -4.6308,1.3534 -7.019,1.0096 -2.3872,-0.3434 -4.6256,-1.366 -6.449,-2.9464 -1.8226,-1.5786 -3.1544,-3.6492 -3.8338,-5.9644 -0.6798,-2.3146 -0.6798,-4.775 0,-7.0892 0.6794,-2.3158 2.0112,-4.386 3.8338,-5.9648 1.8234,-1.5806 4.0618,-2.603 6.449,-2.9466 2.3882,-0.3422 4.8236,0.02 7.019,1.0098 2.1936,1.0016 4.0536,2.614 5.358,4.6432 1.3038,2.0286 1.9976,4.391 1.9976,6.8036 z"
           stroke="#0000ff"
           stroke-width="0.0548255"
           id="path4767-5-0-1-5-0-0"
           style="fill:none;stroke:#000000;stroke-width:0.687301;stroke-linecap:round;stroke-linejoin:round;stroke-dasharray:none;stroke-opacity:1" /><path
           d="m 2000.4122,3044.2448 c 0,2.411 -0.6938,4.773 -1.9976,6.8018 -1.3044,2.0294 -3.1644,3.6416 -5.358,4.6434 -2.1954,1.0024 -4.6308,1.3534 -7.019,1.0096 -2.3872,-0.3434 -4.6256,-1.366 -6.449,-2.9464 -1.8226,-1.5786 -3.1544,-3.6492 -3.8338,-5.9644 -0.6798,-2.3146 -0.6798,-4.775 0,-7.0892 0.6794,-2.3158 2.0112,-4.386 3.8338,-5.9648 1.8234,-1.5806 4.0618,-2.603 6.449,-2.9466 2.3882,-0.3422 4.8236,0.02 7.019,1.0098 2.1936,1.0016 4.0536,2.614 5.358,4.6432 1.3038,2.0286 1.9976,4.391 1.9976,6.8036 z"
           stroke="#0000ff"
           stroke-width="0.0548255"
           id="path4767-5-0-1-5-1-6-6"
           style="fill:none;stroke:#000000;stroke-width:0.687301;stroke-linecap:round;stroke-linejoin:round;stroke-dasharray:none;stroke-opacity:1" /><path
           d="m 2038.2453,3044.2448 c 0,2.411 -0.6938,4.773 -1.9976,6.8018 -1.3044,2.0294 -3.1644,3.6416 -5.358,4.6434 -2.1954,1.0024 -4.6308,1.3534 -7.019,1.0096 -2.3872,-0.3434 -4.6256,-1.366 -6.449,-2.9464 -1.8226,-1.5786 -3.1544,-3.6492 -3.8338,-5.9644 -0.6798,-2.3146 -0.6798,-4.775 0,-7.0892 0.6794,-2.3158 2.0112,-4.386 3.8338,-5.9648 1.8234,-1.5806 4.0618,-2.603 6.449,-2.9466 2.3882,-0.3422 4.8236,0.02 7.019,1.0098 2.1936,1.0016 4.0536,2.614 5.358,4.6432 1.3038,2.0286 1.9976,4.391 1.9976,6.8036 z"
           stroke="#0000ff"
           stroke-width="0.0548255"
           id="path4767-5-0-1-5-1-5-2-5"
           style="fill:none;stroke:#000000;stroke-width:0.687301;stroke-linecap:round;stroke-linejoin:round;stroke-dasharray:none;stroke-opacity:1" /><path
           d="m 2076.0783,3044.2448 c 0,2.411 -0.6938,4.773 -1.9976,6.8018 -1.3044,2.0294 -3.1644,3.6416 -5.358,4.6434 -2.1954,1.0024 -4.6308,1.3534 -7.019,1.0096 -2.3872,-0.3434 -4.6256,-1.366 -6.449,-2.9464 -1.8226,-1.5786 -3.1544,-3.6492 -3.8338,-5.9644 -0.6798,-2.3146 -0.6798,-4.775 0,-7.0892 0.6794,-2.3158 2.0112,-4.386 3.8338,-5.9648 1.8234,-1.5806 4.0618,-2.603 6.449,-2.9466 2.3882,-0.3422 4.8236,0.02 7.019,1.0098 2.1936,1.0016 4.0536,2.614 5.358,4.6432 1.3038,2.0286 1.9976,4.391 1.9976,6.8036 z"
           stroke="#0000ff"
           stroke-width="0.0548255"
           id="path4767-5-0-1-5-1-5-1-4-7"
           style="fill:none;stroke:#000000;stroke-width:0.687301;stroke-linecap:round;stroke-linejoin:round;stroke-dasharray:none;stroke-opacity:1" /><path
           d="m 2113.9114,3044.2448 c 0,2.411 -0.6938,4.773 -1.9976,6.8018 -1.3044,2.0294 -3.1644,3.6416 -5.358,4.6434 -2.1954,1.0024 -4.6308,1.3534 -7.019,1.0096 -2.3872,-0.3434 -4.6256,-1.366 -6.449,-2.9464 -1.8226,-1.5786 -3.1544,-3.6492 -3.8338,-5.9644 -0.6798,-2.3146 -0.6798,-4.775 0,-7.0892 0.6794,-2.3158 2.0112,-4.386 3.8338,-5.9648 1.8234,-1.5806 4.0618,-2.603 6.449,-2.9466 2.3882,-0.3422 4.8236,0.02 7.019,1.0098 2.1936,1.0016 4.0536,2.614 5.358,4.6432 1.3038,2.0286 1.9976,4.391 1.9976,6.8036 z"
           stroke="#0000ff"
           stroke-width="0.0548255"
           id="path4767-5-0-1-5-1-5-11-7-3"
           style="fill:none;stroke:#000000;stroke-width:0.687301;stroke-linecap:round;stroke-linejoin:round;stroke-dasharray:none;stroke-opacity:1" /><path
           d="m 2151.7444,3044.2448 c 0,2.411 -0.6938,4.773 -1.9976,6.8018 -1.3044,2.0294 -3.1644,3.6416 -5.358,4.6434 -2.1954,1.0024 -4.6308,1.3534 -7.019,1.0096 -2.3872,-0.3434 -4.6256,-1.366 -6.449,-2.9464 -1.8226,-1.5786 -3.1544,-3.6492 -3.8338,-5.9644 -0.6798,-2.3146 -0.6798,-4.775 0,-7.0892 0.6794,-2.3158 2.0112,-4.386 3.8338,-5.9648 1.8234,-1.5806 4.0618,-2.603 6.449,-2.9466 2.3882,-0.3422 4.8236,0.02 7.019,1.0098 2.1936,1.0016 4.0536,2.614 5.358,4.6432 1.3038,2.0286 1.9976,4.391 1.9976,6.8036 z"
           stroke="#0000ff"
           stroke-width="0.0548255"
           id="path4767-5-0-1-5-1-5-4-4-4"
           style="fill:none;stroke:#000000;stroke-width:0.687301;stroke-linecap:round;stroke-linejoin:round;stroke-dasharray:none;stroke-opacity:1" /><path
           d="m 1867.9965,3082.0779 c 0,2.411 -0.6938,4.773 -1.9976,6.8018 -1.3046,2.0294 -3.1649,3.6416 -5.3588,4.6434 -2.1955,1.0024 -4.6309,1.3534 -7.0191,1.0096 -2.3873,-0.3434 -4.6258,-1.366 -6.4492,-2.9464 -1.8227,-1.5786 -3.1545,-3.6492 -3.8339,-5.9644 -0.6798,-2.3146 -0.6798,-4.775 0,-7.0892 0.6794,-2.3158 2.0112,-4.386 3.8339,-5.9648 1.8234,-1.5806 4.0619,-2.603 6.4492,-2.9466 2.3882,-0.3422 4.8236,0.02 7.0191,1.0098 2.1939,1.0016 4.0542,2.614 5.3588,4.6432 1.3038,2.0286 1.9976,4.391 1.9976,6.8036 z"
           stroke="#0000ff"
           stroke-width="0.0548255"
           id="path4767-5-0-4-6-30"
           style="fill:none;stroke:#000000;stroke-width:0.687301;stroke-linecap:round;stroke-linejoin:round;stroke-dasharray:none;stroke-opacity:1" /><path
           d="m 1905.8302,3082.0779 c 0,2.411 -0.6938,4.773 -1.9976,6.8018 -1.3044,2.0294 -3.1644,3.6416 -5.358,4.6434 -2.1954,1.0024 -4.6308,1.3534 -7.019,1.0096 -2.3872,-0.3434 -4.6257,-1.366 -6.4492,-2.9464 -1.8227,-1.5786 -3.1546,-3.6492 -3.834,-5.9644 -0.6798,-2.3146 -0.6798,-4.775 0,-7.0892 0.6794,-2.3158 2.0113,-4.386 3.834,-5.9648 1.8235,-1.5806 4.062,-2.603 6.4492,-2.9466 2.3882,-0.3422 4.8236,0.02 7.019,1.0098 2.1936,1.0016 4.0536,2.614 5.358,4.6432 1.3038,2.0286 1.9976,4.391 1.9976,6.8036 z"
           stroke="#0000ff"
           stroke-width="0.0548255"
           id="path4767-5-0-1-0-3-4"
           style="fill:none;stroke:#000000;stroke-width:0.687301;stroke-linecap:round;stroke-linejoin:round;stroke-dasharray:none;stroke-opacity:1" /><path
           d="m 1943.6632,3082.0779 c 0,2.411 -0.6938,4.773 -1.9976,6.8018 -1.3044,2.0294 -3.1644,3.6416 -5.358,4.6434 -2.1954,1.0024 -4.6308,1.3534 -7.019,1.0096 -2.3872,-0.3434 -4.6256,-1.366 -6.449,-2.9464 -1.8226,-1.5786 -3.1544,-3.6492 -3.8338,-5.9644 -0.6798,-2.3146 -0.6798,-4.775 0,-7.0892 0.6794,-2.3158 2.0112,-4.386 3.8338,-5.9648 1.8234,-1.5806 4.0618,-2.603 6.449,-2.9466 2.3882,-0.3422 4.8236,0.02 7.019,1.0098 2.1936,1.0016 4.0536,2.614 5.358,4.6432 1.3038,2.0286 1.9976,4.391 1.9976,6.8036 z"
           stroke="#0000ff"
           stroke-width="0.0548255"
           id="path4767-5-0-1-5-0-4-8"
           style="fill:none;stroke:#000000;stroke-width:0.687301;stroke-linecap:round;stroke-linejoin:round;stroke-dasharray:none;stroke-opacity:1" /><path
           d="m 1981.4963,3082.0779 c 0,2.411 -0.6938,4.773 -1.9976,6.8018 -1.3044,2.0294 -3.1644,3.6416 -5.358,4.6434 -2.1954,1.0024 -4.6308,1.3534 -7.019,1.0096 -2.3872,-0.3434 -4.6256,-1.366 -6.449,-2.9464 -1.8226,-1.5786 -3.1544,-3.6492 -3.8338,-5.9644 -0.6798,-2.3146 -0.6798,-4.775 0,-7.0892 0.6794,-2.3158 2.0112,-4.386 3.8338,-5.9648 1.8234,-1.5806 4.0618,-2.603 6.449,-2.9466 2.3882,-0.3422 4.8236,0.02 7.019,1.0098 2.1936,1.0016 4.0536,2.614 5.358,4.6432 1.3038,2.0286 1.9976,4.391 1.9976,6.8036 z"
           stroke="#0000ff"
           stroke-width="0.0548255"
           id="path4767-5-0-1-5-1-6-0-7"
           style="fill:none;stroke:#000000;stroke-width:0.687301;stroke-linecap:round;stroke-linejoin:round;stroke-dasharray:none;stroke-opacity:1" /><path
           d="m 2019.3294,3082.0779 c 0,2.411 -0.6938,4.773 -1.9976,6.8018 -1.3044,2.0294 -3.1644,3.6416 -5.358,4.6434 -2.1954,1.0024 -4.6308,1.3534 -7.019,1.0096 -2.3872,-0.3434 -4.6256,-1.366 -6.449,-2.9464 -1.8226,-1.5786 -3.1544,-3.6492 -3.8338,-5.9644 -0.6798,-2.3146 -0.6798,-4.775 0,-7.0892 0.6794,-2.3158 2.0112,-4.386 3.8338,-5.9648 1.8234,-1.5806 4.0618,-2.603 6.449,-2.9466 2.3882,-0.3422 4.8236,0.02 7.019,1.0098 2.1936,1.0016 4.0536,2.614 5.358,4.6432 1.3038,2.0286 1.9976,4.391 1.9976,6.8036 z"
           stroke="#0000ff"
           stroke-width="0.0548255"
           id="path4767-5-0-1-5-1-5-2-6-5"
           style="fill:none;stroke:#000000;stroke-width:0.687301;stroke-linecap:round;stroke-linejoin:round;stroke-dasharray:none;stroke-opacity:1" /><path
           d="m 2057.1624,3082.0779 c 0,2.411 -0.6938,4.773 -1.9976,6.8018 -1.3044,2.0294 -3.1644,3.6416 -5.358,4.6434 -2.1954,1.0024 -4.6308,1.3534 -7.019,1.0096 -2.3872,-0.3434 -4.6256,-1.366 -6.449,-2.9464 -1.8226,-1.5786 -3.1544,-3.6492 -3.8338,-5.9644 -0.6798,-2.3146 -0.6798,-4.775 0,-7.0892 0.6794,-2.3158 2.0112,-4.386 3.8338,-5.9648 1.8234,-1.5806 4.0618,-2.603 6.449,-2.9466 2.3882,-0.3422 4.8236,0.02 7.019,1.0098 2.1936,1.0016 4.0536,2.614 5.358,4.6432 1.3038,2.0286 1.9976,4.391 1.9976,6.8036 z"
           stroke="#0000ff"
           stroke-width="0.0548255"
           id="path4767-5-0-1-5-1-5-1-4-0-9"
           style="fill:none;stroke:#000000;stroke-width:0.687301;stroke-linecap:round;stroke-linejoin:round;stroke-dasharray:none;stroke-opacity:1" /><path
           d="m 2094.9955,3082.0779 c 0,2.411 -0.6938,4.773 -1.9976,6.8018 -1.3044,2.0294 -3.1644,3.6416 -5.358,4.6434 -2.1954,1.0024 -4.6308,1.3534 -7.019,1.0096 -2.3872,-0.3434 -4.6256,-1.366 -6.449,-2.9464 -1.8226,-1.5786 -3.1544,-3.6492 -3.8338,-5.9644 -0.6798,-2.3146 -0.6798,-4.775 0,-7.0892 0.6794,-2.3158 2.0112,-4.386 3.8338,-5.9648 1.8234,-1.5806 4.0618,-2.603 6.449,-2.9466 2.3882,-0.3422 4.8236,0.02 7.019,1.0098 2.1936,1.0016 4.0536,2.614 5.358,4.6432 1.3038,2.0286 1.9976,4.391 1.9976,6.8036 z"
           stroke="#0000ff"
           stroke-width="0.0548255"
           id="path4767-5-0-1-5-1-5-11-7-4-5"
           style="fill:none;stroke:#000000;stroke-width:0.687301;stroke-linecap:round;stroke-linejoin:round;stroke-dasharray:none;stroke-opacity:1" /><path
           d="m 2132.8285,3082.0779 c 0,2.411 -0.6938,4.773 -1.9976,6.8018 -1.3044,2.0294 -3.1644,3.6416 -5.358,4.6434 -2.1954,1.0024 -4.6308,1.3534 -7.019,1.0096 -2.3872,-0.3434 -4.6256,-1.366 -6.449,-2.9464 -1.8226,-1.5786 -3.1544,-3.6492 -3.8338,-5.9644 -0.6798,-2.3146 -0.6798,-4.775 0,-7.0892 0.6794,-2.3158 2.0112,-4.386 3.8338,-5.9648 1.8234,-1.5806 4.0618,-2.603 6.449,-2.9466 2.3882,-0.3422 4.8236,0.02 7.019,1.0098 2.1936,1.0016 4.0536,2.614 5.358,4.6432 1.3038,2.0286 1.9976,4.391 1.9976,6.8036 z"
           stroke="#0000ff"
           stroke-width="0.0548255"
           id="path4767-5-0-1-5-1-5-4-4-0-3"
           style="fill:none;stroke:#000000;stroke-width:0.687301;stroke-linecap:round;stroke-linejoin:round;stroke-dasharray:none;stroke-opacity:1" /><path
           d="m 1886.9137,3119.9109 c 0,2.411 -0.6938,4.773 -1.9976,6.8018 -1.3044,2.0294 -3.1645,3.6416 -5.3583,4.6434 -2.1956,1.0024 -4.631,1.3534 -7.0191,1.0096 -2.3874,-0.3434 -4.6261,-1.366 -6.4495,-2.9464 -1.8229,-1.5786 -3.1548,-3.6492 -3.8342,-5.9644 -0.6799,-2.3146 -0.6799,-4.775 0,-7.0892 0.6794,-2.3158 2.0113,-4.386 3.8342,-5.9648 1.8234,-1.5806 4.0621,-2.603 6.4495,-2.9466 2.3882,-0.3422 4.8235,0.02 7.0191,1.0098 2.1938,1.0016 4.0539,2.614 5.3583,4.6432 1.3038,2.0286 1.9976,4.391 1.9976,6.8036 z"
           stroke="#0000ff"
           stroke-width="0.0548255"
           id="path4767-5-0-4-8-2"
           style="fill:none;stroke:#000000;stroke-width:0.687301;stroke-linecap:round;stroke-linejoin:round;stroke-dasharray:none;stroke-opacity:1" /><path
           d="m 1924.7468,3119.9109 c 0,2.411 -0.6938,4.773 -1.9976,6.8018 -1.3044,2.0294 -3.1644,3.6416 -5.358,4.6434 -2.1954,1.0024 -4.6308,1.3534 -7.019,1.0096 -2.3872,-0.3434 -4.6256,-1.366 -6.449,-2.9464 -1.8226,-1.5786 -3.1544,-3.6492 -3.8338,-5.9644 -0.6798,-2.3146 -0.6798,-4.775 0,-7.0892 0.6794,-2.3158 2.0111,-4.386 3.8338,-5.9648 1.8234,-1.5806 4.0618,-2.603 6.449,-2.9466 2.3882,-0.3422 4.8236,0.02 7.019,1.0098 2.1936,1.0016 4.0536,2.614 5.358,4.6432 1.3038,2.0286 1.9976,4.391 1.9976,6.8036 z"
           stroke="#0000ff"
           stroke-width="0.0548255"
           id="path4767-5-0-1-0-4-7"
           style="fill:none;stroke:#000000;stroke-width:0.687301;stroke-linecap:round;stroke-linejoin:round;stroke-dasharray:none;stroke-opacity:1" /><path
           d="m 1962.5797,3119.9109 c 0,2.411 -0.6938,4.773 -1.9975,6.8018 -1.3044,2.0294 -3.1644,3.6416 -5.358,4.6434 -2.1954,1.0024 -4.6308,1.3534 -7.019,1.0096 -2.3872,-0.3434 -4.6256,-1.366 -6.449,-2.9464 -1.8226,-1.5786 -3.1544,-3.6492 -3.8339,-5.9644 -0.6797,-2.3146 -0.6797,-4.775 0,-7.0892 0.6794,-2.3158 2.0112,-4.386 3.8339,-5.9648 1.8234,-1.5806 4.0617,-2.603 6.449,-2.9466 2.3882,-0.3422 4.8236,0.02 7.019,1.0098 2.1936,1.0016 4.0536,2.614 5.358,4.6432 1.3037,2.0286 1.9975,4.391 1.9975,6.8036 z"
           stroke="#0000ff"
           stroke-width="0.0548255"
           id="path4767-5-0-1-5-0-9-3"
           style="fill:none;stroke:#000000;stroke-width:0.687301;stroke-linecap:round;stroke-linejoin:round;stroke-dasharray:none;stroke-opacity:1" /><path
           d="m 2000.4129,3119.9109 c 0,2.411 -0.6938,4.773 -1.9976,6.8018 -1.3044,2.0294 -3.1644,3.6416 -5.358,4.6434 -2.1954,1.0024 -4.6308,1.3534 -7.019,1.0096 -2.3872,-0.3434 -4.6256,-1.366 -6.449,-2.9464 -1.8226,-1.5786 -3.1544,-3.6492 -3.8339,-5.9644 -0.6797,-2.3146 -0.6797,-4.775 0,-7.0892 0.6794,-2.3158 2.0112,-4.386 3.8339,-5.9648 1.8234,-1.5806 4.0618,-2.603 6.449,-2.9466 2.3882,-0.3422 4.8236,0.02 7.019,1.0098 2.1936,1.0016 4.0536,2.614 5.358,4.6432 1.3038,2.0286 1.9976,4.391 1.9976,6.8036 z"
           stroke="#0000ff"
           stroke-width="0.0548255"
           id="path4767-5-0-1-5-1-6-7-9"
           style="fill:none;stroke:#000000;stroke-width:0.687301;stroke-linecap:round;stroke-linejoin:round;stroke-dasharray:none;stroke-opacity:1" /><path
           d="m 2038.246,3119.9109 c 0,2.411 -0.6938,4.773 -1.9976,6.8018 -1.3044,2.0294 -3.1644,3.6416 -5.358,4.6434 -2.1954,1.0024 -4.6308,1.3534 -7.019,1.0096 -2.3872,-0.3434 -4.6256,-1.366 -6.449,-2.9464 -1.8226,-1.5786 -3.1544,-3.6492 -3.8338,-5.9644 -0.6798,-2.3146 -0.6798,-4.775 0,-7.0892 0.6794,-2.3158 2.0111,-4.386 3.8338,-5.9648 1.8234,-1.5806 4.0618,-2.603 6.449,-2.9466 2.3882,-0.3422 4.8236,0.02 7.019,1.0098 2.1936,1.0016 4.0536,2.614 5.358,4.6432 1.3038,2.0286 1.9976,4.391 1.9976,6.8036 z"
           stroke="#0000ff"
           stroke-width="0.0548255"
           id="path4767-5-0-1-5-1-5-2-3-7"
           style="fill:none;stroke:#000000;stroke-width:0.687301;stroke-linecap:round;stroke-linejoin:round;stroke-dasharray:none;stroke-opacity:1" /><path
           d="m 2076.0789,3119.9109 c 0,2.411 -0.6938,4.773 -1.9975,6.8018 -1.3044,2.0294 -3.1644,3.6416 -5.358,4.6434 -2.1954,1.0024 -4.6308,1.3534 -7.019,1.0096 -2.3872,-0.3434 -4.6257,-1.366 -6.4491,-2.9464 -1.8225,-1.5786 -3.1543,-3.6492 -3.8338,-5.9644 -0.6798,-2.3146 -0.6798,-4.775 0,-7.0892 0.6794,-2.3158 2.0112,-4.386 3.8338,-5.9648 1.8234,-1.5806 4.0618,-2.603 6.4491,-2.9466 2.3882,-0.3422 4.8236,0.02 7.019,1.0098 2.1936,1.0016 4.0536,2.614 5.358,4.6432 1.3037,2.0286 1.9975,4.391 1.9975,6.8036 z"
           stroke="#0000ff"
           stroke-width="0.0548255"
           id="path4767-5-0-1-5-1-5-1-4-1-7"
           style="fill:none;stroke:#000000;stroke-width:0.687301;stroke-linecap:round;stroke-linejoin:round;stroke-dasharray:none;stroke-opacity:1" /><path
           d="m 2113.912,3119.9109 c 0,2.411 -0.6938,4.773 -1.9975,6.8018 -1.3044,2.0294 -3.1644,3.6416 -5.358,4.6434 -2.1954,1.0024 -4.6308,1.3534 -7.019,1.0096 -2.3872,-0.3434 -4.6256,-1.366 -6.449,-2.9464 -1.8226,-1.5786 -3.1544,-3.6492 -3.8339,-5.9644 -0.6797,-2.3146 -0.6797,-4.775 0,-7.0892 0.6794,-2.3158 2.0112,-4.386 3.8339,-5.9648 1.8234,-1.5806 4.0617,-2.603 6.449,-2.9466 2.3882,-0.3422 4.8236,0.02 7.019,1.0098 2.1936,1.0016 4.0536,2.614 5.358,4.6432 1.3037,2.0286 1.9975,4.391 1.9975,6.8036 z"
           stroke="#0000ff"
           stroke-width="0.0548255"
           id="path4767-5-0-1-5-1-5-11-7-0-9"
           style="fill:none;stroke:#000000;stroke-width:0.687301;stroke-linecap:round;stroke-linejoin:round;stroke-dasharray:none;stroke-opacity:1" /><path
           d="m 2151.7451,3119.9109 c 0,2.411 -0.6938,4.773 -1.9976,6.8018 -1.3044,2.0294 -3.1644,3.6416 -5.358,4.6434 -2.1954,1.0024 -4.6308,1.3534 -7.019,1.0096 -2.3872,-0.3434 -4.6256,-1.366 -6.449,-2.9464 -1.8226,-1.5786 -3.1544,-3.6492 -3.8338,-5.9644 -0.6798,-2.3146 -0.6798,-4.775 0,-7.0892 0.6794,-2.3158 2.0111,-4.386 3.8338,-5.9648 1.8234,-1.5806 4.0618,-2.603 6.449,-2.9466 2.3882,-0.3422 4.8236,0.02 7.019,1.0098 2.1936,1.0016 4.0536,2.614 5.358,4.6432 1.3038,2.0286 1.9976,4.391 1.9976,6.8036 z"
           stroke="#0000ff"
           stroke-width="0.0548255"
           id="path4767-5-0-1-5-1-5-4-4-2-5"
           style="fill:none;stroke:#000000;stroke-width:0.687301;stroke-linecap:round;stroke-linejoin:round;stroke-dasharray:none;stroke-opacity:1" /><path
           d="m 1886.9132,3195.5771 c 0,2.411 -0.6938,4.773 -1.9976,6.8018 -1.3044,2.0294 -3.1645,3.6416 -5.3583,4.6434 -2.1956,1.0024 -4.631,1.3534 -7.0191,1.0096 -2.3874,-0.3434 -4.6261,-1.366 -6.4495,-2.9464 -1.8229,-1.5786 -3.1548,-3.6492 -3.8342,-5.9644 -0.6799,-2.3146 -0.6799,-4.775 0,-7.0892 0.6794,-2.3158 2.0113,-4.386 3.8342,-5.9648 1.8234,-1.5806 4.0621,-2.603 6.4495,-2.9466 2.3882,-0.3422 4.8235,0.02 7.0191,1.0098 2.1938,1.0016 4.0539,2.614 5.3583,4.6432 1.3038,2.0286 1.9976,4.391 1.9976,6.8036 z"
           stroke="#0000ff"
           stroke-width="0.0548255"
           id="path4767-5-0-4-8-2-0"
           style="fill:none;stroke:#000000;stroke-width:0.687301;stroke-linecap:round;stroke-linejoin:round;stroke-dasharray:none;stroke-opacity:1" /><path
           d="m 1924.7463,3195.5771 c 0,2.411 -0.6938,4.773 -1.9976,6.8018 -1.3044,2.0294 -3.1644,3.6416 -5.358,4.6434 -2.1954,1.0024 -4.6308,1.3534 -7.019,1.0096 -2.3872,-0.3434 -4.6256,-1.366 -6.449,-2.9464 -1.8226,-1.5786 -3.1544,-3.6492 -3.8338,-5.9644 -0.6798,-2.3146 -0.6798,-4.775 0,-7.0892 0.6794,-2.3158 2.0111,-4.386 3.8338,-5.9648 1.8234,-1.5806 4.0618,-2.603 6.449,-2.9466 2.3882,-0.3422 4.8236,0.02 7.019,1.0098 2.1936,1.0016 4.0536,2.614 5.358,4.6432 1.3038,2.0286 1.9976,4.391 1.9976,6.8036 z"
           stroke="#0000ff"
           stroke-width="0.0548255"
           id="path4767-5-0-1-0-4-7-4"
           style="fill:none;stroke:#000000;stroke-width:0.687301;stroke-linecap:round;stroke-linejoin:round;stroke-dasharray:none;stroke-opacity:1" /><path
           d="m 1962.5792,3195.5771 c 0,2.411 -0.6938,4.773 -1.9975,6.8018 -1.3044,2.0294 -3.1644,3.6416 -5.358,4.6434 -2.1954,1.0024 -4.6308,1.3534 -7.019,1.0096 -2.3872,-0.3434 -4.6256,-1.366 -6.449,-2.9464 -1.8226,-1.5786 -3.1544,-3.6492 -3.8339,-5.9644 -0.6797,-2.3146 -0.6797,-4.775 0,-7.0892 0.6794,-2.3158 2.0112,-4.386 3.8339,-5.9648 1.8234,-1.5806 4.0617,-2.603 6.449,-2.9466 2.3882,-0.3422 4.8236,0.02 7.019,1.0098 2.1936,1.0016 4.0536,2.614 5.358,4.6432 1.3037,2.0286 1.9975,4.391 1.9975,6.8036 z"
           stroke="#0000ff"
           stroke-width="0.0548255"
           id="path4767-5-0-1-5-0-9-3-0"
           style="fill:none;stroke:#000000;stroke-width:0.687301;stroke-linecap:round;stroke-linejoin:round;stroke-dasharray:none;stroke-opacity:1" /><path
           d="m 2000.4124,3195.5771 c 0,2.411 -0.6938,4.773 -1.9976,6.8018 -1.3044,2.0294 -3.1644,3.6416 -5.358,4.6434 -2.1954,1.0024 -4.6308,1.3534 -7.019,1.0096 -2.3872,-0.3434 -4.6256,-1.366 -6.449,-2.9464 -1.8226,-1.5786 -3.1544,-3.6492 -3.8339,-5.9644 -0.6797,-2.3146 -0.6797,-4.775 0,-7.0892 0.6794,-2.3158 2.0112,-4.386 3.8339,-5.9648 1.8234,-1.5806 4.0618,-2.603 6.449,-2.9466 2.3882,-0.3422 4.8236,0.02 7.019,1.0098 2.1936,1.0016 4.0536,2.614 5.358,4.6432 1.3038,2.0286 1.9976,4.391 1.9976,6.8036 z"
           stroke="#0000ff"
           stroke-width="0.0548255"
           id="path4767-5-0-1-5-1-6-7-9-9"
           style="fill:none;stroke:#000000;stroke-width:0.687301;stroke-linecap:round;stroke-linejoin:round;stroke-dasharray:none;stroke-opacity:1" /><path
           d="m 2038.2455,3195.5771 c 0,2.411 -0.6938,4.773 -1.9976,6.8018 -1.3044,2.0294 -3.1644,3.6416 -5.358,4.6434 -2.1954,1.0024 -4.6308,1.3534 -7.019,1.0096 -2.3872,-0.3434 -4.6256,-1.366 -6.449,-2.9464 -1.8226,-1.5786 -3.1544,-3.6492 -3.8338,-5.9644 -0.6798,-2.3146 -0.6798,-4.775 0,-7.0892 0.6794,-2.3158 2.0111,-4.386 3.8338,-5.9648 1.8234,-1.5806 4.0618,-2.603 6.449,-2.9466 2.3882,-0.3422 4.8236,0.02 7.019,1.0098 2.1936,1.0016 4.0536,2.614 5.358,4.6432 1.3038,2.0286 1.9976,4.391 1.9976,6.8036 z"
           stroke="#0000ff"
           stroke-width="0.0548255"
           id="path4767-5-0-1-5-1-5-2-3-7-2"
           style="fill:none;stroke:#000000;stroke-width:0.687301;stroke-linecap:round;stroke-linejoin:round;stroke-dasharray:none;stroke-opacity:1" /><path
           d="m 2076.0784,3195.5771 c 0,2.411 -0.6938,4.773 -1.9975,6.8018 -1.3044,2.0294 -3.1644,3.6416 -5.358,4.6434 -2.1954,1.0024 -4.6308,1.3534 -7.019,1.0096 -2.3872,-0.3434 -4.6257,-1.366 -6.4491,-2.9464 -1.8225,-1.5786 -3.1543,-3.6492 -3.8338,-5.9644 -0.6798,-2.3146 -0.6798,-4.775 0,-7.0892 0.6794,-2.3158 2.0112,-4.386 3.8338,-5.9648 1.8234,-1.5806 4.0618,-2.603 6.4491,-2.9466 2.3882,-0.3422 4.8236,0.02 7.019,1.0098 2.1936,1.0016 4.0536,2.614 5.358,4.6432 1.3037,2.0286 1.9975,4.391 1.9975,6.8036 z"
           stroke="#0000ff"
           stroke-width="0.0548255"
           id="path4767-5-0-1-5-1-5-1-4-1-7-4"
           style="fill:none;stroke:#000000;stroke-width:0.687301;stroke-linecap:round;stroke-linejoin:round;stroke-dasharray:none;stroke-opacity:1" /><path
           d="m 2113.9115,3195.5771 c 0,2.411 -0.6938,4.773 -1.9975,6.8018 -1.3044,2.0294 -3.1644,3.6416 -5.358,4.6434 -2.1954,1.0024 -4.6308,1.3534 -7.019,1.0096 -2.3872,-0.3434 -4.6256,-1.366 -6.449,-2.9464 -1.8226,-1.5786 -3.1544,-3.6492 -3.8339,-5.9644 -0.6797,-2.3146 -0.6797,-4.775 0,-7.0892 0.6794,-2.3158 2.0112,-4.386 3.8339,-5.9648 1.8234,-1.5806 4.0617,-2.603 6.449,-2.9466 2.3882,-0.3422 4.8236,0.02 7.019,1.0098 2.1936,1.0016 4.0536,2.614 5.358,4.6432 1.3037,2.0286 1.9975,4.391 1.9975,6.8036 z"
           stroke="#0000ff"
           stroke-width="0.0548255"
           id="path4767-5-0-1-5-1-5-11-7-0-9-9"
           style="fill:none;stroke:#000000;stroke-width:0.687301;stroke-linecap:round;stroke-linejoin:round;stroke-dasharray:none;stroke-opacity:1" /><path
           d="m 2151.7446,3195.5771 c 0,2.411 -0.6938,4.773 -1.9976,6.8018 -1.3044,2.0294 -3.1644,3.6416 -5.358,4.6434 -2.1954,1.0024 -4.6308,1.3534 -7.019,1.0096 -2.3872,-0.3434 -4.6256,-1.366 -6.449,-2.9464 -1.8226,-1.5786 -3.1544,-3.6492 -3.8338,-5.9644 -0.6798,-2.3146 -0.6798,-4.775 0,-7.0892 0.6794,-2.3158 2.0111,-4.386 3.8338,-5.9648 1.8234,-1.5806 4.0618,-2.603 6.449,-2.9466 2.3882,-0.3422 4.8236,0.02 7.019,1.0098 2.1936,1.0016 4.0536,2.614 5.358,4.6432 1.3038,2.0286 1.9976,4.391 1.9976,6.8036 z"
           stroke="#0000ff"
           stroke-width="0.0548255"
           id="path4767-5-0-1-5-1-5-4-4-2-5-2"
           style="fill:none;stroke:#000000;stroke-width:0.687301;stroke-linecap:round;stroke-linejoin:round;stroke-dasharray:none;stroke-opacity:1" /><path
           d="m 1867.9968,3157.744 c 0,2.411 -0.6938,4.773 -1.9976,6.8018 -1.3046,2.0294 -3.1649,3.6416 -5.3588,4.6434 -2.1955,1.0024 -4.631,1.3534 -7.0193,1.0096 -2.3873,-0.3434 -4.6259,-1.366 -6.4493,-2.9464 -1.8227,-1.5786 -3.1545,-3.6492 -3.8339,-5.9644 -0.6798,-2.3146 -0.6798,-4.775 0,-7.0892 0.6794,-2.3158 2.0112,-4.386 3.8339,-5.9648 1.8234,-1.5806 4.062,-2.603 6.4493,-2.9466 2.3883,-0.3422 4.8238,0.02 7.0193,1.0098 2.1939,1.0016 4.0542,2.614 5.3588,4.6432 1.3038,2.0286 1.9976,4.391 1.9976,6.8036 z"
           stroke="#0000ff"
           stroke-width="0.0548255"
           id="path4767-5-0-4-6-3-3"
           style="fill:none;stroke:#000000;stroke-width:0.687301;stroke-linecap:round;stroke-linejoin:round;stroke-dasharray:none;stroke-opacity:1" /><path
           d="m 1905.8308,3157.744 c 0,2.411 -0.6938,4.773 -1.9976,6.8018 -1.3043,2.0294 -3.1643,3.6416 -5.3579,4.6434 -2.1955,1.0024 -4.6308,1.3534 -7.019,1.0096 -2.3872,-0.3434 -4.6258,-1.366 -6.4492,-2.9464 -1.8227,-1.5786 -3.1547,-3.6492 -3.8341,-5.9644 -0.6797,-2.3146 -0.6797,-4.775 0,-7.0892 0.6794,-2.3158 2.0113,-4.386 3.8341,-5.9648 1.8234,-1.5806 4.0619,-2.603 6.4492,-2.9466 2.3882,-0.3422 4.8235,0.02 7.019,1.0098 2.1936,1.0016 4.0536,2.614 5.3579,4.6432 1.3038,2.0286 1.9976,4.391 1.9976,6.8036 z"
           stroke="#0000ff"
           stroke-width="0.0548255"
           id="path4767-5-0-1-0-3-7-3"
           style="fill:none;stroke:#000000;stroke-width:0.687301;stroke-linecap:round;stroke-linejoin:round;stroke-dasharray:none;stroke-opacity:1" /><path
           d="m 1943.6638,3157.744 c 0,2.411 -0.6938,4.773 -1.9975,6.8018 -1.3044,2.0294 -3.1644,3.6416 -5.358,4.6434 -2.1954,1.0024 -4.6308,1.3534 -7.019,1.0096 -2.3872,-0.3434 -4.6256,-1.366 -6.449,-2.9464 -1.8226,-1.5786 -3.1544,-3.6492 -3.8339,-5.9644 -0.6797,-2.3146 -0.6797,-4.775 0,-7.0892 0.6794,-2.3158 2.0112,-4.386 3.8339,-5.9648 1.8234,-1.5806 4.0618,-2.603 6.449,-2.9466 2.3882,-0.3422 4.8236,0.02 7.019,1.0098 2.1936,1.0016 4.0536,2.614 5.358,4.6432 1.3037,2.0286 1.9975,4.391 1.9975,6.8036 z"
           stroke="#0000ff"
           stroke-width="0.0548255"
           id="path4767-5-0-1-5-0-4-1-3"
           style="fill:none;stroke:#000000;stroke-width:0.687301;stroke-linecap:round;stroke-linejoin:round;stroke-dasharray:none;stroke-opacity:1" /><path
           d="m 1981.497,3157.744 c 0,2.411 -0.6938,4.773 -1.9976,6.8018 -1.3044,2.0294 -3.1644,3.6416 -5.358,4.6434 -2.1954,1.0024 -4.6308,1.3534 -7.019,1.0096 -2.3872,-0.3434 -4.6256,-1.366 -6.449,-2.9464 -1.8226,-1.5786 -3.1544,-3.6492 -3.8338,-5.9644 -0.6798,-2.3146 -0.6798,-4.775 0,-7.0892 0.6793,-2.3158 2.0111,-4.386 3.8338,-5.9648 1.8234,-1.5806 4.0618,-2.603 6.449,-2.9466 2.3882,-0.3422 4.8236,0.02 7.019,1.0098 2.1936,1.0016 4.0536,2.614 5.358,4.6432 1.3038,2.0286 1.9976,4.391 1.9976,6.8036 z"
           stroke="#0000ff"
           stroke-width="0.0548255"
           id="path4767-5-0-1-5-1-6-0-8-8"
           style="fill:none;stroke:#000000;stroke-width:0.687301;stroke-linecap:round;stroke-linejoin:round;stroke-dasharray:none;stroke-opacity:1" /><path
           d="m 2019.3301,3157.744 c 0,2.411 -0.6938,4.773 -1.9976,6.8018 -1.3044,2.0294 -3.1644,3.6416 -5.358,4.6434 -2.1954,1.0024 -4.6308,1.3534 -7.019,1.0096 -2.3872,-0.3434 -4.6256,-1.366 -6.449,-2.9464 -1.8226,-1.5786 -3.1544,-3.6492 -3.8338,-5.9644 -0.6798,-2.3146 -0.6798,-4.775 0,-7.0892 0.6794,-2.3158 2.0111,-4.386 3.8338,-5.9648 1.8234,-1.5806 4.0618,-2.603 6.449,-2.9466 2.3882,-0.3422 4.8236,0.02 7.019,1.0098 2.1936,1.0016 4.0536,2.614 5.358,4.6432 1.3038,2.0286 1.9976,4.391 1.9976,6.8036 z"
           stroke="#0000ff"
           stroke-width="0.0548255"
           id="path4767-5-0-1-5-1-5-2-6-9-5"
           style="fill:none;stroke:#000000;stroke-width:0.687301;stroke-linecap:round;stroke-linejoin:round;stroke-dasharray:none;stroke-opacity:1" /><path
           d="m 2057.163,3157.744 c 0,2.411 -0.6938,4.773 -1.9975,6.8018 -1.3044,2.0294 -3.1644,3.6416 -5.358,4.6434 -2.1954,1.0024 -4.6308,1.3534 -7.019,1.0096 -2.3872,-0.3434 -4.6256,-1.366 -6.449,-2.9464 -1.8226,-1.5786 -3.1544,-3.6492 -3.8339,-5.9644 -0.6797,-2.3146 -0.6797,-4.775 0,-7.0892 0.6794,-2.3158 2.0112,-4.386 3.8339,-5.9648 1.8234,-1.5806 4.0617,-2.603 6.449,-2.9466 2.3882,-0.3422 4.8236,0.02 7.019,1.0098 2.1936,1.0016 4.0536,2.614 5.358,4.6432 1.3037,2.0286 1.9975,4.391 1.9975,6.8036 z"
           stroke="#0000ff"
           stroke-width="0.0548255"
           id="path4767-5-0-1-5-1-5-1-4-0-3-8"
           style="fill:none;stroke:#000000;stroke-width:0.687301;stroke-linecap:round;stroke-linejoin:round;stroke-dasharray:none;stroke-opacity:1" /><path
           d="m 2094.9962,3157.744 c 0,2.411 -0.6938,4.773 -1.9976,6.8018 -1.3044,2.0294 -3.1644,3.6416 -5.358,4.6434 -2.1954,1.0024 -4.6308,1.3534 -7.019,1.0096 -2.3872,-0.3434 -4.6256,-1.366 -6.449,-2.9464 -1.8226,-1.5786 -3.1544,-3.6492 -3.8339,-5.9644 -0.6797,-2.3146 -0.6797,-4.775 0,-7.0892 0.6794,-2.3158 2.0112,-4.386 3.8339,-5.9648 1.8234,-1.5806 4.0618,-2.603 6.449,-2.9466 2.3882,-0.3422 4.8236,0.02 7.019,1.0098 2.1936,1.0016 4.0536,2.614 5.358,4.6432 1.3038,2.0286 1.9976,4.391 1.9976,6.8036 z"
           stroke="#0000ff"
           stroke-width="0.0548255"
           id="path4767-5-0-1-5-1-5-11-7-4-7-9"
           style="fill:none;stroke:#000000;stroke-width:0.687301;stroke-linecap:round;stroke-linejoin:round;stroke-dasharray:none;stroke-opacity:1" /><path
           d="m 2132.8292,3157.744 c 0,2.411 -0.6938,4.773 -1.9976,6.8018 -1.3044,2.0294 -3.1644,3.6416 -5.358,4.6434 -2.1954,1.0024 -4.6308,1.3534 -7.019,1.0096 -2.3872,-0.3434 -4.6256,-1.366 -6.449,-2.9464 -1.8226,-1.5786 -3.1544,-3.6492 -3.8338,-5.9644 -0.6798,-2.3146 -0.6798,-4.775 0,-7.0892 0.6794,-2.3158 2.0111,-4.386 3.8338,-5.9648 1.8234,-1.5806 4.0618,-2.603 6.449,-2.9466 2.3882,-0.3422 4.8236,0.02 7.019,1.0098 2.1936,1.0016 4.0536,2.614 5.358,4.6432 1.3038,2.0286 1.9976,4.391 1.9976,6.8036 z"
           stroke="#0000ff"
           stroke-width="0.0548255"
           id="path4767-5-0-1-5-1-5-4-4-0-4-6"
           style="fill:none;stroke:#000000;stroke-width:0.687301;stroke-linecap:round;stroke-linejoin:round;stroke-dasharray:none;stroke-opacity:1" /></g></g></g></svg>
