<?xml version="1.0" encoding="UTF-8" standalone="no"?>
<svg
   width="292.20mm"
   height="433.90mm"
   viewBox="0.0 0.0 292.20 433.90"
   version="1.1"
   id="svg18117"
   sodipodi:docname="ElectronicsBox_135x135x5_partB.svg"
   inkscape:version="1.2.2 (b0a84865, 2022-12-01)"
   xml:space="preserve"
   xmlns:inkscape="http://www.inkscape.org/namespaces/inkscape"
   xmlns:sodipodi="http://sodipodi.sourceforge.net/DTD/sodipodi-0.dtd"
   xmlns="http://www.w3.org/2000/svg"
   xmlns:svg="http://www.w3.org/2000/svg"
   xmlns:rdf="http://www.w3.org/1999/02/22-rdf-syntax-ns#"
   xmlns:cc="http://creativecommons.org/ns#"
   xmlns:dc="http://purl.org/dc/elements/1.1/"><defs
     id="defs18121" /><sodipodi:namedview
     id="namedview18119"
     pagecolor="#ffffff"
     bordercolor="#666666"
     borderopacity="1.0"
     inkscape:showpageshadow="2"
     inkscape:pageopacity="0.0"
     inkscape:pagecheckerboard="0"
     inkscape:deskcolor="#d1d1d1"
     inkscape:document-units="mm"
     showgrid="true"
     inkscape:zoom="0.44482365"
     inkscape:cx="254.03326"
     inkscape:cy="919.4655"
     inkscape:window-width="1387"
     inkscape:window-height="928"
     inkscape:window-x="0"
     inkscape:window-y="25"
     inkscape:window-maximized="0"
     inkscape:current-layer="svg18117" /><!--
ElectronicsBox - Closed box with screw on top and mounting holes

Created with Boxes.py (https://festi.info/boxes.py)
Creation date: 2022-12-20 15:13:56
Command line (remove spaces between dashes): boxes ElectronicsBox - -FingerJoint_angle=90.0 - -FingerJoint_style=rectangular - -FingerJoint_surroundingspaces=2.0 - -FingerJoint_edge_width=1.0 - -FingerJoint_extra_length=0.0 - -FingerJoint_finger=2.0 - -FingerJoint_play=0.1 - -FingerJoint_space=2.0 - -FingerJoint_width=1.0 - -x=135 - -y=135 - -h=50 - -outside=0 - -outside=1 - -triangle=25.0 - -d1=2.0 - -d2=3.0 - -d3=3.0 - -outsidemounts=0 - -outsidemounts=1 - -holedist=7.0 - -thickness=3.0 - -format=svg - -tabs=0.0 - -debug=0 - -labels=0 - -reference=100 - -inner_corners=loop - -burn=0.1
Url: http://localhost:8000/ElectronicsBox?FingerJoint_angle=90.0&FingerJoint_style=rectangular&FingerJoint_surroundingspaces=2.0&FingerJoint_edge_width=1.0&FingerJoint_extra_length=0.0&FingerJoint_finger=2.0&FingerJoint_play=0.1&FingerJoint_space=2.0&FingerJoint_width=1.0&x=135&y=135&h=50&outside=0&outside=1&triangle=25.0&d1=2.0&d2=3.0&d3=3.0&outsidemounts=0&outsidemounts=1&holedist=7.0&thickness=3.0&format=svg&tabs=0.0&debug=0&labels=0&reference=100&inner_corners=loop&burn=0.1&render=1
SettingsUrl: http://localhost:8000/ElectronicsBox?FingerJoint_angle=90.0&FingerJoint_style=rectangular&FingerJoint_surroundingspaces=2.0&FingerJoint_edge_width=1.0&FingerJoint_extra_length=0.0&FingerJoint_finger=2.0&FingerJoint_play=0.1&FingerJoint_space=2.0&FingerJoint_width=1.0&x=135&y=135&h=50&outside=0&outside=1&triangle=25.0&d1=2.0&d2=3.0&d3=3.0&outsidemounts=0&outsidemounts=1&holedist=7.0&thickness=3.0&format=svg&tabs=0.0&debug=0&labels=0&reference=100&inner_corners=loop&burn=0.1
--><title
     id="title18001">ElectronicsBox</title><metadata
     id="metadata18003"><rdf:RDF><cc:Work><dc:title>ElectronicsBox</dc:title><dc:date>2022-12-20 15:13:56</dc:date><dc:source>http://localhost:8000/ElectronicsBox?FingerJoint_angle=90.0&amp;FingerJoint_style=rectangular&amp;FingerJoint_surroundingspaces=2.0&amp;FingerJoint_edge_width=1.0&amp;FingerJoint_extra_length=0.0&amp;FingerJoint_finger=2.0&amp;FingerJoint_play=0.1&amp;FingerJoint_space=2.0&amp;FingerJoint_width=1.0&amp;x=135&amp;y=135&amp;h=50&amp;outside=0&amp;outside=1&amp;triangle=25.0&amp;d1=2.0&amp;d2=3.0&amp;d3=3.0&amp;outsidemounts=0&amp;outsidemounts=1&amp;holedist=7.0&amp;thickness=3.0&amp;format=svg&amp;tabs=0.0&amp;debug=0&amp;labels=0&amp;reference=100&amp;inner_corners=loop&amp;burn=0.1&amp;render=1</dc:source><dc:description>Closed box with screw on top and mounting holes

Created with Boxes.py (https://festi.info/boxes.py)
Command line: boxes ElectronicsBox --FingerJoint_angle=90.0 --FingerJoint_style=rectangular --FingerJoint_surroundingspaces=2.0 --FingerJoint_edge_width=1.0 --FingerJoint_extra_length=0.0 --FingerJoint_finger=2.0 --FingerJoint_play=0.1 --FingerJoint_space=2.0 --FingerJoint_width=1.0 --x=135 --y=135 --h=50 --outside=0 --outside=1 --triangle=25.0 --d1=2.0 --d2=3.0 --d3=3.0 --outsidemounts=0 --outsidemounts=1 --holedist=7.0 --thickness=3.0 --format=svg --tabs=0.0 --debug=0 --labels=0 --reference=100 --inner_corners=loop --burn=0.1
Url: http://localhost:8000/ElectronicsBox?FingerJoint_angle=90.0&amp;FingerJoint_style=rectangular&amp;FingerJoint_surroundingspaces=2.0&amp;FingerJoint_edge_width=1.0&amp;FingerJoint_extra_length=0.0&amp;FingerJoint_finger=2.0&amp;FingerJoint_play=0.1&amp;FingerJoint_space=2.0&amp;FingerJoint_width=1.0&amp;x=135&amp;y=135&amp;h=50&amp;outside=0&amp;outside=1&amp;triangle=25.0&amp;d1=2.0&amp;d2=3.0&amp;d3=3.0&amp;outsidemounts=0&amp;outsidemounts=1&amp;holedist=7.0&amp;thickness=3.0&amp;format=svg&amp;tabs=0.0&amp;debug=0&amp;labels=0&amp;reference=100&amp;inner_corners=loop&amp;burn=0.1&amp;render=1
SettingsUrl: http://localhost:8000/ElectronicsBox?FingerJoint_angle=90.0&amp;FingerJoint_style=rectangular&amp;FingerJoint_surroundingspaces=2.0&amp;FingerJoint_edge_width=1.0&amp;FingerJoint_extra_length=0.0&amp;FingerJoint_finger=2.0&amp;FingerJoint_play=0.1&amp;FingerJoint_space=2.0&amp;FingerJoint_width=1.0&amp;x=135&amp;y=135&amp;h=50&amp;outside=0&amp;outside=1&amp;triangle=25.0&amp;d1=2.0&amp;d2=3.0&amp;d3=3.0&amp;outsidemounts=0&amp;outsidemounts=1&amp;holedist=7.0&amp;thickness=3.0&amp;format=svg&amp;tabs=0.0&amp;debug=0&amp;labels=0&amp;reference=100&amp;inner_corners=loop&amp;burn=0.1
</dc:description></cc:Work></rdf:RDF></metadata><g
     id="p-6"
     style="fill:none;stroke-linecap:round;stroke-linejoin:round;"><path
       d="M 20.133 163.667 C 20.133 163.935 20.056 164.198 19.911 164.424 C 19.766 164.649 19.559 164.829 19.315 164.940 C 19.071 165.052 18.800 165.091 18.534 165.052 C 18.268 165.014 18.019 164.900 17.817 164.725 C 17.614 164.549 17.466 164.319 17.390 164.061 C 17.314 163.804 17.314 163.530 17.390 163.272 C 17.466 163.015 17.614 162.784 17.817 162.609 C 18.019 162.433 18.268 162.319 18.534 162.281 C 18.800 162.243 19.071 162.282 19.315 162.393 C 19.559 162.505 19.766 162.684 19.911 162.910 C 20.056 163.136 20.133 163.398 20.133 163.667 Z"
       stroke="rgb(0,0,255)"
       stroke-width="0.20"
       id="path18089" /><path
       d="M 10.400 172.100 H 139.400 C 139.455 172.100 139.500 172.055 139.500 172.000 V 43.000 C 139.500 42.945 139.455 42.900 139.400 42.900 H 10.400 C 10.345 42.900 10.300 42.945 10.300 43.000 V 172.000 C 10.300 172.055 10.345 172.100 10.400 172.100 Z"
       stroke="rgb(0,0,0)"
       stroke-width="0.20"
       id="path18091" /><path
       d="M 131.067 162.267 C 131.335 162.267 131.598 162.344 131.824 162.489 C 132.049 162.634 132.229 162.841 132.340 163.085 C 132.452 163.329 132.491 163.600 132.452 163.866 C 132.414 164.132 132.300 164.381 132.125 164.583 C 131.949 164.786 131.719 164.934 131.461 165.010 C 131.204 165.086 130.930 165.086 130.672 165.010 C 130.415 164.934 130.184 164.786 130.009 164.583 C 129.833 164.381 129.719 164.132 129.681 163.866 C 129.643 163.600 129.682 163.329 129.793 163.085 C 129.905 162.841 130.084 162.634 130.310 162.489 C 130.536 162.344 130.798 162.267 131.067 162.267 Z"
       stroke="rgb(0,0,255)"
       stroke-width="0.20"
       id="path18093" /><path
       d="M 129.667 51.333 C 129.667 51.065 129.744 50.802 129.889 50.576 C 130.034 50.351 130.241 50.171 130.485 50.060 C 130.729 49.948 131.000 49.909 131.266 49.948 C 131.532 49.986 131.781 50.100 131.983 50.275 C 132.186 50.451 132.334 50.681 132.410 50.939 C 132.486 51.196 132.486 51.470 132.410 51.728 C 132.334 51.985 132.186 52.216 131.983 52.391 C 131.781 52.567 131.532 52.681 131.266 52.719 C 131.000 52.757 130.729 52.718 130.485 52.607 C 130.241 52.495 130.034 52.316 129.889 52.090 C 129.744 51.864 129.667 51.602 129.667 51.333 Z"
       stroke="rgb(0,0,255)"
       stroke-width="0.20"
       id="path18095" /><path
       d="M 18.733 52.733 C 18.465 52.733 18.202 52.656 17.976 52.511 C 17.751 52.366 17.571 52.159 17.460 51.915 C 17.348 51.671 17.309 51.400 17.348 51.134 C 17.386 50.868 17.500 50.619 17.675 50.417 C 17.851 50.214 18.081 50.066 18.339 49.990 C 18.596 49.914 18.870 49.914 19.128 49.990 C 19.385 50.066 19.616 50.214 19.791 50.417 C 19.967 50.619 20.081 50.868 20.119 51.134 C 20.157 51.400 20.118 51.671 20.007 51.915 C 19.895 52.159 19.716 52.366 19.490 52.511 C 19.264 52.656 19.002 52.733 18.733 52.733 Z"
       stroke="rgb(0,0,255)"
       stroke-width="0.20"
       id="path18097" /></g><g
     id="p-7"
     style="fill:none;stroke-linecap:round;stroke-linejoin:round"
     transform="translate(132.04671,32.714275)"><path
       d="m 18.208,38.4 h 9.4 c 0.1,0 0,-0.1 0,0 v 2.9 c 0,0.055 0.045,0.1 0.1,0.1 h 6 c 0.056,0 0.1,-0.045 0.1,-0.1 v -2.9 c 0,-0.1 -0.1,0 0,0 h 9.4 c 0.056,0 0.1,-0.045 0.1,-0.1 v -9.4 c 0,-0.1 -0.1,0 0,0 h 2.9 c 0.056,0 0.1,-0.045 0.1,-0.1 v -6 c 0,-0.055 -0.044,-0.1 -0.1,-0.1 h -2.9 c -0.1,0 0,0.1 0,0 v -9.4 c 0,-0.055 -0.044,-0.1 -0.1,-0.1 -0.026,0 -0.052,0.011 -0.07,0.029 l -25,25 c -0.019,0.019 -0.03,0.044 -0.03,0.071 0,0.055 0.045,0.1 0.1,0.1 z"
       stroke="#000000"
       stroke-width="0.2"
       id="path18100" /><path
       d="m 34.875,29.067 c 0.173,0 0.341,0.049 0.487,0.143 0.145,0.093 0.26,0.226 0.332,0.383 0.071,0.157 0.096,0.331 0.072,0.502 -0.025,0.171 -0.098,0.331 -0.211,0.461 -0.113,0.13 -0.261,0.226 -0.426,0.274 -0.166,0.049 -0.342,0.049 -0.508,0 -0.165,-0.048 -0.313,-0.144 -0.426,-0.274 -0.113,-0.13 -0.186,-0.29 -0.211,-0.461 -0.024,-0.171 10e-4,-0.345 0.072,-0.502 0.072,-0.157 0.187,-0.29 0.332,-0.383 0.146,-0.094 0.314,-0.143 0.487,-0.143 z"
       stroke="#0000ff"
       stroke-width="0.2"
       id="path18102" /><path
       d="M 38.4,13 H 29 c -0.1,0 0,0.1 0,0 V 10.1 C 29,10.045 28.955,10 28.9,10 h -6 c -0.055,0 -0.1,0.045 -0.1,0.1 V 13 c 0,0.1 0.1,0 0,0 h -9.4 c -0.055,0 -0.1,0.045 -0.1,0.1 v 9.4 c 0,0.1 0.1,0 0,0 h -2.9 c -0.055,0 -0.1,0.045 -0.1,0.1 v 6 c 0,0.055 0.045,0.1 0.1,0.1 h 2.9 c 0.1,0 0,-0.1 0,0 v 9.4 c 0,0.055 0.045,0.1 0.1,0.1 0.027,0 0.052,-0.011 0.071,-0.029 l 25,-25 C 38.489,13.152 38.5,13.127 38.5,13.1 38.5,13.045 38.455,13 38.4,13 Z"
       stroke="#000000"
       stroke-width="0.2"
       id="path18104" /><path
       d="m 21.733,22.333 c -0.172,0 -0.341,-0.049 -0.486,-0.143 -0.145,-0.093 -0.261,-0.226 -0.332,-0.383 -0.072,-0.157 -0.097,-0.331 -0.073,-0.502 0.025,-0.171 0.098,-0.331 0.211,-0.461 0.113,-0.13 0.261,-0.226 0.427,-0.274 0.165,-0.049 0.341,-0.049 0.507,0 0.165,0.048 0.314,0.144 0.427,0.274 0.112,0.13 0.186,0.29 0.21,0.461 0.025,0.171 0,0.345 -0.072,0.502 -0.072,0.157 -0.187,0.29 -0.332,0.383 -0.145,0.094 -0.314,0.143 -0.487,0.143 z"
       stroke="#0000ff"
       stroke-width="0.2"
       id="path18106" /><path
       d="m 55.717,38.4 h 9.4 c 0.1,0 0,-0.1 0,0 v 2.9 c 0,0.055 0.044,0.1 0.1,0.1 h 6 c 0.055,0 0.1,-0.045 0.1,-0.1 v -2.9 c 0,-0.1 -0.1,0 0,0 h 9.4 c 0.055,0 0.1,-0.045 0.1,-0.1 v -9.4 c 0,-0.1 -0.1,0 0,0 h 2.9 c 0.055,0 0.1,-0.045 0.1,-0.1 v -6 c 0,-0.055 -0.045,-0.1 -0.1,-0.1 h -2.9 c -0.1,0 0,0.1 0,0 v -9.4 c 0,-0.055 -0.045,-0.1 -0.1,-0.1 -0.027,0 -0.052,0.011 -0.071,0.029 l -25,25 c -0.019,0.019 -0.029,0.044 -0.029,0.071 0,0.055 0.044,0.1 0.1,0.1 z"
       stroke="#000000"
       stroke-width="0.2"
       id="path18108" /><path
       d="m 72.383,29.067 c 0.173,0 0.342,0.049 0.487,0.143 0.145,0.093 0.26,0.226 0.332,0.383 0.072,0.157 0.097,0.331 0.072,0.502 -0.024,0.171 -0.098,0.331 -0.211,0.461 -0.112,0.13 -0.261,0.226 -0.426,0.274 -0.166,0.049 -0.342,0.049 -0.507,0 -0.166,-0.048 -0.314,-0.144 -0.427,-0.274 -0.113,-0.13 -0.186,-0.29 -0.211,-0.461 -0.024,-0.171 10e-4,-0.345 0.073,-0.502 0.071,-0.157 0.187,-0.29 0.332,-0.383 0.145,-0.094 0.314,-0.143 0.486,-0.143 z"
       stroke="#0000ff"
       stroke-width="0.2"
       id="path18110" /><path
       d="m 75.908,13 h -9.4 c -0.1,0 0,0.1 0,0 v -2.9 c 0,-0.055 -0.044,-0.1 -0.1,-0.1 h -6 c -0.055,0 -0.1,0.045 -0.1,0.1 V 13 c 0,0.1 0.1,0 0,0 h -9.4 c -0.055,0 -0.1,0.045 -0.1,0.1 v 9.4 c 0,0.1 0.1,0 0,0 h -2.9 c -0.055,0 -0.1,0.045 -0.1,0.1 v 6 c 0,0.055 0.045,0.1 0.1,0.1 h 2.9 c 0.1,0 0,-0.1 0,0 v 9.4 c 0,0.055 0.045,0.1 0.1,0.1 0.027,0 0.052,-0.011 0.071,-0.029 l 25,-25 c 0.019,-0.019 0.029,-0.044 0.029,-0.071 0,-0.055 -0.044,-0.1 -0.1,-0.1 z"
       stroke="#000000"
       stroke-width="0.2"
       id="path18112" /><path
       d="m 59.242,22.333 c -0.173,0 -0.342,-0.049 -0.487,-0.143 -0.145,-0.093 -0.26,-0.226 -0.332,-0.383 -0.072,-0.157 -0.097,-0.331 -0.072,-0.502 0.024,-0.171 0.097,-0.331 0.21,-0.461 0.113,-0.13 0.262,-0.226 0.427,-0.274 0.166,-0.049 0.342,-0.049 0.507,0 0.166,0.048 0.314,0.144 0.427,0.274 0.113,0.13 0.186,0.29 0.21,0.461 0.025,0.171 0,0.345 -0.072,0.502 -0.071,0.157 -0.187,0.29 -0.332,0.383 -0.145,0.094 -0.314,0.143 -0.486,0.143 z"
       stroke="#0000ff"
       stroke-width="0.2"
       id="path18114" /></g></svg>
