<?xml version="1.0" encoding="UTF-8" standalone="no"?>
<svg
   width="292.20mm"
   height="433.90mm"
   viewBox="0.0 0.0 292.20 433.90"
   version="1.1"
   id="svg18117"
   sodipodi:docname="ElectronicsBox_135x135x5_partA.svg"
   inkscape:version="1.2.2 (b0a84865, 2022-12-01)"
   xml:space="preserve"
   xmlns:inkscape="http://www.inkscape.org/namespaces/inkscape"
   xmlns:sodipodi="http://sodipodi.sourceforge.net/DTD/sodipodi-0.dtd"
   xmlns="http://www.w3.org/2000/svg"
   xmlns:svg="http://www.w3.org/2000/svg"
   xmlns:rdf="http://www.w3.org/1999/02/22-rdf-syntax-ns#"
   xmlns:cc="http://creativecommons.org/ns#"
   xmlns:dc="http://purl.org/dc/elements/1.1/"><defs
     id="defs18121" /><sodipodi:namedview
     id="namedview18119"
     pagecolor="#ffffff"
     bordercolor="#666666"
     borderopacity="1.0"
     inkscape:showpageshadow="2"
     inkscape:pageopacity="0.0"
     inkscape:pagecheckerboard="0"
     inkscape:deskcolor="#d1d1d1"
     inkscape:document-units="mm"
     showgrid="true"
     inkscape:zoom="0.44482365"
     inkscape:cx="252.90921"
     inkscape:cy="919.4655"
     inkscape:window-width="1680"
     inkscape:window-height="928"
     inkscape:window-x="0"
     inkscape:window-y="25"
     inkscape:window-maximized="1"
     inkscape:current-layer="svg18117" /><!--
ElectronicsBox - Closed box with screw on top and mounting holes

Created with Boxes.py (https://festi.info/boxes.py)
Creation date: 2022-12-20 15:13:56
Command line (remove spaces between dashes): boxes ElectronicsBox - -FingerJoint_angle=90.0 - -FingerJoint_style=rectangular - -FingerJoint_surroundingspaces=2.0 - -FingerJoint_edge_width=1.0 - -FingerJoint_extra_length=0.0 - -FingerJoint_finger=2.0 - -FingerJoint_play=0.1 - -FingerJoint_space=2.0 - -FingerJoint_width=1.0 - -x=135 - -y=135 - -h=50 - -outside=0 - -outside=1 - -triangle=25.0 - -d1=2.0 - -d2=3.0 - -d3=3.0 - -outsidemounts=0 - -outsidemounts=1 - -holedist=7.0 - -thickness=3.0 - -format=svg - -tabs=0.0 - -debug=0 - -labels=0 - -reference=100 - -inner_corners=loop - -burn=0.1
Url: http://localhost:8000/ElectronicsBox?FingerJoint_angle=90.0&FingerJoint_style=rectangular&FingerJoint_surroundingspaces=2.0&FingerJoint_edge_width=1.0&FingerJoint_extra_length=0.0&FingerJoint_finger=2.0&FingerJoint_play=0.1&FingerJoint_space=2.0&FingerJoint_width=1.0&x=135&y=135&h=50&outside=0&outside=1&triangle=25.0&d1=2.0&d2=3.0&d3=3.0&outsidemounts=0&outsidemounts=1&holedist=7.0&thickness=3.0&format=svg&tabs=0.0&debug=0&labels=0&reference=100&inner_corners=loop&burn=0.1&render=1
SettingsUrl: http://localhost:8000/ElectronicsBox?FingerJoint_angle=90.0&FingerJoint_style=rectangular&FingerJoint_surroundingspaces=2.0&FingerJoint_edge_width=1.0&FingerJoint_extra_length=0.0&FingerJoint_finger=2.0&FingerJoint_play=0.1&FingerJoint_space=2.0&FingerJoint_width=1.0&x=135&y=135&h=50&outside=0&outside=1&triangle=25.0&d1=2.0&d2=3.0&d3=3.0&outsidemounts=0&outsidemounts=1&holedist=7.0&thickness=3.0&format=svg&tabs=0.0&debug=0&labels=0&reference=100&inner_corners=loop&burn=0.1
--><title
     id="title18001">ElectronicsBox</title><metadata
     id="metadata18003"><rdf:RDF><cc:Work><dc:title>ElectronicsBox</dc:title><dc:date>2022-12-20 15:13:56</dc:date><dc:source>http://localhost:8000/ElectronicsBox?FingerJoint_angle=90.0&amp;FingerJoint_style=rectangular&amp;FingerJoint_surroundingspaces=2.0&amp;FingerJoint_edge_width=1.0&amp;FingerJoint_extra_length=0.0&amp;FingerJoint_finger=2.0&amp;FingerJoint_play=0.1&amp;FingerJoint_space=2.0&amp;FingerJoint_width=1.0&amp;x=135&amp;y=135&amp;h=50&amp;outside=0&amp;outside=1&amp;triangle=25.0&amp;d1=2.0&amp;d2=3.0&amp;d3=3.0&amp;outsidemounts=0&amp;outsidemounts=1&amp;holedist=7.0&amp;thickness=3.0&amp;format=svg&amp;tabs=0.0&amp;debug=0&amp;labels=0&amp;reference=100&amp;inner_corners=loop&amp;burn=0.1&amp;render=1</dc:source><dc:description>Closed box with screw on top and mounting holes

Created with Boxes.py (https://festi.info/boxes.py)
Command line: boxes ElectronicsBox --FingerJoint_angle=90.0 --FingerJoint_style=rectangular --FingerJoint_surroundingspaces=2.0 --FingerJoint_edge_width=1.0 --FingerJoint_extra_length=0.0 --FingerJoint_finger=2.0 --FingerJoint_play=0.1 --FingerJoint_space=2.0 --FingerJoint_width=1.0 --x=135 --y=135 --h=50 --outside=0 --outside=1 --triangle=25.0 --d1=2.0 --d2=3.0 --d3=3.0 --outsidemounts=0 --outsidemounts=1 --holedist=7.0 --thickness=3.0 --format=svg --tabs=0.0 --debug=0 --labels=0 --reference=100 --inner_corners=loop --burn=0.1
Url: http://localhost:8000/ElectronicsBox?FingerJoint_angle=90.0&amp;FingerJoint_style=rectangular&amp;FingerJoint_surroundingspaces=2.0&amp;FingerJoint_edge_width=1.0&amp;FingerJoint_extra_length=0.0&amp;FingerJoint_finger=2.0&amp;FingerJoint_play=0.1&amp;FingerJoint_space=2.0&amp;FingerJoint_width=1.0&amp;x=135&amp;y=135&amp;h=50&amp;outside=0&amp;outside=1&amp;triangle=25.0&amp;d1=2.0&amp;d2=3.0&amp;d3=3.0&amp;outsidemounts=0&amp;outsidemounts=1&amp;holedist=7.0&amp;thickness=3.0&amp;format=svg&amp;tabs=0.0&amp;debug=0&amp;labels=0&amp;reference=100&amp;inner_corners=loop&amp;burn=0.1&amp;render=1
SettingsUrl: http://localhost:8000/ElectronicsBox?FingerJoint_angle=90.0&amp;FingerJoint_style=rectangular&amp;FingerJoint_surroundingspaces=2.0&amp;FingerJoint_edge_width=1.0&amp;FingerJoint_extra_length=0.0&amp;FingerJoint_finger=2.0&amp;FingerJoint_play=0.1&amp;FingerJoint_space=2.0&amp;FingerJoint_width=1.0&amp;x=135&amp;y=135&amp;h=50&amp;outside=0&amp;outside=1&amp;triangle=25.0&amp;d1=2.0&amp;d2=3.0&amp;d3=3.0&amp;outsidemounts=0&amp;outsidemounts=1&amp;holedist=7.0&amp;thickness=3.0&amp;format=svg&amp;tabs=0.0&amp;debug=0&amp;labels=0&amp;reference=100&amp;inner_corners=loop&amp;burn=0.1
</dc:description></cc:Work></rdf:RDF></metadata><g
     id="p-5"
     style="fill:none;stroke-linecap:round;stroke-linejoin:round;"><path
       d="M 18.800 301.700 C 18.800 301.968 18.723 302.231 18.578 302.457 C 18.433 302.683 18.226 302.862 17.982 302.973 C 17.737 303.085 17.466 303.124 17.201 303.086 C 16.935 303.048 16.686 302.934 16.483 302.758 C 16.280 302.582 16.132 302.352 16.057 302.094 C 15.981 301.837 15.981 301.563 16.057 301.306 C 16.132 301.048 16.280 300.818 16.483 300.642 C 16.686 300.466 16.935 300.352 17.201 300.314 C 17.466 300.276 17.737 300.315 17.982 300.427 C 18.226 300.538 18.433 300.717 18.578 300.943 C 18.723 301.169 18.800 301.432 18.800 301.700 Z"
       stroke="rgb(0,0,255)"
       stroke-width="0.20"
       id="path18038" /><path
       d="M 17.400 308.800 H 27.400 H 34.750 C 34.805 308.800 34.850 308.755 34.850 308.700 V 305.800 C 34.850 305.700 34.750 305.800 34.850 305.800 H 40.950 C 41.050 305.800 40.950 305.700 40.950 305.800 V 308.700 C 40.950 308.755 40.995 308.800 41.050 308.800 H 46.750 C 46.805 308.800 46.850 308.755 46.850 308.700 V 305.800 C 46.850 305.700 46.750 305.800 46.850 305.800 H 52.950 C 53.050 305.800 52.950 305.700 52.950 305.800 V 308.700 C 52.950 308.755 52.995 308.800 53.050 308.800 H 58.750 C 58.805 308.800 58.850 308.755 58.850 308.700 V 305.800 C 58.850 305.700 58.750 305.800 58.850 305.800 H 64.950 C 65.050 305.800 64.950 305.700 64.950 305.800 V 308.700 C 64.950 308.755 64.995 308.800 65.050 308.800 H 70.750 C 70.805 308.800 70.850 308.755 70.850 308.700 V 305.800 C 70.850 305.700 70.750 305.800 70.850 305.800 H 76.950 C 77.050 305.800 76.950 305.700 76.950 305.800 V 308.700 C 76.950 308.755 76.995 308.800 77.050 308.800 H 82.750 C 82.805 308.800 82.850 308.755 82.850 308.700 V 305.800 C 82.850 305.700 82.750 305.800 82.850 305.800 H 88.950 C 89.050 305.800 88.950 305.700 88.950 305.800 V 308.700 C 88.950 308.755 88.995 308.800 89.050 308.800 H 94.750 C 94.805 308.800 94.850 308.755 94.850 308.700 V 305.800 C 94.850 305.700 94.750 305.800 94.850 305.800 H 100.950 C 101.050 305.800 100.950 305.700 100.950 305.800 V 308.700 C 100.950 308.755 100.995 308.800 101.050 308.800 H 106.750 C 106.805 308.800 106.850 308.755 106.850 308.700 V 305.800 C 106.850 305.700 106.750 305.800 106.850 305.800 H 112.950 C 113.050 305.800 112.950 305.700 112.950 305.800 V 308.700 C 112.950 308.755 112.995 308.800 113.050 308.800 H 118.750 C 118.805 308.800 118.850 308.755 118.850 308.700 V 305.800 C 118.850 305.700 118.750 305.800 118.850 305.800 H 124.950 C 125.050 305.800 124.950 305.700 124.950 305.800 V 308.700 C 124.950 308.755 124.995 308.800 125.050 308.800 H 130.750 C 130.805 308.800 130.850 308.755 130.850 308.700 V 305.800 C 130.850 305.700 130.750 305.800 130.850 305.800 H 136.950 C 137.050 305.800 136.950 305.700 136.950 305.800 V 308.700 C 136.950 308.755 136.995 308.800 137.050 308.800 H 142.750 C 142.805 308.800 142.850 308.755 142.850 308.700 V 305.800 C 142.850 305.700 142.750 305.800 142.850 305.800 H 148.950 C 149.050 305.800 148.950 305.700 148.950 305.800 V 308.700 C 148.950 308.755 148.995 308.800 149.050 308.800 H 156.400 H 166.400 C 167.646 308.800 168.871 308.472 169.950 307.849 C 171.029 307.226 171.926 306.329 172.549 305.250 C 173.172 304.171 173.500 302.946 173.500 301.700 V 180.700 C 173.500 179.454 173.172 178.229 172.549 177.150 C 171.926 176.071 171.029 175.174 169.950 174.551 C 168.871 173.928 167.646 173.600 166.400 173.600 H 156.400 H 149.050 C 148.995 173.600 148.950 173.645 148.950 173.700 V 176.600 C 148.950 176.700 149.050 176.600 148.950 176.600 H 142.850 C 142.750 176.600 142.850 176.700 142.850 176.600 V 173.700 C 142.850 173.645 142.805 173.600 142.750 173.600 H 137.050 C 136.995 173.600 136.950 173.645 136.950 173.700 V 176.600 C 136.950 176.700 137.050 176.600 136.950 176.600 H 130.850 C 130.750 176.600 130.850 176.700 130.850 176.600 V 173.700 C 130.850 173.645 130.805 173.600 130.750 173.600 H 125.050 C 124.995 173.600 124.950 173.645 124.950 173.700 V 176.600 C 124.950 176.700 125.050 176.600 124.950 176.600 H 118.850 C 118.750 176.600 118.850 176.700 118.850 176.600 V 173.700 C 118.850 173.645 118.805 173.600 118.750 173.600 H 113.050 C 112.995 173.600 112.950 173.645 112.950 173.700 V 176.600 C 112.950 176.700 113.050 176.600 112.950 176.600 H 106.850 C 106.750 176.600 106.850 176.700 106.850 176.600 V 173.700 C 106.850 173.645 106.805 173.600 106.750 173.600 H 101.050 C 100.995 173.600 100.950 173.645 100.950 173.700 V 176.600 C 100.950 176.700 101.050 176.600 100.950 176.600 H 94.850 C 94.750 176.600 94.850 176.700 94.850 176.600 V 173.700 C 94.850 173.645 94.805 173.600 94.750 173.600 H 89.050 C 88.995 173.600 88.950 173.645 88.950 173.700 V 176.600 C 88.950 176.700 89.050 176.600 88.950 176.600 H 82.850 C 82.750 176.600 82.850 176.700 82.850 176.600 V 173.700 C 82.850 173.645 82.805 173.600 82.750 173.600 H 77.050 C 76.995 173.600 76.950 173.645 76.950 173.700 V 176.600 C 76.950 176.700 77.050 176.600 76.950 176.600 H 70.850 C 70.750 176.600 70.850 176.700 70.850 176.600 V 173.700 C 70.850 173.645 70.805 173.600 70.750 173.600 H 65.050 C 64.995 173.600 64.950 173.645 64.950 173.700 V 176.600 C 64.950 176.700 65.050 176.600 64.950 176.600 H 58.850 C 58.750 176.600 58.850 176.700 58.850 176.600 V 173.700 C 58.850 173.645 58.805 173.600 58.750 173.600 H 53.050 C 52.995 173.600 52.950 173.645 52.950 173.700 V 176.600 C 52.950 176.700 53.050 176.600 52.950 176.600 H 46.850 C 46.750 176.600 46.850 176.700 46.850 176.600 V 173.700 C 46.850 173.645 46.805 173.600 46.750 173.600 H 41.050 C 40.995 173.600 40.950 173.645 40.950 173.700 V 176.600 C 40.950 176.700 41.050 176.600 40.950 176.600 H 34.850 C 34.750 176.600 34.850 176.700 34.850 176.600 V 173.700 C 34.850 173.645 34.805 173.600 34.750 173.600 H 27.400 H 17.400 C 16.154 173.600 14.929 173.928 13.850 174.551 C 12.771 175.174 11.874 176.071 11.251 177.150 C 10.628 178.229 10.300 179.454 10.300 180.700 V 301.700 C 10.300 302.946 10.628 304.171 11.251 305.250 C 11.874 306.329 12.771 307.226 13.850 307.849 C 14.929 308.472 16.154 308.800 17.400 308.800 Z"
       stroke="rgb(0,0,0)"
       stroke-width="0.20"
       id="path18040" /><path
       d="M 166.400 300.300 C 166.668 300.300 166.931 300.377 167.157 300.522 C 167.383 300.667 167.562 300.874 167.673 301.118 C 167.785 301.363 167.824 301.634 167.786 301.899 C 167.748 302.165 167.634 302.414 167.458 302.617 C 167.282 302.820 167.052 302.968 166.794 303.043 C 166.537 303.119 166.263 303.119 166.006 303.043 C 165.748 302.968 165.518 302.820 165.342 302.617 C 165.166 302.414 165.052 302.165 165.014 301.899 C 164.976 301.634 165.015 301.363 165.127 301.118 C 165.238 300.874 165.417 300.667 165.643 300.522 C 165.869 300.377 166.132 300.300 166.400 300.300 Z"
       stroke="rgb(0,0,255)"
       stroke-width="0.20"
       id="path18042" /><path
       d="M 159.550 295.200 V 298.250 C 159.550 298.350 159.650 298.250 159.550 298.250 H 156.450 C 156.350 298.250 156.450 298.350 156.450 298.250 V 292.150 C 156.450 292.050 156.350 292.150 156.450 292.150 H 159.550 C 159.650 292.150 159.550 292.050 159.550 292.150 V 295.200 Z"
       stroke="rgb(0,0,255)"
       stroke-width="0.20"
       id="path18044" /><path
       d="M 159.550 283.200 V 286.250 C 159.550 286.350 159.650 286.250 159.550 286.250 H 156.450 C 156.350 286.250 156.450 286.350 156.450 286.250 V 280.150 C 156.450 280.050 156.350 280.150 156.450 280.150 H 159.550 C 159.650 280.150 159.550 280.050 159.550 280.150 V 283.200 Z"
       stroke="rgb(0,0,255)"
       stroke-width="0.20"
       id="path18046" /><path
       d="M 159.550 271.200 V 274.250 C 159.550 274.350 159.650 274.250 159.550 274.250 H 156.450 C 156.350 274.250 156.450 274.350 156.450 274.250 V 268.150 C 156.450 268.050 156.350 268.150 156.450 268.150 H 159.550 C 159.650 268.150 159.550 268.050 159.550 268.150 V 271.200 Z"
       stroke="rgb(0,0,255)"
       stroke-width="0.20"
       id="path18048" /><path
       d="M 159.550 259.200 V 262.250 C 159.550 262.350 159.650 262.250 159.550 262.250 H 156.450 C 156.350 262.250 156.450 262.350 156.450 262.250 V 256.150 C 156.450 256.050 156.350 256.150 156.450 256.150 H 159.550 C 159.650 256.150 159.550 256.050 159.550 256.150 V 259.200 Z"
       stroke="rgb(0,0,255)"
       stroke-width="0.20"
       id="path18050" /><path
       d="M 159.550 247.200 V 250.250 C 159.550 250.350 159.650 250.250 159.550 250.250 H 156.450 C 156.350 250.250 156.450 250.350 156.450 250.250 V 244.150 C 156.450 244.050 156.350 244.150 156.450 244.150 H 159.550 C 159.650 244.150 159.550 244.050 159.550 244.150 V 247.200 Z"
       stroke="rgb(0,0,255)"
       stroke-width="0.20"
       id="path18052" /><path
       d="M 159.550 235.200 V 238.250 C 159.550 238.350 159.650 238.250 159.550 238.250 H 156.450 C 156.350 238.250 156.450 238.350 156.450 238.250 V 232.150 C 156.450 232.050 156.350 232.150 156.450 232.150 H 159.550 C 159.650 232.150 159.550 232.050 159.550 232.150 V 235.200 Z"
       stroke="rgb(0,0,255)"
       stroke-width="0.20"
       id="path18054" /><path
       d="M 159.550 223.200 V 226.250 C 159.550 226.350 159.650 226.250 159.550 226.250 H 156.450 C 156.350 226.250 156.450 226.350 156.450 226.250 V 220.150 C 156.450 220.050 156.350 220.150 156.450 220.150 H 159.550 C 159.650 220.150 159.550 220.050 159.550 220.150 V 223.200 Z"
       stroke="rgb(0,0,255)"
       stroke-width="0.20"
       id="path18056" /><path
       d="M 159.550 211.200 V 214.250 C 159.550 214.350 159.650 214.250 159.550 214.250 H 156.450 C 156.350 214.250 156.450 214.350 156.450 214.250 V 208.150 C 156.450 208.050 156.350 208.150 156.450 208.150 H 159.550 C 159.650 208.150 159.550 208.050 159.550 208.150 V 211.200 Z"
       stroke="rgb(0,0,255)"
       stroke-width="0.20"
       id="path18058" /><path
       d="M 159.550 199.200 V 202.250 C 159.550 202.350 159.650 202.250 159.550 202.250 H 156.450 C 156.350 202.250 156.450 202.350 156.450 202.250 V 196.150 C 156.450 196.050 156.350 196.150 156.450 196.150 H 159.550 C 159.650 196.150 159.550 196.050 159.550 196.150 V 199.200 Z"
       stroke="rgb(0,0,255)"
       stroke-width="0.20"
       id="path18060" /><path
       d="M 159.550 187.200 V 190.250 C 159.550 190.350 159.650 190.250 159.550 190.250 H 156.450 C 156.350 190.250 156.450 190.350 156.450 190.250 V 184.150 C 156.450 184.050 156.350 184.150 156.450 184.150 H 159.550 C 159.650 184.150 159.550 184.050 159.550 184.150 V 187.200 Z"
       stroke="rgb(0,0,255)"
       stroke-width="0.20"
       id="path18062" /><path
       d="M 165.000 180.700 C 165.000 180.432 165.077 180.169 165.222 179.943 C 165.367 179.717 165.574 179.538 165.818 179.427 C 166.063 179.315 166.334 179.276 166.599 179.314 C 166.865 179.352 167.114 179.466 167.317 179.642 C 167.520 179.818 167.668 180.048 167.743 180.306 C 167.819 180.563 167.819 180.837 167.743 181.094 C 167.668 181.352 167.520 181.582 167.317 181.758 C 167.114 181.934 166.865 182.048 166.599 182.086 C 166.334 182.124 166.063 182.085 165.818 181.973 C 165.574 181.862 165.367 181.683 165.222 181.457 C 165.077 181.231 165.000 180.968 165.000 180.700 Z"
       stroke="rgb(0,0,255)"
       stroke-width="0.20"
       id="path18064" /><path
       d="M 17.400 182.100 C 17.132 182.100 16.869 182.023 16.643 181.878 C 16.417 181.733 16.238 181.526 16.127 181.282 C 16.015 181.037 15.976 180.766 16.014 180.501 C 16.052 180.235 16.166 179.986 16.342 179.783 C 16.518 179.580 16.748 179.432 17.006 179.357 C 17.263 179.281 17.537 179.281 17.794 179.357 C 18.052 179.432 18.282 179.580 18.458 179.783 C 18.634 179.986 18.748 180.235 18.786 180.501 C 18.824 180.766 18.785 181.037 18.673 181.282 C 18.562 181.526 18.383 181.733 18.157 181.878 C 17.931 182.023 17.668 182.100 17.400 182.100 Z"
       stroke="rgb(0,0,255)"
       stroke-width="0.20"
       id="path18066" /><path
       d="M 24.250 187.200 V 184.150 C 24.250 184.050 24.150 184.150 24.250 184.150 H 27.350 C 27.450 184.150 27.350 184.050 27.350 184.150 V 190.250 C 27.350 190.350 27.450 190.250 27.350 190.250 H 24.250 C 24.150 190.250 24.250 190.350 24.250 190.250 V 187.200 Z"
       stroke="rgb(0,0,255)"
       stroke-width="0.20"
       id="path18068" /><path
       d="M 24.250 199.200 V 196.150 C 24.250 196.050 24.150 196.150 24.250 196.150 H 27.350 C 27.450 196.150 27.350 196.050 27.350 196.150 V 202.250 C 27.350 202.350 27.450 202.250 27.350 202.250 H 24.250 C 24.150 202.250 24.250 202.350 24.250 202.250 V 199.200 Z"
       stroke="rgb(0,0,255)"
       stroke-width="0.20"
       id="path18070" /><path
       d="M 24.250 211.200 V 208.150 C 24.250 208.050 24.150 208.150 24.250 208.150 H 27.350 C 27.450 208.150 27.350 208.050 27.350 208.150 V 214.250 C 27.350 214.350 27.450 214.250 27.350 214.250 H 24.250 C 24.150 214.250 24.250 214.350 24.250 214.250 V 211.200 Z"
       stroke="rgb(0,0,255)"
       stroke-width="0.20"
       id="path18072" /><path
       d="M 24.250 223.200 V 220.150 C 24.250 220.050 24.150 220.150 24.250 220.150 H 27.350 C 27.450 220.150 27.350 220.050 27.350 220.150 V 226.250 C 27.350 226.350 27.450 226.250 27.350 226.250 H 24.250 C 24.150 226.250 24.250 226.350 24.250 226.250 V 223.200 Z"
       stroke="rgb(0,0,255)"
       stroke-width="0.20"
       id="path18074" /><path
       d="M 24.250 235.200 V 232.150 C 24.250 232.050 24.150 232.150 24.250 232.150 H 27.350 C 27.450 232.150 27.350 232.050 27.350 232.150 V 238.250 C 27.350 238.350 27.450 238.250 27.350 238.250 H 24.250 C 24.150 238.250 24.250 238.350 24.250 238.250 V 235.200 Z"
       stroke="rgb(0,0,255)"
       stroke-width="0.20"
       id="path18076" /><path
       d="M 24.250 247.200 V 244.150 C 24.250 244.050 24.150 244.150 24.250 244.150 H 27.350 C 27.450 244.150 27.350 244.050 27.350 244.150 V 250.250 C 27.350 250.350 27.450 250.250 27.350 250.250 H 24.250 C 24.150 250.250 24.250 250.350 24.250 250.250 V 247.200 Z"
       stroke="rgb(0,0,255)"
       stroke-width="0.20"
       id="path18078" /><path
       d="M 24.250 259.200 V 256.150 C 24.250 256.050 24.150 256.150 24.250 256.150 H 27.350 C 27.450 256.150 27.350 256.050 27.350 256.150 V 262.250 C 27.350 262.350 27.450 262.250 27.350 262.250 H 24.250 C 24.150 262.250 24.250 262.350 24.250 262.250 V 259.200 Z"
       stroke="rgb(0,0,255)"
       stroke-width="0.20"
       id="path18080" /><path
       d="M 24.250 271.200 V 268.150 C 24.250 268.050 24.150 268.150 24.250 268.150 H 27.350 C 27.450 268.150 27.350 268.050 27.350 268.150 V 274.250 C 27.350 274.350 27.450 274.250 27.350 274.250 H 24.250 C 24.150 274.250 24.250 274.350 24.250 274.250 V 271.200 Z"
       stroke="rgb(0,0,255)"
       stroke-width="0.20"
       id="path18082" /><path
       d="M 24.250 283.200 V 280.150 C 24.250 280.050 24.150 280.150 24.250 280.150 H 27.350 C 27.450 280.150 27.350 280.050 27.350 280.150 V 286.250 C 27.350 286.350 27.450 286.250 27.350 286.250 H 24.250 C 24.150 286.250 24.250 286.350 24.250 286.250 V 283.200 Z"
       stroke="rgb(0,0,255)"
       stroke-width="0.20"
       id="path18084" /><path
       d="M 24.250 295.200 V 292.150 C 24.250 292.050 24.150 292.150 24.250 292.150 H 27.350 C 27.450 292.150 27.350 292.050 27.350 292.150 V 298.250 C 27.350 298.350 27.450 298.250 27.350 298.250 H 24.250 C 24.150 298.250 24.250 298.350 24.250 298.250 V 295.200 Z"
       stroke="rgb(0,0,255)"
       stroke-width="0.20"
       id="path18086" /></g></svg>
