<?xml version="1.0" encoding="UTF-8" standalone="no"?>
<svg
   width="398.40mm"
   height="966.65mm"
   viewBox="0.0 0.0 398.40 966.65"
   version="1.1"
   id="svg25282"
   sodipodi:docname="gitter.svg"
   inkscape:version="1.2.2 (b0a84865, 2022-12-01)"
   xmlns:inkscape="http://www.inkscape.org/namespaces/inkscape"
   xmlns:sodipodi="http://sodipodi.sourceforge.net/DTD/sodipodi-0.dtd"
   xmlns="http://www.w3.org/2000/svg"
   xmlns:svg="http://www.w3.org/2000/svg"
   xmlns:rdf="http://www.w3.org/1999/02/22-rdf-syntax-ns#"
   xmlns:cc="http://creativecommons.org/ns#"
   xmlns:dc="http://purl.org/dc/elements/1.1/">
  <defs
     id="defs25286" />
  <sodipodi:namedview
     id="namedview25284"
     pagecolor="#ffffff"
     bordercolor="#666666"
     borderopacity="1.0"
     inkscape:showpageshadow="2"
     inkscape:pageopacity="0.0"
     inkscape:pagecheckerboard="0"
     inkscape:deskcolor="#d1d1d1"
     inkscape:document-units="mm"
     showgrid="false"
     inkscape:zoom="0.45254834"
     inkscape:cx="1024.2"
     inkscape:cy="374.54562"
     inkscape:window-width="1920"
     inkscape:window-height="1027"
     inkscape:window-x="1920"
     inkscape:window-y="25"
     inkscape:window-maximized="1"
     inkscape:current-layer="p-6" />
  <!--
CanStorage - Storage box for round containers



for AA batteries:

![CanStorage for AA batteries](static/samples/CanStorageAA.jpg)

for canned tomatos:



Created with Boxes.py (https://festi.info/boxes.py)
Creation date: 2023-01-07 22:05:30
Command line (remove spaces between dashes): boxes CanStorage - -FingerJoint_angle=90.0 - -FingerJoint_style=rectangular - -FingerJoint_surroundingspaces=0.0 - -FingerJoint_edge_width=1.0 - -FingerJoint_extra_length=0.0 - -FingerJoint_finger=2.0 - -FingerJoint_play=0.0 - -FingerJoint_space=2.0 - -FingerJoint_width=1.0 - -Stackable_angle=60 - -Stackable_height=2.0 - -Stackable_holedistance=1.0 - -Stackable_width=4.0 - -fillHoles_bar_length=50 - -fillHoles_fill_pattern=hbar - -fillHoles_hole_max_radius=3.0 - -fillHoles_hole_min_radius=0.5 - -fillHoles_hole_style=round - -fillHoles_max_random=1000 - -fillHoles_space_between_holes=4.0 - -fillHoles_space_to_border=4.0 '- -top_edge=&#352;' '- -bottom_edge=&#353;' - -canDiameter=60 - -canHight=110 - -canNum=12 - -chuteAngle=5.0 - -thickness=3.0 - -format=svg - -tabs=0.0 - -debug=0 - -labels=0 - -labels=1 - -reference=100 - -inner_corners=loop - -burn=0.1
Url: http://localhost:8000/CanStorage?FingerJoint_angle=90.0&FingerJoint_style=rectangular&FingerJoint_surroundingspaces=0.0&FingerJoint_edge_width=1.0&FingerJoint_extra_length=0.0&FingerJoint_finger=2.0&FingerJoint_play=0.0&FingerJoint_space=2.0&FingerJoint_width=1.0&Stackable_angle=60&Stackable_height=2.0&Stackable_holedistance=1.0&Stackable_width=4.0&fillHoles_bar_length=50&fillHoles_fill_pattern=hbar&fillHoles_hole_max_radius=3.0&fillHoles_hole_min_radius=0.5&fillHoles_hole_style=round&fillHoles_max_random=1000&fillHoles_space_between_holes=4.0&fillHoles_space_to_border=4.0&top_edge=%C5%A0&bottom_edge=%C5%A1&canDiameter=60&canHight=110&canNum=12&chuteAngle=5.0&thickness=3.0&format=svg&tabs=0.0&debug=0&labels=0&labels=1&reference=100&inner_corners=loop&burn=0.1&render=1
SettingsUrl: http://localhost:8000/CanStorage?FingerJoint_angle=90.0&FingerJoint_style=rectangular&FingerJoint_surroundingspaces=0.0&FingerJoint_edge_width=1.0&FingerJoint_extra_length=0.0&FingerJoint_finger=2.0&FingerJoint_play=0.0&FingerJoint_space=2.0&FingerJoint_width=1.0&Stackable_angle=60&Stackable_height=2.0&Stackable_holedistance=1.0&Stackable_width=4.0&fillHoles_bar_length=50&fillHoles_fill_pattern=hbar&fillHoles_hole_max_radius=3.0&fillHoles_hole_min_radius=0.5&fillHoles_hole_style=round&fillHoles_max_random=1000&fillHoles_space_between_holes=4.0&fillHoles_space_to_border=4.0&top_edge=%C5%A0&bottom_edge=%C5%A1&canDiameter=60&canHight=110&canNum=12&chuteAngle=5.0&thickness=3.0&format=svg&tabs=0.0&debug=0&labels=0&labels=1&reference=100&inner_corners=loop&burn=0.1
-->
  <title
     id="title24758">ElectronicsBox</title>
  <metadata
     id="metadata24760">
    <rdf:RDF>
      <cc:Work>
        <dc:title>ElectronicsBox</dc:title>
        <dc:date>2023-01-07 22:05:30</dc:date>
        <dc:source>http://localhost:8000/CanStorage?FingerJoint_angle=90.0&amp;FingerJoint_style=rectangular&amp;FingerJoint_surroundingspaces=0.0&amp;FingerJoint_edge_width=1.0&amp;FingerJoint_extra_length=0.0&amp;FingerJoint_finger=2.0&amp;FingerJoint_play=0.0&amp;FingerJoint_space=2.0&amp;FingerJoint_width=1.0&amp;Stackable_angle=60&amp;Stackable_height=2.0&amp;Stackable_holedistance=1.0&amp;Stackable_width=4.0&amp;fillHoles_bar_length=50&amp;fillHoles_fill_pattern=hbar&amp;fillHoles_hole_max_radius=3.0&amp;fillHoles_hole_min_radius=0.5&amp;fillHoles_hole_style=round&amp;fillHoles_max_random=1000&amp;fillHoles_space_between_holes=4.0&amp;fillHoles_space_to_border=4.0&amp;top_edge=%C5%A0&amp;bottom_edge=%C5%A1&amp;canDiameter=60&amp;canHight=110&amp;canNum=12&amp;chuteAngle=5.0&amp;thickness=3.0&amp;format=svg&amp;tabs=0.0&amp;debug=0&amp;labels=0&amp;labels=1&amp;reference=100&amp;inner_corners=loop&amp;burn=0.1&amp;render=1</dc:source>
        <dc:description>Storage box for round containers


for AA batteries:

![CanStorage for AA batteries](static/samples/CanStorageAA.jpg)

for canned tomatos:


Created with Boxes.py (https://festi.info/boxes.py)
Command line: boxes CanStorage --FingerJoint_angle=90.0 --FingerJoint_style=rectangular --FingerJoint_surroundingspaces=0.0 --FingerJoint_edge_width=1.0 --FingerJoint_extra_length=0.0 --FingerJoint_finger=2.0 --FingerJoint_play=0.0 --FingerJoint_space=2.0 --FingerJoint_width=1.0 --Stackable_angle=60 --Stackable_height=2.0 --Stackable_holedistance=1.0 --Stackable_width=4.0 --fillHoles_bar_length=50 --fillHoles_fill_pattern=hbar --fillHoles_hole_max_radius=3.0 --fillHoles_hole_min_radius=0.5 --fillHoles_hole_style=round --fillHoles_max_random=1000 --fillHoles_space_between_holes=4.0 --fillHoles_space_to_border=4.0 '--top_edge=Š' '--bottom_edge=š' --canDiameter=60 --canHight=110 --canNum=12 --chuteAngle=5.0 --thickness=3.0 --format=svg --tabs=0.0 --debug=0 --labels=0 --labels=1 --reference=100 --inner_corners=loop --burn=0.1
Url: http://localhost:8000/CanStorage?FingerJoint_angle=90.0&amp;FingerJoint_style=rectangular&amp;FingerJoint_surroundingspaces=0.0&amp;FingerJoint_edge_width=1.0&amp;FingerJoint_extra_length=0.0&amp;FingerJoint_finger=2.0&amp;FingerJoint_play=0.0&amp;FingerJoint_space=2.0&amp;FingerJoint_width=1.0&amp;Stackable_angle=60&amp;Stackable_height=2.0&amp;Stackable_holedistance=1.0&amp;Stackable_width=4.0&amp;fillHoles_bar_length=50&amp;fillHoles_fill_pattern=hbar&amp;fillHoles_hole_max_radius=3.0&amp;fillHoles_hole_min_radius=0.5&amp;fillHoles_hole_style=round&amp;fillHoles_max_random=1000&amp;fillHoles_space_between_holes=4.0&amp;fillHoles_space_to_border=4.0&amp;top_edge=%C5%A0&amp;bottom_edge=%C5%A1&amp;canDiameter=60&amp;canHight=110&amp;canNum=12&amp;chuteAngle=5.0&amp;thickness=3.0&amp;format=svg&amp;tabs=0.0&amp;debug=0&amp;labels=0&amp;labels=1&amp;reference=100&amp;inner_corners=loop&amp;burn=0.1&amp;render=1
SettingsUrl: http://localhost:8000/CanStorage?FingerJoint_angle=90.0&amp;FingerJoint_style=rectangular&amp;FingerJoint_surroundingspaces=0.0&amp;FingerJoint_edge_width=1.0&amp;FingerJoint_extra_length=0.0&amp;FingerJoint_finger=2.0&amp;FingerJoint_play=0.0&amp;FingerJoint_space=2.0&amp;FingerJoint_width=1.0&amp;Stackable_angle=60&amp;Stackable_height=2.0&amp;Stackable_holedistance=1.0&amp;Stackable_width=4.0&amp;fillHoles_bar_length=50&amp;fillHoles_fill_pattern=hbar&amp;fillHoles_hole_max_radius=3.0&amp;fillHoles_hole_min_radius=0.5&amp;fillHoles_hole_style=round&amp;fillHoles_max_random=1000&amp;fillHoles_space_between_holes=4.0&amp;fillHoles_space_to_border=4.0&amp;top_edge=%C5%A0&amp;bottom_edge=%C5%A1&amp;canDiameter=60&amp;canHight=110&amp;canNum=12&amp;chuteAngle=5.0&amp;thickness=3.0&amp;format=svg&amp;tabs=0.0&amp;debug=0&amp;labels=0&amp;labels=1&amp;reference=100&amp;inner_corners=loop&amp;burn=0.1
</dc:description>
      </cc:Work>
    </rdf:RDF>
  </metadata>
  <g
     id="p-6"
     style="fill:none;stroke-linecap:round;stroke-linejoin:round"
     transform="translate(187.76654,-968.38861)">
    <path
       d="m -168.1569,1039.1699 h 25 c 0.495,0 0.981,-0.13 1.409,-0.378 0.429,-0.247 0.784,-0.603 1.032,-1.031 0.247,-0.429 0.377,-0.915 0.377,-1.409 0,-0.495 -0.13,-0.981 -0.377,-1.409 -0.248,-0.429 -0.603,-0.785 -1.032,-1.032 -0.428,-0.247 -0.914,-0.378 -1.409,-0.378 h -16.34263 -8.65737 c -0.495,0 -0.98,0.131 -1.409,0.378 -0.428,0.247 -0.784,0.603 -1.031,1.032 -0.248,0.428 -0.378,0.914 -0.378,1.409 0,0.494 0.13,0.98 0.378,1.409 0.247,0.428 0.603,0.784 1.031,1.031 0.429,0.248 0.914,0.378 1.409,0.378 z m 34.837,-5.637 h 50.000001 c 0.494,0 0.98,0.13 1.409,0.378 0.428,0.247 0.784,0.603 1.031,1.031 0.248,0.429 0.378,0.915 0.378,1.409 0,0.495 -0.13,0.981 -0.378,1.409 -0.247,0.429 -0.603,0.785 -1.031,1.032 -0.429,0.247 -0.915,0.378 -1.409,0.378 H -133.3199 c -0.495,0 -0.981,-0.131 -1.41,-0.378 -0.428,-0.247 -0.784,-0.603 -1.031,-1.032 -0.247,-0.428 -0.378,-0.914 -0.378,-1.409 0,-0.494 0.131,-0.98 0.378,-1.409 0.247,-0.428 0.603,-0.784 1.031,-1.031 0.429,-0.248 0.915,-0.378 1.41,-0.378 z m 59.836001,0 h 50.000001 c 0.495,0 0.981,0.13 1.409,0.378 0.428,0.247 0.784,0.603 1.032,1.031 0.247,0.429 0.377,0.915 0.377,1.409 0,0.495 -0.13,0.981 -0.377,1.409 -0.248,0.429 -0.604,0.785 -1.032,1.032 -0.428,0.247 -0.914,0.378 -1.409,0.378 h -50.000001 c -0.495,0 -0.981,-0.131 -1.409,-0.378 -0.429,-0.247 -0.784,-0.603 -1.032,-1.032 -0.247,-0.428 -0.377,-0.914 -0.377,-1.409 0,-0.494 0.13,-0.98 0.377,-1.409 0.248,-0.428 0.603,-0.784 1.032,-1.031 0.428,-0.248 0.914,-0.378 1.409,-0.378 z m 59.836001,0 h 50 c 0.495,0 0.981,0.13 1.409,0.378 0.429,0.247 0.785,0.603 1.032,1.031 0.247,0.429 0.377,0.915 0.377,1.409 0,0.495 -0.13,0.981 -0.377,1.409 -0.247,0.429 -0.603,0.785 -1.032,1.032 -0.428,0.247 -0.914,0.378 -1.409,0.378 h -50 c -0.494,0 -0.98,-0.131 -1.409,-0.378 -0.428,-0.247 -0.784,-0.603 -1.031,-1.032 -0.248,-0.428 -0.378,-0.914 -0.378,-1.409 0,-0.494 0.13,-0.98 0.378,-1.409 0.247,-0.428 0.603,-0.784 1.031,-1.031 0.429,-0.248 0.915,-0.378 1.409,-0.378 z m 59.837,0 h 50.000001 c 0.494,0 0.98,0.13 1.409,0.378 0.428,0.247 0.784,0.603 1.031,1.031 0.248,0.429 0.378,0.915 0.378,1.409 0,0.495 -0.13,0.981 -0.378,1.409 -0.247,0.429 -0.603,0.785 -1.031,1.032 -0.429,0.247 -0.915,0.378 -1.409,0.378 H 46.189102 c -0.495,0 -0.981,-0.131 -1.409,-0.378 -0.429,-0.247 -0.785,-0.603 -1.032,-1.032 -0.247,-0.428 -0.378,-0.914 -0.378,-1.409 0,-0.494 0.131,-0.98 0.378,-1.409 0.247,-0.428 0.603,-0.784 1.032,-1.031 0.428,-0.248 0.914,-0.378 1.409,-0.378 z m -214.346002,-9.836 h 50 c 0.495,0 0.981,0.13 1.409,0.378 0.429,0.247 0.784,0.603 1.032,1.031 0.247,0.428 0.377,0.914 0.377,1.409 0,0.495 -0.13,0.981 -0.377,1.409 -0.248,0.429 -0.603,0.784 -1.032,1.032 -0.428,0.247 -0.914,0.377 -1.409,0.377 h -50 c -0.495,0 -0.98,-0.13 -1.409,-0.377 -0.428,-0.248 -0.784,-0.603 -1.031,-1.032 -0.248,-0.428 -0.378,-0.914 -0.378,-1.409 0,-0.495 0.13,-0.981 0.378,-1.409 0.247,-0.428 0.603,-0.784 1.031,-1.031 0.429,-0.248 0.914,-0.378 1.409,-0.378 z m 59.837,0 h 50.000001 c 0.494,0 0.98,0.13 1.409,0.378 0.428,0.247 0.784,0.603 1.031,1.031 0.248,0.428 0.378,0.914 0.378,1.409 0,0.495 -0.13,0.981 -0.378,1.409 -0.247,0.429 -0.603,0.784 -1.031,1.032 -0.429,0.247 -0.915,0.377 -1.409,0.377 H -108.3199 c -0.495,0 -0.981,-0.13 -1.41,-0.377 -0.428,-0.248 -0.784,-0.603 -1.031,-1.032 -0.247,-0.428 -0.378,-0.914 -0.378,-1.409 0,-0.495 0.131,-0.981 0.378,-1.409 0.247,-0.428 0.603,-0.784 1.031,-1.031 0.429,-0.248 0.915,-0.378 1.41,-0.378 z m 59.836001,0 H 1.516102 c 0.495,0 0.981,0.13 1.409,0.378 0.428,0.247 0.784,0.603 1.032,1.031 0.247,0.428 0.377,0.914 0.377,1.409 0,0.495 -0.13,0.981 -0.377,1.409 -0.248,0.429 -0.604,0.784 -1.032,1.032 -0.428,0.247 -0.914,0.377 -1.409,0.377 h -50.000001 c -0.495,0 -0.981,-0.13 -1.409,-0.377 -0.429,-0.248 -0.784,-0.603 -1.032,-1.032 -0.247,-0.428 -0.377,-0.914 -0.377,-1.409 0,-0.495 0.13,-0.981 0.377,-1.409 0.248,-0.428 0.603,-0.784 1.032,-1.031 0.428,-0.248 0.914,-0.378 1.409,-0.378 z m 59.836001,0 h 50.000001 c 0.495,0 0.981,0.13 1.409,0.378 0.429,0.247 0.785,0.603 1.032,1.031 0.247,0.428 0.377,0.914 0.377,1.409 0,0.495 -0.13,0.981 -0.377,1.409 -0.247,0.429 -0.603,0.784 -1.032,1.032 -0.428,0.247 -0.914,0.377 -1.409,0.377 H 11.352102 c -0.494,0 -0.98,-0.13 -1.4089999,-0.377 -0.4280001,-0.248 -0.7840001,-0.603 -1.0310001,-1.032 -0.248,-0.428 -0.378,-0.914 -0.378,-1.409 0,-0.495 0.13,-0.981 0.378,-1.409 0.247,-0.428 0.603,-0.784 1.0310001,-1.031 0.4289999,-0.248 0.9149999,-0.378 1.4089999,-0.378 z m -179.509002,-9.836 h 25 c 0.495,0 0.981,0.13 1.409,0.377 0.429,0.248 0.784,0.603 1.032,1.032 0.247,0.428 0.377,0.914 0.377,1.409 0,0.495 -0.13,0.981 -0.377,1.409 -0.248,0.428 -0.603,0.784 -1.032,1.031 -0.428,0.248 -0.914,0.378 -1.409,0.378 h -25 c -0.495,0 -0.98,-0.13 -1.409,-0.378 -0.428,-0.247 -0.784,-0.603 -1.031,-1.031 -0.248,-0.428 -0.378,-0.914 -0.378,-1.409 0,-0.495 0.13,-0.981 0.378,-1.409 0.247,-0.429 0.603,-0.784 1.031,-1.032 0.429,-0.247 0.914,-0.377 1.409,-0.377 z m 34.837,0 h 50.000001 c 0.494,0 0.98,0.13 1.409,0.377 0.428,0.248 0.784,0.603 1.031,1.032 0.248,0.428 0.378,0.914 0.378,1.409 0,0.495 -0.13,0.981 -0.378,1.409 -0.247,0.428 -0.603,0.784 -1.031,1.031 -0.429,0.248 -0.915,0.378 -1.409,0.378 H -133.3199 c -0.495,0 -0.981,-0.13 -1.41,-0.378 -0.428,-0.247 -0.784,-0.603 -1.031,-1.031 -0.247,-0.428 -0.378,-0.914 -0.378,-1.409 0,-0.495 0.131,-0.981 0.378,-1.409 0.247,-0.429 0.603,-0.784 1.031,-1.032 0.429,-0.247 0.915,-0.377 1.41,-0.377 z m 59.836001,0 h 50.000001 c 0.495,0 0.981,0.13 1.409,0.377 0.428,0.248 0.784,0.603 1.032,1.032 0.247,0.428 0.377,0.914 0.377,1.409 0,0.495 -0.13,0.981 -0.377,1.409 -0.248,0.428 -0.604,0.784 -1.032,1.031 -0.428,0.248 -0.914,0.378 -1.409,0.378 h -50.000001 c -0.495,0 -0.981,-0.13 -1.409,-0.378 -0.429,-0.247 -0.784,-0.603 -1.032,-1.031 -0.247,-0.428 -0.377,-0.914 -0.377,-1.409 0,-0.495 0.13,-0.981 0.377,-1.409 0.248,-0.429 0.603,-0.784 1.032,-1.032 0.428,-0.247 0.914,-0.377 1.409,-0.377 z m 59.836001,0 h 50 c 0.495,0 0.981,0.13 1.409,0.377 0.429,0.248 0.785,0.603 1.032,1.032 0.247,0.428 0.377,0.914 0.377,1.409 0,0.495 -0.13,0.981 -0.377,1.409 -0.247,0.428 -0.603,0.784 -1.032,1.031 -0.428,0.248 -0.914,0.378 -1.409,0.378 h -50 c -0.494,0 -0.98,-0.13 -1.409,-0.378 -0.428,-0.247 -0.784,-0.603 -1.031,-1.031 -0.248,-0.428 -0.378,-0.914 -0.378,-1.409 0,-0.495 0.13,-0.981 0.378,-1.409 0.247,-0.429 0.603,-0.784 1.031,-1.032 0.429,-0.247 0.915,-0.377 1.409,-0.377 z m 59.837,0 h 50.000001 c 0.494,0 0.98,0.13 1.409,0.377 0.428,0.248 0.784,0.603 1.031,1.032 0.248,0.428 0.378,0.914 0.378,1.409 0,0.495 -0.13,0.981 -0.378,1.409 -0.247,0.428 -0.603,0.784 -1.031,1.031 -0.429,0.248 -0.915,0.378 -1.409,0.378 H 46.189102 c -0.495,0 -0.981,-0.13 -1.409,-0.378 -0.429,-0.247 -0.785,-0.603 -1.032,-1.031 -0.247,-0.428 -0.378,-0.914 -0.378,-1.409 0,-0.495 0.131,-0.981 0.378,-1.409 0.247,-0.429 0.603,-0.784 1.032,-1.032 0.428,-0.247 0.914,-0.377 1.409,-0.377 z m -214.346002,-9.837 h 50 c 0.495,0 0.981,0.131 1.409,0.378 0.429,0.247 0.784,0.603 1.032,1.032 0.247,0.428 0.377,0.914 0.377,1.409 0,0.494 -0.13,0.98 -0.377,1.409 -0.248,0.428 -0.603,0.784 -1.032,1.031 -0.428,0.248 -0.914,0.378 -1.409,0.378 h -50 c -0.495,0 -0.98,-0.13 -1.409,-0.378 -0.428,-0.247 -0.784,-0.603 -1.031,-1.031 -0.248,-0.429 -0.378,-0.915 -0.378,-1.409 0,-0.495 0.13,-0.981 0.378,-1.409 0.247,-0.429 0.603,-0.785 1.031,-1.032 0.429,-0.247 0.914,-0.378 1.409,-0.378 z m 59.837,0 h 50.000001 c 0.494,0 0.98,0.131 1.409,0.378 0.428,0.247 0.784,0.603 1.031,1.032 0.248,0.428 0.378,0.914 0.378,1.409 0,0.494 -0.13,0.98 -0.378,1.409 -0.247,0.428 -0.603,0.784 -1.031,1.031 -0.429,0.248 -0.915,0.378 -1.409,0.378 H -108.3199 c -0.495,0 -0.981,-0.13 -1.41,-0.378 -0.428,-0.247 -0.784,-0.603 -1.031,-1.031 -0.247,-0.429 -0.378,-0.915 -0.378,-1.409 0,-0.495 0.131,-0.981 0.378,-1.409 0.247,-0.429 0.603,-0.785 1.031,-1.032 0.429,-0.247 0.915,-0.378 1.41,-0.378 z m 59.836001,0 H 1.516102 c 0.495,0 0.981,0.131 1.409,0.378 0.428,0.247 0.784,0.603 1.032,1.032 0.247,0.428 0.377,0.914 0.377,1.409 0,0.494 -0.13,0.98 -0.377,1.409 -0.248,0.428 -0.604,0.784 -1.032,1.031 -0.428,0.248 -0.914,0.378 -1.409,0.378 h -50.000001 c -0.495,0 -0.981,-0.13 -1.409,-0.378 -0.429,-0.247 -0.784,-0.603 -1.032,-1.031 -0.247,-0.429 -0.377,-0.915 -0.377,-1.409 0,-0.495 0.13,-0.981 0.377,-1.409 0.248,-0.429 0.603,-0.785 1.032,-1.032 0.428,-0.247 0.914,-0.378 1.409,-0.378 z m 59.836001,0 h 50.000001 c 0.495,0 0.981,0.131 1.409,0.378 0.429,0.247 0.785,0.603 1.032,1.032 0.247,0.428 0.377,0.914 0.377,1.409 0,0.494 -0.13,0.98 -0.377,1.409 -0.247,0.428 -0.603,0.784 -1.032,1.031 -0.428,0.248 -0.914,0.378 -1.409,0.378 H 11.352102 c -0.494,0 -0.98,-0.13 -1.4089999,-0.378 -0.4280001,-0.247 -0.7840001,-0.603 -1.0310001,-1.031 -0.248,-0.429 -0.378,-0.915 -0.378,-1.409 0,-0.495 0.13,-0.981 0.378,-1.409 0.247,-0.429 0.603,-0.785 1.0310001,-1.032 0.4289999,-0.247 0.9149999,-0.378 1.4089999,-0.378 z M -168.1569,994.18794 h 25 c 0.495,0 0.981,0.13 1.409,0.378 0.429,0.247 0.784,0.603 1.032,1.031 0.247,0.429 0.377,0.915 0.377,1.409 0,0.495 -0.13,0.981 -0.377,1.409 -0.248,0.429 -0.603,0.785 -1.032,1.032 -0.428,0.247 -0.914,0.378 -1.409,0.378 h -25 c -0.495,0 -0.98,-0.131 -1.409,-0.378 -0.428,-0.247 -0.784,-0.603 -1.031,-1.032 -0.248,-0.428 -0.378,-0.914 -0.378,-1.409 0,-0.494 0.13,-0.98 0.378,-1.409 0.247,-0.428 0.603,-0.784 1.031,-1.031 0.429,-0.248 0.914,-0.378 1.409,-0.378 z m 34.837,0 h 50.000001 c 0.494,0 0.98,0.13 1.409,0.378 0.428,0.247 0.784,0.603 1.031,1.031 0.248,0.429 0.378,0.915 0.378,1.409 0,0.495 -0.13,0.981 -0.378,1.409 -0.247,0.429 -0.603,0.785 -1.031,1.032 -0.429,0.247 -0.915,0.378 -1.409,0.378 H -133.3199 c -0.495,0 -0.981,-0.131 -1.41,-0.378 -0.428,-0.247 -0.784,-0.603 -1.031,-1.032 -0.247,-0.428 -0.378,-0.914 -0.378,-1.409 0,-0.494 0.131,-0.98 0.378,-1.409 0.247,-0.428 0.603,-0.784 1.031,-1.031 0.429,-0.248 0.915,-0.378 1.41,-0.378 z m 59.836001,0 h 50.000001 c 0.495,0 0.981,0.13 1.409,0.378 0.428,0.247 0.784,0.603 1.032,1.031 0.247,0.429 0.377,0.915 0.377,1.409 0,0.495 -0.13,0.981 -0.377,1.409 -0.248,0.429 -0.604,0.785 -1.032,1.032 -0.428,0.247 -0.914,0.378 -1.409,0.378 h -50.000001 c -0.495,0 -0.981,-0.131 -1.409,-0.378 -0.429,-0.247 -0.784,-0.603 -1.032,-1.032 -0.247,-0.428 -0.377,-0.914 -0.377,-1.409 0,-0.494 0.13,-0.98 0.377,-1.409 0.248,-0.428 0.603,-0.784 1.032,-1.031 0.428,-0.248 0.914,-0.378 1.409,-0.378 z m 59.836001,0 h 50 c 0.495,0 0.981,0.13 1.409,0.378 0.429,0.247 0.785,0.603 1.032,1.031 0.247,0.429 0.377,0.915 0.377,1.409 0,0.495 -0.13,0.981 -0.377,1.409 -0.247,0.429 -0.603,0.785 -1.032,1.032 -0.428,0.247 -0.914,0.378 -1.409,0.378 h -50 c -0.494,0 -0.98,-0.131 -1.409,-0.378 -0.428,-0.247 -0.784,-0.603 -1.031,-1.032 -0.248,-0.428 -0.378,-0.914 -0.378,-1.409 0,-0.494 0.13,-0.98 0.378,-1.409 0.247,-0.428 0.603,-0.784 1.031,-1.031 0.429,-0.248 0.915,-0.378 1.409,-0.378 z m 59.837,0 h 50.000001 c 0.494,0 0.98,0.13 1.409,0.378 0.428,0.247 0.784,0.603 1.031,1.031 0.248,0.429 0.378,0.915 0.378,1.409 0,0.495 -0.13,0.981 -0.378,1.409 -0.247,0.429 -0.603,0.785 -1.031,1.032 -0.429,0.247 -0.915,0.378 -1.409,0.378 H 46.189102 c -0.495,0 -0.981,-0.131 -1.409,-0.378 -0.429,-0.247 -0.785,-0.603 -1.032,-1.032 -0.247,-0.428 -0.378,-0.914 -0.378,-1.409 0,-0.494 0.131,-0.98 0.378,-1.409 0.247,-0.428 0.603,-0.784 1.032,-1.031 0.428,-0.248 0.914,-0.378 1.409,-0.378 z m -214.346002,-9.836 h 50 c 0.495,0 0.981,0.13 1.409,0.377 0.429,0.248 0.784,0.604 1.032,1.032 0.247,0.428 0.377,0.914 0.377,1.409 0,0.495 -0.13,0.981 -0.377,1.409 -0.248,0.429 -0.603,0.784 -1.032,1.032 -0.428,0.247 -0.914,0.377 -1.409,0.377 h -50 c -0.495,0 -0.98,-0.13 -1.409,-0.377 -0.428,-0.248 -0.784,-0.603 -1.031,-1.032 -0.248,-0.428 -0.378,-0.914 -0.378,-1.409 0,-0.495 0.13,-0.981 0.378,-1.409 0.247,-0.428 0.603,-0.784 1.031,-1.032 0.429,-0.247 0.914,-0.377 1.409,-0.377 z m 59.837,0 h 50.000001 c 0.494,0 0.98,0.13 1.409,0.377 0.428,0.248 0.784,0.604 1.031,1.032 0.248,0.428 0.378,0.914 0.378,1.409 0,0.495 -0.13,0.981 -0.378,1.409 -0.247,0.429 -0.603,0.784 -1.031,1.032 -0.429,0.247 -0.915,0.377 -1.409,0.377 H -108.3199 c -0.495,0 -0.981,-0.13 -1.41,-0.377 -0.428,-0.248 -0.784,-0.603 -1.031,-1.032 -0.247,-0.428 -0.378,-0.914 -0.378,-1.409 0,-0.495 0.131,-0.981 0.378,-1.409 0.247,-0.428 0.603,-0.784 1.031,-1.032 0.429,-0.247 0.915,-0.377 1.41,-0.377 z m 59.836001,0 H 1.516102 c 0.495,0 0.981,0.13 1.409,0.377 0.428,0.248 0.784,0.604 1.032,1.032 0.247,0.428 0.377,0.914 0.377,1.409 0,0.495 -0.13,0.981 -0.377,1.409 -0.248,0.429 -0.604,0.784 -1.032,1.032 -0.428,0.247 -0.914,0.377 -1.409,0.377 h -50.000001 c -0.495,0 -0.981,-0.13 -1.409,-0.377 -0.429,-0.248 -0.784,-0.603 -1.032,-1.032 -0.247,-0.428 -0.377,-0.914 -0.377,-1.409 0,-0.495 0.13,-0.981 0.377,-1.409 0.248,-0.428 0.603,-0.784 1.032,-1.032 0.428,-0.247 0.914,-0.377 1.409,-0.377 z m 59.836001,0 h 50.000001 c 0.495,0 0.981,0.13 1.409,0.377 0.429,0.248 0.785,0.604 1.032,1.032 0.247,0.428 0.377,0.914 0.377,1.409 0,0.495 -0.13,0.981 -0.377,1.409 -0.247,0.429 -0.603,0.784 -1.032,1.032 -0.428,0.247 -0.914,0.377 -1.409,0.377 H 11.352102 c -0.494,0 -0.98,-0.13 -1.4089999,-0.377 -0.4280001,-0.248 -0.7840001,-0.603 -1.0310001,-1.032 -0.248,-0.428 -0.378,-0.914 -0.378,-1.409 0,-0.495 0.13,-0.981 0.378,-1.409 0.247,-0.428 0.603,-0.784 1.0310001,-1.032 0.4289999,-0.247 0.9149999,-0.377 1.4089999,-0.377 z"
       stroke="#000000"
       stroke-width="0.2"
       id="path25222"
       sodipodi:nodetypes="ssccsccscsccsccsssccsccssccsccsssccscsssccsccsssccsccssccsccsssccsccssccsccsssccsccssccsccsssccsccssccsscsssccsccssccsccssscssccssccsccsssccsccssccsccsssccsccsscssccsssccsccssccsccsssccsscssccsccsssccsccsscssccsssccsccssccsccsssccsccssccsccsssscsccssccsccsssccsccssccsccsssccsccssccsccsssccsccssccsccsssccscsssccsccsssccsccssccsccsssccsccssccsccsssccsccssccsccsssccsccssccsscsssccsccssccsccssscssccssccsccs" />
    <path
       d="m 71.15146,1029.2456 h 25 c 0.495001,0 0.981,-0.13 1.409,-0.378 0.429,-0.247 0.784001,-0.603 1.032001,-1.031 0.246999,-0.429 0.376999,-0.915 0.376999,-1.409 0,-0.495 -0.13,-0.981 -0.376999,-1.409 -0.248001,-0.429 -0.603001,-0.785 -1.032001,-1.032 -0.428,-0.247 -0.913999,-0.378 -1.409,-0.378 H 79.80883 71.15146 c -0.495,0 -0.98,0.131 -1.409,0.378 -0.428,0.247 -0.784,0.603 -1.031,1.032 -0.248,0.428 -0.378,0.914 -0.378,1.409 0,0.494 0.13,0.98 0.378,1.409 0.247,0.428 0.603,0.784 1.031,1.031 0.429,0.248 0.914,0.378 1.409,0.378 z"
       style="fill:none;stroke:#000000;stroke-width:0.2;stroke-linecap:round;stroke-linejoin:round"
       id="path40179-4" />
    <path
       d="m 71.15146,1009.5056 h 25 c 0.495001,0 0.981,-0.13 1.409,-0.378 0.429,-0.247 0.784001,-0.603 1.032001,-1.031 0.246999,-0.429 0.376999,-0.915 0.376999,-1.409 0,-0.495 -0.13,-0.981 -0.376999,-1.409 -0.248001,-0.429 -0.603001,-0.785 -1.032001,-1.032 -0.428,-0.247 -0.913999,-0.378 -1.409,-0.378 H 79.80883 71.15146 c -0.495,0 -0.98,0.131 -1.409,0.378 -0.428,0.247 -0.784,0.603 -1.031,1.032 -0.248,0.428 -0.378,0.914 -0.378,1.409 0,0.494 0.13,0.98 0.378,1.409 0.247,0.428 0.603,0.784 1.031,1.031 0.429,0.248 0.914,0.378 1.409,0.378 z"
       style="fill:none;stroke:#000000;stroke-width:0.2;stroke-linecap:round;stroke-linejoin:round"
       id="path40179-4-0" />
    <path
       d="m 71.15146,989.84561 h 25 c 0.495001,0 0.981,-0.13 1.409,-0.378 0.429,-0.247 0.784001,-0.603 1.032001,-1.031 0.246999,-0.429 0.376999,-0.915 0.376999,-1.409 0,-0.495 -0.13,-0.981 -0.376999,-1.409 -0.248001,-0.429 -0.603001,-0.785 -1.032001,-1.032 -0.428,-0.247 -0.913999,-0.378 -1.409,-0.378 H 79.80883 71.15146 c -0.495,0 -0.98,0.131 -1.409,0.378 -0.428,0.247 -0.784,0.603 -1.031,1.032 -0.248,0.428 -0.378,0.914 -0.378,1.409 0,0.494 0.13,0.98 0.378,1.409 0.247,0.428 0.603,0.784 1.031,1.031 0.429,0.248 0.914,0.378 1.409,0.378 z"
       style="fill:none;stroke:#000000;stroke-width:0.2;stroke-linecap:round;stroke-linejoin:round"
       id="path40179-4-5" />
  </g>
</svg>
