<?xml version="1.0" encoding="UTF-8" standalone="no"?>
<svg
   width="434.20mm"
   height="317.90mm"
   viewBox="0.0 0.0 434.20 317.90"
   version="1.1"
   id="svg20345"
   sodipodi:docname="powersupplybox_1.svg"
   inkscape:version="1.2.2 (b0a84865, 2022-12-01)"
   xml:space="preserve"
   xmlns:inkscape="http://www.inkscape.org/namespaces/inkscape"
   xmlns:sodipodi="http://sodipodi.sourceforge.net/DTD/sodipodi-0.dtd"
   xmlns="http://www.w3.org/2000/svg"
   xmlns:svg="http://www.w3.org/2000/svg"
   xmlns:rdf="http://www.w3.org/1999/02/22-rdf-syntax-ns#"
   xmlns:cc="http://creativecommons.org/ns#"
   xmlns:dc="http://purl.org/dc/elements/1.1/"><defs
     id="defs20349" /><sodipodi:namedview
     id="namedview20347"
     pagecolor="#ffffff"
     bordercolor="#666666"
     borderopacity="1.0"
     inkscape:showpageshadow="2"
     inkscape:pageopacity="0.0"
     inkscape:pagecheckerboard="0"
     inkscape:deskcolor="#d1d1d1"
     inkscape:document-units="mm"
     showgrid="false"
     inkscape:zoom="0.34706277"
     inkscape:cx="1259.1382"
     inkscape:cy="939.31136"
     inkscape:window-width="1387"
     inkscape:window-height="928"
     inkscape:window-x="0"
     inkscape:window-y="25"
     inkscape:window-maximized="0"
     inkscape:current-layer="svg20345" /><!--
ElectronicsBox - Closed box with screw on top and mounting holes

Created with Boxes.py (https://festi.info/boxes.py)
Creation date: 2023-01-07 21:43:29
Command line (remove spaces between dashes): boxes ElectronicsBox - -FingerJoint_angle=90.0 - -FingerJoint_style=rectangular - -FingerJoint_surroundingspaces=2.0 - -FingerJoint_edge_width=1.0 - -FingerJoint_extra_length=0.0 - -FingerJoint_finger=2.0 - -FingerJoint_play=0.1 - -FingerJoint_space=2.0 - -FingerJoint_width=1.0 - -x=330.0 - -y=70.0 - -h=42.0 - -outside=0 - -triangle=25.0 - -d1=2.0 - -d2=3.0 - -d3=3.0 - -outsidemounts=0 - -outsidemounts=1 - -holedist=7.0 - -thickness=3.0 - -format=svg - -tabs=0.0 - -debug=0 - -labels=0 - -labels=1 - -reference=100 - -inner_corners=loop - -burn=0.1
Url: http://localhost:8000/ElectronicsBox?FingerJoint_angle=90.0&FingerJoint_style=rectangular&FingerJoint_surroundingspaces=2.0&FingerJoint_edge_width=1.0&FingerJoint_extra_length=0.0&FingerJoint_finger=2.0&FingerJoint_play=0.1&FingerJoint_space=2.0&FingerJoint_width=1.0&x=330.0&y=70.0&h=42.0&outside=0&triangle=25.0&d1=2.0&d2=3.0&d3=3.0&outsidemounts=0&outsidemounts=1&holedist=7.0&thickness=3.0&format=svg&tabs=0.0&debug=0&labels=0&labels=1&reference=100&inner_corners=loop&burn=0.1&render=1
SettingsUrl: http://localhost:8000/ElectronicsBox?FingerJoint_angle=90.0&FingerJoint_style=rectangular&FingerJoint_surroundingspaces=2.0&FingerJoint_edge_width=1.0&FingerJoint_extra_length=0.0&FingerJoint_finger=2.0&FingerJoint_play=0.1&FingerJoint_space=2.0&FingerJoint_width=1.0&x=330.0&y=70.0&h=42.0&outside=0&triangle=25.0&d1=2.0&d2=3.0&d3=3.0&outsidemounts=0&outsidemounts=1&holedist=7.0&thickness=3.0&format=svg&tabs=0.0&debug=0&labels=0&labels=1&reference=100&inner_corners=loop&burn=0.1
--><title
     id="title20237">ElectronicsBox</title><metadata
     id="metadata20239"><rdf:RDF><cc:Work><dc:title>ElectronicsBox</dc:title><dc:date>2023-01-07 21:43:29</dc:date><dc:source>http://localhost:8000/ElectronicsBox?FingerJoint_angle=90.0&amp;FingerJoint_style=rectangular&amp;FingerJoint_surroundingspaces=2.0&amp;FingerJoint_edge_width=1.0&amp;FingerJoint_extra_length=0.0&amp;FingerJoint_finger=2.0&amp;FingerJoint_play=0.1&amp;FingerJoint_space=2.0&amp;FingerJoint_width=1.0&amp;x=330.0&amp;y=70.0&amp;h=42.0&amp;outside=0&amp;triangle=25.0&amp;d1=2.0&amp;d2=3.0&amp;d3=3.0&amp;outsidemounts=0&amp;outsidemounts=1&amp;holedist=7.0&amp;thickness=3.0&amp;format=svg&amp;tabs=0.0&amp;debug=0&amp;labels=0&amp;labels=1&amp;reference=100&amp;inner_corners=loop&amp;burn=0.1&amp;render=1</dc:source><dc:description>Closed box with screw on top and mounting holes

Created with Boxes.py (https://festi.info/boxes.py)
Command line: boxes ElectronicsBox --FingerJoint_angle=90.0 --FingerJoint_style=rectangular --FingerJoint_surroundingspaces=2.0 --FingerJoint_edge_width=1.0 --FingerJoint_extra_length=0.0 --FingerJoint_finger=2.0 --FingerJoint_play=0.1 --FingerJoint_space=2.0 --FingerJoint_width=1.0 --x=330.0 --y=70.0 --h=42.0 --outside=0 --triangle=25.0 --d1=2.0 --d2=3.0 --d3=3.0 --outsidemounts=0 --outsidemounts=1 --holedist=7.0 --thickness=3.0 --format=svg --tabs=0.0 --debug=0 --labels=0 --labels=1 --reference=100 --inner_corners=loop --burn=0.1
Url: http://localhost:8000/ElectronicsBox?FingerJoint_angle=90.0&amp;FingerJoint_style=rectangular&amp;FingerJoint_surroundingspaces=2.0&amp;FingerJoint_edge_width=1.0&amp;FingerJoint_extra_length=0.0&amp;FingerJoint_finger=2.0&amp;FingerJoint_play=0.1&amp;FingerJoint_space=2.0&amp;FingerJoint_width=1.0&amp;x=330.0&amp;y=70.0&amp;h=42.0&amp;outside=0&amp;triangle=25.0&amp;d1=2.0&amp;d2=3.0&amp;d3=3.0&amp;outsidemounts=0&amp;outsidemounts=1&amp;holedist=7.0&amp;thickness=3.0&amp;format=svg&amp;tabs=0.0&amp;debug=0&amp;labels=0&amp;labels=1&amp;reference=100&amp;inner_corners=loop&amp;burn=0.1&amp;render=1
SettingsUrl: http://localhost:8000/ElectronicsBox?FingerJoint_angle=90.0&amp;FingerJoint_style=rectangular&amp;FingerJoint_surroundingspaces=2.0&amp;FingerJoint_edge_width=1.0&amp;FingerJoint_extra_length=0.0&amp;FingerJoint_finger=2.0&amp;FingerJoint_play=0.1&amp;FingerJoint_space=2.0&amp;FingerJoint_width=1.0&amp;x=330.0&amp;y=70.0&amp;h=42.0&amp;outside=0&amp;triangle=25.0&amp;d1=2.0&amp;d2=3.0&amp;d3=3.0&amp;outsidemounts=0&amp;outsidemounts=1&amp;holedist=7.0&amp;thickness=3.0&amp;format=svg&amp;tabs=0.0&amp;debug=0&amp;labels=0&amp;labels=1&amp;reference=100&amp;inner_corners=loop&amp;burn=0.1
</dc:description></cc:Work></rdf:RDF></metadata><g
     id="p-0"
     style="fill:none;stroke-linecap:round;stroke-linejoin:round;" /><g
     id="p-1"
     style="fill:none;stroke-linecap:round;stroke-linejoin:round;"><path
       d="M 25.900 251.150 H 22.850 C 22.750 251.150 22.850 251.250 22.850 251.150 V 248.050 C 22.850 247.950 22.750 248.050 22.850 248.050 H 28.950 C 29.050 248.050 28.950 247.950 28.950 248.050 V 251.150 C 28.950 251.250 29.050 251.150 28.950 251.150 H 25.900 Z"
       stroke="rgb(0,0,255)"
       stroke-width="0.20"
       id="path20246" /><path
       d="M 330.900 248.050 H 333.950 C 334.050 248.050 333.950 247.950 333.950 248.050 V 251.150 C 333.950 251.250 334.050 251.150 333.950 251.150 H 327.850 C 327.750 251.150 327.850 251.250 327.850 251.150 V 248.050 C 327.850 247.950 327.750 248.050 327.850 248.050 H 330.900 Z"
       stroke="rgb(0,0,255)"
       stroke-width="0.20"
       id="path20248" /><path
       d="M 13.400 293.200 H 19.300 C 19.400 293.200 19.300 293.100 19.300 293.200 V 296.100 C 19.300 296.155 19.345 296.200 19.400 296.200 H 25.400 C 25.455 296.200 25.500 296.155 25.500 296.100 V 293.200 C 25.500 293.100 25.400 293.200 25.500 293.200 H 31.300 C 31.400 293.200 31.300 293.100 31.300 293.200 V 296.100 C 31.300 296.155 31.345 296.200 31.400 296.200 H 37.400 C 37.455 296.200 37.500 296.155 37.500 296.100 V 293.200 C 37.500 293.100 37.400 293.200 37.500 293.200 H 43.300 C 43.400 293.200 43.300 293.100 43.300 293.200 V 296.100 C 43.300 296.155 43.345 296.200 43.400 296.200 H 49.400 C 49.455 296.200 49.500 296.155 49.500 296.100 V 293.200 C 49.500 293.100 49.400 293.200 49.500 293.200 H 55.300 C 55.400 293.200 55.300 293.100 55.300 293.200 V 296.100 C 55.300 296.155 55.345 296.200 55.400 296.200 H 61.400 C 61.455 296.200 61.500 296.155 61.500 296.100 V 293.200 C 61.500 293.100 61.400 293.200 61.500 293.200 H 67.300 C 67.400 293.200 67.300 293.100 67.300 293.200 V 296.100 C 67.300 296.155 67.345 296.200 67.400 296.200 H 73.400 C 73.455 296.200 73.500 296.155 73.500 296.100 V 293.200 C 73.500 293.100 73.400 293.200 73.500 293.200 H 79.300 C 79.400 293.200 79.300 293.100 79.300 293.200 V 296.100 C 79.300 296.155 79.345 296.200 79.400 296.200 H 85.400 C 85.455 296.200 85.500 296.155 85.500 296.100 V 293.200 C 85.500 293.100 85.400 293.200 85.500 293.200 H 91.300 C 91.400 293.200 91.300 293.100 91.300 293.200 V 296.100 C 91.300 296.155 91.345 296.200 91.400 296.200 H 97.400 C 97.455 296.200 97.500 296.155 97.500 296.100 V 293.200 C 97.500 293.100 97.400 293.200 97.500 293.200 H 103.300 C 103.400 293.200 103.300 293.100 103.300 293.200 V 296.100 C 103.300 296.155 103.345 296.200 103.400 296.200 H 109.400 C 109.455 296.200 109.500 296.155 109.500 296.100 V 293.200 C 109.500 293.100 109.400 293.200 109.500 293.200 H 115.300 C 115.400 293.200 115.300 293.100 115.300 293.200 V 296.100 C 115.300 296.155 115.345 296.200 115.400 296.200 H 121.400 C 121.455 296.200 121.500 296.155 121.500 296.100 V 293.200 C 121.500 293.100 121.400 293.200 121.500 293.200 H 127.300 C 127.400 293.200 127.300 293.100 127.300 293.200 V 296.100 C 127.300 296.155 127.345 296.200 127.400 296.200 H 133.400 C 133.455 296.200 133.500 296.155 133.500 296.100 V 293.200 C 133.500 293.100 133.400 293.200 133.500 293.200 H 139.300 C 139.400 293.200 139.300 293.100 139.300 293.200 V 296.100 C 139.300 296.155 139.345 296.200 139.400 296.200 H 145.400 C 145.455 296.200 145.500 296.155 145.500 296.100 V 293.200 C 145.500 293.100 145.400 293.200 145.500 293.200 H 151.300 C 151.400 293.200 151.300 293.100 151.300 293.200 V 296.100 C 151.300 296.155 151.345 296.200 151.400 296.200 H 157.400 C 157.455 296.200 157.500 296.155 157.500 296.100 V 293.200 C 157.500 293.100 157.400 293.200 157.500 293.200 H 163.300 C 163.400 293.200 163.300 293.100 163.300 293.200 V 296.100 C 163.300 296.155 163.345 296.200 163.400 296.200 H 169.400 C 169.455 296.200 169.500 296.155 169.500 296.100 V 293.200 C 169.500 293.100 169.400 293.200 169.500 293.200 H 175.300 C 175.400 293.200 175.300 293.100 175.300 293.200 V 296.100 C 175.300 296.155 175.345 296.200 175.400 296.200 H 181.400 C 181.455 296.200 181.500 296.155 181.500 296.100 V 293.200 C 181.500 293.100 181.400 293.200 181.500 293.200 H 187.300 C 187.400 293.200 187.300 293.100 187.300 293.200 V 296.100 C 187.300 296.155 187.345 296.200 187.400 296.200 H 193.400 C 193.455 296.200 193.500 296.155 193.500 296.100 V 293.200 C 193.500 293.100 193.400 293.200 193.500 293.200 H 199.300 C 199.400 293.200 199.300 293.100 199.300 293.200 V 296.100 C 199.300 296.155 199.345 296.200 199.400 296.200 H 205.400 C 205.455 296.200 205.500 296.155 205.500 296.100 V 293.200 C 205.500 293.100 205.400 293.200 205.500 293.200 H 211.300 C 211.400 293.200 211.300 293.100 211.300 293.200 V 296.100 C 211.300 296.155 211.345 296.200 211.400 296.200 H 217.400 C 217.455 296.200 217.500 296.155 217.500 296.100 V 293.200 C 217.500 293.100 217.400 293.200 217.500 293.200 H 223.300 C 223.400 293.200 223.300 293.100 223.300 293.200 V 296.100 C 223.300 296.155 223.345 296.200 223.400 296.200 H 229.400 C 229.455 296.200 229.500 296.155 229.500 296.100 V 293.200 C 229.500 293.100 229.400 293.200 229.500 293.200 H 235.300 C 235.400 293.200 235.300 293.100 235.300 293.200 V 296.100 C 235.300 296.155 235.345 296.200 235.400 296.200 H 241.400 C 241.455 296.200 241.500 296.155 241.500 296.100 V 293.200 C 241.500 293.100 241.400 293.200 241.500 293.200 H 247.300 C 247.400 293.200 247.300 293.100 247.300 293.200 V 296.100 C 247.300 296.155 247.345 296.200 247.400 296.200 H 253.400 C 253.455 296.200 253.500 296.155 253.500 296.100 V 293.200 C 253.500 293.100 253.400 293.200 253.500 293.200 H 259.300 C 259.400 293.200 259.300 293.100 259.300 293.200 V 296.100 C 259.300 296.155 259.345 296.200 259.400 296.200 H 265.400 C 265.455 296.200 265.500 296.155 265.500 296.100 V 293.200 C 265.500 293.100 265.400 293.200 265.500 293.200 H 271.300 C 271.400 293.200 271.300 293.100 271.300 293.200 V 296.100 C 271.300 296.155 271.345 296.200 271.400 296.200 H 277.400 C 277.455 296.200 277.500 296.155 277.500 296.100 V 293.200 C 277.500 293.100 277.400 293.200 277.500 293.200 H 283.300 C 283.400 293.200 283.300 293.100 283.300 293.200 V 296.100 C 283.300 296.155 283.345 296.200 283.400 296.200 H 289.400 C 289.455 296.200 289.500 296.155 289.500 296.100 V 293.200 C 289.500 293.100 289.400 293.200 289.500 293.200 H 295.300 C 295.400 293.200 295.300 293.100 295.300 293.200 V 296.100 C 295.300 296.155 295.345 296.200 295.400 296.200 H 301.400 C 301.455 296.200 301.500 296.155 301.500 296.100 V 293.200 C 301.500 293.100 301.400 293.200 301.500 293.200 H 307.300 C 307.400 293.200 307.300 293.100 307.300 293.200 V 296.100 C 307.300 296.155 307.345 296.200 307.400 296.200 H 313.400 C 313.455 296.200 313.500 296.155 313.500 296.100 V 293.200 C 313.500 293.100 313.400 293.200 313.500 293.200 H 319.300 C 319.400 293.200 319.300 293.100 319.300 293.200 V 296.100 C 319.300 296.155 319.345 296.200 319.400 296.200 H 325.400 C 325.455 296.200 325.500 296.155 325.500 296.100 V 293.200 C 325.500 293.100 325.400 293.200 325.500 293.200 H 331.300 C 331.400 293.200 331.300 293.100 331.300 293.200 V 296.100 C 331.300 296.155 331.345 296.200 331.400 296.200 H 337.400 C 337.455 296.200 337.500 296.155 337.500 296.100 V 293.200 C 337.500 293.100 337.400 293.200 337.500 293.200 H 343.400 H 346.400 C 346.455 293.200 346.500 293.155 346.500 293.100 V 284.250 C 346.500 284.195 346.455 284.150 346.400 284.150 H 343.500 C 343.400 284.150 343.500 284.250 343.500 284.150 V 278.050 C 343.500 277.950 343.400 278.050 343.500 278.050 H 346.400 C 346.455 278.050 346.500 278.005 346.500 277.950 V 272.250 C 346.500 272.195 346.455 272.150 346.400 272.150 H 343.500 C 343.400 272.150 343.500 272.250 343.500 272.150 V 266.050 C 343.500 265.950 343.400 266.050 343.500 266.050 H 346.400 C 346.455 266.050 346.500 266.005 346.500 265.950 V 260.250 C 346.500 260.195 346.455 260.150 346.400 260.150 H 343.500 C 343.400 260.150 343.500 260.250 343.500 260.150 V 254.050 C 343.500 253.950 343.400 254.050 343.500 254.050 H 346.400 C 346.455 254.050 346.500 254.005 346.500 253.950 V 245.100 C 346.500 245.045 346.455 245.000 346.400 245.000 H 343.400 H 13.400 H 10.400 C 10.345 245.000 10.300 245.045 10.300 245.100 V 253.950 C 10.300 254.005 10.345 254.050 10.400 254.050 H 13.300 C 13.400 254.050 13.300 253.950 13.300 254.050 V 260.150 C 13.300 260.250 13.400 260.150 13.300 260.150 H 10.400 C 10.345 260.150 10.300 260.195 10.300 260.250 V 265.950 C 10.300 266.005 10.345 266.050 10.400 266.050 H 13.300 C 13.400 266.050 13.300 265.950 13.300 266.050 V 272.150 C 13.300 272.250 13.400 272.150 13.300 272.150 H 10.400 C 10.345 272.150 10.300 272.195 10.300 272.250 V 277.950 C 10.300 278.005 10.345 278.050 10.400 278.050 H 13.300 C 13.400 278.050 13.300 277.950 13.300 278.050 V 284.150 C 13.300 284.250 13.400 284.150 13.300 284.150 H 10.400 C 10.345 284.150 10.300 284.195 10.300 284.250 V 293.100 C 10.300 293.155 10.345 293.200 10.400 293.200 H 13.400"
       stroke="rgb(0,0,0)"
       stroke-width="0.20"
       id="path20252" /></g><g
     id="p-4"
     style="fill:none;stroke-linecap:round;stroke-linejoin:round;"><path
       d="M 25.900 198.450 H 22.850 C 22.750 198.450 22.850 198.550 22.850 198.450 V 195.350 C 22.850 195.250 22.750 195.350 22.850 195.350 H 28.950 C 29.050 195.350 28.950 195.250 28.950 195.350 V 198.450 C 28.950 198.550 29.050 198.450 28.950 198.450 H 25.900 Z"
       stroke="rgb(0,0,255)"
       stroke-width="0.20"
       id="path20273" /><path
       d="M 330.900 195.350 H 333.950 C 334.050 195.350 333.950 195.250 333.950 195.350 V 198.450 C 333.950 198.550 334.050 198.450 333.950 198.450 H 327.850 C 327.750 198.450 327.850 198.550 327.850 198.450 V 195.350 C 327.850 195.250 327.750 195.350 327.850 195.350 H 330.900 Z"
       stroke="rgb(0,0,255)"
       stroke-width="0.20"
       id="path20275" /><path
       d="M 13.400 240.500 H 19.300 C 19.400 240.500 19.300 240.400 19.300 240.500 V 243.400 C 19.300 243.455 19.345 243.500 19.400 243.500 H 25.400 C 25.455 243.500 25.500 243.455 25.500 243.400 V 240.500 C 25.500 240.400 25.400 240.500 25.500 240.500 H 31.300 C 31.400 240.500 31.300 240.400 31.300 240.500 V 243.400 C 31.300 243.455 31.345 243.500 31.400 243.500 H 37.400 C 37.455 243.500 37.500 243.455 37.500 243.400 V 240.500 C 37.500 240.400 37.400 240.500 37.500 240.500 H 43.300 C 43.400 240.500 43.300 240.400 43.300 240.500 V 243.400 C 43.300 243.455 43.345 243.500 43.400 243.500 H 49.400 C 49.455 243.500 49.500 243.455 49.500 243.400 V 240.500 C 49.500 240.400 49.400 240.500 49.500 240.500 H 55.300 C 55.400 240.500 55.300 240.400 55.300 240.500 V 243.400 C 55.300 243.455 55.345 243.500 55.400 243.500 H 61.400 C 61.455 243.500 61.500 243.455 61.500 243.400 V 240.500 C 61.500 240.400 61.400 240.500 61.500 240.500 H 67.300 C 67.400 240.500 67.300 240.400 67.300 240.500 V 243.400 C 67.300 243.455 67.345 243.500 67.400 243.500 H 73.400 C 73.455 243.500 73.500 243.455 73.500 243.400 V 240.500 C 73.500 240.400 73.400 240.500 73.500 240.500 H 79.300 C 79.400 240.500 79.300 240.400 79.300 240.500 V 243.400 C 79.300 243.455 79.345 243.500 79.400 243.500 H 85.400 C 85.455 243.500 85.500 243.455 85.500 243.400 V 240.500 C 85.500 240.400 85.400 240.500 85.500 240.500 H 91.300 C 91.400 240.500 91.300 240.400 91.300 240.500 V 243.400 C 91.300 243.455 91.345 243.500 91.400 243.500 H 97.400 C 97.455 243.500 97.500 243.455 97.500 243.400 V 240.500 C 97.500 240.400 97.400 240.500 97.500 240.500 H 103.300 C 103.400 240.500 103.300 240.400 103.300 240.500 V 243.400 C 103.300 243.455 103.345 243.500 103.400 243.500 H 109.400 C 109.455 243.500 109.500 243.455 109.500 243.400 V 240.500 C 109.500 240.400 109.400 240.500 109.500 240.500 H 115.300 C 115.400 240.500 115.300 240.400 115.300 240.500 V 243.400 C 115.300 243.455 115.345 243.500 115.400 243.500 H 121.400 C 121.455 243.500 121.500 243.455 121.500 243.400 V 240.500 C 121.500 240.400 121.400 240.500 121.500 240.500 H 127.300 C 127.400 240.500 127.300 240.400 127.300 240.500 V 243.400 C 127.300 243.455 127.345 243.500 127.400 243.500 H 133.400 C 133.455 243.500 133.500 243.455 133.500 243.400 V 240.500 C 133.500 240.400 133.400 240.500 133.500 240.500 H 139.300 C 139.400 240.500 139.300 240.400 139.300 240.500 V 243.400 C 139.300 243.455 139.345 243.500 139.400 243.500 H 145.400 C 145.455 243.500 145.500 243.455 145.500 243.400 V 240.500 C 145.500 240.400 145.400 240.500 145.500 240.500 H 151.300 C 151.400 240.500 151.300 240.400 151.300 240.500 V 243.400 C 151.300 243.455 151.345 243.500 151.400 243.500 H 157.400 C 157.455 243.500 157.500 243.455 157.500 243.400 V 240.500 C 157.500 240.400 157.400 240.500 157.500 240.500 H 163.300 C 163.400 240.500 163.300 240.400 163.300 240.500 V 243.400 C 163.300 243.455 163.345 243.500 163.400 243.500 H 169.400 C 169.455 243.500 169.500 243.455 169.500 243.400 V 240.500 C 169.500 240.400 169.400 240.500 169.500 240.500 H 175.300 C 175.400 240.500 175.300 240.400 175.300 240.500 V 243.400 C 175.300 243.455 175.345 243.500 175.400 243.500 H 181.400 C 181.455 243.500 181.500 243.455 181.500 243.400 V 240.500 C 181.500 240.400 181.400 240.500 181.500 240.500 H 187.300 C 187.400 240.500 187.300 240.400 187.300 240.500 V 243.400 C 187.300 243.455 187.345 243.500 187.400 243.500 H 193.400 C 193.455 243.500 193.500 243.455 193.500 243.400 V 240.500 C 193.500 240.400 193.400 240.500 193.500 240.500 H 199.300 C 199.400 240.500 199.300 240.400 199.300 240.500 V 243.400 C 199.300 243.455 199.345 243.500 199.400 243.500 H 205.400 C 205.455 243.500 205.500 243.455 205.500 243.400 V 240.500 C 205.500 240.400 205.400 240.500 205.500 240.500 H 211.300 C 211.400 240.500 211.300 240.400 211.300 240.500 V 243.400 C 211.300 243.455 211.345 243.500 211.400 243.500 H 217.400 C 217.455 243.500 217.500 243.455 217.500 243.400 V 240.500 C 217.500 240.400 217.400 240.500 217.500 240.500 H 223.300 C 223.400 240.500 223.300 240.400 223.300 240.500 V 243.400 C 223.300 243.455 223.345 243.500 223.400 243.500 H 229.400 C 229.455 243.500 229.500 243.455 229.500 243.400 V 240.500 C 229.500 240.400 229.400 240.500 229.500 240.500 H 235.300 C 235.400 240.500 235.300 240.400 235.300 240.500 V 243.400 C 235.300 243.455 235.345 243.500 235.400 243.500 H 241.400 C 241.455 243.500 241.500 243.455 241.500 243.400 V 240.500 C 241.500 240.400 241.400 240.500 241.500 240.500 H 247.300 C 247.400 240.500 247.300 240.400 247.300 240.500 V 243.400 C 247.300 243.455 247.345 243.500 247.400 243.500 H 253.400 C 253.455 243.500 253.500 243.455 253.500 243.400 V 240.500 C 253.500 240.400 253.400 240.500 253.500 240.500 H 259.300 C 259.400 240.500 259.300 240.400 259.300 240.500 V 243.400 C 259.300 243.455 259.345 243.500 259.400 243.500 H 265.400 C 265.455 243.500 265.500 243.455 265.500 243.400 V 240.500 C 265.500 240.400 265.400 240.500 265.500 240.500 H 271.300 C 271.400 240.500 271.300 240.400 271.300 240.500 V 243.400 C 271.300 243.455 271.345 243.500 271.400 243.500 H 277.400 C 277.455 243.500 277.500 243.455 277.500 243.400 V 240.500 C 277.500 240.400 277.400 240.500 277.500 240.500 H 283.300 C 283.400 240.500 283.300 240.400 283.300 240.500 V 243.400 C 283.300 243.455 283.345 243.500 283.400 243.500 H 289.400 C 289.455 243.500 289.500 243.455 289.500 243.400 V 240.500 C 289.500 240.400 289.400 240.500 289.500 240.500 H 295.300 C 295.400 240.500 295.300 240.400 295.300 240.500 V 243.400 C 295.300 243.455 295.345 243.500 295.400 243.500 H 301.400 C 301.455 243.500 301.500 243.455 301.500 243.400 V 240.500 C 301.500 240.400 301.400 240.500 301.500 240.500 H 307.300 C 307.400 240.500 307.300 240.400 307.300 240.500 V 243.400 C 307.300 243.455 307.345 243.500 307.400 243.500 H 313.400 C 313.455 243.500 313.500 243.455 313.500 243.400 V 240.500 C 313.500 240.400 313.400 240.500 313.500 240.500 H 319.300 C 319.400 240.500 319.300 240.400 319.300 240.500 V 243.400 C 319.300 243.455 319.345 243.500 319.400 243.500 H 325.400 C 325.455 243.500 325.500 243.455 325.500 243.400 V 240.500 C 325.500 240.400 325.400 240.500 325.500 240.500 H 331.300 C 331.400 240.500 331.300 240.400 331.300 240.500 V 243.400 C 331.300 243.455 331.345 243.500 331.400 243.500 H 337.400 C 337.455 243.500 337.500 243.455 337.500 243.400 V 240.500 C 337.500 240.400 337.400 240.500 337.500 240.500 H 343.400 H 346.400 C 346.455 240.500 346.500 240.455 346.500 240.400 V 231.550 C 346.500 231.495 346.455 231.450 346.400 231.450 H 343.500 C 343.400 231.450 343.500 231.550 343.500 231.450 V 225.350 C 343.500 225.250 343.400 225.350 343.500 225.350 H 346.400 C 346.455 225.350 346.500 225.305 346.500 225.250 V 219.550 C 346.500 219.495 346.455 219.450 346.400 219.450 H 343.500 C 343.400 219.450 343.500 219.550 343.500 219.450 V 213.350 C 343.500 213.250 343.400 213.350 343.500 213.350 H 346.400 C 346.455 213.350 346.500 213.305 346.500 213.250 V 207.550 C 346.500 207.495 346.455 207.450 346.400 207.450 H 343.500 C 343.400 207.450 343.500 207.550 343.500 207.450 V 201.350 C 343.500 201.250 343.400 201.350 343.500 201.350 H 346.400 C 346.455 201.350 346.500 201.305 346.500 201.250 V 192.400 C 346.500 192.345 346.455 192.300 346.400 192.300 H 343.400 H 13.400 H 10.400 C 10.345 192.300 10.300 192.345 10.300 192.400 V 201.250 C 10.300 201.305 10.345 201.350 10.400 201.350 H 13.300 C 13.400 201.350 13.300 201.250 13.300 201.350 V 207.450 C 13.300 207.550 13.400 207.450 13.300 207.450 H 10.400 C 10.345 207.450 10.300 207.495 10.300 207.550 V 213.250 C 10.300 213.305 10.345 213.350 10.400 213.350 H 13.300 C 13.400 213.350 13.300 213.250 13.300 213.350 V 219.450 C 13.300 219.550 13.400 219.450 13.300 219.450 H 10.400 C 10.345 219.450 10.300 219.495 10.300 219.550 V 225.250 C 10.300 225.305 10.345 225.350 10.400 225.350 H 13.300 C 13.400 225.350 13.300 225.250 13.300 225.350 V 231.450 C 13.300 231.550 13.400 231.450 13.300 231.450 H 10.400 C 10.345 231.450 10.300 231.495 10.300 231.550 V 240.400 C 10.300 240.455 10.345 240.500 10.400 240.500 H 13.400"
       stroke="rgb(0,0,0)"
       stroke-width="0.20"
       id="path20279" /></g><g
     id="p-5"
     style="fill:none;stroke-linecap:round;stroke-linejoin:round;"><path
       d="M 18.800 183.700 C 18.800 183.968 18.723 184.231 18.578 184.457 C 18.433 184.683 18.226 184.862 17.982 184.973 C 17.737 185.085 17.466 185.124 17.201 185.086 C 16.935 185.048 16.686 184.934 16.483 184.758 C 16.280 184.582 16.132 184.352 16.057 184.094 C 15.981 183.837 15.981 183.563 16.057 183.306 C 16.132 183.048 16.280 182.818 16.483 182.642 C 16.686 182.466 16.935 182.352 17.201 182.314 C 17.466 182.276 17.737 182.315 17.982 182.427 C 18.226 182.538 18.433 182.717 18.578 182.943 C 18.723 183.169 18.800 183.432 18.800 183.700 Z"
       stroke="rgb(0,0,255)"
       stroke-width="0.20"
       id="path20282" /><path
       d="M 17.400 190.800 H 27.400 H 33.250 C 33.305 190.800 33.350 190.755 33.350 190.700 V 187.800 C 33.350 187.700 33.250 187.800 33.350 187.800 H 39.450 C 39.550 187.800 39.450 187.700 39.450 187.800 V 190.700 C 39.450 190.755 39.495 190.800 39.550 190.800 H 45.250 C 45.305 190.800 45.350 190.755 45.350 190.700 V 187.800 C 45.350 187.700 45.250 187.800 45.350 187.800 H 51.450 C 51.550 187.800 51.450 187.700 51.450 187.800 V 190.700 C 51.450 190.755 51.495 190.800 51.550 190.800 H 57.250 C 57.305 190.800 57.350 190.755 57.350 190.700 V 187.800 C 57.350 187.700 57.250 187.800 57.350 187.800 H 63.450 C 63.550 187.800 63.450 187.700 63.450 187.800 V 190.700 C 63.450 190.755 63.495 190.800 63.550 190.800 H 69.250 C 69.305 190.800 69.350 190.755 69.350 190.700 V 187.800 C 69.350 187.700 69.250 187.800 69.350 187.800 H 75.450 C 75.550 187.800 75.450 187.700 75.450 187.800 V 190.700 C 75.450 190.755 75.495 190.800 75.550 190.800 H 81.250 C 81.305 190.800 81.350 190.755 81.350 190.700 V 187.800 C 81.350 187.700 81.250 187.800 81.350 187.800 H 87.450 C 87.550 187.800 87.450 187.700 87.450 187.800 V 190.700 C 87.450 190.755 87.495 190.800 87.550 190.800 H 93.250 C 93.305 190.800 93.350 190.755 93.350 190.700 V 187.800 C 93.350 187.700 93.250 187.800 93.350 187.800 H 99.450 C 99.550 187.800 99.450 187.700 99.450 187.800 V 190.700 C 99.450 190.755 99.495 190.800 99.550 190.800 H 105.250 C 105.305 190.800 105.350 190.755 105.350 190.700 V 187.800 C 105.350 187.700 105.250 187.800 105.350 187.800 H 111.450 C 111.550 187.800 111.450 187.700 111.450 187.800 V 190.700 C 111.450 190.755 111.495 190.800 111.550 190.800 H 117.250 C 117.305 190.800 117.350 190.755 117.350 190.700 V 187.800 C 117.350 187.700 117.250 187.800 117.350 187.800 H 123.450 C 123.550 187.800 123.450 187.700 123.450 187.800 V 190.700 C 123.450 190.755 123.495 190.800 123.550 190.800 H 129.250 C 129.305 190.800 129.350 190.755 129.350 190.700 V 187.800 C 129.350 187.700 129.250 187.800 129.350 187.800 H 135.450 C 135.550 187.800 135.450 187.700 135.450 187.800 V 190.700 C 135.450 190.755 135.495 190.800 135.550 190.800 H 141.250 C 141.305 190.800 141.350 190.755 141.350 190.700 V 187.800 C 141.350 187.700 141.250 187.800 141.350 187.800 H 147.450 C 147.550 187.800 147.450 187.700 147.450 187.800 V 190.700 C 147.450 190.755 147.495 190.800 147.550 190.800 H 153.250 C 153.305 190.800 153.350 190.755 153.350 190.700 V 187.800 C 153.350 187.700 153.250 187.800 153.350 187.800 H 159.450 C 159.550 187.800 159.450 187.700 159.450 187.800 V 190.700 C 159.450 190.755 159.495 190.800 159.550 190.800 H 165.250 C 165.305 190.800 165.350 190.755 165.350 190.700 V 187.800 C 165.350 187.700 165.250 187.800 165.350 187.800 H 171.450 C 171.550 187.800 171.450 187.700 171.450 187.800 V 190.700 C 171.450 190.755 171.495 190.800 171.550 190.800 H 177.250 C 177.305 190.800 177.350 190.755 177.350 190.700 V 187.800 C 177.350 187.700 177.250 187.800 177.350 187.800 H 183.450 C 183.550 187.800 183.450 187.700 183.450 187.800 V 190.700 C 183.450 190.755 183.495 190.800 183.550 190.800 H 189.250 C 189.305 190.800 189.350 190.755 189.350 190.700 V 187.800 C 189.350 187.700 189.250 187.800 189.350 187.800 H 195.450 C 195.550 187.800 195.450 187.700 195.450 187.800 V 190.700 C 195.450 190.755 195.495 190.800 195.550 190.800 H 201.250 C 201.305 190.800 201.350 190.755 201.350 190.700 V 187.800 C 201.350 187.700 201.250 187.800 201.350 187.800 H 207.450 C 207.550 187.800 207.450 187.700 207.450 187.800 V 190.700 C 207.450 190.755 207.495 190.800 207.550 190.800 H 213.250 C 213.305 190.800 213.350 190.755 213.350 190.700 V 187.800 C 213.350 187.700 213.250 187.800 213.350 187.800 H 219.450 C 219.550 187.800 219.450 187.700 219.450 187.800 V 190.700 C 219.450 190.755 219.495 190.800 219.550 190.800 H 225.250 C 225.305 190.800 225.350 190.755 225.350 190.700 V 187.800 C 225.350 187.700 225.250 187.800 225.350 187.800 H 231.450 C 231.550 187.800 231.450 187.700 231.450 187.800 V 190.700 C 231.450 190.755 231.495 190.800 231.550 190.800 H 237.250 C 237.305 190.800 237.350 190.755 237.350 190.700 V 187.800 C 237.350 187.700 237.250 187.800 237.350 187.800 H 243.450 C 243.550 187.800 243.450 187.700 243.450 187.800 V 190.700 C 243.450 190.755 243.495 190.800 243.550 190.800 H 249.250 C 249.305 190.800 249.350 190.755 249.350 190.700 V 187.800 C 249.350 187.700 249.250 187.800 249.350 187.800 H 255.450 C 255.550 187.800 255.450 187.700 255.450 187.800 V 190.700 C 255.450 190.755 255.495 190.800 255.550 190.800 H 261.250 C 261.305 190.800 261.350 190.755 261.350 190.700 V 187.800 C 261.350 187.700 261.250 187.800 261.350 187.800 H 267.450 C 267.550 187.800 267.450 187.700 267.450 187.800 V 190.700 C 267.450 190.755 267.495 190.800 267.550 190.800 H 273.250 C 273.305 190.800 273.350 190.755 273.350 190.700 V 187.800 C 273.350 187.700 273.250 187.800 273.350 187.800 H 279.450 C 279.550 187.800 279.450 187.700 279.450 187.800 V 190.700 C 279.450 190.755 279.495 190.800 279.550 190.800 H 285.250 C 285.305 190.800 285.350 190.755 285.350 190.700 V 187.800 C 285.350 187.700 285.250 187.800 285.350 187.800 H 291.450 C 291.550 187.800 291.450 187.700 291.450 187.800 V 190.700 C 291.450 190.755 291.495 190.800 291.550 190.800 H 297.250 C 297.305 190.800 297.350 190.755 297.350 190.700 V 187.800 C 297.350 187.700 297.250 187.800 297.350 187.800 H 303.450 C 303.550 187.800 303.450 187.700 303.450 187.800 V 190.700 C 303.450 190.755 303.495 190.800 303.550 190.800 H 309.250 C 309.305 190.800 309.350 190.755 309.350 190.700 V 187.800 C 309.350 187.700 309.250 187.800 309.350 187.800 H 315.450 C 315.550 187.800 315.450 187.700 315.450 187.800 V 190.700 C 315.450 190.755 315.495 190.800 315.550 190.800 H 321.250 C 321.305 190.800 321.350 190.755 321.350 190.700 V 187.800 C 321.350 187.700 321.250 187.800 321.350 187.800 H 327.450 C 327.550 187.800 327.450 187.700 327.450 187.800 V 190.700 C 327.450 190.755 327.495 190.800 327.550 190.800 H 333.250 C 333.305 190.800 333.350 190.755 333.350 190.700 V 187.800 C 333.350 187.700 333.250 187.800 333.350 187.800 H 339.450 C 339.550 187.800 339.450 187.700 339.450 187.800 V 190.700 C 339.450 190.755 339.495 190.800 339.550 190.800 H 345.250 C 345.305 190.800 345.350 190.755 345.350 190.700 V 187.800 C 345.350 187.700 345.250 187.800 345.350 187.800 H 351.450 C 351.550 187.800 351.450 187.700 351.450 187.800 V 190.700 C 351.450 190.755 351.495 190.800 351.550 190.800 H 357.400 H 367.400 C 368.646 190.800 369.871 190.472 370.950 189.849 C 372.029 189.226 372.926 188.329 373.549 187.250 C 374.172 186.171 374.500 184.946 374.500 183.700 V 121.700 C 374.500 120.454 374.172 119.229 373.549 118.150 C 372.926 117.071 372.029 116.174 370.950 115.551 C 369.871 114.928 368.646 114.600 367.400 114.600 H 357.400 H 351.550 C 351.495 114.600 351.450 114.645 351.450 114.700 V 117.600 C 351.450 117.700 351.550 117.600 351.450 117.600 H 345.350 C 345.250 117.600 345.350 117.700 345.350 117.600 V 114.700 C 345.350 114.645 345.305 114.600 345.250 114.600 H 339.550 C 339.495 114.600 339.450 114.645 339.450 114.700 V 117.600 C 339.450 117.700 339.550 117.600 339.450 117.600 H 333.350 C 333.250 117.600 333.350 117.700 333.350 117.600 V 114.700 C 333.350 114.645 333.305 114.600 333.250 114.600 H 327.550 C 327.495 114.600 327.450 114.645 327.450 114.700 V 117.600 C 327.450 117.700 327.550 117.600 327.450 117.600 H 321.350 C 321.250 117.600 321.350 117.700 321.350 117.600 V 114.700 C 321.350 114.645 321.305 114.600 321.250 114.600 H 315.550 C 315.495 114.600 315.450 114.645 315.450 114.700 V 117.600 C 315.450 117.700 315.550 117.600 315.450 117.600 H 309.350 C 309.250 117.600 309.350 117.700 309.350 117.600 V 114.700 C 309.350 114.645 309.305 114.600 309.250 114.600 H 303.550 C 303.495 114.600 303.450 114.645 303.450 114.700 V 117.600 C 303.450 117.700 303.550 117.600 303.450 117.600 H 297.350 C 297.250 117.600 297.350 117.700 297.350 117.600 V 114.700 C 297.350 114.645 297.305 114.600 297.250 114.600 H 291.550 C 291.495 114.600 291.450 114.645 291.450 114.700 V 117.600 C 291.450 117.700 291.550 117.600 291.450 117.600 H 285.350 C 285.250 117.600 285.350 117.700 285.350 117.600 V 114.700 C 285.350 114.645 285.305 114.600 285.250 114.600 H 279.550 C 279.495 114.600 279.450 114.645 279.450 114.700 V 117.600 C 279.450 117.700 279.550 117.600 279.450 117.600 H 273.350 C 273.250 117.600 273.350 117.700 273.350 117.600 V 114.700 C 273.350 114.645 273.305 114.600 273.250 114.600 H 267.550 C 267.495 114.600 267.450 114.645 267.450 114.700 V 117.600 C 267.450 117.700 267.550 117.600 267.450 117.600 H 261.350 C 261.250 117.600 261.350 117.700 261.350 117.600 V 114.700 C 261.350 114.645 261.305 114.600 261.250 114.600 H 255.550 C 255.495 114.600 255.450 114.645 255.450 114.700 V 117.600 C 255.450 117.700 255.550 117.600 255.450 117.600 H 249.350 C 249.250 117.600 249.350 117.700 249.350 117.600 V 114.700 C 249.350 114.645 249.305 114.600 249.250 114.600 H 243.550 C 243.495 114.600 243.450 114.645 243.450 114.700 V 117.600 C 243.450 117.700 243.550 117.600 243.450 117.600 H 237.350 C 237.250 117.600 237.350 117.700 237.350 117.600 V 114.700 C 237.350 114.645 237.305 114.600 237.250 114.600 H 231.550 C 231.495 114.600 231.450 114.645 231.450 114.700 V 117.600 C 231.450 117.700 231.550 117.600 231.450 117.600 H 225.350 C 225.250 117.600 225.350 117.700 225.350 117.600 V 114.700 C 225.350 114.645 225.305 114.600 225.250 114.600 H 219.550 C 219.495 114.600 219.450 114.645 219.450 114.700 V 117.600 C 219.450 117.700 219.550 117.600 219.450 117.600 H 213.350 C 213.250 117.600 213.350 117.700 213.350 117.600 V 114.700 C 213.350 114.645 213.305 114.600 213.250 114.600 H 207.550 C 207.495 114.600 207.450 114.645 207.450 114.700 V 117.600 C 207.450 117.700 207.550 117.600 207.450 117.600 H 201.350 C 201.250 117.600 201.350 117.700 201.350 117.600 V 114.700 C 201.350 114.645 201.305 114.600 201.250 114.600 H 195.550 C 195.495 114.600 195.450 114.645 195.450 114.700 V 117.600 C 195.450 117.700 195.550 117.600 195.450 117.600 H 189.350 C 189.250 117.600 189.350 117.700 189.350 117.600 V 114.700 C 189.350 114.645 189.305 114.600 189.250 114.600 H 183.550 C 183.495 114.600 183.450 114.645 183.450 114.700 V 117.600 C 183.450 117.700 183.550 117.600 183.450 117.600 H 177.350 C 177.250 117.600 177.350 117.700 177.350 117.600 V 114.700 C 177.350 114.645 177.305 114.600 177.250 114.600 H 171.550 C 171.495 114.600 171.450 114.645 171.450 114.700 V 117.600 C 171.450 117.700 171.550 117.600 171.450 117.600 H 165.350 C 165.250 117.600 165.350 117.700 165.350 117.600 V 114.700 C 165.350 114.645 165.305 114.600 165.250 114.600 H 159.550 C 159.495 114.600 159.450 114.645 159.450 114.700 V 117.600 C 159.450 117.700 159.550 117.600 159.450 117.600 H 153.350 C 153.250 117.600 153.350 117.700 153.350 117.600 V 114.700 C 153.350 114.645 153.305 114.600 153.250 114.600 H 147.550 C 147.495 114.600 147.450 114.645 147.450 114.700 V 117.600 C 147.450 117.700 147.550 117.600 147.450 117.600 H 141.350 C 141.250 117.600 141.350 117.700 141.350 117.600 V 114.700 C 141.350 114.645 141.305 114.600 141.250 114.600 H 135.550 C 135.495 114.600 135.450 114.645 135.450 114.700 V 117.600 C 135.450 117.700 135.550 117.600 135.450 117.600 H 129.350 C 129.250 117.600 129.350 117.700 129.350 117.600 V 114.700 C 129.350 114.645 129.305 114.600 129.250 114.600 H 123.550 C 123.495 114.600 123.450 114.645 123.450 114.700 V 117.600 C 123.450 117.700 123.550 117.600 123.450 117.600 H 117.350 C 117.250 117.600 117.350 117.700 117.350 117.600 V 114.700 C 117.350 114.645 117.305 114.600 117.250 114.600 H 111.550 C 111.495 114.600 111.450 114.645 111.450 114.700 V 117.600 C 111.450 117.700 111.550 117.600 111.450 117.600 H 105.350 C 105.250 117.600 105.350 117.700 105.350 117.600 V 114.700 C 105.350 114.645 105.305 114.600 105.250 114.600 H 99.550 C 99.495 114.600 99.450 114.645 99.450 114.700 V 117.600 C 99.450 117.700 99.550 117.600 99.450 117.600 H 93.350 C 93.250 117.600 93.350 117.700 93.350 117.600 V 114.700 C 93.350 114.645 93.305 114.600 93.250 114.600 H 87.550 C 87.495 114.600 87.450 114.645 87.450 114.700 V 117.600 C 87.450 117.700 87.550 117.600 87.450 117.600 H 81.350 C 81.250 117.600 81.350 117.700 81.350 117.600 V 114.700 C 81.350 114.645 81.305 114.600 81.250 114.600 H 75.550 C 75.495 114.600 75.450 114.645 75.450 114.700 V 117.600 C 75.450 117.700 75.550 117.600 75.450 117.600 H 69.350 C 69.250 117.600 69.350 117.700 69.350 117.600 V 114.700 C 69.350 114.645 69.305 114.600 69.250 114.600 H 63.550 C 63.495 114.600 63.450 114.645 63.450 114.700 V 117.600 C 63.450 117.700 63.550 117.600 63.450 117.600 H 57.350 C 57.250 117.600 57.350 117.700 57.350 117.600 V 114.700 C 57.350 114.645 57.305 114.600 57.250 114.600 H 51.550 C 51.495 114.600 51.450 114.645 51.450 114.700 V 117.600 C 51.450 117.700 51.550 117.600 51.450 117.600 H 45.350 C 45.250 117.600 45.350 117.700 45.350 117.600 V 114.700 C 45.350 114.645 45.305 114.600 45.250 114.600 H 39.550 C 39.495 114.600 39.450 114.645 39.450 114.700 V 117.600 C 39.450 117.700 39.550 117.600 39.450 117.600 H 33.350 C 33.250 117.600 33.350 117.700 33.350 117.600 V 114.700 C 33.350 114.645 33.305 114.600 33.250 114.600 H 27.400 H 17.400 C 16.154 114.600 14.929 114.928 13.850 115.551 C 12.771 116.174 11.874 117.071 11.251 118.150 C 10.628 119.229 10.300 120.454 10.300 121.700 V 183.700 C 10.300 184.946 10.628 186.171 11.251 187.250 C 11.874 188.329 12.771 189.226 13.850 189.849 C 14.929 190.472 16.154 190.800 17.400 190.800"
       stroke="rgb(0,0,0)"
       stroke-width="0.20"
       id="path20286" /><path
       d="M 367.400 182.300 C 367.668 182.300 367.931 182.377 368.157 182.522 C 368.383 182.667 368.562 182.874 368.673 183.118 C 368.785 183.363 368.824 183.634 368.786 183.899 C 368.748 184.165 368.634 184.414 368.458 184.617 C 368.282 184.820 368.052 184.968 367.794 185.043 C 367.537 185.119 367.263 185.119 367.006 185.043 C 366.748 184.968 366.518 184.820 366.342 184.617 C 366.166 184.414 366.052 184.165 366.014 183.899 C 365.976 183.634 366.015 183.363 366.127 183.118 C 366.238 182.874 366.417 182.667 366.643 182.522 C 366.869 182.377 367.132 182.300 367.400 182.300 Z"
       stroke="rgb(0,0,255)"
       stroke-width="0.20"
       id="path20288" /><path
       d="M 360.550 176.700 V 179.750 C 360.550 179.850 360.650 179.750 360.550 179.750 H 357.450 C 357.350 179.750 357.450 179.850 357.450 179.750 V 173.650 C 357.450 173.550 357.350 173.650 357.450 173.650 H 360.550 C 360.650 173.650 360.550 173.550 360.550 173.650 V 176.700 Z"
       stroke="rgb(0,0,255)"
       stroke-width="0.20"
       id="path20290" /><path
       d="M 360.550 164.700 V 167.750 C 360.550 167.850 360.650 167.750 360.550 167.750 H 357.450 C 357.350 167.750 357.450 167.850 357.450 167.750 V 161.650 C 357.450 161.550 357.350 161.650 357.450 161.650 H 360.550 C 360.650 161.650 360.550 161.550 360.550 161.650 V 164.700 Z"
       stroke="rgb(0,0,255)"
       stroke-width="0.20"
       id="path20292" /><path
       d="M 360.550 152.700 V 155.750 C 360.550 155.850 360.650 155.750 360.550 155.750 H 357.450 C 357.350 155.750 357.450 155.850 357.450 155.750 V 149.650 C 357.450 149.550 357.350 149.650 357.450 149.650 H 360.550 C 360.650 149.650 360.550 149.550 360.550 149.650 V 152.700 Z"
       stroke="rgb(0,0,255)"
       stroke-width="0.20"
       id="path20294" /><path
       d="M 360.550 140.700 V 143.750 C 360.550 143.850 360.650 143.750 360.550 143.750 H 357.450 C 357.350 143.750 357.450 143.850 357.450 143.750 V 137.650 C 357.450 137.550 357.350 137.650 357.450 137.650 H 360.550 C 360.650 137.650 360.550 137.550 360.550 137.650 V 140.700 Z"
       stroke="rgb(0,0,255)"
       stroke-width="0.20"
       id="path20296" /><path
       d="M 360.550 128.700 V 131.750 C 360.550 131.850 360.650 131.750 360.550 131.750 H 357.450 C 357.350 131.750 357.450 131.850 357.450 131.750 V 125.650 C 357.450 125.550 357.350 125.650 357.450 125.650 H 360.550 C 360.650 125.650 360.550 125.550 360.550 125.650 V 128.700 Z"
       stroke="rgb(0,0,255)"
       stroke-width="0.20"
       id="path20298" /><path
       d="M 366.000 121.700 C 366.000 121.432 366.077 121.169 366.222 120.943 C 366.367 120.717 366.574 120.538 366.818 120.427 C 367.063 120.315 367.334 120.276 367.599 120.314 C 367.865 120.352 368.114 120.466 368.317 120.642 C 368.520 120.818 368.668 121.048 368.743 121.306 C 368.819 121.563 368.819 121.837 368.743 122.094 C 368.668 122.352 368.520 122.582 368.317 122.758 C 368.114 122.934 367.865 123.048 367.599 123.086 C 367.334 123.124 367.063 123.085 366.818 122.973 C 366.574 122.862 366.367 122.683 366.222 122.457 C 366.077 122.231 366.000 121.968 366.000 121.700 Z"
       stroke="rgb(0,0,255)"
       stroke-width="0.20"
       id="path20300" /><path
       d="M 17.400 123.100 C 17.132 123.100 16.869 123.023 16.643 122.878 C 16.417 122.733 16.238 122.526 16.127 122.282 C 16.015 122.037 15.976 121.766 16.014 121.501 C 16.052 121.235 16.166 120.986 16.342 120.783 C 16.518 120.580 16.748 120.432 17.006 120.357 C 17.263 120.281 17.537 120.281 17.794 120.357 C 18.052 120.432 18.282 120.580 18.458 120.783 C 18.634 120.986 18.748 121.235 18.786 121.501 C 18.824 121.766 18.785 122.037 18.673 122.282 C 18.562 122.526 18.383 122.733 18.157 122.878 C 17.931 123.023 17.668 123.100 17.400 123.100 Z"
       stroke="rgb(0,0,255)"
       stroke-width="0.20"
       id="path20302" /><path
       d="M 24.250 128.700 V 125.650 C 24.250 125.550 24.150 125.650 24.250 125.650 H 27.350 C 27.450 125.650 27.350 125.550 27.350 125.650 V 131.750 C 27.350 131.850 27.450 131.750 27.350 131.750 H 24.250 C 24.150 131.750 24.250 131.850 24.250 131.750 V 128.700 Z"
       stroke="rgb(0,0,255)"
       stroke-width="0.20"
       id="path20304" /><path
       d="M 24.250 140.700 V 137.650 C 24.250 137.550 24.150 137.650 24.250 137.650 H 27.350 C 27.450 137.650 27.350 137.550 27.350 137.650 V 143.750 C 27.350 143.850 27.450 143.750 27.350 143.750 H 24.250 C 24.150 143.750 24.250 143.850 24.250 143.750 V 140.700 Z"
       stroke="rgb(0,0,255)"
       stroke-width="0.20"
       id="path20306" /><path
       d="M 24.250 152.700 V 149.650 C 24.250 149.550 24.150 149.650 24.250 149.650 H 27.350 C 27.450 149.650 27.350 149.550 27.350 149.650 V 155.750 C 27.350 155.850 27.450 155.750 27.350 155.750 H 24.250 C 24.150 155.750 24.250 155.850 24.250 155.750 V 152.700 Z"
       stroke="rgb(0,0,255)"
       stroke-width="0.20"
       id="path20308" /><path
       d="M 24.250 164.700 V 161.650 C 24.250 161.550 24.150 161.650 24.250 161.650 H 27.350 C 27.450 161.650 27.350 161.550 27.350 161.650 V 167.750 C 27.350 167.850 27.450 167.750 27.350 167.750 H 24.250 C 24.150 167.750 24.250 167.850 24.250 167.750 V 164.700 Z"
       stroke="rgb(0,0,255)"
       stroke-width="0.20"
       id="path20310" /><path
       d="M 24.250 176.700 V 173.650 C 24.250 173.550 24.150 173.650 24.250 173.650 H 27.350 C 27.450 173.650 27.350 173.550 27.350 173.650 V 179.750 C 27.350 179.850 27.450 179.750 27.350 179.750 H 24.250 C 24.150 179.750 24.250 179.850 24.250 179.750 V 176.700 Z"
       stroke="rgb(0,0,255)"
       stroke-width="0.20"
       id="path20312" /></g></svg>
