<?xml version="1.0" encoding="UTF-8" standalone="no"?>
<!-- Created with Inkscape (http://www.inkscape.org/) -->

<svg
   width="210mm"
   height="297mm"
   viewBox="0 0 210 297"
   version="1.1"
   id="svg3233"
   inkscape:version="1.2.2 (b0a84865, 2022-12-01)"
   sodipodi:docname="powersupplybox_out_seite_speakon.svg"
   xml:space="preserve"
   xmlns:inkscape="http://www.inkscape.org/namespaces/inkscape"
   xmlns:sodipodi="http://sodipodi.sourceforge.net/DTD/sodipodi-0.dtd"
   xmlns="http://www.w3.org/2000/svg"
   xmlns:svg="http://www.w3.org/2000/svg"><sodipodi:namedview
     id="namedview3235"
     pagecolor="#ffffff"
     bordercolor="#666666"
     borderopacity="1.0"
     inkscape:showpageshadow="2"
     inkscape:pageopacity="0.0"
     inkscape:pagecheckerboard="0"
     inkscape:deskcolor="#d1d1d1"
     inkscape:document-units="mm"
     showgrid="false"
     inkscape:zoom="1.4324916"
     inkscape:cx="302.61958"
     inkscape:cy="384.99353"
     inkscape:window-width="1920"
     inkscape:window-height="1027"
     inkscape:window-x="1920"
     inkscape:window-y="25"
     inkscape:window-maximized="1"
     inkscape:current-layer="layer1" /><defs
     id="defs3230" /><g
     inkscape:label="Ebene 1"
     inkscape:groupmode="layer"
     id="layer1"><path
       d="m 42.27943,85.26221 h -3.05 c -0.1,0 0,0.1 0,0 v -3.1 c 0,-0.1 -0.1,0 0,0 h 6.1 c 0.1,0 0,-0.1 0,0 v 3.1 c 0,0.1 0.1,0 0,0 z"
       stroke="#0000ff"
       stroke-width="0.2"
       id="path20255-3"
       style="fill:none;stroke-linecap:round;stroke-linejoin:round" /><path
       d="m 87.27943,82.16221 h 3.05 c 0.1,0 0,-0.1 0,0 v 3.1 c 0,0.1 0.1,0 0,0 h -6.1 c -0.1,0 0,0.1 0,0 v -3.1 c 0,-0.1 -0.1,0 0,0 z"
       stroke="#0000ff"
       stroke-width="0.2"
       id="path20257-8"
       style="fill:none;stroke-linecap:round;stroke-linejoin:round" /><path
       d="m 29.77943,127.31221 h 7.9 c 0.1,0 0,-0.1 0,0 v 2.9 c 0,0.055 0.045,0.1 0.1,0.1 h 6 c 0.055,0 0.1,-0.045 0.1,-0.1 v -2.9 c 0,-0.1 -0.1,0 0,0 h 5.8 c 0.1,0 0,-0.1 0,0 v 2.9 c 0,0.055 0.045,0.1 0.1,0.1 h 6 c 0.055,0 0.1,-0.045 0.1,-0.1 v -2.9 c 0,-0.1 -0.1,0 0,0 h 5.8 c 0.1,0 0,-0.1 0,0 v 2.9 c 0,0.055 0.045,0.1 0.1,0.1 h 6 c 0.055,0 0.1,-0.045 0.1,-0.1 v -2.9 c 0,-0.1 -0.1,0 0,0 h 5.8 c 0.1,0 0,-0.1 0,0 v 2.9 c 0,0.055 0.045,0.1 0.1,0.1 h 6 c 0.055,0 0.1,-0.045 0.1,-0.1 v -2.9 c 0,-0.1 -0.1,0 0,0 h 5.8 c 0.1,0 0,-0.1 0,0 v 2.9 c 0,0.055 0.045,0.1 0.1,0.1 h 6 c 0.055,0 0.1,-0.045 0.1,-0.1 v -2.9 c 0,-0.1 -0.1,0 0,0 h 7.9 c 0.055,0 0.1,-0.045 0.1,-0.1 v -8.9 c 0,-0.1 -0.1,0 0,0 h 2.9 c 0.055,0 0.1,-0.045 0.1,-0.1 v -6 c 0,-0.055 -0.045,-0.1 -0.1,-0.1 h -2.9 c -0.1,0 0,0.1 0,0 v -5.8 c 0,-0.1 -0.1,0 0,0 h 2.9 c 0.055,0 0.1,-0.045 0.1,-0.1 v -6 c 0,-0.055 -0.045,-0.1 -0.1,-0.1 h -2.9 c -0.1,0 0,0.1 0,0 v -5.8 c 0,-0.1 -0.1,0 0,0 h 2.9 c 0.055,0 0.1,-0.045 0.1,-0.1 v -6 c 0,-0.055 -0.045,-0.1 -0.1,-0.1 h -2.9 c -0.1,0 0,0.1 0,0 v -8.9 c 0,-0.055 -0.045,-0.1 -0.1,-0.1 h -70 c -0.055,0 -0.1,0.045 -0.1,0.1 v 8.9 c 0,0.1 0.1,0 0,0 h -2.9 c -0.055,0 -0.1,0.045 -0.1,0.1 v 6 c 0,0.055 0.045,0.1 0.1,0.1 h 2.9 c 0.1,0 0,-0.1 0,0 v 5.8 c 0,0.1 0.1,0 0,0 h -2.9 c -0.055,0 -0.1,0.045 -0.1,0.1 v 6 c 0,0.055 0.045,0.1 0.1,0.1 h 2.9 c 0.1,0 0,-0.1 0,0 v 5.8 c 0,0.1 0.1,0 0,0 h -2.9 c -0.055,0 -0.1,0.045 -0.1,0.1 v 6 c 0,0.055 0.045,0.1 0.1,0.1 h 2.9 c 0.1,0 0,-0.1 0,0 v 8.9 c 0,0.055 0.045,0.1 0.1,0.1"
       stroke="#000000"
       stroke-width="0.2"
       id="path20261-0"
       style="fill:none;stroke-linecap:round;stroke-linejoin:round" /><g
       inkscape:label="Ebene 1"
       id="layer1-5"
       transform="translate(-68.502643,18.74085)"><circle
         style="fill:#ffffff;stroke:#000000;stroke-width:0.269999"
         id="path6191"
         cx="117.16187"
         cy="86.001801"
         r="12" /><circle
         style="opacity:1;fill:#ffffff;stroke:#000000;stroke-width:0.269999"
         id="path7806"
         cx="106.65646"
         cy="75.39415"
         r="2" /><circle
         style="opacity:1;fill:#ffffff;stroke:#000000;stroke-width:0.269999"
         id="path7806-3"
         cx="127.87138"
         cy="96.603851"
         r="2" /></g><g
       inkscape:label="Ebene 1"
       id="layer1-5-4"
       transform="translate(-35.071759,18.74085)"><circle
         style="fill:#ffffff;stroke:#000000;stroke-width:0.269999"
         id="path6191-9"
         cx="117.16187"
         cy="86.001801"
         r="12" /><circle
         style="opacity:1;fill:#ffffff;stroke:#000000;stroke-width:0.269999"
         id="path7806-1"
         cx="106.65646"
         cy="75.39415"
         r="2" /><circle
         style="opacity:1;fill:#ffffff;stroke:#000000;stroke-width:0.269999"
         id="path7806-3-7"
         cx="127.87138"
         cy="96.603851"
         r="2" /></g></g></svg>
