<?xml version="1.0" encoding="UTF-8" standalone="no"?>
<svg
   width="434.20mm"
   height="317.90mm"
   viewBox="0.0 0.0 434.20 317.90"
   version="1.1"
   id="svg20345"
   sodipodi:docname="powersupplybox_3_.svg"
   inkscape:version="1.2.2 (b0a84865, 2022-12-01)"
   xml:space="preserve"
   xmlns:inkscape="http://www.inkscape.org/namespaces/inkscape"
   xmlns:sodipodi="http://sodipodi.sourceforge.net/DTD/sodipodi-0.dtd"
   xmlns="http://www.w3.org/2000/svg"
   xmlns:svg="http://www.w3.org/2000/svg"
   xmlns:rdf="http://www.w3.org/1999/02/22-rdf-syntax-ns#"
   xmlns:cc="http://creativecommons.org/ns#"
   xmlns:dc="http://purl.org/dc/elements/1.1/"><defs
     id="defs20349" /><sodipodi:namedview
     id="namedview20347"
     pagecolor="#ffffff"
     bordercolor="#666666"
     borderopacity="1.0"
     inkscape:showpageshadow="2"
     inkscape:pageopacity="0.0"
     inkscape:pagecheckerboard="0"
     inkscape:deskcolor="#d1d1d1"
     inkscape:document-units="mm"
     showgrid="false"
     inkscape:zoom="0.34706277"
     inkscape:cx="1259.1382"
     inkscape:cy="939.31135"
     inkscape:window-width="1387"
     inkscape:window-height="928"
     inkscape:window-x="199"
     inkscape:window-y="139"
     inkscape:window-maximized="0"
     inkscape:current-layer="p-2" /><!--
ElectronicsBox - Closed box with screw on top and mounting holes

Created with Boxes.py (https://festi.info/boxes.py)
Creation date: 2023-01-07 21:43:29
Command line (remove spaces between dashes): boxes ElectronicsBox - -FingerJoint_angle=90.0 - -FingerJoint_style=rectangular - -FingerJoint_surroundingspaces=2.0 - -FingerJoint_edge_width=1.0 - -FingerJoint_extra_length=0.0 - -FingerJoint_finger=2.0 - -FingerJoint_play=0.1 - -FingerJoint_space=2.0 - -FingerJoint_width=1.0 - -x=330.0 - -y=70.0 - -h=42.0 - -outside=0 - -triangle=25.0 - -d1=2.0 - -d2=3.0 - -d3=3.0 - -outsidemounts=0 - -outsidemounts=1 - -holedist=7.0 - -thickness=3.0 - -format=svg - -tabs=0.0 - -debug=0 - -labels=0 - -labels=1 - -reference=100 - -inner_corners=loop - -burn=0.1
Url: http://localhost:8000/ElectronicsBox?FingerJoint_angle=90.0&FingerJoint_style=rectangular&FingerJoint_surroundingspaces=2.0&FingerJoint_edge_width=1.0&FingerJoint_extra_length=0.0&FingerJoint_finger=2.0&FingerJoint_play=0.1&FingerJoint_space=2.0&FingerJoint_width=1.0&x=330.0&y=70.0&h=42.0&outside=0&triangle=25.0&d1=2.0&d2=3.0&d3=3.0&outsidemounts=0&outsidemounts=1&holedist=7.0&thickness=3.0&format=svg&tabs=0.0&debug=0&labels=0&labels=1&reference=100&inner_corners=loop&burn=0.1&render=1
SettingsUrl: http://localhost:8000/ElectronicsBox?FingerJoint_angle=90.0&FingerJoint_style=rectangular&FingerJoint_surroundingspaces=2.0&FingerJoint_edge_width=1.0&FingerJoint_extra_length=0.0&FingerJoint_finger=2.0&FingerJoint_play=0.1&FingerJoint_space=2.0&FingerJoint_width=1.0&x=330.0&y=70.0&h=42.0&outside=0&triangle=25.0&d1=2.0&d2=3.0&d3=3.0&outsidemounts=0&outsidemounts=1&holedist=7.0&thickness=3.0&format=svg&tabs=0.0&debug=0&labels=0&labels=1&reference=100&inner_corners=loop&burn=0.1
--><title
     id="title20237">ElectronicsBox</title><metadata
     id="metadata20239"><rdf:RDF><cc:Work><dc:title>ElectronicsBox</dc:title><dc:date>2023-01-07 21:43:29</dc:date><dc:source>http://localhost:8000/ElectronicsBox?FingerJoint_angle=90.0&amp;FingerJoint_style=rectangular&amp;FingerJoint_surroundingspaces=2.0&amp;FingerJoint_edge_width=1.0&amp;FingerJoint_extra_length=0.0&amp;FingerJoint_finger=2.0&amp;FingerJoint_play=0.1&amp;FingerJoint_space=2.0&amp;FingerJoint_width=1.0&amp;x=330.0&amp;y=70.0&amp;h=42.0&amp;outside=0&amp;triangle=25.0&amp;d1=2.0&amp;d2=3.0&amp;d3=3.0&amp;outsidemounts=0&amp;outsidemounts=1&amp;holedist=7.0&amp;thickness=3.0&amp;format=svg&amp;tabs=0.0&amp;debug=0&amp;labels=0&amp;labels=1&amp;reference=100&amp;inner_corners=loop&amp;burn=0.1&amp;render=1</dc:source><dc:description>Closed box with screw on top and mounting holes

Created with Boxes.py (https://festi.info/boxes.py)
Command line: boxes ElectronicsBox --FingerJoint_angle=90.0 --FingerJoint_style=rectangular --FingerJoint_surroundingspaces=2.0 --FingerJoint_edge_width=1.0 --FingerJoint_extra_length=0.0 --FingerJoint_finger=2.0 --FingerJoint_play=0.1 --FingerJoint_space=2.0 --FingerJoint_width=1.0 --x=330.0 --y=70.0 --h=42.0 --outside=0 --triangle=25.0 --d1=2.0 --d2=3.0 --d3=3.0 --outsidemounts=0 --outsidemounts=1 --holedist=7.0 --thickness=3.0 --format=svg --tabs=0.0 --debug=0 --labels=0 --labels=1 --reference=100 --inner_corners=loop --burn=0.1
Url: http://localhost:8000/ElectronicsBox?FingerJoint_angle=90.0&amp;FingerJoint_style=rectangular&amp;FingerJoint_surroundingspaces=2.0&amp;FingerJoint_edge_width=1.0&amp;FingerJoint_extra_length=0.0&amp;FingerJoint_finger=2.0&amp;FingerJoint_play=0.1&amp;FingerJoint_space=2.0&amp;FingerJoint_width=1.0&amp;x=330.0&amp;y=70.0&amp;h=42.0&amp;outside=0&amp;triangle=25.0&amp;d1=2.0&amp;d2=3.0&amp;d3=3.0&amp;outsidemounts=0&amp;outsidemounts=1&amp;holedist=7.0&amp;thickness=3.0&amp;format=svg&amp;tabs=0.0&amp;debug=0&amp;labels=0&amp;labels=1&amp;reference=100&amp;inner_corners=loop&amp;burn=0.1&amp;render=1
SettingsUrl: http://localhost:8000/ElectronicsBox?FingerJoint_angle=90.0&amp;FingerJoint_style=rectangular&amp;FingerJoint_surroundingspaces=2.0&amp;FingerJoint_edge_width=1.0&amp;FingerJoint_extra_length=0.0&amp;FingerJoint_finger=2.0&amp;FingerJoint_play=0.1&amp;FingerJoint_space=2.0&amp;FingerJoint_width=1.0&amp;x=330.0&amp;y=70.0&amp;h=42.0&amp;outside=0&amp;triangle=25.0&amp;d1=2.0&amp;d2=3.0&amp;d3=3.0&amp;outsidemounts=0&amp;outsidemounts=1&amp;holedist=7.0&amp;thickness=3.0&amp;format=svg&amp;tabs=0.0&amp;debug=0&amp;labels=0&amp;labels=1&amp;reference=100&amp;inner_corners=loop&amp;burn=0.1
</dc:description></cc:Work></rdf:RDF></metadata><g
     id="p-0"
     style="fill:none;stroke-linecap:round;stroke-linejoin:round;" /><g
     id="p-2"
     style="fill:none;stroke-linecap:round;stroke-linejoin:round;"><path
       d="M 363.600 251.150 H 360.550 C 360.450 251.150 360.550 251.250 360.550 251.150 V 248.050 C 360.550 247.950 360.450 248.050 360.550 248.050 H 366.650 C 366.750 248.050 366.650 247.950 366.650 248.050 V 251.150 C 366.650 251.250 366.750 251.150 366.650 251.150 H 363.600 Z"
       stroke="rgb(0,0,255)"
       stroke-width="0.20"
       id="path20255" /><g
       id="p-6-0"
       style="fill:none;stroke-linecap:round;stroke-linejoin:round"
       transform="translate(211.0749,-933.90861)"><path
         d="m -168.1569,1039.1699 h 25 c 0.495,0 0.981,-0.13 1.409,-0.378 0.429,-0.247 0.784,-0.603 1.032,-1.031 0.247,-0.429 0.377,-0.915 0.377,-1.409 0,-0.495 -0.13,-0.981 -0.377,-1.409 -0.248,-0.429 -0.603,-0.785 -1.032,-1.032 -0.428,-0.247 -0.914,-0.378 -1.409,-0.378 h -16.34263 -8.65737 c -0.495,0 -0.98,0.131 -1.409,0.378 -0.428,0.247 -0.784,0.603 -1.031,1.032 -0.248,0.428 -0.378,0.914 -0.378,1.409 0,0.494 0.13,0.98 0.378,1.409 0.247,0.428 0.603,0.784 1.031,1.031 0.429,0.248 0.914,0.378 1.409,0.378 z m 34.837,-5.637 h 50.000001 c 0.494,0 0.98,0.13 1.409,0.378 0.428,0.247 0.784,0.603 1.031,1.031 0.248,0.429 0.378,0.915 0.378,1.409 0,0.495 -0.13,0.981 -0.378,1.409 -0.247,0.429 -0.603,0.785 -1.031,1.032 -0.429,0.247 -0.915,0.378 -1.409,0.378 H -133.3199 c -0.495,0 -0.981,-0.131 -1.41,-0.378 -0.428,-0.247 -0.784,-0.603 -1.031,-1.032 -0.247,-0.428 -0.378,-0.914 -0.378,-1.409 0,-0.494 0.131,-0.98 0.378,-1.409 0.247,-0.428 0.603,-0.784 1.031,-1.031 0.429,-0.248 0.915,-0.378 1.41,-0.378 z m 59.836001,0 h 50.000001 c 0.495,0 0.981,0.13 1.409,0.378 0.428,0.247 0.784,0.603 1.032,1.031 0.247,0.429 0.377,0.915 0.377,1.409 0,0.495 -0.13,0.981 -0.377,1.409 -0.248,0.429 -0.604,0.785 -1.032,1.032 -0.428,0.247 -0.914,0.378 -1.409,0.378 h -50.000001 c -0.495,0 -0.981,-0.131 -1.409,-0.378 -0.429,-0.247 -0.784,-0.603 -1.032,-1.032 -0.247,-0.428 -0.377,-0.914 -0.377,-1.409 0,-0.494 0.13,-0.98 0.377,-1.409 0.248,-0.428 0.603,-0.784 1.032,-1.031 0.428,-0.248 0.914,-0.378 1.409,-0.378 z m 59.836001,0 h 50 c 0.495,0 0.981,0.13 1.409,0.378 0.429,0.247 0.785,0.603 1.032,1.031 0.247,0.429 0.377,0.915 0.377,1.409 0,0.495 -0.13,0.981 -0.377,1.409 -0.247,0.429 -0.603,0.785 -1.032,1.032 -0.428,0.247 -0.914,0.378 -1.409,0.378 h -50 c -0.494,0 -0.98,-0.131 -1.409,-0.378 -0.428,-0.247 -0.784,-0.603 -1.031,-1.032 -0.248,-0.428 -0.378,-0.914 -0.378,-1.409 0,-0.494 0.13,-0.98 0.378,-1.409 0.247,-0.428 0.603,-0.784 1.031,-1.031 0.429,-0.248 0.915,-0.378 1.409,-0.378 z m 59.837,0 h 50.000001 c 0.494,0 0.98,0.13 1.409,0.378 0.428,0.247 0.784,0.603 1.031,1.031 0.248,0.429 0.378,0.915 0.378,1.409 0,0.495 -0.13,0.981 -0.378,1.409 -0.247,0.429 -0.603,0.785 -1.031,1.032 -0.429,0.247 -0.915,0.378 -1.409,0.378 H 46.189102 c -0.495,0 -0.981,-0.131 -1.409,-0.378 -0.429,-0.247 -0.785,-0.603 -1.032,-1.032 -0.247,-0.428 -0.378,-0.914 -0.378,-1.409 0,-0.494 0.131,-0.98 0.378,-1.409 0.247,-0.428 0.603,-0.784 1.032,-1.031 0.428,-0.248 0.914,-0.378 1.409,-0.378 z m -214.346002,-9.836 h 50 c 0.495,0 0.981,0.13 1.409,0.378 0.429,0.247 0.784,0.603 1.032,1.031 0.247,0.428 0.377,0.914 0.377,1.409 0,0.495 -0.13,0.981 -0.377,1.409 -0.248,0.429 -0.603,0.784 -1.032,1.032 -0.428,0.247 -0.914,0.377 -1.409,0.377 h -50 c -0.495,0 -0.98,-0.13 -1.409,-0.377 -0.428,-0.248 -0.784,-0.603 -1.031,-1.032 -0.248,-0.428 -0.378,-0.914 -0.378,-1.409 0,-0.495 0.13,-0.981 0.378,-1.409 0.247,-0.428 0.603,-0.784 1.031,-1.031 0.429,-0.248 0.914,-0.378 1.409,-0.378 z m 59.837,0 h 50.000001 c 0.494,0 0.98,0.13 1.409,0.378 0.428,0.247 0.784,0.603 1.031,1.031 0.248,0.428 0.378,0.914 0.378,1.409 0,0.495 -0.13,0.981 -0.378,1.409 -0.247,0.429 -0.603,0.784 -1.031,1.032 -0.429,0.247 -0.915,0.377 -1.409,0.377 H -108.3199 c -0.495,0 -0.981,-0.13 -1.41,-0.377 -0.428,-0.248 -0.784,-0.603 -1.031,-1.032 -0.247,-0.428 -0.378,-0.914 -0.378,-1.409 0,-0.495 0.131,-0.981 0.378,-1.409 0.247,-0.428 0.603,-0.784 1.031,-1.031 0.429,-0.248 0.915,-0.378 1.41,-0.378 z m 59.836001,0 H 1.516102 c 0.495,0 0.981,0.13 1.409,0.378 0.428,0.247 0.784,0.603 1.032,1.031 0.247,0.428 0.377,0.914 0.377,1.409 0,0.495 -0.13,0.981 -0.377,1.409 -0.248,0.429 -0.604,0.784 -1.032,1.032 -0.428,0.247 -0.914,0.377 -1.409,0.377 h -50.000001 c -0.495,0 -0.981,-0.13 -1.409,-0.377 -0.429,-0.248 -0.784,-0.603 -1.032,-1.032 -0.247,-0.428 -0.377,-0.914 -0.377,-1.409 0,-0.495 0.13,-0.981 0.377,-1.409 0.248,-0.428 0.603,-0.784 1.032,-1.031 0.428,-0.248 0.914,-0.378 1.409,-0.378 z m 59.836001,0 h 50.000001 c 0.495,0 0.981,0.13 1.409,0.378 0.429,0.247 0.785,0.603 1.032,1.031 0.247,0.428 0.377,0.914 0.377,1.409 0,0.495 -0.13,0.981 -0.377,1.409 -0.247,0.429 -0.603,0.784 -1.032,1.032 -0.428,0.247 -0.914,0.377 -1.409,0.377 H 11.352102 c -0.494,0 -0.98,-0.13 -1.4089999,-0.377 -0.4280001,-0.248 -0.7840001,-0.603 -1.0310001,-1.032 -0.248,-0.428 -0.378,-0.914 -0.378,-1.409 0,-0.495 0.13,-0.981 0.378,-1.409 0.247,-0.428 0.603,-0.784 1.0310001,-1.031 0.4289999,-0.248 0.9149999,-0.378 1.4089999,-0.378 z m -179.509002,-9.836 h 25 c 0.495,0 0.981,0.13 1.409,0.377 0.429,0.248 0.784,0.603 1.032,1.032 0.247,0.428 0.377,0.914 0.377,1.409 0,0.495 -0.13,0.981 -0.377,1.409 -0.248,0.428 -0.603,0.784 -1.032,1.031 -0.428,0.248 -0.914,0.378 -1.409,0.378 h -25 c -0.495,0 -0.98,-0.13 -1.409,-0.378 -0.428,-0.247 -0.784,-0.603 -1.031,-1.031 -0.248,-0.428 -0.378,-0.914 -0.378,-1.409 0,-0.495 0.13,-0.981 0.378,-1.409 0.247,-0.429 0.603,-0.784 1.031,-1.032 0.429,-0.247 0.914,-0.377 1.409,-0.377 z m 34.837,0 h 50.000001 c 0.494,0 0.98,0.13 1.409,0.377 0.428,0.248 0.784,0.603 1.031,1.032 0.248,0.428 0.378,0.914 0.378,1.409 0,0.495 -0.13,0.981 -0.378,1.409 -0.247,0.428 -0.603,0.784 -1.031,1.031 -0.429,0.248 -0.915,0.378 -1.409,0.378 H -133.3199 c -0.495,0 -0.981,-0.13 -1.41,-0.378 -0.428,-0.247 -0.784,-0.603 -1.031,-1.031 -0.247,-0.428 -0.378,-0.914 -0.378,-1.409 0,-0.495 0.131,-0.981 0.378,-1.409 0.247,-0.429 0.603,-0.784 1.031,-1.032 0.429,-0.247 0.915,-0.377 1.41,-0.377 z m 59.836001,0 h 50.000001 c 0.495,0 0.981,0.13 1.409,0.377 0.428,0.248 0.784,0.603 1.032,1.032 0.247,0.428 0.377,0.914 0.377,1.409 0,0.495 -0.13,0.981 -0.377,1.409 -0.248,0.428 -0.604,0.784 -1.032,1.031 -0.428,0.248 -0.914,0.378 -1.409,0.378 h -50.000001 c -0.495,0 -0.981,-0.13 -1.409,-0.378 -0.429,-0.247 -0.784,-0.603 -1.032,-1.031 -0.247,-0.428 -0.377,-0.914 -0.377,-1.409 0,-0.495 0.13,-0.981 0.377,-1.409 0.248,-0.429 0.603,-0.784 1.032,-1.032 0.428,-0.247 0.914,-0.377 1.409,-0.377 z m 59.836001,0 h 50 c 0.495,0 0.981,0.13 1.409,0.377 0.429,0.248 0.785,0.603 1.032,1.032 0.247,0.428 0.377,0.914 0.377,1.409 0,0.495 -0.13,0.981 -0.377,1.409 -0.247,0.428 -0.603,0.784 -1.032,1.031 -0.428,0.248 -0.914,0.378 -1.409,0.378 h -50 c -0.494,0 -0.98,-0.13 -1.409,-0.378 -0.428,-0.247 -0.784,-0.603 -1.031,-1.031 -0.248,-0.428 -0.378,-0.914 -0.378,-1.409 0,-0.495 0.13,-0.981 0.378,-1.409 0.247,-0.429 0.603,-0.784 1.031,-1.032 0.429,-0.247 0.915,-0.377 1.409,-0.377 z m 59.837,0 h 50.000001 c 0.494,0 0.98,0.13 1.409,0.377 0.428,0.248 0.784,0.603 1.031,1.032 0.248,0.428 0.378,0.914 0.378,1.409 0,0.495 -0.13,0.981 -0.378,1.409 -0.247,0.428 -0.603,0.784 -1.031,1.031 -0.429,0.248 -0.915,0.378 -1.409,0.378 H 46.189102 c -0.495,0 -0.981,-0.13 -1.409,-0.378 -0.429,-0.247 -0.785,-0.603 -1.032,-1.031 -0.247,-0.428 -0.378,-0.914 -0.378,-1.409 0,-0.495 0.131,-0.981 0.378,-1.409 0.247,-0.429 0.603,-0.784 1.032,-1.032 0.428,-0.247 0.914,-0.377 1.409,-0.377 z m -214.346002,-9.837 h 50 c 0.495,0 0.981,0.131 1.409,0.378 0.429,0.247 0.784,0.603 1.032,1.032 0.247,0.428 0.377,0.914 0.377,1.409 0,0.494 -0.13,0.98 -0.377,1.409 -0.248,0.428 -0.603,0.784 -1.032,1.031 -0.428,0.248 -0.914,0.378 -1.409,0.378 h -50 c -0.495,0 -0.98,-0.13 -1.409,-0.378 -0.428,-0.247 -0.784,-0.603 -1.031,-1.031 -0.248,-0.429 -0.378,-0.915 -0.378,-1.409 0,-0.495 0.13,-0.981 0.378,-1.409 0.247,-0.429 0.603,-0.785 1.031,-1.032 0.429,-0.247 0.914,-0.378 1.409,-0.378 z m 59.837,0 h 50.000001 c 0.494,0 0.98,0.131 1.409,0.378 0.428,0.247 0.784,0.603 1.031,1.032 0.248,0.428 0.378,0.914 0.378,1.409 0,0.494 -0.13,0.98 -0.378,1.409 -0.247,0.428 -0.603,0.784 -1.031,1.031 -0.429,0.248 -0.915,0.378 -1.409,0.378 H -108.3199 c -0.495,0 -0.981,-0.13 -1.41,-0.378 -0.428,-0.247 -0.784,-0.603 -1.031,-1.031 -0.247,-0.429 -0.378,-0.915 -0.378,-1.409 0,-0.495 0.131,-0.981 0.378,-1.409 0.247,-0.429 0.603,-0.785 1.031,-1.032 0.429,-0.247 0.915,-0.378 1.41,-0.378 z m 59.836001,0 H 1.516102 c 0.495,0 0.981,0.131 1.409,0.378 0.428,0.247 0.784,0.603 1.032,1.032 0.247,0.428 0.377,0.914 0.377,1.409 0,0.494 -0.13,0.98 -0.377,1.409 -0.248,0.428 -0.604,0.784 -1.032,1.031 -0.428,0.248 -0.914,0.378 -1.409,0.378 h -50.000001 c -0.495,0 -0.981,-0.13 -1.409,-0.378 -0.429,-0.247 -0.784,-0.603 -1.032,-1.031 -0.247,-0.429 -0.377,-0.915 -0.377,-1.409 0,-0.495 0.13,-0.981 0.377,-1.409 0.248,-0.429 0.603,-0.785 1.032,-1.032 0.428,-0.247 0.914,-0.378 1.409,-0.378 z m 59.836001,0 h 50.000001 c 0.495,0 0.981,0.131 1.409,0.378 0.429,0.247 0.785,0.603 1.032,1.032 0.247,0.428 0.377,0.914 0.377,1.409 0,0.494 -0.13,0.98 -0.377,1.409 -0.247,0.428 -0.603,0.784 -1.032,1.031 -0.428,0.248 -0.914,0.378 -1.409,0.378 H 11.352102 c -0.494,0 -0.98,-0.13 -1.4089999,-0.378 -0.4280001,-0.247 -0.7840001,-0.603 -1.0310001,-1.031 -0.248,-0.429 -0.378,-0.915 -0.378,-1.409 0,-0.495 0.13,-0.981 0.378,-1.409 0.247,-0.429 0.603,-0.785 1.0310001,-1.032 0.4289999,-0.247 0.9149999,-0.378 1.4089999,-0.378 z M -168.1569,994.18794 h 25 c 0.495,0 0.981,0.13 1.409,0.378 0.429,0.247 0.784,0.603 1.032,1.031 0.247,0.429 0.377,0.915 0.377,1.409 0,0.495 -0.13,0.981 -0.377,1.409 -0.248,0.429 -0.603,0.785 -1.032,1.032 -0.428,0.247 -0.914,0.378 -1.409,0.378 h -25 c -0.495,0 -0.98,-0.131 -1.409,-0.378 -0.428,-0.247 -0.784,-0.603 -1.031,-1.032 -0.248,-0.428 -0.378,-0.914 -0.378,-1.409 0,-0.494 0.13,-0.98 0.378,-1.409 0.247,-0.428 0.603,-0.784 1.031,-1.031 0.429,-0.248 0.914,-0.378 1.409,-0.378 z m 34.837,0 h 50.000001 c 0.494,0 0.98,0.13 1.409,0.378 0.428,0.247 0.784,0.603 1.031,1.031 0.248,0.429 0.378,0.915 0.378,1.409 0,0.495 -0.13,0.981 -0.378,1.409 -0.247,0.429 -0.603,0.785 -1.031,1.032 -0.429,0.247 -0.915,0.378 -1.409,0.378 H -133.3199 c -0.495,0 -0.981,-0.131 -1.41,-0.378 -0.428,-0.247 -0.784,-0.603 -1.031,-1.032 -0.247,-0.428 -0.378,-0.914 -0.378,-1.409 0,-0.494 0.131,-0.98 0.378,-1.409 0.247,-0.428 0.603,-0.784 1.031,-1.031 0.429,-0.248 0.915,-0.378 1.41,-0.378 z m 59.836001,0 h 50.000001 c 0.495,0 0.981,0.13 1.409,0.378 0.428,0.247 0.784,0.603 1.032,1.031 0.247,0.429 0.377,0.915 0.377,1.409 0,0.495 -0.13,0.981 -0.377,1.409 -0.248,0.429 -0.604,0.785 -1.032,1.032 -0.428,0.247 -0.914,0.378 -1.409,0.378 h -50.000001 c -0.495,0 -0.981,-0.131 -1.409,-0.378 -0.429,-0.247 -0.784,-0.603 -1.032,-1.032 -0.247,-0.428 -0.377,-0.914 -0.377,-1.409 0,-0.494 0.13,-0.98 0.377,-1.409 0.248,-0.428 0.603,-0.784 1.032,-1.031 0.428,-0.248 0.914,-0.378 1.409,-0.378 z m 59.836001,0 h 50 c 0.495,0 0.981,0.13 1.409,0.378 0.429,0.247 0.785,0.603 1.032,1.031 0.247,0.429 0.377,0.915 0.377,1.409 0,0.495 -0.13,0.981 -0.377,1.409 -0.247,0.429 -0.603,0.785 -1.032,1.032 -0.428,0.247 -0.914,0.378 -1.409,0.378 h -50 c -0.494,0 -0.98,-0.131 -1.409,-0.378 -0.428,-0.247 -0.784,-0.603 -1.031,-1.032 -0.248,-0.428 -0.378,-0.914 -0.378,-1.409 0,-0.494 0.13,-0.98 0.378,-1.409 0.247,-0.428 0.603,-0.784 1.031,-1.031 0.429,-0.248 0.915,-0.378 1.409,-0.378 z m 59.837,0 h 50.000001 c 0.494,0 0.98,0.13 1.409,0.378 0.428,0.247 0.784,0.603 1.031,1.031 0.248,0.429 0.378,0.915 0.378,1.409 0,0.495 -0.13,0.981 -0.378,1.409 -0.247,0.429 -0.603,0.785 -1.031,1.032 -0.429,0.247 -0.915,0.378 -1.409,0.378 H 46.189102 c -0.495,0 -0.981,-0.131 -1.409,-0.378 -0.429,-0.247 -0.785,-0.603 -1.032,-1.032 -0.247,-0.428 -0.378,-0.914 -0.378,-1.409 0,-0.494 0.131,-0.98 0.378,-1.409 0.247,-0.428 0.603,-0.784 1.032,-1.031 0.428,-0.248 0.914,-0.378 1.409,-0.378 z m -214.346002,-9.836 h 50 c 0.495,0 0.981,0.13 1.409,0.377 0.429,0.248 0.784,0.604 1.032,1.032 0.247,0.428 0.377,0.914 0.377,1.409 0,0.495 -0.13,0.981 -0.377,1.409 -0.248,0.429 -0.603,0.784 -1.032,1.032 -0.428,0.247 -0.914,0.377 -1.409,0.377 h -50 c -0.495,0 -0.98,-0.13 -1.409,-0.377 -0.428,-0.248 -0.784,-0.603 -1.031,-1.032 -0.248,-0.428 -0.378,-0.914 -0.378,-1.409 0,-0.495 0.13,-0.981 0.378,-1.409 0.247,-0.428 0.603,-0.784 1.031,-1.032 0.429,-0.247 0.914,-0.377 1.409,-0.377 z m 59.837,0 h 50.000001 c 0.494,0 0.98,0.13 1.409,0.377 0.428,0.248 0.784,0.604 1.031,1.032 0.248,0.428 0.378,0.914 0.378,1.409 0,0.495 -0.13,0.981 -0.378,1.409 -0.247,0.429 -0.603,0.784 -1.031,1.032 -0.429,0.247 -0.915,0.377 -1.409,0.377 H -108.3199 c -0.495,0 -0.981,-0.13 -1.41,-0.377 -0.428,-0.248 -0.784,-0.603 -1.031,-1.032 -0.247,-0.428 -0.378,-0.914 -0.378,-1.409 0,-0.495 0.131,-0.981 0.378,-1.409 0.247,-0.428 0.603,-0.784 1.031,-1.032 0.429,-0.247 0.915,-0.377 1.41,-0.377 z m 59.836001,0 H 1.516102 c 0.495,0 0.981,0.13 1.409,0.377 0.428,0.248 0.784,0.604 1.032,1.032 0.247,0.428 0.377,0.914 0.377,1.409 0,0.495 -0.13,0.981 -0.377,1.409 -0.248,0.429 -0.604,0.784 -1.032,1.032 -0.428,0.247 -0.914,0.377 -1.409,0.377 h -50.000001 c -0.495,0 -0.981,-0.13 -1.409,-0.377 -0.429,-0.248 -0.784,-0.603 -1.032,-1.032 -0.247,-0.428 -0.377,-0.914 -0.377,-1.409 0,-0.495 0.13,-0.981 0.377,-1.409 0.248,-0.428 0.603,-0.784 1.032,-1.032 0.428,-0.247 0.914,-0.377 1.409,-0.377 z m 59.836001,0 h 50.000001 c 0.495,0 0.981,0.13 1.409,0.377 0.429,0.248 0.785,0.604 1.032,1.032 0.247,0.428 0.377,0.914 0.377,1.409 0,0.495 -0.13,0.981 -0.377,1.409 -0.247,0.429 -0.603,0.784 -1.032,1.032 -0.428,0.247 -0.914,0.377 -1.409,0.377 H 11.352102 c -0.494,0 -0.98,-0.13 -1.4089999,-0.377 -0.4280001,-0.248 -0.7840001,-0.603 -1.0310001,-1.032 -0.248,-0.428 -0.378,-0.914 -0.378,-1.409 0,-0.495 0.13,-0.981 0.378,-1.409 0.247,-0.428 0.603,-0.784 1.0310001,-1.032 0.4289999,-0.247 0.9149999,-0.377 1.4089999,-0.377 z"
         stroke="#000000"
         stroke-width="0.2"
         id="path25222"
         sodipodi:nodetypes="ssccsccscsccsccsssccsccssccsccsssccscsssccsccsssccsccssccsccsssccsccssccsccsssccsccssccsccsssccsccssccsscsssccsccssccsccssscssccssccsccsssccsccssccsccsssccsccsscssccsssccsccssccsccsssccsscssccsccsssccsccsscssccsssccsccssccsccsssccsccssccsccsssscsccssccsccsssccsccssccsccsssccsccssccsccsssccsccssccsccsssccscsssccsccsssccsccssccsccsssccsccssccsccsssccsccssccsccsssccsccssccsscsssccsccssccsccssscssccssccsccs" /><path
         d="m 71.15146,1029.2456 h 25 c 0.495001,0 0.981,-0.13 1.409,-0.378 0.429,-0.247 0.784001,-0.603 1.032001,-1.031 0.246999,-0.429 0.376999,-0.915 0.376999,-1.409 0,-0.495 -0.13,-0.981 -0.376999,-1.409 -0.248001,-0.429 -0.603001,-0.785 -1.032001,-1.032 -0.428,-0.247 -0.913999,-0.378 -1.409,-0.378 H 79.80883 71.15146 c -0.495,0 -0.98,0.131 -1.409,0.378 -0.428,0.247 -0.784,0.603 -1.031,1.032 -0.248,0.428 -0.378,0.914 -0.378,1.409 0,0.494 0.13,0.98 0.378,1.409 0.247,0.428 0.603,0.784 1.031,1.031 0.429,0.248 0.914,0.378 1.409,0.378 z"
         style="fill:none;stroke:#000000;stroke-width:0.2;stroke-linecap:round;stroke-linejoin:round"
         id="path40179-4" /><path
         d="m 71.15146,1009.5056 h 25 c 0.495001,0 0.981,-0.13 1.409,-0.378 0.429,-0.247 0.784001,-0.603 1.032001,-1.031 0.246999,-0.429 0.376999,-0.915 0.376999,-1.409 0,-0.495 -0.13,-0.981 -0.376999,-1.409 -0.248001,-0.429 -0.603001,-0.785 -1.032001,-1.032 -0.428,-0.247 -0.913999,-0.378 -1.409,-0.378 H 79.80883 71.15146 c -0.495,0 -0.98,0.131 -1.409,0.378 -0.428,0.247 -0.784,0.603 -1.031,1.032 -0.248,0.428 -0.378,0.914 -0.378,1.409 0,0.494 0.13,0.98 0.378,1.409 0.247,0.428 0.603,0.784 1.031,1.031 0.429,0.248 0.914,0.378 1.409,0.378 z"
         style="fill:none;stroke:#000000;stroke-width:0.2;stroke-linecap:round;stroke-linejoin:round"
         id="path40179-4-0" /><path
         d="m 71.15146,989.84561 h 25 c 0.495001,0 0.981,-0.13 1.409,-0.378 0.429,-0.247 0.784001,-0.603 1.032001,-1.031 0.246999,-0.429 0.376999,-0.915 0.376999,-1.409 0,-0.495 -0.13,-0.981 -0.376999,-1.409 -0.248001,-0.429 -0.603001,-0.785 -1.032001,-1.032 -0.428,-0.247 -0.913999,-0.378 -1.409,-0.378 H 79.80883 71.15146 c -0.495,0 -0.98,0.131 -1.409,0.378 -0.428,0.247 -0.784,0.603 -1.031,1.032 -0.248,0.428 -0.378,0.914 -0.378,1.409 0,0.494 0.13,0.98 0.378,1.409 0.247,0.428 0.603,0.784 1.031,1.031 0.429,0.248 0.914,0.378 1.409,0.378 z"
         style="fill:none;stroke:#000000;stroke-width:0.2;stroke-linecap:round;stroke-linejoin:round"
         id="path40179-4-5" /></g><g
       id="layer1"
       transform="translate(282.33975,159.59919)" /></g><g
     id="p-6"
     style="fill:none;stroke-linecap:round;stroke-linejoin:round;"><path
       d="M 20.133 104.667 C 20.133 104.935 20.056 105.198 19.911 105.424 C 19.766 105.649 19.559 105.829 19.315 105.940 C 19.071 106.052 18.800 106.091 18.534 106.052 C 18.268 106.014 18.019 105.900 17.817 105.725 C 17.614 105.549 17.466 105.319 17.390 105.061 C 17.314 104.804 17.314 104.530 17.390 104.272 C 17.466 104.015 17.614 103.784 17.817 103.609 C 18.019 103.433 18.268 103.319 18.534 103.281 C 18.800 103.243 19.071 103.282 19.315 103.393 C 19.559 103.505 19.766 103.684 19.911 103.910 C 20.056 104.136 20.133 104.398 20.133 104.667 Z"
       stroke="rgb(0,0,255)"
       stroke-width="0.20"
       id="path20315" /><path
       d="M 10.400 113.100 H 340.400 C 340.455 113.100 340.500 113.055 340.500 113.000 V 43.000 C 340.500 42.945 340.455 42.900 340.400 42.900 H 10.400 C 10.345 42.900 10.300 42.945 10.300 43.000 V 113.000 C 10.300 113.055 10.345 113.100 10.400 113.100"
       stroke="rgb(0,0,0)"
       stroke-width="0.20"
       id="path20319" /><path
       d="M 332.067 103.267 C 332.335 103.267 332.598 103.344 332.824 103.489 C 333.049 103.634 333.229 103.841 333.340 104.085 C 333.452 104.329 333.491 104.600 333.452 104.866 C 333.414 105.132 333.300 105.381 333.125 105.583 C 332.949 105.786 332.719 105.934 332.461 106.010 C 332.204 106.086 331.930 106.086 331.672 106.010 C 331.415 105.934 331.184 105.786 331.009 105.583 C 330.833 105.381 330.719 105.132 330.681 104.866 C 330.643 104.600 330.682 104.329 330.793 104.085 C 330.905 103.841 331.084 103.634 331.310 103.489 C 331.536 103.344 331.798 103.267 332.067 103.267 Z"
       stroke="rgb(0,0,255)"
       stroke-width="0.20"
       id="path20321" /><path
       d="M 330.667 51.333 C 330.667 51.065 330.744 50.802 330.889 50.576 C 331.034 50.351 331.241 50.171 331.485 50.060 C 331.729 49.948 332.000 49.909 332.266 49.948 C 332.532 49.986 332.781 50.100 332.983 50.275 C 333.186 50.451 333.334 50.681 333.410 50.939 C 333.486 51.196 333.486 51.470 333.410 51.728 C 333.334 51.985 333.186 52.216 332.983 52.391 C 332.781 52.567 332.532 52.681 332.266 52.719 C 332.000 52.757 331.729 52.718 331.485 52.607 C 331.241 52.495 331.034 52.316 330.889 52.090 C 330.744 51.864 330.667 51.602 330.667 51.333 Z"
       stroke="rgb(0,0,255)"
       stroke-width="0.20"
       id="path20323" /><path
       d="M 18.733 52.733 C 18.465 52.733 18.202 52.656 17.976 52.511 C 17.751 52.366 17.571 52.159 17.460 51.915 C 17.348 51.671 17.309 51.400 17.348 51.134 C 17.386 50.868 17.500 50.619 17.675 50.417 C 17.851 50.214 18.081 50.066 18.339 49.990 C 18.596 49.914 18.870 49.914 19.128 49.990 C 19.385 50.066 19.616 50.214 19.791 50.417 C 19.967 50.619 20.081 50.868 20.119 51.134 C 20.157 51.400 20.118 51.671 20.007 51.915 C 19.895 52.159 19.716 52.366 19.490 52.511 C 19.264 52.656 19.002 52.733 18.733 52.733 Z"
       stroke="rgb(0,0,255)"
       stroke-width="0.20"
       id="path20325" /></g></svg>
