<?xml version="1.0" encoding="UTF-8" standalone="no"?>
<svg
   width="492.20mm"
   height="647.90mm"
   viewBox="0.0 0.0 492.20 647.90"
   version="1.1"
   id="svg311"
   sodipodi:docname="ElectronicsBox_270x200x92_part2.svg"
   inkscape:version="1.2.2 (732a01da63, 2022-12-09)"
   xmlns:inkscape="http://www.inkscape.org/namespaces/inkscape"
   xmlns:sodipodi="http://sodipodi.sourceforge.net/DTD/sodipodi-0.dtd"
   xmlns="http://www.w3.org/2000/svg"
   xmlns:svg="http://www.w3.org/2000/svg"
   xmlns:rdf="http://www.w3.org/1999/02/22-rdf-syntax-ns#"
   xmlns:cc="http://creativecommons.org/ns#"
   xmlns:dc="http://purl.org/dc/elements/1.1/">
  <defs
     id="defs315">
    <rect
       x="228.70485"
       y="1294.8893"
       width="191.1398"
       height="47.508736"
       id="rect59777-6" />
    <rect
       x="228.70485"
       y="1294.8893"
       width="191.1398"
       height="47.508736"
       id="rect59777-6-0" />
    <rect
       x="228.70485"
       y="1294.8893"
       width="191.1398"
       height="47.508736"
       id="rect59777-6-0-8" />
    <rect
       x="228.70485"
       y="1294.8893"
       width="191.1398"
       height="47.508736"
       id="rect59777-6-0-3" />
    <rect
       x="228.70485"
       y="1294.8893"
       width="191.1398"
       height="47.508736"
       id="rect59777-6-0-6" />
    <rect
       x="228.70485"
       y="1294.8893"
       width="191.1398"
       height="47.508736"
       id="rect59777-6-0-9" />
    <rect
       x="228.70485"
       y="1294.8893"
       width="191.1398"
       height="47.508736"
       id="rect59777-6-0-6-3" />
    <rect
       x="228.70485"
       y="1294.8893"
       width="191.1398"
       height="47.508736"
       id="rect59777-6-0-9-2" />
    <rect
       x="228.70485"
       y="1294.8893"
       width="191.1398"
       height="47.508736"
       id="rect59777-6-5" />
    <rect
       x="228.70485"
       y="1294.8893"
       width="191.1398"
       height="47.508736"
       id="rect59777-6-0-1" />
    <rect
       x="228.70485"
       y="1294.8893"
       width="191.1398"
       height="47.508736"
       id="rect59777-6-0-8-3" />
    <rect
       x="228.70485"
       y="1294.8893"
       width="191.1398"
       height="47.508736"
       id="rect59777-6-0-3-8" />
    <rect
       x="228.70485"
       y="1294.8893"
       width="191.1398"
       height="47.508736"
       id="rect59777-6-0-6-5" />
    <rect
       x="228.70485"
       y="1294.8893"
       width="191.1398"
       height="47.508736"
       id="rect59777-6-0-9-4" />
    <rect
       x="228.70485"
       y="1294.8893"
       width="191.1398"
       height="47.508736"
       id="rect59777-6-0-6-3-4" />
    <rect
       x="228.70485"
       y="1294.8893"
       width="191.1398"
       height="47.508736"
       id="rect59777-6-0-9-2-4" />
    <rect
       x="228.70485"
       y="1294.8893"
       width="191.1398"
       height="47.508736"
       id="rect59777-6-8" />
    <rect
       x="228.70485"
       y="1294.8893"
       width="191.1398"
       height="47.508736"
       id="rect59777-6-8-2" />
    <rect
       x="228.70485"
       y="1294.8893"
       width="191.1398"
       height="47.508736"
       id="rect59777" />
    <rect
       x="228.70485"
       y="1294.8893"
       width="191.1398"
       height="47.508736"
       id="rect59777-1" />
  </defs>
  <sodipodi:namedview
     id="namedview313"
     pagecolor="#ffffff"
     bordercolor="#000000"
     borderopacity="0.25"
     inkscape:showpageshadow="2"
     inkscape:pageopacity="0.0"
     inkscape:pagecheckerboard="0"
     inkscape:deskcolor="#d1d1d1"
     inkscape:document-units="mm"
     showgrid="false"
     inkscape:zoom="0.95232028"
     inkscape:cx="804.35124"
     inkscape:cy="2314.3474"
     inkscape:window-width="2560"
     inkscape:window-height="1369"
     inkscape:window-x="2552"
     inkscape:window-y="-8"
     inkscape:window-maximized="1"
     inkscape:current-layer="svg311" />
  <!--
ElectronicsBox - Closed box with screw on top and mounting holes

Created with Boxes.py (https://festi.info/boxes.py)
Creation date: 2023-06-09 12:25:26
Command line (remove spaces between dashes): boxes ElectronicsBox - -FingerJoint_play=0.1 - -x=270 - -y=200 - -h=92
Url: http://localhost:8000/ElectronicsBox?FingerJoint_angle=90.0&FingerJoint_style=rectangular&FingerJoint_surroundingspaces=2.0&FingerJoint_bottom_lip=0.0&FingerJoint_edge_width=1.0&FingerJoint_extra_length=0.0&FingerJoint_finger=2.0&FingerJoint_play=0.1&FingerJoint_space=2.0&FingerJoint_width=1.0&x=270&y=200&h=92&outside=0&outside=1&triangle=25.0&d1=2.0&d2=3.0&d3=3.0&outsidemounts=0&outsidemounts=1&holedist=7.0&thickness=3.0&format=svg&tabs=0.0&qr_code=0&debug=0&labels=0&labels=1&reference=100&inner_corners=loop&burn=0.1&language=None&render=1
Url short: http://localhost:8000/ElectronicsBox?FingerJoint_play=0.1&x=270&y=200&h=92
SettingsUrl: http://localhost:8000/ElectronicsBox?FingerJoint_angle=90.0&FingerJoint_style=rectangular&FingerJoint_surroundingspaces=2.0&FingerJoint_bottom_lip=0.0&FingerJoint_edge_width=1.0&FingerJoint_extra_length=0.0&FingerJoint_finger=2.0&FingerJoint_play=0.1&FingerJoint_space=2.0&FingerJoint_width=1.0&x=270&y=200&h=92&outside=0&outside=1&triangle=25.0&d1=2.0&d2=3.0&d3=3.0&outsidemounts=0&outsidemounts=1&holedist=7.0&thickness=3.0&format=svg&tabs=0.0&qr_code=0&debug=0&labels=0&labels=1&reference=100&inner_corners=loop&burn=0.1&language=None
SettingsUrl short: http://localhost:8000/ElectronicsBox?FingerJoint_play=0.1&x=270&y=200&h=92
-->
  <title
     id="title163">ElectronicsBox</title>
  <metadata
     id="metadata165">
    <rdf:RDF>
      <cc:Work>
        <dc:title>ElectronicsBox</dc:title>
        <dc:date>2023-06-09 12:25:26</dc:date>
        <dc:source>http://localhost:8000/ElectronicsBox?FingerJoint_angle=90.0&amp;FingerJoint_style=rectangular&amp;FingerJoint_surroundingspaces=2.0&amp;FingerJoint_bottom_lip=0.0&amp;FingerJoint_edge_width=1.0&amp;FingerJoint_extra_length=0.0&amp;FingerJoint_finger=2.0&amp;FingerJoint_play=0.1&amp;FingerJoint_space=2.0&amp;FingerJoint_width=1.0&amp;x=270&amp;y=200&amp;h=92&amp;outside=0&amp;outside=1&amp;triangle=25.0&amp;d1=2.0&amp;d2=3.0&amp;d3=3.0&amp;outsidemounts=0&amp;outsidemounts=1&amp;holedist=7.0&amp;thickness=3.0&amp;format=svg&amp;tabs=0.0&amp;qr_code=0&amp;debug=0&amp;labels=0&amp;labels=1&amp;reference=100&amp;inner_corners=loop&amp;burn=0.1&amp;language=None&amp;render=1</dc:source>
        <dc:source>http://localhost:8000/ElectronicsBox?FingerJoint_play=0.1&amp;x=270&amp;y=200&amp;h=92</dc:source>
        <dc:description>Closed box with screw on top and mounting holes

Created with Boxes.py (https://festi.info/boxes.py)
Command line: boxes ElectronicsBox --FingerJoint_angle=90.0 --FingerJoint_style=rectangular --FingerJoint_surroundingspaces=2.0 --FingerJoint_bottom_lip=0.0 --FingerJoint_edge_width=1.0 --FingerJoint_extra_length=0.0 --FingerJoint_finger=2.0 --FingerJoint_play=0.1 --FingerJoint_space=2.0 --FingerJoint_width=1.0 --x=270 --y=200 --h=92 --outside=0 --outside=1 --triangle=25.0 --d1=2.0 --d2=3.0 --d3=3.0 --outsidemounts=0 --outsidemounts=1 --holedist=7.0 --thickness=3.0 --format=svg --tabs=0.0 --qr_code=0 --debug=0 --labels=0 --labels=1 --reference=100 --inner_corners=loop --burn=0.1
Command line short: boxes ElectronicsBox --FingerJoint_play=0.1 --x=270 --y=200 --h=92
Url: http://localhost:8000/ElectronicsBox?FingerJoint_angle=90.0&amp;FingerJoint_style=rectangular&amp;FingerJoint_surroundingspaces=2.0&amp;FingerJoint_bottom_lip=0.0&amp;FingerJoint_edge_width=1.0&amp;FingerJoint_extra_length=0.0&amp;FingerJoint_finger=2.0&amp;FingerJoint_play=0.1&amp;FingerJoint_space=2.0&amp;FingerJoint_width=1.0&amp;x=270&amp;y=200&amp;h=92&amp;outside=0&amp;outside=1&amp;triangle=25.0&amp;d1=2.0&amp;d2=3.0&amp;d3=3.0&amp;outsidemounts=0&amp;outsidemounts=1&amp;holedist=7.0&amp;thickness=3.0&amp;format=svg&amp;tabs=0.0&amp;qr_code=0&amp;debug=0&amp;labels=0&amp;labels=1&amp;reference=100&amp;inner_corners=loop&amp;burn=0.1&amp;language=None&amp;render=1
Url short: http://localhost:8000/ElectronicsBox?FingerJoint_play=0.1&amp;x=270&amp;y=200&amp;h=92
SettingsUrl: http://localhost:8000/ElectronicsBox?FingerJoint_angle=90.0&amp;FingerJoint_style=rectangular&amp;FingerJoint_surroundingspaces=2.0&amp;FingerJoint_bottom_lip=0.0&amp;FingerJoint_edge_width=1.0&amp;FingerJoint_extra_length=0.0&amp;FingerJoint_finger=2.0&amp;FingerJoint_play=0.1&amp;FingerJoint_space=2.0&amp;FingerJoint_width=1.0&amp;x=270&amp;y=200&amp;h=92&amp;outside=0&amp;outside=1&amp;triangle=25.0&amp;d1=2.0&amp;d2=3.0&amp;d3=3.0&amp;outsidemounts=0&amp;outsidemounts=1&amp;holedist=7.0&amp;thickness=3.0&amp;format=svg&amp;tabs=0.0&amp;qr_code=0&amp;debug=0&amp;labels=0&amp;labels=1&amp;reference=100&amp;inner_corners=loop&amp;burn=0.1&amp;language=None
SettingsUrl short: http://localhost:8000/ElectronicsBox?FingerJoint_play=0.1&amp;x=270&amp;y=200&amp;h=92
</dc:description>
      </cc:Work>
    </rdf:RDF>
  </metadata>
  <g
     id="p-0"
     style="fill:none;stroke-linecap:round;stroke-linejoin:round;" />
  <g
     id="p-6"
     style="fill:none;stroke-linecap:round;stroke-linejoin:round;">
    <path
       d="M 20.133 228.667 C 20.133 228.935 20.056 229.198 19.911 229.424 C 19.766 229.649 19.559 229.829 19.315 229.940 C 19.071 230.052 18.800 230.091 18.534 230.052 C 18.268 230.014 18.019 229.900 17.817 229.725 C 17.614 229.549 17.466 229.319 17.390 229.061 C 17.314 228.804 17.314 228.530 17.390 228.272 C 17.466 228.015 17.614 227.784 17.817 227.609 C 18.019 227.433 18.268 227.319 18.534 227.281 C 18.800 227.243 19.071 227.282 19.315 227.393 C 19.559 227.505 19.766 227.684 19.911 227.910 C 20.056 228.136 20.133 228.398 20.133 228.667 Z"
       stroke="rgb(0,0,255)"
       stroke-width="0.20"
       id="path281" />
    <path
       d="M 10.400 237.100 H 274.400 C 274.455 237.100 274.500 237.055 274.500 237.000 V 43.000 C 274.500 42.945 274.455 42.900 274.400 42.900 H 10.400 C 10.345 42.900 10.300 42.945 10.300 43.000 V 237.000 C 10.300 237.055 10.345 237.100 10.400 237.100"
       stroke="rgb(0,0,0)"
       stroke-width="0.20"
       id="path285" />
    <path
       d="M 266.067 227.267 C 266.335 227.267 266.598 227.344 266.824 227.489 C 267.049 227.634 267.229 227.841 267.340 228.085 C 267.452 228.329 267.491 228.600 267.452 228.866 C 267.414 229.132 267.300 229.381 267.125 229.583 C 266.949 229.786 266.719 229.934 266.461 230.010 C 266.204 230.086 265.930 230.086 265.672 230.010 C 265.415 229.934 265.184 229.786 265.009 229.583 C 264.833 229.381 264.719 229.132 264.681 228.866 C 264.643 228.600 264.682 228.329 264.793 228.085 C 264.905 227.841 265.084 227.634 265.310 227.489 C 265.536 227.344 265.798 227.267 266.067 227.267 Z"
       stroke="rgb(0,0,255)"
       stroke-width="0.20"
       id="path287" />
    <path
       d="M 264.667 51.333 C 264.667 51.065 264.744 50.802 264.889 50.576 C 265.034 50.351 265.241 50.171 265.485 50.060 C 265.729 49.948 266.000 49.909 266.266 49.948 C 266.532 49.986 266.781 50.100 266.983 50.275 C 267.186 50.451 267.334 50.681 267.410 50.939 C 267.486 51.196 267.486 51.470 267.410 51.728 C 267.334 51.985 267.186 52.216 266.983 52.391 C 266.781 52.567 266.532 52.681 266.266 52.719 C 266.000 52.757 265.729 52.718 265.485 52.607 C 265.241 52.495 265.034 52.316 264.889 52.090 C 264.744 51.864 264.667 51.602 264.667 51.333 Z"
       stroke="rgb(0,0,255)"
       stroke-width="0.20"
       id="path289" />
    <path
       d="M 18.733 52.733 C 18.465 52.733 18.202 52.656 17.976 52.511 C 17.751 52.366 17.571 52.159 17.460 51.915 C 17.348 51.671 17.309 51.400 17.348 51.134 C 17.386 50.868 17.500 50.619 17.675 50.417 C 17.851 50.214 18.081 50.066 18.339 49.990 C 18.596 49.914 18.870 49.914 19.128 49.990 C 19.385 50.066 19.616 50.214 19.791 50.417 C 19.967 50.619 20.081 50.868 20.119 51.134 C 20.157 51.400 20.118 51.671 20.007 51.915 C 19.895 52.159 19.716 52.366 19.490 52.511 C 19.264 52.656 19.002 52.733 18.733 52.733 Z"
       stroke="rgb(0,0,255)"
       stroke-width="0.20"
       id="path291" />
  </g>
</svg>
