<?xml version="1.0" encoding="UTF-8" standalone="no"?>
<svg
   width="492.20mm"
   height="647.90mm"
   viewBox="0.0 0.0 492.20 647.90"
   version="1.1"
   id="svg311"
   sodipodi:docname="ElectronicsBox_270x200x92_part3.svg"
   inkscape:version="1.2.2 (732a01da63, 2022-12-09)"
   xmlns:inkscape="http://www.inkscape.org/namespaces/inkscape"
   xmlns:sodipodi="http://sodipodi.sourceforge.net/DTD/sodipodi-0.dtd"
   xmlns="http://www.w3.org/2000/svg"
   xmlns:svg="http://www.w3.org/2000/svg"
   xmlns:rdf="http://www.w3.org/1999/02/22-rdf-syntax-ns#"
   xmlns:cc="http://creativecommons.org/ns#"
   xmlns:dc="http://purl.org/dc/elements/1.1/">
  <defs
     id="defs315">
    <rect
       x="228.70485"
       y="1294.8893"
       width="191.1398"
       height="47.508736"
       id="rect59777-6" />
    <rect
       x="228.70485"
       y="1294.8893"
       width="191.1398"
       height="47.508736"
       id="rect59777-6-0" />
    <rect
       x="228.70485"
       y="1294.8893"
       width="191.1398"
       height="47.508736"
       id="rect59777-6-0-8" />
    <rect
       x="228.70485"
       y="1294.8893"
       width="191.1398"
       height="47.508736"
       id="rect59777-6-0-3" />
    <rect
       x="228.70485"
       y="1294.8893"
       width="191.1398"
       height="47.508736"
       id="rect59777-6-0-6" />
    <rect
       x="228.70485"
       y="1294.8893"
       width="191.1398"
       height="47.508736"
       id="rect59777-6-0-9" />
    <rect
       x="228.70485"
       y="1294.8893"
       width="191.1398"
       height="47.508736"
       id="rect59777-6-0-6-3" />
    <rect
       x="228.70485"
       y="1294.8893"
       width="191.1398"
       height="47.508736"
       id="rect59777-6-0-9-2" />
    <rect
       x="228.70485"
       y="1294.8893"
       width="191.1398"
       height="47.508736"
       id="rect59777-6-5" />
    <rect
       x="228.70485"
       y="1294.8893"
       width="191.1398"
       height="47.508736"
       id="rect59777-6-0-1" />
    <rect
       x="228.70485"
       y="1294.8893"
       width="191.1398"
       height="47.508736"
       id="rect59777-6-0-8-3" />
    <rect
       x="228.70485"
       y="1294.8893"
       width="191.1398"
       height="47.508736"
       id="rect59777-6-0-3-8" />
    <rect
       x="228.70485"
       y="1294.8893"
       width="191.1398"
       height="47.508736"
       id="rect59777-6-0-6-5" />
    <rect
       x="228.70485"
       y="1294.8893"
       width="191.1398"
       height="47.508736"
       id="rect59777-6-0-9-4" />
    <rect
       x="228.70485"
       y="1294.8893"
       width="191.1398"
       height="47.508736"
       id="rect59777-6-0-6-3-4" />
    <rect
       x="228.70485"
       y="1294.8893"
       width="191.1398"
       height="47.508736"
       id="rect59777-6-0-9-2-4" />
    <rect
       x="228.70485"
       y="1294.8893"
       width="191.1398"
       height="47.508736"
       id="rect59777-6-8" />
    <rect
       x="228.70485"
       y="1294.8893"
       width="191.1398"
       height="47.508736"
       id="rect59777-6-8-2" />
    <rect
       x="228.70485"
       y="1294.8893"
       width="191.1398"
       height="47.508736"
       id="rect59777" />
    <rect
       x="228.70485"
       y="1294.8893"
       width="191.1398"
       height="47.508736"
       id="rect59777-1" />
  </defs>
  <sodipodi:namedview
     id="namedview313"
     pagecolor="#ffffff"
     bordercolor="#000000"
     borderopacity="0.25"
     inkscape:showpageshadow="2"
     inkscape:pageopacity="0.0"
     inkscape:pagecheckerboard="0"
     inkscape:deskcolor="#d1d1d1"
     inkscape:document-units="mm"
     showgrid="false"
     inkscape:zoom="0.95232028"
     inkscape:cx="804.35124"
     inkscape:cy="-37.802408"
     inkscape:window-width="2560"
     inkscape:window-height="1369"
     inkscape:window-x="2552"
     inkscape:window-y="-8"
     inkscape:window-maximized="1"
     inkscape:current-layer="svg311" />
  <!--
ElectronicsBox - Closed box with screw on top and mounting holes

Created with Boxes.py (https://festi.info/boxes.py)
Creation date: 2023-06-09 12:25:26
Command line (remove spaces between dashes): boxes ElectronicsBox - -FingerJoint_play=0.1 - -x=270 - -y=200 - -h=92
Url: http://localhost:8000/ElectronicsBox?FingerJoint_angle=90.0&FingerJoint_style=rectangular&FingerJoint_surroundingspaces=2.0&FingerJoint_bottom_lip=0.0&FingerJoint_edge_width=1.0&FingerJoint_extra_length=0.0&FingerJoint_finger=2.0&FingerJoint_play=0.1&FingerJoint_space=2.0&FingerJoint_width=1.0&x=270&y=200&h=92&outside=0&outside=1&triangle=25.0&d1=2.0&d2=3.0&d3=3.0&outsidemounts=0&outsidemounts=1&holedist=7.0&thickness=3.0&format=svg&tabs=0.0&qr_code=0&debug=0&labels=0&labels=1&reference=100&inner_corners=loop&burn=0.1&language=None&render=1
Url short: http://localhost:8000/ElectronicsBox?FingerJoint_play=0.1&x=270&y=200&h=92
SettingsUrl: http://localhost:8000/ElectronicsBox?FingerJoint_angle=90.0&FingerJoint_style=rectangular&FingerJoint_surroundingspaces=2.0&FingerJoint_bottom_lip=0.0&FingerJoint_edge_width=1.0&FingerJoint_extra_length=0.0&FingerJoint_finger=2.0&FingerJoint_play=0.1&FingerJoint_space=2.0&FingerJoint_width=1.0&x=270&y=200&h=92&outside=0&outside=1&triangle=25.0&d1=2.0&d2=3.0&d3=3.0&outsidemounts=0&outsidemounts=1&holedist=7.0&thickness=3.0&format=svg&tabs=0.0&qr_code=0&debug=0&labels=0&labels=1&reference=100&inner_corners=loop&burn=0.1&language=None
SettingsUrl short: http://localhost:8000/ElectronicsBox?FingerJoint_play=0.1&x=270&y=200&h=92
-->
  <title
     id="title163">ElectronicsBox</title>
  <metadata
     id="metadata165">
    <rdf:RDF>
      <cc:Work>
        <dc:title>ElectronicsBox</dc:title>
        <dc:date>2023-06-09 12:25:26</dc:date>
        <dc:source>http://localhost:8000/ElectronicsBox?FingerJoint_angle=90.0&amp;FingerJoint_style=rectangular&amp;FingerJoint_surroundingspaces=2.0&amp;FingerJoint_bottom_lip=0.0&amp;FingerJoint_edge_width=1.0&amp;FingerJoint_extra_length=0.0&amp;FingerJoint_finger=2.0&amp;FingerJoint_play=0.1&amp;FingerJoint_space=2.0&amp;FingerJoint_width=1.0&amp;x=270&amp;y=200&amp;h=92&amp;outside=0&amp;outside=1&amp;triangle=25.0&amp;d1=2.0&amp;d2=3.0&amp;d3=3.0&amp;outsidemounts=0&amp;outsidemounts=1&amp;holedist=7.0&amp;thickness=3.0&amp;format=svg&amp;tabs=0.0&amp;qr_code=0&amp;debug=0&amp;labels=0&amp;labels=1&amp;reference=100&amp;inner_corners=loop&amp;burn=0.1&amp;language=None&amp;render=1</dc:source>
        <dc:source>http://localhost:8000/ElectronicsBox?FingerJoint_play=0.1&amp;x=270&amp;y=200&amp;h=92</dc:source>
        <dc:description>Closed box with screw on top and mounting holes

Created with Boxes.py (https://festi.info/boxes.py)
Command line: boxes ElectronicsBox --FingerJoint_angle=90.0 --FingerJoint_style=rectangular --FingerJoint_surroundingspaces=2.0 --FingerJoint_bottom_lip=0.0 --FingerJoint_edge_width=1.0 --FingerJoint_extra_length=0.0 --FingerJoint_finger=2.0 --FingerJoint_play=0.1 --FingerJoint_space=2.0 --FingerJoint_width=1.0 --x=270 --y=200 --h=92 --outside=0 --outside=1 --triangle=25.0 --d1=2.0 --d2=3.0 --d3=3.0 --outsidemounts=0 --outsidemounts=1 --holedist=7.0 --thickness=3.0 --format=svg --tabs=0.0 --qr_code=0 --debug=0 --labels=0 --labels=1 --reference=100 --inner_corners=loop --burn=0.1
Command line short: boxes ElectronicsBox --FingerJoint_play=0.1 --x=270 --y=200 --h=92
Url: http://localhost:8000/ElectronicsBox?FingerJoint_angle=90.0&amp;FingerJoint_style=rectangular&amp;FingerJoint_surroundingspaces=2.0&amp;FingerJoint_bottom_lip=0.0&amp;FingerJoint_edge_width=1.0&amp;FingerJoint_extra_length=0.0&amp;FingerJoint_finger=2.0&amp;FingerJoint_play=0.1&amp;FingerJoint_space=2.0&amp;FingerJoint_width=1.0&amp;x=270&amp;y=200&amp;h=92&amp;outside=0&amp;outside=1&amp;triangle=25.0&amp;d1=2.0&amp;d2=3.0&amp;d3=3.0&amp;outsidemounts=0&amp;outsidemounts=1&amp;holedist=7.0&amp;thickness=3.0&amp;format=svg&amp;tabs=0.0&amp;qr_code=0&amp;debug=0&amp;labels=0&amp;labels=1&amp;reference=100&amp;inner_corners=loop&amp;burn=0.1&amp;language=None&amp;render=1
Url short: http://localhost:8000/ElectronicsBox?FingerJoint_play=0.1&amp;x=270&amp;y=200&amp;h=92
SettingsUrl: http://localhost:8000/ElectronicsBox?FingerJoint_angle=90.0&amp;FingerJoint_style=rectangular&amp;FingerJoint_surroundingspaces=2.0&amp;FingerJoint_bottom_lip=0.0&amp;FingerJoint_edge_width=1.0&amp;FingerJoint_extra_length=0.0&amp;FingerJoint_finger=2.0&amp;FingerJoint_play=0.1&amp;FingerJoint_space=2.0&amp;FingerJoint_width=1.0&amp;x=270&amp;y=200&amp;h=92&amp;outside=0&amp;outside=1&amp;triangle=25.0&amp;d1=2.0&amp;d2=3.0&amp;d3=3.0&amp;outsidemounts=0&amp;outsidemounts=1&amp;holedist=7.0&amp;thickness=3.0&amp;format=svg&amp;tabs=0.0&amp;qr_code=0&amp;debug=0&amp;labels=0&amp;labels=1&amp;reference=100&amp;inner_corners=loop&amp;burn=0.1&amp;language=None
SettingsUrl short: http://localhost:8000/ElectronicsBox?FingerJoint_play=0.1&amp;x=270&amp;y=200&amp;h=92
</dc:description>
      </cc:Work>
    </rdf:RDF>
  </metadata>
  <g
     id="p-0"
     style="fill:none;stroke-linecap:round;stroke-linejoin:round;" />
  <g
     id="p-5"
     style="fill:none;stroke-linecap:round;stroke-linejoin:round;">
    <path
       d="M 18.800 431.700 C 18.800 431.968 18.723 432.231 18.578 432.457 C 18.433 432.683 18.226 432.862 17.982 432.973 C 17.737 433.085 17.466 433.124 17.201 433.086 C 16.935 433.048 16.686 432.934 16.483 432.758 C 16.280 432.582 16.132 432.352 16.057 432.094 C 15.981 431.837 15.981 431.563 16.057 431.306 C 16.132 431.048 16.280 430.818 16.483 430.642 C 16.686 430.466 16.935 430.352 17.201 430.314 C 17.466 430.276 17.737 430.315 17.982 430.427 C 18.226 430.538 18.433 430.717 18.578 430.943 C 18.723 431.169 18.800 431.432 18.800 431.700 Z"
       stroke="rgb(0,0,255)"
       stroke-width="0.20"
       id="path208" />
    <path
       d="M 17.400 438.800 H 27.400 H 36.250 C 36.305 438.800 36.350 438.755 36.350 438.700 V 435.800 C 36.350 435.700 36.250 435.800 36.350 435.800 H 42.450 C 42.550 435.800 42.450 435.700 42.450 435.800 V 438.700 C 42.450 438.755 42.495 438.800 42.550 438.800 H 48.250 C 48.305 438.800 48.350 438.755 48.350 438.700 V 435.800 C 48.350 435.700 48.250 435.800 48.350 435.800 H 54.450 C 54.550 435.800 54.450 435.700 54.450 435.800 V 438.700 C 54.450 438.755 54.495 438.800 54.550 438.800 H 60.250 C 60.305 438.800 60.350 438.755 60.350 438.700 V 435.800 C 60.350 435.700 60.250 435.800 60.350 435.800 H 66.450 C 66.550 435.800 66.450 435.700 66.450 435.800 V 438.700 C 66.450 438.755 66.495 438.800 66.550 438.800 H 72.250 C 72.305 438.800 72.350 438.755 72.350 438.700 V 435.800 C 72.350 435.700 72.250 435.800 72.350 435.800 H 78.450 C 78.550 435.800 78.450 435.700 78.450 435.800 V 438.700 C 78.450 438.755 78.495 438.800 78.550 438.800 H 84.250 C 84.305 438.800 84.350 438.755 84.350 438.700 V 435.800 C 84.350 435.700 84.250 435.800 84.350 435.800 H 90.450 C 90.550 435.800 90.450 435.700 90.450 435.800 V 438.700 C 90.450 438.755 90.495 438.800 90.550 438.800 H 96.250 C 96.305 438.800 96.350 438.755 96.350 438.700 V 435.800 C 96.350 435.700 96.250 435.800 96.350 435.800 H 102.450 C 102.550 435.800 102.450 435.700 102.450 435.800 V 438.700 C 102.450 438.755 102.495 438.800 102.550 438.800 H 108.250 C 108.305 438.800 108.350 438.755 108.350 438.700 V 435.800 C 108.350 435.700 108.250 435.800 108.350 435.800 H 114.450 C 114.550 435.800 114.450 435.700 114.450 435.800 V 438.700 C 114.450 438.755 114.495 438.800 114.550 438.800 H 120.250 C 120.305 438.800 120.350 438.755 120.350 438.700 V 435.800 C 120.350 435.700 120.250 435.800 120.350 435.800 H 126.450 C 126.550 435.800 126.450 435.700 126.450 435.800 V 438.700 C 126.450 438.755 126.495 438.800 126.550 438.800 H 132.250 C 132.305 438.800 132.350 438.755 132.350 438.700 V 435.800 C 132.350 435.700 132.250 435.800 132.350 435.800 H 138.450 C 138.550 435.800 138.450 435.700 138.450 435.800 V 438.700 C 138.450 438.755 138.495 438.800 138.550 438.800 H 144.250 C 144.305 438.800 144.350 438.755 144.350 438.700 V 435.800 C 144.350 435.700 144.250 435.800 144.350 435.800 H 150.450 C 150.550 435.800 150.450 435.700 150.450 435.800 V 438.700 C 150.450 438.755 150.495 438.800 150.550 438.800 H 156.250 C 156.305 438.800 156.350 438.755 156.350 438.700 V 435.800 C 156.350 435.700 156.250 435.800 156.350 435.800 H 162.450 C 162.550 435.800 162.450 435.700 162.450 435.800 V 438.700 C 162.450 438.755 162.495 438.800 162.550 438.800 H 168.250 C 168.305 438.800 168.350 438.755 168.350 438.700 V 435.800 C 168.350 435.700 168.250 435.800 168.350 435.800 H 174.450 C 174.550 435.800 174.450 435.700 174.450 435.800 V 438.700 C 174.450 438.755 174.495 438.800 174.550 438.800 H 180.250 C 180.305 438.800 180.350 438.755 180.350 438.700 V 435.800 C 180.350 435.700 180.250 435.800 180.350 435.800 H 186.450 C 186.550 435.800 186.450 435.700 186.450 435.800 V 438.700 C 186.450 438.755 186.495 438.800 186.550 438.800 H 192.250 C 192.305 438.800 192.350 438.755 192.350 438.700 V 435.800 C 192.350 435.700 192.250 435.800 192.350 435.800 H 198.450 C 198.550 435.800 198.450 435.700 198.450 435.800 V 438.700 C 198.450 438.755 198.495 438.800 198.550 438.800 H 204.250 C 204.305 438.800 204.350 438.755 204.350 438.700 V 435.800 C 204.350 435.700 204.250 435.800 204.350 435.800 H 210.450 C 210.550 435.800 210.450 435.700 210.450 435.800 V 438.700 C 210.450 438.755 210.495 438.800 210.550 438.800 H 216.250 C 216.305 438.800 216.350 438.755 216.350 438.700 V 435.800 C 216.350 435.700 216.250 435.800 216.350 435.800 H 222.450 C 222.550 435.800 222.450 435.700 222.450 435.800 V 438.700 C 222.450 438.755 222.495 438.800 222.550 438.800 H 228.250 C 228.305 438.800 228.350 438.755 228.350 438.700 V 435.800 C 228.350 435.700 228.250 435.800 228.350 435.800 H 234.450 C 234.550 435.800 234.450 435.700 234.450 435.800 V 438.700 C 234.450 438.755 234.495 438.800 234.550 438.800 H 240.250 C 240.305 438.800 240.350 438.755 240.350 438.700 V 435.800 C 240.350 435.700 240.250 435.800 240.350 435.800 H 246.450 C 246.550 435.800 246.450 435.700 246.450 435.800 V 438.700 C 246.450 438.755 246.495 438.800 246.550 438.800 H 252.250 C 252.305 438.800 252.350 438.755 252.350 438.700 V 435.800 C 252.350 435.700 252.250 435.800 252.350 435.800 H 258.450 C 258.550 435.800 258.450 435.700 258.450 435.800 V 438.700 C 258.450 438.755 258.495 438.800 258.550 438.800 H 264.250 C 264.305 438.800 264.350 438.755 264.350 438.700 V 435.800 C 264.350 435.700 264.250 435.800 264.350 435.800 H 270.450 C 270.550 435.800 270.450 435.700 270.450 435.800 V 438.700 C 270.450 438.755 270.495 438.800 270.550 438.800 H 276.250 C 276.305 438.800 276.350 438.755 276.350 438.700 V 435.800 C 276.350 435.700 276.250 435.800 276.350 435.800 H 282.450 C 282.550 435.800 282.450 435.700 282.450 435.800 V 438.700 C 282.450 438.755 282.495 438.800 282.550 438.800 H 291.400 H 301.400 C 302.646 438.800 303.871 438.472 304.950 437.849 C 306.029 437.226 306.926 436.329 307.549 435.250 C 308.172 434.171 308.500 432.946 308.500 431.700 V 245.700 C 308.500 244.454 308.172 243.229 307.549 242.150 C 306.926 241.071 306.029 240.174 304.950 239.551 C 303.871 238.928 302.646 238.600 301.400 238.600 H 291.400 H 282.550 C 282.495 238.600 282.450 238.645 282.450 238.700 V 241.600 C 282.450 241.700 282.550 241.600 282.450 241.600 H 276.350 C 276.250 241.600 276.350 241.700 276.350 241.600 V 238.700 C 276.350 238.645 276.305 238.600 276.250 238.600 H 270.550 C 270.495 238.600 270.450 238.645 270.450 238.700 V 241.600 C 270.450 241.700 270.550 241.600 270.450 241.600 H 264.350 C 264.250 241.600 264.350 241.700 264.350 241.600 V 238.700 C 264.350 238.645 264.305 238.600 264.250 238.600 H 258.550 C 258.495 238.600 258.450 238.645 258.450 238.700 V 241.600 C 258.450 241.700 258.550 241.600 258.450 241.600 H 252.350 C 252.250 241.600 252.350 241.700 252.350 241.600 V 238.700 C 252.350 238.645 252.305 238.600 252.250 238.600 H 246.550 C 246.495 238.600 246.450 238.645 246.450 238.700 V 241.600 C 246.450 241.700 246.550 241.600 246.450 241.600 H 240.350 C 240.250 241.600 240.350 241.700 240.350 241.600 V 238.700 C 240.350 238.645 240.305 238.600 240.250 238.600 H 234.550 C 234.495 238.600 234.450 238.645 234.450 238.700 V 241.600 C 234.450 241.700 234.550 241.600 234.450 241.600 H 228.350 C 228.250 241.600 228.350 241.700 228.350 241.600 V 238.700 C 228.350 238.645 228.305 238.600 228.250 238.600 H 222.550 C 222.495 238.600 222.450 238.645 222.450 238.700 V 241.600 C 222.450 241.700 222.550 241.600 222.450 241.600 H 216.350 C 216.250 241.600 216.350 241.700 216.350 241.600 V 238.700 C 216.350 238.645 216.305 238.600 216.250 238.600 H 210.550 C 210.495 238.600 210.450 238.645 210.450 238.700 V 241.600 C 210.450 241.700 210.550 241.600 210.450 241.600 H 204.350 C 204.250 241.600 204.350 241.700 204.350 241.600 V 238.700 C 204.350 238.645 204.305 238.600 204.250 238.600 H 198.550 C 198.495 238.600 198.450 238.645 198.450 238.700 V 241.600 C 198.450 241.700 198.550 241.600 198.450 241.600 H 192.350 C 192.250 241.600 192.350 241.700 192.350 241.600 V 238.700 C 192.350 238.645 192.305 238.600 192.250 238.600 H 186.550 C 186.495 238.600 186.450 238.645 186.450 238.700 V 241.600 C 186.450 241.700 186.550 241.600 186.450 241.600 H 180.350 C 180.250 241.600 180.350 241.700 180.350 241.600 V 238.700 C 180.350 238.645 180.305 238.600 180.250 238.600 H 174.550 C 174.495 238.600 174.450 238.645 174.450 238.700 V 241.600 C 174.450 241.700 174.550 241.600 174.450 241.600 H 168.350 C 168.250 241.600 168.350 241.700 168.350 241.600 V 238.700 C 168.350 238.645 168.305 238.600 168.250 238.600 H 162.550 C 162.495 238.600 162.450 238.645 162.450 238.700 V 241.600 C 162.450 241.700 162.550 241.600 162.450 241.600 H 156.350 C 156.250 241.600 156.350 241.700 156.350 241.600 V 238.700 C 156.350 238.645 156.305 238.600 156.250 238.600 H 150.550 C 150.495 238.600 150.450 238.645 150.450 238.700 V 241.600 C 150.450 241.700 150.550 241.600 150.450 241.600 H 144.350 C 144.250 241.600 144.350 241.700 144.350 241.600 V 238.700 C 144.350 238.645 144.305 238.600 144.250 238.600 H 138.550 C 138.495 238.600 138.450 238.645 138.450 238.700 V 241.600 C 138.450 241.700 138.550 241.600 138.450 241.600 H 132.350 C 132.250 241.600 132.350 241.700 132.350 241.600 V 238.700 C 132.350 238.645 132.305 238.600 132.250 238.600 H 126.550 C 126.495 238.600 126.450 238.645 126.450 238.700 V 241.600 C 126.450 241.700 126.550 241.600 126.450 241.600 H 120.350 C 120.250 241.600 120.350 241.700 120.350 241.600 V 238.700 C 120.350 238.645 120.305 238.600 120.250 238.600 H 114.550 C 114.495 238.600 114.450 238.645 114.450 238.700 V 241.600 C 114.450 241.700 114.550 241.600 114.450 241.600 H 108.350 C 108.250 241.600 108.350 241.700 108.350 241.600 V 238.700 C 108.350 238.645 108.305 238.600 108.250 238.600 H 102.550 C 102.495 238.600 102.450 238.645 102.450 238.700 V 241.600 C 102.450 241.700 102.550 241.600 102.450 241.600 H 96.350 C 96.250 241.600 96.350 241.700 96.350 241.600 V 238.700 C 96.350 238.645 96.305 238.600 96.250 238.600 H 90.550 C 90.495 238.600 90.450 238.645 90.450 238.700 V 241.600 C 90.450 241.700 90.550 241.600 90.450 241.600 H 84.350 C 84.250 241.600 84.350 241.700 84.350 241.600 V 238.700 C 84.350 238.645 84.305 238.600 84.250 238.600 H 78.550 C 78.495 238.600 78.450 238.645 78.450 238.700 V 241.600 C 78.450 241.700 78.550 241.600 78.450 241.600 H 72.350 C 72.250 241.600 72.350 241.700 72.350 241.600 V 238.700 C 72.350 238.645 72.305 238.600 72.250 238.600 H 66.550 C 66.495 238.600 66.450 238.645 66.450 238.700 V 241.600 C 66.450 241.700 66.550 241.600 66.450 241.600 H 60.350 C 60.250 241.600 60.350 241.700 60.350 241.600 V 238.700 C 60.350 238.645 60.305 238.600 60.250 238.600 H 54.550 C 54.495 238.600 54.450 238.645 54.450 238.700 V 241.600 C 54.450 241.700 54.550 241.600 54.450 241.600 H 48.350 C 48.250 241.600 48.350 241.700 48.350 241.600 V 238.700 C 48.350 238.645 48.305 238.600 48.250 238.600 H 42.550 C 42.495 238.600 42.450 238.645 42.450 238.700 V 241.600 C 42.450 241.700 42.550 241.600 42.450 241.600 H 36.350 C 36.250 241.600 36.350 241.700 36.350 241.600 V 238.700 C 36.350 238.645 36.305 238.600 36.250 238.600 H 27.400 H 17.400 C 16.154 238.600 14.929 238.928 13.850 239.551 C 12.771 240.174 11.874 241.071 11.251 242.150 C 10.628 243.229 10.300 244.454 10.300 245.700 V 431.700 C 10.300 432.946 10.628 434.171 11.251 435.250 C 11.874 436.329 12.771 437.226 13.850 437.849 C 14.929 438.472 16.154 438.800 17.400 438.800"
       stroke="rgb(0,0,0)"
       stroke-width="0.20"
       id="path212" />
    <path
       d="M 301.400 430.300 C 301.668 430.300 301.931 430.377 302.157 430.522 C 302.383 430.667 302.562 430.874 302.673 431.118 C 302.785 431.363 302.824 431.634 302.786 431.899 C 302.748 432.165 302.634 432.414 302.458 432.617 C 302.282 432.820 302.052 432.968 301.794 433.043 C 301.537 433.119 301.263 433.119 301.006 433.043 C 300.748 432.968 300.518 432.820 300.342 432.617 C 300.166 432.414 300.052 432.165 300.014 431.899 C 299.976 431.634 300.015 431.363 300.127 431.118 C 300.238 430.874 300.417 430.667 300.643 430.522 C 300.869 430.377 301.132 430.300 301.400 430.300 Z"
       stroke="rgb(0,0,255)"
       stroke-width="0.20"
       id="path214" />
    <path
       d="M 294.550 422.700 V 425.750 C 294.550 425.850 294.650 425.750 294.550 425.750 H 291.450 C 291.350 425.750 291.450 425.850 291.450 425.750 V 419.650 C 291.450 419.550 291.350 419.650 291.450 419.650 H 294.550 C 294.650 419.650 294.550 419.550 294.550 419.650 V 422.700 Z"
       stroke="rgb(0,0,255)"
       stroke-width="0.20"
       id="path216" />
    <path
       d="M 294.550 410.700 V 413.750 C 294.550 413.850 294.650 413.750 294.550 413.750 H 291.450 C 291.350 413.750 291.450 413.850 291.450 413.750 V 407.650 C 291.450 407.550 291.350 407.650 291.450 407.650 H 294.550 C 294.650 407.650 294.550 407.550 294.550 407.650 V 410.700 Z"
       stroke="rgb(0,0,255)"
       stroke-width="0.20"
       id="path218" />
    <path
       d="M 294.550 398.700 V 401.750 C 294.550 401.850 294.650 401.750 294.550 401.750 H 291.450 C 291.350 401.750 291.450 401.850 291.450 401.750 V 395.650 C 291.450 395.550 291.350 395.650 291.450 395.650 H 294.550 C 294.650 395.650 294.550 395.550 294.550 395.650 V 398.700 Z"
       stroke="rgb(0,0,255)"
       stroke-width="0.20"
       id="path220" />
    <path
       d="M 294.550 386.700 V 389.750 C 294.550 389.850 294.650 389.750 294.550 389.750 H 291.450 C 291.350 389.750 291.450 389.850 291.450 389.750 V 383.650 C 291.450 383.550 291.350 383.650 291.450 383.650 H 294.550 C 294.650 383.650 294.550 383.550 294.550 383.650 V 386.700 Z"
       stroke="rgb(0,0,255)"
       stroke-width="0.20"
       id="path222" />
    <path
       d="M 294.550 374.700 V 377.750 C 294.550 377.850 294.650 377.750 294.550 377.750 H 291.450 C 291.350 377.750 291.450 377.850 291.450 377.750 V 371.650 C 291.450 371.550 291.350 371.650 291.450 371.650 H 294.550 C 294.650 371.650 294.550 371.550 294.550 371.650 V 374.700 Z"
       stroke="rgb(0,0,255)"
       stroke-width="0.20"
       id="path224" />
    <path
       d="M 294.550 362.700 V 365.750 C 294.550 365.850 294.650 365.750 294.550 365.750 H 291.450 C 291.350 365.750 291.450 365.850 291.450 365.750 V 359.650 C 291.450 359.550 291.350 359.650 291.450 359.650 H 294.550 C 294.650 359.650 294.550 359.550 294.550 359.650 V 362.700 Z"
       stroke="rgb(0,0,255)"
       stroke-width="0.20"
       id="path226" />
    <path
       d="M 294.550 350.700 V 353.750 C 294.550 353.850 294.650 353.750 294.550 353.750 H 291.450 C 291.350 353.750 291.450 353.850 291.450 353.750 V 347.650 C 291.450 347.550 291.350 347.650 291.450 347.650 H 294.550 C 294.650 347.650 294.550 347.550 294.550 347.650 V 350.700 Z"
       stroke="rgb(0,0,255)"
       stroke-width="0.20"
       id="path228" />
    <path
       d="M 294.550 338.700 V 341.750 C 294.550 341.850 294.650 341.750 294.550 341.750 H 291.450 C 291.350 341.750 291.450 341.850 291.450 341.750 V 335.650 C 291.450 335.550 291.350 335.650 291.450 335.650 H 294.550 C 294.650 335.650 294.550 335.550 294.550 335.650 V 338.700 Z"
       stroke="rgb(0,0,255)"
       stroke-width="0.20"
       id="path230" />
    <path
       d="M 294.550 326.700 V 329.750 C 294.550 329.850 294.650 329.750 294.550 329.750 H 291.450 C 291.350 329.750 291.450 329.850 291.450 329.750 V 323.650 C 291.450 323.550 291.350 323.650 291.450 323.650 H 294.550 C 294.650 323.650 294.550 323.550 294.550 323.650 V 326.700 Z"
       stroke="rgb(0,0,255)"
       stroke-width="0.20"
       id="path232" />
    <path
       d="M 294.550 314.700 V 317.750 C 294.550 317.850 294.650 317.750 294.550 317.750 H 291.450 C 291.350 317.750 291.450 317.850 291.450 317.750 V 311.650 C 291.450 311.550 291.350 311.650 291.450 311.650 H 294.550 C 294.650 311.650 294.550 311.550 294.550 311.650 V 314.700 Z"
       stroke="rgb(0,0,255)"
       stroke-width="0.20"
       id="path234" />
    <path
       d="M 294.550 302.700 V 305.750 C 294.550 305.850 294.650 305.750 294.550 305.750 H 291.450 C 291.350 305.750 291.450 305.850 291.450 305.750 V 299.650 C 291.450 299.550 291.350 299.650 291.450 299.650 H 294.550 C 294.650 299.650 294.550 299.550 294.550 299.650 V 302.700 Z"
       stroke="rgb(0,0,255)"
       stroke-width="0.20"
       id="path236" />
    <path
       d="M 294.550 290.700 V 293.750 C 294.550 293.850 294.650 293.750 294.550 293.750 H 291.450 C 291.350 293.750 291.450 293.850 291.450 293.750 V 287.650 C 291.450 287.550 291.350 287.650 291.450 287.650 H 294.550 C 294.650 287.650 294.550 287.550 294.550 287.650 V 290.700 Z"
       stroke="rgb(0,0,255)"
       stroke-width="0.20"
       id="path238" />
    <path
       d="M 294.550 278.700 V 281.750 C 294.550 281.850 294.650 281.750 294.550 281.750 H 291.450 C 291.350 281.750 291.450 281.850 291.450 281.750 V 275.650 C 291.450 275.550 291.350 275.650 291.450 275.650 H 294.550 C 294.650 275.650 294.550 275.550 294.550 275.650 V 278.700 Z"
       stroke="rgb(0,0,255)"
       stroke-width="0.20"
       id="path240" />
    <path
       d="M 294.550 266.700 V 269.750 C 294.550 269.850 294.650 269.750 294.550 269.750 H 291.450 C 291.350 269.750 291.450 269.850 291.450 269.750 V 263.650 C 291.450 263.550 291.350 263.650 291.450 263.650 H 294.550 C 294.650 263.650 294.550 263.550 294.550 263.650 V 266.700 Z"
       stroke="rgb(0,0,255)"
       stroke-width="0.20"
       id="path242" />
    <path
       d="M 294.550 254.700 V 257.750 C 294.550 257.850 294.650 257.750 294.550 257.750 H 291.450 C 291.350 257.750 291.450 257.850 291.450 257.750 V 251.650 C 291.450 251.550 291.350 251.650 291.450 251.650 H 294.550 C 294.650 251.650 294.550 251.550 294.550 251.650 V 254.700 Z"
       stroke="rgb(0,0,255)"
       stroke-width="0.20"
       id="path244" />
    <path
       d="M 300.000 245.700 C 300.000 245.432 300.077 245.169 300.222 244.943 C 300.367 244.717 300.574 244.538 300.818 244.427 C 301.063 244.315 301.334 244.276 301.599 244.314 C 301.865 244.352 302.114 244.466 302.317 244.642 C 302.520 244.818 302.668 245.048 302.743 245.306 C 302.819 245.563 302.819 245.837 302.743 246.094 C 302.668 246.352 302.520 246.582 302.317 246.758 C 302.114 246.934 301.865 247.048 301.599 247.086 C 301.334 247.124 301.063 247.085 300.818 246.973 C 300.574 246.862 300.367 246.683 300.222 246.457 C 300.077 246.231 300.000 245.968 300.000 245.700 Z"
       stroke="rgb(0,0,255)"
       stroke-width="0.20"
       id="path246" />
    <path
       d="M 17.400 247.100 C 17.132 247.100 16.869 247.023 16.643 246.878 C 16.417 246.733 16.238 246.526 16.127 246.282 C 16.015 246.037 15.976 245.766 16.014 245.501 C 16.052 245.235 16.166 244.986 16.342 244.783 C 16.518 244.580 16.748 244.432 17.006 244.357 C 17.263 244.281 17.537 244.281 17.794 244.357 C 18.052 244.432 18.282 244.580 18.458 244.783 C 18.634 244.986 18.748 245.235 18.786 245.501 C 18.824 245.766 18.785 246.037 18.673 246.282 C 18.562 246.526 18.383 246.733 18.157 246.878 C 17.931 247.023 17.668 247.100 17.400 247.100 Z"
       stroke="rgb(0,0,255)"
       stroke-width="0.20"
       id="path248" />
    <path
       d="M 24.250 254.700 V 251.650 C 24.250 251.550 24.150 251.650 24.250 251.650 H 27.350 C 27.450 251.650 27.350 251.550 27.350 251.650 V 257.750 C 27.350 257.850 27.450 257.750 27.350 257.750 H 24.250 C 24.150 257.750 24.250 257.850 24.250 257.750 V 254.700 Z"
       stroke="rgb(0,0,255)"
       stroke-width="0.20"
       id="path250" />
    <path
       d="M 24.250 266.700 V 263.650 C 24.250 263.550 24.150 263.650 24.250 263.650 H 27.350 C 27.450 263.650 27.350 263.550 27.350 263.650 V 269.750 C 27.350 269.850 27.450 269.750 27.350 269.750 H 24.250 C 24.150 269.750 24.250 269.850 24.250 269.750 V 266.700 Z"
       stroke="rgb(0,0,255)"
       stroke-width="0.20"
       id="path252" />
    <path
       d="M 24.250 278.700 V 275.650 C 24.250 275.550 24.150 275.650 24.250 275.650 H 27.350 C 27.450 275.650 27.350 275.550 27.350 275.650 V 281.750 C 27.350 281.850 27.450 281.750 27.350 281.750 H 24.250 C 24.150 281.750 24.250 281.850 24.250 281.750 V 278.700 Z"
       stroke="rgb(0,0,255)"
       stroke-width="0.20"
       id="path254" />
    <path
       d="M 24.250 290.700 V 287.650 C 24.250 287.550 24.150 287.650 24.250 287.650 H 27.350 C 27.450 287.650 27.350 287.550 27.350 287.650 V 293.750 C 27.350 293.850 27.450 293.750 27.350 293.750 H 24.250 C 24.150 293.750 24.250 293.850 24.250 293.750 V 290.700 Z"
       stroke="rgb(0,0,255)"
       stroke-width="0.20"
       id="path256" />
    <path
       d="M 24.250 302.700 V 299.650 C 24.250 299.550 24.150 299.650 24.250 299.650 H 27.350 C 27.450 299.650 27.350 299.550 27.350 299.650 V 305.750 C 27.350 305.850 27.450 305.750 27.350 305.750 H 24.250 C 24.150 305.750 24.250 305.850 24.250 305.750 V 302.700 Z"
       stroke="rgb(0,0,255)"
       stroke-width="0.20"
       id="path258" />
    <path
       d="M 24.250 314.700 V 311.650 C 24.250 311.550 24.150 311.650 24.250 311.650 H 27.350 C 27.450 311.650 27.350 311.550 27.350 311.650 V 317.750 C 27.350 317.850 27.450 317.750 27.350 317.750 H 24.250 C 24.150 317.750 24.250 317.850 24.250 317.750 V 314.700 Z"
       stroke="rgb(0,0,255)"
       stroke-width="0.20"
       id="path260" />
    <path
       d="M 24.250 326.700 V 323.650 C 24.250 323.550 24.150 323.650 24.250 323.650 H 27.350 C 27.450 323.650 27.350 323.550 27.350 323.650 V 329.750 C 27.350 329.850 27.450 329.750 27.350 329.750 H 24.250 C 24.150 329.750 24.250 329.850 24.250 329.750 V 326.700 Z"
       stroke="rgb(0,0,255)"
       stroke-width="0.20"
       id="path262" />
    <path
       d="M 24.250 338.700 V 335.650 C 24.250 335.550 24.150 335.650 24.250 335.650 H 27.350 C 27.450 335.650 27.350 335.550 27.350 335.650 V 341.750 C 27.350 341.850 27.450 341.750 27.350 341.750 H 24.250 C 24.150 341.750 24.250 341.850 24.250 341.750 V 338.700 Z"
       stroke="rgb(0,0,255)"
       stroke-width="0.20"
       id="path264" />
    <path
       d="M 24.250 350.700 V 347.650 C 24.250 347.550 24.150 347.650 24.250 347.650 H 27.350 C 27.450 347.650 27.350 347.550 27.350 347.650 V 353.750 C 27.350 353.850 27.450 353.750 27.350 353.750 H 24.250 C 24.150 353.750 24.250 353.850 24.250 353.750 V 350.700 Z"
       stroke="rgb(0,0,255)"
       stroke-width="0.20"
       id="path266" />
    <path
       d="M 24.250 362.700 V 359.650 C 24.250 359.550 24.150 359.650 24.250 359.650 H 27.350 C 27.450 359.650 27.350 359.550 27.350 359.650 V 365.750 C 27.350 365.850 27.450 365.750 27.350 365.750 H 24.250 C 24.150 365.750 24.250 365.850 24.250 365.750 V 362.700 Z"
       stroke="rgb(0,0,255)"
       stroke-width="0.20"
       id="path268" />
    <path
       d="M 24.250 374.700 V 371.650 C 24.250 371.550 24.150 371.650 24.250 371.650 H 27.350 C 27.450 371.650 27.350 371.550 27.350 371.650 V 377.750 C 27.350 377.850 27.450 377.750 27.350 377.750 H 24.250 C 24.150 377.750 24.250 377.850 24.250 377.750 V 374.700 Z"
       stroke="rgb(0,0,255)"
       stroke-width="0.20"
       id="path270" />
    <path
       d="M 24.250 386.700 V 383.650 C 24.250 383.550 24.150 383.650 24.250 383.650 H 27.350 C 27.450 383.650 27.350 383.550 27.350 383.650 V 389.750 C 27.350 389.850 27.450 389.750 27.350 389.750 H 24.250 C 24.150 389.750 24.250 389.850 24.250 389.750 V 386.700 Z"
       stroke="rgb(0,0,255)"
       stroke-width="0.20"
       id="path272" />
    <path
       d="M 24.250 398.700 V 395.650 C 24.250 395.550 24.150 395.650 24.250 395.650 H 27.350 C 27.450 395.650 27.350 395.550 27.350 395.650 V 401.750 C 27.350 401.850 27.450 401.750 27.350 401.750 H 24.250 C 24.150 401.750 24.250 401.850 24.250 401.750 V 398.700 Z"
       stroke="rgb(0,0,255)"
       stroke-width="0.20"
       id="path274" />
    <path
       d="M 24.250 410.700 V 407.650 C 24.250 407.550 24.150 407.650 24.250 407.650 H 27.350 C 27.450 407.650 27.350 407.550 27.350 407.650 V 413.750 C 27.350 413.850 27.450 413.750 27.350 413.750 H 24.250 C 24.150 413.750 24.250 413.850 24.250 413.750 V 410.700 Z"
       stroke="rgb(0,0,255)"
       stroke-width="0.20"
       id="path276" />
    <path
       d="M 24.250 422.700 V 419.650 C 24.250 419.550 24.150 419.650 24.250 419.650 H 27.350 C 27.450 419.650 27.350 419.550 27.350 419.650 V 425.750 C 27.350 425.850 27.450 425.750 27.350 425.750 H 24.250 C 24.150 425.750 24.250 425.850 24.250 425.750 V 422.700 Z"
       stroke="rgb(0,0,255)"
       stroke-width="0.20"
       id="path278" />
    <path
       d="m 81.50012,282.90001 c -0.268,0 -0.531,-0.077 -0.757,-0.222 -0.226,-0.145 -0.404997,-0.352 -0.515997,-0.596 -0.112,-0.245 -0.151,-0.516 -0.113,-0.781 0.038,-0.266 0.152,-0.515 0.327997,-0.718 0.176,-0.203 0.406,-0.351 0.664,-0.426 0.257,-0.076 0.531,-0.076 0.788,0 0.258,0.075 0.488,0.223 0.664,0.426 0.176,0.203 0.29,0.452 0.328,0.718 0.038,0.265 -0.001,0.536 -0.113,0.781 -0.111,0.244 -0.29,0.451 -0.516,0.596 -0.226,0.145 -0.489,0.222 -0.757,0.222 z"
       stroke="#0000ff"
       stroke-width="0.2"
       id="path248-6"
       style="fill:none;stroke-linecap:round;stroke-linejoin:round" />
    <path
       d="m 223.50012,282.90001 c -0.268,0 -0.531,-0.077 -0.757,-0.222 -0.226,-0.145 -0.405,-0.352 -0.516,-0.596 -0.112,-0.245 -0.151,-0.516 -0.113,-0.781 0.038,-0.266 0.152,-0.515 0.328,-0.718 0.176,-0.203 0.406,-0.351 0.664,-0.426 0.257,-0.076 0.531,-0.076 0.788,0 0.258,0.075 0.488,0.223 0.664,0.426 0.176,0.203 0.29,0.452 0.328,0.718 0.038,0.265 -0.001,0.536 -0.113,0.781 -0.111,0.244 -0.29,0.451 -0.516,0.596 -0.226,0.145 -0.489,0.222 -0.757,0.222 z"
       stroke="#0000ff"
       stroke-width="0.2"
       id="path248-6-90"
       style="fill:none;stroke-linecap:round;stroke-linejoin:round" />
    <path
       d="m 81.50012,379.90001 c -0.268,0 -0.531,-0.077 -0.757,-0.222 -0.226,-0.145 -0.404997,-0.352 -0.515997,-0.596 -0.112,-0.245 -0.151,-0.516 -0.113,-0.781 0.038,-0.266 0.152,-0.515 0.327997,-0.718 0.176,-0.203 0.406,-0.351 0.664,-0.426 0.257,-0.076 0.531,-0.076 0.788,0 0.258,0.075 0.488,0.223 0.664,0.426 0.176,0.203 0.29,0.452 0.328,0.718 0.038,0.265 -0.001,0.536 -0.113,0.781 -0.111,0.244 -0.29,0.451 -0.516,0.596 -0.226,0.145 -0.489,0.222 -0.757,0.222 z"
       stroke="#0000ff"
       stroke-width="0.2"
       id="path248-6-9"
       style="fill:none;stroke-linecap:round;stroke-linejoin:round" />
    <path
       d="m 223.50012,379.90001 c -0.268,0 -0.531,-0.077 -0.757,-0.222 -0.226,-0.145 -0.405,-0.352 -0.516,-0.596 -0.112,-0.245 -0.151,-0.516 -0.113,-0.781 0.038,-0.266 0.152,-0.515 0.328,-0.718 0.176,-0.203 0.406,-0.351 0.664,-0.426 0.257,-0.076 0.531,-0.076 0.788,0 0.258,0.075 0.488,0.223 0.664,0.426 0.176,0.203 0.29,0.452 0.328,0.718 0.038,0.265 -0.001,0.536 -0.113,0.781 -0.111,0.244 -0.29,0.451 -0.516,0.596 -0.226,0.145 -0.489,0.222 -0.757,0.222 z"
       stroke="#0000ff"
       stroke-width="0.2"
       id="path248-6-9-6"
       style="fill:none;stroke-linecap:round;stroke-linejoin:round" />
  </g>
</svg>
