<?xml version="1.0" encoding="UTF-8" standalone="no"?>
<svg
   width="492.20mm"
   height="647.90mm"
   viewBox="0.0 0.0 492.20 647.90"
   version="1.1"
   id="svg311"
   sodipodi:docname="ElectronicsBox_270x200x92_part5.svg"
   inkscape:version="1.2.2 (732a01da63, 2022-12-09)"
   xmlns:inkscape="http://www.inkscape.org/namespaces/inkscape"
   xmlns:sodipodi="http://sodipodi.sourceforge.net/DTD/sodipodi-0.dtd"
   xmlns="http://www.w3.org/2000/svg"
   xmlns:svg="http://www.w3.org/2000/svg"
   xmlns:rdf="http://www.w3.org/1999/02/22-rdf-syntax-ns#"
   xmlns:cc="http://creativecommons.org/ns#"
   xmlns:dc="http://purl.org/dc/elements/1.1/">
  <defs
     id="defs315">
    <rect
       x="228.70485"
       y="1294.8893"
       width="191.1398"
       height="47.508736"
       id="rect59777-6" />
    <rect
       x="228.70485"
       y="1294.8893"
       width="191.1398"
       height="47.508736"
       id="rect59777-6-0" />
    <rect
       x="228.70485"
       y="1294.8893"
       width="191.1398"
       height="47.508736"
       id="rect59777-6-0-8" />
    <rect
       x="228.70485"
       y="1294.8893"
       width="191.1398"
       height="47.508736"
       id="rect59777-6-0-3" />
    <rect
       x="228.70485"
       y="1294.8893"
       width="191.1398"
       height="47.508736"
       id="rect59777-6-0-6" />
    <rect
       x="228.70485"
       y="1294.8893"
       width="191.1398"
       height="47.508736"
       id="rect59777-6-0-9" />
    <rect
       x="228.70485"
       y="1294.8893"
       width="191.1398"
       height="47.508736"
       id="rect59777-6-0-6-3" />
    <rect
       x="228.70485"
       y="1294.8893"
       width="191.1398"
       height="47.508736"
       id="rect59777-6-0-9-2" />
    <rect
       x="228.70485"
       y="1294.8893"
       width="191.1398"
       height="47.508736"
       id="rect59777-6-5" />
    <rect
       x="228.70485"
       y="1294.8893"
       width="191.1398"
       height="47.508736"
       id="rect59777-6-0-1" />
    <rect
       x="228.70485"
       y="1294.8893"
       width="191.1398"
       height="47.508736"
       id="rect59777-6-0-8-3" />
    <rect
       x="228.70485"
       y="1294.8893"
       width="191.1398"
       height="47.508736"
       id="rect59777-6-0-3-8" />
    <rect
       x="228.70485"
       y="1294.8893"
       width="191.1398"
       height="47.508736"
       id="rect59777-6-0-6-5" />
    <rect
       x="228.70485"
       y="1294.8893"
       width="191.1398"
       height="47.508736"
       id="rect59777-6-0-9-4" />
    <rect
       x="228.70485"
       y="1294.8893"
       width="191.1398"
       height="47.508736"
       id="rect59777-6-0-6-3-4" />
    <rect
       x="228.70485"
       y="1294.8893"
       width="191.1398"
       height="47.508736"
       id="rect59777-6-0-9-2-4" />
    <rect
       x="228.70485"
       y="1294.8893"
       width="191.1398"
       height="47.508736"
       id="rect59777-6-8" />
    <rect
       x="228.70485"
       y="1294.8893"
       width="191.1398"
       height="47.508736"
       id="rect59777-6-8-2" />
    <rect
       x="228.70485"
       y="1294.8893"
       width="191.1398"
       height="47.508736"
       id="rect59777" />
    <rect
       x="228.70485"
       y="1294.8893"
       width="191.1398"
       height="47.508736"
       id="rect59777-1" />
  </defs>
  <sodipodi:namedview
     id="namedview313"
     pagecolor="#ffffff"
     bordercolor="#000000"
     borderopacity="0.25"
     inkscape:showpageshadow="2"
     inkscape:pageopacity="0.0"
     inkscape:pagecheckerboard="0"
     inkscape:deskcolor="#d1d1d1"
     inkscape:document-units="mm"
     showgrid="false"
     inkscape:zoom="0.47616014"
     inkscape:cx="2719.6733"
     inkscape:cy="2133.7359"
     inkscape:window-width="2560"
     inkscape:window-height="1369"
     inkscape:window-x="2552"
     inkscape:window-y="-8"
     inkscape:window-maximized="1"
     inkscape:current-layer="p-5" />
  <!--
ElectronicsBox - Closed box with screw on top and mounting holes

Created with Boxes.py (https://festi.info/boxes.py)
Creation date: 2023-06-09 12:25:26
Command line (remove spaces between dashes): boxes ElectronicsBox - -FingerJoint_play=0.1 - -x=270 - -y=200 - -h=92
Url: http://localhost:8000/ElectronicsBox?FingerJoint_angle=90.0&FingerJoint_style=rectangular&FingerJoint_surroundingspaces=2.0&FingerJoint_bottom_lip=0.0&FingerJoint_edge_width=1.0&FingerJoint_extra_length=0.0&FingerJoint_finger=2.0&FingerJoint_play=0.1&FingerJoint_space=2.0&FingerJoint_width=1.0&x=270&y=200&h=92&outside=0&outside=1&triangle=25.0&d1=2.0&d2=3.0&d3=3.0&outsidemounts=0&outsidemounts=1&holedist=7.0&thickness=3.0&format=svg&tabs=0.0&qr_code=0&debug=0&labels=0&labels=1&reference=100&inner_corners=loop&burn=0.1&language=None&render=1
Url short: http://localhost:8000/ElectronicsBox?FingerJoint_play=0.1&x=270&y=200&h=92
SettingsUrl: http://localhost:8000/ElectronicsBox?FingerJoint_angle=90.0&FingerJoint_style=rectangular&FingerJoint_surroundingspaces=2.0&FingerJoint_bottom_lip=0.0&FingerJoint_edge_width=1.0&FingerJoint_extra_length=0.0&FingerJoint_finger=2.0&FingerJoint_play=0.1&FingerJoint_space=2.0&FingerJoint_width=1.0&x=270&y=200&h=92&outside=0&outside=1&triangle=25.0&d1=2.0&d2=3.0&d3=3.0&outsidemounts=0&outsidemounts=1&holedist=7.0&thickness=3.0&format=svg&tabs=0.0&qr_code=0&debug=0&labels=0&labels=1&reference=100&inner_corners=loop&burn=0.1&language=None
SettingsUrl short: http://localhost:8000/ElectronicsBox?FingerJoint_play=0.1&x=270&y=200&h=92
-->
  <title
     id="title163">ElectronicsBox</title>
  <metadata
     id="metadata165">
    <rdf:RDF>
      <cc:Work>
        <dc:title>ElectronicsBox</dc:title>
        <dc:date>2023-06-09 12:25:26</dc:date>
        <dc:source>http://localhost:8000/ElectronicsBox?FingerJoint_angle=90.0&amp;FingerJoint_style=rectangular&amp;FingerJoint_surroundingspaces=2.0&amp;FingerJoint_bottom_lip=0.0&amp;FingerJoint_edge_width=1.0&amp;FingerJoint_extra_length=0.0&amp;FingerJoint_finger=2.0&amp;FingerJoint_play=0.1&amp;FingerJoint_space=2.0&amp;FingerJoint_width=1.0&amp;x=270&amp;y=200&amp;h=92&amp;outside=0&amp;outside=1&amp;triangle=25.0&amp;d1=2.0&amp;d2=3.0&amp;d3=3.0&amp;outsidemounts=0&amp;outsidemounts=1&amp;holedist=7.0&amp;thickness=3.0&amp;format=svg&amp;tabs=0.0&amp;qr_code=0&amp;debug=0&amp;labels=0&amp;labels=1&amp;reference=100&amp;inner_corners=loop&amp;burn=0.1&amp;language=None&amp;render=1</dc:source>
        <dc:source>http://localhost:8000/ElectronicsBox?FingerJoint_play=0.1&amp;x=270&amp;y=200&amp;h=92</dc:source>
        <dc:description>Closed box with screw on top and mounting holes

Created with Boxes.py (https://festi.info/boxes.py)
Command line: boxes ElectronicsBox --FingerJoint_angle=90.0 --FingerJoint_style=rectangular --FingerJoint_surroundingspaces=2.0 --FingerJoint_bottom_lip=0.0 --FingerJoint_edge_width=1.0 --FingerJoint_extra_length=0.0 --FingerJoint_finger=2.0 --FingerJoint_play=0.1 --FingerJoint_space=2.0 --FingerJoint_width=1.0 --x=270 --y=200 --h=92 --outside=0 --outside=1 --triangle=25.0 --d1=2.0 --d2=3.0 --d3=3.0 --outsidemounts=0 --outsidemounts=1 --holedist=7.0 --thickness=3.0 --format=svg --tabs=0.0 --qr_code=0 --debug=0 --labels=0 --labels=1 --reference=100 --inner_corners=loop --burn=0.1
Command line short: boxes ElectronicsBox --FingerJoint_play=0.1 --x=270 --y=200 --h=92
Url: http://localhost:8000/ElectronicsBox?FingerJoint_angle=90.0&amp;FingerJoint_style=rectangular&amp;FingerJoint_surroundingspaces=2.0&amp;FingerJoint_bottom_lip=0.0&amp;FingerJoint_edge_width=1.0&amp;FingerJoint_extra_length=0.0&amp;FingerJoint_finger=2.0&amp;FingerJoint_play=0.1&amp;FingerJoint_space=2.0&amp;FingerJoint_width=1.0&amp;x=270&amp;y=200&amp;h=92&amp;outside=0&amp;outside=1&amp;triangle=25.0&amp;d1=2.0&amp;d2=3.0&amp;d3=3.0&amp;outsidemounts=0&amp;outsidemounts=1&amp;holedist=7.0&amp;thickness=3.0&amp;format=svg&amp;tabs=0.0&amp;qr_code=0&amp;debug=0&amp;labels=0&amp;labels=1&amp;reference=100&amp;inner_corners=loop&amp;burn=0.1&amp;language=None&amp;render=1
Url short: http://localhost:8000/ElectronicsBox?FingerJoint_play=0.1&amp;x=270&amp;y=200&amp;h=92
SettingsUrl: http://localhost:8000/ElectronicsBox?FingerJoint_angle=90.0&amp;FingerJoint_style=rectangular&amp;FingerJoint_surroundingspaces=2.0&amp;FingerJoint_bottom_lip=0.0&amp;FingerJoint_edge_width=1.0&amp;FingerJoint_extra_length=0.0&amp;FingerJoint_finger=2.0&amp;FingerJoint_play=0.1&amp;FingerJoint_space=2.0&amp;FingerJoint_width=1.0&amp;x=270&amp;y=200&amp;h=92&amp;outside=0&amp;outside=1&amp;triangle=25.0&amp;d1=2.0&amp;d2=3.0&amp;d3=3.0&amp;outsidemounts=0&amp;outsidemounts=1&amp;holedist=7.0&amp;thickness=3.0&amp;format=svg&amp;tabs=0.0&amp;qr_code=0&amp;debug=0&amp;labels=0&amp;labels=1&amp;reference=100&amp;inner_corners=loop&amp;burn=0.1&amp;language=None
SettingsUrl short: http://localhost:8000/ElectronicsBox?FingerJoint_play=0.1&amp;x=270&amp;y=200&amp;h=92
</dc:description>
      </cc:Work>
    </rdf:RDF>
  </metadata>
  <g
     id="p-0"
     style="fill:none;stroke-linecap:round;stroke-linejoin:round;" />
  <g
     id="p-3"
     style="fill:none;stroke-linecap:round;stroke-linejoin:round;">
    <path
       d="M 297.600 446.450 H 294.550 C 294.450 446.450 294.550 446.550 294.550 446.450 V 443.350 C 294.550 443.250 294.450 443.350 294.550 443.350 H 300.650 C 300.750 443.350 300.650 443.250 300.650 443.350 V 446.450 C 300.650 446.550 300.750 446.450 300.650 446.450 H 297.600 Z"
       stroke="rgb(0,0,255)"
       stroke-width="0.20"
       id="path190" />
    <path
       d="M 466.600 443.350 H 469.650 C 469.750 443.350 469.650 443.250 469.650 443.350 V 446.450 C 469.650 446.550 469.750 446.450 469.650 446.450 H 463.550 C 463.450 446.450 463.550 446.550 463.550 446.450 V 443.350 C 463.550 443.250 463.450 443.350 463.550 443.350 H 466.600 Z"
       stroke="rgb(0,0,255)"
       stroke-width="0.20"
       id="path192" />
    <path
       d="M 285.100 529.500 H 295.000 C 295.100 529.500 295.000 529.400 295.000 529.500 V 532.400 C 295.000 532.455 295.045 532.500 295.100 532.500 H 301.100 C 301.155 532.500 301.200 532.455 301.200 532.400 V 529.500 C 301.200 529.400 301.100 529.500 301.200 529.500 H 307.000 C 307.100 529.500 307.000 529.400 307.000 529.500 V 532.400 C 307.000 532.455 307.045 532.500 307.100 532.500 H 313.100 C 313.155 532.500 313.200 532.455 313.200 532.400 V 529.500 C 313.200 529.400 313.100 529.500 313.200 529.500 H 319.000 C 319.100 529.500 319.000 529.400 319.000 529.500 V 532.400 C 319.000 532.455 319.045 532.500 319.100 532.500 H 325.100 C 325.155 532.500 325.200 532.455 325.200 532.400 V 529.500 C 325.200 529.400 325.100 529.500 325.200 529.500 H 331.000 C 331.100 529.500 331.000 529.400 331.000 529.500 V 532.400 C 331.000 532.455 331.045 532.500 331.100 532.500 H 337.100 C 337.155 532.500 337.200 532.455 337.200 532.400 V 529.500 C 337.200 529.400 337.100 529.500 337.200 529.500 H 343.000 C 343.100 529.500 343.000 529.400 343.000 529.500 V 532.400 C 343.000 532.455 343.045 532.500 343.100 532.500 H 349.100 C 349.155 532.500 349.200 532.455 349.200 532.400 V 529.500 C 349.200 529.400 349.100 529.500 349.200 529.500 H 355.000 C 355.100 529.500 355.000 529.400 355.000 529.500 V 532.400 C 355.000 532.455 355.045 532.500 355.100 532.500 H 361.100 C 361.155 532.500 361.200 532.455 361.200 532.400 V 529.500 C 361.200 529.400 361.100 529.500 361.200 529.500 H 367.000 C 367.100 529.500 367.000 529.400 367.000 529.500 V 532.400 C 367.000 532.455 367.045 532.500 367.100 532.500 H 373.100 C 373.155 532.500 373.200 532.455 373.200 532.400 V 529.500 C 373.200 529.400 373.100 529.500 373.200 529.500 H 379.000 C 379.100 529.500 379.000 529.400 379.000 529.500 V 532.400 C 379.000 532.455 379.045 532.500 379.100 532.500 H 385.100 C 385.155 532.500 385.200 532.455 385.200 532.400 V 529.500 C 385.200 529.400 385.100 529.500 385.200 529.500 H 391.000 C 391.100 529.500 391.000 529.400 391.000 529.500 V 532.400 C 391.000 532.455 391.045 532.500 391.100 532.500 H 397.100 C 397.155 532.500 397.200 532.455 397.200 532.400 V 529.500 C 397.200 529.400 397.100 529.500 397.200 529.500 H 403.000 C 403.100 529.500 403.000 529.400 403.000 529.500 V 532.400 C 403.000 532.455 403.045 532.500 403.100 532.500 H 409.100 C 409.155 532.500 409.200 532.455 409.200 532.400 V 529.500 C 409.200 529.400 409.100 529.500 409.200 529.500 H 415.000 C 415.100 529.500 415.000 529.400 415.000 529.500 V 532.400 C 415.000 532.455 415.045 532.500 415.100 532.500 H 421.100 C 421.155 532.500 421.200 532.455 421.200 532.400 V 529.500 C 421.200 529.400 421.100 529.500 421.200 529.500 H 427.000 C 427.100 529.500 427.000 529.400 427.000 529.500 V 532.400 C 427.000 532.455 427.045 532.500 427.100 532.500 H 433.100 C 433.155 532.500 433.200 532.455 433.200 532.400 V 529.500 C 433.200 529.400 433.100 529.500 433.200 529.500 H 439.000 C 439.100 529.500 439.000 529.400 439.000 529.500 V 532.400 C 439.000 532.455 439.045 532.500 439.100 532.500 H 445.100 C 445.155 532.500 445.200 532.455 445.200 532.400 V 529.500 C 445.200 529.400 445.100 529.500 445.200 529.500 H 451.000 C 451.100 529.500 451.000 529.400 451.000 529.500 V 532.400 C 451.000 532.455 451.045 532.500 451.100 532.500 H 457.100 C 457.155 532.500 457.200 532.455 457.200 532.400 V 529.500 C 457.200 529.400 457.100 529.500 457.200 529.500 H 463.000 C 463.100 529.500 463.000 529.400 463.000 529.500 V 532.400 C 463.000 532.455 463.045 532.500 463.100 532.500 H 469.100 C 469.155 532.500 469.200 532.455 469.200 532.400 V 529.500 C 469.200 529.400 469.100 529.500 469.200 529.500 H 479.100 C 479.155 529.500 479.200 529.455 479.200 529.400 V 518.000 C 479.200 517.900 479.100 518.000 479.200 518.000 H 482.100 C 482.155 518.000 482.200 517.955 482.200 517.900 V 511.900 C 482.200 511.845 482.155 511.800 482.100 511.800 H 479.200 C 479.100 511.800 479.200 511.900 479.200 511.800 V 506.000 C 479.200 505.900 479.100 506.000 479.200 506.000 H 482.100 C 482.155 506.000 482.200 505.955 482.200 505.900 V 499.900 C 482.200 499.845 482.155 499.800 482.100 499.800 H 479.200 C 479.100 499.800 479.200 499.900 479.200 499.800 V 494.000 C 479.200 493.900 479.100 494.000 479.200 494.000 H 482.100 C 482.155 494.000 482.200 493.955 482.200 493.900 V 487.900 C 482.200 487.845 482.155 487.800 482.100 487.800 H 479.200 C 479.100 487.800 479.200 487.900 479.200 487.800 V 482.000 C 479.200 481.900 479.100 482.000 479.200 482.000 H 482.100 C 482.155 482.000 482.200 481.955 482.200 481.900 V 475.900 C 482.200 475.845 482.155 475.800 482.100 475.800 H 479.200 C 479.100 475.800 479.200 475.900 479.200 475.800 V 470.000 C 479.200 469.900 479.100 470.000 479.200 470.000 H 482.100 C 482.155 470.000 482.200 469.955 482.200 469.900 V 463.900 C 482.200 463.845 482.155 463.800 482.100 463.800 H 479.200 C 479.100 463.800 479.200 463.900 479.200 463.800 V 458.000 C 479.200 457.900 479.100 458.000 479.200 458.000 H 482.100 C 482.155 458.000 482.200 457.955 482.200 457.900 V 451.900 C 482.200 451.845 482.155 451.800 482.100 451.800 H 479.200 C 479.100 451.800 479.200 451.900 479.200 451.800 V 440.400 C 479.200 440.345 479.155 440.300 479.100 440.300 H 285.100 C 285.045 440.300 285.000 440.345 285.000 440.400 V 451.800 C 285.000 451.900 285.100 451.800 285.000 451.800 H 282.100 C 282.045 451.800 282.000 451.845 282.000 451.900 V 457.900 C 282.000 457.955 282.045 458.000 282.100 458.000 H 285.000 C 285.100 458.000 285.000 457.900 285.000 458.000 V 463.800 C 285.000 463.900 285.100 463.800 285.000 463.800 H 282.100 C 282.045 463.800 282.000 463.845 282.000 463.900 V 469.900 C 282.000 469.955 282.045 470.000 282.100 470.000 H 285.000 C 285.100 470.000 285.000 469.900 285.000 470.000 V 475.800 C 285.000 475.900 285.100 475.800 285.000 475.800 H 282.100 C 282.045 475.800 282.000 475.845 282.000 475.900 V 481.900 C 282.000 481.955 282.045 482.000 282.100 482.000 H 285.000 C 285.100 482.000 285.000 481.900 285.000 482.000 V 487.800 C 285.000 487.900 285.100 487.800 285.000 487.800 H 282.100 C 282.045 487.800 282.000 487.845 282.000 487.900 V 493.900 C 282.000 493.955 282.045 494.000 282.100 494.000 H 285.000 C 285.100 494.000 285.000 493.900 285.000 494.000 V 499.800 C 285.000 499.900 285.100 499.800 285.000 499.800 H 282.100 C 282.045 499.800 282.000 499.845 282.000 499.900 V 505.900 C 282.000 505.955 282.045 506.000 282.100 506.000 H 285.000 C 285.100 506.000 285.000 505.900 285.000 506.000 V 511.800 C 285.000 511.900 285.100 511.800 285.000 511.800 H 282.100 C 282.045 511.800 282.000 511.845 282.000 511.900 V 517.900 C 282.000 517.955 282.045 518.000 282.100 518.000 H 285.000 C 285.100 518.000 285.000 517.900 285.000 518.000 V 529.400 C 285.000 529.455 285.045 529.500 285.100 529.500"
       stroke="rgb(0,0,0)"
       stroke-width="0.20"
       id="path196" />
  </g>
  <g
     id="p-5"
     style="fill:none;stroke-linecap:round;stroke-linejoin:round;" />
  <g
     id="p-1-4"
     style="fill:none;stroke-linecap:round;stroke-linejoin:round"
     transform="translate(331.54511,436.71545)">
    <path
       d="m 15.95,85.062 c 0,0.269 -0.077,0.531 -0.222,0.757 -0.145,0.226 -0.352,0.405 -0.596,0.517 -0.245,0.111 -0.516,0.15 -0.781,0.112 -0.266,-0.038 -0.515,-0.152 -0.718,-0.328 -0.203,-0.175 -0.351,-0.406 -0.426,-0.663 -0.076,-0.258 -0.076,-0.532 0,-0.789 0.075,-0.258 0.223,-0.488 0.426,-0.664 0.203,-0.176 0.452,-0.289 0.718,-0.327 0.265,-0.039 0.536,0 0.781,0.112 0.244,0.111 0.451,0.291 0.596,0.516 0.145,0.226 0.222,0.489 0.222,0.757 z"
       stroke="#0000ff"
       stroke-width="0.2"
       id="path2367" />
    <path
       d="m 15.95,15.062 c 0,0.269 -0.077,0.531 -0.222,0.757 -0.145,0.226 -0.352,0.405 -0.596,0.517 -0.245,0.111 -0.516,0.15 -0.781,0.112 -0.266,-0.038 -0.515,-0.152 -0.718,-0.328 -0.203,-0.175 -0.351,-0.406 -0.426,-0.663 -0.076,-0.258 -0.076,-0.532 0,-0.789 0.075,-0.258 0.223,-0.488 0.426,-0.664 0.203,-0.176 0.452,-0.289 0.718,-0.327 0.265,-0.039 0.536,0 0.781,0.112 0.244,0.111 0.451,0.291 0.596,0.516 0.145,0.226 0.222,0.489 0.222,0.757 z"
       stroke="#0000ff"
       stroke-width="0.2"
       id="path2369" />
    <path
       d="m 85.95,85.062 c 0,0.269 -0.077,0.531 -0.222,0.757 -0.145,0.226 -0.352,0.405 -0.596,0.517 -0.245,0.111 -0.516,0.15 -0.781,0.112 -0.266,-0.038 -0.515,-0.152 -0.718,-0.328 -0.203,-0.175 -0.351,-0.406 -0.426,-0.663 -0.076,-0.258 -0.076,-0.532 0,-0.789 0.075,-0.258 0.223,-0.488 0.426,-0.664 0.203,-0.176 0.452,-0.289 0.718,-0.327 0.265,-0.039 0.536,0 0.781,0.112 0.244,0.111 0.451,0.291 0.596,0.516 0.145,0.226 0.222,0.489 0.222,0.757 z"
       stroke="#0000ff"
       stroke-width="0.2"
       id="path2371" />
    <path
       d="m 85.95,15.062 c 0,0.269 -0.077,0.531 -0.222,0.757 -0.145,0.226 -0.352,0.405 -0.596,0.517 -0.245,0.111 -0.516,0.15 -0.781,0.112 -0.266,-0.038 -0.515,-0.152 -0.718,-0.328 -0.203,-0.175 -0.351,-0.406 -0.426,-0.663 -0.076,-0.258 -0.076,-0.532 0,-0.789 0.075,-0.258 0.223,-0.488 0.426,-0.664 0.203,-0.176 0.452,-0.289 0.718,-0.327 0.265,-0.039 0.536,0 0.781,0.112 0.244,0.111 0.451,0.291 0.596,0.516 0.145,0.226 0.222,0.489 0.222,0.757 z"
       stroke="#0000ff"
       stroke-width="0.2"
       id="path2373" />
    <path
       d="m 49.55,90.062 c 6.721,0 13.333,-1.697 19.222,-4.935 -0.042,0.023 -0.062,0.073 -0.047,0.118 -0.008,-0.025 -0.006,-0.053 0.006,-0.076 2.046,-3.985 3.007,-8.438 2.786,-12.913 -0.22,-4.474 -1.615,-8.811 -4.043,-12.575 -2.428,-3.765 -5.804,-6.823 -9.789,-8.869 -0.024,-0.012 -0.042,-0.033 -0.05,-0.059 0.005,0.017 0.015,0.032 0.028,0.044 0.013,0.012 0.029,0.02 0.047,0.024 0.017,0.003 0.035,0.002 0.052,-0.003 0.016,-0.006 0.031,-0.016 0.043,-0.029 0.012,-0.013 0.02,-0.029 0.023,-0.047 0.005,-0.024 10e-4,-0.05 -0.012,-0.071 2.555,4.22 4.021,9.01 4.267,13.937 0.246,4.928 -0.736,9.839 -2.859,14.293 -2.122,4.454 -5.317,8.31 -9.299,11.224 0.02,-0.015 0.034,-0.037 0.039,-0.062 0.004,-0.019 0.002,-0.039 -0.006,-0.057 -0.007,-0.019 -0.02,-0.034 -0.036,-0.045 -0.017,-0.011 -0.036,-0.017 -0.056,-0.017 m 23.195,-7.521 c 5.438,-3.95 9.789,-9.21 12.65,-15.291 -0.02,0.043 -0.007,0.095 0.032,0.123 C 85.721,67.239 85.707,67.216 85.703,67.19 85.016,62.763 83.176,58.596 80.367,55.106 77.559,51.616 73.881,48.927 69.704,47.308 65.527,45.69 60.998,45.2 56.571,45.887 c -0.026,0.004 -0.053,-0.002 -0.074,-0.018 0.014,0.011 0.031,0.017 0.049,0.019 0.017,0.002 0.035,-10e-4 0.051,-0.008 0.016,-0.008 0.03,-0.019 0.04,-0.033 0.011,-0.015 0.017,-0.031 0.019,-0.049 10e-4,-0.018 -0.002,-0.035 -0.009,-0.051 -0.01,-0.023 -0.029,-0.041 -0.052,-0.051 4.548,1.913 8.549,4.925 11.644,8.767 3.095,3.842 5.188,8.393 6.089,13.244 0.901,4.85 0.582,9.849 -0.927,14.546 0.008,-0.024 0.007,-0.05 -0.004,-0.072 -0.008,-0.018 -0.022,-0.034 -0.038,-0.044 -0.017,-0.01 -0.037,-0.015 -0.057,-0.015 -0.019,0.001 -0.039,0.008 -0.055,0.019 M 87.592,62.423 c 2.077,-6.392 2.506,-13.205 1.246,-19.806 0.009,0.047 0.05,0.081 0.098,0.081 -0.026,0 -0.052,-0.011 -0.07,-0.03 -3.158,-3.177 -7.097,-5.467 -11.42,-6.64 -4.323,-1.172 -8.879,-1.186 -13.209,-0.04 -4.331,1.146 -8.283,3.412 -11.461,6.569 -0.018,0.019 -0.044,0.03 -0.07,0.03 0.017,0 0.035,-0.005 0.05,-0.014 0.015,-0.009 0.028,-0.021 0.037,-0.037 0.008,-0.015 0.013,-0.032 0.013,-0.05 0,-0.018 -0.005,-0.035 -0.014,-0.05 -0.009,-0.015 -0.022,-0.028 -0.037,-0.037 -0.022,-0.012 -0.048,-0.016 -0.072,-0.01 4.804,-1.126 9.811,-1.04 14.574,0.249 4.762,1.288 9.129,3.74 12.71,7.135 3.58,3.395 6.26,7.626 7.8,12.313 -0.007,-0.024 -0.024,-0.044 -0.046,-0.056 -0.017,-0.01 -0.037,-0.014 -0.056,-0.013 -0.02,0.002 -0.039,0.009 -0.054,0.021 -0.016,0.012 -0.028,0.029 -0.034,0.048 M 87.592,37.702 C 85.515,31.31 81.858,25.546 76.959,20.946 c 0.034,0.032 0.088,0.036 0.127,0.008 -0.022,0.015 -0.049,0.022 -0.075,0.017 -4.422,-0.714 -8.955,-0.252 -13.141,1.341 -4.187,1.592 -7.881,4.259 -10.711,7.731 -2.83,3.473 -4.696,7.629 -5.41,12.051 -0.004,0.027 -0.019,0.05 -0.04,0.065 0.014,-0.01 0.025,-0.024 0.033,-0.04 0.007,-0.016 0.01,-0.034 0.008,-0.051 -0.002,-0.018 -0.009,-0.035 -0.019,-0.049 -0.011,-0.014 -0.025,-0.025 -0.041,-0.032 -0.016,-0.007 -0.034,-0.01 -0.051,-0.008 -0.025,0.003 -0.048,0.015 -0.064,0.034 3.224,-3.734 7.326,-6.609 11.936,-8.365 4.61,-1.757 9.585,-2.34 14.476,-1.698 4.892,0.642 9.548,2.489 13.549,5.376 -0.021,-0.015 -0.046,-0.021 -0.071,-0.019 -0.019,0.003 -0.038,0.011 -0.053,0.024 -0.015,0.013 -0.026,0.03 -0.031,0.049 -0.006,0.019 -0.005,0.039 0.001,0.058 M 73.061,17.702 C 67.624,13.751 61.277,11.238 54.61,10.396 c 0.047,0.006 0.092,-0.023 0.107,-0.068 -0.008,0.025 -0.026,0.046 -0.05,0.058 -3.997,2.021 -7.392,5.059 -9.844,8.809 -2.451,3.749 -3.872,8.078 -4.12,12.55 -0.248,4.473 0.685,8.932 2.707,12.93 0.011,0.023 0.014,0.051 0.005,0.076 0.006,-0.017 0.007,-0.035 0.003,-0.052 -0.004,-0.017 -0.012,-0.033 -0.024,-0.046 -0.011,-0.013 -0.027,-0.023 -0.043,-0.028 -0.017,-0.006 -0.035,-0.007 -0.052,-0.003 -0.018,0.004 -0.034,0.012 -0.047,0.024 -0.018,0.017 -0.029,0.04 -0.031,0.065 0.413,-4.916 2.042,-9.652 4.739,-13.783 2.698,-4.131 6.379,-7.527 10.714,-9.883 4.335,-2.356 9.187,-3.598 14.121,-3.614 -0.025,0 -0.049,0.009 -0.068,0.026 -0.014,0.014 -0.025,0.031 -0.029,0.05 -0.005,0.02 -0.004,0.04 0.003,0.058 0.007,0.019 0.019,0.035 0.035,0.047 M 49.55,10.062 c -6.721,0 -13.333,1.698 -19.222,4.936 0.042,-0.023 0.062,-0.073 0.047,-0.119 0.008,0.026 0.006,0.053 -0.006,0.077 -2.046,3.985 -3.007,8.438 -2.786,12.912 0.22,4.474 1.615,8.811 4.043,12.576 2.428,3.764 5.804,6.823 9.789,8.869 0.024,0.012 0.042,0.033 0.05,0.058 -0.005,-0.017 -0.015,-0.032 -0.028,-0.043 -0.013,-0.012 -0.029,-0.02 -0.047,-0.024 -0.017,-0.004 -0.035,-0.003 -0.052,0.003 -0.016,0.006 -0.031,0.015 -0.043,0.029 -0.012,0.013 -0.02,0.029 -0.023,0.046 -0.005,0.025 -10e-4,0.05 0.012,0.072 -2.555,-4.221 -4.021,-9.01 -4.267,-13.937 -0.246,-4.928 0.736,-9.839 2.859,-14.293 2.122,-4.454 5.317,-8.311 9.299,-11.224 -0.02,0.015 -0.034,0.037 -0.039,0.061 -0.004,0.02 -0.002,0.04 0.006,0.058 0.007,0.018 0.02,0.034 0.036,0.045 0.017,0.011 0.036,0.017 0.056,0.017 m -23.195,7.521 c -5.438,3.95 -9.789,9.21 -12.65,15.291 0.02,-0.044 0.007,-0.095 -0.032,-0.124 0.022,0.016 0.036,0.04 0.04,0.066 0.687,4.426 2.527,8.594 5.336,12.084 2.808,3.49 6.486,6.179 10.663,7.797 4.177,1.618 8.706,2.109 13.133,1.421 0.026,-0.004 0.053,0.003 0.074,0.018 -0.014,-0.01 -0.031,-0.016 -0.049,-0.018 -0.017,-0.002 -0.035,10e-4 -0.051,0.008 -0.016,0.007 -0.03,0.019 -0.04,0.033 -0.011,0.014 -0.017,0.031 -0.019,0.049 -0.001,0.017 0.002,0.035 0.009,0.051 0.01,0.023 0.029,0.041 0.052,0.05 -4.548,-1.912 -8.549,-4.925 -11.644,-8.767 -3.095,-3.842 -5.188,-8.392 -6.089,-13.243 -0.901,-4.851 -0.582,-9.849 0.927,-14.546 -0.008,0.023 -0.007,0.049 0.004,0.072 0.008,0.018 0.022,0.033 0.038,0.043 0.017,0.011 0.037,0.016 0.057,0.015 0.019,-10e-4 0.039,-0.007 0.055,-0.019 M 11.508,37.702 c -2.077,6.391 -2.506,13.204 -1.246,19.806 -0.009,-0.047 -0.05,-0.081 -0.098,-0.081 0.026,0 0.052,0.01 0.07,0.029 3.158,3.177 7.097,5.467 11.42,6.64 4.323,1.173 8.879,1.187 13.209,0.041 4.331,-1.146 8.283,-3.412 11.461,-6.57 0.018,-0.019 0.044,-0.029 0.07,-0.029 -0.017,0 -0.035,0.005 -0.05,0.013 -0.015,0.009 -0.028,0.022 -0.037,0.037 -0.008,0.016 -0.013,0.033 -0.013,0.051 0,0.017 0.005,0.035 0.014,0.05 0.009,0.015 0.022,0.028 0.037,0.036 0.022,0.012 0.048,0.016 0.072,0.01 -4.804,1.126 -9.811,1.041 -14.574,-0.248 -4.762,-1.289 -9.129,-3.741 -12.71,-7.135 -3.58,-3.395 -6.26,-7.626 -7.8,-12.313 0.007,0.024 0.024,0.044 0.046,0.056 0.017,0.01 0.037,0.014 0.056,0.012 0.02,-10e-4 0.039,-0.008 0.054,-0.021 0.016,-0.012 0.028,-0.028 0.034,-0.047 m -0.015,24.384 c 2.077,6.392 5.734,12.155 10.633,16.756 -0.034,-0.033 -0.088,-0.036 -0.127,-0.008 0.022,-0.016 0.049,-0.022 0.075,-0.018 4.422,0.715 8.955,0.252 13.141,-1.34 4.187,-1.593 7.881,-4.259 10.711,-7.732 2.83,-3.472 4.696,-7.629 5.41,-12.051 0.004,-0.026 0.019,-0.049 0.04,-0.065 -0.014,0.01 -0.025,0.024 -0.033,0.041 -0.007,0.016 -0.01,0.033 -0.008,0.051 0.002,0.017 0.009,0.034 0.019,0.048 0.011,0.015 0.025,0.026 0.041,0.033 0.016,0.007 0.034,0.01 0.051,0.008 0.025,-0.003 0.048,-0.016 0.064,-0.034 -3.224,3.734 -7.326,6.608 -11.936,8.365 -4.61,1.756 -9.585,2.34 -14.476,1.698 -4.892,-0.642 -9.548,-2.489 -13.549,-5.376 0.021,0.015 0.046,0.021 0.071,0.018 0.019,-0.002 0.038,-0.01 0.053,-0.023 0.015,-0.013 0.026,-0.03 0.031,-0.049 0.006,-0.019 0.005,-0.039 -10e-4,-0.058 m 14.321,19.736 c 5.437,3.95 11.784,6.463 18.451,7.306 -0.047,-0.006 -0.092,0.022 -0.107,0.068 0.008,-0.026 0.026,-0.046 0.05,-0.058 3.997,-2.022 7.392,-5.06 9.844,-8.809 2.451,-3.75 3.872,-8.078 4.12,-12.551 0.248,-4.472 -0.685,-8.932 -2.707,-12.929 -0.011,-0.024 -0.014,-0.051 -0.005,-0.076 -0.006,0.016 -0.007,0.034 -0.003,0.052 0.004,0.017 0.012,0.033 0.024,0.046 0.011,0.013 0.027,0.023 0.043,0.028 0.017,0.005 0.035,0.006 0.052,0.002 0.018,-0.003 0.034,-0.012 0.047,-0.024 0.018,-0.017 0.029,-0.04 0.031,-0.065 -0.413,4.916 -2.042,9.653 -4.739,13.784 -2.698,4.131 -6.379,7.527 -10.714,9.883 -4.335,2.355 -9.187,3.597 -14.121,3.614 0.025,0 0.049,-0.01 0.068,-0.027 0.014,-0.013 0.025,-0.031 0.029,-0.05 0.005,-0.019 0.004,-0.039 -0.003,-0.058 -0.007,-0.018 -0.019,-0.034 -0.035,-0.046"
       stroke="#000000"
       stroke-width="0.2"
       id="path2375" />
  </g>
</svg>
