<?xml version="1.0" encoding="UTF-8" standalone="no"?>
<svg
   width="120.80mm"
   height="110.91mm"
   viewBox="0.0 0.0 120.80 110.91"
   version="1.1"
   id="svg2378"
   sodipodi:docname="FanHole80mm.svg"
   inkscape:version="1.2.2 (732a01da63, 2022-12-09)"
   xmlns:inkscape="http://www.inkscape.org/namespaces/inkscape"
   xmlns:sodipodi="http://sodipodi.sourceforge.net/DTD/sodipodi-0.dtd"
   xmlns="http://www.w3.org/2000/svg"
   xmlns:svg="http://www.w3.org/2000/svg"
   xmlns:rdf="http://www.w3.org/1999/02/22-rdf-syntax-ns#"
   xmlns:cc="http://creativecommons.org/ns#"
   xmlns:dc="http://purl.org/dc/elements/1.1/">
  <defs
     id="defs2382" />
  <sodipodi:namedview
     id="namedview2380"
     pagecolor="#ffffff"
     bordercolor="#000000"
     borderopacity="0.25"
     inkscape:showpageshadow="2"
     inkscape:pageopacity="0.0"
     inkscape:pagecheckerboard="0"
     inkscape:deskcolor="#d1d1d1"
     inkscape:document-units="mm"
     showgrid="false"
     inkscape:zoom="2.4499781"
     inkscape:cx="228.1653"
     inkscape:cy="209.38962"
     inkscape:window-width="2560"
     inkscape:window-height="1369"
     inkscape:window-x="2552"
     inkscape:window-y="-8"
     inkscape:window-maximized="1"
     inkscape:current-layer="svg2378" />
  <!--
FanHole - Hole pattern for mounting a fan

Created with Boxes.py (https://festi.info/boxes.py)
Creation date: 2023-06-09 13:52:50
Command line (remove spaces between dashes): boxes FanHole 
Url: http://localhost:8000/FanHole?diameter=80&mounting_holes=3&mounting_holes_inset=5&arms=10&inner_disc=0.2&style=CW+Swirl&thickness=3.0&format=svg&tabs=0.0&qr_code=0&debug=0&labels=0&labels=1&reference=100&inner_corners=loop&burn=0.1&language=None&render=1
Url short: http://localhost:8000/FanHole
SettingsUrl: http://localhost:8000/FanHole?diameter=80&mounting_holes=3&mounting_holes_inset=5&arms=10&inner_disc=0.2&style=CW+Swirl&thickness=3.0&format=svg&tabs=0.0&qr_code=0&debug=0&labels=0&labels=1&reference=100&inner_corners=loop&burn=0.1&language=None
SettingsUrl short: http://localhost:8000/FanHole
-->
  <title
     id="title2358">FanHole</title>
  <metadata
     id="metadata2360">
    <rdf:RDF>
      <cc:Work>
        <dc:title>Holes - FanHole</dc:title>
        <dc:date>2023-06-09 13:52:50</dc:date>
        <dc:source>http://localhost:8000/FanHole?diameter=80&amp;mounting_holes=3&amp;mounting_holes_inset=5&amp;arms=10&amp;inner_disc=0.2&amp;style=CW+Swirl&amp;thickness=3.0&amp;format=svg&amp;tabs=0.0&amp;qr_code=0&amp;debug=0&amp;labels=0&amp;labels=1&amp;reference=100&amp;inner_corners=loop&amp;burn=0.1&amp;language=None&amp;render=1</dc:source>
        <dc:source>http://localhost:8000/FanHole</dc:source>
        <dc:description>Hole pattern for mounting a fan

Created with Boxes.py (https://festi.info/boxes.py)
Command line: boxes FanHole --diameter=80 --mounting_holes=3 --mounting_holes_inset=5 --arms=10 --inner_disc=0.2 '--style=CW Swirl' --thickness=3.0 --format=svg --tabs=0.0 --qr_code=0 --debug=0 --labels=0 --labels=1 --reference=100 --inner_corners=loop --burn=0.1
Command line short: boxes FanHole 
Url: http://localhost:8000/FanHole?diameter=80&amp;mounting_holes=3&amp;mounting_holes_inset=5&amp;arms=10&amp;inner_disc=0.2&amp;style=CW+Swirl&amp;thickness=3.0&amp;format=svg&amp;tabs=0.0&amp;qr_code=0&amp;debug=0&amp;labels=0&amp;labels=1&amp;reference=100&amp;inner_corners=loop&amp;burn=0.1&amp;language=None&amp;render=1
Url short: http://localhost:8000/FanHole
SettingsUrl: http://localhost:8000/FanHole?diameter=80&amp;mounting_holes=3&amp;mounting_holes_inset=5&amp;arms=10&amp;inner_disc=0.2&amp;style=CW+Swirl&amp;thickness=3.0&amp;format=svg&amp;tabs=0.0&amp;qr_code=0&amp;debug=0&amp;labels=0&amp;labels=1&amp;reference=100&amp;inner_corners=loop&amp;burn=0.1&amp;language=None
SettingsUrl short: http://localhost:8000/FanHole
</dc:description>
      </cc:Work>
    </rdf:RDF>
  </metadata>
  <g
     id="p-1"
     style="fill:none;stroke-linecap:round;stroke-linejoin:round;">
    <path
       d="M 15.950 85.062 C 15.950 85.331 15.873 85.593 15.728 85.819 C 15.583 86.045 15.376 86.224 15.132 86.336 C 14.887 86.447 14.616 86.486 14.351 86.448 C 14.085 86.410 13.836 86.296 13.633 86.120 C 13.430 85.945 13.282 85.714 13.207 85.457 C 13.131 85.199 13.131 84.925 13.207 84.668 C 13.282 84.410 13.430 84.180 13.633 84.004 C 13.836 83.828 14.085 83.715 14.351 83.677 C 14.616 83.638 14.887 83.677 15.132 83.789 C 15.376 83.900 15.583 84.080 15.728 84.305 C 15.873 84.531 15.950 84.794 15.950 85.062 Z"
       stroke="rgb(0,0,255)"
       stroke-width="0.20"
       id="path2367" />
    <path
       d="M 15.950 15.062 C 15.950 15.331 15.873 15.593 15.728 15.819 C 15.583 16.045 15.376 16.224 15.132 16.336 C 14.887 16.447 14.616 16.486 14.351 16.448 C 14.085 16.410 13.836 16.296 13.633 16.120 C 13.430 15.945 13.282 15.714 13.207 15.457 C 13.131 15.199 13.131 14.925 13.207 14.668 C 13.282 14.410 13.430 14.180 13.633 14.004 C 13.836 13.828 14.085 13.715 14.351 13.677 C 14.616 13.638 14.887 13.677 15.132 13.789 C 15.376 13.900 15.583 14.080 15.728 14.305 C 15.873 14.531 15.950 14.794 15.950 15.062 Z"
       stroke="rgb(0,0,255)"
       stroke-width="0.20"
       id="path2369" />
    <path
       d="M 85.950 85.062 C 85.950 85.331 85.873 85.593 85.728 85.819 C 85.583 86.045 85.376 86.224 85.132 86.336 C 84.887 86.447 84.616 86.486 84.351 86.448 C 84.085 86.410 83.836 86.296 83.633 86.120 C 83.430 85.945 83.282 85.714 83.207 85.457 C 83.131 85.199 83.131 84.925 83.207 84.668 C 83.282 84.410 83.430 84.180 83.633 84.004 C 83.836 83.828 84.085 83.715 84.351 83.677 C 84.616 83.638 84.887 83.677 85.132 83.789 C 85.376 83.900 85.583 84.080 85.728 84.305 C 85.873 84.531 85.950 84.794 85.950 85.062 Z"
       stroke="rgb(0,0,255)"
       stroke-width="0.20"
       id="path2371" />
    <path
       d="M 85.950 15.062 C 85.950 15.331 85.873 15.593 85.728 15.819 C 85.583 16.045 85.376 16.224 85.132 16.336 C 84.887 16.447 84.616 16.486 84.351 16.448 C 84.085 16.410 83.836 16.296 83.633 16.120 C 83.430 15.945 83.282 15.714 83.207 15.457 C 83.131 15.199 83.131 14.925 83.207 14.668 C 83.282 14.410 83.430 14.180 83.633 14.004 C 83.836 13.828 84.085 13.715 84.351 13.677 C 84.616 13.638 84.887 13.677 85.132 13.789 C 85.376 13.900 85.583 14.080 85.728 14.305 C 85.873 14.531 85.950 14.794 85.950 15.062 Z"
       stroke="rgb(0,0,255)"
       stroke-width="0.20"
       id="path2373" />
    <path
       d="M 49.550 90.062 C 56.271 90.062 62.883 88.365 68.772 85.127 C 68.730 85.150 68.710 85.200 68.725 85.245 C 68.717 85.220 68.719 85.192 68.731 85.169 C 70.777 81.184 71.738 76.731 71.517 72.256 C 71.297 67.782 69.902 63.445 67.474 59.681 C 65.046 55.916 61.670 52.858 57.685 50.812 C 57.661 50.800 57.643 50.779 57.635 50.753 C 57.640 50.770 57.650 50.785 57.663 50.797 C 57.676 50.809 57.692 50.817 57.710 50.821 C 57.727 50.824 57.745 50.823 57.762 50.818 C 57.778 50.812 57.793 50.802 57.805 50.789 C 57.817 50.776 57.825 50.760 57.828 50.742 C 57.833 50.718 57.829 50.692 57.816 50.671 C 60.371 54.891 61.837 59.681 62.083 64.608 C 62.329 69.536 61.347 74.447 59.224 78.901 C 57.102 83.355 53.907 87.211 49.925 90.125 C 49.945 90.110 49.959 90.088 49.964 90.063 C 49.968 90.044 49.966 90.024 49.958 90.006 C 49.951 89.987 49.938 89.972 49.922 89.961 C 49.905 89.950 49.886 89.944 49.866 89.944 M 73.061 82.423 C 78.499 78.473 82.850 73.213 85.711 67.132 C 85.691 67.175 85.704 67.227 85.743 67.255 C 85.721 67.239 85.707 67.216 85.703 67.190 C 85.016 62.763 83.176 58.596 80.367 55.106 C 77.559 51.616 73.881 48.927 69.704 47.308 C 65.527 45.690 60.998 45.200 56.571 45.887 C 56.545 45.891 56.518 45.885 56.497 45.869 C 56.511 45.880 56.528 45.886 56.546 45.888 C 56.563 45.890 56.581 45.887 56.597 45.880 C 56.613 45.872 56.627 45.861 56.637 45.847 C 56.648 45.832 56.654 45.816 56.656 45.798 C 56.657 45.780 56.654 45.763 56.647 45.747 C 56.637 45.724 56.618 45.706 56.595 45.696 C 61.143 47.609 65.144 50.621 68.239 54.463 C 71.334 58.305 73.427 62.856 74.328 67.707 C 75.229 72.557 74.910 77.556 73.401 82.253 C 73.409 82.229 73.408 82.203 73.397 82.181 C 73.389 82.163 73.375 82.147 73.359 82.137 C 73.342 82.127 73.322 82.122 73.302 82.122 C 73.283 82.123 73.263 82.130 73.247 82.141 M 87.592 62.423 C 89.669 56.031 90.098 49.218 88.838 42.617 C 88.847 42.664 88.888 42.698 88.936 42.698 C 88.910 42.698 88.884 42.687 88.866 42.668 C 85.708 39.491 81.769 37.201 77.446 36.028 C 73.123 34.856 68.567 34.842 64.237 35.988 C 59.906 37.134 55.954 39.400 52.776 42.557 C 52.758 42.576 52.732 42.587 52.706 42.587 C 52.723 42.587 52.741 42.582 52.756 42.573 C 52.771 42.564 52.784 42.552 52.793 42.536 C 52.801 42.521 52.806 42.504 52.806 42.486 C 52.806 42.468 52.801 42.451 52.792 42.436 C 52.783 42.421 52.770 42.408 52.755 42.399 C 52.733 42.387 52.707 42.383 52.683 42.389 C 57.487 41.263 62.494 41.349 67.257 42.638 C 72.019 43.926 76.386 46.378 79.967 49.773 C 83.547 53.168 86.227 57.399 87.767 62.086 C 87.760 62.062 87.743 62.042 87.721 62.030 C 87.704 62.020 87.684 62.016 87.665 62.017 C 87.645 62.019 87.626 62.026 87.611 62.038 C 87.595 62.050 87.583 62.067 87.577 62.086 M 87.592 37.702 C 85.515 31.310 81.858 25.546 76.959 20.946 C 76.993 20.978 77.047 20.982 77.086 20.954 C 77.064 20.969 77.037 20.976 77.011 20.971 C 72.589 20.257 68.056 20.719 63.870 22.312 C 59.683 23.904 55.989 26.571 53.159 30.043 C 50.329 33.516 48.463 37.672 47.749 42.094 C 47.745 42.121 47.730 42.144 47.709 42.159 C 47.723 42.149 47.734 42.135 47.742 42.119 C 47.749 42.103 47.752 42.085 47.750 42.068 C 47.748 42.050 47.741 42.033 47.731 42.019 C 47.720 42.005 47.706 41.994 47.690 41.987 C 47.674 41.980 47.656 41.977 47.639 41.979 C 47.614 41.982 47.591 41.994 47.575 42.013 C 50.799 38.279 54.901 35.404 59.511 33.648 C 64.121 31.891 69.096 31.308 73.987 31.950 C 78.879 32.592 83.535 34.439 87.536 37.326 C 87.515 37.311 87.490 37.305 87.465 37.307 C 87.446 37.310 87.427 37.318 87.412 37.331 C 87.397 37.344 87.386 37.361 87.381 37.380 C 87.375 37.399 87.376 37.419 87.382 37.438 M 73.061 17.702 C 67.624 13.751 61.277 11.238 54.610 10.396 C 54.657 10.402 54.702 10.373 54.717 10.328 C 54.709 10.353 54.691 10.374 54.667 10.386 C 50.670 12.407 47.275 15.445 44.823 19.195 C 42.372 22.944 40.951 27.273 40.703 31.745 C 40.455 36.218 41.388 40.677 43.410 44.675 C 43.421 44.698 43.424 44.726 43.415 44.751 C 43.421 44.734 43.422 44.716 43.418 44.699 C 43.414 44.682 43.406 44.666 43.394 44.653 C 43.383 44.640 43.367 44.630 43.351 44.625 C 43.334 44.619 43.316 44.618 43.299 44.622 C 43.281 44.626 43.265 44.634 43.252 44.646 C 43.234 44.663 43.223 44.686 43.221 44.711 C 43.634 39.795 45.263 35.059 47.960 30.928 C 50.658 26.797 54.339 23.401 58.674 21.045 C 63.009 18.689 67.861 17.447 72.795 17.431 C 72.770 17.431 72.746 17.440 72.727 17.457 C 72.713 17.471 72.702 17.488 72.698 17.507 C 72.693 17.527 72.694 17.547 72.701 17.565 C 72.708 17.584 72.720 17.600 72.736 17.612 M 49.550 10.062 C 42.829 10.062 36.217 11.760 30.328 14.998 C 30.370 14.975 30.390 14.925 30.375 14.879 C 30.383 14.905 30.381 14.932 30.369 14.956 C 28.323 18.941 27.362 23.394 27.583 27.868 C 27.803 32.342 29.198 36.679 31.626 40.444 C 34.054 44.208 37.430 47.267 41.415 49.313 C 41.439 49.325 41.457 49.346 41.465 49.371 C 41.460 49.354 41.450 49.339 41.437 49.328 C 41.424 49.316 41.408 49.308 41.390 49.304 C 41.373 49.300 41.355 49.301 41.338 49.307 C 41.322 49.313 41.307 49.322 41.295 49.336 C 41.283 49.349 41.275 49.365 41.272 49.382 C 41.267 49.407 41.271 49.432 41.284 49.454 C 38.729 45.233 37.263 40.444 37.017 35.517 C 36.771 30.589 37.753 25.678 39.876 21.224 C 41.998 16.770 45.193 12.913 49.175 10.000 C 49.155 10.015 49.141 10.037 49.136 10.061 C 49.132 10.081 49.134 10.101 49.142 10.119 C 49.149 10.137 49.162 10.153 49.178 10.164 C 49.195 10.175 49.214 10.181 49.234 10.181 M 26.039 17.702 C 20.601 21.652 16.250 26.912 13.389 32.993 C 13.409 32.949 13.396 32.898 13.357 32.869 C 13.379 32.885 13.393 32.909 13.397 32.935 C 14.084 37.361 15.924 41.529 18.733 45.019 C 21.541 48.509 25.219 51.198 29.396 52.816 C 33.573 54.434 38.102 54.925 42.529 54.237 C 42.555 54.233 42.582 54.240 42.603 54.255 C 42.589 54.245 42.572 54.239 42.554 54.237 C 42.537 54.235 42.519 54.238 42.503 54.245 C 42.487 54.252 42.473 54.264 42.463 54.278 C 42.452 54.292 42.446 54.309 42.444 54.327 C 42.443 54.344 42.446 54.362 42.453 54.378 C 42.463 54.401 42.482 54.419 42.505 54.428 C 37.957 52.516 33.956 49.503 30.861 45.661 C 27.766 41.819 25.673 37.269 24.772 32.418 C 23.871 27.567 24.190 22.569 25.699 17.872 C 25.691 17.895 25.692 17.921 25.703 17.944 C 25.711 17.962 25.725 17.977 25.741 17.987 C 25.758 17.998 25.778 18.003 25.798 18.002 C 25.817 18.001 25.837 17.995 25.853 17.983 M 11.508 37.702 C 9.431 44.093 9.002 50.906 10.262 57.508 C 10.253 57.461 10.212 57.427 10.164 57.427 C 10.190 57.427 10.216 57.437 10.234 57.456 C 13.392 60.633 17.331 62.923 21.654 64.096 C 25.977 65.269 30.533 65.283 34.863 64.137 C 39.194 62.991 43.146 60.725 46.324 57.567 C 46.342 57.548 46.368 57.538 46.394 57.538 C 46.377 57.538 46.359 57.543 46.344 57.551 C 46.329 57.560 46.316 57.573 46.307 57.588 C 46.299 57.604 46.294 57.621 46.294 57.639 C 46.294 57.656 46.299 57.674 46.308 57.689 C 46.317 57.704 46.330 57.717 46.345 57.725 C 46.367 57.737 46.393 57.741 46.417 57.735 C 41.613 58.861 36.606 58.776 31.843 57.487 C 27.081 56.198 22.714 53.746 19.133 50.352 C 15.553 46.957 12.873 42.726 11.333 38.039 C 11.340 38.063 11.357 38.083 11.379 38.095 C 11.396 38.105 11.416 38.109 11.435 38.107 C 11.455 38.106 11.474 38.099 11.489 38.086 C 11.505 38.074 11.517 38.058 11.523 38.039 M 11.508 62.423 C 13.585 68.815 17.242 74.578 22.141 79.179 C 22.107 79.146 22.053 79.143 22.014 79.171 C 22.036 79.155 22.063 79.149 22.089 79.153 C 26.511 79.868 31.044 79.405 35.230 77.813 C 39.417 76.220 43.111 73.554 45.941 70.081 C 48.771 66.609 50.637 62.452 51.351 58.030 C 51.355 58.004 51.370 57.981 51.391 57.965 C 51.377 57.975 51.366 57.989 51.358 58.006 C 51.351 58.022 51.348 58.039 51.350 58.057 C 51.352 58.074 51.359 58.091 51.369 58.105 C 51.380 58.120 51.394 58.131 51.410 58.138 C 51.426 58.145 51.444 58.148 51.461 58.146 C 51.486 58.143 51.509 58.130 51.525 58.112 C 48.301 61.846 44.199 64.720 39.589 66.477 C 34.979 68.233 30.004 68.817 25.113 68.175 C 20.221 67.533 15.565 65.686 11.564 62.799 C 11.585 62.814 11.610 62.820 11.635 62.817 C 11.654 62.815 11.673 62.807 11.688 62.794 C 11.703 62.781 11.714 62.764 11.719 62.745 C 11.725 62.726 11.724 62.706 11.718 62.687 M 26.039 82.423 C 31.476 86.373 37.823 88.886 44.490 89.729 C 44.443 89.723 44.398 89.751 44.383 89.797 C 44.391 89.771 44.409 89.751 44.433 89.739 C 48.430 87.717 51.825 84.679 54.277 80.930 C 56.728 77.180 58.149 72.852 58.397 68.379 C 58.645 63.907 57.712 59.447 55.690 55.450 C 55.679 55.426 55.676 55.399 55.685 55.374 C 55.679 55.390 55.678 55.408 55.682 55.426 C 55.686 55.443 55.694 55.459 55.706 55.472 C 55.717 55.485 55.733 55.495 55.749 55.500 C 55.766 55.505 55.784 55.506 55.801 55.502 C 55.819 55.499 55.835 55.490 55.848 55.478 C 55.866 55.461 55.877 55.438 55.879 55.413 C 55.466 60.329 53.837 65.066 51.140 69.197 C 48.442 73.328 44.761 76.724 40.426 79.080 C 36.091 81.435 31.239 82.677 26.305 82.694 C 26.330 82.694 26.354 82.684 26.373 82.667 C 26.387 82.654 26.398 82.636 26.402 82.617 C 26.407 82.598 26.406 82.578 26.399 82.559 C 26.392 82.541 26.380 82.525 26.364 82.513"
       stroke="rgb(0,0,0)"
       stroke-width="0.20"
       id="path2375" />
  </g>
</svg>
